<svg width="32" height="32" viewBox="0 0 32 32" fill="none" xmlns="http://www.w3.org/2000/svg">
<rect width="32" height="32" rx="16" fill="white"/>
<g clip-path="url(#clip0_4319_5265)">
<path d="M12.0233 22.0012H9.03788V12.6543H12.0233V22.0012ZM10.529 11.3793C9.57434 11.3793 8.80002 10.6105 8.80002 9.6824C8.80002 9.23659 8.98218 8.80904 9.30642 8.4938C9.63066 8.17856 10.0704 8.00146 10.529 8.00146C10.9875 8.00146 11.4273 8.17856 11.7515 8.4938C12.0758 8.80904 12.2579 9.23659 12.2579 9.6824C12.2579 10.6105 11.4833 11.3793 10.529 11.3793ZM23.1968 22.0012H20.2178V17.4512C20.2178 16.3668 20.1953 14.9762 18.6656 14.9762C17.1134 14.9762 16.8756 16.1543 16.8756 17.373V22.0012H13.8934V12.6543H16.7567V13.9293H16.7984C17.197 13.1949 18.1706 12.4199 19.6232 12.4199C22.6446 12.4199 23.2 14.3543 23.2 16.8668V22.0012H23.1968Z" fill="#48A145"/>
</g>
<defs>
<clipPath id="clip0_4319_5265">
<rect width="14.4" height="16" fill="white" transform="translate(8.80002 8)"/>
</clipPath>
</defs>
</svg>
