<svg width="119" height="20" viewBox="0 0 119 20" fill="none" xmlns="http://www.w3.org/2000/svg">
<path fill-rule="evenodd" clip-rule="evenodd" d="M14.1835 3.71185C14.4831 3.1313 14.8849 2.84102 15.3888 2.84102C15.7702 2.84102 16.0766 2.96253 16.3081 3.20555C16.5397 3.43507 16.6554 3.7456 16.6554 4.13713V16.1261C16.6554 16.5042 16.5465 16.8012 16.3286 17.0172C16.1106 17.2332 15.8246 17.3412 15.4705 17.3412C15.1164 17.3412 14.8372 17.2332 14.633 17.0172C14.4287 16.8012 14.3265 16.5042 14.3265 16.1261V7.78244L10.8536 14.3035C10.6902 14.6005 10.5131 14.8233 10.3224 14.9718C10.1318 15.1068 9.90706 15.1743 9.64829 15.1743C9.38953 15.1743 9.16481 15.1068 8.97414 14.9718C8.78347 14.8368 8.60642 14.614 8.44299 14.3035L4.94964 7.8837V16.1261C4.94964 16.4907 4.84068 16.7877 4.62278 17.0172C4.41849 17.2332 4.13929 17.3412 3.78519 17.3412C3.43109 17.3412 3.15189 17.2332 2.9476 17.0172C2.74331 16.8012 2.64117 16.5042 2.64117 16.1261V4.13713C2.64117 3.7456 2.75012 3.43507 2.96803 3.20555C3.19956 2.96253 3.50599 2.84102 3.88733 2.84102C4.41849 2.84102 4.83387 3.1313 5.1335 3.71185L9.66872 12.2783L14.1835 3.71185ZM9.66344 6.63418L11.8383 2.50761C12.4295 1.36949 13.5881 0.222768 15.3888 0.222768C16.3814 0.222768 17.4079 0.562714 18.2024 1.38091C19.0083 2.19562 19.2966 3.21435 19.2966 4.13713V5.92762C19.5143 5.76329 19.7433 5.6103 19.9835 5.46922L19.9926 5.46387L20.0017 5.4586C21.1878 4.77449 22.4974 4.45537 23.8632 4.45537C25.159 4.45537 26.422 4.7414 27.5577 5.40772C27.8817 5.59781 28.1839 5.81107 28.4638 6.04576C28.6148 5.83806 28.7941 5.6394 29.0054 5.45464L29.0333 5.43018L29.062 5.40651C29.8345 4.76832 30.752 4.49588 31.6517 4.49588C32.277 4.49588 32.9429 4.62931 33.5593 4.96352C34.1806 4.71385 34.8367 4.5671 35.5156 4.52228L35.7889 4.50292C36.5672 4.44514 37.5422 4.57956 38.3932 5.23112C38.8965 5.02687 39.424 4.8674 39.9659 4.7443L39.9716 4.743L39.9773 4.74172C40.8216 4.55382 41.6695 4.45537 42.517 4.45537C43.9222 4.45537 45.3672 4.72947 46.5773 5.52424V4.03587C46.5773 3.11741 46.8685 2.01235 47.8183 1.18153L47.8463 1.15707L47.875 1.1334C48.6658 0.480035 49.5988 0.222768 50.4851 0.222768C51.3713 0.222768 52.3043 0.480035 53.0952 1.1334C54.0831 1.94949 54.4133 3.06901 54.4133 4.03587V5.51779C55.0811 4.91348 55.9611 4.51613 56.9815 4.51613C57.0971 4.51613 57.2113 4.52118 57.324 4.5311C57.2977 4.34039 57.2848 4.14783 57.2848 3.95487C57.2848 2.90258 57.6713 1.83638 58.5677 1.03665C59.4429 0.255764 60.5004 0 61.4377 0C62.3763 0 63.4069 0.263406 64.2634 1.01548C64.2934 1.04145 64.323 1.06773 64.352 1.09432C65.1104 0.479089 66.0153 0.222768 66.8903 0.222768C67.8397 0.222768 68.8919 0.519799 69.7181 1.35376C70.5423 2.15573 70.8594 3.18023 70.8594 4.13713V12.4548H73.4395C73.438 12.3826 73.4372 12.3103 73.4372 12.2378C73.4372 10.8692 73.7157 9.54814 74.3453 8.34145C74.9716 7.14106 75.8819 6.16176 77.0608 5.46922L77.0699 5.46387L77.0791 5.4586C78.2652 4.77449 79.5747 4.45537 80.9405 4.45537C82.2363 4.45537 83.4993 4.7414 84.635 5.40772C85.0904 5.67491 85.5027 5.98785 85.8709 6.34178C86.2039 6.02066 86.5638 5.78448 86.8842 5.60979L86.8905 5.60632L86.8969 5.60289C87.6272 5.20986 88.4279 4.93394 89.2626 4.7443L89.2683 4.743L89.2741 4.74172C90.1184 4.55382 90.9663 4.45537 91.8138 4.45537C93.4973 4.45537 95.238 4.84881 96.5635 6.05976C96.7165 5.84699 96.8991 5.64355 97.1151 5.45464L97.1431 5.43018L97.1717 5.40651C97.9442 4.76832 98.8618 4.49588 99.7614 4.49588C100.387 4.49588 101.053 4.62931 101.669 4.96352C102.29 4.71386 102.946 4.56711 103.625 4.52228C103.628 4.52208 103.631 4.52188 103.634 4.52168L103.89 4.50359C103.893 4.50337 103.896 4.50314 103.899 4.50293C104.495 4.45865 105.207 4.52718 105.889 4.85459C106.465 4.59484 107.068 4.49588 107.623 4.49588C108.25 4.49588 108.901 4.63324 109.499 4.95567C110.34 4.6113 111.232 4.45537 112.138 4.45537C113.833 4.45537 115.575 4.9482 116.816 6.37901C117.984 7.72524 118.333 9.47347 118.333 11.1442V16.1261C118.333 17.06 118.028 18.0924 117.184 18.8968C116.346 19.7094 115.304 19.9595 114.426 19.9595C113.529 19.9595 112.509 19.7012 111.676 18.9238C111.403 18.669 111.184 18.3906 111.014 18.0992C110.843 18.3906 110.625 18.669 110.352 18.9238C109.519 19.7012 108.499 19.9595 107.602 19.9595C106.705 19.9595 105.686 19.7012 104.852 18.9238L104.823 18.8966L104.795 18.8686C104.048 18.1281 103.752 17.2168 103.702 16.3849C103.647 17.2871 103.298 18.2522 102.456 18.9944L102.424 19.0221L102.392 19.0489C101.601 19.7022 100.668 19.9595 99.7819 19.9595C98.9126 19.9595 97.9983 19.712 97.2173 19.086C96.4225 19.7337 95.492 19.9392 94.6943 19.9392C94.1146 19.9392 93.5267 19.8227 92.9789 19.5645C92.2387 19.866 91.4567 20 90.6697 20C89.6323 20 88.616 19.7872 87.6704 19.3185C87.2041 19.0874 86.7722 18.8039 86.3835 18.4675C86.2096 18.5976 86.0329 18.711 85.8601 18.8082L85.8525 18.8125L85.8448 18.8168C85.1748 19.188 84.4518 19.471 83.6933 19.6809L83.6657 19.6885L83.6379 19.6955C82.8673 19.891 82.088 20 81.3082 20C79.6645 20 78.1056 19.6294 76.7742 18.7769C76.727 18.8232 76.6778 18.8689 76.6266 18.9137C75.7482 19.6829 74.6994 19.838 73.9587 19.838H66.829C65.9985 19.838 65.0223 19.6146 64.2106 18.9041C64.1784 18.9345 64.1455 18.9646 64.1117 18.9944L64.0802 19.0221L64.0478 19.0489C63.2569 19.7022 62.324 19.9595 61.4377 19.9595C60.7274 19.9595 59.987 19.7942 59.3139 19.3922C58.7644 19.7343 58.1134 19.9392 57.3901 19.9392C56.3044 19.9392 55.4107 19.4805 54.7624 18.8818L53.8926 18.1006C53.6953 18.4333 53.4339 18.7488 53.0952 19.0286C52.3043 19.682 51.3713 19.9392 50.4851 19.9392C49.6205 19.9392 48.7113 19.6944 47.9331 19.0757C47.1355 19.7315 46.1994 19.9392 45.3975 19.9392C44.8178 19.9392 44.2299 19.8227 43.6821 19.5645C42.942 19.866 42.1599 20 41.373 20C40.3355 20 39.3192 19.7872 38.3736 19.3185C37.4417 18.8566 36.6469 18.1852 36.0606 17.3008C35.8748 17.0206 35.7179 16.7293 35.5896 16.4289C35.5261 17.3185 35.1747 18.2643 34.3461 18.9944L34.3146 19.0221L34.2823 19.0489C33.4914 19.7022 32.5584 19.9595 31.6721 19.9595C30.7859 19.9595 29.8529 19.7022 29.062 19.0489L29.0007 18.9983L28.9427 18.9441C28.8921 18.8969 28.8435 18.849 28.7968 18.8003C28.7921 18.803 28.7874 18.8056 28.7828 18.8082L28.7752 18.8125L28.7675 18.8168C28.0974 19.188 27.3745 19.471 26.616 19.6809L26.5884 19.6885L26.5606 19.6955C25.79 19.891 25.0107 20 24.2309 20C22.1993 20 20.2973 19.4338 18.7942 18.0913C18.6388 18.363 18.4418 18.625 18.1961 18.8686C17.4082 19.6497 16.4119 19.9595 15.4705 19.9595C14.5334 19.9595 13.5021 19.6496 12.7061 18.8079C12.2208 18.2947 11.9442 17.7118 11.8045 17.1393C11.1615 17.5782 10.4431 17.7753 9.74304 17.7915L9.674 17.9225L9.60512 17.7923C8.88093 17.7847 8.13458 17.5846 7.47031 17.1243C7.32218 17.7189 7.0296 18.301 6.54961 18.8079C6.54938 18.8082 6.54916 18.8084 6.54894 18.8087C5.75307 19.6498 4.72206 19.9595 3.78519 19.9595C2.84805 19.9595 1.81673 19.6496 1.02077 18.8079C0.240767 17.9832 0 16.9782 0 16.1261V4.13713C0 3.24806 0.26058 2.23703 1.04473 1.4111L1.0463 1.40945L1.04787 1.4078C1.8459 0.570155 2.88396 0.222768 3.88733 0.222768C5.65718 0.222768 6.85276 1.3045 7.47734 2.50491L9.66344 6.63418ZM27.7695 16.3387C27.8551 16.271 27.9289 16.2001 27.9909 16.1261C28.1536 15.9319 28.2349 15.7159 28.2349 15.4781C28.2349 15.4089 28.2309 15.343 28.2227 15.2804C28.196 15.0743 28.1251 14.9039 28.0102 14.7693C27.9407 14.6797 27.8587 14.6129 27.7644 14.5691C27.6962 14.5374 27.6215 14.5176 27.5404 14.5098C27.5138 14.5073 27.4866 14.506 27.4586 14.506C27.268 14.506 26.9684 14.614 26.5598 14.83C26.5492 14.8348 26.5386 14.8395 26.5281 14.8442C26.5241 14.8459 26.5202 14.8477 26.5162 14.8494C26.1919 14.9934 25.8921 15.1132 25.6167 15.2088C25.5496 15.2321 25.4839 15.2539 25.4197 15.2743C25.4184 15.2747 25.4171 15.2751 25.4158 15.2756C25.4036 15.2796 25.3914 15.2835 25.3792 15.2874C25.3146 15.3077 25.2479 15.3259 25.1791 15.3421C24.9087 15.4058 24.6063 15.4376 24.2717 15.4376C24.2581 15.4376 24.2444 15.4375 24.2309 15.4374C23.9176 15.4349 23.632 15.4031 23.3741 15.3421C22.942 15.2399 22.5875 15.0557 22.3106 14.7895C22.1963 14.6762 22.0939 14.5472 22.0034 14.4025C21.924 14.2755 21.8537 14.1364 21.7926 13.9852C21.6495 13.6311 21.5565 13.2107 21.5138 12.7239H27.5404C27.6214 12.7239 27.696 12.7167 27.7644 12.7025C28.0957 12.6336 28.2779 12.3974 28.3111 11.994C28.3148 11.9491 28.3167 11.9021 28.3167 11.853C28.3167 11.6626 28.3096 11.4772 28.2955 11.2966C28.2376 10.5553 28.0608 9.89698 27.7651 9.32157C27.7648 9.32109 27.7646 9.32062 27.7644 9.32015C27.5513 8.9059 27.288 8.54598 26.9745 8.24039C26.9672 8.23331 26.9599 8.22626 26.9526 8.21923C26.7307 8.00632 26.484 7.82022 26.2125 7.66093C25.5604 7.27832 24.7977 7.08265 23.9244 7.07393C23.9041 7.07373 23.8836 7.07363 23.8632 7.07363C22.9234 7.07363 22.079 7.28965 21.33 7.72168C21.1371 7.83497 20.9555 7.96033 20.7851 8.09776C20.7764 8.10478 20.7678 8.11183 20.7591 8.11892C20.2916 8.50196 19.9099 8.9771 19.6139 9.54434C19.5195 9.7253 19.436 9.91238 19.3634 10.1056C19.34 10.1679 19.3177 10.2308 19.2966 10.2944C19.208 10.5607 19.1394 10.8381 19.0906 11.1268C19.0309 11.4803 19.0011 11.8507 19.0011 12.2378C19.0011 12.4788 19.0118 12.7121 19.0333 12.9377C19.0686 13.3076 19.1328 13.6568 19.226 13.9852C19.2479 14.0626 19.2714 14.1388 19.2966 14.2139C19.5299 14.91 19.9012 15.5069 20.4107 16.0046C20.5248 16.1161 20.6439 16.2209 20.7679 16.3188C20.7767 16.3258 20.7855 16.3327 20.7943 16.3396C21.6873 17.0344 22.8328 17.3817 24.2309 17.3817C24.2445 17.3817 24.2581 17.3817 24.2717 17.3816C24.7906 17.3779 25.3354 17.3037 25.9061 17.159C25.9422 17.149 25.9782 17.1388 26.0139 17.1284C26.0214 17.1262 26.029 17.124 26.0366 17.1218C26.2377 17.0628 26.4313 16.9981 26.6175 16.9276C26.881 16.8278 27.1296 16.7165 27.3632 16.5937C27.3953 16.5768 27.4271 16.5597 27.4586 16.5424C27.4644 16.5393 27.4702 16.5361 27.4759 16.5329C27.477 16.5323 27.478 16.5318 27.4791 16.5312C27.5876 16.4701 27.6844 16.406 27.7695 16.3387ZM21.841 10.1056C21.7691 10.2553 21.708 10.4176 21.6578 10.5923C21.5902 10.8278 21.5422 11.086 21.5138 11.367H26.1308C26.1246 11.1812 26.1095 11.0057 26.0853 10.8405C26.0535 10.623 26.0061 10.4235 25.943 10.2417C25.9269 10.1952 25.9097 10.1498 25.8915 10.1056C25.7955 9.87239 25.6709 9.6718 25.5179 9.50383C25.4378 9.41307 25.3511 9.33184 25.2577 9.26015C24.9068 8.99057 24.4623 8.85578 23.9244 8.85578C23.9039 8.85578 23.8835 8.85597 23.8632 8.85635C23.246 8.86784 22.7389 9.05388 22.3419 9.4145C22.3379 9.41813 22.3339 9.42178 22.3299 9.42545C22.3025 9.45074 22.2756 9.47686 22.2493 9.50383C22.0876 9.67482 21.9515 9.8754 21.841 10.1056ZM30.4055 16.1261C30.4055 16.4207 30.471 16.6655 30.602 16.8607C30.6452 16.925 30.6955 16.9839 30.7528 17.0375C30.998 17.24 31.3044 17.3412 31.6721 17.3412C32.0398 17.3412 32.3463 17.24 32.5914 17.0375C32.8366 16.8214 32.9591 16.5177 32.9591 16.1261V11.8733C32.9591 11.599 32.9883 11.3428 33.0467 11.1049C33.1348 10.7457 33.2895 10.428 33.5107 10.1519C33.6168 10.0242 33.7391 9.91121 33.8778 9.81279C33.9713 9.74643 34.0723 9.68672 34.1806 9.63365C34.4327 9.5102 34.7249 9.42271 35.0573 9.37117C35.0661 9.36981 35.0749 9.36847 35.0838 9.36716C35.1033 9.36426 35.123 9.36148 35.1428 9.35883C35.1904 9.35245 35.2388 9.34678 35.288 9.34182L35.9009 9.28106C35.9839 9.27138 36.0624 9.25974 36.1362 9.24615C36.1401 9.24543 36.144 9.24471 36.1479 9.24398C36.4474 9.18765 36.6702 9.09875 36.8164 8.97729C36.8322 8.96417 36.8471 8.95067 36.8611 8.93678C37.0381 8.76127 37.1266 8.49125 37.1266 8.12672C37.1266 7.89603 37.0825 7.70325 36.9943 7.54836C36.9832 7.52888 36.9714 7.50999 36.9589 7.49171C36.9196 7.43416 36.8734 7.38256 36.8202 7.3369C36.7192 7.25011 36.5998 7.18808 36.4622 7.15081C36.4286 7.14171 36.3939 7.13409 36.3582 7.12795C36.2441 7.10835 36.1189 7.10374 35.9826 7.11413L35.6966 7.13438C35.6926 7.13465 35.6885 7.13491 35.6844 7.13519C35.6718 7.13604 35.6592 7.13696 35.6466 7.13793C35.541 7.14606 35.4371 7.15826 35.3346 7.17452C35.2635 7.18581 35.1931 7.19906 35.1235 7.21427C35.1071 7.21785 35.0908 7.22153 35.0745 7.22532C35.0734 7.22559 35.0722 7.22586 35.071 7.22614C34.9819 7.24698 34.8941 7.27105 34.8075 7.29837C34.5179 7.38972 34.2423 7.51733 33.9806 7.68118C33.7361 7.83841 33.5204 8.02742 33.3336 8.24823C33.2289 8.37201 33.1333 8.50577 33.0467 8.64953C32.9694 8.77783 32.8994 8.91408 32.8366 9.05829V8.24823C32.8366 7.93918 32.7583 7.6932 32.6016 7.51031C32.5735 7.47748 32.5429 7.44667 32.5097 7.41791C32.2918 7.21539 32.0058 7.11413 31.6517 7.11413C31.2976 7.11413 30.998 7.21539 30.7528 7.41791C30.7215 7.44534 30.6922 7.47438 30.6651 7.50503C30.5555 7.62891 30.4806 7.77908 30.4404 7.95556C30.4352 7.97877 30.4305 8.00244 30.4264 8.02657C30.4145 8.09662 30.4077 8.1705 30.406 8.24823C30.4057 8.26161 30.4055 8.27512 30.4055 8.28873V16.1261ZM35.6003 11.9422L35.643 11.9379C35.6284 11.9693 35.6142 12.0007 35.6003 12.0322V11.9422ZM46.514 16.7041C46.5472 16.6307 46.5728 16.5521 46.5909 16.4684C46.6124 16.3684 46.6232 16.2611 46.6232 16.1464V11.205C46.6232 11.1017 46.6213 11.0005 46.6176 10.9012C46.6106 10.717 46.5972 10.5395 46.5773 10.3689C46.5661 10.2722 46.5527 10.1777 46.5373 10.0853C46.3971 9.24537 46.0852 8.58574 45.6018 8.10647C45.5488 8.05184 45.4936 7.99938 45.4361 7.94909C45.4235 7.93807 45.4108 7.92715 45.398 7.91634C44.7321 7.35453 43.7718 7.07363 42.517 7.07363C42.4694 7.07363 42.4217 7.07404 42.374 7.07486C41.8118 7.08453 41.2392 7.15111 40.6562 7.2746C40.6362 7.27884 40.6161 7.28316 40.596 7.28753C40.5826 7.29046 40.5692 7.29341 40.5558 7.2964C40.278 7.35952 40.0161 7.43241 39.7702 7.51505C39.7549 7.52019 39.7397 7.52537 39.7245 7.53059C39.4636 7.62028 39.2211 7.72113 38.9968 7.83315C38.9784 7.84234 38.9601 7.85161 38.9419 7.86095C38.9144 7.87511 38.8872 7.88944 38.8602 7.90395C38.8522 7.90834 38.8442 7.91275 38.8363 7.91716C38.7158 7.98429 38.6105 8.05414 38.5203 8.12672C38.4158 8.21081 38.3316 8.29857 38.2678 8.38999C38.1588 8.552 38.1044 8.74777 38.1044 8.97729C38.1044 9.19302 38.1477 9.37749 38.2345 9.53069C38.2617 9.57883 38.2933 9.62388 38.3291 9.66585C38.4925 9.84136 38.6968 9.92912 38.9419 9.92912C39.0552 9.92912 39.2143 9.88695 39.4192 9.80262C39.5099 9.76529 39.6096 9.7197 39.7182 9.66585C39.7237 9.66374 39.7291 9.66163 39.7346 9.65953C39.7587 9.65022 39.7827 9.64102 39.8065 9.63192C39.8099 9.63061 39.8133 9.6293 39.8167 9.628C39.8724 9.60678 39.9272 9.58611 39.9813 9.566C39.9955 9.56075 40.0095 9.55553 40.0236 9.55035C40.265 9.46121 40.4909 9.38326 40.7013 9.31649C40.8022 9.28448 40.8995 9.25504 40.9933 9.22817C40.9961 9.22736 40.999 9.22654 41.0018 9.22573C41.0588 9.20947 41.1144 9.19416 41.1687 9.17981C41.5773 9.05829 41.979 8.99754 42.374 8.99754C42.4227 8.99754 42.4704 8.99844 42.517 9.00023C43.0282 9.01993 43.4164 9.14755 43.6815 9.38309C43.7101 9.40857 43.7374 9.43532 43.7632 9.46333C43.828 9.53065 43.8855 9.60735 43.9356 9.6934C43.9436 9.70705 43.9513 9.72094 43.9589 9.73507C44.0148 9.83905 44.0606 9.95581 44.0964 10.0853C44.1602 10.3166 44.1922 10.5885 44.1922 10.9012V11.367H43.6815C43.2139 11.367 42.7781 11.3764 42.374 11.3951C42.2529 11.4007 42.1346 11.4072 42.0191 11.4145C41.9615 11.4182 41.9047 11.422 41.8485 11.4261C41.8237 11.4279 41.799 11.4297 41.7744 11.4316C41.6726 11.4394 41.5731 11.4479 41.4761 11.4571C41.1871 11.4845 40.9193 11.5181 40.6726 11.558C40.6057 11.5689 40.5403 11.5802 40.4765 11.5919C40.3765 11.6103 40.2804 11.6299 40.1881 11.6505C39.876 11.7204 39.5956 11.8059 39.3468 11.9071C39.201 11.9664 39.066 12.0311 38.9419 12.1012C38.7302 12.2207 38.5501 12.3559 38.4016 12.5068C38.3838 12.5249 38.3664 12.5433 38.3495 12.5618C38.0165 12.9408 37.8343 13.4471 37.8028 14.0807C37.7996 14.1468 37.7979 14.2143 37.7979 14.2832C37.7979 14.8638 37.9545 15.3903 38.2678 15.8629C38.5067 16.2232 38.8128 16.5247 39.1863 16.7672C39.2157 16.7863 39.2454 16.805 39.2755 16.8233C39.365 16.8776 39.4581 16.9288 39.5548 16.9767C40.0996 17.2467 40.7056 17.3817 41.373 17.3817C41.498 17.3817 41.6201 17.3763 41.7392 17.3654C41.7878 17.361 41.836 17.3556 41.8837 17.3494C42.3291 17.2909 42.7309 17.1532 43.089 16.9362C43.4408 16.7289 43.7262 16.4656 43.9452 16.1464C43.9577 16.1282 43.97 16.1098 43.9821 16.0912C43.9827 16.0902 43.9834 16.0892 43.9841 16.0881C44.0626 15.9668 44.132 15.8377 44.1922 15.7009V16.1464C44.1922 16.4974 44.3011 16.7809 44.519 16.997C44.6215 17.0926 44.736 17.167 44.8625 17.2203C45.0218 17.2874 45.2001 17.321 45.3975 17.321C45.7788 17.321 46.0784 17.2197 46.2964 17.0172C46.3883 16.9261 46.4608 16.8217 46.514 16.7041ZM43.9821 14.2223C44.0153 14.1456 44.0446 14.0666 44.0699 13.9852C44.1514 13.7238 44.1922 13.4383 44.1922 13.1289V12.7036H43.8245C43.7762 12.7036 43.7285 12.7037 43.6815 12.7039C42.8377 12.708 42.1771 12.7484 41.6998 12.8251C41.6488 12.8333 41.5992 12.8422 41.551 12.8516C41.1242 12.9355 40.8129 13.0684 40.6171 13.2504C40.5988 13.2674 40.5813 13.2849 40.5645 13.303C40.3817 13.4999 40.2902 13.7592 40.2902 14.0807C40.2902 14.1364 40.2927 14.1908 40.2977 14.2439C40.2989 14.2571 40.3003 14.2702 40.3019 14.2832C40.303 14.2933 40.3043 14.3034 40.3057 14.3134C40.306 14.3156 40.3063 14.3178 40.3066 14.32C40.3079 14.3287 40.3091 14.3373 40.3105 14.3459C40.3194 14.4018 40.3312 14.4562 40.3459 14.5091C40.3919 14.675 40.4666 14.8268 40.5698 14.9643C40.6197 15.0309 40.6764 15.0941 40.7397 15.1541C40.9266 15.3151 41.1377 15.4282 41.373 15.4932C41.5321 15.5371 41.7024 15.5591 41.8837 15.5591C42.0023 15.5591 42.1169 15.5523 42.2276 15.5388C42.2348 15.538 42.242 15.537 42.2492 15.5361C42.4947 15.5041 42.7206 15.4385 42.9272 15.3395C42.9922 15.3083 43.0553 15.2738 43.1165 15.236C43.2274 15.1674 43.332 15.0879 43.4302 14.9975C43.4672 14.9635 43.5033 14.9279 43.5384 14.8908C43.6474 14.776 43.7427 14.6533 43.8245 14.5225C43.8843 14.4267 43.9368 14.3266 43.9821 14.2223ZM49.2185 16.1261C49.2185 16.1329 49.2185 16.1397 49.2186 16.1464C49.2198 16.261 49.231 16.3673 49.2524 16.4655C49.3021 16.6941 49.4066 16.878 49.5658 17.0172C49.6342 17.0737 49.7073 17.1223 49.7852 17.1631C49.9867 17.2683 50.2199 17.321 50.4851 17.321C50.8528 17.321 51.1592 17.2197 51.4044 17.0172C51.635 16.8267 51.7571 16.5526 51.7708 16.1949C51.7717 16.1723 51.7721 16.1494 51.7721 16.1261V12.6631L56.5525 16.9565C56.555 16.9588 56.5576 16.9612 56.5601 16.9636C56.8167 17.2019 57.0934 17.321 57.3901 17.321C57.4946 17.321 57.5941 17.3062 57.6887 17.2766C57.8652 17.2214 58.0245 17.1147 58.1664 16.9565C58.3979 16.7134 58.5137 16.4367 58.5137 16.1261C58.5137 15.8175 58.3901 15.5395 58.143 15.2921C58.131 15.2801 58.1188 15.2682 58.1062 15.2564C58.1058 15.256 58.1054 15.2557 58.1051 15.2553L54.5504 12.096L57.7578 9.1393C57.7646 9.13252 57.7714 9.12571 57.778 9.11889C58.0178 8.87338 58.1404 8.60341 58.1458 8.30898C58.1459 8.30224 58.1459 8.29549 58.1459 8.28873C58.1459 7.97821 58.0302 7.70818 57.7986 7.47866C57.748 7.42845 57.6954 7.38373 57.6408 7.3445C57.446 7.20442 57.2262 7.13438 56.9815 7.13438C56.685 7.13438 56.4189 7.24327 56.1834 7.46104C56.1702 7.47332 56.157 7.48594 56.1439 7.49891L51.7721 11.6505V4.03587C51.7721 3.64434 51.6495 3.34732 51.4044 3.1448C51.1592 2.94228 50.8528 2.84102 50.4851 2.84102C50.1174 2.84102 49.8109 2.94228 49.5658 3.1448C49.3343 3.34732 49.2185 3.64434 49.2185 4.03587V16.1261ZM60.2604 7.78638C60.2029 7.93117 60.1732 8.09862 60.1712 8.28873C60.1711 8.29545 60.1711 8.3022 60.1711 8.30898V16.1261C60.1711 16.5177 60.2869 16.8214 60.5184 17.0375C60.6522 17.148 60.8042 17.2283 60.9744 17.2785C61.1162 17.3203 61.2706 17.3412 61.4377 17.3412C61.8054 17.3412 62.1119 17.24 62.357 17.0375C62.6022 16.8214 62.7247 16.5177 62.7247 16.1261V8.30898C62.7247 8.10894 62.6927 7.93356 62.6287 7.78286C62.5675 7.63861 62.4769 7.51695 62.357 7.41791C62.1119 7.21539 61.8054 7.11413 61.4377 7.11413C61.1374 7.11413 60.878 7.18167 60.6594 7.31674C60.6103 7.34706 60.5633 7.38078 60.5184 7.41791C60.4043 7.51776 60.3182 7.64058 60.2604 7.78638ZM73.9675 17.6915C73.9674 17.6916 73.9646 17.6916 73.9591 17.6913C73.9648 17.6913 73.9676 17.6915 73.9675 17.6915ZM65.5829 16.0046C65.5829 16.3827 65.6918 16.6797 65.9097 16.8957C66.1276 17.1117 66.4341 17.2197 66.829 17.2197H73.9587C74.3528 17.2197 74.6518 17.1365 74.8559 16.9701C75.0749 16.7915 75.1845 16.5169 75.1845 16.1464C75.1845 15.4308 74.7759 15.073 73.9587 15.073H68.2182V4.13713C68.2182 3.7456 68.0956 3.43507 67.8505 3.20555C67.6189 2.96253 67.2989 2.84102 66.8903 2.84102C66.4954 2.84102 66.1753 2.96253 65.9302 3.20555C65.7332 3.40083 65.62 3.65475 65.5906 3.9673C65.5854 4.02211 65.5829 4.07872 65.5829 4.13713V16.0046ZM73.9675 14.6013C73.9676 14.6013 73.9648 14.6015 73.9591 14.6015C73.9645 14.6012 73.9674 14.6012 73.9675 14.6013ZM62.9417 4.11757C62.9469 4.06474 62.9494 4.01051 62.9494 3.95487C62.9494 3.93459 62.9491 3.91452 62.9484 3.89465C62.9348 3.5176 62.7921 3.21364 62.5204 2.98279C62.2481 2.73977 61.8871 2.61826 61.4377 2.61826C60.9746 2.61826 60.6069 2.73977 60.3345 2.98279C60.0622 3.22581 59.926 3.54983 59.926 3.95487C59.926 4.23853 59.9928 4.48577 60.1264 4.69659C60.1835 4.78679 60.2529 4.87033 60.3345 4.9472C60.6069 5.19022 60.9746 5.31173 61.4377 5.31173C61.9008 5.31173 62.2685 5.19022 62.5409 4.9472C62.6225 4.87033 62.6919 4.78679 62.749 4.69659C62.8564 4.52712 62.9207 4.33411 62.9417 4.11757ZM83.6948 16.9276C83.9583 16.8278 84.2069 16.7165 84.4405 16.5937C84.4726 16.5768 84.5044 16.5597 84.536 16.5424C84.5417 16.5393 84.5475 16.5361 84.5532 16.5329C84.5543 16.5323 84.5553 16.5318 84.5564 16.5312C84.6655 16.4698 84.7628 16.4052 84.8483 16.3375C85.1576 16.0925 85.3123 15.806 85.3123 15.4781C85.3123 15.4089 85.3082 15.343 85.3001 15.2804C85.2733 15.0743 85.2025 14.9039 85.0875 14.7693C84.9678 14.6149 84.8112 14.5285 84.6177 14.5098C84.5911 14.5073 84.5639 14.506 84.536 14.506C84.5117 14.506 84.4858 14.5077 84.458 14.5112C84.2674 14.5352 83.9938 14.6415 83.6371 14.83C83.6265 14.8348 83.6159 14.8395 83.6054 14.8442C83.6014 14.8459 83.5975 14.8477 83.5935 14.8494C83.2693 14.9934 82.9694 15.1132 82.694 15.2088C82.6269 15.2321 82.5612 15.2539 82.497 15.2743C82.4957 15.2747 82.4944 15.2751 82.4931 15.2756C82.4809 15.2796 82.4688 15.2835 82.4565 15.2874C82.3919 15.3077 82.3252 15.3259 82.2564 15.3421C81.9861 15.4058 81.6836 15.4376 81.3491 15.4376C81.3354 15.4376 81.3218 15.4375 81.3082 15.4374C80.9949 15.4349 80.7093 15.4031 80.4514 15.3421C80.0193 15.2399 79.6648 15.0557 79.3879 14.7895C79.2736 14.6762 79.1712 14.5472 79.0807 14.4025C79.0013 14.2755 78.931 14.1364 78.8699 13.9852C78.7268 13.6311 78.6338 13.2107 78.5911 12.7239H84.6177C84.6297 12.7239 84.6415 12.7237 84.6532 12.7234C85.1043 12.7114 85.3494 12.4683 85.3884 11.994C85.3921 11.9491 85.394 11.9021 85.394 11.853C85.394 11.6626 85.3869 11.4772 85.3728 11.2966C85.3705 11.2667 85.3679 11.2369 85.3652 11.2072C85.3588 11.1379 85.3514 11.0693 85.3429 11.0015C85.2651 10.3794 85.0983 9.81944 84.8424 9.32157C84.8173 9.27264 84.7914 9.22447 84.7649 9.17705C84.5663 8.82247 84.3286 8.51025 84.0518 8.24039C84.0445 8.23331 84.0372 8.22626 84.0299 8.21923C83.808 8.00632 83.5613 7.82022 83.2898 7.66093C82.6377 7.27832 81.875 7.08265 81.0018 7.07393C80.9814 7.07373 80.961 7.07363 80.9405 7.07363C80.0007 7.07363 79.1563 7.28965 78.4073 7.72168C78.2144 7.83497 78.0328 7.96033 77.8624 8.09776C77.8537 8.10478 77.8451 8.11183 77.8364 8.11892C77.3689 8.50196 76.9872 8.9771 76.6913 9.54434C76.5968 9.7253 76.5133 9.91238 76.4407 10.1056C76.3193 10.4288 76.2283 10.7692 76.168 11.1268C76.1082 11.4803 76.0784 11.8507 76.0784 12.2378C76.0784 12.4788 76.0891 12.7121 76.1106 12.9377C76.1129 12.9613 76.1153 12.9848 76.1178 13.0082C76.1542 13.3521 76.2161 13.6778 76.3033 13.9852C76.5287 14.7801 76.9236 15.4532 77.488 16.0046C77.5377 16.0532 77.5883 16.1004 77.6398 16.1464C77.6996 16.1997 77.7605 16.2512 77.8228 16.301C77.8302 16.307 77.8377 16.3129 77.8452 16.3188C77.854 16.3258 77.8628 16.3327 77.8716 16.3396C78.7646 17.0344 79.9102 17.3817 81.3082 17.3817C81.3218 17.3817 81.3354 17.3817 81.3491 17.3816C81.868 17.3779 82.4127 17.3037 82.9834 17.159C83.0195 17.149 83.0555 17.1388 83.0912 17.1284C83.0987 17.1262 83.1063 17.124 83.1139 17.1218C83.315 17.0628 83.5086 16.9981 83.6948 16.9276ZM78.9183 10.1056C78.8464 10.2553 78.7854 10.4176 78.7351 10.5923C78.6675 10.8278 78.6195 11.086 78.5911 11.367H83.2081C83.2019 11.1812 83.1868 11.0057 83.1626 10.8405C83.1308 10.623 83.0834 10.4235 83.0203 10.2417C83.0042 10.1952 82.987 10.1498 82.9688 10.1056C82.8728 9.87239 82.7483 9.6718 82.5952 9.50383C82.5151 9.41307 82.4284 9.33184 82.335 9.26015C81.9841 8.99057 81.5397 8.85578 81.0018 8.85578C80.9812 8.85578 80.9608 8.85597 80.9405 8.85635C80.3233 8.86784 79.8162 9.05388 79.4192 9.4145C79.4152 9.41813 79.4112 9.42178 79.4072 9.42545C79.3798 9.45074 79.3529 9.47686 79.3266 9.50383C79.1649 9.67482 79.0288 9.8754 78.9183 10.1056ZM87.5312 9.53069C87.5585 9.57883 87.59 9.62388 87.6258 9.66585C87.6824 9.72659 87.7439 9.77682 87.8102 9.81654C87.9356 9.89159 88.0784 9.92912 88.2387 9.92912C88.4021 9.92912 88.6609 9.84136 89.015 9.66585C89.0205 9.66374 89.0259 9.66163 89.0314 9.65953C89.0555 9.65022 89.0794 9.64102 89.1032 9.63192C89.1067 9.63061 89.1101 9.6293 89.1135 9.628C89.1691 9.60678 89.224 9.58611 89.2781 9.566C89.2922 9.56075 89.3063 9.55553 89.3203 9.55035C89.5618 9.46121 89.7877 9.38325 89.9981 9.31649C90.099 9.28448 90.1963 9.25504 90.2901 9.22817C90.2929 9.22735 90.2958 9.22654 90.2986 9.22573C90.3555 9.20947 90.4112 9.19416 90.4655 9.17981C90.874 9.05829 91.2758 8.99754 91.6708 8.99754C91.7195 8.99754 91.7671 8.99844 91.8138 9.00023C92.325 9.01993 92.7131 9.14755 92.9782 9.38309C93.0069 9.40857 93.0341 9.43532 93.0599 9.46333C93.1248 9.53065 93.1822 9.60734 93.2324 9.6934C93.2403 9.70705 93.2481 9.72094 93.2557 9.73506C93.3115 9.83905 93.3573 9.95581 93.3931 10.0853C93.457 10.3166 93.4889 10.5885 93.4889 10.9012V11.367H92.9782C92.5107 11.367 92.0748 11.3764 91.6708 11.3951C91.5496 11.4007 91.4313 11.4072 91.3159 11.4145C91.2583 11.4182 91.2014 11.422 91.1452 11.4261C91.1204 11.4279 91.0957 11.4297 91.0712 11.4316C90.9693 11.4394 90.8699 11.4479 90.7728 11.4571C90.4838 11.4845 90.216 11.5181 89.9694 11.558C89.9024 11.5689 89.8371 11.5802 89.7732 11.5919C89.6733 11.6103 89.5772 11.6299 89.4849 11.6505C89.1728 11.7204 88.8923 11.8059 88.6435 11.9071C88.4977 11.9664 88.3628 12.0311 88.2387 12.1012C88.1608 12.1452 88.0871 12.1913 88.0177 12.2396C87.8987 12.3224 87.7922 12.4115 87.6984 12.5068C87.6805 12.5249 87.6632 12.5433 87.6463 12.5618C87.4725 12.7596 87.3399 12.992 87.2482 13.259C87.1642 13.5038 87.1147 13.7777 87.0996 14.0807C87.0963 14.1468 87.0947 14.2143 87.0947 14.2832C87.0947 14.2991 87.0948 14.3149 87.095 14.3307C87.1011 14.7403 87.186 15.1228 87.3496 15.4781C87.4103 15.6101 87.482 15.7384 87.5645 15.8629C87.6568 16.0021 87.7592 16.1325 87.8716 16.2542C88.0501 16.4474 88.2539 16.6184 88.4831 16.7673C88.5124 16.7863 88.5421 16.805 88.5723 16.8233C88.6617 16.8776 88.7548 16.9288 88.8516 16.9767C89.3963 17.2467 90.0024 17.3817 90.6697 17.3817C90.7948 17.3817 90.9169 17.3763 91.0359 17.3654C91.0846 17.361 91.1328 17.3556 91.1805 17.3494C91.6258 17.2909 92.0276 17.1532 92.3858 16.9362C92.7376 16.7289 93.023 16.4656 93.242 16.1464C93.2545 16.1282 93.2668 16.1098 93.2788 16.0912C93.2795 16.0902 93.2802 16.0892 93.2808 16.0881C93.3594 15.9668 93.4288 15.8377 93.4889 15.7009V16.1464C93.4889 16.4974 93.5979 16.7809 93.8158 16.997C93.9183 17.0926 94.0327 17.167 94.1592 17.2203C94.3185 17.2874 94.4969 17.321 94.6943 17.321C95.0756 17.321 95.3752 17.2197 95.5931 17.0172C95.6851 16.9261 95.7576 16.8217 95.8107 16.7041C95.8439 16.6308 95.8695 16.5523 95.8876 16.4687C95.9092 16.3686 95.92 16.2612 95.92 16.1464V11.205C95.92 11.1017 95.9181 11.0005 95.9144 10.9012C95.9074 10.717 95.894 10.5395 95.8741 10.3689C95.8628 10.2722 95.8495 10.1777 95.8341 10.0853C95.6939 9.24537 95.382 8.58574 94.8985 8.10647C94.8456 8.05184 94.7904 7.99938 94.7329 7.94909C94.7203 7.93807 94.7076 7.92715 94.6948 7.91634C94.0289 7.35453 93.0686 7.07363 91.8138 7.07363C91.7662 7.07363 91.7185 7.07404 91.6708 7.07486C91.1086 7.08453 90.536 7.15111 89.953 7.2746C89.9329 7.27884 89.9129 7.28316 89.8928 7.28753C89.8794 7.29046 89.866 7.29341 89.8526 7.2964C89.5747 7.35952 89.3129 7.43241 89.067 7.51505C88.7887 7.60858 88.5309 7.71461 88.2935 7.83315C88.2751 7.84234 88.2569 7.8516 88.2387 7.86094C88.2112 7.87511 88.1839 7.88944 88.157 7.90395C88.1489 7.90834 88.1409 7.91275 88.133 7.91716C87.873 8.06206 87.6835 8.21967 87.5645 8.38999C87.5093 8.47219 87.468 8.56308 87.4408 8.66266C87.4143 8.75934 87.4011 8.86422 87.4011 8.97729C87.4011 9.19302 87.4445 9.37749 87.5312 9.53069ZM98.5153 16.1261C98.5153 16.1329 98.5153 16.1397 98.5154 16.1464C98.5165 16.2609 98.5278 16.3677 98.5491 16.467C98.5988 16.6987 98.7032 16.8888 98.8625 17.0375C99.1077 17.24 99.4141 17.3412 99.7819 17.3412C100.15 17.3412 100.456 17.24 100.701 17.0375C100.946 16.8214 101.069 16.5177 101.069 16.1261V11.8733C101.069 11.5989 101.098 11.3428 101.156 11.1049C101.245 10.7457 101.399 10.428 101.62 10.1519C101.726 10.0242 101.849 9.91121 101.988 9.81279C102.081 9.74643 102.182 9.68672 102.29 9.63365C102.542 9.5102 102.835 9.42271 103.167 9.37117C103.176 9.36981 103.185 9.36847 103.193 9.36716C103.213 9.36426 103.233 9.36148 103.252 9.35883C103.3 9.35245 103.349 9.34678 103.398 9.34182L104.011 9.28106C104.094 9.27138 104.172 9.25974 104.246 9.24615C104.25 9.24543 104.254 9.24471 104.258 9.24398C104.589 9.18156 104.827 9.07916 104.971 8.93678C105.121 8.78836 105.207 8.57234 105.23 8.28873C105.234 8.23698 105.236 8.18297 105.236 8.12672C105.236 7.77569 105.134 7.51241 104.93 7.3369C104.726 7.16139 104.446 7.08713 104.092 7.11413L103.806 7.13438C103.802 7.13465 103.798 7.13491 103.794 7.13519C103.782 7.13604 103.769 7.13696 103.756 7.13793C103.651 7.14606 103.547 7.15826 103.444 7.17452C103.373 7.18581 103.303 7.19906 103.233 7.21427C103.217 7.21784 103.201 7.22153 103.184 7.22532C103.183 7.22559 103.182 7.22586 103.181 7.22614C103.092 7.24697 103.004 7.27105 102.917 7.29837C102.628 7.38972 102.352 7.51733 102.09 7.68118C101.846 7.83841 101.63 8.02742 101.443 8.24823C101.339 8.372 101.243 8.50577 101.156 8.64953C101.079 8.77783 101.009 8.91408 100.946 9.05829V8.24823C100.946 7.93918 100.868 7.6932 100.711 7.51031C100.683 7.47748 100.653 7.44667 100.619 7.41791C100.402 7.21539 100.116 7.11413 99.7614 7.11413C99.4073 7.11413 99.1077 7.21539 98.8625 7.41791C98.8312 7.44533 98.802 7.47438 98.7748 7.50502C98.6653 7.62891 98.5904 7.77909 98.5502 7.95558C98.5449 7.97878 98.5402 8.00245 98.5361 8.02656C98.5243 8.09661 98.5175 8.1705 98.5157 8.24823C98.5154 8.26161 98.5153 8.27512 98.5153 8.28873V16.1261ZM103.703 6.69104C103.722 6.68449 103.737 6.67978 103.748 6.67655L103.703 6.69104ZM93.3667 13.9852C93.4482 13.7238 93.4889 13.4383 93.4889 13.1289V12.7036H93.1212C93.073 12.7036 93.0253 12.7037 92.9782 12.7039C92.1344 12.708 91.4739 12.7484 90.9966 12.8251C90.9455 12.8333 90.8959 12.8422 90.8478 12.8516C90.421 12.9355 90.1097 13.0684 89.9139 13.2504C89.8956 13.2674 89.878 13.2849 89.8613 13.303C89.6784 13.4999 89.587 13.7592 89.587 14.0807C89.587 14.1364 89.5895 14.1908 89.5945 14.2439C89.5957 14.2571 89.5971 14.2702 89.5986 14.2832C89.5998 14.2933 89.6011 14.3034 89.6025 14.3134C89.6028 14.3156 89.6031 14.3178 89.6034 14.32C89.6046 14.3287 89.6059 14.3373 89.6073 14.3459C89.6162 14.4017 89.6279 14.4562 89.6426 14.5091C89.6887 14.675 89.7633 14.8268 89.8666 14.9644C89.9165 15.0309 89.9731 15.0941 90.0364 15.1541C90.2233 15.3151 90.4344 15.4282 90.6697 15.4932C90.8289 15.5371 90.9991 15.5591 91.1805 15.5591C91.299 15.5591 91.4137 15.5523 91.5244 15.5388C91.5316 15.538 91.5388 15.537 91.546 15.5361C91.7914 15.5041 92.0174 15.4385 92.2239 15.3395C92.2889 15.3083 92.3521 15.2738 92.4132 15.236C92.5241 15.1674 92.6287 15.0879 92.727 14.9975C92.7639 14.9635 92.8 14.9279 92.8352 14.8908C92.9442 14.776 93.0395 14.6533 93.1212 14.5225C93.1811 14.4267 93.2336 14.3266 93.2788 14.2223C93.3121 14.1456 93.3413 14.0666 93.3667 13.9852ZM90.9102 13.0981C90.9107 13.0976 90.9112 13.0971 90.9116 13.0966L90.9102 13.0981ZM106.798 17.1249C107.011 17.2691 107.28 17.3412 107.602 17.3412C107.997 17.3412 108.311 17.2332 108.542 17.0172C108.774 16.8012 108.889 16.5042 108.889 16.1261V11.61C108.889 11.3284 108.919 11.0675 108.977 10.8275C109.078 10.4116 109.267 10.0581 109.543 9.7671C109.66 9.648 109.786 9.54435 109.922 9.45615C110.238 9.25076 110.607 9.12916 111.028 9.09135C111.122 9.08281 111.22 9.07855 111.32 9.07855C111.636 9.07855 111.908 9.12308 112.138 9.21216C112.363 9.29991 112.547 9.43089 112.689 9.60509C112.736 9.66034 112.78 9.72078 112.819 9.7864C113.016 10.1116 113.122 10.5642 113.137 11.1442C113.138 11.1907 113.139 11.2379 113.139 11.286V16.1261C113.139 16.5042 113.254 16.8012 113.486 17.0172C113.717 17.2332 114.031 17.3412 114.426 17.3412C114.821 17.3412 115.127 17.2332 115.345 17.0172C115.576 16.8012 115.692 16.5042 115.692 16.1261V11.1442C115.692 9.78061 115.399 8.76127 114.814 8.08621C114.782 8.05021 114.75 8.01516 114.717 7.98108C114.704 7.96682 114.69 7.95274 114.676 7.93882C114.091 7.36203 113.245 7.07363 112.138 7.07363C111.854 7.07363 111.581 7.09661 111.32 7.14259C111.316 7.14328 111.313 7.14398 111.309 7.14468C110.911 7.21593 110.54 7.34076 110.197 7.51917C109.83 7.70951 109.511 7.95253 109.24 8.24823C109.146 8.34975 109.059 8.45748 108.977 8.57142C108.958 8.59747 108.94 8.62385 108.922 8.65055C108.889 8.6977 108.858 8.74585 108.828 8.79502V8.24823C108.828 7.9107 108.712 7.64068 108.481 7.43816C108.444 7.4019 108.406 7.36868 108.365 7.3385C108.195 7.21114 107.99 7.138 107.751 7.11908C107.709 7.11578 107.667 7.11413 107.623 7.11413C107.228 7.11413 106.915 7.22214 106.683 7.43816C106.67 7.45035 106.657 7.46276 106.645 7.47539C106.473 7.65091 106.373 7.86802 106.344 8.12672C106.34 8.16625 106.337 8.20675 106.336 8.24823C106.336 8.26163 106.336 8.27513 106.336 8.28873V16.1261C106.336 16.5042 106.445 16.8012 106.663 17.0172C106.705 17.0567 106.75 17.0926 106.798 17.1249Z" fill="#E9F5E9"/>
<path d="M15.4004 2.83214C15.7817 2.83214 16.0881 2.95365 16.3197 3.19667C16.5512 3.42619 16.667 3.73672 16.667 4.12825V16.1173C16.667 16.4953 16.558 16.7923 16.3401 17.0083C16.1222 17.2244 15.8362 17.3324 15.4821 17.3324C15.128 17.3324 14.8488 17.2244 14.6445 17.0083C14.4402 16.7923 14.3381 16.4953 14.3381 16.1173V7.77356L10.8651 14.2946C10.7017 14.5916 10.5247 14.8144 10.334 14.9629C10.1433 15.0979 9.9186 15.1654 9.65983 15.1654C9.40107 15.1654 9.17635 15.0979 8.98568 14.9629C8.79501 14.8279 8.61796 14.6051 8.45453 14.2946L4.96118 7.87482V16.1173C4.96118 16.4818 4.85222 16.7788 4.63432 17.0083C4.43003 17.2244 4.15083 17.3324 3.79673 17.3324C3.44263 17.3324 3.16343 17.2244 2.95914 17.0083C2.75485 16.7923 2.65271 16.4953 2.65271 16.1173V4.12825C2.65271 3.73672 2.76166 3.42619 2.97957 3.19667C3.2111 2.95365 3.51753 2.83214 3.89887 2.83214C4.43003 2.83214 4.84541 3.12242 5.14504 3.70297L9.68026 12.2694L14.1951 3.70297C14.4947 3.12242 14.8964 2.83214 15.4004 2.83214Z" fill="#48A145"/>
<path d="M27.4702 14.4971C27.7017 14.4971 27.8856 14.5849 28.0218 14.7604C28.1716 14.9359 28.2465 15.1722 28.2465 15.4692C28.2465 15.8877 27.9945 16.2388 27.4906 16.5223C27.0276 16.7788 26.5032 16.9881 25.9176 17.1501C25.332 17.2986 24.7736 17.3729 24.2424 17.3729C22.6353 17.3729 21.3619 16.9138 20.4222 15.9957C19.4825 15.0777 19.0126 13.8221 19.0126 12.2289C19.0126 11.2163 19.2169 10.3185 19.6255 9.53546C20.0341 8.75239 20.6061 8.14484 21.3415 7.7128C22.0906 7.28077 22.935 7.06475 23.8747 7.06475C24.7736 7.06475 25.5567 7.26051 26.224 7.65205C26.8914 8.04358 27.4089 8.59713 27.7766 9.31269C28.1443 10.0282 28.3282 10.8721 28.3282 11.8441C28.3282 12.4247 28.0694 12.715 27.5519 12.715H21.5254C21.6071 13.6466 21.8727 14.3351 22.3221 14.7806C22.7715 15.2127 23.4253 15.4287 24.2833 15.4287C24.7191 15.4287 25.1004 15.3747 25.4273 15.2667C25.7678 15.1587 26.1491 15.0102 26.5713 14.8211C26.9799 14.6051 27.2795 14.4971 27.4702 14.4971ZM23.936 8.8469C23.2414 8.8469 22.683 9.06292 22.2608 9.49495C21.8522 9.92699 21.6071 10.548 21.5254 11.3581H26.1423C26.1151 10.5345 25.9108 9.91349 25.5294 9.49495C25.1481 9.06292 24.6169 8.8469 23.936 8.8469Z" fill="#48A145"/>
<path d="M35.9942 7.10525C36.3483 7.07825 36.6275 7.1525 36.8317 7.32802C37.036 7.50353 37.1382 7.76681 37.1382 8.11784C37.1382 8.48237 37.0497 8.75239 36.8726 8.9279C36.6955 9.10342 36.3755 9.21818 35.9124 9.27218L35.2996 9.33294C34.496 9.41394 33.9036 9.68397 33.5223 10.143C33.1545 10.602 32.9707 11.1758 32.9707 11.8644V16.1173C32.9707 16.5088 32.8481 16.8126 32.603 17.0286C32.3578 17.2311 32.0514 17.3324 31.6837 17.3324C31.3159 17.3324 31.0095 17.2311 30.7644 17.0286C30.5328 16.8126 30.4171 16.5088 30.4171 16.1173V8.27985C30.4171 7.90182 30.5328 7.61154 30.7644 7.40903C31.0095 7.20651 31.3091 7.10525 31.6632 7.10525C32.0173 7.10525 32.3033 7.20651 32.5212 7.40903C32.7391 7.59804 32.8481 7.87482 32.8481 8.23935V9.04941C33.1069 8.45536 33.4882 7.99633 33.9921 7.6723C34.5097 7.34827 35.0817 7.16601 35.7082 7.1255L35.9942 7.10525Z" fill="#48A145"/>
<path d="M42.5285 7.06475C43.9177 7.06475 44.946 7.40903 45.6133 8.09759C46.2943 8.77264 46.6348 9.80548 46.6348 11.1961V16.1375C46.6348 16.502 46.5258 16.7923 46.3079 17.0083C46.09 17.2108 45.7904 17.3121 45.409 17.3121C45.0549 17.3121 44.7621 17.2041 44.5306 16.9881C44.3127 16.7721 44.2037 16.4885 44.2037 16.1375V15.692C43.9722 16.2185 43.6045 16.6303 43.1006 16.9273C42.6103 17.2243 42.0382 17.3729 41.3845 17.3729C40.7172 17.3729 40.1111 17.2379 39.5663 16.9678C39.0216 16.6978 38.5926 16.3265 38.2793 15.854C37.9661 15.3814 37.8095 14.8549 37.8095 14.2744C37.8095 13.5453 37.9933 12.9715 38.361 12.553C38.7424 12.1344 39.3552 11.8306 40.1996 11.6416C41.044 11.4526 42.2085 11.3581 43.693 11.3581H44.2037V10.8923C44.2037 10.2308 44.0607 9.75147 43.7747 9.45445C43.4887 9.14392 43.0256 8.98866 42.3855 8.98866C41.9906 8.98866 41.5888 9.04941 41.1802 9.17092C40.7717 9.27893 40.2882 9.44095 39.7298 9.65697C39.3757 9.83248 39.1169 9.92024 38.9535 9.92024C38.7083 9.92024 38.504 9.83248 38.3406 9.65697C38.1908 9.48145 38.1159 9.25193 38.1159 8.96841C38.1159 8.73889 38.1704 8.54312 38.2793 8.38111C38.4019 8.20559 38.5994 8.04358 38.8718 7.89507C39.3484 7.63855 39.9136 7.43603 40.5674 7.28752C41.2347 7.139 41.8884 7.06475 42.5285 7.06475ZM41.8952 15.5502C42.5762 15.5502 43.1278 15.3274 43.55 14.8819C43.9858 14.4229 44.2037 13.8356 44.2037 13.12V12.6947H43.836C42.9235 12.6947 42.2153 12.7352 41.7114 12.8162C41.2075 12.8972 40.8466 13.039 40.6287 13.2415C40.4107 13.444 40.3018 13.7208 40.3018 14.0718C40.3018 14.5039 40.4516 14.8617 40.7512 15.1452C41.0645 15.4152 41.4458 15.5502 41.8952 15.5502Z" fill="#48A145"/>
<path d="M58.1166 15.2464C58.389 15.503 58.5252 15.7932 58.5252 16.1173C58.5252 16.4278 58.4094 16.7046 58.1779 16.9476C57.96 17.1906 57.7012 17.3121 57.4016 17.3121C57.102 17.3121 56.8228 17.1906 56.564 16.9476L51.7836 12.6542V16.1173C51.7836 16.5088 51.6611 16.8058 51.4159 17.0083C51.1708 17.2108 50.8643 17.3121 50.4966 17.3121C50.1289 17.3121 49.8225 17.2108 49.5773 17.0083C49.3458 16.8058 49.23 16.5088 49.23 16.1173V4.02699C49.23 3.63546 49.3458 3.33844 49.5773 3.13592C49.8225 2.9334 50.1289 2.83214 50.4966 2.83214C50.8643 2.83214 51.1708 2.9334 51.4159 3.13592C51.6611 3.33844 51.7836 3.63546 51.7836 4.02699V11.6416L56.1554 7.49003C56.4006 7.24701 56.6798 7.1255 56.993 7.1255C57.3063 7.1255 57.5786 7.24026 57.8102 7.46978C58.0417 7.6993 58.1575 7.96932 58.1575 8.27985C58.1575 8.59038 58.0281 8.8739 57.7693 9.13042L54.562 12.0872L58.1166 15.2464Z" fill="#48A145"/>
<path d="M61.4492 17.3324C61.0815 17.3324 60.7751 17.2311 60.5299 17.0286C60.2984 16.8126 60.1826 16.5088 60.1826 16.1173V8.3001C60.1826 7.90857 60.2984 7.61154 60.5299 7.40903C60.7751 7.20651 61.0815 7.10525 61.4492 7.10525C61.817 7.10525 62.1234 7.20651 62.3685 7.40903C62.6137 7.61154 62.7363 7.90857 62.7363 8.3001V16.1173C62.7363 16.5088 62.6137 16.8126 62.3685 17.0286C62.1234 17.2311 61.817 17.3324 61.4492 17.3324ZM61.4492 5.30285C60.9862 5.30285 60.6185 5.18134 60.3461 4.93832C60.0737 4.6818 59.9375 4.35102 59.9375 3.94599C59.9375 3.54095 60.0737 3.21693 60.3461 2.97391C60.6185 2.73089 60.9862 2.60938 61.4492 2.60938C61.8987 2.60938 62.2596 2.73089 62.532 2.97391C62.818 3.21693 62.961 3.54095 62.961 3.94599C62.961 4.35102 62.8248 4.6818 62.5524 4.93832C62.28 5.18134 61.9123 5.30285 61.4492 5.30285Z" fill="#48A145"/>
<path d="M66.8406 17.2108C66.4456 17.2108 66.1392 17.1028 65.9213 16.8868C65.7034 16.6708 65.5944 16.3738 65.5944 15.9957V4.12825C65.5944 3.73672 65.7102 3.42619 65.9417 3.19667C66.1868 2.95365 66.5069 2.83214 66.9018 2.83214C67.3104 2.83214 67.6305 2.95365 67.862 3.19667C68.1072 3.42619 68.2297 3.73672 68.2297 4.12825V15.0642H73.9703C74.7874 15.0642 75.196 15.4219 75.196 16.1375C75.196 16.8531 74.7874 17.2108 73.9703 17.2108H66.8406Z" fill="#48A145"/>
<path d="M84.5475 14.4971C84.779 14.4971 84.9629 14.5849 85.0991 14.7604C85.2489 14.9359 85.3238 15.1722 85.3238 15.4692C85.3238 15.8877 85.0718 16.2388 84.5679 16.5223C84.1049 16.7788 83.5805 16.9881 82.9949 17.1501C82.4093 17.2986 81.8509 17.3729 81.3197 17.3729C79.7126 17.3729 78.4392 16.9138 77.4995 15.9957C76.5598 15.0777 76.0899 13.8221 76.0899 12.2289C76.0899 11.2163 76.2942 10.3185 76.7028 9.53546C77.1114 8.75239 77.6834 8.14484 78.4188 7.7128C79.1679 7.28077 80.0123 7.06475 80.952 7.06475C81.8509 7.06475 82.634 7.26051 83.3013 7.65205C83.9687 8.04358 84.4862 8.59713 84.8539 9.31269C85.2217 10.0282 85.4055 10.8721 85.4055 11.8441C85.4055 12.4247 85.1468 12.715 84.6292 12.715H78.6027C78.6844 13.6466 78.95 14.3351 79.3994 14.7806C79.8488 15.2127 80.5026 15.4287 81.3606 15.4287C81.7964 15.4287 82.1777 15.3747 82.5046 15.2667C82.8451 15.1587 83.2264 15.0102 83.6486 14.8211C84.0572 14.6051 84.3568 14.4971 84.5475 14.4971ZM81.0133 8.8469C80.3187 8.8469 79.7603 9.06292 79.3381 9.49495C78.9295 9.92699 78.6844 10.548 78.6027 11.3581H83.2196C83.1924 10.5345 82.9881 9.91349 82.6068 9.49495C82.2254 9.06292 81.6943 8.8469 81.0133 8.8469Z" fill="#48A145"/>
<path d="M91.8253 7.06475C93.2145 7.06475 94.2427 7.40903 94.9101 8.09759C95.591 8.77264 95.9315 9.80548 95.9315 11.1961V16.1375C95.9315 16.502 95.8226 16.7923 95.6047 17.0083C95.3867 17.2108 95.0871 17.3121 94.7058 17.3121C94.3517 17.3121 94.0589 17.2041 93.8273 16.9881C93.6094 16.7721 93.5005 16.4885 93.5005 16.1375V15.692C93.269 16.2185 92.9012 16.6303 92.3973 16.9273C91.907 17.2243 91.335 17.3729 90.6813 17.3729C90.0139 17.3729 89.4079 17.2379 88.8631 16.9678C88.3183 16.6978 87.8893 16.3265 87.5761 15.854C87.2628 15.3814 87.1062 14.8549 87.1062 14.2744C87.1062 13.5453 87.2901 12.9715 87.6578 12.553C88.0391 12.1344 88.652 11.8306 89.4964 11.6416C90.3408 11.4526 91.5052 11.3581 92.9898 11.3581H93.5005V10.8923C93.5005 10.2308 93.3575 9.75147 93.0715 9.45445C92.7855 9.14392 92.3224 8.98866 91.6823 8.98866C91.2873 8.98866 90.8856 9.04941 90.477 9.17092C90.0684 9.27893 89.5849 9.44095 89.0265 9.65697C88.6724 9.83248 88.4137 9.92024 88.2502 9.92024C88.0051 9.92024 87.8008 9.83248 87.6374 9.65697C87.4876 9.48145 87.4127 9.25193 87.4127 8.96841C87.4127 8.73889 87.4671 8.54312 87.5761 8.38111C87.6987 8.20559 87.8961 8.04358 88.1685 7.89507C88.6452 7.63855 89.2104 7.43603 89.8641 7.28752C90.5315 7.139 91.1852 7.06475 91.8253 7.06475ZM91.192 15.5502C91.873 15.5502 92.4246 15.3274 92.8468 14.8819C93.2826 14.4229 93.5005 13.8356 93.5005 13.12V12.6947H93.1328C92.2203 12.6947 91.5121 12.7352 91.0081 12.8162C90.5042 12.8972 90.1433 13.039 89.9254 13.2415C89.7075 13.444 89.5986 13.7208 89.5986 14.0718C89.5986 14.5039 89.7484 14.8617 90.048 15.1452C90.3612 15.4152 90.7426 15.5502 91.192 15.5502Z" fill="#48A145"/>
<path d="M104.104 7.10525C104.458 7.07825 104.737 7.1525 104.941 7.32802C105.146 7.50353 105.248 7.76681 105.248 8.11784C105.248 8.48237 105.159 8.75239 104.982 8.9279C104.805 9.10342 104.485 9.21818 104.022 9.27218L103.409 9.33294C102.606 9.41394 102.013 9.68397 101.632 10.143C101.264 10.602 101.08 11.1758 101.08 11.8644V16.1173C101.08 16.5088 100.958 16.8126 100.713 17.0286C100.468 17.2311 100.161 17.3324 99.7934 17.3324C99.4257 17.3324 99.1192 17.2311 98.8741 17.0286C98.6426 16.8126 98.5268 16.5088 98.5268 16.1173V8.27985C98.5268 7.90182 98.6426 7.61154 98.8741 7.40903C99.1192 7.20651 99.4189 7.10525 99.773 7.10525C100.127 7.10525 100.413 7.20651 100.631 7.40903C100.849 7.59804 100.958 7.87482 100.958 8.23935V9.04941C101.217 8.45536 101.598 7.99633 102.102 7.6723C102.619 7.34827 103.191 7.16601 103.818 7.1255L104.104 7.10525Z" fill="#48A145"/>
<path d="M112.149 7.06475C113.348 7.06475 114.24 7.40228 114.825 8.07733C115.411 8.75239 115.704 9.77173 115.704 11.1353V16.1173C115.704 16.4953 115.588 16.7923 115.356 17.0083C115.138 17.2244 114.832 17.3324 114.437 17.3324C114.042 17.3324 113.729 17.2244 113.497 17.0083C113.266 16.7923 113.15 16.4953 113.15 16.1173V11.2771C113.15 10.5075 113 9.94724 112.701 9.59621C112.415 9.24518 111.958 9.06967 111.332 9.06967C110.596 9.06967 110.004 9.29919 109.555 9.75822C109.119 10.2173 108.901 10.8316 108.901 11.6011V16.1173C108.901 16.4953 108.785 16.7923 108.554 17.0083C108.322 17.2244 108.009 17.3324 107.614 17.3324C107.219 17.3324 106.906 17.2244 106.674 17.0083C106.456 16.7923 106.347 16.4953 106.347 16.1173V8.27985C106.347 7.92882 106.463 7.6453 106.695 7.42928C106.926 7.21326 107.239 7.10525 107.634 7.10525C107.988 7.10525 108.274 7.21326 108.492 7.42928C108.724 7.6318 108.84 7.90182 108.84 8.23935V8.78614C109.18 8.2326 109.636 7.80731 110.208 7.51028C110.78 7.21326 111.427 7.06475 112.149 7.06475Z" fill="#48A145"/>
<ellipse cx="61.3939" cy="3.91139" rx="1.54028" ry="1.44655" fill="#D55F31"/>
</svg>
