<svg width="32" height="32" viewBox="0 0 32 32" fill="none" xmlns="http://www.w3.org/2000/svg">
<rect width="32" height="32" rx="16" fill="white"/>
<g clip-path="url(#clip0_4319_5268)">
<path d="M21.7199 13.2146C21.729 13.3381 21.729 13.4617 21.729 13.5852C21.729 17.3528 18.7595 21.694 13.332 21.694C11.6599 21.694 10.1066 21.2264 8.80002 20.4146C9.03759 20.4411 9.266 20.4499 9.51271 20.4499C10.8924 20.4499 12.1625 19.9999 13.1767 19.2323C11.8792 19.2058 10.7919 18.3852 10.4173 17.2558C10.6 17.2822 10.7828 17.2999 10.9747 17.2999C11.2396 17.2999 11.5046 17.2646 11.7513 17.2028C10.399 16.9381 9.38477 15.7911 9.38477 14.4058V14.3705C9.77765 14.5823 10.2345 14.7146 10.7188 14.7322C9.92384 14.2205 9.40305 13.3469 9.40305 12.3587C9.40305 11.8293 9.54922 11.344 9.80507 10.9205C11.2579 12.6499 13.4416 13.7793 15.8904 13.9028C15.8447 13.6911 15.8173 13.4705 15.8173 13.2499C15.8173 11.6793 17.133 10.3999 18.7685 10.3999C19.6183 10.3999 20.3858 10.744 20.9249 11.2999C21.5919 11.1764 22.2315 10.9381 22.798 10.6117C22.5787 11.2734 22.1127 11.8293 21.5005 12.1822C22.0944 12.1205 22.6701 11.9617 23.2 11.7411C22.7981 12.3058 22.2955 12.8087 21.7199 13.2146Z" fill="#48A145"/>
</g>
<defs>
<clipPath id="clip0_4319_5268">
<rect width="14.4" height="12" fill="white" transform="translate(8.80002 10.3999)"/>
</clipPath>
</defs>
</svg>
