<svg width="191" height="184" viewBox="0 0 191 184" fill="none" xmlns="http://www.w3.org/2000/svg">
<path d="M174.88 31.8801C173.948 31.2653 172.905 30.8401 171.809 30.629C170.713 30.4179 169.586 30.4249 168.493 30.6497C167.4 30.8745 166.362 31.3126 165.438 31.9389C164.514 32.5653 163.723 33.3677 163.11 34.3001L111.83 100.74H78.3797L27.1097 34.3001C25.8699 32.417 23.9327 31.1037 21.7245 30.6489C19.5162 30.1941 17.2178 30.6352 15.3347 31.8751C13.4517 33.115 12.1383 35.0521 11.6836 37.2603C11.2288 39.4686 11.6699 41.767 12.9097 43.6501L63.6797 120.76C64.4397 121.93 66.5897 168.36 66.5897 168.36H123.59C123.59 168.36 125.73 121.93 126.5 120.76L177.27 43.6501C178.512 41.7718 178.957 39.4774 178.509 37.2707C178.061 35.064 176.756 33.1253 174.88 31.8801Z" fill="#68E1FD"/>
<path d="M123.63 169.36H66.6298C66.3646 169.36 66.1102 169.255 65.9227 169.067C65.7351 168.88 65.6298 168.625 65.6298 168.36C64.8098 150.55 63.3898 123.49 62.8198 121.17L12.1098 44.17C10.724 42.0655 10.231 39.4968 10.7392 37.0288C11.2475 34.5608 12.7153 32.3958 14.8198 31.01C16.9243 29.6243 19.493 29.1313 21.961 29.6395C24.429 30.1477 26.594 31.6155 27.9798 33.72L78.9098 99.72H111.38L162.38 33.67C163.77 31.6026 165.917 30.1641 168.358 29.6647C170.799 29.1653 173.339 29.6448 175.43 31C176.472 31.6861 177.369 32.5708 178.069 33.6035C178.769 34.6362 179.259 35.7967 179.511 37.0187C179.762 38.2408 179.771 39.5004 179.536 40.7257C179.3 41.951 178.826 43.118 178.14 44.16L127.44 121.16C126.87 123.48 125.44 150.54 124.62 168.35C124.621 168.481 124.597 168.612 124.547 168.733C124.498 168.855 124.426 168.966 124.334 169.06C124.242 169.154 124.133 169.229 124.012 169.28C123.891 169.332 123.761 169.359 123.63 169.36ZM67.5398 167.36H122.67C123.67 146.25 124.96 121.36 125.67 120.21L176.47 43.1C177.559 41.437 177.945 39.4104 177.544 37.4634C177.143 35.5164 175.987 33.8074 174.33 32.71C173.507 32.1682 172.586 31.7937 171.618 31.608C170.651 31.4223 169.656 31.429 168.691 31.6278C167.727 31.8265 166.81 32.2133 165.995 32.7662C165.18 33.3191 164.481 34.0272 163.94 34.85L112.62 101.36C112.526 101.479 112.406 101.575 112.269 101.641C112.132 101.707 111.982 101.741 111.83 101.74H78.3798C78.2279 101.741 78.0778 101.707 77.9409 101.641C77.804 101.575 77.6839 101.479 77.5898 101.36L26.3198 34.91C25.7992 34.0468 25.1103 33.2972 24.2939 32.7059C23.4775 32.1147 22.5505 31.6937 21.568 31.4683C20.5855 31.2429 19.5677 31.2176 18.5752 31.3939C17.5827 31.5702 16.6359 31.9444 15.7911 32.4944C14.9464 33.0444 14.221 33.7588 13.6582 34.595C13.0954 35.4313 12.7067 36.3723 12.5152 37.362C12.3238 38.3516 12.3336 39.3697 12.5439 40.3555C12.7543 41.3414 13.161 42.2747 13.7398 43.1L64.5098 120.21C65.2598 121.35 66.5598 146.25 67.5398 167.36Z" fill="#093F68"/>
<path d="M100.53 108.12H89.6797V154.58H100.53V108.12Z" fill="#093F68"/>
<path d="M100.53 155.59H89.6797C89.4145 155.59 89.1601 155.485 88.9726 155.297C88.7851 155.11 88.6797 154.855 88.6797 154.59V108.12C88.6797 107.855 88.7851 107.6 88.9726 107.413C89.1601 107.225 89.4145 107.12 89.6797 107.12H100.53C100.795 107.12 101.049 107.225 101.237 107.413C101.424 107.6 101.53 107.855 101.53 108.12V154.59C101.53 154.855 101.424 155.11 101.237 155.297C101.049 155.485 100.795 155.59 100.53 155.59ZM90.6797 153.59H99.5297V109.12H90.6797V153.59Z" fill="#093F68"/>
<path d="M169.1 24V14.24C169.1 13.15 168.667 12.1046 167.896 11.3338C167.126 10.563 166.08 10.13 164.99 10.13C163.9 10.13 162.855 10.563 162.084 11.3338C161.313 12.1046 160.88 13.15 160.88 14.24V26.56C159.95 28.07 159.41 30.47 159.41 34.28C159.41 44.61 164.23 46.39 169.17 46.39C174.11 46.39 180.23 42.55 180.83 39.63C182 34.32 173.7 24.42 169.1 24Z" fill="#FFC9B0"/>
<path d="M169.209 47.39C164.589 47.39 158.449 46.04 158.449 34.28C158.449 30.73 158.919 28.13 159.879 26.35V14.24C159.879 12.8847 160.418 11.585 161.376 10.6267C162.334 9.66838 163.634 9.13 164.989 9.13C166.344 9.13 167.644 9.66838 168.603 10.6267C169.561 11.585 170.099 12.8847 170.099 14.24V23.16C173.099 23.97 176.319 27.16 178.349 29.94C179.649 31.7 182.599 36.17 181.849 39.83C181.099 43.49 174.389 47.39 169.209 47.39ZM161.879 26.39C161.943 26.6403 161.907 26.9055 161.779 27.13C160.879 28.59 160.449 30.94 160.449 34.33C160.449 44.12 164.879 45.44 169.209 45.44C173.989 45.44 179.439 41.67 179.889 39.44C180.289 37.44 179.079 34.3 176.739 31.14C174.239 27.76 170.989 25.14 169.009 25C168.76 24.9775 168.528 24.8623 168.36 24.6771C168.191 24.492 168.098 24.2503 168.099 24V14.24C168.099 13.4152 167.772 12.6241 167.188 12.0409C166.605 11.4577 165.814 11.13 164.989 11.13C164.164 11.13 163.373 11.4577 162.79 12.0409C162.207 12.6241 161.879 13.4152 161.879 14.24V26.39Z" fill="#093F68"/>
<path d="M178.78 21.79H165.59C164.276 21.79 163.21 22.8556 163.21 24.17V24.18C163.21 25.4945 164.276 26.56 165.59 26.56H178.78C180.094 26.56 181.16 25.4945 181.16 24.18V24.17C181.16 22.8556 180.094 21.79 178.78 21.79Z" fill="#FFC9B0"/>
<path d="M178.779 27.56H165.599C165.139 27.585 164.679 27.516 164.247 27.3572C163.814 27.1984 163.419 26.9531 163.084 26.6363C162.75 26.3196 162.483 25.9379 162.301 25.5147C162.119 25.0916 162.025 24.6357 162.025 24.175C162.025 23.7144 162.119 23.2585 162.301 22.8353C162.483 22.4121 162.75 22.0305 163.084 21.7137C163.419 21.3969 163.814 21.1517 164.247 20.9928C164.679 20.834 165.139 20.765 165.599 20.79H178.779C179.239 20.765 179.7 20.834 180.132 20.9928C180.565 21.1517 180.96 21.3969 181.295 21.7137C181.629 22.0305 181.895 22.4121 182.078 22.8353C182.26 23.2585 182.354 23.7144 182.354 24.175C182.354 24.6357 182.26 25.0916 182.078 25.5147C181.895 25.9379 181.629 26.3196 181.295 26.6363C180.96 26.9531 180.565 27.1984 180.132 27.3572C179.7 27.516 179.239 27.585 178.779 27.56ZM165.599 22.79C165.408 22.7737 165.215 22.7974 165.032 22.8596C164.85 22.9218 164.683 23.0212 164.541 23.1514C164.4 23.2816 164.286 23.4398 164.209 23.616C164.132 23.7922 164.092 23.9826 164.092 24.175C164.092 24.3675 164.132 24.5579 164.209 24.7341C164.286 24.9103 164.4 25.0685 164.541 25.1987C164.683 25.3289 164.85 25.4283 165.032 25.4905C165.215 25.5526 165.408 25.5763 165.599 25.56H178.779C178.971 25.5763 179.164 25.5526 179.346 25.4905C179.529 25.4283 179.696 25.3289 179.838 25.1987C179.979 25.0685 180.092 24.9103 180.17 24.7341C180.247 24.5579 180.287 24.3675 180.287 24.175C180.287 23.9826 180.247 23.7922 180.17 23.616C180.092 23.4398 179.979 23.2816 179.838 23.1514C179.696 23.0212 179.529 22.9218 179.346 22.8596C179.164 22.7974 178.971 22.7737 178.779 22.79H165.599Z" fill="#093F68"/>
<path d="M178.78 26.5601H165.59C164.276 26.5601 163.21 27.6256 163.21 28.9401V28.9501C163.21 30.2645 164.276 31.3301 165.59 31.3301H178.78C180.094 31.3301 181.16 30.2645 181.16 28.9501V28.9401C181.16 27.6256 180.094 26.5601 178.78 26.5601Z" fill="#FFC9B0"/>
<path d="M178.78 32.3201H165.6C164.703 32.3201 163.844 31.964 163.21 31.3301C162.576 30.6962 162.22 29.8365 162.22 28.9401C162.22 28.0436 162.576 27.1839 163.21 26.55C163.844 25.9162 164.703 25.5601 165.6 25.5601H178.78C179.676 25.5601 180.536 25.9162 181.17 26.55C181.804 27.1839 182.16 28.0436 182.16 28.9401C182.16 29.8365 181.804 30.6962 181.17 31.3301C180.536 31.964 179.676 32.3201 178.78 32.3201ZM165.6 27.5601C165.234 27.5601 164.883 27.7055 164.624 27.9643C164.365 28.2231 164.22 28.5741 164.22 28.9401C164.22 29.3061 164.365 29.6571 164.624 29.9159C164.883 30.1747 165.234 30.3201 165.6 30.3201H178.78C179.146 30.3201 179.497 30.1747 179.756 29.9159C180.014 29.6571 180.16 29.3061 180.16 28.9401C180.16 28.5741 180.014 28.2231 179.756 27.9643C179.497 27.7055 179.146 27.5601 178.78 27.5601H165.6Z" fill="#093F68"/>
<path d="M178.78 31.3201H165.59C164.276 31.3201 163.21 32.3856 163.21 33.7001V33.7101C163.21 35.0245 164.276 36.0901 165.59 36.0901H178.78C180.094 36.0901 181.16 35.0245 181.16 33.7101V33.7001C181.16 32.3856 180.094 31.3201 178.78 31.3201Z" fill="#FFC9B0"/>
<path d="M178.779 37.0901H165.599C165.139 37.1151 164.679 37.0461 164.247 36.8873C163.814 36.7284 163.419 36.4832 163.084 36.1664C162.75 35.8496 162.483 35.468 162.301 35.0448C162.119 34.6216 162.025 34.1657 162.025 33.7051C162.025 33.2444 162.119 32.7885 162.301 32.3654C162.483 31.9422 162.75 31.5605 163.084 31.2438C163.419 30.927 163.814 30.6817 164.247 30.5229C164.679 30.3641 165.139 30.2951 165.599 30.3201H178.779C179.239 30.2951 179.7 30.3641 180.132 30.5229C180.565 30.6817 180.96 30.927 181.295 31.2438C181.629 31.5605 181.895 31.9422 182.078 32.3654C182.26 32.7885 182.354 33.2444 182.354 33.7051C182.354 34.1657 182.26 34.6216 182.078 35.0448C181.895 35.468 181.629 35.8496 181.295 36.1664C180.96 36.4832 180.565 36.7284 180.132 36.8873C179.7 37.0461 179.239 37.1151 178.779 37.0901ZM165.599 32.3201C165.408 32.3038 165.215 32.3274 165.032 32.3896C164.85 32.4518 164.683 32.5512 164.541 32.6814C164.4 32.8116 164.286 32.9698 164.209 33.146C164.132 33.3222 164.092 33.5126 164.092 33.7051C164.092 33.8975 164.132 34.0879 164.209 34.2641C164.286 34.4403 164.4 34.5985 164.541 34.7287C164.683 34.8589 164.85 34.9583 165.032 35.0205C165.215 35.0827 165.408 35.1064 165.599 35.0901H178.779C178.971 35.1064 179.164 35.0827 179.346 35.0205C179.529 34.9583 179.696 34.8589 179.838 34.7287C179.979 34.5985 180.092 34.4403 180.17 34.2641C180.247 34.0879 180.287 33.8975 180.287 33.7051C180.287 33.5126 180.247 33.3222 180.17 33.146C180.092 32.9698 179.979 32.8116 179.838 32.6814C179.696 32.5512 179.529 32.4518 179.346 32.3896C179.164 32.3274 178.971 32.3038 178.779 32.3201H165.599Z" fill="#093F68"/>
<path d="M179.539 42.8601C179.407 42.8595 179.276 42.8327 179.154 42.7812C179.033 42.7297 178.922 42.6546 178.829 42.5601C178.643 42.3727 178.539 42.1193 178.539 41.8551C178.539 41.5909 178.643 41.3375 178.829 41.1501C179.588 40.4551 180.061 39.5039 180.159 38.4801C180.159 38.1114 180.013 37.7579 179.752 37.4972C179.492 37.2365 179.138 37.0901 178.769 37.0901H165.599C165.408 37.0738 165.215 37.0975 165.032 37.1597C164.85 37.2219 164.683 37.3212 164.541 37.4514C164.4 37.5816 164.286 37.7398 164.209 37.916C164.132 38.0923 164.092 38.2826 164.092 38.4751C164.092 38.6676 164.132 38.8579 164.209 39.0341C164.286 39.2104 164.4 39.3686 164.541 39.4988C164.683 39.629 164.85 39.7283 165.032 39.7905C165.215 39.8527 165.408 39.8764 165.599 39.8601H173.289C173.555 39.8601 173.809 39.9654 173.997 40.153C174.184 40.3405 174.289 40.5949 174.289 40.8601C174.289 41.1253 174.184 41.3797 173.997 41.5672C173.809 41.7547 173.555 41.8601 173.289 41.8601H165.599C165.139 41.8851 164.679 41.8161 164.247 41.6573C163.814 41.4985 163.419 41.2532 163.084 40.9364C162.75 40.6196 162.483 40.238 162.301 39.8148C162.119 39.3916 162.025 38.9358 162.025 38.4751C162.025 38.0144 162.119 37.5586 162.301 37.1354C162.483 36.7122 162.75 36.3306 163.084 36.0138C163.419 35.697 163.814 35.4517 164.247 35.2929C164.679 35.1341 165.139 35.0651 165.599 35.0901H178.779C179.679 35.0901 180.541 35.4472 181.177 36.083C181.812 36.7187 182.169 37.581 182.169 38.4801C182.087 40.0415 181.398 41.509 180.249 42.5701C180.156 42.6628 180.045 42.7361 179.923 42.7859C179.802 42.8356 179.671 42.8608 179.539 42.8601Z" fill="#093F68"/>
<path d="M21.1101 24V14.24C21.1101 13.15 21.5431 12.1046 22.3139 11.3338C23.0847 10.563 24.1301 10.13 25.2201 10.13C26.3102 10.13 27.3555 10.563 28.1263 11.3338C28.8971 12.1046 29.3301 13.15 29.3301 14.24V26.56C30.2601 28.07 30.8101 30.47 30.8101 34.28C30.8101 44.61 25.9801 46.39 21.0501 46.39C16.1201 46.39 10.0001 42.55 9.35011 39.63C8.26011 34.32 16.5101 24.42 21.1101 24Z" fill="#FFC9B0"/>
<path d="M20.9999 47.39C15.8199 47.39 9.07992 43.39 8.35992 39.83C7.63992 36.27 10.5499 31.7 11.8599 29.94C13.8599 27.2 17.1499 23.94 20.0999 23.16V14.24C20.0999 12.8847 20.6383 11.585 21.5966 10.6267C22.5549 9.66838 23.8547 9.13 25.2099 9.13C26.5652 9.13 27.8649 9.66838 28.8232 10.6267C29.7815 11.585 30.3199 12.8847 30.3199 14.24V26.35C31.3199 28.13 31.7599 30.73 31.7599 34.28C31.7699 46 25.6299 47.39 20.9999 47.39ZM25.2099 11.13C24.8015 11.13 24.3971 11.2104 24.0198 11.3667C23.6424 11.523 23.2996 11.7521 23.0108 12.0409C22.722 12.3297 22.4929 12.6725 22.3366 13.0499C22.1804 13.4272 22.0999 13.8316 22.0999 14.24V24C22.1009 24.2503 22.008 24.492 21.8395 24.6771C21.671 24.8623 21.4392 24.9775 21.1899 25C19.1899 25.18 15.9699 27.76 13.4599 31.14C11.1199 34.3 9.90992 37.48 10.3199 39.44C10.7699 41.63 16.2099 45.44 20.9999 45.44C25.3299 45.44 29.7599 44.12 29.7599 34.33C29.7599 30.94 29.3199 28.59 28.4299 27.13C28.357 27.0116 28.3095 26.8794 28.2906 26.7416C28.2716 26.6039 28.2816 26.4637 28.3199 26.33V14.33C28.3319 13.9149 28.2607 13.5016 28.1104 13.1145C27.9602 12.7274 27.7339 12.3743 27.4449 12.0761C27.156 11.7778 26.8103 11.5404 26.4281 11.378C26.046 11.2155 25.6352 11.1312 25.2199 11.13H25.2099Z" fill="#093F68"/>
<path d="M11.43 26.55L24.62 26.55C25.9344 26.55 27 25.4845 27 24.1701V24.16C27 22.8456 25.9344 21.7801 24.62 21.7801H11.43C10.1156 21.7801 9.05 22.8456 9.05 24.16V24.1701C9.05 25.4845 10.1156 26.55 11.43 26.55Z" fill="#FFC9B0"/>
<path d="M24.6196 27.56H11.4296C10.5636 27.513 9.74867 27.1358 9.15233 26.5061C8.55599 25.8765 8.22363 25.0423 8.22363 24.175C8.22363 23.3078 8.55599 22.4736 9.15233 21.8439C9.74867 21.2143 10.5636 20.8371 11.4296 20.79H24.6196C25.4855 20.8371 26.3005 21.2143 26.8968 21.8439C27.4932 22.4736 27.8255 23.3078 27.8255 24.175C27.8255 25.0423 27.4932 25.8765 26.8968 26.5061C26.3005 27.1358 25.4855 27.513 24.6196 27.56ZM11.4296 22.79C11.0826 22.8196 10.7593 22.9782 10.5237 23.2347C10.2881 23.4912 10.1574 23.8268 10.1574 24.175C10.1574 24.5233 10.2881 24.8589 10.5237 25.1153C10.7593 25.3718 11.0826 25.5305 11.4296 25.56H24.6196C24.9666 25.5305 25.2899 25.3718 25.5255 25.1153C25.7611 24.8589 25.8918 24.5233 25.8918 24.175C25.8918 23.8268 25.7611 23.4912 25.5255 23.2347C25.2899 22.9782 24.9666 22.8196 24.6196 22.79H11.4296Z" fill="#093F68"/>
<path d="M11.43 31.3201L24.62 31.3201C25.9344 31.3201 27 30.2545 27 28.9401V28.9301C27 27.6156 25.9344 26.5501 24.62 26.5501H11.43C10.1156 26.5501 9.05 27.6156 9.05 28.9301V28.9401C9.05 30.2545 10.1156 31.3201 11.43 31.3201Z" fill="#FFC9B0"/>
<path d="M24.6198 32.3201H11.4298C10.5334 32.3201 9.67365 31.964 9.03978 31.3301C8.40591 30.6962 8.0498 29.8365 8.0498 28.9401C8.0498 28.0436 8.40591 27.1839 9.03978 26.55C9.67365 25.9162 10.5334 25.5601 11.4298 25.5601H24.6198C25.5162 25.5601 26.376 25.9162 27.0098 26.55C27.6437 27.1839 27.9998 28.0436 27.9998 28.9401C27.9998 29.8365 27.6437 30.6962 27.0098 31.3301C26.376 31.964 25.5162 32.3201 24.6198 32.3201ZM11.4298 27.5601C11.0638 27.5601 10.7128 27.7055 10.454 27.9643C10.1952 28.2231 10.0498 28.5741 10.0498 28.9401C10.0498 29.3061 10.1952 29.6571 10.454 29.9159C10.7128 30.1747 11.0638 30.3201 11.4298 30.3201H24.6198C24.9858 30.3201 25.3368 30.1747 25.5956 29.9159C25.8544 29.6571 25.9998 29.3061 25.9998 28.9401C25.9998 28.5741 25.8544 28.2231 25.5956 27.9643C25.3368 27.7055 24.9858 27.5601 24.6198 27.5601H11.4298Z" fill="#093F68"/>
<path d="M11.43 36.1H24.62C25.9344 36.1 27 35.0344 27 33.72V33.71C27 32.3955 25.9344 31.33 24.62 31.33H11.43C10.1156 31.33 9.05 32.3955 9.05 33.71V33.72C9.05 35.0344 10.1156 36.1 11.43 36.1Z" fill="#FFC9B0"/>
<path d="M24.6196 37.0901H11.4296C10.5636 37.043 9.74867 36.6658 9.15233 36.0362C8.55599 35.4065 8.22363 34.5723 8.22363 33.7051C8.22363 32.8378 8.55599 32.0036 9.15233 31.374C9.74867 30.7443 10.5636 30.3672 11.4296 30.3201H24.6196C25.4855 30.3672 26.3005 30.7443 26.8968 31.374C27.4932 32.0036 27.8255 32.8378 27.8255 33.7051C27.8255 34.5723 27.4932 35.4065 26.8968 36.0362C26.3005 36.6658 25.4855 37.043 24.6196 37.0901ZM11.4296 32.3201C11.0826 32.3496 10.7593 32.5083 10.5237 32.7648C10.2881 33.0212 10.1574 33.3568 10.1574 33.7051C10.1574 34.0533 10.2881 34.3889 10.5237 34.6454C10.7593 34.9019 11.0826 35.0606 11.4296 35.0901H24.6196C24.9666 35.0606 25.2899 34.9019 25.5255 34.6454C25.7611 34.3889 25.8918 34.0533 25.8918 33.7051C25.8918 33.3568 25.7611 33.0212 25.5255 32.7648C25.2899 32.5083 24.9666 32.3496 24.6196 32.3201H11.4296Z" fill="#093F68"/>
<path d="M10.6698 42.8601C10.4075 42.859 10.1561 42.7548 9.96982 42.5701C8.82133 41.509 8.13244 40.0415 8.04982 38.4801C8.0485 38.0354 8.13496 37.5948 8.30423 37.1835C8.4735 36.7723 8.72226 36.3985 9.03625 36.0836C9.35025 35.7687 9.7233 35.5188 10.134 35.3483C10.5448 35.1778 10.9851 35.0901 11.4298 35.0901H24.6198C25.4858 35.1372 26.3007 35.5143 26.8971 36.144C27.4934 36.7736 27.8258 37.6079 27.8258 38.4751C27.8258 39.3423 27.4934 40.1766 26.8971 40.8062C26.3007 41.4359 25.4858 41.813 24.6198 41.8601H16.9298C16.6646 41.8601 16.4102 41.7547 16.2227 41.5672C16.0352 41.3797 15.9298 41.1253 15.9298 40.8601C15.9298 40.5949 16.0352 40.3405 16.2227 40.153C16.4102 39.9654 16.6646 39.8601 16.9298 39.8601H24.6198C24.9668 39.8306 25.2901 39.6719 25.5257 39.4154C25.7613 39.1589 25.892 38.8233 25.892 38.4751C25.892 38.1268 25.7613 37.7913 25.5257 37.5348C25.2901 37.2783 24.9668 37.1196 24.6198 37.0901H11.4298C11.2477 37.0901 11.0675 37.1261 10.8994 37.1961C10.7313 37.2661 10.5787 37.3686 10.4505 37.4978C10.3222 37.627 10.2207 37.7803 10.152 37.9489C10.0832 38.1175 10.0485 38.298 10.0498 38.4801C10.1479 39.5039 10.6217 40.4551 11.3798 41.1501C11.5661 41.3375 11.6706 41.5909 11.6706 41.8551C11.6706 42.1193 11.5661 42.3727 11.3798 42.5601C11.2872 42.6546 11.1768 42.7298 11.0549 42.7812C10.933 42.8327 10.8021 42.8595 10.6698 42.8601Z" fill="#093F68"/>
<path d="M129.39 176.17H60.8197L51.0597 131.55C50.91 130.869 50.9152 130.162 51.0749 129.483C51.2346 128.804 51.5447 128.17 51.9824 127.626C52.42 127.083 52.9741 126.645 53.6036 126.345C54.2331 126.044 54.9221 125.889 55.6197 125.89H134.62C135.316 125.89 136.004 126.047 136.633 126.348C137.261 126.649 137.814 127.087 138.25 127.63C138.687 128.173 138.996 128.807 139.155 129.486C139.314 130.164 139.319 130.869 139.17 131.55L129.39 176.17Z" fill="#F56132"/>
<path d="M129.39 177.17H60.8196C60.587 177.175 60.3599 177.099 60.1774 176.955C59.9949 176.811 59.8684 176.607 59.8196 176.38L50.0596 131.76C49.8785 130.933 49.8854 130.075 50.0798 129.251C50.2742 128.427 50.6511 127.656 51.1828 126.997C51.7144 126.338 52.3873 125.806 53.1517 125.442C53.9161 125.077 54.7526 124.888 55.5996 124.89H134.6C135.446 124.89 136.281 125.079 137.044 125.445C137.807 125.81 138.479 126.342 139.009 127.001C139.54 127.66 139.916 128.43 140.11 129.253C140.304 130.077 140.31 130.933 140.13 131.76L130.37 176.38C130.321 176.604 130.198 176.805 130.019 176.949C129.841 177.092 129.619 177.171 129.39 177.17ZM61.6196 175.17H128.62L138.21 131.34C138.328 130.805 138.324 130.25 138.2 129.716C138.075 129.182 137.831 128.683 137.488 128.256C137.144 127.829 136.709 127.484 136.214 127.248C135.719 127.011 135.178 126.889 134.63 126.89H55.6296C55.0807 126.887 54.5383 127.008 54.0426 127.244C53.547 127.48 53.1109 127.824 52.7669 128.252C52.4228 128.68 52.1797 129.179 52.0555 129.714C51.9313 130.249 51.9293 130.804 52.0496 131.34L61.6196 175.17Z" fill="#093F68"/>
<path d="M130.12 176.17H60.5V183.29H130.12V176.17Z" fill="#F56132"/>
<path d="M130.12 184.29H60.5C60.2348 184.29 59.9804 184.185 59.7929 183.997C59.6054 183.81 59.5 183.555 59.5 183.29V176.17C59.5 175.905 59.6054 175.65 59.7929 175.463C59.9804 175.275 60.2348 175.17 60.5 175.17H130.12C130.385 175.17 130.64 175.275 130.827 175.463C131.015 175.65 131.12 175.905 131.12 176.17V183.29C131.12 183.555 131.015 183.81 130.827 183.997C130.64 184.185 130.385 184.29 130.12 184.29ZM61.5 182.29H129.12V177.17H61.5V182.29Z" fill="#093F68"/>
<path d="M89.6699 106.7H100.67V113C100.67 114.236 100.179 115.421 99.305 116.295C98.4311 117.169 97.2458 117.66 96.0099 117.66H94.3499C93.114 117.66 91.9287 117.169 91.0548 116.295C90.1809 115.421 89.6899 114.236 89.6899 113V106.7H89.6699Z" fill="#FFC9B0"/>
<path d="M95.9997 118.68H94.3397C92.8376 118.677 91.398 118.079 90.3369 117.016C89.2757 115.953 88.6797 114.512 88.6797 113.01V106.7C88.6797 106.435 88.7851 106.181 88.9726 105.993C89.1601 105.805 89.4145 105.7 89.6797 105.7H100.68C100.945 105.7 101.199 105.805 101.387 105.993C101.574 106.181 101.68 106.435 101.68 106.7V113C101.681 113.746 101.535 114.486 101.25 115.175C100.965 115.865 100.547 116.492 100.019 117.019C99.4913 117.547 98.8646 117.965 98.1749 118.25C97.4852 118.535 96.746 118.681 95.9997 118.68ZM90.6797 107.68V113C90.6797 113.972 91.065 114.904 91.7511 115.592C92.4372 116.28 93.3681 116.667 94.3397 116.67H95.9997C96.9705 116.665 97.8999 116.276 98.5854 115.589C99.2709 114.901 99.6571 113.971 99.6597 113V107.7L90.6797 107.68Z" fill="#093F68"/>
<path d="M59.0693 78.12C55.0693 75.51 54.6793 69.19 53.9593 64.82C51.4868 49.8703 53.0081 34.5327 58.3692 20.36C58.7402 24.7805 59.6228 29.143 60.9992 33.36C59.3292 28.26 65.4192 19.36 67.6392 15.2C70.6392 9.53 73.6392 5.26 78.7192 1.01L84.9992 15.4C87.9676 10.6538 90.1333 5.45067 91.4092 0C91.0792 1.41 108.039 15.69 108.539 15.62C109.399 15.51 110.539 9.62 110.449 7.52C117.449 15.15 125.039 24.19 123.919 34.52C126.394 31.8246 128.088 28.5057 128.819 24.92C133.497 36.2465 135.004 48.6323 133.179 60.75C132.559 64.9 131.729 73.75 128.419 76.75C125.339 79.52 118.309 77.51 114.529 77.63L80.6392 78.69C74.7792 78.87 66.1092 80.84 60.4892 78.8C59.9919 78.6275 59.5155 78.3993 59.0693 78.12Z" fill="#725858"/>
<path d="M66.9998 80.74C64.686 80.7991 62.3792 80.4609 60.1798 79.74C59.6097 79.535 59.0659 79.2631 58.5598 78.93C54.6998 76.41 53.9098 71.03 53.2698 66.71C53.1798 66.1 53.0998 65.52 52.9998 64.96C50.4837 49.8287 52.0262 34.3007 57.4698 19.96C57.5507 19.7489 57.7007 19.5713 57.8955 19.4564C58.0903 19.3415 58.3182 19.296 58.5422 19.3273C58.7661 19.3587 58.9729 19.465 59.1286 19.6289C59.2844 19.7929 59.38 20.0048 59.3998 20.23C59.5825 22.6089 59.9165 24.9736 60.3998 27.31C61.6967 23.7346 63.373 20.3084 65.3998 17.09C65.9298 16.17 66.3998 15.34 66.7798 14.65C69.514 9.09429 73.3682 4.1643 78.0998 0.17003C78.2254 0.0720505 78.3726 0.0055052 78.5292 -0.0240651C78.6857 -0.0536355 78.8471 -0.0453731 78.9998 3.23057e-05C79.1493 0.0363094 79.2885 0.106619 79.4065 0.205484C79.5244 0.30435 79.6179 0.429103 79.6798 0.570032L85.2098 13.22C87.6088 9.02278 89.384 4.49868 90.4798 -0.209967C90.5092 -0.338047 90.5637 -0.45906 90.64 -0.566088C90.7162 -0.673116 90.8129 -0.764059 90.9243 -0.833716C91.0358 -0.903372 91.1599 -0.950377 91.2895 -0.97204C91.4191 -0.993704 91.5517 -0.989599 91.6798 -0.959967C91.8857 -0.912081 92.0712 -0.800141 92.2096 -0.64023C92.3479 -0.48032 92.432 -0.280671 92.4498 -0.0699674C93.4498 1.77003 105.09 11.93 108.33 14.29C109.015 12.1117 109.409 9.85193 109.5 7.57003C109.494 7.36718 109.551 7.16746 109.661 6.99741C109.772 6.82736 109.932 6.69502 110.12 6.61797C110.307 6.54093 110.514 6.52282 110.712 6.56605C110.911 6.60929 111.091 6.71182 111.23 6.86003C117.77 13.94 124.62 22.18 125.06 31.55C126.437 29.4856 127.398 27.1724 127.89 24.74C127.932 24.5301 128.04 24.339 128.198 24.195C128.356 24.051 128.557 23.9616 128.77 23.94C128.979 23.9237 129.189 23.9738 129.368 24.0833C129.548 24.1928 129.688 24.3561 129.77 24.55C134.538 36.0383 136.07 48.6129 134.2 60.91C134.13 61.39 134.05 61.91 133.97 62.53C133.31 67.35 132.32 74.64 129.12 77.53C126.6 79.8 122.24 79.34 118.39 78.93C117.133 78.7623 115.867 78.6755 114.6 78.67L80.6998 79.73C79.0498 79.73 77.1498 79.98 75.1498 80.19C72.444 80.5097 69.7239 80.6932 66.9998 80.74ZM57.9298 24.74C53.7426 37.6411 52.7138 51.3588 54.9298 64.74C55.0198 65.3 55.1098 65.9 55.1998 66.52C55.7798 70.45 56.4898 75.33 59.5998 77.36C59.9801 77.6035 60.3858 77.8047 60.8098 77.96C64.5898 79.33 70.0598 78.76 74.8898 78.26C76.8898 78.04 78.8898 77.84 80.5798 77.79L114.48 76.73C115.841 76.7306 117.201 76.8208 118.55 77C121.81 77.35 125.87 77.78 127.73 76.1C130.39 73.72 131.36 66.58 131.94 62.33C132.02 61.73 132.1 61.17 132.17 60.69C133.858 49.7227 132.768 38.5071 129 28.07C128.049 30.7139 126.581 33.1414 124.68 35.21C124.537 35.3646 124.349 35.47 124.142 35.5113C123.936 35.5526 123.721 35.5277 123.53 35.44C123.341 35.3539 123.185 35.2115 123.081 35.0323C122.977 34.8532 122.931 34.6463 122.95 34.44C123.95 25.33 117.7 17.05 111.25 9.89003C110.93 12.53 110.25 16.45 108.69 16.64C107.13 16.83 93.7998 4.47003 91.8498 2.40003C90.5086 7.18059 88.488 11.7438 85.8498 15.95C85.7537 16.1047 85.6173 16.2302 85.4552 16.313C85.293 16.3959 85.1114 16.4329 84.9298 16.42C84.7484 16.4059 84.5744 16.3425 84.4264 16.2368C84.2784 16.1311 84.162 15.987 84.0898 15.82L78.3198 2.64003C74.2646 6.32085 70.9369 10.7306 68.5098 15.64C68.1298 16.35 67.6398 17.2 67.0898 18.14C64.5598 22.53 60.6998 29.19 61.9998 33C62.0708 33.2488 62.0426 33.5155 61.9211 33.7439C61.7997 33.9724 61.5944 34.1449 61.3484 34.2251C61.1024 34.3054 60.8349 34.2872 60.6021 34.1744C60.3692 34.0615 60.1892 33.8628 60.0998 33.62C59.1332 30.7125 58.3976 27.7333 57.8998 24.71L57.9298 24.74Z" fill="#093F68"/>
<path d="M66.6397 87.36C72.5326 87.36 77.3097 83.2455 77.3097 78.17C77.3097 73.0945 72.5326 68.98 66.6397 68.98C60.7468 68.98 55.9697 73.0945 55.9697 78.17C55.9697 83.2455 60.7468 87.36 66.6397 87.36Z" fill="#FFC9B0"/>
<path d="M66.6397 88.37C60.1997 88.37 54.9697 83.79 54.9697 78.17C54.9697 72.55 60.1997 68 66.6397 68C73.0797 68 78.2997 72.57 78.2997 78.19C78.2997 83.81 73.0697 88.37 66.6397 88.37ZM66.6397 69.98C61.3097 69.98 56.9697 73.66 56.9697 78.17C56.9697 82.68 61.3097 86.37 66.6397 86.37C71.9697 86.37 76.2997 82.69 76.2997 78.17C76.2997 73.65 71.9997 70 66.6397 70V69.98Z" fill="#093F68"/>
<path d="M123.68 87.36C129.573 87.36 134.35 83.2455 134.35 78.17C134.35 73.0945 129.573 68.98 123.68 68.98C117.787 68.98 113.01 73.0945 113.01 78.17C113.01 83.2455 117.787 87.36 123.68 87.36Z" fill="#FFC9B0"/>
<path d="M123.68 88.37C117.24 88.37 112.01 83.79 112.01 78.17C112.01 72.55 117.24 68 123.68 68C130.12 68 135.34 72.57 135.34 78.19C135.34 83.81 130.11 88.37 123.68 88.37ZM123.68 69.98C118.34 69.98 114.01 73.66 114.01 78.17C114.01 82.68 118.34 86.37 123.68 86.37C129.02 86.37 133.34 82.69 133.34 78.17C133.34 73.65 129 70 123.68 70V69.98Z" fill="#093F68"/>
<path d="M80.2593 74.26C81.9051 74.26 83.2393 72.9259 83.2393 71.28C83.2393 69.6342 81.9051 68.3 80.2593 68.3C78.6135 68.3 77.2793 69.6342 77.2793 71.28C77.2793 72.9259 78.6135 74.26 80.2593 74.26Z" fill="#093F68"/>
<path d="M110.99 74.26C112.636 74.26 113.97 72.9259 113.97 71.28C113.97 69.6342 112.636 68.3 110.99 68.3C109.344 68.3 108.01 69.6342 108.01 71.28C108.01 72.9259 109.344 74.26 110.99 74.26Z" fill="#093F68"/>
<path d="M106.89 85.66C106.801 88.7131 105.525 91.6111 103.334 93.7391C101.143 95.8671 98.2092 97.0574 95.1549 97.0574C92.1006 97.0574 89.1665 95.8671 86.9755 93.7391C84.7845 91.6111 83.5091 88.7131 83.4199 85.66H106.89Z" fill="white"/>
<path d="M95.1599 98.39C91.7836 98.3874 88.5462 97.0457 86.1578 94.6592C83.7695 92.2727 82.4252 89.0363 82.4199 85.66C82.4199 85.3948 82.5253 85.1405 82.7128 84.9529C82.9004 84.7654 83.1547 84.66 83.4199 84.66H106.89C107.155 84.66 107.409 84.7654 107.597 84.9529C107.785 85.1405 107.89 85.3948 107.89 85.66C107.887 89.0354 106.545 92.2718 104.158 94.6586C101.772 97.0453 98.5353 98.3874 95.1599 98.39ZM84.4599 86.66C84.7049 89.3272 85.9375 91.8066 87.9162 93.6119C89.8948 95.4171 92.4765 96.4179 95.1549 96.4179C97.8333 96.4179 100.415 95.4171 102.394 93.6119C104.372 91.8066 105.605 89.3272 105.85 86.66H84.4599Z" fill="#093F68"/>
<path d="M94.9994 82.2901C94.0245 82.2899 93.0512 82.2097 92.0894 82.0501C91.8302 82.0037 91.5997 81.8569 91.4481 81.6416C91.2964 81.4263 91.2358 81.1598 91.2794 80.9001C91.3012 80.7698 91.3486 80.6451 91.4188 80.5333C91.489 80.4214 91.5807 80.3246 91.6885 80.2483C91.7964 80.1721 91.9183 80.118 92.0472 80.0891C92.176 80.0602 92.3094 80.0572 92.4394 80.0801C93.8739 80.3286 95.3386 80.3488 96.7794 80.1401C96.9094 79.2301 95.7794 76.1401 94.2694 73.1901C94.1534 72.9561 94.1335 72.686 94.214 72.4376C94.2945 72.1892 94.469 71.9821 94.7002 71.8606C94.9314 71.7391 95.2009 71.7129 95.4512 71.7876C95.7015 71.8622 95.9126 72.0318 96.0394 72.2601C97.0894 74.2601 99.4395 79.1501 98.5695 81.0801C98.4728 81.3238 98.3201 81.5413 98.1238 81.715C97.9275 81.8887 97.6931 82.0138 97.4394 82.0801C96.6372 82.2458 95.8182 82.3162 94.9994 82.2901Z" fill="#093F68"/>
<path d="M72.18 62.49C71.9174 62.5038 71.6546 62.4657 71.4067 62.378C71.1587 62.2902 70.9305 62.1544 70.7351 61.9785C70.3403 61.6231 70.1029 61.1254 70.075 60.595C70.0472 60.0646 70.2312 59.5448 70.5866 59.15C70.942 58.7553 71.4396 58.5179 71.97 58.49L86.1 57C86.6305 56.9443 87.1613 57.1016 87.5757 57.4373C87.9902 57.773 88.2543 58.2596 88.31 58.79C88.3657 59.3204 88.2084 59.8513 87.8727 60.2657C87.537 60.6802 87.0505 60.9443 86.52 61L72.39 62.48L72.18 62.49Z" fill="#093F68"/>
<path d="M120.679 63.8101C120.553 63.8248 120.426 63.8248 120.299 63.8101L106.299 61.1701C105.778 61.0706 105.318 60.7682 105.02 60.3294C104.721 59.8905 104.61 59.3512 104.709 58.8301C104.809 58.3089 105.111 57.8486 105.55 57.5504C105.989 57.2522 106.528 57.1406 107.049 57.2401L121.049 59.8801C121.58 59.9291 122.069 60.1869 122.409 60.5967C122.75 61.0064 122.913 61.5346 122.864 62.0651C122.815 62.5955 122.557 63.0847 122.148 63.4251C121.738 63.7655 121.21 63.9291 120.679 63.8801V63.8101Z" fill="#093F68"/>
<path d="M95.16 106.7C87.3501 106.697 79.861 103.594 74.3386 98.0713C68.8162 92.549 65.7126 85.0598 65.71 77.25V47.81C73.2044 41.7925 82.1895 37.9185 91.71 36.6C118 46.39 124.6 47.81 124.6 47.81V77.25C124.6 85.0589 121.499 92.5481 115.978 98.0707C110.457 103.593 102.969 106.697 95.16 106.7Z" fill="#FFC9B0"/>
<path d="M95.16 107.7C87.0866 107.692 79.3461 104.481 73.6373 98.7726C67.9286 93.0639 64.7179 85.3234 64.71 77.25V47.81C64.7103 47.6705 64.7398 47.5325 64.7966 47.4051C64.8535 47.2776 64.9364 47.1635 65.0399 47.07C65.4499 46.7 75.25 38 91.58 35.61C91.7439 35.5677 91.916 35.5677 92.08 35.61C117.91 45.24 124.74 46.77 124.81 46.78C125.037 46.8288 125.241 46.9553 125.385 47.1379C125.529 47.3204 125.605 47.5475 125.6 47.78V77.22C125.6 85.2969 122.394 93.0435 116.687 98.7585C110.979 104.473 103.237 107.689 95.16 107.7ZM66.71 48.27V77.27C66.6391 81.0503 67.3224 84.8069 68.7201 88.3201C70.1178 91.8332 72.2017 95.0326 74.8501 97.7311C77.4985 100.43 80.6582 102.573 84.1445 104.036C87.6309 105.5 91.374 106.253 95.155 106.253C98.9359 106.253 102.679 105.5 106.165 104.036C109.652 102.573 112.811 100.43 115.46 97.7311C118.108 95.0326 120.192 91.8332 121.59 88.3201C122.987 84.8069 123.671 81.0503 123.6 77.27V48.59C121.22 47.97 112.97 45.59 91.6 37.59C82.5222 38.9479 73.9489 42.6266 66.71 48.27Z" fill="#093F68"/>
<path d="M85.9 70.0001H74.6301C73.082 69.9974 71.5981 69.3813 70.5035 68.2866C69.4088 67.192 68.7927 65.7081 68.79 64.1601V59.5301C68.7927 57.982 69.4088 56.4981 70.5035 55.4035C71.5981 54.3088 73.082 53.6927 74.6301 53.6901H85.9C87.4472 53.6927 88.93 54.3092 90.0231 55.4041C91.1161 56.499 91.73 57.9829 91.73 59.5301V64.1601C91.73 65.7072 91.1161 67.1911 90.0231 68.286C88.93 69.381 87.4472 69.9974 85.9 70.0001ZM74.6301 55.6901C73.6116 55.6901 72.6349 56.0946 71.9147 56.8148C71.1946 57.5349 70.79 58.5116 70.79 59.5301V64.1601C70.79 65.1785 71.1946 66.1552 71.9147 66.8754C72.6349 67.5955 73.6116 68.0001 74.6301 68.0001H85.9C86.9167 67.9974 87.8909 67.5917 88.6089 66.8718C89.3268 66.152 89.73 65.1768 89.73 64.1601V59.5301C89.73 58.5134 89.3268 57.5382 88.6089 56.8183C87.8909 56.0984 86.9167 55.6927 85.9 55.6901H74.6301Z" fill="#093F68"/>
<path d="M115.839 70.0001H104.57C103.021 69.9974 101.538 69.3813 100.443 68.2866C99.3483 67.192 98.7321 65.7081 98.7295 64.1601V59.5301C98.7321 57.982 99.3483 56.4981 100.443 55.4035C101.538 54.3088 103.021 53.6927 104.57 53.6901H115.839C117.387 53.6927 118.869 54.3092 119.963 55.4041C121.056 56.499 121.669 57.9829 121.669 59.5301V64.1601C121.669 65.7072 121.056 67.1911 119.963 68.286C118.869 69.381 117.387 69.9974 115.839 70.0001ZM104.57 55.6901C103.551 55.6901 102.574 56.0946 101.854 56.8148C101.134 57.5349 100.729 58.5116 100.729 59.5301V64.1601C100.729 65.1785 101.134 66.1552 101.854 66.8754C102.574 67.5955 103.551 68.0001 104.57 68.0001H115.839C116.856 67.9974 117.83 67.5917 118.548 66.8718C119.266 66.152 119.669 65.1768 119.669 64.1601V59.5301C119.669 58.5134 119.266 57.5382 118.548 56.8183C117.83 56.0984 116.856 55.6927 115.839 55.6901H104.57Z" fill="#093F68"/>
<path d="M99.7301 61.6701C99.5045 61.6688 99.286 61.5912 99.1101 61.4501C95.9601 58.9801 92.0601 61.4501 91.8901 61.5101C91.7791 61.5803 91.6554 61.6281 91.526 61.6505C91.3966 61.673 91.264 61.6697 91.1359 61.6409C91.0077 61.6121 90.8865 61.5584 90.7791 61.4827C90.6717 61.4071 90.5803 61.311 90.5101 61.2001C90.3713 60.9768 90.326 60.7079 90.384 60.4515C90.4421 60.1951 90.5987 59.9718 90.8201 59.8301C91.0301 59.6901 96.0801 56.5301 100.35 59.8301C100.454 59.9119 100.54 60.0133 100.604 60.1286C100.668 60.2439 100.709 60.3707 100.724 60.5018C100.738 60.6328 100.727 60.7655 100.691 60.8922C100.654 61.0189 100.593 61.1372 100.51 61.2401C100.422 61.3671 100.306 61.4721 100.171 61.5467C100.035 61.6213 99.8845 61.6635 99.7301 61.6701Z" fill="#093F68"/>
<path d="M62.2001 70C62.0011 69.9992 61.8069 69.939 61.6422 69.8272C61.4776 69.7154 61.3501 69.557 61.276 69.3723C61.2019 69.1876 61.1846 68.985 61.2263 68.7904C61.268 68.5958 61.3668 68.4181 61.5101 68.28L69.1001 61.1C69.2959 60.94 69.5449 60.8601 69.7972 60.8763C70.0495 60.8926 70.2862 61.0037 70.4598 61.1875C70.6335 61.3712 70.731 61.6139 70.7329 61.8667C70.7348 62.1195 70.6409 62.3636 70.4701 62.55L62.8801 69.73C62.6957 69.9027 62.4528 69.9991 62.2001 70Z" fill="#093F68"/>
<path d="M128.41 70C128.154 70.0017 127.907 69.9051 127.72 69.73L120.13 62.55C120.023 62.4631 119.936 62.3552 119.873 62.233C119.811 62.1109 119.774 61.9771 119.765 61.84C119.756 61.7029 119.775 61.5655 119.822 61.4363C119.869 61.3071 119.941 61.1888 120.036 61.089C120.13 60.9891 120.244 60.9098 120.37 60.8559C120.497 60.802 120.633 60.7747 120.77 60.7758C120.908 60.7768 121.043 60.8061 121.169 60.8619C121.294 60.9177 121.407 60.9988 121.5 61.1L129.09 68.28C129.276 68.4674 129.381 68.7209 129.381 68.985C129.381 69.2492 129.276 69.5027 129.09 69.69C128.912 69.8774 128.668 69.9885 128.41 70Z" fill="#093F68"/>
<path d="M97.3494 79.58C96.4672 79.5783 95.5892 79.4572 94.7394 79.22C94.4973 79.1366 94.2964 78.9635 94.1781 78.7363C94.0598 78.5092 94.0332 78.2453 94.1037 77.9991C94.1743 77.7529 94.3365 77.5432 94.5571 77.4131C94.7777 77.283 95.0398 77.2425 95.2894 77.3C95.4694 77.3 99.7994 78.53 100.749 75.69C101.519 73.36 97.2194 68.1 94.3294 65.33C94.2342 65.2394 94.1578 65.1309 94.1045 65.0107C94.0512 64.8906 94.0221 64.7611 94.0189 64.6297C94.0156 64.4983 94.0383 64.3676 94.0856 64.245C94.1328 64.1223 94.2038 64.0102 94.2944 63.915C94.385 63.8198 94.4935 63.7433 94.6137 63.6901C94.7338 63.6368 94.8633 63.6077 94.9947 63.6044C95.1261 63.6012 95.2568 63.6238 95.3795 63.6711C95.5021 63.7184 95.6142 63.7894 95.7094 63.88C96.5694 64.7 104.069 72.04 102.639 76.32C101.799 78.86 99.4494 79.58 97.3494 79.58Z" fill="#093F68"/>
<path d="M81.2399 63.73C82.5433 63.73 83.5999 62.6734 83.5999 61.37C83.5999 60.0666 82.5433 59.01 81.2399 59.01C79.9365 59.01 78.8799 60.0666 78.8799 61.37C78.8799 62.6734 79.9365 63.73 81.2399 63.73Z" fill="#093F68"/>
<path d="M110.99 63.73C112.293 63.73 113.35 62.6734 113.35 61.37C113.35 60.0666 112.293 59.01 110.99 59.01C109.686 59.01 108.63 60.0666 108.63 61.37C108.63 62.6734 109.686 63.73 110.99 63.73Z" fill="#093F68"/>
<path d="M72.1898 53.0801C71.7691 53.0787 71.3596 52.9447 71.0195 52.6972C70.6794 52.4497 70.426 52.1013 70.2953 51.7015C70.1646 51.3016 70.1633 50.8708 70.2915 50.4702C70.4198 50.0696 70.6711 49.7196 71.0097 49.4701C71.3697 49.2101 80.0098 43.1101 88.5698 47.7601C89.0365 48.012 89.3841 48.4391 89.536 48.9473C89.6879 49.4555 89.6317 50.0033 89.3798 50.4701C89.1278 50.9369 88.7007 51.2844 88.1925 51.4363C87.6843 51.5882 87.1365 51.532 86.6698 51.2801C80.2898 47.8301 73.4198 52.6601 73.3498 52.7101C73.0109 52.951 72.6055 53.0803 72.1898 53.0801Z" fill="#093F68"/>
<path d="M116.2 53.0901C115.783 53.0874 115.377 52.9545 115.04 52.7101C114.92 52.6301 108.04 47.8401 101.72 51.2801C101.488 51.4048 101.235 51.4828 100.974 51.5096C100.712 51.5365 100.448 51.5115 100.197 51.4363C99.9452 51.3611 99.7108 51.2371 99.5071 51.0713C99.3034 50.9055 99.1343 50.7012 99.0095 50.4701C98.8848 50.2389 98.8068 49.9855 98.78 49.7242C98.7532 49.463 98.7781 49.199 98.8533 48.9473C98.9285 48.6957 99.0526 48.4613 99.2183 48.2576C99.3841 48.0539 99.5884 47.8848 99.8196 47.7601C108.43 43.1101 117.02 49.2101 117.38 49.4701C117.722 49.7183 117.978 50.0689 118.109 50.4713C118.24 50.8738 118.239 51.3075 118.108 51.7099C117.977 52.1123 117.722 52.4628 117.379 52.7108C117.036 52.9588 116.623 53.0916 116.2 53.0901Z" fill="#093F68"/>
<path d="M102.899 83.8H90.7295C90.7295 83.8 92.2795 102.31 96.8195 100.8C101.36 99.29 102.899 83.8 102.899 83.8Z" fill="#093F68"/>
<path d="M96.2898 101.86C95.7694 101.857 95.2615 101.701 94.8298 101.41C91.1798 99.01 89.9498 86.41 89.7398 83.89C89.7283 83.7523 89.7454 83.6136 89.7902 83.4828C89.8349 83.352 89.9063 83.2319 89.9998 83.1301C90.0922 83.0277 90.2047 82.9455 90.3303 82.8887C90.456 82.832 90.592 82.8018 90.7298 82.8H102.9C103.039 82.8004 103.177 82.8299 103.305 82.8867C103.432 82.9436 103.546 83.0265 103.64 83.1301C103.733 83.2339 103.803 83.356 103.846 83.4886C103.889 83.6212 103.904 83.7614 103.89 83.9C102.36 99.19 97.9998 101.42 97.1398 101.71C96.8669 101.807 96.5796 101.858 96.2898 101.86ZM91.8298 84.8C92.3798 90.29 93.8298 98.38 95.9198 99.73C95.9982 99.7944 96.0924 99.8367 96.1926 99.8525C96.2928 99.8683 96.3954 99.8571 96.4898 99.8201C99.1798 98.9101 101.08 90.5501 101.78 84.8201L91.8298 84.8Z" fill="#093F68"/>
<path d="M189.53 184.29H0.679688C0.414471 184.29 0.160116 184.185 -0.02742 183.997C-0.214956 183.81 -0.320312 183.555 -0.320312 183.29C-0.320312 183.025 -0.214956 182.77 -0.02742 182.583C0.160116 182.395 0.414471 182.29 0.679688 182.29H189.53C189.795 182.29 190.049 182.395 190.237 182.583C190.424 182.77 190.53 183.025 190.53 183.29C190.53 183.555 190.424 183.81 190.237 183.997C190.049 184.185 189.795 184.29 189.53 184.29Z" fill="#093F68"/>
<path d="M96.0595 160.02C99.9476 160.02 103.1 157.643 103.1 154.71C103.1 151.777 99.9476 149.4 96.0595 149.4C92.1714 149.4 89.0195 151.777 89.0195 154.71C89.0195 157.643 92.1714 160.02 96.0595 160.02Z" fill="#F56132"/>
<path d="M96.0596 161C91.6196 161 88.0596 158.17 88.0596 154.7C88.0596 151.23 91.6596 148.39 96.0596 148.39C100.46 148.39 104.06 151.22 104.06 154.7C104.06 158.18 100.49 161 96.0596 161ZM96.0596 150.39C92.7296 150.39 90.0596 152.32 90.0596 154.7C90.0596 157.08 92.7696 159 96.0596 159C99.3496 159 102.06 157.07 102.06 154.7C102.06 152.33 99.3896 150.4 96.0596 150.4V150.39Z" fill="#093F68"/>
<path d="M96.0602 150.4H95.8902C95.6291 150.356 95.3962 150.21 95.2424 149.994C95.0887 149.779 95.0268 149.511 95.0702 149.25C95.1602 148.74 95.9902 144.33 99.0702 143.97C99.2015 143.955 99.3345 143.966 99.4616 144.002C99.5887 144.038 99.7074 144.099 99.811 144.182C99.9145 144.264 100.001 144.365 100.065 144.481C100.129 144.597 100.17 144.724 100.185 144.855C100.2 144.986 100.189 145.119 100.153 145.246C100.117 145.374 100.056 145.492 99.9736 145.596C99.8914 145.699 99.7897 145.786 99.6741 145.85C99.5586 145.914 99.4315 145.955 99.3002 145.97C98.0602 146.12 97.3002 148.48 97.0702 149.6C97.0231 149.831 96.896 150.038 96.7112 150.184C96.5264 150.331 96.2958 150.407 96.0602 150.4Z" fill="#093F68"/>
<path d="M26.9997 154.59H47.0697V174.86C47.0697 176.995 46.2216 179.043 44.7119 180.552C43.2023 182.062 41.1547 182.91 39.0197 182.91H35.0197C32.8847 182.91 30.8372 182.062 29.3275 180.552C27.8178 179.043 26.9697 176.995 26.9697 174.86V154.59H26.9997Z" fill="#FFBC0E"/>
<path d="M38.9992 183.91H34.9992C32.6085 183.908 30.3156 182.96 28.6204 181.274C26.9252 179.588 25.9651 177.301 25.9492 174.91V154.59C25.9492 154.325 26.0546 154.071 26.2421 153.883C26.4296 153.695 26.684 153.59 26.9492 153.59H47.0192C47.2844 153.59 47.5388 153.695 47.7263 153.883C47.9139 154.071 48.0192 154.325 48.0192 154.59V174.86C48.014 177.254 47.0629 179.548 45.3733 181.243C43.6837 182.938 41.3926 183.897 38.9992 183.91ZM27.9992 155.59V174.86C28.0124 176.721 28.761 178.502 30.0817 179.813C31.4024 181.124 33.1881 181.86 35.0492 181.86H39.0492C40.9113 181.86 42.698 181.125 44.0203 179.814C45.3426 178.502 46.0934 176.722 46.1092 174.86V155.59H27.9992Z" fill="#093F68"/>
<path d="M26.9993 174.11H26.7893C24.5578 174.034 22.4432 173.094 20.8916 171.489C19.34 169.883 18.4727 167.738 18.4727 165.505C18.4727 163.272 19.34 161.127 20.8916 159.521C22.4432 157.916 24.5578 156.976 26.7893 156.9H26.9993C27.2645 156.9 27.5188 157.005 27.7064 157.193C27.8939 157.38 27.9993 157.635 27.9993 157.9V173.11C27.9993 173.375 27.8939 173.63 27.7064 173.817C27.5188 174.005 27.2645 174.11 26.9993 174.11ZM25.9993 159C24.3931 159.189 22.912 159.96 21.8372 161.169C20.7624 162.377 20.1687 163.938 20.1687 165.555C20.1687 167.172 20.7624 168.733 21.8372 169.941C22.912 171.15 24.3931 171.922 25.9993 172.11V159Z" fill="#093F68"/>
<path d="M182.76 160.01V140.92H144.33V160.01H139.26V171.75H143.64V183.29H182.07V171.56H177.7V160.01H182.76Z" fill="white"/>
<path d="M182.07 184.29H143.64C143.375 184.29 143.12 184.185 142.933 183.997C142.745 183.81 142.64 183.555 142.64 183.29V172.75H139.26C138.995 172.75 138.74 172.645 138.553 172.457C138.365 172.27 138.26 172.015 138.26 171.75V160C138.26 159.735 138.365 159.48 138.553 159.293C138.74 159.105 138.995 159 139.26 159H143.33V140.92C143.33 140.655 143.435 140.4 143.623 140.213C143.81 140.025 144.065 139.92 144.33 139.92H182.76C183.025 139.92 183.279 140.025 183.467 140.213C183.654 140.4 183.76 140.655 183.76 140.92V160C183.76 160.265 183.654 160.52 183.467 160.707C183.279 160.895 183.025 161 182.76 161H178.7V170.55H182.07C182.335 170.55 182.589 170.655 182.777 170.843C182.964 171.03 183.07 171.285 183.07 171.55V183.28C183.071 183.412 183.046 183.543 182.997 183.666C182.947 183.788 182.873 183.9 182.78 183.994C182.687 184.088 182.577 184.162 182.455 184.213C182.333 184.264 182.202 184.29 182.07 184.29ZM144.64 182.29H181.07V172.56H177.7C177.435 172.56 177.18 172.455 176.993 172.267C176.805 172.08 176.7 171.825 176.7 171.56V160C176.7 159.735 176.805 159.48 176.993 159.293C177.18 159.105 177.435 159 177.7 159H181.76V141.92H145.33V160C145.33 160.265 145.224 160.52 145.037 160.707C144.849 160.895 144.595 161 144.33 161H140.26V170.74H143.64C143.905 170.74 144.159 170.845 144.347 171.033C144.534 171.22 144.64 171.475 144.64 171.74V182.29Z" fill="#093F68"/>
<path d="M177.699 172.56H153.779C153.514 172.56 153.26 172.455 153.072 172.267C152.885 172.08 152.779 171.825 152.779 171.56C152.779 171.295 152.885 171.04 153.072 170.853C153.26 170.665 153.514 170.56 153.779 170.56H177.699C177.965 170.56 178.219 170.665 178.406 170.853C178.594 171.04 178.699 171.295 178.699 171.56C178.699 171.825 178.594 172.08 178.406 172.267C178.219 172.455 177.965 172.56 177.699 172.56Z" fill="#093F68"/>
<path d="M158 161H144.33C144.065 161 143.811 160.895 143.623 160.707C143.435 160.52 143.33 160.265 143.33 160C143.33 159.735 143.435 159.48 143.623 159.293C143.811 159.105 144.065 159 144.33 159H158C158.265 159 158.52 159.105 158.707 159.293C158.895 159.48 159 159.735 159 160C159 160.265 158.895 160.52 158.707 160.707C158.52 160.895 158.265 161 158 161Z" fill="#093F68"/>
<path d="M177.7 161H167.29C167.025 161 166.77 160.895 166.583 160.707C166.395 160.52 166.29 160.265 166.29 160C166.29 159.735 166.395 159.48 166.583 159.293C166.77 159.105 167.025 159 167.29 159H177.7C177.965 159 178.22 159.105 178.407 159.293C178.595 159.48 178.7 159.735 178.7 160C178.7 160.265 178.595 160.52 178.407 160.707C178.22 160.895 177.965 161 177.7 161Z" fill="#093F68"/>
<path d="M182.76 153.13H150C149.735 153.13 149.48 153.025 149.293 152.837C149.105 152.65 149 152.395 149 152.13C149 151.865 149.105 151.61 149.293 151.423C149.48 151.235 149.735 151.13 150 151.13H182.78C183.045 151.13 183.3 151.235 183.487 151.423C183.675 151.61 183.78 151.865 183.78 152.13C183.78 152.395 183.675 152.65 183.487 152.837C183.3 153.025 183.045 153.13 182.78 153.13H182.76Z" fill="#093F68"/>
<path d="M170.25 147.22H144.91C144.645 147.22 144.391 147.115 144.203 146.927C144.016 146.74 143.91 146.485 143.91 146.22C143.91 145.955 144.016 145.7 144.203 145.513C144.391 145.325 144.645 145.22 144.91 145.22H170.25C170.515 145.22 170.77 145.325 170.957 145.513C171.145 145.7 171.25 145.955 171.25 146.22C171.25 146.485 171.145 146.74 170.957 146.927C170.77 147.115 170.515 147.22 170.25 147.22Z" fill="#093F68"/>
<path d="M169.26 165.52H140.68C140.414 165.52 140.16 165.415 139.973 165.227C139.785 165.04 139.68 164.785 139.68 164.52C139.68 164.255 139.785 164 139.973 163.813C140.16 163.625 140.414 163.52 140.68 163.52H169.26C169.525 163.52 169.779 163.625 169.967 163.813C170.154 164 170.26 164.255 170.26 164.52C170.26 164.785 170.154 165.04 169.967 165.227C169.779 165.415 169.525 165.52 169.26 165.52Z" fill="#093F68"/>
<path d="M174.05 177.17H143.64C143.374 177.17 143.12 177.065 142.933 176.877C142.745 176.69 142.64 176.435 142.64 176.17C142.64 175.905 142.745 175.65 142.933 175.463C143.12 175.275 143.374 175.17 143.64 175.17H174.05C174.315 175.17 174.569 175.275 174.757 175.463C174.944 175.65 175.05 175.905 175.05 176.17C175.05 176.435 174.944 176.69 174.757 176.877C174.569 177.065 174.315 177.17 174.05 177.17Z" fill="#093F68"/>
<path d="M20 111.57C19.7348 111.57 19.4804 111.465 19.2929 111.277C19.1054 111.09 19 110.835 19 110.57V107C19 106.735 19.1054 106.48 19.2929 106.293C19.4804 106.105 19.7348 106 20 106C20.2652 106 20.5196 106.105 20.7071 106.293C20.8946 106.48 21 106.735 21 107V110.56C21.0013 110.692 20.9764 110.823 20.9268 110.946C20.8771 111.068 20.8037 111.18 20.7107 111.274C20.6177 111.367 20.507 111.442 20.385 111.493C20.263 111.544 20.1322 111.57 20 111.57Z" fill="#DFEAEF"/>
<path d="M20 119.29C19.7348 119.29 19.4804 119.185 19.2929 118.997C19.1054 118.81 19 118.555 19 118.29V114.74C19 114.475 19.1054 114.22 19.2929 114.033C19.4804 113.845 19.7348 113.74 20 113.74C20.2652 113.74 20.5196 113.845 20.7071 114.033C20.8946 114.22 21 114.475 21 114.74V118.29C21 118.555 20.8946 118.81 20.7071 118.997C20.5196 119.185 20.2652 119.29 20 119.29Z" fill="#DFEAEF"/>
<path d="M25.6498 113.65H22.0898C21.8246 113.65 21.5703 113.545 21.3827 113.357C21.1952 113.17 21.0898 112.915 21.0898 112.65C21.0898 112.385 21.1952 112.13 21.3827 111.943C21.5703 111.755 21.8246 111.65 22.0898 111.65H25.6498C25.9151 111.65 26.1694 111.755 26.3569 111.943C26.5445 112.13 26.6498 112.385 26.6498 112.65C26.6498 112.915 26.5445 113.17 26.3569 113.357C26.1694 113.545 25.9151 113.65 25.6498 113.65Z" fill="#DFEAEF"/>
<path d="M17.9201 113.65H14.3701C14.1049 113.65 13.8505 113.545 13.663 113.357C13.4755 113.17 13.3701 112.915 13.3701 112.65C13.3701 112.385 13.4755 112.13 13.663 111.943C13.8505 111.755 14.1049 111.65 14.3701 111.65H17.9201C18.1853 111.65 18.4397 111.755 18.6272 111.943C18.8148 112.13 18.9201 112.385 18.9201 112.65C18.9201 112.915 18.8148 113.17 18.6272 113.357C18.4397 113.545 18.1853 113.65 17.9201 113.65Z" fill="#DFEAEF"/>
<path d="M165.449 113.65C165.184 113.65 164.93 113.545 164.742 113.357C164.555 113.17 164.449 112.915 164.449 112.65V109.1C164.449 108.835 164.555 108.581 164.742 108.393C164.93 108.205 165.184 108.1 165.449 108.1C165.714 108.1 165.969 108.205 166.156 108.393C166.344 108.581 166.449 108.835 166.449 109.1V112.65C166.449 112.915 166.344 113.17 166.156 113.357C165.969 113.545 165.714 113.65 165.449 113.65Z" fill="#DFEAEF"/>
<path d="M165.449 121.38C165.184 121.38 164.93 121.275 164.742 121.087C164.555 120.9 164.449 120.645 164.449 120.38V116.83C164.449 116.565 164.555 116.311 164.742 116.123C164.93 115.935 165.184 115.83 165.449 115.83C165.714 115.83 165.969 115.935 166.156 116.123C166.344 116.311 166.449 116.565 166.449 116.83V120.38C166.449 120.645 166.344 120.9 166.156 121.087C165.969 121.275 165.714 121.38 165.449 121.38Z" fill="#DFEAEF"/>
<path d="M171.1 115.74H167.54C167.275 115.74 167.02 115.635 166.833 115.447C166.645 115.26 166.54 115.005 166.54 114.74C166.54 114.475 166.645 114.22 166.833 114.033C167.02 113.845 167.275 113.74 167.54 113.74H171.1C171.365 113.74 171.62 113.845 171.807 114.033C171.995 114.22 172.1 114.475 172.1 114.74C172.1 115.005 171.995 115.26 171.807 115.447C171.62 115.635 171.365 115.74 171.1 115.74Z" fill="#DFEAEF"/>
<path d="M163.37 115.74H159.81C159.544 115.74 159.29 115.635 159.102 115.447C158.915 115.26 158.81 115.005 158.81 114.74C158.81 114.475 158.915 114.22 159.102 114.033C159.29 113.845 159.544 113.74 159.81 113.74H163.37C163.635 113.74 163.889 113.845 164.077 114.033C164.264 114.22 164.37 114.475 164.37 114.74C164.37 115.005 164.264 115.26 164.077 115.447C163.889 115.635 163.635 115.74 163.37 115.74Z" fill="#DFEAEF"/>
<path d="M175 81.29C174.735 81.29 174.48 81.1847 174.293 80.9971C174.105 80.8096 174 80.5552 174 80.29V77.29C174 77.0248 174.105 76.7705 174.293 76.5829C174.48 76.3954 174.735 76.29 175 76.29C175.265 76.29 175.52 76.3954 175.707 76.5829C175.895 76.7705 176 77.0248 176 77.29V80.29C176 80.5552 175.895 80.8096 175.707 80.9971C175.52 81.1847 175.265 81.29 175 81.29Z" fill="#DFEAEF"/>
<path d="M175 87.8C174.735 87.8 174.48 87.6947 174.293 87.5072C174.105 87.3196 174 87.0653 174 86.8V83.8C174 83.5348 174.105 83.2805 174.293 83.0929C174.48 82.9054 174.735 82.8 175 82.8C175.265 82.8 175.52 82.9054 175.707 83.0929C175.895 83.2805 176 83.5348 176 83.8V86.8C176 87.0653 175.895 87.3196 175.707 87.5072C175.52 87.6947 175.265 87.8 175 87.8Z" fill="#DFEAEF"/>
<path d="M179.71 83.05H176.71C176.445 83.05 176.19 82.9447 176.003 82.7572C175.815 82.5696 175.71 82.3153 175.71 82.05C175.71 81.7848 175.815 81.5305 176.003 81.3429C176.19 81.1554 176.445 81.05 176.71 81.05H179.71C179.975 81.05 180.23 81.1554 180.417 81.3429C180.605 81.5305 180.71 81.7848 180.71 82.05C180.71 82.3153 180.605 82.5696 180.417 82.7572C180.23 82.9447 179.975 83.05 179.71 83.05Z" fill="#DFEAEF"/>
<path d="M173.199 83.05H170.199C169.934 83.05 169.68 82.9447 169.492 82.7572C169.305 82.5696 169.199 82.3153 169.199 82.05C169.199 81.7848 169.305 81.5305 169.492 81.3429C169.68 81.1554 169.934 81.05 170.199 81.05H173.199C173.464 81.05 173.719 81.1554 173.906 81.3429C174.094 81.5305 174.199 81.7848 174.199 82.05C174.199 82.3153 174.094 82.5696 173.906 82.7572C173.719 82.9447 173.464 83.05 173.199 83.05Z" fill="#DFEAEF"/>
</svg>
