<svg width="64" height="107" viewBox="0 0 64 107" fill="none" xmlns="http://www.w3.org/2000/svg">
<g clip-path="url(#clip0_6834_2972)">
<path d="M32.236 62.924C39.1723 62.7971 44.5996 56.8461 44.5996 49.9088V44.5995H50.3268C57.3638 44.5995 63.0533 38.8305 62.9241 31.764C62.7973 24.8278 56.8463 19.4004 49.9089 19.4004H44.5996V22.8366C44.5996 27.8974 40.497 31.9999 35.4364 31.9999H28.5639C23.5031 31.9999 19.4006 36.1025 19.4006 41.1631V44.5994V50.3265C19.4005 57.3636 25.1695 63.0534 32.236 62.924Z" fill="#FFDC64"/>
<path d="M44.5996 44.5996H34.2909C33.0256 44.5996 32 45.6252 32 46.8905V50.8995C32 54.3789 34.8205 57.1992 38.2998 57.1992C41.7791 57.1992 44.5995 54.3787 44.5995 50.8995V44.5996H44.5996Z" fill="#FFF082"/>
<path d="M37.7272 53.7631C38.9924 53.7631 40.018 52.7375 40.018 51.4723C40.018 50.2071 38.9924 49.1814 37.7272 49.1814C36.4619 49.1814 35.4363 50.2071 35.4363 51.4723C35.4363 52.7375 36.4619 53.7631 37.7272 53.7631Z" fill="white"/>
<path d="M31.764 1.07613C24.8278 1.203 19.4004 7.15401 19.4004 14.0915V19.4006H13.6733C6.63626 19.4006 0.946761 25.1696 1.07589 32.2361C1.20276 39.1724 7.15376 44.5998 14.0911 44.5998H19.4004V41.1635C19.4004 36.1028 23.503 32.0003 28.5636 32.0003H35.4361C40.4969 32.0003 44.5994 27.8976 44.5994 22.837V19.4008V13.6736C44.5995 6.63651 38.8306 0.947005 31.764 1.07613Z" fill="#00AAF0"/>
<path d="M19.4006 19.4005H29.7094C30.9746 19.4005 32.0003 18.3749 32.0003 17.1097V13.1007C32.0003 9.6214 29.1798 6.8009 25.7005 6.8009C22.2211 6.8009 19.4008 9.6214 19.4008 13.1007V19.4005H19.4006Z" fill="#0096DC"/>
<path d="M26.2731 14.8189C27.5383 14.8189 28.5639 13.7933 28.5639 12.5281C28.5639 11.2628 27.5383 10.2372 26.2731 10.2372C25.0078 10.2372 23.9822 11.2628 23.9822 12.5281C23.9822 13.7933 25.0078 14.8189 26.2731 14.8189Z" fill="white"/>
<path d="M53.7664 25.9016C53.602 25.9016 53.4343 25.8659 53.2753 25.7897C52.6533 25.4944 51.9923 25.2942 51.3122 25.198C50.6858 25.1085 50.2507 24.5291 50.339 23.9026C50.4285 23.2762 51.0092 22.8434 51.6344 22.9295C52.5449 23.0592 53.4285 23.3255 54.2597 23.7225C54.8312 23.9942 55.074 24.6777 54.801 25.2482C54.6053 25.6611 54.1948 25.9016 53.7664 25.9016Z" fill="#FFF082"/>
<path d="M56.0538 38.7563C55.7641 38.7563 55.4755 38.6478 55.2516 38.4285C54.7998 37.9867 54.793 37.2608 55.236 36.8088C56.5023 35.5169 57.1992 33.8088 57.1992 32C57.1992 30.5861 56.7729 29.2271 55.9665 28.0715C55.6053 27.5525 55.7315 26.8389 56.2507 26.4764C56.7719 26.1161 57.4844 26.2438 57.8458 26.7604C58.9219 28.3029 59.49 30.1139 59.49 31.9998C59.49 34.4114 58.5605 36.6888 56.8715 38.4125C56.6479 38.641 56.3503 38.7563 56.0538 38.7563Z" fill="#FFF082"/>
<path d="M10.2341 38.0983C10.3985 38.0983 10.5663 38.134 10.7253 38.2101C11.3472 38.5055 12.0082 38.7056 12.6884 38.8019C13.3147 38.8914 13.7499 39.4708 13.6615 40.0973C13.572 40.7236 12.9914 41.1565 12.3661 41.0704C11.4556 40.9406 10.572 40.6744 9.74088 40.2774C9.16938 40.0056 8.9265 39.3221 9.1995 38.7516C9.39525 38.3388 9.80575 38.0983 10.2341 38.0983Z" fill="#0096DC"/>
<path d="M7.9465 25.2439C8.23613 25.2439 8.52475 25.3524 8.74863 25.5716C9.2005 26.0135 9.20725 26.7394 8.76425 27.1914C7.49813 28.4833 6.80113 30.1911 6.80113 31.9999C6.80113 33.4138 7.22738 34.7728 8.03375 35.9284C8.395 36.4474 8.26875 37.161 7.74963 37.5235C7.22838 37.8838 6.51588 37.7561 6.1545 37.2394C5.0785 35.6968 4.51025 33.8859 4.51025 31.9999C4.51025 29.5883 5.43975 27.3109 7.12875 25.5871C7.35263 25.359 7.65013 25.2439 7.9465 25.2439Z" fill="#0096DC"/>
<path d="M60.0838 22.4207C57.4913 19.7806 54.0263 18.3266 50.3266 18.3266H49.1815C48.5883 18.3266 48.1076 18.8073 48.1076 19.4004C48.1076 19.9934 48.5882 20.4743 49.1815 20.4743H50.3266C53.4451 20.4743 56.3661 21.7001 58.5512 23.9254C60.7357 26.1504 61.9073 29.0947 61.8501 32.2163C61.7362 38.4524 56.3793 43.5257 49.9087 43.5257H32.0001C31.4071 43.5257 30.9262 44.0064 30.9262 44.5996C30.9262 45.1927 31.407 45.6734 32.0001 45.6734H43.5258V50.3267C43.5258 53.4452 42.3001 56.3662 40.0747 58.5513C37.8498 60.7358 34.9036 61.9059 31.7838 61.8504C25.5478 61.7364 20.4745 56.3796 20.4745 49.9089V41.1634C20.4745 36.7029 24.1035 33.0739 28.564 33.0739H35.4365C41.0812 33.0739 45.6736 28.4816 45.6736 22.8368V13.6736C45.6736 9.97407 44.2196 6.50882 41.5795 3.91645C38.9398 1.32482 35.447 -0.0646798 31.7447 0.00244516C24.3461 0.137945 18.327 6.45819 18.327 14.0914V18.3267H13.6737C9.97423 18.3267 6.50898 19.7807 3.91661 22.4208C1.32498 25.0604 -0.0651413 28.5531 0.00260871 32.2556C0.138109 39.6542 6.45836 45.6733 14.0916 45.6733H14.819C15.412 45.6733 15.8929 45.1926 15.8929 44.5994C15.8929 44.0063 15.4121 43.5256 14.819 43.5256H14.0916C7.62098 43.5256 2.26411 38.4522 2.14998 32.2162C2.09298 29.0947 3.26461 26.1502 5.44911 23.9253C7.63436 21.6999 10.5554 20.4742 13.6737 20.4742H32.0003C32.5935 20.4742 33.0742 19.9934 33.0742 19.4003C33.0742 18.8073 32.5936 18.3264 32.0003 18.3264H20.4746V14.0912C20.4746 7.62057 25.548 2.2637 31.784 2.14957C34.9063 2.09357 37.8501 3.2642 40.0748 5.4487C42.3003 7.63395 43.526 10.5548 43.526 13.6733V22.8366C43.526 27.2971 39.897 30.9261 35.4365 30.9261H28.564C22.9192 30.9261 18.3268 35.5184 18.3268 41.1632V49.9087C18.3268 57.5421 24.346 63.8623 31.7445 63.9976C31.8308 63.9992 31.9166 63.9998 32.0026 63.9998C35.609 63.9998 39.0013 62.6147 41.5793 60.0836C44.2195 57.4912 45.6735 54.0262 45.6735 50.3264V45.6732H49.909C57.5421 45.6732 63.8623 39.6541 63.9977 32.2556C64.0653 28.5532 62.6753 25.0603 60.0838 22.4207Z" fill="black"/>
<path d="M26.2731 11.311C26.8661 11.311 27.3469 10.8302 27.3469 10.2371C27.3469 9.64396 26.8662 9.16321 26.2731 9.16321C24.4178 9.16321 22.9084 10.6726 22.9084 12.5278C22.9084 14.3831 24.4178 15.8925 26.2731 15.8925C28.1283 15.8925 29.6377 14.3831 29.6377 12.5278C29.6377 11.9348 29.1569 11.454 28.5638 11.454C27.9708 11.454 27.4899 11.9347 27.4899 12.5278C27.4899 13.199 26.9441 13.7448 26.2729 13.7448C25.6018 13.7448 25.0559 13.199 25.0559 12.5278C25.0561 11.8568 25.6021 11.311 26.2731 11.311Z" fill="black"/>
<path d="M37.7272 50.2552C38.3203 50.2552 38.801 49.7744 38.801 49.1813C38.801 48.5883 38.3204 48.1074 37.7272 48.1074C35.8719 48.1074 34.3625 49.6168 34.3625 51.472C34.3625 53.3273 35.8719 54.8367 37.7272 54.8367C39.5824 54.8367 41.0918 53.3273 41.0918 51.472C41.0918 50.879 40.6112 50.3982 40.0179 50.3982C39.4247 50.3982 38.944 50.8789 38.944 51.472C38.944 52.1432 38.3982 52.689 37.7271 52.689C37.0559 52.689 36.51 52.1432 36.51 51.472C36.5102 50.801 37.0563 50.2552 37.7272 50.2552Z" fill="black"/>
</g>
<path d="M4.40682 99V86.31H9.42882C10.7968 86.31 11.8408 86.64 12.5608 87.3C13.2928 87.96 13.6588 88.902 13.6588 90.126C13.6588 91.338 13.2928 92.28 12.5608 92.952C11.8408 93.612 10.7968 93.942 9.42882 93.942H5.88282V99H4.40682ZM5.88282 92.7H9.24882C11.2168 92.7 12.2008 91.842 12.2008 90.126C12.2008 88.398 11.2168 87.534 9.24882 87.534H5.88282V92.7ZM16.7574 102.24L18.2514 98.856L14.5614 90.252H16.1454L19.0434 97.344L21.9594 90.252H23.4894L18.2874 102.24H16.7574ZM28.8313 99.162C27.7993 99.162 27.0253 98.892 26.5093 98.352C25.9933 97.8 25.7353 97.008 25.7353 95.976V91.386H24.0253V90.252H25.7353V87.57H27.1933V90.252H29.9653V91.386H27.1933V95.832C27.1933 96.516 27.3373 97.038 27.6253 97.398C27.9133 97.746 28.3813 97.92 29.0293 97.92C29.2213 97.92 29.4133 97.896 29.6053 97.848C29.7973 97.8 29.9713 97.752 30.1273 97.704L30.3793 98.82C30.2233 98.904 29.9953 98.982 29.6953 99.054C29.3953 99.126 29.1073 99.162 28.8313 99.162ZM31.7643 99V86.31H33.2223V91.692C33.5103 91.164 33.9123 90.768 34.4283 90.504C34.9563 90.228 35.5443 90.09 36.1923 90.09C38.2683 90.09 39.3063 91.242 39.3063 93.546V99H37.8483V93.636C37.8483 92.82 37.6863 92.226 37.3623 91.854C37.0503 91.47 36.5463 91.278 35.8503 91.278C35.0463 91.278 34.4043 91.53 33.9243 92.034C33.4563 92.526 33.2223 93.186 33.2223 94.014V99H31.7643ZM45.7808 99.162C44.9288 99.162 44.1908 98.976 43.5668 98.604C42.9428 98.232 42.4568 97.71 42.1088 97.038C41.7728 96.354 41.6048 95.55 41.6048 94.626C41.6048 93.702 41.7728 92.904 42.1088 92.232C42.4568 91.548 42.9428 91.02 43.5668 90.648C44.1908 90.276 44.9288 90.09 45.7808 90.09C46.6208 90.09 47.3528 90.276 47.9768 90.648C48.6128 91.02 49.0988 91.548 49.4348 92.232C49.7828 92.904 49.9568 93.702 49.9568 94.626C49.9568 95.55 49.7828 96.354 49.4348 97.038C49.0988 97.71 48.6128 98.232 47.9768 98.604C47.3528 98.976 46.6208 99.162 45.7808 99.162ZM45.7808 97.992C46.5968 97.992 47.2508 97.704 47.7428 97.128C48.2348 96.54 48.4808 95.706 48.4808 94.626C48.4808 93.534 48.2348 92.7 47.7428 92.124C47.2508 91.548 46.5968 91.26 45.7808 91.26C44.9528 91.26 44.2928 91.548 43.8008 92.124C43.3208 92.7 43.0808 93.534 43.0808 94.626C43.0808 95.706 43.3208 96.54 43.8008 97.128C44.2928 97.704 44.9528 97.992 45.7808 97.992ZM52.2967 99V90.252H53.7187V91.746C54.0067 91.194 54.4147 90.78 54.9427 90.504C55.4707 90.228 56.0647 90.09 56.7247 90.09C58.8007 90.09 59.8387 91.242 59.8387 93.546V99H58.3807V93.636C58.3807 92.82 58.2187 92.226 57.8947 91.854C57.5827 91.47 57.0787 91.278 56.3827 91.278C55.5787 91.278 54.9367 91.53 54.4567 92.034C53.9887 92.526 53.7547 93.186 53.7547 94.014V99H52.2967Z" fill="#2E2E2E"/>
<defs>
<clipPath id="clip0_6834_2972">
<rect width="64" height="64" fill="white"/>
</clipPath>
</defs>
</svg>
