<svg width="128" height="107" viewBox="0 0 128 107" fill="none" xmlns="http://www.w3.org/2000/svg">
<path d="M63.9997 58.6668C49.2952 58.6668 37.333 46.7046 37.333 32.0002C37.333 17.2957 49.2952 5.3335 63.9997 5.3335C78.7041 5.3335 90.6663 17.2957 90.6663 32.0002C90.6663 46.7046 78.7041 58.6668 63.9997 58.6668ZM63.9997 10.6668C52.2367 10.6668 42.6663 20.2371 42.6663 32.0002C42.6663 43.7632 52.2367 53.3335 63.9997 53.3335C75.7627 53.3335 85.333 43.7632 85.333 32.0002C85.333 20.2371 75.7627 10.6668 63.9997 10.6668Z" fill="#DAE0FF"/>
<path d="M63.9998 58.6668C56.3983 58.6668 50.6665 47.2033 50.6665 32.0002C50.6665 16.797 56.3983 5.3335 63.9998 5.3335C71.6014 5.3335 77.3332 16.797 77.3332 32.0002C77.3332 47.2033 71.6014 58.6668 63.9998 58.6668ZM63.9998 10.6668C60.7381 10.6668 55.9998 18.978 55.9998 32.0002C55.9998 45.0223 60.7381 53.3335 63.9998 53.3335C67.2616 53.3335 71.9999 45.0223 71.9999 32.0002C71.9999 18.978 67.2616 10.6668 63.9998 10.6668Z" fill="#DAE0FF"/>
<path d="M57.333 16C59.5421 16 61.333 14.2091 61.333 12C61.333 9.79086 59.5421 8 57.333 8C55.1239 8 53.333 9.79086 53.333 12C53.333 14.2091 55.1239 16 57.333 16Z" fill="#B8C2FF"/>
<path d="M53.3332 32.0002C54.8059 32.0002 55.9998 30.8063 55.9998 29.3335C55.9998 27.8608 54.8059 26.6669 53.3332 26.6669C51.8604 26.6669 50.6665 27.8608 50.6665 29.3335C50.6665 30.8063 51.8604 32.0002 53.3332 32.0002Z" fill="#B8C2FF"/>
<path d="M74.6667 37.3333C76.1394 37.3333 77.3333 36.1394 77.3333 34.6667C77.3333 33.1939 76.1394 32 74.6667 32C73.1939 32 72 33.1939 72 34.6667C72 36.1394 73.1939 37.3333 74.6667 37.3333Z" fill="#B8C2FF"/>
<path d="M69.3332 56.0002C70.8059 56.0002 71.9998 54.8063 71.9998 53.3335C71.9998 51.8608 70.8059 50.6669 69.3332 50.6669C67.8604 50.6669 66.6665 51.8608 66.6665 53.3335C66.6665 54.8063 67.8604 56.0002 69.3332 56.0002Z" fill="#B8C2FF"/>
<path d="M63.9997 45.3336C48.7965 45.3336 37.333 39.6018 37.333 32.0002C37.333 24.3986 48.7965 18.6669 63.9997 18.6669C79.2028 18.6669 90.6663 24.3986 90.6663 32.0002C90.6663 39.6018 79.2028 45.3336 63.9997 45.3336ZM63.9997 24.0002C50.9775 24.0002 42.6663 28.7385 42.6663 32.0002C42.6663 35.2619 50.9775 40.0002 63.9997 40.0002C77.0218 40.0002 85.333 35.2619 85.333 32.0002C85.333 28.7385 77.0218 24.0002 63.9997 24.0002Z" fill="#DAE0FF"/>
<path d="M84 42.6669C86.2091 42.6669 88 40.876 88 38.6669C88 36.4577 86.2091 34.6669 84 34.6669C81.7909 34.6669 80 36.4577 80 38.6669C80 40.876 81.7909 42.6669 84 42.6669Z" fill="#B8C2FF"/>
<path d="M59.6654 22.3321C60.745 20.3953 61.3186 18.2174 61.3332 16.0001C61.3332 13.363 60.5512 10.7851 59.0861 8.59248C57.621 6.39983 55.5386 4.69086 53.1023 3.68169C50.6659 2.67253 47.9851 2.40848 45.3986 2.92295C42.8122 3.43742 40.4365 4.7073 38.5718 6.572C36.7071 8.4367 35.4372 10.8125 34.9227 13.3989C34.4082 15.9853 34.6723 18.6662 35.6814 21.1025C36.6906 23.5389 38.3996 25.6213 40.5922 27.0864C42.7849 28.5514 45.3628 29.3334 47.9998 29.3334C50.2173 29.3188 52.3951 28.7451 54.332 27.6655L54.8953 28.2288C55.2455 28.579 55.6612 28.8568 56.1188 29.0463C56.5763 29.2358 57.0667 29.3334 57.5619 29.3334C58.0572 29.3334 58.5476 29.2358 59.0051 29.0463C59.4626 28.8568 59.8784 28.579 60.2285 28.2288H60.2287C60.9359 27.5215 61.3332 26.5623 61.3332 25.5621C61.3332 24.5619 60.9359 23.6027 60.2287 22.8954L59.6654 22.3321Z" fill="#079CFF"/>
<path d="M47.9997 5.33342C45.1717 5.33665 42.4605 6.46149 40.4608 8.46118C38.4611 10.4609 37.3362 13.1721 37.333 16.0001L37.333 16.015V16.0162L37.333 16.0304L37.3331 16.0324L37.3331 16.0461L37.3331 16.0484L37.3332 16.0623L37.3332 16.0641L37.3333 16.0785L37.3333 16.0793L37.3334 16.0939L37.3334 16.0946L37.3336 16.1091L37.3336 16.1106L37.3337 16.1244L37.3337 16.1269L37.3339 16.1407L37.3339 16.1425L37.3341 16.1566L37.3342 16.1583L37.3344 16.1728V16.1731L37.3346 16.188L37.3346 16.1888L37.3349 16.2032L37.3349 16.2048L37.3352 16.2185L37.3353 16.2211L37.3355 16.2345L37.3356 16.2368L37.3359 16.2504L37.3359 16.2527L37.3363 16.2668V16.267L37.3367 16.2817L37.3367 16.2829L37.3371 16.2969L37.3371 16.299L37.3375 16.3125L37.3376 16.3151L37.338 16.3283L37.3381 16.3309L37.3385 16.3445L37.3385 16.3463L37.339 16.3601L37.339 16.3615L37.3395 16.3747L37.3396 16.377L37.34 16.3901L37.3401 16.3931L37.3406 16.4063L37.3407 16.4086L37.3412 16.4222L37.3413 16.4244L37.3419 16.4381L37.3419 16.44L37.3425 16.4535L37.3426 16.4546L37.3431 16.4686L37.3432 16.4704L37.3438 16.4841L37.3439 16.4864L37.3445 16.4996L37.3447 16.5024L37.3453 16.5156L37.3454 16.518L37.3461 16.5318L37.3461 16.5328C37.3466 16.5425 37.3471 16.5522 37.3476 16.5619L37.3477 16.5639L37.3484 16.5775L37.3486 16.5797L37.3493 16.5931L37.3494 16.5955L37.3502 16.6091L37.3503 16.6109L37.3511 16.625L37.3512 16.6261L37.352 16.6399L37.352 16.6411L37.3529 16.6551L37.353 16.657L37.3538 16.6707L37.354 16.6728L37.3548 16.6864L37.355 16.6885L37.3559 16.7023L37.356 16.7038L37.3569 16.7182L37.3569 16.7186L37.3579 16.7325L37.358 16.7343L37.3589 16.7475L37.3591 16.7503L37.36 16.7633L37.3602 16.766L37.3612 16.7792L37.3613 16.7814L37.3623 16.7952L37.3624 16.7965L37.3635 16.8108L37.3635 16.8112L37.3646 16.8256L37.3647 16.827L37.3658 16.8404L37.366 16.843L37.367 16.8563L37.3672 16.8586L37.3683 16.8718L37.3685 16.8743L37.3696 16.8879L37.3697 16.8888L37.3709 16.903L37.3709 16.9038L37.3721 16.9176L37.3723 16.9198L37.3734 16.9328L37.3737 16.9356L37.3748 16.9488L37.375 16.951L37.3762 16.9643L37.3764 16.9667L37.3776 16.9801L37.3778 16.9818L37.379 16.9944L37.3791 16.9965L37.3804 17.0099L37.3806 17.0121L37.3819 17.0253L37.3821 17.0279L37.3834 17.041L37.3836 17.0434L37.3849 17.0567L37.3851 17.0587L37.3865 17.0727V17.0728L37.388 17.0876L37.3881 17.0882L37.3895 17.1025L37.3897 17.104L37.3911 17.1176L37.3913 17.1198L37.3927 17.1331L37.393 17.1353L37.3944 17.1488L37.3946 17.1505L37.3961 17.1643L37.3962 17.1651L37.3977 17.1785L37.3979 17.1806L37.3994 17.1939L37.3996 17.1962L37.4011 17.2093L37.4014 17.2117L37.4029 17.2251L37.4031 17.227L37.4047 17.2404L37.4049 17.2426L37.4065 17.2558L37.4065 17.2565L37.4082 17.2701L37.4084 17.2724L37.41 17.2855L37.4103 17.2878L37.4119 17.3008L37.4122 17.3035L37.4138 17.3165L37.4141 17.3186L37.4157 17.3321L37.4159 17.3337L37.4176 17.3471L37.4177 17.3481L37.4195 17.3617L37.4197 17.3638L37.4214 17.3769L37.4218 17.3794L37.4234 17.3924L37.4238 17.3948L37.4255 17.408L37.4258 17.4098L37.4276 17.4236L37.4277 17.4246L37.4295 17.4379L37.4297 17.4395L37.4315 17.4527L37.4319 17.4551L37.4336 17.4682L37.434 17.4705L37.4358 17.4834L37.4361 17.486L37.438 17.4992L37.4382 17.5007L37.4402 17.5147L37.4403 17.5154L37.4422 17.5288L37.4425 17.5306L37.4444 17.5437L37.4447 17.5462L37.4467 17.5593L37.447 17.5614L37.4489 17.5744L37.4493 17.5769L37.4512 17.5901L37.4515 17.5916L37.4535 17.6051L37.4536 17.6058L37.4558 17.6202L37.4559 17.621L37.458 17.6348L37.4583 17.6366L37.4604 17.6499L37.4607 17.6521L37.4627 17.665L37.4632 17.6676L37.4652 17.6806L37.4655 17.6823L37.4676 17.6953L37.4678 17.6965L37.4699 17.7098L37.4703 17.7121L37.4723 17.7247L37.4728 17.7277L37.4749 17.7402L37.4753 17.7427L37.4774 17.7557L37.4777 17.7576L37.48 17.7711L37.4802 17.7725L37.4824 17.7852L37.4827 17.7869L37.4849 17.8L37.4853 17.8023L37.4875 17.8151L37.4879 17.8176L37.4901 17.8304L37.4906 17.8329L37.4928 17.8457L37.4932 17.848L37.4955 17.8612L37.4957 17.8623L37.498 17.8752L37.4983 17.8771L37.5007 17.8904L37.501 17.8922L37.5034 17.9051L37.5038 17.9077L37.5062 17.9204L37.5066 17.9228L37.509 17.9357L37.5094 17.9378L37.5118 17.9509L37.5119 17.9517L37.5143 17.9646L37.5148 17.967L37.5171 17.9797L37.5176 17.9822L37.52 17.9946L37.5206 17.9976L37.5229 18.01L37.5234 18.0125L37.5258 18.0253L37.5263 18.0274L37.5287 18.0398L37.529 18.0414L37.5314 18.054L37.532 18.0567L37.5344 18.0691L37.5349 18.0718L37.5374 18.0842L37.538 18.0871L37.5405 18.0995L37.5409 18.1019L37.5436 18.115L37.5438 18.1161L37.5465 18.1294L37.5467 18.1304L37.5494 18.1439L37.5498 18.1456L37.5525 18.1586L37.5529 18.1609L37.5556 18.1735L37.5561 18.1761L37.5587 18.1886L37.5592 18.1912L37.5619 18.2039L37.5623 18.2056L37.5649 18.2178L37.5653 18.2197L37.568 18.2324L37.5685 18.2349L37.5712 18.2475L37.5717 18.25L37.5745 18.2625L37.575 18.2649L37.5778 18.2779L37.5781 18.2793L37.5811 18.293L37.5812 18.2935L37.5841 18.3068L37.5845 18.3084L37.5873 18.321L37.5879 18.3238L37.5907 18.3361L37.5912 18.3387L37.5941 18.3512L37.5946 18.3536L37.5975 18.3665L37.5979 18.3679L37.6008 18.381L37.6011 18.382L37.6041 18.3953L37.6045 18.3969L37.6075 18.4097L37.6081 18.4122L37.6109 18.4244L37.6116 18.4274L37.6144 18.4394L37.6151 18.4424L37.618 18.4547L37.6184 18.4564L37.6214 18.4689L37.6217 18.4702L37.6248 18.4832L37.6253 18.4853L37.6282 18.4977L37.6289 18.5006L37.6319 18.5127L37.6325 18.5153L37.6355 18.5278L37.6361 18.5299L37.6393 18.5429L37.6395 18.5441L37.6426 18.5564L37.6431 18.5585L37.6462 18.5711L37.6468 18.5733L37.6499 18.5857L37.6505 18.5884L37.6536 18.6008L37.6542 18.6031L37.6574 18.6157L37.6579 18.6177L37.6612 18.6309L37.6613 18.6312L37.6647 18.6445L37.6651 18.646L37.6685 18.6592L37.6689 18.6607L37.6722 18.6734L37.6729 18.676L37.676 18.6883L37.6766 18.6906L37.6799 18.7032L37.6805 18.7053L37.6838 18.7179L37.684 18.7188L37.6874 18.7314L37.688 18.7337L37.6913 18.746L37.6919 18.7486L37.6952 18.7607L37.6959 18.7635L37.6992 18.7755L37.6999 18.7782L37.7032 18.7905L37.7037 18.7924L37.707 18.8043L37.7075 18.8062L37.7108 18.8184L37.7115 18.8209L37.7148 18.8328L37.7157 18.8359L37.7188 18.8475L37.7198 18.8507L37.723 18.8623L37.7238 18.8654L37.7272 18.8773L37.7278 18.8797L37.7309 18.8907L37.7316 18.8931L37.7349 18.9049L37.7358 18.9081L37.7392 18.9197L37.74 18.9227L37.7433 18.9343L37.7443 18.9376L37.7477 18.9494L37.7483 18.9517L37.752 18.9642L37.7524 18.9657L37.7559 18.978L37.7563 18.9794L37.76 18.9919L37.7607 18.9943L37.7642 19.0063L37.7651 19.0091L37.7685 19.0208L37.7694 19.0239L37.773 19.0359L37.7735 19.0378L37.7773 19.0502L37.7777 19.0517L37.7814 19.064L37.7819 19.0658L37.7857 19.0782L37.7864 19.0806L37.7901 19.0928L37.7908 19.0952L37.7946 19.1075L37.7951 19.1094L37.7991 19.1222L37.7995 19.1236L37.8034 19.1362L37.8036 19.1371L37.8077 19.1503L37.8081 19.1517L37.8121 19.1645L37.8127 19.1662L37.8166 19.179L37.8172 19.1807L37.8212 19.1933L37.8217 19.1952L37.8258 19.2081L37.8261 19.2091L37.8302 19.2219L37.8305 19.2229L37.8346 19.2357L37.8352 19.2376L37.839 19.2496L37.8399 19.2524L37.8438 19.2645L37.8444 19.2665L37.8485 19.2791L37.849 19.2806C37.8519 19.2895 37.8548 19.2984 37.8577 19.3073L37.858 19.3083L37.8622 19.3211L37.8628 19.3229L37.8668 19.335L37.8677 19.3377L37.8716 19.3495L37.8724 19.352L37.8764 19.3639L37.8772 19.3665L37.8811 19.3782L37.8817 19.38L37.8857 19.3917L37.8864 19.3938L37.8904 19.4059L37.8912 19.4082L37.8953 19.4202L37.8961 19.4227L37.9002 19.4347L37.901 19.4369L37.9052 19.4491L37.9058 19.4509L37.9101 19.4635L37.9102 19.4638L37.9146 19.4765L37.9153 19.4785L37.9195 19.4906L37.9203 19.4929L37.9244 19.5048L37.9253 19.5073L37.9295 19.5193L37.9302 19.5215L37.9346 19.5338L37.935 19.5351L37.9396 19.5481L37.9397 19.5483L37.9442 19.561L37.9449 19.5631L37.9492 19.5751L37.9501 19.5775L37.9542 19.589L37.9553 19.5921L37.9595 19.6038L37.9602 19.6057L37.9647 19.6181L37.9652 19.6195L37.9696 19.6317L37.97 19.6327L37.9745 19.6451L37.9752 19.6472L37.9797 19.6595L37.9803 19.6612L37.9849 19.6735L37.9856 19.6756L37.9901 19.6878L37.9908 19.6895L37.9954 19.7019L37.9959 19.7034L38.0004 19.7154L38.0009 19.7167L38.0054 19.729L38.0063 19.7312L38.0107 19.743L38.0116 19.7454L38.0161 19.7572L38.0169 19.7595L38.0215 19.7715L38.0221 19.7733L38.0268 19.7855L38.0272 19.7865L38.0317 19.7983L38.0325 19.8005L38.0369 19.8118L38.0381 19.815L38.0424 19.8262L38.0434 19.8289L38.0479 19.8404L38.0489 19.8429L38.0535 19.8549L38.0541 19.8563L38.0587 19.8683L38.0592 19.8696L38.0641 19.8819L38.0647 19.8836L38.0695 19.8958L38.0703 19.8977L38.0751 19.9099L38.0758 19.9116L38.0806 19.9238L38.0814 19.9258L38.0862 19.938L38.0867 19.9392L38.0915 19.9513L38.092 19.9524L38.097 19.9649L38.0976 19.9665L38.1024 19.9782L38.1034 19.9808L38.1081 19.9924L38.109 19.9947L38.1138 20.0066L38.1146 20.0084L38.1196 20.0206L38.12 20.0217L38.1248 20.0334L38.1256 20.0353L38.1304 20.0471L38.1313 20.0492L38.1362 20.061L38.1371 20.0632L38.142 20.0752L38.1427 20.0768L38.1479 20.0892L38.1483 20.0903C38.152 20.0991 38.1556 20.1077 38.1593 20.1166L38.1595 20.1171L38.1648 20.1296L38.1655 20.1312L38.1706 20.1433L38.1713 20.1451L38.1766 20.1575L38.177 20.1585L38.1825 20.1713L38.1828 20.1722C38.1865 20.1807 38.1902 20.1893 38.1938 20.1978L38.1945 20.1993L38.1997 20.2115L38.2004 20.2131L38.2056 20.225L38.2065 20.2271L38.2116 20.239L38.2124 20.2407L38.2176 20.2527L38.2183 20.2543C38.222 20.2628 38.2255 20.2709 38.2293 20.2793L38.23 20.2809L38.2352 20.2928L38.2361 20.2948L38.2412 20.3064L38.2422 20.3086L38.2475 20.3205L38.248 20.3217L38.2536 20.3343L38.2539 20.3349L38.2595 20.3475L38.2599 20.3482L38.2652 20.3602L38.2662 20.3623L38.2715 20.3741L38.2722 20.3758L38.2777 20.3878L38.2784 20.3894L38.284 20.4016L38.2845 20.4027L38.2902 20.4154L38.2904 20.4157L38.2961 20.4283L38.2965 20.4292L38.302 20.4412L38.3029 20.4431L38.3083 20.4547L38.3093 20.4568L38.3145 20.4681L38.3157 20.4707L38.3209 20.4821L38.3218 20.4838L38.3273 20.4958L38.3275 20.4961L38.3334 20.5088L38.3339 20.5098L38.3395 20.5217L38.3404 20.5237L38.3459 20.5354L38.3467 20.5371L38.3523 20.5489L38.3531 20.5506L38.3589 20.5628L38.3591 20.5633L38.365 20.5757L38.3654 20.5765L38.3713 20.5888L38.3719 20.59L38.3776 20.6019L38.3784 20.6037L38.3842 20.6157L38.3848 20.6169L38.3907 20.6291L38.3913 20.6304L38.3973 20.6427L38.3975 20.6432L38.4036 20.6557L38.4039 20.6563L38.4098 20.6683L38.4106 20.67L38.4161 20.6814L38.4174 20.6839L38.4227 20.6948L38.424 20.6974L38.4295 20.7085L38.4305 20.7105L38.4363 20.7222L38.4366 20.7229L38.4425 20.7348L38.4431 20.7359L38.449 20.7478L38.4499 20.7495L38.4557 20.7611L38.4566 20.7629L38.4624 20.7745L38.4633 20.7763L38.4691 20.7878L38.47 20.7896C38.4741 20.7978 38.4781 20.8057 38.4823 20.8139L38.4829 20.8152L38.489 20.8271L38.4897 20.8285L38.4957 20.8403L38.4965 20.8419L38.5027 20.8539L38.5031 20.8547L38.5095 20.867L38.5099 20.8679C38.5141 20.8761 38.5183 20.8842 38.5226 20.8923L38.5234 20.8941L38.5295 20.9057L38.5303 20.9072L38.5363 20.9188L38.5372 20.9206L38.5433 20.9321L38.5441 20.9337L38.5503 20.9456L38.5507 20.9463L38.5571 20.9584L38.5574 20.959L38.5638 20.9711L38.5644 20.9723L38.5705 20.9839L38.5716 20.9858L38.5776 20.9971L38.5786 20.999L38.5847 21.0104L38.5854 21.0118L38.5988 21.0367L38.5989 21.0369L38.6055 21.0492L38.6061 21.0502L38.6125 21.0622L38.6132 21.0633L38.6196 21.0753L38.6202 21.0764L38.6268 21.0884L38.6272 21.0892L38.634 21.1016L38.6341 21.1017L38.6408 21.114L38.6412 21.1148L38.6477 21.1265L38.6485 21.1281L38.6549 21.1397L38.6557 21.141L38.662 21.1525L38.663 21.1543L38.6694 21.1659L38.6698 21.1666C38.6745 21.1749 38.6791 21.1832 38.6837 21.1915L38.684 21.1919L38.6906 21.2037L38.6915 21.2053L38.6979 21.2168L38.6987 21.2182L38.7052 21.2298L38.706 21.2311L38.7127 21.243L38.7129 21.2434L38.7199 21.2556L38.7201 21.256L38.727 21.268L38.7275 21.2691L38.7342 21.2807L38.735 21.2821L38.7416 21.2936L38.7424 21.295L38.749 21.3066L38.7498 21.3078C38.7568 21.3201 38.7639 21.3324 38.771 21.3446L38.7716 21.3456L38.7783 21.357L38.7792 21.3586L38.7858 21.3699L38.7867 21.3715L38.7934 21.3829L38.7941 21.384C38.7987 21.392 38.8035 21.4 38.8081 21.4079L38.8088 21.409L38.8157 21.4206L38.8163 21.4218L38.8231 21.4332L38.824 21.4347L38.8307 21.446L38.8316 21.4475L38.8384 21.4588L38.8391 21.4601C38.8439 21.468 38.8485 21.4756 38.8532 21.4835L38.854 21.4848L38.8607 21.496L38.8618 21.4977L38.8683 21.5085L38.8696 21.5106L38.8762 21.5215L38.8771 21.5229L38.8841 21.5345L38.8844 21.535L38.8918 21.5472L38.8919 21.5472L38.899 21.5588L38.8998 21.5602L38.9068 21.5716L38.9075 21.5728L38.9145 21.5841L38.9155 21.5857L38.9223 21.5968L38.9232 21.5981L38.9303 21.6096L38.9306 21.6102L38.9381 21.6222L38.9381 21.6222L38.9457 21.6343L38.946 21.6349L38.9533 21.6465L38.954 21.6477L38.9611 21.6589L38.962 21.6604L38.9692 21.6718L38.9696 21.6725C38.9771 21.6844 38.9848 21.6965 38.9924 21.7084L38.9932 21.7098L39.0005 21.7211L39.0011 21.7221L39.0084 21.7335L39.0091 21.7346C39.0193 21.7506 39.0298 21.7669 39.0401 21.7828L39.0407 21.7837L39.0482 21.7952L39.0488 21.7961L39.0561 21.8074L39.0571 21.8089L39.0644 21.8201L39.0647 21.8206C39.0701 21.8288 39.0751 21.8364 39.0805 21.8446L39.0807 21.8449L39.0883 21.8565L39.0889 21.8575L39.0964 21.8689L39.0971 21.8698L39.1047 21.8813L39.1051 21.882L39.113 21.8938L39.113 21.8938L39.1289 21.9177L39.1294 21.9185L39.1371 21.9299L39.1377 21.9307L39.1453 21.9421L39.1459 21.943L39.1538 21.9547H39.1538C39.162 21.9669 39.1702 21.9789 39.1784 21.991L39.1786 21.9912L39.1865 22.0028L39.187 22.0036L39.195 22.0152L39.1951 22.0154C39.2089 22.0356 39.2225 22.0553 39.2365 22.0753L39.2369 22.0759L39.2449 22.0874L39.2454 22.0881L39.2533 22.0995L39.2538 22.1001L39.2703 22.1236L39.2703 22.1237L39.2786 22.1354L39.2789 22.1359L39.287 22.1473L39.2875 22.148C39.2987 22.1639 39.3096 22.1792 39.321 22.1951L39.3213 22.1956L39.3295 22.207L39.3299 22.2075L39.3382 22.219L39.3385 22.2194C39.3499 22.2353 39.361 22.2506 39.3725 22.2664L39.3728 22.2668L39.3811 22.2782L39.3815 22.2788L39.3895 22.2897L39.3905 22.2911L39.3985 22.302L39.3988 22.3024C39.4075 22.3142 39.4158 22.3254 39.4245 22.3372L39.4249 22.3377L39.4333 22.349L39.4336 22.3495L39.442 22.3608L39.4424 22.3613C39.4541 22.377 39.4654 22.3921 39.4772 22.4077L39.4775 22.4081L39.486 22.4194L39.4863 22.4198L39.4949 22.4311L39.4951 22.4314C39.5069 22.447 39.5184 22.4621 39.5303 22.4776L39.5306 22.478L39.5394 22.4894L39.5395 22.4895L39.5484 22.501L39.5484 22.5011C39.5603 22.5165 39.5721 22.5317 39.5841 22.5471L39.5844 22.5475L39.5932 22.5588L39.5933 22.5589L39.6022 22.5704L39.6023 22.5704C39.6114 22.582 39.6203 22.5934 39.6294 22.6049L39.6295 22.6049L39.6383 22.616L39.6388 22.6167L39.6476 22.6278V22.6278C39.6567 22.6393 39.6657 22.6505 39.6749 22.6619L39.6751 22.6622L39.684 22.6733L39.6843 22.6737L39.6932 22.6847L39.6936 22.6852L39.7025 22.6962L39.7026 22.6964C39.7149 22.7116 39.7271 22.7266 39.7394 22.7417L39.7395 22.7418L39.7486 22.7528L39.7489 22.7533C39.7675 22.7759 39.7859 22.7982 39.8047 22.8207L39.8047 22.8207C39.8172 22.8357 39.8296 22.8505 39.8422 22.8654L39.8424 22.8656L39.8516 22.8766L39.8518 22.8768L39.861 22.8877L39.8614 22.8881C39.874 22.903 39.8863 22.9174 39.8989 22.9322L39.8992 22.9326L39.9086 22.9434L39.9087 22.9436C39.9246 22.9621 39.9404 22.9803 39.9564 22.9987L39.9566 22.9989L39.9659 23.0096L39.9664 23.0101L39.9755 23.0206L39.976 23.0212C39.9887 23.0356 40.0016 23.0503 40.0143 23.0647L40.0145 23.0648C41.6915 24.9639 43.9903 26.2035 46.4985 26.5614C46.8452 26.6105 47.1982 26.5908 47.5373 26.5034C47.8765 26.416 48.195 26.2627 48.4749 26.0522C48.7548 25.8417 48.9904 25.5781 49.1684 25.2766C49.3464 24.975 49.4633 24.6413 49.5124 24.2946C49.5614 23.9478 49.5417 23.5948 49.4543 23.2557C49.3669 22.9166 49.2136 22.598 49.0031 22.3182C48.7926 22.0383 48.5291 21.8026 48.2275 21.6246C47.9259 21.4466 47.5923 21.3297 47.2455 21.2807C45.91 21.0898 44.6964 20.3999 43.8492 19.35C43.0021 18.3001 42.5842 16.9682 42.6798 15.6225C42.7754 14.2768 43.3774 13.0174 44.3646 12.0978C45.3517 11.1782 46.6506 10.6669 47.9997 10.6667C48.3133 10.6666 48.6263 10.6939 48.9351 10.7484C49.6314 10.8714 50.3481 10.7129 50.9275 10.3077C51.5069 9.90249 51.9017 9.28374 52.025 8.58752C52.1484 7.8913 51.9902 7.1746 51.5852 6.595C51.1802 6.01541 50.5616 5.62038 49.8654 5.49677C49.7755 5.48084 49.6852 5.46604 49.5945 5.45239L49.5944 5.45235C49.585 5.45095 49.5757 5.44956 49.5664 5.44818L49.5655 5.44806L49.5524 5.44612L49.5504 5.44584L49.5379 5.44401L49.5355 5.44366L49.5243 5.44205L49.5216 5.44167L49.5105 5.44008L49.5072 5.43961L49.4958 5.43801L49.492 5.43746L49.4809 5.43589L49.477 5.43536L49.4684 5.43416L49.4625 5.43335L49.454 5.43219L49.4485 5.43144L49.439 5.43015L49.4329 5.42932L49.4264 5.42845L49.4176 5.42727L49.4123 5.42657L49.4019 5.42519L49.3971 5.42456L49.3901 5.42364L49.3853 5.42302L49.3745 5.42162L49.3702 5.42107L49.359 5.41962L49.3548 5.41909L49.3402 5.41724L49.3396 5.41716L49.3313 5.41612H49.3313L49.3154 5.41415L49.3136 5.41393L49.2986 5.41209L49.2977 5.41197C49.2838 5.41026 49.2705 5.40867 49.2565 5.40703L49.2559 5.40697C49.0776 5.38595 48.8986 5.36941 48.7178 5.35732L48.7173 5.3573C48.7032 5.35635 48.6895 5.35547 48.6754 5.35458L48.6747 5.35454L48.6592 5.35358L48.6574 5.35345L48.6416 5.35252L48.6412 5.35248C48.633 5.35199 48.6247 5.3515 48.6166 5.35105L48.6142 5.35091L48.6002 5.35012L48.5978 5.34999L48.5829 5.34916L48.5816 5.3491L48.5735 5.34867L48.5715 5.34854L48.5578 5.34783L48.5538 5.34763L48.5426 5.34706L48.5377 5.34681L48.53 5.34642L48.5219 5.34602L48.5149 5.34569L48.5095 5.34543L48.4992 5.34496L48.4939 5.34471L48.4839 5.34424L48.4783 5.34399L48.4713 5.34368L48.4625 5.3433L48.4556 5.34301L48.4502 5.34279L48.4402 5.34236L48.4342 5.34212L48.4273 5.34185L48.4185 5.34151L48.4126 5.34128L48.4027 5.3409L48.3968 5.34067L48.3902 5.34045L48.3816 5.34014L48.3745 5.33988L48.369 5.3397L48.3591 5.33937L48.3531 5.33917L48.3429 5.33884L48.3383 5.3387L48.3299 5.33844L48.3239 5.33825L48.3146 5.33797L48.3099 5.33784L48.2992 5.33754L48.2942 5.3374L48.2835 5.33711L48.2797 5.33701L48.2698 5.33676L48.2663 5.33666L48.2548 5.33639L48.2506 5.33629L48.2393 5.33603L48.235 5.33595L48.2246 5.33572L48.2208 5.33564L48.2101 5.33544L48.207 5.33538L48.1948 5.33513L48.1916 5.33509L48.1793 5.33486L48.1765 5.33482L48.1643 5.33464L48.1632 5.33462L48.1501 5.33442L48.1476 5.33439L48.1349 5.33421L48.1322 5.33419L48.1196 5.33405L48.1172 5.33401L48.1051 5.33388L48.1035 5.33386L48.0908 5.33376L48.0878 5.33374L48.0751 5.33364L48.073 5.33362L48.0596 5.33354H48.0585L48.0457 5.33348L48.0438 5.33346L48.0307 5.33341H48.0283L48.0154 5.33339L48.0133 5.33337L47.9997 5.33342Z" fill="#5CBEFF"/>
<path d="M47.9998 2.66687H47.9891L47.9823 2.66689H47.9785L47.9684 2.66691H47.9679L47.9616 2.66693H47.957L47.9527 2.66695L47.9462 2.66697L47.9429 2.66699L47.9354 2.66703H47.9322L47.9249 2.66707L47.9205 2.66712L47.9141 2.66714L47.9096 2.66718L47.9034 2.66722L47.8993 2.66724L47.8927 2.6673L47.888 2.66734L47.8822 2.66738L47.8771 2.66742L47.8714 2.66748L47.8666 2.66752L47.8606 2.66758L47.8565 2.66762L47.8499 2.66771L47.8456 2.66775L47.8392 2.66783L47.8351 2.66787L47.8286 2.66795L47.8238 2.66801L47.8179 2.66809L47.8133 2.66815L47.8073 2.66823L47.8024 2.66832L47.7966 2.6684L47.7919 2.66846L47.7859 2.66856L47.781 2.66864L47.7753 2.66872L47.7707 2.6688L47.7643 2.66891L47.7601 2.66899L47.7537 2.66911L47.7496 2.66917L47.7432 2.6693L47.7382 2.6694L47.7328 2.6695L47.7276 2.6696L47.7219 2.66973L47.7171 2.66983L47.7111 2.66995L47.7067 2.67004L47.7004 2.67018L47.6959 2.67028L47.6897 2.67042L47.6855 2.67052L47.679 2.67067L47.6747 2.67077L47.6684 2.67093L47.6642 2.67103L47.6578 2.6712L47.6531 2.6713L47.6471 2.67146L47.6429 2.67156L47.6363 2.67174L47.6321 2.67187L47.6257 2.67203L47.6215 2.67216L47.6152 2.67234L47.6106 2.67246L47.6045 2.67265L47.6002 2.67277L47.5938 2.67296L47.5893 2.6731L47.5832 2.67328L47.579 2.67341L47.5722 2.67363L47.5684 2.67375L47.5614 2.67398L47.5579 2.67408L47.5506 2.67433L47.5473 2.67443L47.5396 2.6747L47.5369 2.6748L47.5294 2.67505L47.5258 2.67519L47.5186 2.67544L47.5155 2.67554L47.508 2.67583L47.5046 2.67595L47.4972 2.67622L47.4942 2.67634L47.4868 2.6766L47.4833 2.67675L47.4763 2.67701L47.4727 2.67715L47.466 2.67742L47.4619 2.67758L47.4547 2.67787L47.4517 2.67799L47.4441 2.6783L47.4408 2.67844L47.4337 2.67872L47.4302 2.67887L47.4232 2.67917L47.4195 2.67934L47.4114 2.67968L47.4093 2.67976L47.4012 2.68013L47.3984 2.68025L47.3903 2.68062L47.3879 2.68072L47.3798 2.68109L47.3772 2.68121L47.3674 2.68166L47.3669 2.68168L47.358 2.68211L47.356 2.68221L47.3355 2.68319L47.3349 2.68323L47.3151 2.6842L47.3135 2.68428C47.2709 2.68644 47.2285 2.6888 47.186 2.69136H47.1859C47.1718 2.69222 47.158 2.69307 47.1438 2.69397L47.1422 2.69407L47.1332 2.69464L47.1317 2.69474L47.1228 2.69531L47.1207 2.69545L47.1121 2.69602L47.1102 2.69615L47.1017 2.6967L47.0992 2.69688L47.0909 2.69743L47.0891 2.69755L47.0805 2.69814L47.0783 2.69829L47.0697 2.69888L47.0678 2.699L47.0597 2.69957L47.0563 2.69982L47.0489 2.70033L47.0462 2.70053L47.0386 2.70106L47.0354 2.70129L47.0276 2.70186L47.0255 2.702L47.0173 2.70259L47.0144 2.70281L47.0068 2.70336L47.0038 2.70359L46.9964 2.70414L46.9932 2.70439L46.9856 2.70496L46.9826 2.70518L46.9757 2.70569L46.9715 2.70601L46.9649 2.70652L46.9612 2.70681L46.9547 2.70732L46.9506 2.70764L46.9437 2.70817L46.9404 2.70843L46.9335 2.70896L46.9295 2.70929L46.923 2.7098L46.919 2.71012L46.9126 2.71065L46.9086 2.71096L46.9017 2.71153L46.8982 2.71181L46.8917 2.71234L46.8873 2.71271L46.881 2.71324L46.8771 2.71356L46.8702 2.71413L46.8668 2.71442L46.8593 2.71505L46.8565 2.7153L46.8493 2.71591L46.8456 2.71621L46.8386 2.71682L46.8353 2.71711L46.8281 2.71773L46.8248 2.71802L46.8178 2.71863L46.814 2.71897L46.8079 2.7195L46.8034 2.71991L46.7971 2.72046L46.793 2.72083L46.7867 2.7214L46.7826 2.72178L46.7762 2.72235L46.7719 2.72274L46.7666 2.72323L46.7612 2.72374L46.7558 2.72422L46.7509 2.72467L46.7452 2.7252L46.7405 2.72565L46.7349 2.72618L46.7298 2.72664L46.7253 2.72709L46.7192 2.72766L46.715 2.72807L46.7088 2.72866L46.7043 2.72909L46.6985 2.72966L46.6934 2.73014L46.688 2.73067L46.6837 2.7311L46.6774 2.73171L46.6738 2.73208L46.667 2.73275L46.663 2.73313L46.6567 2.73377L46.6524 2.73419L46.6461 2.73482L46.6438 2.73507L46.6251 2.73696L46.6244 2.73704L46.6147 2.73804L46.6145 2.73806C46.5179 2.74803 46.4217 2.75901 46.3259 2.77102L46.3258 2.77104C45.9968 2.81224 45.6717 2.86528 45.3505 2.93018C45.1787 2.96469 45.0155 3.03269 44.87 3.13032C44.7246 3.22794 44.5998 3.35327 44.5028 3.49913C44.4058 3.645 44.3385 3.80855 44.3048 3.98043C44.271 4.15232 44.2715 4.32917 44.3061 4.50088C44.3407 4.6726 44.4088 4.83581 44.5065 4.98118C44.6043 5.12656 44.7297 5.25126 44.8756 5.34815C45.0215 5.44505 45.1851 5.51223 45.357 5.54588C45.5289 5.57952 45.7058 5.57896 45.8775 5.54423C46.5762 5.40391 47.2871 5.33333 47.9998 5.33354C50.8278 5.33673 53.5391 6.46156 55.5388 8.46126C57.5385 10.461 58.6633 13.1722 58.6665 16.0002C58.6665 17.7184 58.2145 19.4199 57.3232 21.0573C57.048 21.5628 56.9438 22.1438 57.0261 22.7134C57.1083 23.2831 57.3727 23.8109 57.7797 24.2179L58.3429 24.7811C58.4458 24.8836 58.5275 25.0053 58.5833 25.1394C58.6391 25.2735 58.6679 25.4173 58.668 25.5625C58.6682 25.7078 58.6397 25.8516 58.5842 25.9858C58.5287 26.12 58.4473 26.242 58.3446 26.3447C58.2419 26.4474 58.1199 26.5289 57.9857 26.5844C57.8515 26.6399 57.7077 26.6684 57.5625 26.6683C57.4172 26.6681 57.2734 26.6394 57.1393 26.5836C57.0052 26.5278 56.8834 26.4461 56.7809 26.3432L56.2176 25.7799C55.8107 25.3729 55.2829 25.1085 54.7133 25.0262C54.1436 24.9439 53.5626 25.0482 53.0571 25.3234C51.6894 26.0864 50.1703 26.5387 48.6079 26.648C48.2622 26.6695 47.9385 26.8246 47.7052 27.0806C47.4719 27.3366 47.3473 27.6733 47.3579 28.0195C47.3685 28.3657 47.5134 28.6942 47.7619 28.9354C48.0104 29.1767 48.343 29.3118 48.6893 29.3121C48.7171 29.3121 48.7452 29.3113 48.7733 29.3095C50.6039 29.1859 52.3888 28.6832 54.0148 27.8334L54.0153 27.8331L54.035 27.823L54.0352 27.8228C54.0549 27.8127 54.0746 27.8025 54.0943 27.7922L54.0949 27.7919L54.1045 27.7869L54.1048 27.7867L54.1142 27.7818L54.1152 27.7813L54.1243 27.7765L54.1251 27.7761C54.141 27.7678 54.1571 27.7593 54.173 27.7509L54.1744 27.7502L54.1823 27.746L54.1847 27.7447L54.1919 27.7409L54.1953 27.739L54.2022 27.7354L54.2058 27.7335L54.2122 27.7301L54.2165 27.7278L54.2229 27.7244L54.2262 27.7226L54.2333 27.7188L54.2349 27.718L54.25 27.7099L54.2535 27.708L54.2595 27.7048L54.2637 27.7025L54.2696 27.6993L54.2745 27.6967L54.28 27.6937L54.2848 27.6911L54.2903 27.6882L54.2957 27.6853L54.3008 27.6825L54.306 27.6797L54.3113 27.6768L54.3174 27.6735L54.3216 27.6712L54.332 27.6656L54.8953 28.2289C55.2455 28.5791 55.6612 28.8569 56.1188 29.0464C56.5763 29.2359 57.0667 29.3335 57.562 29.3335C58.0572 29.3335 58.5476 29.2359 59.0052 29.0464C59.4627 28.8569 59.8785 28.5791 60.2286 28.2289C60.5788 27.8787 60.8566 27.463 61.0461 27.0054C61.2357 26.5479 61.3332 26.0575 61.3332 25.5622C61.3332 25.067 61.2357 24.5766 61.0461 24.119C60.8566 23.6615 60.5788 23.2457 60.2286 22.8955L59.6653 22.3322C60.7449 20.3954 61.3186 18.2176 61.3332 16.0002C61.3331 12.464 59.9284 9.07261 57.4279 6.57213C54.9274 4.07165 51.536 2.66688 47.9998 2.66687Z" fill="#0784FF"/>
<path d="M79.9998 34.6669C77.7824 34.6815 75.6045 35.2551 73.6676 36.3347L73.1043 35.7714C72.3971 35.0642 71.4379 34.6669 70.4377 34.6669C69.4376 34.6669 68.4784 35.0642 67.7712 35.7714H67.771C67.0638 36.4786 66.6665 37.4378 66.6665 38.438C66.6665 39.4382 67.0638 40.3974 67.771 41.1047L68.3343 41.668C67.2547 43.6049 66.6811 45.7828 66.6665 48.0002C66.6665 50.6373 67.4485 53.2152 68.9136 55.4078C70.3787 57.6005 72.461 59.3094 74.8974 60.3186C77.3337 61.3278 80.0146 61.5918 82.601 61.0773C85.1875 60.5629 87.5632 59.293 89.4279 57.4283C91.2926 55.5636 92.5625 53.1878 93.077 50.6014C93.5914 48.015 93.3274 45.3341 92.3182 42.8978C91.3091 40.4614 89.6001 38.379 87.4074 36.9139C85.2148 35.4489 82.6369 34.6669 79.9998 34.6669Z" fill="#FFBE00"/>
<path d="M79.8128 53.3301C78.435 53.2715 77.1324 52.6855 76.1745 51.6935C75.2166 50.7014 74.6767 49.3791 74.6665 48C74.6665 47.1713 74.8935 46.3513 75.3614 45.4922L76.1123 44.1125L77.4931 43.361C78.351 42.8938 79.171 42.6667 79.9998 42.6667C80.707 42.6667 81.3853 42.3858 81.8854 41.8857C82.3855 41.3856 82.6665 40.7073 82.6665 40C82.6665 39.2928 82.3855 38.6145 81.8854 38.1144C81.3853 37.6143 80.707 37.3334 79.9998 37.3334C78.281 37.3334 76.5805 37.7852 74.9425 38.6771L73.1912 39.6302L71.2185 37.6563C71.0113 37.4494 70.7305 37.3332 70.4376 37.3333C70.1448 37.3333 69.864 37.4496 69.6569 37.6566C69.4497 37.8636 69.3333 38.1444 69.333 38.4372C69.3328 38.73 69.4488 39.011 69.6556 39.2183L69.656 39.2188L71.63 41.1914L70.6769 42.9427C69.7849 44.5808 69.3331 46.2813 69.3331 48V48.0341C69.3331 48.0393 69.3333 48.0445 69.3333 48.0498V48.0679C69.3335 48.0731 69.3335 48.0782 69.3335 48.0834V48.0848C69.3335 48.09 69.3336 48.0948 69.3336 48.1V48.1018C69.3336 48.1066 69.3338 48.1119 69.3338 48.1167V48.1187C69.3338 48.1236 69.3339 48.1286 69.3339 48.1337V48.1356C69.3341 48.1405 69.3341 48.1457 69.3341 48.1506L69.3343 48.1524C69.3343 48.1573 69.3343 48.1623 69.3344 48.1672V48.1693C69.3346 48.1742 69.3346 48.1791 69.3348 48.184V48.1862C69.3348 48.1913 69.3349 48.1958 69.3349 48.2007L69.3351 48.2032C69.3351 48.208 69.3352 48.2128 69.3352 48.2176L69.3354 48.2201C69.3354 48.225 69.3356 48.2295 69.3357 48.2344V48.237C69.3359 48.2419 69.3359 48.2465 69.3361 48.2513V48.2536C69.3362 48.2587 69.3364 48.2632 69.3364 48.2681L69.3365 48.2705C69.3367 48.2754 69.3367 48.2801 69.3369 48.285V48.2871L69.3374 48.3018V48.3041L69.3378 48.3187V48.3205L69.3383 48.3357V48.3373L69.3388 48.3524L69.339 48.3539L69.3395 48.3693V48.3705L69.34 48.3859L69.3401 48.3872L69.3406 48.4024V48.4037C69.3408 48.4086 69.3411 48.4143 69.3413 48.4191V48.4201C69.3414 48.4253 69.3418 48.4302 69.3419 48.4354V48.437C69.3422 48.4423 69.3424 48.4468 69.3426 48.452L69.3427 48.4538L69.3432 48.4685L69.3434 48.4706C69.3435 48.4755 69.3439 48.4807 69.344 48.4855L69.3442 48.4872C69.3444 48.4921 69.3445 48.4971 69.3448 48.502V48.5041C69.3452 48.509 69.3453 48.5139 69.3457 48.5187V48.5207C69.346 48.5256 69.3461 48.5305 69.3465 48.5353V48.5375C69.3468 48.5423 69.347 48.5474 69.3473 48.5523V48.5541C69.3476 48.5589 69.3478 48.5638 69.3481 48.5686L69.3483 48.5712C69.3484 48.576 69.3488 48.5804 69.3489 48.5853C69.3491 48.5862 69.3491 48.5871 69.3491 48.5879C69.3494 48.5928 69.3496 48.597 69.3499 48.6019L69.3501 48.6047C69.3504 48.6096 69.3505 48.614 69.3509 48.6187L69.351 48.6211C69.3514 48.626 69.3515 48.6306 69.3518 48.6355L69.352 48.6379C69.3523 48.6428 69.3525 48.6472 69.3528 48.6521L69.353 48.6545C69.3533 48.6594 69.3536 48.6639 69.3538 48.6688L69.354 48.6711L69.3549 48.6856L69.3551 48.6877C69.3554 48.6924 69.3558 48.6973 69.3559 48.7022L69.3561 48.7043L69.3571 48.7189L69.3572 48.7206L69.3582 48.7355L69.3584 48.7375L69.3593 48.7525L69.3595 48.7534C69.3598 48.7587 69.3601 48.7639 69.3606 48.7689V48.7701C69.361 48.7753 69.3614 48.7806 69.3618 48.7858V48.7862C69.3623 48.7915 69.3626 48.7964 69.3629 48.802L69.3631 48.8026C69.3634 48.8081 69.3639 48.8133 69.3642 48.8189V48.819C69.3647 48.8243 69.365 48.8293 69.3655 48.8345V48.836C69.366 48.8412 69.3663 48.8461 69.3668 48.8511V48.8524C69.3673 48.8576 69.3676 48.862 69.3681 48.8672L69.3683 48.8693C69.3686 48.8741 69.3691 48.8793 69.3694 48.8841L69.3696 48.8856C69.3699 48.8905 69.3704 48.8955 69.3707 48.9003L69.3709 48.9025C69.3714 48.9073 69.3717 48.9118 69.3722 48.9167L69.3724 48.9191C69.3728 48.9239 69.3732 48.9284 69.3737 48.9331L69.3738 48.9357C69.3741 48.9405 69.3746 48.9452 69.3751 48.9499L69.3753 48.9522C69.3756 48.9569 69.3761 48.9615 69.3766 48.9663L69.3767 48.9688C69.3772 48.9737 69.3776 48.9782 69.378 48.9829L69.3782 48.9852C69.3787 48.9899 69.379 48.9945 69.3795 48.9994L69.3798 49.0018C69.3802 49.0067 69.3807 49.0113 69.3811 49.0161L69.3813 49.0181L69.3828 49.0326L69.3829 49.0349C69.3834 49.0396 69.3839 49.0443 69.3842 49.049L69.3846 49.0513C69.385 49.056 69.3854 49.0607 69.3859 49.0655L69.3862 49.0679L69.3877 49.0822L69.3878 49.084C69.3883 49.0887 69.3888 49.0939 69.3893 49.0988L69.3894 49.1003C69.3899 49.1055 69.3904 49.1102 69.3911 49.1153V49.1166C69.3917 49.1215 69.3922 49.1268 69.3927 49.1315L69.3929 49.1335C69.3935 49.1385 69.394 49.1429 69.3945 49.1481L69.3946 49.1496C69.3951 49.1548 69.3958 49.1595 69.3963 49.1646L69.3964 49.1659C69.3969 49.1709 69.3976 49.1758 69.3981 49.181L69.3982 49.182C69.3987 49.1869 69.3994 49.1921 69.3998 49.1968L69.4 49.1984C69.4005 49.2032 69.4011 49.2087 69.4016 49.2136L69.4018 49.2144C69.4024 49.2194 69.4029 49.2246 69.4036 49.2299L69.4037 49.2308C69.4042 49.236 69.4049 49.2406 69.4054 49.2458L69.4057 49.2474C69.4062 49.2521 69.4068 49.2572 69.4073 49.2619L69.4075 49.264C69.4081 49.2687 69.4088 49.2738 69.4093 49.2785L69.4094 49.2803C69.4101 49.285 69.4107 49.2901 69.4112 49.295L69.4116 49.2967C69.412 49.3015 69.4127 49.3063 69.4132 49.3111L69.4135 49.3132C69.4142 49.3179 69.4146 49.3223 69.4153 49.3272L69.4156 49.3298C69.4161 49.3347 69.4168 49.3389 69.4172 49.3436L69.4176 49.3461C69.4182 49.3508 69.4187 49.3553 69.4194 49.3601L69.4197 49.3623C69.4203 49.3671 69.4208 49.3716 69.4215 49.3765L69.4218 49.3788C69.4225 49.3835 69.4229 49.3879 69.4236 49.3926L69.4239 49.3952L69.4259 49.4092L69.426 49.4112L69.428 49.4255L69.4283 49.4278C69.429 49.4325 69.4295 49.437 69.4301 49.4418L69.4304 49.4442L69.4324 49.458L69.4327 49.4605L69.4347 49.4747L69.435 49.4763C69.4356 49.481 69.4363 49.4862 69.4369 49.4909L69.4371 49.4925C69.4379 49.4976 69.4386 49.5023 69.4392 49.5074L69.4394 49.5085L69.4415 49.5235L69.4418 49.5253C69.4425 49.5303 69.4431 49.5347 69.4439 49.5399L69.4441 49.5412C69.4449 49.5463 69.4456 49.5511 69.4464 49.5562V49.557C69.4472 49.5617 69.448 49.5673 69.4487 49.572L69.4488 49.5734C69.4496 49.5782 69.4503 49.583 69.4509 49.5878L69.4513 49.5894C69.4521 49.5944 69.4527 49.5992 69.4535 49.6044L69.4537 49.6053C69.4544 49.6104 69.4552 49.6154 69.456 49.6205L69.4561 49.6216C69.457 49.6267 69.4576 49.6315 69.4584 49.6366L69.4586 49.6379L69.4609 49.6524L69.4612 49.6543C69.462 49.6591 69.4627 49.6636 69.4635 49.6683L69.4638 49.6706C69.4644 49.6753 69.4653 49.6797 69.4659 49.6844L69.4664 49.6867C69.4671 49.6914 69.4679 49.696 69.4685 49.7007L69.469 49.703C69.4697 49.7077 69.4703 49.712 69.4711 49.7167L69.4716 49.7193C69.4723 49.724 69.4731 49.7284 69.4739 49.7331L69.4742 49.7354C69.475 49.7401 69.4757 49.7447 69.4765 49.7494L69.4768 49.7515C69.4776 49.7562 69.4784 49.7606 69.4791 49.7653L69.4796 49.7678L69.4819 49.7813L69.4823 49.7842L69.4846 49.7976L69.4851 49.8002C69.4859 49.8049 69.4866 49.8091 69.4874 49.8137L69.4879 49.8163C69.4887 49.821 69.4893 49.8252 69.4902 49.83L69.4907 49.8326C69.4913 49.837 69.4923 49.8417 69.4929 49.8461L69.4934 49.8487C69.4942 49.8531 69.495 49.858 69.4959 49.8623L69.4962 49.8645C69.497 49.8692 69.4978 49.8737 69.4988 49.8785L69.4991 49.8806C69.4999 49.8855 69.5007 49.8899 69.5017 49.8949L69.5019 49.8962C69.5029 49.9011 69.5037 49.9058 69.5045 49.9109L69.5048 49.9123C69.5058 49.9174 69.5066 49.9221 69.5076 49.9271L69.5077 49.9281C69.5086 49.9331 69.5095 49.9382 69.5105 49.9431L69.5107 49.9441C69.5115 49.9489 69.5126 49.9545 69.5134 49.9594L69.5164 49.9745L69.5165 49.9758C69.5175 49.9808 69.5183 49.9854 69.5193 49.9904L69.5196 49.9919C69.5206 49.9968 69.5212 50.001 69.5222 50.0061L69.5227 50.008C69.5235 50.0127 69.5245 50.0176 69.5253 50.0222L69.5258 50.024C69.5266 50.0284 69.5276 50.0334 69.5284 50.0376L69.5289 50.0404C69.5297 50.0448 69.5307 50.0495 69.5315 50.0538L69.532 50.0564C69.5328 50.0606 69.5338 50.0653 69.5346 50.0697L69.5352 50.0725C69.5361 50.077 69.5369 50.0811 69.5379 50.0858L69.5383 50.0884C69.5392 50.0927 69.5401 50.097 69.5409 50.1014L69.5416 50.1047C69.5424 50.1089 69.5434 50.1133 69.5442 50.1176L69.5448 50.1205C69.5457 50.125 69.5465 50.1291 69.5475 50.1337L69.5479 50.1363C69.5489 50.141 69.5499 50.1454 69.5509 50.1499L69.5512 50.1522C69.5522 50.1568 69.5531 50.161 69.5541 50.1657L69.5546 50.1683C69.5556 50.1729 69.5564 50.1771 69.5574 50.1817L69.5579 50.1843C69.5588 50.1888 69.5597 50.1929 69.5606 50.1976L69.5613 50.2002C69.5623 50.2048 69.5631 50.209 69.5641 50.2137L69.5645 50.2159C69.5655 50.2206 69.5665 50.2248 69.5675 50.2295L69.568 50.2321C69.5689 50.2364 69.5699 50.2413 69.5709 50.2455L69.5714 50.2478L69.5743 50.2616L69.5748 50.2632C69.5758 50.2683 69.5768 50.2728 69.5779 50.2777L69.5781 50.2788C69.5792 50.2837 69.5802 50.2884 69.5813 50.2933L69.5816 50.295L69.5849 50.3094L69.585 50.3106C69.5862 50.3155 69.5873 50.3202 69.5883 50.3252L69.5886 50.3264C69.5898 50.3312 69.5909 50.3363 69.592 50.3413C69.593 50.3464 69.5942 50.3513 69.5953 50.3562L69.5956 50.3575L69.599 50.3724L69.5992 50.3732L69.6026 50.3881L69.6028 50.389L69.6062 50.404L69.6065 50.4048L69.6098 50.419L69.6103 50.4211C69.6112 50.4257 69.6124 50.4304 69.6135 50.4351L69.6138 50.4367C69.615 50.4413 69.6161 50.446 69.6171 50.4506L69.6176 50.4527C69.6187 50.4572 69.6198 50.4619 69.621 50.4667L69.6213 50.4683C69.6225 50.4729 69.6234 50.4774 69.6246 50.482L69.6252 50.4844C69.6262 50.489 69.6273 50.4934 69.6285 50.4979L69.629 50.5C69.6299 50.5046 69.6311 50.5088 69.6322 50.5135L69.6327 50.516C69.6338 50.5205 69.635 50.5248 69.6359 50.5295L69.6366 50.5314C69.6376 50.536 69.6387 50.5404 69.6398 50.545L69.6405 50.5476L69.6437 50.5607L69.6442 50.5632C69.6454 50.5677 69.6465 50.5718 69.6477 50.5764L69.6483 50.579C69.6493 50.5832 69.6506 50.5881 69.6516 50.5923L69.652 50.5944C69.6532 50.599 69.6543 50.6032 69.6555 50.6078L69.6561 50.6105C69.6573 50.6148 69.6584 50.6195 69.6595 50.6237L69.66 50.6258L69.6634 50.6395L69.6639 50.6415L69.6677 50.6555L69.6678 50.6566C69.6691 50.6615 69.6704 50.6662 69.6716 50.6711L69.6719 50.6724C69.6732 50.6773 69.6745 50.682 69.6756 50.6869L69.676 50.6875C69.6771 50.6924 69.6786 50.6975 69.6797 50.7023L69.68 50.7033C69.6813 50.7082 69.6826 50.7131 69.6838 50.7178L69.684 50.7185C69.6853 50.7232 69.6866 50.7279 69.6879 50.7328L69.6882 50.7342L69.6919 50.7481L69.6924 50.75C69.6936 50.7546 69.6949 50.7592 69.696 50.7637L69.6967 50.7657C69.6978 50.7702 69.6991 50.7749 69.7002 50.7795L69.7007 50.7811C69.702 50.7857 69.7032 50.7902 69.7045 50.7948L69.705 50.7969C69.7063 50.8015 69.7074 50.8057 69.7087 50.8103L69.7093 50.8125L69.7129 50.8257C69.7132 50.8266 69.7135 50.8274 69.7136 50.8283C69.7147 50.8324 69.716 50.8369 69.7172 50.8412L69.718 50.8439C69.7191 50.848 69.7203 50.8524 69.7214 50.8566L69.7224 50.8596C69.7235 50.8641 69.7246 50.8679 69.7258 50.8723L69.7267 50.875C69.728 50.8796 69.729 50.8833 69.7303 50.8879L69.7311 50.8905C69.7324 50.8951 69.7335 50.8991 69.7347 50.9035L69.7355 50.906C69.7366 50.9105 69.7379 50.9146 69.7391 50.9191L69.7399 50.9216C69.7412 50.9261 69.7423 50.93 69.7436 50.9344L69.7443 50.9372C69.7456 50.9413 69.7469 50.9458 69.748 50.9501L69.7488 50.9527C69.75 50.9569 69.7513 50.9615 69.7526 50.9655L69.7532 50.9681C69.7545 50.9724 69.7558 50.9768 69.757 50.981L69.7578 50.9838C69.7591 50.988 69.7604 50.9925 69.7615 50.9966L69.7622 50.9989C69.7635 51.0031 69.7649 51.0078 69.7661 51.0121L69.7669 51.0145C69.768 51.0188 69.7695 51.0235 69.7706 51.0275L69.7713 51.0298L69.7754 51.0432L69.7758 51.045C69.7771 51.0495 69.7786 51.0541 69.7799 51.0586L69.7804 51.0604C69.7819 51.0648 69.7832 51.0692 69.7845 51.0738L69.785 51.0754C69.7863 51.0798 69.7877 51.0843 69.789 51.0887L69.7895 51.0905C69.791 51.0951 69.7923 51.0993 69.7936 51.1039L69.7942 51.1057C69.7955 51.1102 69.797 51.1149 69.7983 51.1193L69.7988 51.121C69.8003 51.1258 69.8016 51.1298 69.803 51.1346L69.8037 51.1364C69.805 51.141 69.8064 51.1455 69.8077 51.1501L69.8084 51.1517C69.8097 51.1563 69.8112 51.1608 69.8125 51.1652L69.8131 51.1672C69.8146 51.1717 69.8159 51.1761 69.8173 51.1805L69.818 51.1826C69.8193 51.187 69.8208 51.1914 69.8221 51.1958L69.8227 51.1979C69.8242 51.2025 69.8255 51.2067 69.827 51.2111L69.8276 51.2134C69.8291 51.2178 69.8304 51.2219 69.8317 51.2263L69.8325 51.2289C69.8339 51.2333 69.8353 51.2372 69.8367 51.2417L69.8374 51.2442L69.8416 51.257L69.8424 51.2595C69.8437 51.2639 69.845 51.2679 69.8465 51.2725L69.8473 51.2746C69.8488 51.2792 69.8501 51.2832 69.8515 51.2876L69.8522 51.2901C69.8536 51.2945 69.8551 51.2987 69.8564 51.3031L69.8572 51.3052C69.8585 51.3096 69.86 51.3138 69.8615 51.3184L69.8621 51.3205L69.8665 51.3335L69.8673 51.336C69.8686 51.34 69.8701 51.3446 69.8715 51.3487L69.8722 51.3511C69.8737 51.3555 69.8751 51.3597 69.8766 51.3643L69.8772 51.3659C69.8787 51.3703 69.8802 51.375 69.8816 51.3794L69.8823 51.3812L69.8868 51.3947L69.8873 51.3963L69.8921 51.41L69.8924 51.4112L69.8973 51.4255L69.8974 51.4258C69.899 51.4309 69.9005 51.4352 69.9023 51.4403L69.9026 51.4411C69.9041 51.4457 69.9059 51.4509 69.9074 51.4553L69.9077 51.4561L69.9124 51.4699L69.913 51.4714L69.9178 51.4852L69.9183 51.4864C69.9199 51.4911 69.9212 51.4951 69.9228 51.4999L69.9235 51.5018C69.9251 51.5062 69.9266 51.5106 69.9282 51.515L69.9288 51.517C69.9303 51.5213 69.9319 51.5256 69.9334 51.53L69.9342 51.5321C69.9357 51.5365 69.9373 51.541 69.9389 51.5454L69.9394 51.5471C69.941 51.5515 69.9425 51.5559 69.9441 51.5602L69.9448 51.5624C69.9464 51.5668 69.9479 51.5708 69.9493 51.5752L69.9503 51.5777L69.9547 51.59L69.9557 51.593C69.9573 51.5974 69.9586 51.6011 69.9603 51.6055L69.9611 51.6078C69.9627 51.612 69.9642 51.6161 69.9656 51.6205L69.9666 51.6227C69.9681 51.6271 69.9697 51.6314 69.9712 51.6358L69.972 51.6376C69.9734 51.642 69.9751 51.6464 69.9767 51.6507L69.9775 51.6529C69.979 51.6571 69.9808 51.6616 69.9822 51.666L69.9829 51.6673C69.9843 51.6717 69.9861 51.6765 69.9878 51.6809L69.9884 51.6826L69.9933 51.696L69.9939 51.6975L69.9988 51.7108L69.9996 51.7128C70.0013 51.7172 70.0029 51.7217 70.0045 51.7259L70.005 51.7274C70.0066 51.7318 70.0084 51.7364 70.0101 51.7407L70.0109 51.7427C70.0125 51.7474 70.014 51.7512 70.0158 51.7559L70.0162 51.7574C70.018 51.7619 70.0197 51.7661 70.0214 51.7709L70.0219 51.7723C70.0237 51.7769 70.0254 51.7813 70.0271 51.786L70.0275 51.7866C70.0291 51.791 70.031 51.7961 70.0327 51.8005L70.0332 51.8016C70.0348 51.8059 70.0367 51.8109 70.0384 51.8153L70.0387 51.8161C70.0405 51.8208 70.0421 51.8249 70.0439 51.8296L70.0446 51.8312C70.0462 51.8356 70.048 51.8402 70.0496 51.8446L70.0503 51.8461C70.052 51.8508 70.0537 51.8547 70.0555 51.8594L70.0561 51.861C70.0577 51.8654 70.0595 51.87 70.0613 51.8744L70.0618 51.8758C70.0636 51.8802 70.0652 51.8846 70.067 51.8889L70.0678 51.891C70.0695 51.8952 70.0713 51.8998 70.073 51.9042L70.0735 51.9056C70.0752 51.9099 70.0771 51.9144 70.0787 51.9186L70.0796 51.9206C70.0812 51.925 70.083 51.9292 70.0846 51.9336L70.0854 51.9354C70.087 51.9398 70.0887 51.9437 70.0905 51.9481L70.0914 51.9505C70.0931 51.9548 70.0947 51.9588 70.0965 51.9631L70.0973 51.9652C70.0989 51.9694 70.1005 51.9733 70.1023 51.9777L70.1033 51.9802C70.1051 51.9846 70.1066 51.9883 70.1084 51.9925L70.1093 51.995C70.111 51.9992 70.1126 52.0031 70.1144 52.0074L70.1154 52.0098C70.1172 52.014 70.1186 52.0179 70.1204 52.0222L70.1212 52.0243L70.1264 52.037L70.1274 52.0394C70.129 52.0433 70.1308 52.0479 70.1326 52.0518L70.1334 52.0539C70.1352 52.0583 70.1368 52.0621 70.1385 52.0663L70.1396 52.0691L70.1448 52.0814L70.1455 52.0831C70.1474 52.0876 70.1491 52.0917 70.151 52.0962L70.1515 52.0975C70.1534 52.1021 70.1552 52.1067 70.1572 52.1112L70.1575 52.1119C70.1595 52.1167 70.1613 52.121 70.1634 52.1259L70.1637 52.1267C70.1697 52.141 70.1759 52.1555 70.1819 52.1696L70.1821 52.17C70.184 52.1747 70.1862 52.1794 70.1881 52.184L70.1884 52.1848L70.1945 52.1988L70.1946 52.1994C70.1966 52.204 70.1987 52.2086 70.2006 52.2131L70.201 52.2141C70.2029 52.2186 70.2049 52.223 70.2068 52.2276L70.2073 52.2287C70.2093 52.2333 70.2111 52.2375 70.2132 52.2421L70.2137 52.2435C70.2156 52.2478 70.2176 52.2523 70.2194 52.2566L70.2202 52.258C70.222 52.2623 70.2241 52.267 70.2259 52.2712L70.2265 52.2725C70.2283 52.2769 70.2303 52.2813 70.2322 52.2855L70.2329 52.2873C70.2348 52.2916 70.2366 52.2956 70.2386 52.2999L70.2395 52.3021C70.2413 52.3064 70.2431 52.3104 70.2451 52.3147L70.2459 52.3165C70.2477 52.3207 70.2496 52.3251 70.2516 52.3293L70.2522 52.3309C70.2542 52.3352 70.2561 52.3396 70.2581 52.3438L70.2588 52.3454C70.2607 52.3497 70.2627 52.3541 70.2645 52.3583L70.2653 52.3601C70.2672 52.3643 70.2693 52.3689 70.2711 52.3731L70.2716 52.3742C70.2736 52.3785 70.2758 52.3834 70.2776 52.3874L70.2783 52.3887L70.2843 52.4019L70.2848 52.4032L70.2908 52.4164L70.2915 52.4179C70.2936 52.4222 70.2955 52.4265 70.2975 52.431L70.298 52.4319C70.2999 52.4364 70.302 52.441 70.3042 52.4455L70.3045 52.4462C70.3066 52.4506 70.3089 52.4555 70.3108 52.46L70.311 52.4603C70.3133 52.4651 70.3154 52.4696 70.3175 52.4743L70.3177 52.4748C70.3243 52.4891 70.3309 52.5031 70.3377 52.5175V52.5176C70.3398 52.522 70.3419 52.5266 70.344 52.531L70.3447 52.5323C70.3468 52.5367 70.3488 52.5412 70.3509 52.5456L70.3514 52.5464C70.3535 52.551 70.3556 52.5556 70.3577 52.5599L70.3582 52.5608C70.3603 52.5653 70.3624 52.5697 70.3645 52.5743L70.365 52.5752C70.3671 52.5796 70.3691 52.5839 70.3712 52.5884L70.3719 52.5896C70.3738 52.5938 70.3761 52.5985 70.3781 52.6028L70.3787 52.6039C70.3807 52.6081 70.3831 52.613 70.3851 52.6172L70.3855 52.6181L70.3919 52.6312L70.3925 52.6325C70.3945 52.6368 70.3966 52.641 70.3987 52.6452L70.3995 52.647C70.4017 52.6513 70.4036 52.6555 70.4057 52.6596L70.4065 52.6613C70.4085 52.6654 70.4106 52.6698 70.4127 52.6739L70.4134 52.6755C70.4155 52.6796 70.4176 52.684 70.4196 52.688L70.4204 52.6898C70.4225 52.6939 70.4246 52.6981 70.4266 52.7024L70.4275 52.704C70.4295 52.7082 70.4316 52.7126 70.4337 52.7167L70.4344 52.718C70.4365 52.7222 70.4386 52.7268 70.4407 52.7308L70.4415 52.7323C70.4435 52.7364 70.4458 52.7409 70.4479 52.745L70.4485 52.7465C70.4506 52.7507 70.4528 52.7551 70.4549 52.7592L70.4557 52.7608C70.4578 52.7652 70.4599 52.7691 70.462 52.7735L70.4627 52.7746C70.4648 52.7792 70.4669 52.7832 70.4692 52.7876L70.4697 52.7886C70.472 52.7932 70.4742 52.7976 70.4765 52.802L70.4767 52.8025C70.479 52.8072 70.4812 52.8114 70.4835 52.8161L70.4838 52.8166C70.4933 52.835 70.5027 52.8536 70.5122 52.872L70.5127 52.8728C70.5151 52.8775 70.5171 52.8816 70.5195 52.8863L70.5198 52.8868L70.5267 52.8999L70.5271 52.9009L70.534 52.9141L70.5345 52.9151C70.5367 52.9193 70.5389 52.9232 70.5411 52.9276L70.542 52.9294C70.5441 52.9335 70.5465 52.9379 70.5486 52.9419L70.5493 52.9432C70.5514 52.9473 70.5537 52.9515 70.5558 52.9556L70.5568 52.9574C70.5589 52.9615 70.5612 52.9657 70.5633 52.9698L70.5641 52.9714C70.5662 52.9755 70.5683 52.9792 70.5704 52.9833L70.5717 52.9857C70.5739 52.9898 70.576 52.9937 70.5781 52.9978L70.5789 52.9994C70.5812 53.0035 70.5833 53.0075 70.5854 53.0116L70.5866 53.0136C70.5887 53.0176 70.5909 53.0219 70.5932 53.0259L70.5937 53.0271C70.596 53.0311 70.5984 53.0357 70.6005 53.0398L70.6014 53.0411C70.6036 53.0455 70.6059 53.0495 70.6082 53.0539L70.6087 53.0547C70.611 53.0591 70.6134 53.0634 70.6157 53.0678L70.6162 53.0686C70.6186 53.073 70.6211 53.0775 70.6233 53.0819L70.6235 53.0821C70.6259 53.0866 70.6284 53.0909 70.6308 53.0956L70.6313 53.0964C70.6338 53.1008 70.6362 53.1054 70.6385 53.1096L70.6386 53.1098C70.6412 53.1145 70.6435 53.1189 70.6461 53.1234L70.6463 53.1237L70.6614 53.1511L70.6616 53.1514C70.6666 53.1605 70.6715 53.1695 70.6767 53.1786V53.1788C70.6818 53.1877 70.6868 53.1968 70.6919 53.2058L70.6923 53.2066C70.6949 53.2112 70.6972 53.2152 70.6997 53.2198L70.7 53.2201C70.7024 53.2245 70.705 53.2291 70.7075 53.2333L70.7078 53.2339C70.7104 53.2387 70.7127 53.2427 70.7153 53.2473L70.7155 53.2476C70.7179 53.252 70.7203 53.2562 70.7228 53.2606L70.7234 53.2616C70.7259 53.266 70.7283 53.2701 70.7308 53.2745L70.7312 53.2753L70.7386 53.288L70.7391 53.2891C70.7417 53.2933 70.7441 53.2977 70.7465 53.302L70.7469 53.3026C70.7493 53.3069 70.7518 53.3109 70.7542 53.3153L70.755 53.3166C70.7573 53.3205 70.7599 53.3252 70.7622 53.3292L70.7628 53.33C70.7653 53.3342 70.7677 53.3384 70.7701 53.3428L70.7706 53.3438C70.7732 53.348 70.7757 53.3523 70.7781 53.3565L70.7786 53.3573L70.7859 53.3698L70.7867 53.3713C70.789 53.3752 70.7916 53.3796 70.7941 53.3837L70.7946 53.3847C70.797 53.3887 70.7996 53.3933 70.802 53.3972L70.8027 53.3983C70.8051 53.4026 70.8076 53.4068 70.8102 53.411L70.8105 53.4117C70.813 53.4159 70.8156 53.4201 70.818 53.4244L70.8188 53.4255C70.8213 53.4297 70.8237 53.434 70.8263 53.4382L70.8265 53.4387C70.8292 53.4431 70.8317 53.4472 70.8343 53.4517L70.8346 53.4522C70.8535 53.4838 70.8722 53.5149 70.8914 53.5463C70.8942 53.5507 70.8968 53.5551 70.8995 53.5596L70.8997 53.5598C70.9025 53.5642 70.9049 53.5683 70.9077 53.5728L70.908 53.5733L70.9158 53.586L70.9165 53.587C70.9189 53.5909 70.9217 53.5954 70.9241 53.5993L70.9246 53.6003C70.9272 53.6046 70.9298 53.6086 70.9324 53.6127L70.9331 53.6138C70.9357 53.6179 70.9383 53.6221 70.9409 53.6264L70.9412 53.627C70.9438 53.6311 70.9464 53.6353 70.949 53.6394L70.9498 53.6405C70.9521 53.6444 70.955 53.649 70.9575 53.6529L70.958 53.6539C70.9606 53.658 70.9633 53.6622 70.9659 53.6664L70.9664 53.6671C70.9692 53.6715 70.9715 53.6752 70.9744 53.6798L70.9747 53.6804C70.9775 53.6848 70.9799 53.6887 70.9829 53.6931L70.9832 53.6936L70.9913 53.7065L70.9915 53.7068C70.9943 53.7112 70.9969 53.7154 70.9998 53.7198L71 53.7201C71.0027 53.7245 71.0055 53.7286 71.0083 53.733L71.0084 53.7333C71.0112 53.7377 71.014 53.7419 71.0167 53.7463L71.0169 53.7465C71.0395 53.7818 71.0621 53.8166 71.0853 53.8516L71.0854 53.852L71.094 53.865C71.097 53.8694 71.0997 53.8738 71.1027 53.878L71.1028 53.8782C71.1056 53.8826 71.1085 53.8868 71.1115 53.8912V53.8914C71.1144 53.8956 71.1171 53.8998 71.1201 53.904L71.1202 53.9044C71.1232 53.9088 71.1259 53.9128 71.1287 53.9172L71.129 53.9176C71.1318 53.9218 71.1347 53.926 71.1377 53.9304V53.9306C71.1406 53.9348 71.1434 53.939 71.1463 53.9434L71.1464 53.9436C71.1552 53.9566 71.164 53.9695 71.1728 53.9825V53.9827C71.1757 53.9869 71.1787 53.9911 71.1816 53.9955L71.1818 53.9957C71.1847 53.9999 71.1876 54.0041 71.1905 54.0085C71.2438 54.0863 71.298 54.1634 71.3533 54.2397V54.2398C71.3564 54.2441 71.3593 54.2483 71.3624 54.2525H71.3626C71.3657 54.2568 71.3684 54.2607 71.3715 54.2649L71.372 54.2656C71.3782 54.274 71.3841 54.2822 71.3903 54.2905V54.2906C71.3964 54.2991 71.4026 54.3074 71.4088 54.3158L71.409 54.316C71.4586 54.3834 71.509 54.4501 71.5602 54.5162C71.5667 54.5245 71.573 54.5326 71.5794 54.5409L71.5795 54.5411C71.5859 54.5494 71.5922 54.5575 71.5988 54.5657V54.5658C71.6118 54.5823 71.6246 54.5986 71.6376 54.615V54.6152C71.6507 54.6314 71.6637 54.6477 71.6767 54.6642C71.7259 54.7253 71.7756 54.7859 71.826 54.846L71.8359 54.8578L71.8362 54.8582C71.9977 55.0501 72.1656 55.236 72.3401 55.4161V55.4163C73.0107 56.1089 73.7715 56.708 74.602 57.1975L74.6026 57.1978C74.607 57.2006 74.6113 57.2029 74.6157 57.2057L74.6162 57.2058C74.6207 57.2084 74.6246 57.2109 74.6292 57.2135L74.6298 57.2138C74.6344 57.2166 74.6385 57.219 74.643 57.2216L74.6433 57.2218L74.6564 57.2293L74.6572 57.2297C74.6617 57.2325 74.6656 57.2348 74.6702 57.2374L74.6707 57.2376C74.6752 57.2403 74.6791 57.2426 74.6837 57.2452L74.6845 57.2457C74.6891 57.2483 74.693 57.2504 74.6975 57.2532L74.698 57.2535C74.7024 57.2559 74.7067 57.2584 74.7109 57.2608L74.712 57.2615L74.7247 57.2688L74.7255 57.2693C74.7299 57.2717 74.7342 57.2742 74.7386 57.2766L74.7394 57.2771C74.7436 57.2795 74.7482 57.2822 74.7526 57.2846C74.7571 57.2872 74.7615 57.2896 74.7661 57.2922L74.7667 57.2926L74.7799 57.3001H74.7801L74.7937 57.3079C74.803 57.3129 74.8121 57.3181 74.8212 57.3232L74.8214 57.3233C74.8579 57.3437 74.8948 57.3639 74.9314 57.3839L74.9322 57.3842C74.9366 57.3866 74.941 57.3889 74.9454 57.3914L74.9461 57.3917C74.9505 57.3941 74.9549 57.3964 74.9593 57.3988L74.9601 57.3993C74.9648 57.4018 74.9687 57.4039 74.9733 57.4063L74.9739 57.4067C74.9783 57.4091 74.9825 57.4114 74.9869 57.4137L74.9882 57.4143C74.9923 57.4166 74.997 57.419 75.0011 57.4212L75.0019 57.4216C75.006 57.4239 75.0108 57.4264 75.0149 57.4286L75.0161 57.4291C75.0205 57.4316 75.0247 57.4337 75.0291 57.4361L75.0299 57.4365C75.034 57.4387 75.0385 57.4412 75.0426 57.4433L75.0442 57.4441C75.0484 57.4462 75.0528 57.4487 75.0569 57.4508L75.0581 57.4514C75.0621 57.4535 75.0667 57.4558 75.0707 57.4579L75.0724 57.4589C75.0766 57.4612 75.0807 57.4631 75.0851 57.4654L75.0859 57.4659C75.0903 57.4682 75.0945 57.4705 75.0989 57.4727L75.1002 57.4734L75.1131 57.4801L75.114 57.4806L75.1272 57.4874L75.128 57.4879C75.1324 57.49 75.137 57.4924 75.1414 57.4947L75.1417 57.4949C75.1464 57.4972 75.1507 57.4994 75.1554 57.5019L75.1562 57.5024C75.1607 57.5045 75.1651 57.5069 75.1695 57.509L75.1699 57.5092C75.1743 57.5115 75.1788 57.5138 75.1832 57.516L75.184 57.5165C75.1887 57.5188 75.1928 57.5209 75.1975 57.5232L75.198 57.5235C75.2024 57.5258 75.2066 57.5279 75.2112 57.5302L75.2123 57.5309C75.2169 57.533 75.221 57.5351 75.2255 57.5374L75.2265 57.5379C75.2309 57.5401 75.235 57.5421 75.2394 57.5444L75.2408 57.545C75.2449 57.5471 75.2491 57.5492 75.2534 57.5514L75.2551 57.5522C75.2589 57.5541 75.2634 57.5564 75.2672 57.5582L75.2695 57.5593L75.2815 57.5654L75.2836 57.5665C75.2875 57.5683 75.2918 57.5704 75.2957 57.5724L75.298 57.5735C75.3022 57.5756 75.3058 57.5774 75.31 57.5794L75.3121 57.5805C75.3163 57.5825 75.3201 57.5844 75.3242 57.5864L75.3266 57.5875C75.3307 57.5896 75.3341 57.5912 75.3383 57.5932L75.3408 57.5945C75.345 57.5964 75.3486 57.5982 75.3526 57.6002L75.3551 57.6015C75.3593 57.6034 75.3627 57.6052 75.367 57.6072C75.3677 57.6077 75.3685 57.608 75.3694 57.6083C75.3735 57.6104 75.3771 57.6121 75.3813 57.6142C75.3821 57.6145 75.383 57.6149 75.3837 57.6153C75.3876 57.6171 75.3915 57.6191 75.3954 57.621C75.3964 57.6214 75.3973 57.6218 75.3982 57.6223C75.4021 57.6241 75.4059 57.6259 75.4098 57.6279L75.4125 57.6292C75.4164 57.631 75.4204 57.6329 75.4241 57.6347L75.4269 57.636C75.4308 57.6378 75.4347 57.6397 75.4386 57.6415L75.4412 57.6428C75.4451 57.6446 75.4492 57.6466 75.4529 57.6484C75.4537 57.6488 75.4546 57.6492 75.4555 57.6495C75.4594 57.6515 75.4635 57.6534 75.4674 57.6552L75.4697 57.6563C75.4736 57.6581 75.478 57.6601 75.4819 57.662L75.4842 57.663L75.4957 57.6686C75.4967 57.6689 75.4976 57.6693 75.4985 57.6699L75.5099 57.6751L75.5126 57.6764C75.5162 57.6782 75.5203 57.6799 75.524 57.6816L75.527 57.683L75.5384 57.6882C75.5391 57.6887 75.5399 57.6891 75.5408 57.6894L75.5525 57.6948L75.5551 57.6961L75.5668 57.7014L75.5698 57.7027C75.5735 57.7045 75.5773 57.7062 75.5812 57.7079C75.5822 57.7085 75.5832 57.709 75.5842 57.7094C75.5882 57.7112 75.5916 57.7127 75.5955 57.7145C75.5963 57.7149 75.5979 57.7156 75.5989 57.7161L75.6096 57.721C75.611 57.7215 75.6123 57.7221 75.6135 57.7228L75.6243 57.7276L75.628 57.7293C75.6313 57.7307 75.6354 57.7325 75.6388 57.7341C75.6401 57.7347 75.6414 57.7353 75.6427 57.7359C75.6463 57.7376 75.6497 57.739 75.6534 57.7407C75.6547 57.7412 75.656 57.7418 75.6572 57.7424C75.6608 57.7439 75.6643 57.7455 75.6679 57.7472C75.6692 57.7477 75.6705 57.7483 75.6718 57.749C75.6754 57.7504 75.679 57.752 75.6827 57.7537C75.6838 57.7543 75.685 57.7548 75.6861 57.7553L75.6972 57.7602L75.701 57.7618C75.7045 57.7634 75.7081 57.7651 75.7117 57.7665C75.713 57.7672 75.7143 57.7678 75.7156 57.7683C75.7192 57.7699 75.7228 57.7714 75.7263 57.773L75.7301 57.7747C75.7338 57.7763 75.7374 57.7779 75.741 57.7794C75.7423 57.78 75.7436 57.7805 75.7447 57.781C75.7485 57.7826 75.7521 57.7843 75.7556 57.7859C75.7569 57.7864 75.7582 57.7869 75.7594 57.7875C75.763 57.789 75.7667 57.7906 75.7703 57.7922L75.774 57.7937C75.7779 57.7955 75.781 57.7968 75.7851 57.7986L75.7885 57.8001C75.7924 57.8017 75.7958 57.8033 75.7997 57.8049L75.803 57.8062C75.8069 57.808 75.8107 57.8095 75.8146 57.8113L75.8176 57.8126C75.8212 57.814 75.8247 57.8155 75.8284 57.8171L75.8325 57.8189C75.8359 57.8204 75.8393 57.8219 75.8426 57.8232L75.8471 57.8251C75.8504 57.8266 75.8538 57.8279 75.857 57.8293L75.8619 57.8313C75.8649 57.8326 75.8683 57.8341 75.8714 57.8354L75.8764 57.8375L75.8863 57.8417L75.8906 57.8435C75.894 57.8448 75.8972 57.8463 75.9005 57.8476L75.9055 57.8497C75.9088 57.8512 75.9122 57.8525 75.9156 57.8539L75.9192 57.8554C75.923 57.857 75.9262 57.8583 75.93 57.8598L75.9345 57.8617C75.9379 57.8632 75.9413 57.8647 75.9448 57.866L75.949 57.8678C75.9524 57.8691 75.9558 57.8705 75.9592 57.872C75.9607 57.8726 75.9625 57.8733 75.9641 57.8739C75.9674 57.8752 75.971 57.8767 75.9744 57.8782L75.9788 57.88C75.9822 57.8813 75.9854 57.8827 75.9889 57.884C75.9903 57.8847 75.9921 57.8853 75.9937 57.886C75.9972 57.8875 76.0003 57.8888 76.0037 57.8901L76.0087 57.8922C76.0118 57.8933 76.0152 57.8948 76.0183 57.8961C76.0203 57.8967 76.0217 57.8974 76.0237 57.8982C76.0268 57.8993 76.0302 57.9008 76.0333 57.9021C76.0352 57.9028 76.0365 57.9034 76.0383 57.9041C76.0414 57.9054 76.045 57.9067 76.0481 57.908C76.0499 57.9088 76.0517 57.9095 76.0535 57.9101L76.0629 57.914C76.0649 57.9146 76.0665 57.9153 76.0685 57.9161C76.0715 57.9172 76.0746 57.9185 76.0777 57.9198C76.0797 57.9205 76.0816 57.9213 76.0834 57.9221C76.0865 57.9233 76.0898 57.9246 76.0929 57.9259C76.0948 57.9265 76.0963 57.9272 76.0981 57.9278C76.1015 57.9293 76.1043 57.9303 76.1077 57.9316C76.1096 57.9324 76.1114 57.9332 76.1134 57.9338L76.1223 57.9374C76.1243 57.9381 76.1264 57.939 76.1284 57.9397L76.1357 57.9426L76.1435 57.9457C76.1461 57.9467 76.1477 57.9473 76.1502 57.9482C76.1531 57.9493 76.1557 57.9503 76.1585 57.9514C76.1606 57.9522 76.1625 57.953 76.1648 57.9539C76.1676 57.955 76.1707 57.9561 76.1734 57.9573C76.1754 57.9579 76.1777 57.9589 76.1796 57.9596C76.1824 57.9607 76.1856 57.962 76.1886 57.963C76.1904 57.9638 76.1923 57.9644 76.1941 57.9652C76.1974 57.9664 76.2006 57.9677 76.2037 57.9688C76.2057 57.9696 76.2075 57.9703 76.2092 57.9709C76.2125 57.9722 76.2151 57.9732 76.2182 57.9744C76.22 57.975 76.2224 57.976 76.2244 57.9766C76.2275 57.9779 76.2302 57.9789 76.2335 57.9802C76.2353 57.9809 76.2374 57.9817 76.2394 57.9823C76.2424 57.9836 76.2455 57.9848 76.2488 57.9859C76.2506 57.9867 76.252 57.9872 76.2538 57.9879C76.2574 57.9892 76.2605 57.9903 76.2639 57.9916L76.2691 57.9936C76.2722 57.9947 76.275 57.9959 76.2783 57.997L76.2843 57.9993C76.2872 58.0004 76.2905 58.0016 76.2934 58.0027L76.2994 58.005C76.3023 58.0059 76.3056 58.0072 76.3085 58.0082L76.3141 58.0103L76.3242 58.0141L76.3294 58.0159C76.332 58.0168 76.3346 58.0178 76.337 58.0188C76.3396 58.0198 76.3419 58.0206 76.3443 58.0214L76.3526 58.0245L76.3596 58.0271C76.3619 58.0279 76.3644 58.0287 76.3665 58.0295C76.3694 58.0305 76.3717 58.0315 76.3746 58.0325C76.3771 58.0335 76.3793 58.0341 76.3819 58.0351C76.3844 58.0361 76.3875 58.037 76.3899 58.038L76.3967 58.0405L76.4037 58.0431C76.4067 58.044 76.4096 58.045 76.4124 58.0461C76.4138 58.0466 76.4152 58.0471 76.4166 58.0476C76.42 58.0488 76.4239 58.0502 76.4275 58.0515C76.4288 58.052 76.4301 58.0525 76.4314 58.0528C76.4352 58.0543 76.4391 58.0556 76.443 58.0571L76.4464 58.0582C76.4503 58.0597 76.454 58.061 76.4579 58.0623C76.4591 58.0628 76.4607 58.0632 76.462 58.0637C76.4658 58.065 76.4697 58.0665 76.4736 58.0678L76.4763 58.0688C76.4804 58.0702 76.4848 58.0717 76.4889 58.0732L76.4913 58.074C76.4955 58.0754 76.5004 58.0772 76.5045 58.0787L76.5063 58.0792C76.5107 58.0808 76.5151 58.0823 76.5195 58.0837L76.5221 58.0847C76.5263 58.0862 76.5309 58.0877 76.5349 58.0891L76.5374 58.0899C76.5418 58.0916 76.5462 58.093 76.5507 58.0945L76.5523 58.0951C76.5567 58.0966 76.5615 58.0982 76.566 58.0997L76.5678 58.1003C76.5724 58.102 76.5766 58.1034 76.581 58.1049L76.5834 58.1057C76.588 58.1072 76.5924 58.1088 76.5969 58.1103L76.5984 58.1108C76.603 58.1124 76.608 58.114 76.6126 58.1155L76.6139 58.116C76.6184 58.1174 76.6233 58.1191 76.6277 58.1207L76.6295 58.1212C76.6337 58.1226 76.6386 58.1243 76.6428 58.1256L76.6451 58.1264L76.6593 58.1311L76.6601 58.1313C76.665 58.1329 76.67 58.1347 76.6749 58.1363L76.6756 58.1365C77.6337 58.4512 78.6318 58.6277 79.6397 58.6607C79.6677 58.6615 79.6954 58.662 79.7232 58.662C80.4224 58.6616 81.0935 58.3865 81.5919 57.8961C82.0902 57.4057 82.3761 56.7392 82.3878 56.0401C82.3995 55.341 82.1362 54.6652 81.6546 54.1584C81.173 53.6515 80.5115 53.3541 79.8128 53.3302L79.8128 53.3301Z" fill="#FFEA21"/>
<path d="M79.9999 34.6668C77.7825 34.6814 75.6046 35.255 73.6677 36.3346L73.1044 35.7713C72.7546 35.4206 72.339 35.1424 71.8813 34.9529C71.4237 34.7633 70.9331 34.6661 70.4378 34.6668C70.0842 34.6668 69.7451 34.8072 69.495 35.0573C69.245 35.3073 69.1045 35.6465 69.1045 36.0001C69.1045 36.3537 69.245 36.6928 69.495 36.9429C69.7451 37.1929 70.0842 37.3334 70.4378 37.3334C70.5829 37.3332 70.7266 37.3616 70.8606 37.4171C70.9947 37.4726 71.1164 37.5541 71.2188 37.6569L71.7821 38.2202C72.1891 38.6272 72.7168 38.8916 73.2864 38.9739C73.8561 39.0562 74.4371 38.9519 74.9426 38.6767C76.5802 37.7854 78.2817 37.3334 79.9999 37.3334C82.0707 37.3334 84.0966 37.9362 85.8306 39.0681C87.5646 40.2001 88.9317 41.8123 89.7649 43.708C90.5982 45.6037 90.8616 47.7009 90.5231 49.7438C90.1846 51.7867 89.2587 53.6869 87.8586 55.2126C87.74 55.3415 87.6479 55.4925 87.5877 55.6571C87.5275 55.8216 87.5004 55.9963 87.5077 56.1714C87.5151 56.3464 87.5569 56.5183 87.6307 56.6771C87.7046 56.836 87.809 56.9788 87.938 57.0973C88.067 57.2158 88.2181 57.3077 88.3827 57.3677C88.5473 57.4278 88.7221 57.4549 88.8971 57.4473C89.0721 57.4398 89.2439 57.3979 89.4027 57.3239C89.5616 57.25 89.7042 57.1454 89.8226 57.0163C91.5274 55.1636 92.671 52.8647 93.1201 50.3873L93.1202 50.3871C93.1283 50.3421 93.1362 50.2969 93.1439 50.2518L93.144 50.2512L93.1456 50.2418L93.1456 50.2417L93.1472 50.2324L93.1473 50.2316L93.1489 50.2223L93.1489 50.2222L93.1505 50.2127L93.1505 50.2124C93.1581 50.1672 93.1654 50.122 93.1725 50.0766L93.1726 50.0759L93.1741 50.0665L93.1741 50.0664C93.1816 50.018 93.1889 49.9694 93.1959 49.9208L93.1961 49.9193L93.1974 49.9106L93.1975 49.9097L93.1987 49.9011L93.199 49.8995L93.2002 49.891L93.2003 49.8898L93.2016 49.8813L93.2018 49.8798L93.203 49.871L93.2031 49.8705L93.2044 49.8611L93.2044 49.8608L93.2058 49.8512L93.2058 49.851L93.2071 49.8415L93.2072 49.8409C93.2108 49.8151 93.2142 49.7894 93.2176 49.7636L93.2178 49.7626L93.219 49.7536L93.2191 49.7528L93.2203 49.7436L93.2204 49.7429L93.2215 49.7338L93.2217 49.733L93.2228 49.7243L93.223 49.7228L93.2241 49.7142L93.2242 49.713L93.2253 49.7044L93.2255 49.7031L93.2266 49.6943L93.2268 49.6932L93.2278 49.6847L93.2281 49.6827L93.2291 49.6746L93.2293 49.6731L93.2303 49.6646L93.2305 49.6635C93.2337 49.6375 93.2369 49.6116 93.24 49.5855V49.5854L93.2411 49.5758L93.2411 49.5755L93.2421 49.5672L93.2424 49.565L93.2433 49.5573L93.2435 49.5551L93.2445 49.5469L93.2447 49.5453L93.2456 49.5367L93.2458 49.5354L93.2467 49.5272L93.247 49.5249L93.2479 49.5171L93.2481 49.5151L93.249 49.5072L93.2493 49.5048L93.2501 49.4973L93.2504 49.4946L93.2512 49.4873L93.2516 49.4843L93.2523 49.4772L93.2526 49.4748L93.2535 49.4669L93.2535 49.4663C93.2556 49.4471 93.2577 49.4278 93.2597 49.4086L93.2599 49.4072L93.2607 49.3987L93.2609 49.3971L93.2617 49.3893L93.262 49.3869L93.2628 49.3791L93.263 49.3768L93.2638 49.3694L93.264 49.3667L93.2648 49.3591L93.2651 49.3566L93.2658 49.3493L93.2661 49.3463L93.2668 49.3391L93.2671 49.3363L93.2678 49.3292L93.2681 49.326L93.2688 49.319L93.2691 49.3156L93.2698 49.3092L93.2702 49.305L93.2708 49.2989L93.2712 49.2947L93.2717 49.2889L93.2721 49.2849C93.2731 49.2741 93.2742 49.2632 93.2752 49.2525L93.2756 49.2482L93.2762 49.2416L93.2765 49.2383L93.2771 49.232L93.2774 49.2278L93.278 49.2222L93.2784 49.2177L93.2789 49.2122L93.2793 49.2073L93.2798 49.2013L93.2802 49.1976L93.2808 49.1909L93.2811 49.1873L93.2816 49.1811L93.282 49.1768L93.2825 49.1711L93.2829 49.1663L93.2834 49.1609L93.2838 49.1563L93.2843 49.1507L93.2847 49.1455L93.2851 49.1406L93.2856 49.1353L93.286 49.1303L93.2864 49.125L93.2869 49.1199L93.2872 49.1157L93.2877 49.1095L93.288 49.1064L93.2886 49.0992L93.2886 49.0987L93.2907 49.0721L93.291 49.069L93.2915 49.0629L93.2918 49.0586L93.2923 49.0528L93.2926 49.0486L93.2931 49.0423L93.2934 49.0382L93.2939 49.0321L93.2942 49.0282L93.2947 49.0217L93.295 49.0177L93.2954 49.0119L93.2957 49.0075L93.2962 49.0015L93.2965 48.9972L93.2969 48.9914L93.2973 48.9868L93.2977 48.9813L93.2981 48.9757L93.2984 48.9716L93.2988 48.9654L93.2991 48.9609L93.2995 48.9552L93.2999 48.9506L93.3002 48.9454L93.3006 48.94L93.301 48.9341L93.3013 48.9301L93.3017 48.9234L93.302 48.9195L93.3034 48.8991L93.3036 48.896L93.3041 48.8886L93.3043 48.8848L93.3047 48.8786L93.3051 48.873L93.3054 48.8683L93.3058 48.8628L93.3061 48.858L93.3064 48.8528L93.3067 48.8472L93.307 48.8429L93.3074 48.8369L93.3077 48.8325L93.308 48.8264L93.3083 48.8222L93.3087 48.8161L93.3089 48.8119L93.3093 48.8054L93.3095 48.8016L93.3099 48.7952L93.3101 48.7909L93.3105 48.7851L93.3107 48.7805L93.3111 48.7748L93.3113 48.7701L93.3117 48.7639L93.3119 48.7599L93.3123 48.7535L93.3125 48.7494L93.3129 48.7423L93.3131 48.7392L93.3135 48.7315L93.3137 48.7274L93.3142 48.7184L93.3145 48.7131L93.3147 48.7083L93.315 48.702L93.3153 48.698L93.3156 48.6917L93.3158 48.6877L93.3161 48.6816L93.3163 48.6772L93.3166 48.6721L93.3168 48.6666L93.3171 48.662L93.3174 48.6559L93.3175 48.6519L93.3178 48.6456L93.3181 48.6411L93.3183 48.6351L93.3185 48.6309L93.3188 48.6248L93.319 48.6202L93.3193 48.6145L93.3195 48.6099L93.3197 48.6043L93.32 48.5991L93.3202 48.5939L93.3204 48.5891L93.3207 48.5829L93.3209 48.5787L93.3212 48.5719L93.3213 48.5684L93.3216 48.5611L93.3217 48.5579L93.3226 48.5372L93.3227 48.533L93.323 48.5267L93.3232 48.5218L93.3234 48.5166L93.3236 48.5114L93.3238 48.5058L93.3239 48.5016L93.3242 48.4954L93.3243 48.4913L93.3246 48.4847L93.3247 48.4807L93.3249 48.4747L93.3251 48.4699L93.3253 48.464L93.3254 48.4597L93.3256 48.4536L93.3258 48.4492L93.326 48.4432L93.3261 48.4385L93.3263 48.4333L93.3265 48.428L93.3266 48.4226L93.3268 48.4177L93.327 48.4119L93.3271 48.4074L93.3273 48.4015L93.3274 48.3967L93.3276 48.3921L93.3277 48.3862L93.3279 48.3813L93.328 48.3759L93.3286 48.3553L93.3287 48.3498L93.3288 48.345L93.329 48.3395L93.3291 48.3344L93.3292 48.3302L93.3294 48.3237L93.3294 48.32L93.3296 48.3132L93.3297 48.3093L93.3298 48.3029L93.3299 48.2984L93.3301 48.2924L93.3302 48.2881L93.3303 48.282L93.3304 48.277L93.3305 48.2721L93.3306 48.2664L93.3307 48.2617L93.3308 48.2559L93.3309 48.2508L93.331 48.2461L93.3311 48.2397L93.3312 48.2355L93.3313 48.2296L93.3313 48.2249L93.3314 48.2194L93.3315 48.2144L93.3316 48.208L93.3317 48.2042L93.3318 48.1977L93.3318 48.1934L93.3319 48.1852L93.332 48.1818L93.3321 48.173L93.3322 48.1684L93.3322 48.162L93.3323 48.1586L93.3324 48.1519L93.3324 48.1472L93.3325 48.1412L93.3325 48.1366L93.3326 48.131L93.3326 48.126L93.3327 48.1203L93.3327 48.1154L93.3328 48.1101L93.3328 48.1049L93.3328 48.0993L93.3329 48.0944L93.3329 48.089L93.3329 48.084L93.333 48.0782L93.333 48.0735L93.333 48.0677L93.3331 48.0633L93.3331 48.0567L93.3331 48.0527L93.3331 48.0463L93.3331 48.0422L93.3332 48.0357L93.3332 48.0316L93.3332 48.0251V48.0211L93.3332 48.0143V48.0105V48.0001C93.3332 44.4639 91.9284 41.0725 89.428 38.572C86.9275 36.0715 83.5361 34.6668 79.9999 34.6668Z" fill="#FFA300"/>
<path d="M55.7989 20.5834L51.517 7.86071C51.2692 7.12425 50.7964 6.48416 50.1653 6.03073C49.5343 5.57729 48.7769 5.33337 47.9998 5.33337C47.2227 5.33337 46.4653 5.57729 45.8342 6.03073C45.2032 6.48416 44.7304 7.12425 44.4825 7.86071L40.2006 20.5834C40.0409 20.9562 39.9761 21.3628 40.0121 21.7668C40.0482 22.1708 40.1839 22.5596 40.4072 22.8982C40.6305 23.2368 40.9343 23.5147 41.2914 23.707C41.6485 23.8993 42.0478 24 42.4534 24H42.4536C42.9332 24 43.4024 23.8593 43.8028 23.5952C44.2032 23.3312 44.5174 22.9554 44.7063 22.5145L45.0613 21.3334H50.9383L51.2933 22.5145C51.4822 22.9554 51.7963 23.3312 52.1968 23.5952C52.5972 23.8593 53.0663 24 53.546 24H53.5462C53.9518 24 54.351 23.8993 54.7082 23.707C55.0653 23.5147 55.3691 23.2368 55.5924 22.8982C55.8156 22.5596 55.9514 22.1708 55.9874 21.7668C56.0235 21.3628 55.9587 20.9562 55.7989 20.5834ZM46.6642 16L47.9998 11.5555L49.3354 16H46.6642Z" fill="white"/>
<path d="M47.9999 5.3335L47.9914 5.33352H47.9901L47.9821 5.33354L47.9804 5.33356L47.9723 5.3336H47.9712L47.9632 5.33368H47.9624L47.9541 5.33378L47.9527 5.3338L47.9446 5.3339L47.9431 5.33392L47.9348 5.33406H47.9342L47.9262 5.33423L47.925 5.33425L47.9168 5.33441L47.9155 5.33445L47.9073 5.33463L47.906 5.33468L47.8975 5.3349H47.8972L47.889 5.33515L47.8877 5.33519L47.8797 5.33544L47.8781 5.3355L47.87 5.33577L47.8688 5.33581L47.8608 5.33609L47.8602 5.33611L47.8521 5.33644L47.8504 5.3365L47.8426 5.33682L47.841 5.33688L47.8329 5.33725L47.8319 5.33729L47.8239 5.33766L47.8231 5.3377L47.815 5.33809L47.8133 5.33817L47.8054 5.33857L47.8039 5.33866L47.7958 5.33908L47.795 5.33912L47.7871 5.33957L47.786 5.33963L47.7782 5.3401L47.7761 5.34022L47.7685 5.34069L47.7668 5.34079L47.7592 5.34128L47.7581 5.34134L47.7504 5.34185L47.7488 5.34195L47.7411 5.34248L47.7392 5.34262L47.7314 5.34317L47.7301 5.34328L47.7225 5.34383L47.7216 5.34391L47.7138 5.3445L47.7118 5.34464L47.7044 5.34523L47.7022 5.34539L47.6945 5.34602L47.6935 5.3461L47.686 5.34672L47.6846 5.34685L47.6767 5.34752L47.6752 5.34766L47.6673 5.34835L47.6657 5.3485L47.6576 5.34923L47.6575 5.34925L47.6491 5.35002L47.648 5.35012L47.6401 5.3509L47.6383 5.35106L47.6307 5.35181L47.6289 5.35199L47.6214 5.35274L47.6208 5.35281L47.6128 5.35364L47.6111 5.35382L47.6035 5.35462L47.6016 5.35482L47.594 5.35565L47.5925 5.35582L47.5852 5.35663L47.5841 5.35676L47.5762 5.35765L47.5746 5.35783L47.5669 5.35873L47.5651 5.35893L47.5574 5.35985L47.556 5.36001L47.5491 5.36085L47.5474 5.36105L47.54 5.36198L47.5379 5.36225L47.5303 5.36318L47.5288 5.36339L47.5213 5.36434L47.5201 5.36451L47.5127 5.36548L47.511 5.36569L47.5034 5.3667L47.5016 5.36695L47.4939 5.36801L47.4926 5.3682L47.4855 5.36917L47.484 5.3694L47.4765 5.37045L47.4746 5.37072L47.4672 5.37178L47.4652 5.37206L47.4576 5.37319L47.4564 5.37335L47.4493 5.37441L47.4478 5.37466L47.4403 5.37578L47.4383 5.37608L47.431 5.3772L47.4289 5.37753L47.4221 5.3786L47.4199 5.37895L47.4136 5.37993L47.4114 5.38029L47.4042 5.38145L47.4021 5.3818L47.3948 5.38298L47.3928 5.38332L47.3862 5.38442L47.3844 5.38473L47.3776 5.38587L47.3753 5.38625L47.3681 5.3875L47.3661 5.38784L47.3588 5.38912L47.357 5.38943L47.3504 5.39059L47.3488 5.39087L47.3415 5.3922L47.3393 5.39258L47.3321 5.3939L47.3303 5.39423L47.3226 5.39563L47.3216 5.39582L47.3145 5.39714L47.3129 5.39744L47.3057 5.39883L47.3035 5.39923L47.2963 5.4006L47.2943 5.40098L47.2875 5.40231L47.2858 5.40265L47.279 5.404L47.277 5.4044L47.27 5.40579L47.2675 5.40627L47.2605 5.4077L47.2587 5.40806L47.2522 5.40939L47.2506 5.40973L47.2433 5.41123L47.2414 5.41162L47.2342 5.41313L47.232 5.41359L47.2248 5.41512L47.2233 5.41544L47.2167 5.41685L47.215 5.41724L47.2079 5.41876L47.2056 5.41929L47.1987 5.4208L47.1963 5.4213L47.1897 5.42279L47.1878 5.42322L47.1815 5.42464L47.1794 5.42511L47.1724 5.4267L47.1701 5.42722L47.1631 5.42883L47.1612 5.4293L47.1546 5.4308L47.1528 5.43123L47.1462 5.43277L47.1439 5.43334L47.137 5.43497L47.1346 5.43554L47.1279 5.43714L47.1255 5.43773L47.1197 5.43916L47.118 5.43957L47.1109 5.44129L47.1087 5.44186L47.1017 5.44357L47.0996 5.4441L47.0928 5.44581L47.0908 5.44634L47.0846 5.44789L47.0826 5.44839L47.0757 5.45016L47.0734 5.45075L47.0666 5.45253L47.0644 5.45309L47.0583 5.45468L47.0558 5.45535L47.0498 5.45692L47.0475 5.45753L47.0407 5.45934L47.0385 5.45995L47.0315 5.4618L47.0295 5.46235L47.0235 5.464L47.0214 5.46455L47.0146 5.46644L47.0127 5.46697L47.0057 5.46888L47.0035 5.46951L46.9965 5.47146L46.9949 5.47191L46.989 5.47358L46.9868 5.4742L46.98 5.47613L46.9778 5.47676L46.9711 5.47869L46.9686 5.4794L46.9621 5.48128L46.9604 5.48179L46.9542 5.48362L46.952 5.48424L46.9453 5.48622L46.943 5.48691L46.9362 5.48894L46.9342 5.48955L46.9281 5.49136L46.9258 5.49205L46.9197 5.49391L46.9174 5.4946L46.9107 5.49667L46.9085 5.49734L46.9016 5.49946L46.8997 5.50005L46.8937 5.50193L46.892 5.50247L46.8852 5.50461L46.8829 5.50532L46.8761 5.50748L46.8741 5.5081L46.8671 5.51034L46.8656 5.51081L46.8594 5.51282L46.8576 5.51341L46.8509 5.51557L46.8485 5.51638L46.8418 5.51858L46.84 5.51915L46.8334 5.52135L46.8316 5.52194L46.8252 5.52405L46.8233 5.52468L46.8166 5.52694L46.8142 5.52773L46.8076 5.52999L46.8057 5.53061L46.7995 5.53273L46.7981 5.5332L46.7911 5.5356L46.7892 5.53629L46.7825 5.53859L46.7802 5.53938L46.7734 5.54176L46.772 5.54225L46.7656 5.54453L46.7641 5.54502L46.757 5.54756L46.7553 5.54815L46.7484 5.55063L46.7464 5.55133L46.7394 5.55387L46.7385 5.55419L46.732 5.55653L46.7301 5.55723L46.7234 5.55969L46.7213 5.56046L46.7146 5.5629L46.7126 5.56365L46.7064 5.56599L46.705 5.56648L46.6982 5.56902L46.6964 5.56969L46.6895 5.57228L46.6878 5.57295L46.6807 5.57563L46.6794 5.57612L46.6728 5.57865L46.6717 5.57909L46.6647 5.58176L46.6628 5.58249L46.6561 5.58512L46.6541 5.58587L46.6473 5.58853L46.6459 5.58908L46.6396 5.59154L46.638 5.59217L46.6313 5.59482L46.6293 5.59565L46.6225 5.59834L46.6209 5.59899L46.6142 5.60167L46.613 5.60216L46.6063 5.60489L46.6048 5.60548L46.598 5.60827L46.596 5.60906L46.5894 5.61179L46.5875 5.61256L46.5818 5.61492L46.5797 5.61577L46.5733 5.61844L46.5715 5.61919L46.5648 5.622L46.5629 5.62279L46.5561 5.62566L46.5547 5.62625L46.5486 5.62884L46.547 5.62949L46.5402 5.63244L46.5385 5.63313L46.5317 5.6361L46.5302 5.63673L46.523 5.63982L46.5222 5.64019L46.5158 5.64295L46.514 5.64375L46.5074 5.64666L46.5055 5.64749L46.4989 5.6504L46.4971 5.65119L46.4906 5.65408L46.49 5.65437L46.4831 5.65742L46.4812 5.65827L46.4747 5.6612L46.4728 5.66208L46.4661 5.66509L46.4646 5.66578L46.4585 5.66857L46.4572 5.66918L46.4505 5.67223L46.4485 5.67314L46.442 5.67616L46.4403 5.67695L46.4335 5.68012L46.4324 5.68063L46.4261 5.68356L46.4247 5.68423L46.4181 5.68733L46.4162 5.68824L46.4095 5.69137L46.408 5.69209L46.4014 5.69526L46.4004 5.69573L46.3937 5.69892L46.3923 5.69959L46.3857 5.70281L46.3839 5.70368L46.3771 5.70696L46.3761 5.70745L46.3695 5.71068L46.3685 5.71115L46.3617 5.71449L46.3601 5.71528L46.3536 5.71849L46.3517 5.71943L46.3451 5.72271L46.3439 5.72332L46.3377 5.72641L46.3363 5.7271L46.3299 5.73035L46.3279 5.73133L46.3217 5.7345L46.3195 5.7356L46.3135 5.73863L46.312 5.73944L46.306 5.74252L46.3045 5.74329L46.298 5.74661L46.2961 5.74761L46.2898 5.75086L46.2879 5.75186L46.2821 5.75487L46.2805 5.7557L46.2744 5.75892L46.2727 5.75983L46.2662 5.76323L46.2644 5.76416L46.2581 5.76752L46.2563 5.7685L46.2507 5.77151L46.2494 5.7722L46.2428 5.7757L46.2411 5.77662L46.2346 5.78012L46.2331 5.78093L46.2265 5.78456L46.2253 5.78518L46.2192 5.78852L46.2179 5.78921L46.2115 5.79275L46.2096 5.79379L46.2034 5.79724L46.2016 5.7982L46.1958 5.80145L46.194 5.80241L46.1884 5.80558L46.1865 5.80664L46.1804 5.81006L46.1784 5.8112L46.1722 5.81466L46.1705 5.81567L46.165 5.81876L46.1633 5.81972L46.1572 5.82324L46.1554 5.82422L46.1493 5.82774L46.1473 5.82892L46.1411 5.8325L46.1397 5.83329L46.1343 5.83642L46.1325 5.83748L46.1264 5.84104L46.1245 5.84214L46.1184 5.84572L46.1165 5.84685L46.1105 5.85037L46.109 5.85128L46.1035 5.85453L46.1017 5.85561L46.0956 5.85925L46.0938 5.86037L46.0876 5.86407L46.0859 5.86509L46.0805 5.86837L46.0785 5.86955L46.0733 5.87274L46.0709 5.87414L46.0653 5.87758L46.063 5.87899L46.0572 5.88253L46.0553 5.88369L46.0503 5.8868L46.0483 5.88802L46.0428 5.89144L46.0404 5.8929L46.0348 5.89644L46.0327 5.89774L46.027 5.90128L46.0251 5.90251L46.0201 5.90564L46.0183 5.9068L46.0127 5.91036L46.0101 5.91195L46.0047 5.9154L46.0024 5.91689L45.9978 5.91982L45.9947 5.92182L45.9904 5.92463L45.9879 5.92617L45.9826 5.92965L45.98 5.93134L45.9747 5.93478L45.9722 5.9364L45.9682 5.93899L45.965 5.94112L45.9605 5.94403L45.958 5.9457L45.9528 5.94914L45.9501 5.95091L45.9454 5.95404L45.9425 5.95599L45.9386 5.95858L45.935 5.96096L45.9309 5.96375L45.9281 5.96562L45.9232 5.96892L45.9201 5.97099L45.9164 5.97351L45.9127 5.97604L45.9093 5.97836L45.9053 5.98108L45.9015 5.98365L45.8984 5.98582L45.8951 5.98806L45.8904 5.99136L45.8878 5.99311L45.8829 5.99652L45.8799 5.99858L45.8756 6.00163L45.8723 6.00393L45.8688 6.00633L45.8662 6.00821L45.8609 6.01193L45.8588 6.01343L45.853 6.01748L45.851 6.01893L45.8474 6.02151L45.8461 6.02243L45.8395 6.02715L45.8377 6.02841L45.8316 6.03282L45.8297 6.03415L45.8236 6.03856L45.8219 6.03978L45.8182 6.04247L45.816 6.04409L45.8105 6.04814L45.8087 6.0494L45.8024 6.05406L45.801 6.0551L45.7892 6.06382L45.7888 6.06405L45.7814 6.06962L45.7803 6.07044L45.7731 6.07583L45.7724 6.07632C45.7657 6.08132 45.759 6.08641 45.7524 6.09147L45.7519 6.09182C45.6852 6.14262 45.6202 6.19567 45.5569 6.25096C45.4251 6.36619 45.3172 6.50627 45.2395 6.66318C45.1618 6.8201 45.1158 6.99078 45.1041 7.16548C45.0923 7.34018 45.1151 7.51549 45.1711 7.68138C45.2272 7.84728 45.3153 8.00052 45.4305 8.13235C45.5458 8.26418 45.6858 8.37202 45.8428 8.44972C45.9997 8.52742 46.1704 8.57345 46.3451 8.58519C46.5198 8.59692 46.6951 8.57413 46.861 8.51812C47.0269 8.4621 47.1801 8.37396 47.3119 8.25873C47.5024 8.09208 47.7469 8.00021 47.9999 8.00016C48.2186 8.00003 48.4319 8.06863 48.6095 8.19626C48.7871 8.32389 48.9202 8.50411 48.9898 8.71145L52.9946 20.6107C53.1073 20.9455 53.3484 21.2219 53.6648 21.3792C53.9812 21.5364 54.3471 21.5616 54.6821 21.4493C55.0171 21.337 55.2938 21.0963 55.4515 20.78C55.6091 20.4638 55.6348 20.098 55.5229 19.7628L51.9403 9.1181L51.9398 9.11641L51.937 9.10817L51.9357 9.10423L51.907 9.0191L51.9029 9.00692L51.8996 8.99699L51.8985 8.99387L51.8971 8.98954L51.8951 8.98374L51.8922 8.97511L51.8921 8.97475L51.8816 8.94352L51.8813 8.9427L51.8784 8.9342L51.8769 8.92975L51.8746 8.92283L51.8742 8.92159L51.871 8.91201L51.8696 8.90794L51.869 8.90606L51.8664 8.89847L51.865 8.89426L51.8621 8.88582L51.862 8.88543L51.8596 8.87817L51.8578 8.87288L51.8459 8.83768L51.8434 8.83014L51.8389 8.81669L51.8355 8.8066L51.833 8.79933L51.827 8.78151L51.8188 8.75716L51.8168 8.7511L51.8119 8.73643L51.8113 8.73468L51.8064 8.72013L51.8043 8.71395L51.7932 8.68098L51.7919 8.67724L51.7869 8.66231L51.7851 8.65704L51.784 8.65358L51.7784 8.6371L51.7781 8.63619L51.7763 8.63069L51.7746 8.62566L51.7734 8.62202L51.7686 8.6079L51.7668 8.60261L51.7562 8.57105L51.755 8.56733L51.7331 8.50235L51.7317 8.49836L51.7213 8.46744L51.7212 8.46701L51.7107 8.43586L51.7099 8.43356L51.6998 8.40355L51.6994 8.40244L51.6903 8.37521L51.6859 8.36213L51.6847 8.35869L51.6839 8.35623C51.5777 8.04082 51.5172 7.86081 51.5172 7.86081C51.2693 7.12435 50.7965 6.48427 50.1655 6.03083C49.5344 5.5774 48.777 5.33349 47.9999 5.3335Z" fill="#EFF2FF"/>
<path d="M72 42.6667C72 43.0169 72.069 43.3636 72.203 43.6872C72.337 44.0107 72.5334 44.3047 72.781 44.5523C73.0287 44.7999 73.3226 44.9963 73.6462 45.1303C73.9697 45.2644 74.3165 45.3333 74.6667 45.3333H79.1112L73.4222 49.6C72.9806 49.9312 72.6222 50.3606 72.3754 50.8544C72.1285 51.3481 72 51.8925 72 52.4444C72 52.9114 72.092 53.3737 72.2706 53.8051C72.4493 54.2365 72.7112 54.6284 73.0414 54.9586C73.3716 55.2888 73.7635 55.5507 74.1949 55.7294C74.6263 55.908 75.0886 56 75.5555 56H85.3333C86.0406 56 86.7189 55.719 87.219 55.219C87.719 54.7189 88 54.0406 88 53.3333C88 52.9831 87.931 52.6364 87.797 52.3128C87.663 51.9893 87.4666 51.6953 87.219 51.4477C86.9713 51.2001 86.6774 51.0037 86.3538 50.8697C86.0303 50.7356 85.6835 50.6667 85.3333 50.6667H81.3333L86.6481 46.4148C87.07 46.0774 87.4105 45.6494 87.6445 45.1625C87.8785 44.6756 88 44.1423 88 43.6021V43.6021C88 42.6467 87.6205 41.7305 86.945 41.055C86.2695 40.3795 85.3533 40 84.3979 40H74.6667C73.9594 40 73.2811 40.281 72.781 40.781C72.281 41.2811 72 41.9594 72 42.6667Z" fill="white"/>
<path d="M84.3978 40H74.6665C74.3131 40.0003 73.9743 40.141 73.7245 40.391C73.4748 40.641 73.3345 40.9799 73.3345 41.3333C73.3345 41.6867 73.4748 42.0257 73.7245 42.2757C73.9743 42.5257 74.3131 42.6663 74.6665 42.6667H84.3978C84.5916 42.6667 84.7807 42.7269 84.9388 42.839C85.0969 42.9511 85.2163 43.1095 85.2805 43.2924C85.3446 43.4753 85.3504 43.6737 85.2969 43.86C85.2435 44.0463 85.1335 44.2114 84.9821 44.3325L79.6673 48.5844C79.2358 48.9295 78.9222 49.4003 78.7699 49.9314C78.6175 50.4626 78.6339 51.0279 78.8168 51.5494C78.9998 52.0708 79.3401 52.5225 79.7909 52.8421C80.2417 53.1617 80.7806 53.3333 81.3332 53.3333H83.3711C83.7247 53.3333 84.0638 53.1929 84.3139 52.9428C84.5639 52.6928 84.7044 52.3536 84.7044 52C84.7044 51.6464 84.5639 51.3072 84.3139 51.0572C84.0638 50.8071 83.7247 50.6667 83.3711 50.6667H81.3332C81.3332 50.6667 83.2177 49.1591 84.7424 47.9393L84.7461 47.9363L84.7489 47.9341L84.754 47.93L84.758 47.9268L84.76 47.9252L84.7807 47.9086L84.7826 47.9071C84.7938 47.8982 84.805 47.8892 84.8162 47.8803L84.8487 47.8543L84.8629 47.843L84.8653 47.841L84.8684 47.8385L84.8727 47.8351L84.8996 47.8136L84.9014 47.8121L84.9219 47.7957L84.9243 47.7938L84.928 47.7909L84.9305 47.7888L84.9355 47.7848L84.9389 47.7821L84.9505 47.7728L84.9542 47.7699L84.9563 47.7682L84.9664 47.7601L84.9737 47.7543L84.987 47.7436L84.9962 47.7362L85.0059 47.7285L85.0115 47.7241L85.0209 47.7165L85.0453 47.697L85.0516 47.692L85.0845 47.6656L85.1 47.6532L85.1552 47.6091L85.1767 47.5919L85.1805 47.5888L85.1823 47.5874L85.1953 47.577L85.1962 47.5763L85.2083 47.5666L85.2115 47.564L85.215 47.5612L85.2249 47.5533L85.2585 47.5264L85.262 47.5236L85.3445 47.4577L85.412 47.4037L85.4153 47.401L85.4233 47.3946L85.4353 47.385L85.6106 47.2447L85.6152 47.2411L85.6195 47.2377L85.639 47.2221L85.6716 47.1959L85.6809 47.1885L85.6886 47.1823L85.6948 47.1774L85.7009 47.1725L85.7155 47.1608L85.7207 47.1567L85.723 47.1548L85.7344 47.1458L85.7389 47.1421L85.7539 47.1301L85.7704 47.1169L85.7793 47.1098L85.8 47.0932L85.8044 47.0897L85.8176 47.0792L85.8234 47.0745L85.8328 47.067L85.8389 47.0621L85.8638 47.0422L85.8908 47.0206L85.8933 47.0186L85.8978 47.015L85.9083 47.0066L85.9098 47.0054L85.9146 47.0016L85.9326 46.9871L85.9358 46.9846L85.9395 46.9816L85.991 46.9405L85.9963 46.9362L85.9999 46.9334L86.0024 46.9313L86.0346 46.9055L86.0396 46.9015L86.0435 46.8984L86.0501 46.8931L86.0523 46.8914L86.0893 46.8618L86.1071 46.8476L86.1623 46.8034L86.167 46.7997L86.1806 46.7887L86.1814 46.7881L86.1848 46.7854L86.1874 46.7833L86.1884 46.7825L86.1918 46.7798L86.1949 46.7774L86.2 46.7732L86.2123 46.7634L86.2137 46.7623L86.2348 46.7454L86.2359 46.7445L86.2398 46.7414L86.2442 46.7379L86.2585 46.7265L86.2601 46.7252L86.2761 46.7124L86.2769 46.7117L86.2801 46.7092L86.2813 46.7082L86.2872 46.7035L86.2907 46.7007L86.2931 46.6988L86.3095 46.6857L86.3147 46.6814L86.3295 46.6697L86.3334 46.6665L86.3402 46.661L86.3439 46.6581L86.3465 46.656L86.3474 46.6553L86.3509 46.6525L86.3566 46.648L86.3623 46.6434L86.3753 46.633L86.3771 46.6315L86.4093 46.6058L86.4196 46.5975L86.4241 46.5939L86.4331 46.5868L86.4588 46.5662L86.4681 46.5588L86.5022 46.5315L86.5058 46.5286L86.5108 46.5246L86.5219 46.5157L86.5237 46.5143L86.5274 46.5113L86.5291 46.5099L86.53 46.5093L86.5406 46.5007L86.5541 46.49L86.5557 46.4886L86.5576 46.4872L86.5583 46.4866L86.5783 46.4706L86.5808 46.4686L86.5824 46.4673L86.583 46.4668L86.5954 46.4569L86.5999 46.4533L86.601 46.4524L86.6021 46.4516L86.6075 46.4472L86.6131 46.4428L86.6137 46.4423L86.622 46.4356L86.6235 46.4344L86.6243 46.4338L86.6255 46.4329L86.6263 46.4322L86.6277 46.4311L86.6285 46.4305L86.6366 46.424L86.6369 46.4237L86.6372 46.4235L86.6385 46.4224L86.6388 46.4222L86.6394 46.4218L86.6402 46.421L86.6421 46.4196L86.644 46.418L86.6447 46.4175L86.6458 46.4166L86.6459 46.4166L86.6462 46.4163L86.6465 46.416L86.647 46.4156L86.6472 46.4155L86.648 46.4148C87.2308 45.9486 87.6545 45.3127 87.8603 44.5953C88.0661 43.8778 88.0439 43.1141 87.7968 42.4098C87.5498 41.7054 87.09 41.0952 86.4811 40.6636C85.8722 40.2319 85.1442 40 84.3978 40Z" fill="#EFF2FF"/>
<path d="M49.333 16H46.6663C45.93 16 45.333 16.597 45.333 17.3333V17.3333C45.333 18.0697 45.93 18.6667 46.6663 18.6667H49.333C50.0694 18.6667 50.6663 18.0697 50.6663 17.3333C50.6663 16.597 50.0694 16 49.333 16Z" fill="#EFF2FF"/>
<path d="M6.46844 99.162C5.47244 99.162 4.57244 99.036 3.76844 98.784C2.96444 98.52 2.26844 98.142 1.68044 97.65L2.20244 96.462C2.81444 96.93 3.45644 97.278 4.12844 97.506C4.80044 97.734 5.58044 97.848 6.46844 97.848C7.54844 97.848 8.34644 97.65 8.86244 97.254C9.39044 96.846 9.65444 96.312 9.65444 95.652C9.65444 95.124 9.46244 94.704 9.07844 94.392C8.70644 94.08 8.07644 93.834 7.18844 93.654L5.31644 93.276C4.18844 93.036 3.34244 92.646 2.77844 92.106C2.22644 91.554 1.95044 90.822 1.95044 89.91C1.95044 89.154 2.14244 88.494 2.52644 87.93C2.92244 87.366 3.46844 86.928 4.16444 86.616C4.86044 86.304 5.66444 86.148 6.57644 86.148C7.42844 86.148 8.22044 86.286 8.95244 86.562C9.68444 86.826 10.3024 87.21 10.8064 87.714L10.2844 88.866C9.74444 88.374 9.17444 88.02 8.57444 87.804C7.97444 87.576 7.30244 87.462 6.55844 87.462C5.61044 87.462 4.85444 87.684 4.29044 88.128C3.72644 88.56 3.44444 89.136 3.44444 89.856C3.44444 90.432 3.61844 90.888 3.96644 91.224C4.32644 91.56 4.90844 91.806 5.71244 91.962L7.58444 92.358C8.79644 92.61 9.69044 92.994 10.2664 93.51C10.8544 94.014 11.1484 94.704 11.1484 95.58C11.1484 96.288 10.9564 96.912 10.5724 97.452C10.2004 97.992 9.66044 98.412 8.95244 98.712C8.25644 99.012 7.42844 99.162 6.46844 99.162ZM13.3907 102.24V90.252H14.8127V91.818C15.0767 91.278 15.4667 90.858 15.9827 90.558C16.5107 90.246 17.1227 90.09 17.8187 90.09C18.5987 90.09 19.2767 90.276 19.8527 90.648C20.4407 91.008 20.8907 91.53 21.2027 92.214C21.5267 92.886 21.6887 93.69 21.6887 94.626C21.6887 95.55 21.5267 96.354 21.2027 97.038C20.8907 97.71 20.4407 98.232 19.8527 98.604C19.2767 98.976 18.5987 99.162 17.8187 99.162C17.1467 99.162 16.5467 99.012 16.0187 98.712C15.4907 98.412 15.1007 97.998 14.8487 97.47V102.24H13.3907ZM17.5127 97.992C18.3287 97.992 18.9827 97.704 19.4747 97.128C19.9667 96.54 20.2127 95.706 20.2127 94.626C20.2127 93.534 19.9667 92.7 19.4747 92.124C18.9827 91.548 18.3287 91.26 17.5127 91.26C16.6967 91.26 16.0427 91.548 15.5507 92.124C15.0587 92.7 14.8127 93.534 14.8127 94.626C14.8127 95.706 15.0587 96.54 15.5507 97.128C16.0427 97.704 16.6967 97.992 17.5127 97.992ZM27.6708 99.162C26.8188 99.162 26.0808 98.976 25.4568 98.604C24.8328 98.232 24.3468 97.71 23.9988 97.038C23.6628 96.354 23.4948 95.55 23.4948 94.626C23.4948 93.702 23.6628 92.904 23.9988 92.232C24.3468 91.548 24.8328 91.02 25.4568 90.648C26.0808 90.276 26.8188 90.09 27.6708 90.09C28.5108 90.09 29.2428 90.276 29.8668 90.648C30.5028 91.02 30.9888 91.548 31.3248 92.232C31.6728 92.904 31.8468 93.702 31.8468 94.626C31.8468 95.55 31.6728 96.354 31.3248 97.038C30.9888 97.71 30.5028 98.232 29.8668 98.604C29.2428 98.976 28.5108 99.162 27.6708 99.162ZM27.6708 97.992C28.4868 97.992 29.1408 97.704 29.6328 97.128C30.1248 96.54 30.3708 95.706 30.3708 94.626C30.3708 93.534 30.1248 92.7 29.6328 92.124C29.1408 91.548 28.4868 91.26 27.6708 91.26C26.8428 91.26 26.1828 91.548 25.6908 92.124C25.2108 92.7 24.9708 93.534 24.9708 94.626C24.9708 95.706 25.2108 96.54 25.6908 97.128C26.1828 97.704 26.8428 97.992 27.6708 97.992ZM34.1868 99V86.31H35.6448V94.14H35.6808L39.7308 90.252H41.5848L37.1928 94.464L41.9628 99H40.1088L35.6808 94.896H35.6448V99H34.1868ZM47.0502 99.162C45.6702 99.162 44.5782 98.76 43.7742 97.956C42.9702 97.14 42.5682 96.036 42.5682 94.644C42.5682 93.744 42.7482 92.952 43.1082 92.268C43.4682 91.572 43.9602 91.038 44.5842 90.666C45.2202 90.282 45.9522 90.09 46.7802 90.09C47.9682 90.09 48.8982 90.474 49.5702 91.242C50.2422 91.998 50.5782 93.042 50.5782 94.374V94.932H43.9902C44.0382 95.928 44.3262 96.69 44.8542 97.218C45.3822 97.734 46.1142 97.992 47.0502 97.992C47.5782 97.992 48.0822 97.914 48.5622 97.758C49.0422 97.59 49.4982 97.32 49.9302 96.948L50.4342 97.974C50.0382 98.346 49.5342 98.64 48.9222 98.856C48.3102 99.06 47.6862 99.162 47.0502 99.162ZM46.8162 91.17C45.9882 91.17 45.3342 91.428 44.8542 91.944C44.3742 92.46 44.0922 93.138 44.0082 93.978H49.3182C49.2822 93.09 49.0482 92.4 48.6162 91.908C48.1962 91.416 47.5962 91.17 46.8162 91.17ZM52.8383 99V90.252H54.2603V91.746C54.5483 91.194 54.9563 90.78 55.4843 90.504C56.0123 90.228 56.6063 90.09 57.2663 90.09C59.3423 90.09 60.3803 91.242 60.3803 93.546V99H58.9223V93.636C58.9223 92.82 58.7603 92.226 58.4363 91.854C58.1243 91.47 57.6203 91.278 56.9243 91.278C56.1203 91.278 55.4783 91.53 54.9983 92.034C54.5303 92.526 54.2963 93.186 54.2963 94.014V99H52.8383ZM68.1898 99V86.31H76.1998V87.552H69.6298V91.944H75.8218V93.186H69.6298V97.758H76.1998V99H68.1898ZM78.636 99V90.252H80.058V91.746C80.346 91.194 80.754 90.78 81.282 90.504C81.81 90.228 82.404 90.09 83.064 90.09C85.14 90.09 86.178 91.242 86.178 93.546V99H84.72V93.636C84.72 92.82 84.558 92.226 84.234 91.854C83.922 91.47 83.418 91.278 82.722 91.278C81.918 91.278 81.276 91.53 80.796 92.034C80.328 92.526 80.094 93.186 80.094 94.014V99H78.636ZM92.8864 102.402C92.1304 102.402 91.4164 102.3 90.7444 102.096C90.0844 101.904 89.4964 101.61 88.9804 101.214L89.4664 100.152C90.0064 100.536 90.5404 100.812 91.0684 100.98C91.6084 101.148 92.1904 101.232 92.8144 101.232C94.5424 101.232 95.4064 100.344 95.4064 98.568V97.02C95.1544 97.572 94.7584 98.01 94.2184 98.334C93.6904 98.646 93.0844 98.802 92.4004 98.802C91.5964 98.802 90.9004 98.616 90.3124 98.244C89.7244 97.872 89.2684 97.362 88.9444 96.714C88.6324 96.054 88.4764 95.292 88.4764 94.428C88.4764 93.564 88.6324 92.808 88.9444 92.16C89.2684 91.5 89.7244 90.99 90.3124 90.63C90.9004 90.27 91.5964 90.09 92.4004 90.09C93.0844 90.09 93.6904 90.246 94.2184 90.558C94.7584 90.87 95.1544 91.296 95.4064 91.836V90.252H96.8284V98.37C96.8284 99.714 96.4924 100.722 95.8204 101.394C95.1604 102.066 94.1824 102.402 92.8864 102.402ZM92.6704 97.614C93.5104 97.614 94.1764 97.326 94.6684 96.75C95.1604 96.174 95.4064 95.4 95.4064 94.428C95.4064 93.456 95.1604 92.688 94.6684 92.124C94.1764 91.548 93.5104 91.26 92.6704 91.26C91.8424 91.26 91.1824 91.548 90.6904 92.124C90.1984 92.688 89.9524 93.456 89.9524 94.428C89.9524 95.4 90.1984 96.174 90.6904 96.75C91.1824 97.326 91.8424 97.614 92.6704 97.614ZM102.395 99.162C101.507 99.162 100.835 98.904 100.379 98.388C99.9353 97.86 99.7133 97.098 99.7133 96.102V86.31H101.171V95.994C101.171 97.278 101.681 97.92 102.701 97.92C103.001 97.92 103.271 97.884 103.511 97.812L103.475 99.036C103.103 99.12 102.743 99.162 102.395 99.162ZM105.009 88.074V86.436H106.809V88.074H105.009ZM105.189 99V90.252H106.647V99H105.189ZM112.475 99.162C111.791 99.162 111.143 99.066 110.531 98.874C109.919 98.682 109.415 98.412 109.019 98.064L109.487 97.038C109.919 97.386 110.393 97.644 110.909 97.812C111.437 97.968 111.971 98.046 112.511 98.046C113.195 98.046 113.711 97.92 114.059 97.668C114.407 97.416 114.581 97.074 114.581 96.642C114.581 96.306 114.467 96.042 114.239 95.85C114.011 95.646 113.651 95.49 113.159 95.382L111.521 95.022C110.033 94.698 109.289 93.93 109.289 92.718C109.289 91.926 109.601 91.29 110.225 90.81C110.861 90.33 111.689 90.09 112.709 90.09C113.309 90.09 113.879 90.186 114.419 90.378C114.971 90.558 115.427 90.828 115.787 91.188L115.301 92.214C114.953 91.89 114.545 91.644 114.077 91.476C113.621 91.296 113.165 91.206 112.709 91.206C112.037 91.206 111.527 91.338 111.179 91.602C110.831 91.866 110.657 92.214 110.657 92.646C110.657 93.318 111.101 93.75 111.989 93.942L113.627 94.284C114.395 94.452 114.977 94.722 115.373 95.094C115.769 95.454 115.967 95.946 115.967 96.57C115.967 97.374 115.649 98.01 115.013 98.478C114.377 98.934 113.531 99.162 112.475 99.162ZM118.339 99V86.31H119.797V91.692C120.085 91.164 120.487 90.768 121.003 90.504C121.531 90.228 122.119 90.09 122.767 90.09C124.843 90.09 125.881 91.242 125.881 93.546V99H124.423V93.636C124.423 92.82 124.261 92.226 123.937 91.854C123.625 91.47 123.121 91.278 122.425 91.278C121.621 91.278 120.979 91.53 120.499 92.034C120.031 92.526 119.797 93.186 119.797 94.014V99H118.339Z" fill="#2E2E2E"/>
</svg>
