<svg width="24" height="23" viewBox="0 0 24 23" fill="none" xmlns="http://www.w3.org/2000/svg">
<path d="M18.1346 10.5579C18.1346 10.5579 18.1102 10.4932 18.11 10.4927L18.1108 10.4923C18.1071 10.4804 17.2756 7.8281 17.2716 7.81516V7.81535C16.4605 5.3651 15.5567 5.55307 15.5567 5.55307L15.5568 5.55345C15.2838 5.51098 15.0238 5.61532 14.898 5.65338H14.864C14.9072 6.16057 14.6892 6.66195 14.3918 7.00751C12.9914 8.98629 10.1562 9.34723 10.1562 9.34723C10.1562 9.34723 9.69846 9.40816 9.46484 9.42616C7.22187 9.59838 5.85143 8.86076 5.04462 8.09201C4.22252 9.44885 3.85671 10.558 3.85671 10.558C3.26759 12.2095 2.99796 14.2047 4.15962 15.7438L4.15896 15.745C5.01827 16.8522 7.05509 18.1471 9.64324 18.5223L9.64259 18.5216C9.90068 18.5604 10.1676 18.589 10.4415 18.6064V18.6081C10.7764 18.6291 11.197 18.6303 11.5497 18.6081V18.6064C11.8237 18.589 12.0906 18.5604 12.3487 18.5216L12.348 18.5223C14.3884 18.2265 16.7192 17.1792 17.8323 15.745L17.8316 15.7438C18.9934 14.2046 18.7238 12.2094 18.1346 10.5579Z" fill="#4671C6"/>
<path d="M10.9953 18.8117C10.8009 18.8117 10.6066 18.8062 10.4296 18.7951C10.4207 18.7946 10.4119 18.7933 10.4034 18.7916C10.1424 18.7744 9.88226 18.7467 9.62942 18.7091C9.62501 18.7089 9.62051 18.7084 9.61601 18.7077C6.9732 18.3246 4.89635 17.0013 4.01051 15.8598C4.00554 15.8534 4.00095 15.8467 3.99692 15.8398C3.01235 14.5211 2.90257 12.6735 3.67967 10.495L3.68257 10.496C3.70929 10.3849 3.7872 10.1796 3.96992 9.75902C4.14945 9.34606 4.45367 8.70471 4.88379 7.99493C4.91323 7.94627 4.9631 7.91374 5.01935 7.90624C5.07579 7.89893 5.13242 7.91721 5.17348 7.9564C5.88748 8.63656 7.20917 9.41149 9.44998 9.23937C9.67582 9.22202 10.1266 9.16221 10.1311 9.16156C10.1596 9.1579 12.9034 8.78571 14.2382 6.89937C14.2416 6.89449 14.2453 6.88981 14.2491 6.88531C14.5519 6.53384 14.7117 6.07934 14.6767 5.66946C14.6723 5.61715 14.69 5.5654 14.7256 5.52668C14.761 5.48806 14.8112 5.46602 14.8637 5.46602H14.869C14.8773 5.4634 14.8861 5.46049 14.8951 5.45759C15.0424 5.40959 15.2848 5.33027 15.5553 5.36412C15.7681 5.34218 16.6687 5.40424 17.4468 7.74912C17.4482 7.75259 17.4493 7.75606 17.4504 7.75962C17.4578 7.78343 18.2837 10.4175 18.2894 10.4361C18.2903 10.4391 18.2913 10.442 18.2919 10.445L18.3097 10.4919C18.3101 10.493 18.3106 10.494 18.3109 10.4951C19.088 12.6736 18.9782 14.5212 17.9937 15.84C17.9897 15.847 17.9851 15.8536 17.9801 15.86C16.7507 17.4442 14.2789 18.4318 12.3746 18.7079C12.3701 18.7086 12.3656 18.7091 12.3612 18.7093C12.1082 18.7469 11.8479 18.7747 11.5869 18.7918C11.5785 18.7936 11.5699 18.7947 11.561 18.7953C11.3839 18.8062 11.1895 18.8117 10.9953 18.8117ZM10.4783 18.4224C10.7998 18.4413 11.1909 18.4413 11.5126 18.4224C11.5207 18.4207 11.5291 18.4197 11.5376 18.4191C11.8017 18.4024 12.0651 18.3744 12.3206 18.336C12.3257 18.3353 12.3306 18.3347 12.3356 18.3343C14.4862 18.019 16.6745 16.9161 17.6715 15.6458C17.6746 15.6405 17.678 15.6356 17.6817 15.6306C18.6111 14.3993 18.7041 12.7143 17.9583 10.6224C17.9541 10.6113 17.932 10.5524 17.9318 10.5519C17.9296 10.5448 17.9276 10.5378 17.9261 10.5307C17.8554 10.3053 17.1426 8.03168 17.0946 7.87859C17.0942 7.87709 17.0936 7.87568 17.0931 7.87418C16.3887 5.74634 15.652 5.7349 15.5914 5.73743C15.5707 5.74146 15.5489 5.74202 15.5274 5.73856C15.3553 5.71184 15.1828 5.7589 15.0562 5.79921C15.0511 6.25877 14.8639 6.74252 14.5391 7.12287C13.1061 9.13952 10.2983 9.51799 10.1794 9.53309C10.1615 9.53543 9.71473 9.59477 9.47857 9.61296C7.2686 9.78237 5.88926 9.07362 5.08798 8.38456C4.36864 9.61606 4.03742 10.6062 4.03404 10.6166C3.2862 12.7135 3.37901 14.399 4.30864 15.6306C4.31239 15.6355 4.31576 15.6405 4.31885 15.6457C5.16392 16.7219 7.13501 17.9653 9.65492 18.3344C9.65988 18.3347 9.66485 18.3353 9.66992 18.336C9.92529 18.3744 10.1887 18.4024 10.4529 18.4191C10.4617 18.4197 10.4702 18.4208 10.4783 18.4224Z" fill="#3762CC"/>
<path d="M14.2578 17.6923C13.3755 17.6923 13.405 17.6919 13.405 17.6919L13.4047 17.6923H7.8311C6.35866 17.6923 5.16504 18.8859 5.16504 20.3583C5.16504 21.2602 5.16504 21.8751 5.16504 22.7789H16.9238C16.9238 21.8762 16.9238 21.2604 16.9238 20.3583C16.9238 18.886 15.7302 17.6923 14.2578 17.6923Z" fill="#6BDDDD"/>
<path d="M16.924 22.9663H5.16504C5.06154 22.9663 4.97754 22.8823 4.97754 22.7788V20.3582C4.97754 18.7847 6.2577 17.5047 7.8311 17.5047H13.3977C13.401 17.5046 13.4041 17.5047 13.4074 17.5046V17.5044C13.4152 17.5044 13.4953 17.5047 14.2577 17.5047C15.8312 17.5047 17.1112 18.7848 17.1112 20.3582V22.7788C17.1115 22.8823 17.0275 22.9663 16.924 22.9663ZM5.35254 22.5913H16.7364V20.3582C16.7364 18.9916 15.6245 17.8797 14.2579 17.8797L13.5213 17.8795C13.4924 17.8795 13.4621 17.8795 13.4323 17.8776C13.4232 17.879 13.4141 17.8797 13.4048 17.8797H7.8312C6.46451 17.8797 5.35263 18.9916 5.35263 20.3582V22.5913H5.35254Z" fill="#3762CC"/>
<path d="M13.4214 17.6924C12.8429 17.6924 9.24962 17.6924 8.6709 17.6924C8.6709 18.7643 9.04374 19.7306 9.69577 20.4889C10.2978 21.1891 11.1491 21.1087 11.0462 21.1087C12.5447 21.1087 13.4214 19.1978 13.4214 17.6924Z" fill="#E0EBFC"/>
<path d="M11.0439 18.6077L12.4755 20.3607C12.6763 20.6067 13.0508 20.611 13.2573 20.3698L15.4328 17.9649C14.7575 17.6326 14.2137 17.6921 13.4151 17.6921L11.0439 18.6077Z" fill="#4671C6"/>
<path d="M11.0422 18.6077L9.61066 20.3607C9.40985 20.6067 9.03541 20.611 8.82888 20.3698L6.65332 17.9649C7.32195 17.636 7.83298 17.6921 8.6711 17.6921L11.0422 18.6077Z" fill="#4671C6"/>
<path d="M16.1545 10.1716C15.2361 9.51032 14.2852 8.98194 14.0971 7.53782L14.0604 7.4165C12.589 9.03613 10.156 9.34719 10.156 9.34719C10.156 9.34719 9.69817 9.40813 9.46455 9.42613C7.94908 9.54247 6.83223 9.24285 6.01764 8.79932C5.92277 9.32666 5.93664 9.64869 5.93664 10.1717C5.92577 10.1715 5.91527 10.1701 5.90439 10.1701C5.04358 10.1701 4.3457 10.8616 4.3457 11.7148C4.3457 12.6269 5.14192 13.3484 6.07164 13.2502C6.5988 15.49 8.62492 17.159 11.0456 17.159C13.4664 17.159 15.4924 15.49 16.0196 13.2502C16.9483 13.3484 17.7455 12.6279 17.7455 11.7148C17.7455 10.8359 17.0099 10.1489 16.1545 10.1716Z" fill="#F9CFCF"/>
<path d="M11.0456 17.346C8.62464 17.346 6.54236 15.7502 5.92755 13.4457C5.48898 13.4513 5.05905 13.2921 4.73139 12.9972C4.36717 12.6695 4.1582 12.2018 4.1582 11.7142C4.1582 10.8111 4.85852 10.0672 5.74877 9.98889C5.74736 9.5582 5.7468 9.24536 5.83314 8.76555C5.84383 8.7063 5.88227 8.65567 5.93664 8.6297C5.99092 8.60364 6.05448 8.60523 6.10736 8.63411C7.02714 9.13492 8.15167 9.33845 9.4502 9.2387C9.67595 9.22136 10.1267 9.16145 10.1313 9.16089C10.1559 9.1577 12.5157 8.83764 13.9217 7.28992C13.9671 7.23986 14.0359 7.2183 14.1018 7.23311C14.1676 7.24801 14.2205 7.29714 14.24 7.36173L14.2767 7.48305C14.2797 7.49289 14.2819 7.50292 14.2832 7.51314C14.4423 8.73573 15.162 9.24208 15.9954 9.82849C16.0682 9.87967 16.1414 9.93114 16.2144 9.98336C16.6576 9.98852 17.0904 10.1671 17.4107 10.479C17.7476 10.8071 17.9332 11.2458 17.9332 11.7143C17.9332 12.2019 17.7243 12.6695 17.3602 12.9972C17.0379 13.2872 16.618 13.446 16.1858 13.446C16.1785 13.446 16.1711 13.446 16.1639 13.4459C15.5489 15.7502 13.4666 17.346 11.0456 17.346ZM6.07183 13.0622C6.15789 13.0622 6.23411 13.1214 6.25417 13.2068C6.77589 15.4231 8.74623 16.971 11.0456 16.971C13.3451 16.971 15.3155 15.4231 15.837 13.2068C15.8587 13.1148 15.9454 13.0527 16.0392 13.0632C16.4304 13.1046 16.8198 12.9789 17.1091 12.7184C17.3944 12.4617 17.558 12.0956 17.558 11.7143C17.558 11.3479 17.4127 11.0046 17.1489 10.7476C16.885 10.4907 16.527 10.3495 16.1594 10.3587C16.1193 10.3603 16.0782 10.3474 16.0449 10.3235C15.9565 10.2598 15.8677 10.1974 15.7794 10.1352C14.9982 9.58558 14.1919 9.0182 13.9496 7.7973C12.4453 9.22811 10.2763 9.52042 10.1797 9.5328C10.1618 9.53514 9.71495 9.59458 9.4788 9.61267C8.2142 9.7097 7.10055 9.53177 6.16305 9.08364C6.1218 9.40417 6.12255 9.66236 6.12367 9.99442L6.12405 10.1712C6.12405 10.2217 6.1038 10.27 6.0677 10.3052C6.03161 10.3405 5.98342 10.3604 5.93261 10.3586C5.92464 10.3585 5.91667 10.358 5.9088 10.3574C5.90861 10.3574 5.90833 10.3574 5.90814 10.3574C5.14783 10.3574 4.53311 10.966 4.53311 11.7142C4.53311 12.0956 4.6968 12.4617 4.98217 12.7185C5.27139 12.9789 5.66158 13.1048 6.05186 13.0631C6.05861 13.0625 6.06527 13.0622 6.07183 13.0622Z" fill="#3762CC"/>
<path d="M11.0473 14.9801C10.6996 14.9801 10.376 14.8549 10.1595 14.6367C9.99555 14.4714 9.90527 14.263 9.90527 14.0498C9.90527 13.9463 9.98927 13.8623 10.0928 13.8623C10.1963 13.8623 10.2803 13.9463 10.2803 14.0498C10.2803 14.165 10.3306 14.2766 10.4257 14.3725C10.5701 14.5181 10.8026 14.605 11.0473 14.605C11.2937 14.605 11.5192 14.5202 11.6657 14.3725C11.7609 14.2766 11.8112 14.1649 11.8112 14.0498C11.8112 13.9463 11.8952 13.8623 11.9987 13.8623C12.1022 13.8623 12.1862 13.9463 12.1862 14.0498C12.1862 14.2629 12.0959 14.4714 11.932 14.6367C11.7154 14.8549 11.393 14.9801 11.0473 14.9801Z" fill="#3762CC"/>
<path d="M2.72406 15.9719L2.13671 16.046L0.805088 5.48496C0.78465 5.32277 0.899588 5.17465 1.06178 5.15421C1.22396 5.13377 1.37209 5.24871 1.39253 5.4109L2.72406 15.9719Z" fill="#E0EBFC"/>
<path d="M1.2616 14.3005C0.92138 14.3449 0.681567 14.6567 0.726005 14.9968L1.09716 17.8402C1.1416 18.1804 1.45332 18.4202 1.79354 18.3758L4.4971 18.0229C4.83732 17.9785 5.07713 17.6667 5.03269 17.3265L4.66154 14.4832C4.6441 14.3497 4.58513 14.2321 4.49982 14.1406L4.51744 14.1234L3.3675 12.9492C3.22566 12.8044 2.99185 12.7957 2.84504 12.9355C2.51532 13.2495 2.50125 13.7666 2.805 14.0991L1.2616 14.3005Z" fill="#F9CFCF"/>
<path d="M1.71109 18.5689C1.53399 18.5689 1.36271 18.511 1.22002 18.4012C1.04893 18.2696 0.939243 18.0792 0.911306 17.865L0.540056 15.0209C0.482399 14.579 0.794962 14.1725 1.23699 14.1148L2.43784 13.958C2.65187 13.9303 2.86402 13.9872 3.03521 14.1188C3.2064 14.2504 3.31599 14.4408 3.34393 14.6549L3.71518 17.499C3.77284 17.941 3.46018 18.3475 3.01834 18.4051L1.8174 18.5619C1.78187 18.5667 1.74634 18.5689 1.71109 18.5689ZM2.99406 18.2193H2.99499H2.99406ZM2.54331 14.3263C2.52437 14.3263 2.50534 14.3275 2.48631 14.33L1.28546 14.4868C1.17071 14.5018 1.06862 14.5605 0.998118 14.6522C0.927618 14.7439 0.896962 14.8577 0.911962 14.9725L1.28321 17.8166C1.29821 17.9313 1.35699 18.0334 1.44868 18.1039C1.54046 18.1745 1.65446 18.2055 1.76893 18.1901L2.96987 18.0333C3.20677 18.0024 3.37431 17.7845 3.34337 17.5476L2.97212 14.7035C2.95712 14.5888 2.89834 14.4867 2.80665 14.4162C2.73006 14.3574 2.63818 14.3263 2.54331 14.3263Z" fill="#3762CC"/>
<path d="M1.71153 18.5687C1.53435 18.5687 1.36307 18.5108 1.22019 18.4009C1.04891 18.2692 0.939222 18.0787 0.911284 17.8645L0.540128 15.0211C0.51219 14.8069 0.569378 14.5947 0.701003 14.4235C0.832722 14.2523 1.02322 14.1425 1.23744 14.1146L2.48807 13.9512C2.31997 13.5684 2.39863 13.1017 2.71578 12.7996C2.93478 12.5911 3.28738 12.5993 3.5015 12.8179L4.65153 13.992C4.67938 14.0205 4.69644 14.0556 4.70253 14.0922C4.78053 14.2002 4.83022 14.3252 4.84766 14.4588L5.21882 17.3022C5.24675 17.5164 5.18957 17.7286 5.05794 17.8998C4.92622 18.0711 4.73572 18.1808 4.5215 18.2087L1.81794 18.5617C1.78232 18.5665 1.74678 18.5687 1.71153 18.5687ZM3.09725 13.0228C3.05253 13.0228 3.00838 13.0389 2.97435 13.0713C2.72244 13.3113 2.70857 13.7157 2.94341 13.9726C2.99057 14.0243 3.0051 14.0978 2.9811 14.1635C2.9571 14.2291 2.8986 14.276 2.82922 14.2851L1.28591 14.4866C1.04882 14.5175 0.881003 14.7356 0.912034 14.9727L1.28319 17.8161C1.29819 17.9309 1.35697 18.0331 1.44885 18.1037C1.54063 18.1743 1.65444 18.2053 1.76938 18.19L4.47294 17.837C4.58788 17.822 4.68997 17.7632 4.76057 17.6713C4.83116 17.5795 4.86182 17.4657 4.84682 17.3508L4.47566 14.5075C4.46394 14.4177 4.42485 14.3352 4.36269 14.2685C4.34075 14.2451 4.32603 14.2173 4.31844 14.1882L3.23347 13.0804C3.19607 13.0422 3.14638 13.0228 3.09725 13.0228ZM1.26163 14.3006H1.26257H1.26163Z" fill="#3762CC"/>
<path d="M8.12185 13.9058C7.52147 13.9058 7.09585 13.7813 6.83241 13.531C6.82988 13.5285 6.82725 13.5259 6.82482 13.5233C6.57872 13.261 6.41232 12.9373 6.3435 12.5873C6.30882 12.4113 6.29925 12.2315 6.31491 12.0529L6.43828 10.6427C6.44813 10.5305 6.501 10.4288 6.58725 10.3564C6.6736 10.284 6.78319 10.2499 6.89513 10.2594L10.3735 10.5637C10.6976 10.592 10.9382 10.8788 10.9099 11.2029L10.838 12.025C10.7715 12.7851 10.252 13.6284 9.24169 13.7983C8.81682 13.8699 8.44416 13.9058 8.12185 13.9058ZM7.09453 13.2626C7.30941 13.4632 7.84575 13.6529 9.17944 13.4286C9.99225 13.2918 10.4106 12.6086 10.4645 11.9923L10.5364 11.1702C10.5467 11.0521 10.459 10.9476 10.3409 10.9373L6.86241 10.633C6.84675 10.6323 6.83513 10.6381 6.82838 10.6437C6.82163 10.6495 6.81319 10.6595 6.81178 10.6755L6.68841 12.0857C6.67585 12.2291 6.68363 12.3736 6.71147 12.5151C6.76632 12.7941 6.89878 13.0525 7.09453 13.2626ZM6.50166 12.0693H6.5026H6.50166Z" fill="#3762CC"/>
<path d="M13.9566 13.9154C13.5525 13.9154 13.154 13.8484 12.8462 13.7965C11.9713 13.6493 11.3298 12.9366 11.25 12.0231L11.178 11.201C11.1497 10.8768 11.3903 10.5901 11.7144 10.5618L15.1929 10.2575C15.3043 10.2477 15.4142 10.2821 15.5006 10.3545C15.5869 10.4269 15.6398 10.5286 15.6496 10.6408L15.773 12.051C15.7887 12.2296 15.779 12.4094 15.7443 12.5855C15.5316 13.6673 14.7337 13.9153 13.9566 13.9154ZM15.2298 10.6309C15.2283 10.6309 15.227 10.631 15.2254 10.6311L11.747 10.9354C11.6898 10.9405 11.638 10.9674 11.601 11.0114C11.5641 11.0554 11.5466 11.1112 11.5515 11.1684L11.6235 11.9905C11.6882 12.7311 12.2046 13.3083 12.9085 13.4268C14.3115 13.663 15.1648 13.589 15.3765 12.5131C15.4042 12.3717 15.412 12.2273 15.3994 12.0837L15.276 10.6735C15.2746 10.6576 15.2663 10.6475 15.2595 10.6419C15.2535 10.6367 15.2435 10.6309 15.2298 10.6309Z" fill="#3762CC"/>
<path d="M11.8083 11.5459H10.2754C10.1719 11.5459 10.0879 11.4619 10.0879 11.3584C10.0879 11.2549 10.1719 11.1709 10.2754 11.1709H11.8083C11.9118 11.1709 11.9958 11.2549 11.9958 11.3584C11.9958 11.4619 11.9118 11.5459 11.8083 11.5459Z" fill="#3762CC"/>
<path d="M14.294 4.54246C13.3555 3.7319 11.367 2.51671 8.5997 3.49828C7.39989 3.98653 5.75364 5.12465 4.74414 7.77674C5.49245 8.64168 6.91511 9.62175 9.46492 9.426C9.69854 9.40809 10.1563 9.34706 10.1563 9.34706C10.1563 9.34706 12.9915 8.98612 14.3919 7.00734C14.5825 6.7859 14.7178 6.5294 14.8008 6.25725C14.9901 5.63653 14.7852 4.96678 14.294 4.54246Z" fill="#4671C6"/>
<path d="M14.3749 10.9697H13.5957C13.2887 10.9697 13.0391 11.2195 13.0391 11.5263V12.454C13.0391 12.7609 13.2887 13.0106 13.5957 13.0106C13.9025 13.0106 14.1523 12.7609 14.1523 12.454V11.5263C14.1523 11.4776 14.1453 11.4305 14.1335 11.3855H14.375C14.4898 11.3855 14.5828 11.2924 14.5828 11.1777C14.5827 11.0628 14.4897 10.9697 14.3749 10.9697Z" fill="#4671C6"/>
<path d="M8.5203 10.9709V10.9697H7.74105C7.6262 10.9697 7.5332 11.0628 7.5332 11.1776C7.5332 11.2924 7.6263 11.3854 7.74105 11.3854H7.95902C7.9472 11.4305 7.94027 11.4776 7.94027 11.5262V12.4539C7.94027 12.7608 8.18992 13.0105 8.49686 13.0105C8.8037 13.0105 9.05345 12.7608 9.05345 12.4539V11.5262C9.05345 11.2274 8.81627 10.9833 8.5203 10.9709Z" fill="#4671C6"/>
<path d="M5.56819 18.9267C5.54475 18.7406 5.37478 18.6087 5.18869 18.6321L1.98769 19.0357C1.8015 19.0591 1.66969 19.2291 1.69313 19.4152L2.11725 22.7788H6.05391L5.56819 18.9267Z" fill="#6BDDDD"/>
<path d="M6.05389 22.9663H2.11724C2.02274 22.9663 1.94305 22.896 1.93124 22.8023L1.50711 19.4387C1.47074 19.1503 1.67577 18.8861 1.96414 18.8497L5.16523 18.4461C5.30464 18.4286 5.44311 18.4663 5.55439 18.5527C5.66567 18.639 5.73664 18.7635 5.75417 18.9032L6.23989 22.7554C6.24664 22.8087 6.23014 22.8625 6.19451 22.9029C6.15898 22.9432 6.1077 22.9663 6.05389 22.9663ZM2.28261 22.5913H5.84126L5.38217 18.9501C5.37711 18.9098 5.35667 18.8739 5.32451 18.8488C5.29245 18.8239 5.25242 18.813 5.2122 18.8181L2.0112 19.2217C1.92795 19.2322 1.8687 19.3085 1.8793 19.3917L2.28261 22.5913Z" fill="#3762CC"/>
<path d="M19.2485 0.22168H19.0023C16.7763 0.22168 14.9717 2.02627 14.9717 4.25227C14.9717 5.58099 15.6149 6.75924 16.6067 7.49349L16.4759 8.87284C16.4549 9.09418 16.6902 9.24877 16.885 9.14152L18.5035 8.25099C18.667 8.27115 18.8332 8.28287 19.0023 8.28287H19.2485C21.4745 8.28287 23.2791 6.47827 23.2791 4.25227C23.2791 2.02627 21.4745 0.22168 19.2485 0.22168Z" fill="#A4C9FF"/>
<path d="M16.7514 9.36343C16.6626 9.36343 16.5739 9.33784 16.4965 9.28702C16.3523 9.19234 16.2728 9.02687 16.2891 8.85512L16.4102 7.57955C15.3901 6.78324 14.7842 5.54752 14.7842 4.25227C14.7842 1.92643 16.6764 0.0341797 19.0022 0.0341797H19.2484C21.5742 0.0341797 23.4664 1.92643 23.4664 4.25227C23.4664 6.57812 21.5741 8.47037 19.2484 8.47037H19.0022C18.8514 8.47037 18.7 8.46184 18.5413 8.4443L16.9753 9.30587C16.9053 9.34431 16.8282 9.36343 16.7514 9.36343ZM19.0022 0.409086C16.8831 0.409086 15.1592 2.13315 15.1592 4.25218C15.1592 5.46465 15.742 6.61993 16.7182 7.34265C16.771 7.38174 16.7995 7.44568 16.7933 7.51102L16.6625 8.89037C16.6579 8.93874 16.6888 8.96462 16.7024 8.97352C16.7159 8.98234 16.7522 9.00043 16.7946 8.97718L18.4131 8.08665C18.4476 8.06762 18.4872 8.06002 18.5265 8.0649C18.6922 8.08534 18.8478 8.09527 19.0022 8.09527H19.2484C21.3675 8.09527 23.0914 6.3713 23.0914 4.25218C23.0914 2.13305 21.3675 0.409086 19.2484 0.409086H19.0022Z" fill="#3762CC"/>
<path d="M17.3801 6.26674C17.0068 6.26674 16.7382 6.16033 16.6034 5.95896C16.51 5.81936 16.4849 5.64311 16.5288 5.43489C16.6607 4.8093 17.3932 3.99452 18.395 3.35917C19.2375 2.82489 20.1303 2.50586 20.7836 2.50586C21.1569 2.50586 21.4255 2.61227 21.5603 2.81364C21.6537 2.95323 21.6788 3.12958 21.6349 3.3377C21.503 3.9633 20.7705 4.77808 19.7687 5.41342C18.9262 5.94771 18.0334 6.26674 17.3802 6.26674C17.3802 6.26674 17.3802 6.26674 17.3801 6.26674ZM20.7774 2.74839C20.1717 2.74839 19.3311 3.05214 18.5288 3.56102C17.452 4.24399 16.8718 5.01564 16.7744 5.47755C16.7439 5.62211 16.7573 5.73855 16.8143 5.82377C16.9009 5.95296 17.104 6.02411 17.3865 6.02411C17.9922 6.02411 18.8328 5.72036 19.6351 5.21149C20.7119 4.52852 21.2922 3.75677 21.3896 3.29495C21.4201 3.15039 21.4067 3.03395 21.3497 2.94873C21.263 2.81955 21.0599 2.74839 20.7774 2.74839Z" fill="#E0EBFC"/>
<path d="M20.7836 6.26674C19.2378 6.26664 16.79 4.57605 16.5288 3.3377C16.4849 3.12948 16.5099 2.95314 16.6034 2.81364C16.7381 2.61227 17.0067 2.50586 17.3801 2.50586C18.0334 2.50586 18.9262 2.8248 19.7687 3.35917C20.7705 3.99452 21.5031 4.8093 21.635 5.43489C21.6788 5.64311 21.6538 5.81946 21.5603 5.95896C21.4255 6.16033 21.1569 6.26674 20.7836 6.26674ZM17.3863 2.74839C17.1038 2.74839 16.9007 2.81955 16.8142 2.94873C16.7572 3.03386 16.7437 3.15039 16.7742 3.29495C17.0058 4.39267 19.3281 6.02411 20.7773 6.02411C21.0597 6.02411 21.2629 5.95296 21.3494 5.82377C21.4064 5.73864 21.4198 5.62211 21.3893 5.47755C21.2919 5.01564 20.7116 4.24399 19.6349 3.56102C18.8326 3.05224 17.992 2.74839 17.3863 2.74839Z" fill="#E0EBFC"/>
<path d="M19.0816 4.96402C19.3732 4.96402 19.6095 4.72766 19.6095 4.43611C19.6095 4.14455 19.3732 3.9082 19.0816 3.9082C18.7901 3.9082 18.5537 4.14455 18.5537 4.43611C18.5537 4.72766 18.7901 4.96402 19.0816 4.96402Z" fill="#4671C6"/>
<path d="M19.0817 7.26661C18.7417 7.26661 18.4238 6.96427 18.1866 6.41527C17.9523 5.87292 17.8232 5.15227 17.8232 4.38624C17.8232 3.6202 17.9523 2.89955 18.1866 2.3572C18.4238 1.8082 18.7417 1.50586 19.0817 1.50586C19.4218 1.50586 19.7397 1.8082 19.9769 2.3572C20.2111 2.89955 20.3402 3.6202 20.3402 4.38624C20.3402 5.15227 20.2111 5.87292 19.9769 6.41527C19.7398 6.96427 19.4219 7.26661 19.0817 7.26661ZM19.0818 1.75252C18.8483 1.75252 18.5941 2.02411 18.402 2.47908C18.1874 2.98702 18.0691 3.66436 18.0691 4.38624C18.0691 5.10811 18.1874 5.78536 18.402 6.29339C18.5941 6.74836 18.8483 7.01996 19.0818 7.01996C19.3154 7.01996 19.5695 6.74836 19.7617 6.29339C19.9763 5.78536 20.0945 5.10811 20.0945 4.38624C20.0945 3.66436 19.9763 2.98711 19.7617 2.47908C19.5695 2.02411 19.3154 1.75252 19.0818 1.75252Z" fill="#E0EBFC"/>
<path d="M19.0824 2.07352C19.3323 2.07352 19.5349 1.87091 19.5349 1.62099C19.5349 1.37106 19.3323 1.16846 19.0824 1.16846C18.8325 1.16846 18.6299 1.37106 18.6299 1.62099C18.6299 1.87091 18.8325 2.07352 19.0824 2.07352Z" fill="#F9A7A7"/>
<path d="M21.5267 6.2952C21.7767 6.2952 21.9793 6.09259 21.9793 5.84267C21.9793 5.59274 21.7767 5.39014 21.5267 5.39014C21.2768 5.39014 21.0742 5.59274 21.0742 5.84267C21.0742 6.09259 21.2768 6.2952 21.5267 6.2952Z" fill="#EAA97D"/>
<path d="M16.725 6.2952C16.9749 6.2952 17.1775 6.09259 17.1775 5.84267C17.1775 5.59274 16.9749 5.39014 16.725 5.39014C16.4751 5.39014 16.2725 5.59274 16.2725 5.84267C16.2725 6.09259 16.4751 6.2952 16.725 6.2952Z" fill="#FFEA92"/>
<path d="M8.82115 9.63894C6.59815 9.63903 5.30805 8.7154 4.6023 7.89959C4.55721 7.84737 4.54436 7.77462 4.56893 7.71022C5.60149 4.99737 7.29237 3.82803 8.52902 3.32469C11.393 2.30881 13.4466 3.563 14.4166 4.40065C14.9677 4.87672 15.1889 5.627 14.9802 6.31212C14.8874 6.61681 14.7392 6.88962 14.5399 7.12297C13.1069 9.13962 10.2991 9.518 10.1801 9.53319C10.1623 9.53553 9.71552 9.59497 9.47937 9.61306C9.25137 9.63059 9.0319 9.63894 8.82115 9.63894ZM4.96015 7.73797C5.69561 8.5445 7.05902 9.4235 9.4504 9.23928C9.67624 9.22194 10.1269 9.16203 10.1315 9.16147C10.1601 9.15781 12.9038 8.78562 14.2387 6.89928C14.2422 6.8944 14.2458 6.88972 14.2497 6.88522C14.4178 6.68994 14.5428 6.46044 14.6214 6.2029C14.7869 5.65972 14.6102 5.06365 14.1713 4.68462C13.2629 3.90003 11.3394 2.72572 8.66224 3.67522C7.51849 4.14087 5.94771 5.22659 4.96015 7.73797Z" fill="#3762CC"/>
<path d="M4.86376 18.6732L4.76522 17.9185C4.68713 17.9718 4.59732 18.0102 4.4971 18.0234L2.06738 18.3405L2.15541 19.0148L4.86376 18.6732Z" fill="#F9CFCF"/>
<path d="M2.15519 19.2017C2.06237 19.2017 1.98184 19.1329 1.96947 19.0385L1.88144 18.3642C1.87506 18.3149 1.88847 18.265 1.91875 18.2257C1.94903 18.1863 1.99384 18.1605 2.04315 18.154L4.47287 17.8369C4.53747 17.8284 4.60028 17.8037 4.65944 17.7632C4.71325 17.7263 4.78244 17.7202 4.84178 17.7468C4.90131 17.7734 4.94275 17.829 4.95119 17.8937L5.04972 18.6484C5.05619 18.6978 5.04259 18.7478 5.01212 18.7872C4.98165 18.8266 4.93665 18.8524 4.88715 18.8587L2.17872 19.2002C2.17094 19.2012 2.16306 19.2017 2.15519 19.2017ZM2.27762 18.5017L2.31719 18.8048L4.65353 18.5103L4.6119 18.1914C4.58219 18.199 4.552 18.2048 4.52144 18.2089L2.27762 18.5017Z" fill="#3762CC"/>
<path d="M8.6709 16.5781V17.6923L11.0421 18.6079H11.0444L13.4156 17.6923H13.4214V16.5781C11.9423 17.3501 10.1612 17.3559 8.6709 16.5781Z" fill="#4671C6"/>
<path d="M8.6709 16.5781V17.6923L11.0421 18.6079H11.0444L13.4156 17.6923H13.4214V16.5781C11.9423 17.3501 10.1612 17.3559 8.6709 16.5781Z" fill="#F9CFCF"/>
<path d="M11.0443 18.7955C11.0211 18.7955 10.996 18.7913 10.9744 18.783L8.6033 17.8672C8.53102 17.8393 8.4834 17.7698 8.4834 17.6923V16.5781C8.4834 16.5126 8.51762 16.4518 8.57368 16.4178C8.62984 16.3839 8.69949 16.3815 8.75762 16.4119C10.1905 17.1597 11.9015 17.1598 13.3346 16.4119C13.3927 16.3815 13.4624 16.3838 13.5186 16.4178C13.5747 16.4519 13.6089 16.5126 13.6089 16.5781V17.6923C13.6089 17.782 13.5459 17.8569 13.4618 17.8755L11.112 18.783C11.0902 18.7913 11.0673 18.7955 11.0443 18.7955ZM8.8583 17.5637L11.0431 18.4075L13.2338 17.5615V16.8778C11.8438 17.5047 10.2482 17.5047 8.8583 16.8778V17.5637Z" fill="#3762CC"/>
<path d="M12.8703 20.7355C12.8675 20.7355 12.8647 20.7355 12.862 20.7355C12.655 20.7331 12.4612 20.6397 12.3303 20.4794L10.8987 18.7263C10.8607 18.6797 10.8473 18.6179 10.8627 18.5597C10.8781 18.5016 10.9203 18.4545 10.9764 18.4328L13.3476 17.5172C13.3692 17.5088 13.3922 17.5046 13.4152 17.5046C13.5235 17.5046 13.6272 17.5035 13.727 17.5024C14.3786 17.4956 14.8925 17.4901 15.5157 17.7967C15.5685 17.8227 15.6061 17.8719 15.6171 17.9297C15.6281 17.9874 15.6114 18.047 15.572 18.0907L13.3965 20.4956C13.2669 20.647 13.0743 20.7355 12.8703 20.7355ZM11.3528 18.6895L12.6208 20.2422C12.6813 20.3163 12.7709 20.3594 12.8664 20.3605C12.9614 20.3655 13.0527 20.3206 13.1148 20.2479L15.1184 18.0331C14.6721 17.8673 14.2647 17.8716 13.731 17.8773C13.6406 17.8783 13.5472 17.8793 13.4502 17.8795L11.3528 18.6895Z" fill="#3762CC"/>
<path d="M9.21595 20.7356C9.01195 20.7356 8.81939 20.647 8.68654 20.4918L6.51426 18.0908C6.47479 18.0472 6.45811 17.9875 6.46917 17.9297C6.48023 17.872 6.51782 17.8227 6.57061 17.7968C7.19039 17.4918 7.67854 17.4963 8.35523 17.5027C8.45554 17.5036 8.56045 17.5047 8.67117 17.5047C8.69432 17.5047 8.7172 17.5089 8.73876 17.5172L11.1099 18.4329C11.166 18.4545 11.2082 18.5017 11.2236 18.5598C11.239 18.618 11.2256 18.6798 11.1876 18.7264L9.75604 20.4795C9.62508 20.6398 9.43129 20.7331 9.2242 20.7356C9.22139 20.7356 9.21867 20.7356 9.21595 20.7356ZM6.96764 18.0329L8.96798 20.244C9.03361 20.3205 9.12248 20.3624 9.21979 20.3605C9.31551 20.3594 9.40504 20.3162 9.46551 20.2422L10.7335 18.6895L8.63611 17.8795C8.53701 17.8793 8.44251 17.8785 8.35167 17.8776C7.79911 17.8726 7.40639 17.8688 6.96764 18.0329Z" fill="#3762CC"/>
</svg>
