<svg width="260" height="243" viewBox="0 0 260 243" fill="none" xmlns="http://www.w3.org/2000/svg">
<path d="M175.258 171.864H81.9893C74.1495 171.864 67.7715 165.486 67.7715 157.646V64.3768C67.7715 56.537 74.1495 50.1589 81.9893 50.1589H175.258C183.098 50.1589 189.476 56.537 189.476 64.3768V157.646C189.476 165.486 183.098 171.864 175.258 171.864ZM81.9893 52.4338C75.3934 52.4338 70.0463 57.7808 70.0463 64.3768V157.646C70.0463 164.242 75.3934 169.589 81.9893 169.589H147.322C169.347 169.589 187.201 151.734 187.201 129.709V64.3768C187.201 57.7808 181.854 52.4338 175.258 52.4338H81.9893V52.4338Z" fill="#F2F2F2"/>
<path d="M92.0445 62.1328C87.6302 62.1328 84.0391 65.7239 84.0391 70.1383V82.6685C84.0391 87.0829 87.6302 90.674 92.0445 90.674H104.575C108.989 90.674 112.58 87.0829 112.58 82.6685V70.1383C112.58 65.7239 108.989 62.1328 104.575 62.1328H92.0445Z" fill="#F2F2F2"/>
<path d="M92.0445 97.407C87.6302 97.407 84.0391 100.998 84.0391 105.412V117.943C84.0391 122.357 87.6302 125.948 92.0445 125.948H104.575C108.989 125.948 112.58 122.357 112.58 117.943V105.412C112.58 100.998 108.989 97.407 104.575 97.407H92.0445Z" fill="#F2F2F2"/>
<path d="M92.0445 132.681C87.6302 132.681 84.0391 136.272 84.0391 140.687V153.217C84.0391 157.631 87.6302 161.223 92.0445 161.223H104.575C108.989 161.223 112.58 157.631 112.58 153.217V140.687C112.58 136.272 108.989 132.681 104.575 132.681H92.0445Z" fill="#F2F2F2"/>
<path d="M100.353 31.5615C94.7905 31.5615 90.2656 36.0864 90.2656 41.6486V57.4371C90.2656 62.9993 94.7905 67.5242 100.353 67.5242H116.141C121.703 67.5242 126.228 62.9993 126.228 57.4371V41.6486C126.228 36.0864 121.703 31.5615 116.141 31.5615H100.353Z" fill="#FFCC00"/>
<path d="M152.333 75.6838C146.771 75.6838 142.246 80.2087 142.246 85.7709V101.559C142.246 107.122 146.771 111.647 152.333 111.647H168.122C173.684 111.647 178.209 107.122 178.209 101.559V85.7709C178.209 80.2087 173.684 75.6838 168.122 75.6838H152.333Z" fill="#FFCC00"/>
<path d="M129.735 234.601L126.527 234.574L125.107 221.914L129.841 221.954L129.735 234.601Z" fill="#A0616A"/>
<path d="M119.461 239.702C119.454 240.491 120.09 241.141 120.883 241.148L127.26 241.201L128.376 238.938L128.786 241.213L131.193 241.235L130.585 233.122L129.748 233.067L126.333 232.831L125.232 232.758L125.212 235.053L120.089 238.528C119.7 238.792 119.465 239.231 119.461 239.702H119.461Z" fill="#2F2E41"/>
<path d="M146.053 234.601L142.846 234.574L141.426 221.914L146.16 221.954L146.053 234.601Z" fill="#A0616A"/>
<path d="M135.779 239.702C135.772 240.491 136.409 241.141 137.201 241.148L143.578 241.201L144.695 238.938L145.105 241.213L147.511 241.235L146.903 233.122L146.066 233.067L142.652 232.831L141.55 232.758L141.531 235.053L136.408 238.528C136.018 238.792 135.783 239.231 135.779 239.702Z" fill="#2F2E41"/>
<path d="M117.148 132.245L130.149 132.655L142.466 135.393C142.466 135.393 141.235 136.898 145.34 141.004C145.34 141.004 150.815 150.584 146.983 159.89L145.34 197.115C145.34 197.115 150.129 223.356 146.47 231.708L141.635 232.01L133.453 197.418L129.465 160.164L127.549 196.841C127.549 196.841 134.879 222.016 130.25 232.01L125.013 231.708L116.053 196.841C116.053 196.841 112.221 156.605 112.768 148.941C113.316 141.277 117.148 132.245 117.148 132.245H117.148Z" fill="#2F2E41"/>
<path d="M160.81 73.4236C159.033 73.8838 157.965 75.6977 158.425 77.475C158.636 78.2894 159.133 78.952 159.779 79.3896L159.778 79.3942L159.526 85.5012L164.2 87.664L164.573 78.2662L164.54 78.2672C164.945 77.5453 165.086 76.6732 164.862 75.8084C164.401 74.0311 162.588 72.9634 160.81 73.4236V73.4236Z" fill="#A0616A"/>
<path d="M134.69 95.2195C133.709 94.2463 133.139 92.927 133.118 91.4922C133.089 89.5675 134.054 87.8206 135.698 86.8194C137.591 85.6663 139.959 85.783 141.73 87.1162L156.405 98.1658L159.02 82.248L164.634 84.0553L163.295 104.782C163.201 106.232 162.382 107.51 161.103 108.199C159.824 108.889 158.307 108.871 157.044 108.153L135.835 96.0866C135.409 95.8442 135.026 95.5519 134.69 95.2195V95.2195Z" fill="#3F3D56"/>
<path d="M112.312 64.5199C113.25 66.0981 112.731 68.138 111.153 69.0761C110.43 69.506 109.611 69.6266 108.844 69.483L108.841 69.4863L104.72 74.0007L99.8789 72.2463L106.231 65.3098L106.253 65.3334C106.473 64.5355 106.988 63.8175 107.756 63.3611C109.334 62.4229 111.374 62.9418 112.312 64.5199Z" fill="#A0616A"/>
<path d="M114.092 98.1976L90.536 91.8346C89.1334 91.4557 88.0439 90.3997 87.6211 89.0097C87.1983 87.6196 87.5157 86.1357 88.4699 85.0401L102.112 69.3777L107.371 72.0469L98.021 85.1919L116.222 87.6775C118.419 87.9775 120.182 89.5616 120.715 91.7134C121.177 93.582 120.632 95.5017 119.257 96.8483C118.232 97.8522 116.898 98.3881 115.516 98.388C115.044 98.388 114.566 98.3254 114.092 98.1976H114.092Z" fill="#3F3D56"/>
<path d="M147.677 137.721L114.736 139.232C113.831 137.858 114.076 135.793 115.343 133.206C120.127 123.438 116.494 104.961 114.05 95.339C113.364 92.6395 115.205 89.9558 117.977 89.6786L121.082 89.368L123.953 80.604H134.008L138.18 85.3696L145.259 89.6702C143.971 102.943 138.48 121.685 146.302 131.085C148.013 133.14 148.498 135.363 147.677 137.721Z" fill="#3F3D56"/>
<path d="M127.702 80.8064C133.111 80.8064 137.496 76.4216 137.496 71.0126C137.496 65.6036 133.111 61.2188 127.702 61.2188C122.293 61.2188 117.908 65.6036 117.908 71.0126C117.908 76.4216 122.293 80.8064 127.702 80.8064Z" fill="#A0616A"/>
<path d="M138.784 64.7436C140.147 59.7756 125.295 55.5155 122.409 59.5162C122.008 58.9474 120.525 58.6019 119.845 58.7764C119.164 58.9509 118.592 59.3871 118.033 59.8093C117.266 60.3991 116.47 61.0098 115.999 61.8577C115.524 62.7022 115.451 63.8538 116.09 64.5866C116.596 65.1693 117.485 68.2661 118.246 68.4196C118.776 68.5278 119.223 68.615 119.607 68.6778C119.949 68.1788 120.821 67.552 120.758 66.9483C121.274 67.2903 121.086 67.8919 120.981 68.5068C120.635 70.5545 112.823 86.4051 117.297 81.7343C117.74 81.996 118.288 82.2403 118.92 82.4636C119.991 80.8479 120.87 78.9426 121.45 76.9501L121.454 76.9869C121.653 78.7185 122.919 80.1393 124.593 80.6243C131.309 82.57 136.741 79.715 138.61 74.5666C137.926 73.1777 137.628 73.3286 137.689 73.2873C138.543 72.7117 139.717 73.0881 140.084 74.0503C140.192 74.334 140.291 74.5762 140.376 74.7585C141.349 71.2759 142.507 71.7786 138.784 64.7436H138.784Z" fill="#2F2E41"/>
<path d="M134.15 61.1392L133.464 57.632C133.406 57.3372 133.352 57.0173 133.485 56.7479C133.655 56.4018 134.095 56.2583 134.477 56.3135C134.859 56.3686 135.144 56.7176 135.524 56.7848C136.846 57.0184 138.593 55.7131 139.066 59.0153C139.264 60.392 141.46 60.5375 142.194 61.7191C142.928 62.9007 143.018 64.6062 142.017 65.5716C141.217 66.3425 139.933 66.4315 138.894 66.0377C137.855 65.6438 137.022 64.8483 136.294 64.0095C135.566 63.1706 134.906 62.2628 134.066 61.5358" fill="#2F2E41"/>
<path d="M139.307 66.4735C136.627 66.0992 134.801 65.1245 133.878 63.5769C132.67 61.551 133.479 59.3203 133.514 59.2263L134.081 59.4369C134.073 59.4574 133.339 61.4994 134.4 63.2726C135.226 64.652 136.905 65.5277 139.391 65.875L139.307 66.4735Z" fill="#FFCC00"/>
<path d="M151.883 28.578C144.004 28.578 137.594 22.1675 137.594 14.289C137.594 6.41051 144.004 0 151.883 0C159.761 0 166.172 6.41051 166.172 14.289C166.172 22.1675 159.761 28.578 151.883 28.578ZM151.883 5.7156C147.155 5.7156 143.309 9.56135 143.309 14.289C143.309 19.0166 147.155 22.8624 151.883 22.8624C156.61 22.8624 160.456 19.0166 160.456 14.289C160.456 9.56135 156.61 5.7156 151.883 5.7156Z" fill="#FFCC00"/>
<path d="M173.869 38.2886C173.168 38.2886 172.466 38.0333 171.915 37.5156L158.504 24.9471C157.351 23.8685 157.293 22.06 158.373 20.9088C159.45 19.7534 161.258 19.6962 162.411 20.7776L175.822 33.3461C176.975 34.4248 177.034 36.2332 175.954 37.3844C175.391 37.9858 174.631 38.2886 173.869 38.2886Z" fill="#FFCC00"/>
<path d="M234.482 234.281C235.453 234.342 235.99 233.134 235.255 232.431L235.182 232.14C235.192 232.117 235.201 232.094 235.211 232.07C236.194 229.727 239.524 229.743 240.498 232.09C241.363 234.173 242.464 236.259 242.735 238.461C242.856 239.433 242.802 240.423 242.586 241.377C244.612 236.951 245.678 232.118 245.678 227.258C245.678 226.036 245.612 224.815 245.475 223.597C245.362 222.601 245.208 221.61 245.007 220.629C243.923 215.325 241.574 210.274 238.187 206.054C236.559 205.164 235.201 203.773 234.381 202.105C234.086 201.503 233.855 200.856 233.746 200.197C233.931 200.222 234.445 197.399 234.305 197.226C234.563 196.834 235.025 196.64 235.307 196.257C236.71 194.356 238.643 194.688 239.652 197.272C241.807 198.36 241.828 200.163 240.505 201.898C239.664 203.002 239.548 204.496 238.81 205.677C238.886 205.775 238.965 205.869 239.041 205.966C240.434 207.752 241.638 209.672 242.653 211.689C242.367 209.447 242.79 206.747 243.512 205.006C244.335 203.023 245.876 201.352 247.233 199.637C248.863 197.578 252.206 198.476 252.493 201.087C252.496 201.113 252.499 201.138 252.501 201.163C252.3 201.277 252.102 201.398 251.909 201.525C250.809 202.253 251.189 203.959 252.493 204.16L252.522 204.165C252.45 204.891 252.325 205.611 252.143 206.318C253.884 213.051 250.125 215.504 244.758 215.614C244.64 215.675 244.524 215.735 244.406 215.793C244.949 217.324 245.384 218.895 245.706 220.486C245.994 221.893 246.195 223.315 246.307 224.742C246.447 226.544 246.435 228.354 246.283 230.153L246.292 230.089C246.678 228.108 247.753 226.258 249.315 224.976C251.641 223.066 254.927 222.362 257.436 220.826C258.644 220.087 260.192 221.042 259.981 222.443L259.971 222.51C259.597 222.661 259.233 222.838 258.881 223.035C258.679 223.149 258.481 223.27 258.289 223.397C257.188 224.125 257.569 225.831 258.872 226.032L258.902 226.036C258.923 226.039 258.941 226.043 258.963 226.046C258.322 227.567 257.428 228.98 256.311 230.198C255.222 236.076 250.546 236.634 245.545 234.922H245.542C244.995 237.304 244.196 239.63 243.169 241.848H234.694C234.663 241.754 234.636 241.657 234.609 241.562C235.393 241.611 236.182 241.565 236.954 241.423C236.325 240.651 235.696 239.873 235.068 239.102C235.052 239.087 235.04 239.071 235.028 239.056C234.709 238.661 234.387 238.27 234.068 237.875L234.068 237.874C234.048 236.662 234.193 235.454 234.481 234.281L234.482 234.281Z" fill="#F2F2F2"/>
</svg>
