<svg width="48" height="49" viewBox="0 0 48 49" fill="none" xmlns="http://www.w3.org/2000/svg">
<path d="M5 20.4825C5 24.7625 4.16 28.2625 3.1 28.4725C3.06735 28.4808 3.03364 28.4842 3 28.4825C1.9 28.4825 1 24.9025 1 20.4825C1 16.0625 1.9 12.4825 3 12.4825L3.1 12.4925C4.16 12.7025 5 16.2025 5 20.4825Z" fill="#C7CCF0"/>
<path d="M45 12.4826C46.1 12.4826 47 16.0626 47 20.4826C47 24.9026 46.1 28.4826 45 28.4826C44.9664 28.4842 44.9327 28.4808 44.9 28.4726C43.84 28.2626 43 24.7626 43 20.4826C43 16.2026 43.84 12.7026 44.9 12.4926C44.9327 12.4843 44.9664 12.4809 45 12.4826Z" fill="#C7CCF0"/>
<path d="M19 22.0225V14.4825C18.9996 14.3272 19.0198 14.1726 19.06 14.0225C19.1634 13.5852 19.411 13.1955 19.7629 12.9161C20.1149 12.6367 20.5506 12.484 21 12.4825H27C27.4494 12.484 27.8851 12.6367 28.2371 12.9161C28.589 13.1955 28.8367 13.5852 28.94 14.0225C28.9802 14.1726 29.0004 14.3272 29 14.4825V22.0225C28.2881 21.6234 27.4734 21.4459 26.66 21.5125C25.9326 20.8499 24.984 20.4826 24 20.4826C23.016 20.4826 22.0674 20.8499 21.34 21.5125C20.5266 21.4459 19.7119 21.6234 19 22.0225Z" fill="#FFB37D"/>
<path d="M28.9999 14.0026L44.8999 12.4926C43.8399 12.7026 42.9999 16.2026 42.9999 20.4826C42.9999 24.7626 43.8399 28.2626 44.8999 28.4726L31.9999 27.2426L31.8199 27.3026C31.6407 26.7563 31.3514 26.2526 30.9699 25.8226C31.0219 25.2431 30.9468 24.6592 30.7499 24.1117C30.553 23.5642 30.2391 23.0662 29.8299 22.6526C29.5829 22.4061 29.3037 22.1942 28.9999 22.0226V14.4826C29.0003 14.3272 28.9802 14.1726 28.9399 14.0226L28.9999 14.0026Z" fill="#F7F7FF"/>
<path d="M19.0001 14.4826V22.0226C18.6963 22.1942 18.4171 22.4061 18.1701 22.6526C17.761 23.0662 17.447 23.5642 17.2501 24.1117C17.0532 24.6592 16.9781 25.2431 17.0301 25.8226C16.6486 26.2526 16.3593 26.7563 16.1801 27.3026L16.0001 27.2426L3.1001 28.4726C4.1601 28.2626 5.0001 24.7626 5.0001 20.4826C5.0001 16.2026 4.1601 12.7026 3.1001 12.4926L19.0001 14.0026L19.0601 14.0226C19.0199 14.1726 18.9997 14.3272 19.0001 14.4826Z" fill="#F7F7FF"/>
<path d="M24 36.4826L20 44.4826L18 40.4826L14 42.4826L17.82 33.8926C17.9226 34.0437 18.0398 34.1844 18.17 34.3126C18.5837 34.7217 19.0816 35.0357 19.6291 35.2326C20.1766 35.4295 20.7605 35.5045 21.34 35.4526C22.0694 36.1121 23.0167 36.4789 24 36.4826Z" fill="#FFB37D"/>
<path d="M30.18 33.8926L34 42.4826L30 40.4826L28 44.4826L24 36.4826C24.9833 36.4789 25.9306 36.1121 26.66 35.4526C27.2395 35.5045 27.8234 35.4295 28.3709 35.2326C28.9184 35.0357 29.4163 34.7217 29.83 34.3126C29.9602 34.1844 30.0774 34.0437 30.18 33.8926Z" fill="#FFB37D"/>
<path d="M24 32.4825C26.2091 32.4825 28 30.6917 28 28.4825C28 26.2734 26.2091 24.4825 24 24.4825C21.7909 24.4825 20 26.2734 20 28.4825C20 30.6917 21.7909 32.4825 24 32.4825Z" fill="#B079FF"/>
<path d="M31.4501 26.4826C31.8101 27.0876 32.0001 27.7786 32.0001 28.4826C32.0001 29.1866 31.8101 29.8776 31.4501 30.4826C31.3131 30.7184 31.1522 30.9396 30.9701 31.1426C31.0592 32.1257 30.7775 33.1067 30.1801 33.8926C30.0774 34.0437 29.9602 34.1844 29.8301 34.3126C29.4164 34.7217 28.9184 35.0357 28.3709 35.2326C27.8234 35.4295 27.2396 35.5045 26.6601 35.4526C25.9326 36.1152 24.9841 36.4825 24.0001 36.4825C23.0161 36.4825 22.0675 36.1152 21.3401 35.4526C20.7606 35.5045 20.1767 35.4295 19.6292 35.2326C19.0817 35.0357 18.5837 34.7217 18.1701 34.3126C18.0399 34.1844 17.9227 34.0437 17.8201 33.8926C17.2227 33.1067 16.9409 32.1257 17.0301 31.1426C16.8479 30.9396 16.687 30.7184 16.5501 30.4826C16.19 29.8776 16 29.1866 16 28.4826C16 27.7786 16.19 27.0876 16.5501 26.4826C16.687 26.2467 16.8479 26.0256 17.0301 25.8226C16.9748 25.2428 17.0484 24.6581 17.2455 24.1101C17.4425 23.5621 17.7583 23.0644 18.1701 22.6526C18.5818 22.2408 19.0795 21.9251 19.6275 21.728C20.1755 21.5309 20.7603 21.4574 21.3401 21.5126C22.0675 20.8499 23.0161 20.4827 24.0001 20.4827C24.9841 20.4827 25.9326 20.8499 26.6601 21.5126C27.2398 21.4574 27.8246 21.5309 28.3726 21.728C28.9206 21.9251 29.4183 22.2408 29.8301 22.6526C30.2419 23.0644 30.5576 23.5621 30.7546 24.1101C30.9517 24.6581 31.0253 25.2428 30.9701 25.8226C31.1522 26.0256 31.3131 26.2467 31.4501 26.4826ZM28.0001 28.4826C28.0001 27.6915 27.7655 26.9181 27.3259 26.2603C26.8864 25.6025 26.2617 25.0898 25.5308 24.7871C24.7999 24.4843 23.9956 24.4051 23.2197 24.5594C22.4438 24.7138 21.731 25.0947 21.1716 25.6542C20.6122 26.2136 20.2313 26.9263 20.0769 27.7022C19.9226 28.4781 20.0018 29.2824 20.3045 30.0133C20.6073 30.7442 21.12 31.3689 21.7778 31.8085C22.4356 32.248 23.2089 32.4826 24.0001 32.4826C25.0609 32.4826 26.0783 32.0612 26.8285 31.311C27.5786 30.5609 28.0001 29.5434 28.0001 28.4826Z" fill="#FFF978"/>
<path d="M29 22.0225C29.3038 22.1941 29.583 22.406 29.83 22.6525C30.2391 23.0662 30.5531 23.5641 30.75 24.1116C30.9469 24.6591 31.022 25.243 30.97 25.8225C31.3515 26.2526 31.6408 26.7563 31.82 27.3025L32 27.2425L44.9 28.4725C43.995 28.2935 43.252 25.7115 43.054 22.2965L29 20.9585V22.0225Z" fill="#E1E7F7"/>
<path d="M4.9461 22.2965C4.7461 25.7115 4.0051 28.2965 3.1001 28.4725L16.0001 27.2425L16.1801 27.3025C16.3593 26.7563 16.6486 26.2526 17.0301 25.8225C16.9781 25.243 17.0532 24.6591 17.2501 24.1116C17.447 23.5641 17.761 23.0662 18.1701 22.6525C18.4171 22.406 18.6963 22.1941 19.0001 22.0225V20.9585L4.9461 22.2965Z" fill="#E1E7F7"/>
<path d="M43.918 13.7645C43.2419 15.9375 42.9317 18.2078 43 20.4825C42.9317 22.7573 43.2419 25.0275 43.918 27.2005C44.541 26.3545 45 23.6705 45 20.4825C45 17.2945 44.541 14.6105 43.918 13.7645Z" fill="#999DC2"/>
<path d="M4.082 13.7645C4.75805 15.9375 5.06828 18.2078 5 20.4825C5.06828 22.7573 4.75805 25.0275 4.082 27.2005C3.459 26.3545 3 23.6705 3 20.4825C3 17.2945 3.459 14.6105 4.082 13.7645Z" fill="#999DC2"/>
<path d="M28.94 14.0225C28.8367 13.5852 28.589 13.1955 28.2371 12.9161C27.8851 12.6367 27.4494 12.484 27 12.4825H21C20.5506 12.484 20.1149 12.6367 19.7629 12.9161C19.411 13.1955 19.1634 13.5852 19.06 14.0225C19.0198 14.1726 18.9996 14.3272 19 14.4825V17.4825C18.9996 17.3272 19.0198 17.1726 19.06 17.0225C19.1634 16.5852 19.411 16.1955 19.7629 15.9161C20.1149 15.6367 20.5506 15.484 21 15.4825H27C27.4494 15.484 27.8851 15.6367 28.2371 15.9161C28.589 16.1955 28.8367 16.5852 28.94 17.0225C28.9802 17.1726 29.0004 17.3272 29 17.4825V14.4825C29.0004 14.3272 28.9802 14.1726 28.94 14.0225Z" fill="#FFC69E"/>
<path d="M24 30.4825C23.1151 30.4813 22.2558 30.1859 21.5572 29.6428C20.8586 29.0998 20.3604 28.3398 20.141 27.4825C19.9791 28.0759 19.9563 28.6987 20.0742 29.3023C20.1922 29.906 20.4478 30.4743 20.8211 30.9631C21.1944 31.4519 21.6755 31.8481 22.2268 32.1207C22.7781 32.3934 23.3849 32.5352 24 32.5352C24.6151 32.5352 25.2219 32.3934 25.7732 32.1207C26.3245 31.8481 26.8056 31.4519 27.1789 30.9631C27.5522 30.4743 27.8078 29.906 27.9258 29.3023C28.0437 28.6987 28.0209 28.0759 27.859 27.4825C27.6396 28.3398 27.1414 29.0998 26.4428 29.6428C25.7442 30.1859 24.8849 30.4813 24 30.4825Z" fill="#976EFA"/>
<path d="M19.627 37.2285L18 40.4825L20 44.4825L23.064 38.3555C22.425 38.1993 21.8335 37.8905 21.34 37.4555C20.7594 37.5007 20.1758 37.4234 19.627 37.2285Z" fill="#FB9881"/>
<path d="M26.66 37.4525C26.1666 37.8875 25.575 38.1963 24.936 38.3525L28 44.4825L30 40.4825L28.373 37.2285C27.824 37.4224 27.2404 37.4987 26.66 37.4525Z" fill="#FB9881"/>
<path d="M21.34 35.4525C21.0681 35.4734 20.7948 35.4677 20.524 35.4355L19.624 37.2285C20.173 37.4224 20.7566 37.4987 21.337 37.4525C21.8305 37.8875 22.4221 38.1963 23.061 38.3525L24 36.4825C23.0167 36.4789 22.0694 36.1121 21.34 35.4525Z" fill="#FF8488"/>
<path d="M18.1699 36.3126C18.5811 36.7228 19.079 37.0358 19.6269 37.2286L20.5269 35.4356C19.6364 35.3402 18.805 34.9441 18.1699 34.3126C18.0398 34.1844 17.9225 34.0437 17.8199 33.8926L17.3269 35.0026C17.4508 35.3199 17.6166 35.6192 17.8199 35.8926C17.9225 36.0437 18.0398 36.1844 18.1699 36.3126Z" fill="#FB9881"/>
<path d="M28.373 37.2285L27.473 35.4355C27.2022 35.4677 26.9289 35.4734 26.657 35.4525C25.9284 36.1114 24.9823 36.4782 24 36.4825L24.936 38.3555C25.575 38.1993 26.1665 37.8905 26.66 37.4555C27.2406 37.5008 27.8242 37.4234 28.373 37.2285Z" fill="#FF8488"/>
<path d="M29.8301 34.3126C29.1958 34.9435 28.3655 35.3396 27.4761 35.4356L28.3761 37.2286C28.924 37.0358 29.4219 36.7228 29.8331 36.3126C29.9632 36.1844 30.0805 36.0437 30.1831 35.8926C30.3864 35.6192 30.5522 35.3199 30.6761 35.0026L30.1831 33.8926C30.0795 34.0439 29.9613 34.1845 29.8301 34.3126Z" fill="#FB9881"/>
<path d="M19.0001 19.9095C18.1451 20.1193 17.3628 20.5564 16.7361 21.1745L19.0001 20.9585V19.9095Z" fill="#E1E7F7"/>
<path d="M31.264 21.1745C30.6372 20.5564 29.8549 20.1193 29 19.9095V20.9585L31.264 21.1745Z" fill="#E1E7F7"/>
<path d="M29 20.9585V19.9095C28.4528 19.7733 27.8872 19.7261 27.325 19.7695C26.4156 18.9415 25.2299 18.4827 24 18.4827C22.7701 18.4827 21.5844 18.9415 20.675 19.7695C20.1128 19.7261 19.5472 19.7733 19 19.9095V22.0225C19.1935 21.9139 19.3959 21.8219 19.605 21.7475C19.674 21.7225 19.744 21.7075 19.814 21.6865C19.9903 21.6328 20.17 21.5914 20.352 21.5625C20.436 21.5495 20.518 21.5355 20.602 21.5275C20.8465 21.502 21.0927 21.497 21.338 21.5125C21.6949 21.1942 22.1043 20.9401 22.548 20.7615C23.4789 20.3895 24.5171 20.3895 25.448 20.7615C25.8916 20.9403 26.3009 21.1944 26.658 21.5125C26.9033 21.497 27.1495 21.502 27.394 21.5275C27.478 21.5365 27.56 21.5485 27.644 21.5625C27.8261 21.5909 28.0059 21.6324 28.182 21.6865C28.252 21.7075 28.322 21.7225 28.391 21.7475C28.6015 21.8216 28.8052 21.9136 29 22.0225V20.9585Z" fill="#FF8488"/>
<path d="M32 27.2425L33.871 27.4205C33.8033 27.0984 33.7027 26.7841 33.571 26.4825C33.4953 26.3111 33.4098 26.1441 33.315 25.9825C33.1438 25.6877 32.9427 25.4112 32.715 25.1575C32.7799 24.433 32.6859 23.703 32.4396 23.0185C32.1933 22.3341 31.8007 21.7116 31.289 21.1945L31.266 21.1745L29 20.9585V22.0225C29.023 22.0355 29.044 22.0525 29.066 22.0665C29.115 22.0945 29.16 22.1275 29.207 22.1585C29.4313 22.3011 29.6401 22.4666 29.83 22.6525C30.2391 23.0662 30.5531 23.5641 30.75 24.1116C30.9469 24.6591 31.022 25.243 30.97 25.8225C31.1522 26.0255 31.313 26.2466 31.45 26.4825L31.462 26.5065C31.472 26.5235 31.479 26.5425 31.489 26.5595C31.5628 26.6912 31.6295 26.8267 31.689 26.9655C31.718 27.0335 31.736 27.1065 31.761 27.1765C31.776 27.2185 31.801 27.2555 31.815 27.2985L32 27.2425Z" fill="#C7CCF0"/>
<path d="M19.0001 20.9585L16.7361 21.1745L16.7131 21.1945C16.2014 21.7116 15.8087 22.3341 15.5624 23.0185C15.3162 23.703 15.2222 24.433 15.2871 25.1575C15.0594 25.4112 14.8583 25.6877 14.6871 25.9825C14.593 26.1444 14.5079 26.3113 14.4321 26.4825C14.3004 26.7841 14.1998 27.0984 14.1321 27.4205L16.0001 27.2425L16.1801 27.3025C16.1941 27.2595 16.2191 27.2225 16.2341 27.1805C16.2591 27.1105 16.2771 27.0375 16.3061 26.9695C16.3655 26.8307 16.4323 26.6952 16.5061 26.5635C16.5161 26.5465 16.5231 26.5275 16.5331 26.5105L16.5501 26.4825C16.6871 26.2466 16.8479 26.0255 17.0301 25.8225C16.9781 25.243 17.0532 24.6591 17.2501 24.1116C17.447 23.5641 17.7609 23.0662 18.1701 22.6525C18.36 22.4666 18.5688 22.3011 18.7931 22.1585C18.8401 22.1275 18.8851 22.0945 18.9341 22.0665C18.9561 22.0525 18.9771 22.0355 19.0001 22.0225V20.9585Z" fill="#C7CCF0"/>
<path d="M26.4936 28.0015C26.8157 27.6792 26.7132 27.0547 26.2647 26.6065C25.8163 26.1583 25.1916 26.0563 24.8695 26.3786C24.5475 26.7009 24.6499 27.3255 25.0984 27.7736C25.5469 28.2218 26.1716 28.3238 26.4936 28.0015Z" fill="#F6FAFD"/>
<path d="M22.8327 29.0966C22.994 28.9353 22.9429 28.6228 22.7186 28.3987C22.4944 28.1747 22.1819 28.1238 22.0207 28.2851C21.8595 28.4465 21.9105 28.7589 22.1348 28.983C22.359 29.2071 22.6715 29.258 22.8327 29.0966Z" fill="#F6FAFD"/>
<path d="M27.4944 16.0019C27.8164 15.6796 27.7139 15.055 27.2655 14.6069C26.817 14.1587 26.1923 14.0567 25.8703 14.379C25.5482 14.7013 25.6507 15.3258 26.0992 15.774C26.5476 16.2222 27.1723 16.3242 27.4944 16.0019Z" fill="#F6FAFD"/>
<path d="M23.8327 15.0961C23.994 14.9348 23.9429 14.6223 23.7186 14.3982C23.4944 14.1742 23.1819 14.1233 23.0207 14.2846C22.8595 14.446 22.9105 14.7584 23.1348 14.9825C23.359 15.2066 23.6715 15.2575 23.8327 15.0961Z" fill="#F6FAFD"/>
<path d="M24 33.4825C24.9889 33.4825 25.9556 33.1893 26.7779 32.6399C27.6001 32.0905 28.241 31.3096 28.6194 30.396C28.9978 29.4823 29.0969 28.477 28.9039 27.5071C28.711 26.5372 28.2348 25.6463 27.5355 24.947C26.8363 24.2478 25.9454 23.7715 24.9755 23.5786C24.0055 23.3857 23.0002 23.4847 22.0866 23.8631C21.173 24.2416 20.3921 24.8824 19.8427 25.7047C19.2932 26.5269 19 27.4936 19 28.4825C19.0016 29.8081 19.5289 31.079 20.4662 32.0163C21.4036 32.9537 22.6744 33.481 24 33.4825ZM24 25.4825C24.5933 25.4825 25.1734 25.6585 25.6667 25.9881C26.1601 26.3178 26.5446 26.7863 26.7716 27.3345C26.9987 27.8827 27.0581 28.4859 26.9424 29.0678C26.8266 29.6498 26.5409 30.1843 26.1213 30.6039C25.7018 31.0234 25.1672 31.3091 24.5853 31.4249C24.0033 31.5407 23.4001 31.4812 22.8519 31.2542C22.3038 31.0271 21.8352 30.6426 21.5056 30.1493C21.1759 29.6559 21 29.0759 21 28.4825C21 27.6869 21.3161 26.9238 21.8787 26.3612C22.4413 25.7986 23.2043 25.4825 24 25.4825Z" fill="black"/>
<path d="M31.31 33.9685C31.7475 33.2128 31.9792 32.3557 31.982 31.4825C32.6423 30.6218 33.0001 29.5673 33.0001 28.4825C33.0001 27.3977 32.6423 26.3432 31.982 25.4825C31.988 24.8277 31.8636 24.1782 31.6162 23.5719C31.3688 22.9656 31.0032 22.4146 30.5408 21.951C30.0783 21.4873 29.5283 21.1203 28.9226 20.8713C28.317 20.6223 27.6678 20.4962 27.013 20.5005H27C26.1315 19.8585 25.08 19.5121 24 19.5121C22.92 19.5121 21.8685 19.8585 21 20.5005H20.988C20.3331 20.4961 19.6839 20.622 19.0781 20.871C18.4723 21.1199 17.9222 21.4869 17.4596 21.9506C16.9971 22.4143 16.6314 22.9653 16.3839 23.5717C16.1364 24.178 16.012 24.8276 16.018 25.4825C15.3578 26.3432 14.9999 27.3977 14.9999 28.4825C14.9999 29.5673 15.3578 30.6218 16.018 31.4825C16.0211 32.3556 16.2528 33.2127 16.69 33.9685L13.09 42.0765C13.0065 42.2647 12.9832 42.4741 13.0232 42.6761C13.0632 42.8781 13.1645 43.0628 13.3134 43.205C13.4623 43.3472 13.6515 43.44 13.8551 43.4707C14.0587 43.5014 14.2668 43.4685 14.451 43.3765L17.557 41.8235L19.109 44.9285C19.1919 45.0949 19.3196 45.2349 19.4777 45.3327C19.6358 45.4306 19.8181 45.4824 20.004 45.4824C20.1899 45.4824 20.3722 45.4306 20.5303 45.3327C20.6884 45.2349 20.8161 45.0949 20.899 44.9285L24 38.7185L27.105 44.9295C27.1879 45.0959 27.3156 45.2359 27.4737 45.3337C27.6318 45.4316 27.8141 45.4834 28 45.4834C28.1859 45.4834 28.3682 45.4316 28.5263 45.3337C28.6844 45.2359 28.8121 45.0959 28.895 44.9295L30.447 41.8245L33.553 43.3825C33.7372 43.4745 33.9453 43.5074 34.1489 43.4767C34.3525 43.446 34.5417 43.3532 34.6906 43.211C34.8395 43.0688 34.9408 42.8841 34.9808 42.6821C35.0208 42.4801 34.9975 42.2707 34.914 42.0825L31.31 33.9685ZM17.777 26.4905C17.8682 26.3888 17.9376 26.2696 17.981 26.1401C18.0243 26.0106 18.0406 25.8736 18.029 25.7375C17.9859 25.3032 18.0397 24.8647 18.1866 24.4537C18.3334 24.0427 18.5697 23.6694 18.8783 23.3608C19.1869 23.0522 19.5602 22.8159 19.9712 22.669C20.3822 22.5222 20.8207 22.4684 21.255 22.5115C21.3911 22.5236 21.5282 22.5075 21.6578 22.4641C21.7874 22.4208 21.9066 22.3511 22.008 22.2595C22.5586 21.7749 23.267 21.5076 24.0005 21.5076C24.734 21.5076 25.4424 21.7749 25.993 22.2595C26.094 22.3513 26.2131 22.4211 26.3425 22.4645C26.472 22.5079 26.609 22.5239 26.745 22.5115C27.1793 22.4684 27.6178 22.5222 28.0288 22.669C28.4398 22.8159 28.8131 23.0522 29.1217 23.3608C29.4303 23.6694 29.6666 24.0427 29.8135 24.4537C29.9603 24.8647 30.0141 25.3032 29.971 25.7375C29.9594 25.8736 29.9757 26.0106 30.0191 26.1401C30.0624 26.2696 30.1318 26.3888 30.223 26.4905C30.7227 27.0335 31 27.7445 31 28.4825C31 29.2204 30.7227 29.9314 30.223 30.4745C30.1318 30.5761 30.0624 30.6954 30.0191 30.8249C29.9757 30.9544 29.9594 31.0914 29.971 31.2275C30.0141 31.6618 29.9603 32.1003 29.8135 32.5113C29.6666 32.9223 29.4303 33.2956 29.1217 33.6042C28.8131 33.9128 28.4398 34.1491 28.0288 34.2959C27.6178 34.4428 27.1793 34.4966 26.745 34.4535C26.6089 34.4419 26.4719 34.4582 26.3424 34.5015C26.2129 34.5449 26.0937 34.6143 25.992 34.7055C25.4414 35.1901 24.733 35.4574 23.9995 35.4574C23.266 35.4574 22.5576 35.1901 22.007 34.7055C21.8238 34.5409 21.5863 34.4498 21.34 34.4495C21.3117 34.448 21.2833 34.448 21.255 34.4495C20.8207 34.4926 20.3822 34.4388 19.9712 34.2919C19.5602 34.1451 19.1869 33.9088 18.8783 33.6002C18.5697 33.2916 18.3334 32.9183 18.1866 32.5073C18.0397 32.0963 17.9859 31.6578 18.029 31.2235C18.0406 31.0874 18.0243 30.9504 17.981 30.8209C17.9376 30.6914 17.8682 30.5721 17.777 30.4705C17.2774 29.9274 17 29.2164 17 28.4785C17 27.7405 17.2774 27.0295 17.777 26.4865V26.4905ZM20 42.2465L18.9 40.0355C18.8414 39.9179 18.7601 39.8131 18.6609 39.7269C18.5617 39.6408 18.4465 39.575 18.3218 39.5334C18.1972 39.4918 18.0656 39.4751 17.9345 39.4844C17.8035 39.4937 17.6755 39.5287 17.558 39.5875L16.051 40.3415L18.159 35.5825C18.991 36.1549 19.9772 36.4611 20.987 36.4605H21C21.4526 36.8023 21.9597 37.065 22.5 37.2375L20 42.2465ZM30.447 39.5825C30.3295 39.5237 30.2015 39.4887 30.0705 39.4794C29.9394 39.4701 29.8078 39.4868 29.6832 39.5284C29.5585 39.57 29.4433 39.6358 29.3441 39.7219C29.2449 39.8081 29.1637 39.9129 29.105 40.0305L28 42.2465L25.5 37.2415C26.0404 37.0692 26.5476 36.8065 27 36.4645H27.013C28.0229 36.4651 29.0091 36.1589 29.841 35.5865L31.954 40.3415L30.447 39.5825Z" fill="black"/>
<path d="M34.0888 26.4627L33.8987 28.4536L35.8986 28.6446L36.0887 26.6536L34.0888 26.4627Z" fill="black"/>
<path d="M45 11.4825C44.967 11.4825 44.939 11.4965 44.906 11.4985V11.4825L29.564 12.9485C29.3 12.5032 28.925 12.134 28.4756 11.877C28.0261 11.62 27.5177 11.4841 27 11.4825H21C20.4823 11.4841 19.9739 11.62 19.5244 11.877C19.075 12.134 18.7 12.5032 18.436 12.9485L3.1 11.4825V11.4945C3.061 11.4965 3.033 11.4825 3 11.4825C0.145 11.4825 0 18.9825 0 20.4825C0 21.9825 0.145 29.4825 3 29.4825C3.033 29.4825 3.061 29.4685 3.094 29.4665V29.4825L14.094 28.4345L13.904 26.4435L5.114 27.2805C5.73177 25.0683 6.03012 22.7792 6 20.4825C6.03006 18.1873 5.73205 15.8995 5.115 13.6885L18 14.9155V19.4825H20V14.4825C20 14.2173 20.1054 13.963 20.2929 13.7754C20.4804 13.5879 20.7348 13.4825 21 13.4825H27C27.2652 13.4825 27.5196 13.5879 27.7071 13.7754C27.8946 13.963 28 14.2173 28 14.4825V19.4825H30V14.9155L42.885 13.6885C42.268 15.8995 41.9699 18.1873 42 20.4825C41.9699 22.7778 42.268 25.0656 42.885 27.2765L38.094 26.8205L37.905 28.8115L44.905 29.4785V29.4665C44.938 29.4665 44.966 29.4825 44.999 29.4825C47.854 29.4825 47.999 21.9825 47.999 20.4825C47.999 18.9825 47.855 11.4825 45 11.4825ZM2 20.4825C1.88944 18.196 2.22921 15.9101 3 13.7545C3.77079 15.9101 4.11056 18.196 4 20.4825C4.11056 22.7691 3.77079 25.055 3 27.2105C2.22921 25.055 1.88944 22.7691 2 20.4825ZM45 27.2105C44.2292 25.055 43.8894 22.7691 44 20.4825C43.8894 18.196 44.2292 15.9101 45 13.7545C45.7708 15.9101 46.1106 18.196 46 20.4825C46.1106 22.7691 45.7708 25.055 45 27.2105Z" fill="black"/>
</svg>
