<svg width="48" height="48" viewBox="0 0 48 48" fill="none" xmlns="http://www.w3.org/2000/svg">
<path d="M12.375 45.3743C14.4448 45.3743 16.1249 43.6942 16.1249 41.6244H39.3743H46.874C46.874 43.6942 45.194 45.3743 43.1242 45.3743H12.375Z" fill="#E6E9ED"/>
<path d="M43.874 41.6244C43.874 43.6942 42.1938 45.3743 40.124 45.3743H43.124C45.1938 45.3743 46.8738 43.6942 46.8738 41.6244H43.874Z" fill="#FFCE54"/>
<g opacity="0.1">
<path d="M12.375 45.3743C14.4448 45.3743 16.1249 43.6942 16.1249 41.6244H39.3743H46.874C46.874 43.6942 45.194 45.3743 43.1242 45.3743H12.375Z" fill="black"/>
</g>
<path d="M12.3754 45.3743C10.3056 45.3743 8.62549 43.6942 8.62549 41.6244V4.87552V4.12552H31.8748C31.8748 2.0557 33.5548 0.37561 35.6246 0.37561C37.6945 0.37561 39.3746 2.0557 39.3746 4.12552V41.6244C39.3746 43.6942 41.0546 45.3743 43.1245 45.3743H12.3754ZM31.8748 42.3744C33.5321 42.3744 34.8746 41.0319 34.8746 39.3745C34.8746 37.7171 33.5321 36.3746 31.8748 36.3746C30.2173 36.3746 28.8748 37.7171 28.8748 39.3745C28.8748 41.0319 30.2173 42.3744 31.8748 42.3744ZM33.3748 12.3753V10.1253H14.6253V12.3753H33.3748Z" fill="#E6E9ED"/>
<path d="M39.3745 41.6244V4.12552C39.3745 2.0557 37.6943 0.37561 35.6245 0.37561C35.0906 0.37561 34.5844 0.490923 34.1245 0.692767C35.4472 1.27205 36.3745 2.58961 36.3745 4.12552V41.6244C36.3745 43.6942 38.0547 45.3743 40.1243 45.3743H43.1243C41.0545 45.3743 39.3745 43.6942 39.3745 41.6244Z" fill="#FFCE54"/>
<path d="M11.6254 41.6244V4.87549V4.12549H8.62549V4.87549V41.6244C8.62549 43.6942 10.3056 45.3743 12.3754 45.3743H15.3753C13.3055 45.3743 11.6254 43.6942 11.6254 41.6244Z" fill="#FFCE54"/>
<g opacity="0.5">
<path d="M10.125 41.6244V4.87549V4.12549H8.625V4.87549V41.6244C8.625 43.6942 10.3051 45.3743 12.3749 45.3743H13.8749C11.8052 45.3743 10.125 43.6942 10.125 41.6244Z" fill="white"/>
</g>
<path d="M35.6245 0.375732C33.5546 0.375732 31.8746 2.05583 31.8746 4.12564H8.6253H1.12549C1.12549 2.05583 2.80558 0.375732 4.87539 0.375732H35.6245Z" fill="#E6E9ED"/>
<g opacity="0.2">
<path d="M35.6243 0.375732C33.5545 0.375732 31.8745 2.05583 31.8745 4.12564V4.87564C31.8745 2.80583 33.5545 1.12573 35.6243 1.12573C37.6941 1.12573 39.3743 2.80583 39.3743 4.87564V4.12564C39.3743 2.05583 37.6941 0.375732 35.6243 0.375732Z" fill="black"/>
</g>
<g opacity="0.2">
<path d="M39.3745 41.6244V4.87549C39.3745 3.11402 38.1536 1.64562 36.5151 1.2439C37.3443 1.9309 37.8745 2.96543 37.8745 4.12549V41.6244C37.8745 43.6942 39.5545 45.3743 41.6243 45.3743H43.1243C41.0545 45.3743 39.3745 43.6942 39.3745 41.6244Z" fill="black"/>
</g>
<path d="M33.3745 41.6244H30.3745V47.6242L31.8745 46.8742L33.3745 47.6242V41.6244Z" fill="#ED5565"/>
<g opacity="0.2">
<path d="M30.3745 42.7085C30.8169 42.9663 31.3252 43.1245 31.8745 43.1245C32.4238 43.1245 32.9321 42.9663 33.3745 42.7085V41.6245H30.3745V42.7085Z" fill="black"/>
</g>
<g opacity="0.5">
<path d="M30.3745 42.7085V47.6244L31.1245 47.2494V43.0219C30.8594 42.9494 30.6074 42.844 30.3745 42.7085Z" fill="white"/>
</g>
<g opacity="0.2">
<path d="M33.3745 42.7085V47.6244L32.6245 47.2494V43.0219C32.8896 42.9494 33.1416 42.844 33.3745 42.7085Z" fill="black"/>
</g>
<path d="M31.8744 42.3744C33.5312 42.3744 34.8743 41.0313 34.8743 39.3745C34.8743 37.7177 33.5312 36.3746 31.8744 36.3746C30.2176 36.3746 28.8745 37.7177 28.8745 39.3745C28.8745 41.0313 30.2176 42.3744 31.8744 42.3744Z" fill="#ED5565"/>
<g opacity="0.5">
<path d="M29.6245 39.3745C29.6245 37.8468 30.7714 36.5988 32.2495 36.4127C32.125 36.3966 32.0034 36.3746 31.8745 36.3746C30.2178 36.3746 28.8745 37.7179 28.8745 39.3745C28.8745 41.0312 30.2178 42.3744 31.8745 42.3744C32.0034 42.3744 32.125 42.3525 32.2495 42.3364C30.7714 42.1504 29.6245 40.9023 29.6245 39.3745Z" fill="white"/>
</g>
<g opacity="0.2">
<path d="M34.1243 39.3745C34.1243 40.9023 32.9776 42.1503 31.4995 42.3364C31.624 42.3525 31.7456 42.3744 31.8745 42.3744C33.5311 42.3744 34.8743 41.0312 34.8743 39.3745C34.8743 37.7179 33.5311 36.3746 31.8745 36.3746C31.7456 36.3746 31.624 36.3966 31.4995 36.4127C32.9776 36.5988 34.1243 37.8468 34.1243 39.3745Z" fill="black"/>
</g>
<path d="M32.6245 39.3745C32.6245 39.7891 32.2891 40.1244 31.8745 40.1244C31.4599 40.1244 31.1245 39.7891 31.1245 39.3745C31.1245 38.9599 31.4599 38.6245 31.8745 38.6245C32.2891 38.6245 32.6245 38.9599 32.6245 39.3745Z" fill="#FFCE54"/>
<path d="M33.3745 10.1254H14.625V12.3754H33.3745V10.1254Z" fill="#ED5565"/>
<path d="M7.8753 0.375732H4.87539C2.80558 0.375732 1.12549 2.05583 1.12549 4.12564H4.12539C4.12539 2.05583 5.80558 0.375732 7.8753 0.375732Z" fill="#FFCE54"/>
<path d="M35.6243 0.375732H32.6245C30.5547 0.375732 28.8745 2.05583 28.8745 4.12564H31.8745C31.8745 2.05583 33.5545 0.375732 35.6243 0.375732Z" fill="#FFCE54"/>
<g opacity="0.2">
<path d="M31.8748 4.12549H8.62549V4.87549H31.8748V4.12549Z" fill="black"/>
</g>
<g opacity="0.2">
<path d="M46.7981 41.6244H45.3744C45.3744 42.7919 44.828 43.8231 43.9901 44.5108C43.7104 44.5774 43.4239 44.6243 43.1244 44.6243C41.3117 44.6243 39.7978 43.3353 39.4505 41.6244H39.3745C39.3745 43.4371 40.6634 44.9509 42.3743 45.2982C42.1319 45.348 41.8814 45.3743 41.6243 45.3743H43.1243C45.1941 45.3743 46.8741 43.6942 46.8741 41.6244H46.7981Z" fill="black"/>
</g>
<g opacity="0.2">
<path d="M35.6245 0.375732C33.5546 0.375732 31.8746 2.05583 31.8746 4.12564H8.6253H1.12549C1.12549 2.05583 2.80558 0.375732 4.87539 0.375732H35.6245Z" fill="white"/>
</g>
<g opacity="0.5">
<path d="M6.37539 0.375732H4.87539C2.80558 0.375732 1.12549 2.05583 1.12549 4.12564H2.62549C2.62549 2.05583 4.30558 0.375732 6.37539 0.375732Z" fill="white"/>
</g>
<g opacity="0.2">
<path d="M35.6243 0.375732H34.1243C32.0547 0.375732 30.3745 2.05583 30.3745 4.12564H31.8745C31.8745 2.05583 33.5545 0.375732 35.6243 0.375732Z" fill="black"/>
</g>
<g opacity="0.3">
<path d="M16.125 10.1254H14.625V12.3754H16.125V10.1254Z" fill="white"/>
</g>
<g opacity="0.2">
<path d="M33.3745 10.1254H31.8745V12.3754H33.3745V10.1254Z" fill="black"/>
</g>
<path d="M1.12549 4.50052C0.918207 4.50052 0.750488 4.3328 0.750488 4.12552C0.750488 1.85105 2.60093 0.000610352 4.87539 0.000610352C5.08268 0.000610352 5.25039 0.168329 5.25039 0.37561C5.25039 0.582892 5.08268 0.75061 4.87539 0.75061C3.01436 0.75061 1.50049 2.26439 1.50049 4.12552C1.50049 4.3328 1.33277 4.50052 1.12549 4.50052Z" fill="#3A3847"/>
<path d="M39.3745 41.9994C39.1672 41.9994 38.9995 41.8316 38.9995 41.6244V4.12549C38.9995 3.9183 39.1672 3.75049 39.3745 3.75049C39.5816 3.75049 39.7493 3.91821 39.7493 4.12549V41.6244C39.7493 41.8316 39.5816 41.9994 39.3745 41.9994Z" fill="#3A3847"/>
<path d="M39.3745 4.50052C39.1672 4.50052 38.9995 4.3328 38.9995 4.12552C38.9995 2.26449 37.4856 0.75061 35.6245 0.75061C35.4172 0.75061 35.2495 0.582892 35.2495 0.37561C35.2495 0.168329 35.4172 0.000610352 35.6245 0.000610352C37.8994 0.000610352 39.7493 1.85105 39.7493 4.12552C39.7493 4.3328 39.5816 4.50052 39.3745 4.50052Z" fill="#3A3847"/>
<path d="M31.8745 4.50052C31.6672 4.50052 31.4995 4.3328 31.4995 4.12552C31.4995 1.85105 33.3496 0.000610352 35.6243 0.000610352C35.8316 0.000610352 35.9993 0.168329 35.9993 0.37561C35.9993 0.582892 35.8316 0.75061 35.6243 0.75061C33.7632 0.75061 32.2495 2.26439 32.2495 4.12552C32.2495 4.3328 32.0818 4.50052 31.8745 4.50052Z" fill="#3A3847"/>
<path d="M43.1243 45.7493C40.8494 45.7493 38.9995 43.8992 38.9995 41.6244C38.9995 41.4171 39.1672 41.2494 39.3745 41.2494C39.5816 41.2494 39.7493 41.4171 39.7493 41.6244C39.7493 43.4855 41.2632 44.9993 43.1243 44.9993C43.3316 44.9993 43.4993 45.167 43.4993 45.3743C43.4993 45.5816 43.3316 45.7493 43.1243 45.7493Z" fill="#3A3847"/>
<path d="M12.3754 45.7493C10.1009 45.7493 8.25049 43.8992 8.25049 41.6244C8.25049 41.4171 8.41821 41.2494 8.62549 41.2494C8.83277 41.2494 9.00049 41.4171 9.00049 41.6244C9.00049 43.4855 10.5144 44.9993 12.3754 44.9993C12.5826 44.9993 12.7504 45.167 12.7504 45.3743C12.7504 45.5816 12.5826 45.7493 12.3754 45.7493Z" fill="#3A3847"/>
<path d="M43.124 45.7493C42.9167 45.7493 42.749 45.5816 42.749 45.3743C42.749 45.167 42.9167 44.9993 43.124 44.9993C44.9851 44.9993 46.4988 43.4855 46.4988 41.6244C46.4988 41.4171 46.6666 41.2494 46.8738 41.2494C47.0811 41.2494 47.2488 41.4171 47.2488 41.6244C47.2488 43.8992 45.3988 45.7493 43.124 45.7493Z" fill="#3A3847"/>
<path d="M35.6245 0.750732H4.87549C4.66821 0.750732 4.50049 0.583014 4.50049 0.375732C4.50049 0.168451 4.66821 0.000732422 4.87549 0.000732422H35.6245C35.8318 0.000732422 35.9995 0.168451 35.9995 0.375732C35.9995 0.583014 35.8318 0.750732 35.6245 0.750732Z" fill="#3A3847"/>
<path d="M28.8744 45.7493H12.375C12.1677 45.7493 12 45.5815 12 45.3743C12 45.167 12.1677 44.9993 12.375 44.9993H28.8744C29.0817 44.9993 29.2494 45.167 29.2494 45.3743C29.2494 45.5815 29.0817 45.7493 28.8744 45.7493Z" fill="#3A3847"/>
<path d="M8.62549 41.9994C8.4183 41.9994 8.25049 41.8316 8.25049 41.6244V4.87549C8.25049 4.66821 8.41821 4.50049 8.62549 4.50049C8.83277 4.50049 9.00049 4.66821 9.00049 4.87549V41.6244C9.00049 41.8316 8.83277 41.9994 8.62549 41.9994Z" fill="#3A3847"/>
<path d="M31.8746 4.50049H1.12549C0.918207 4.50049 0.750488 4.33277 0.750488 4.12549C0.750488 3.9183 0.918207 3.75049 1.12549 3.75049H31.8746C32.0819 3.75049 32.2496 3.91821 32.2496 4.12549C32.2496 4.33277 32.0819 4.50049 31.8746 4.50049Z" fill="#3A3847"/>
<path d="M46.8738 41.9994H40.124C39.9167 41.9994 39.749 41.8317 39.749 41.6244C39.749 41.4171 39.9167 41.2494 40.124 41.2494H46.8738C47.0811 41.2494 47.2488 41.4171 47.2488 41.6244C47.2488 41.8317 47.0811 41.9994 46.8738 41.9994Z" fill="#3A3847"/>
<path d="M31.8745 42.7494C30.0134 42.7494 28.4995 41.2356 28.4995 39.3745C28.4995 37.5135 30.0134 35.9996 31.8745 35.9996C33.7354 35.9996 35.2493 37.5135 35.2493 39.3745C35.2493 41.2356 33.7354 42.7494 31.8745 42.7494ZM31.8745 36.7496C30.4272 36.7496 29.2495 37.9273 29.2495 39.3745C29.2495 40.8218 30.4272 41.9994 31.8745 41.9994C33.3218 41.9994 34.4993 40.8218 34.4993 39.3745C34.4993 37.9273 33.3218 36.7496 31.8745 36.7496Z" fill="#3A3847"/>
<path d="M31.8745 40.4994C31.2542 40.4994 30.7495 39.9949 30.7495 39.3745C30.7495 38.7542 31.2542 38.2495 31.8745 38.2495C32.4949 38.2495 32.9995 38.7542 32.9995 39.3745C32.9995 39.9949 32.4949 40.4994 31.8745 40.4994ZM31.8745 38.9995C31.668 38.9995 31.4995 39.168 31.4995 39.3745C31.4995 39.581 31.668 39.7495 31.8745 39.7495C32.081 39.7495 32.2495 39.581 32.2495 39.3745C32.2495 39.168 32.081 38.9995 31.8745 38.9995Z" fill="#3A3847"/>
<path d="M30.3745 47.9992C30.1672 47.9992 29.9995 47.8315 29.9995 47.6242V43.1244C29.9995 42.9171 30.1672 42.7494 30.3745 42.7494C30.5818 42.7494 30.7495 42.9171 30.7495 43.1244V47.6242C30.7495 47.8315 30.5818 47.9992 30.3745 47.9992Z" fill="#3A3847"/>
<path d="M33.3745 47.9992C33.1672 47.9992 32.9995 47.8315 32.9995 47.6242V43.1244C32.9995 42.9171 33.1672 42.7494 33.3745 42.7494C33.5816 42.7494 33.7493 42.9171 33.7493 43.1244V47.6242C33.7493 47.8315 33.5816 47.9992 33.3745 47.9992Z" fill="#3A3847"/>
<path d="M30.3745 47.9992C30.2368 47.9992 30.1049 47.9231 30.039 47.7919C29.9468 47.6066 30.0214 47.381 30.2068 47.2887L31.7068 46.5387C31.8921 46.4472 32.1177 46.5211 32.2099 46.7065C32.3022 46.8918 32.2275 47.1174 32.0422 47.2096L30.5422 47.9596C30.4888 47.9861 30.4316 47.9992 30.3745 47.9992Z" fill="#3A3847"/>
<path d="M33.3745 47.9992C33.3174 47.9992 33.2602 47.986 33.2068 47.9596L31.7068 47.2096C31.5214 47.1174 31.4468 46.8917 31.539 46.7065C31.632 46.5211 31.8569 46.4472 32.0422 46.5387L33.542 47.2887C33.7273 47.381 33.802 47.6067 33.7097 47.7919C33.6438 47.9231 33.512 47.9992 33.3745 47.9992Z" fill="#3A3847"/>
<path d="M43.1243 45.7493H34.8745C34.6672 45.7493 34.4995 45.5815 34.4995 45.3743C34.4995 45.167 34.6672 44.9993 34.8745 44.9993H43.1243C43.3316 44.9993 43.4993 45.167 43.4993 45.3743C43.4993 45.5815 43.3316 45.7493 43.1243 45.7493Z" fill="#3A3847"/>
<path d="M33.3745 12.7504H14.625C14.4178 12.7504 14.25 12.5826 14.25 12.3754V10.1254C14.25 9.91818 14.4177 9.75037 14.625 9.75037H33.3745C33.5816 9.75037 33.7493 9.91808 33.7493 10.1254V12.3754C33.7493 12.5826 33.5816 12.7504 33.3745 12.7504ZM15 12.0004H32.9995V10.5004H15V12.0004Z" fill="#3A3847"/>
<path d="M23.6247 38.9995H14.625C14.4178 38.9995 14.25 38.8318 14.25 38.6245C14.25 38.4172 14.4177 38.2495 14.625 38.2495H23.6247C23.832 38.2495 23.9997 38.4172 23.9997 38.6245C23.9997 38.8318 23.832 38.9995 23.6247 38.9995Z" fill="#3A3847"/>
<path d="M19.1249 40.4994H14.625C14.4178 40.4994 14.25 40.3317 14.25 40.1244C14.25 39.9172 14.4177 39.7495 14.625 39.7495H19.1249C19.3322 39.7495 19.4999 39.9172 19.4999 40.1244C19.4999 40.3317 19.3322 40.4994 19.1249 40.4994Z" fill="#3A3847"/>
<path d="M33.3745 21H14.625C14.4178 21 14.25 20.8323 14.25 20.625C14.25 20.4177 14.4177 20.25 14.625 20.25H33.3745C33.5816 20.25 33.7493 20.4177 33.7493 20.625C33.7493 20.8323 33.5816 21 33.3745 21Z" fill="#3A3847"/>
<path d="M33.3745 24H14.625C14.4178 24 14.25 23.8323 14.25 23.625C14.25 23.4177 14.4177 23.25 14.625 23.25H33.3745C33.5816 23.25 33.7493 23.4177 33.7493 23.625C33.7493 23.8323 33.5816 24 33.3745 24Z" fill="#3A3847"/>
<path d="M33.3745 26.9999H14.625C14.4178 26.9999 14.25 26.8322 14.25 26.6249C14.25 26.4176 14.4177 26.2499 14.625 26.2499H33.3745C33.5816 26.2499 33.7493 26.4176 33.7493 26.6249C33.7493 26.8322 33.5816 26.9999 33.3745 26.9999Z" fill="#3A3847"/>
<path d="M23.6247 29.9998H14.625C14.4178 29.9998 14.25 29.832 14.25 29.6248C14.25 29.4175 14.4177 29.2498 14.625 29.2498H23.6247C23.832 29.2498 23.9997 29.4175 23.9997 29.6248C23.9997 29.832 23.832 29.9998 23.6247 29.9998Z" fill="#3A3847"/>
</svg>
