<svg width="48" height="48" viewBox="0 0 48 48" fill="none" xmlns="http://www.w3.org/2000/svg">
<g clip-path="url(#clip0_10680_9342)">
<path d="M5 20C5 24.28 4.16 27.78 3.1 27.99C3.06735 27.9983 3.03364 28.0016 3 28C1.9 28 1 24.42 1 20C1 15.58 1.9 12 3 12L3.1 12.01C4.16 12.22 5 15.72 5 20Z" fill="#C7CCF0"/>
<path d="M45 12C46.1 12 47 15.58 47 20C47 24.42 46.1 28 45 28C44.9664 28.0017 44.9327 27.9983 44.9 27.99C43.84 27.78 43 24.28 43 20C43 15.72 43.84 12.22 44.9 12.01C44.9327 12.0018 44.9664 11.9984 45 12Z" fill="#C7CCF0"/>
<path d="M19 21.54V14C18.9996 13.8447 19.0198 13.69 19.06 13.54C19.1634 13.1027 19.411 12.7129 19.7629 12.4335C20.1149 12.1542 20.5506 12.0014 21 12H27C27.4494 12.0014 27.8851 12.1542 28.2371 12.4335C28.589 12.7129 28.8367 13.1027 28.94 13.54C28.9802 13.69 29.0004 13.8447 29 14V21.54C28.2881 21.1409 27.4734 20.9633 26.66 21.03C25.9326 20.3674 24.984 20.0001 24 20.0001C23.016 20.0001 22.0674 20.3674 21.34 21.03C20.5266 20.9633 19.7119 21.1409 19 21.54Z" fill="#FFB37D"/>
<path d="M29 13.52L44.9 12.01C43.84 12.22 43 15.72 43 20C43 24.28 43.84 27.78 44.9 27.99L32 26.76L31.82 26.82C31.6408 26.2738 31.3515 25.7701 30.97 25.34C31.022 24.7605 30.9469 24.1766 30.75 23.6291C30.5531 23.0816 30.2391 22.5837 29.83 22.17C29.583 21.9236 29.3038 21.7116 29 21.54V14C29.0004 13.8447 28.9802 13.69 28.94 13.54L29 13.52Z" fill="#F7F7FF"/>
<path d="M19 14V21.54C18.6962 21.7116 18.417 21.9236 18.17 22.17C17.7608 22.5837 17.4469 23.0816 17.25 23.6291C17.0531 24.1766 16.978 24.7605 17.03 25.34C16.6485 25.7701 16.3592 26.2738 16.18 26.82L16 26.76L3.09998 27.99C4.15998 27.78 4.99998 24.28 4.99998 20C4.99998 15.72 4.15998 12.22 3.09998 12.01L19 13.52L19.06 13.54C19.0198 13.69 18.9996 13.8447 19 14Z" fill="#F7F7FF"/>
<path d="M24 36L20 44L18 40L14 42L17.82 33.41C17.9226 33.5612 18.0398 33.7018 18.17 33.83C18.5837 34.2392 19.0816 34.5531 19.6291 34.75C20.1766 34.9469 20.7605 35.022 21.34 34.97C22.0694 35.6296 23.0167 35.9964 24 36Z" fill="#FFB37D"/>
<path d="M30.18 33.41L34 42L30 40L28 44L24 36C24.9833 35.9964 25.9306 35.6296 26.66 34.97C27.2395 35.022 27.8234 34.9469 28.3709 34.75C28.9184 34.5531 29.4163 34.2392 29.83 33.83C29.9602 33.7018 30.0774 33.5612 30.18 33.41Z" fill="#FFB37D"/>
<path d="M24 32C26.2091 32 28 30.2091 28 28C28 25.7909 26.2091 24 24 24C21.7909 24 20 25.7909 20 28C20 30.2091 21.7909 32 24 32Z" fill="#B079FF"/>
<path d="M31.45 26C31.81 26.605 32.0001 27.296 32.0001 28C32.0001 28.7041 31.81 29.395 31.45 30C31.313 30.2359 31.1522 30.4571 30.97 30.66C31.0592 31.6432 30.7774 32.6241 30.18 33.41C30.0774 33.5612 29.9602 33.7019 29.83 33.83C29.4163 34.2392 28.9184 34.5531 28.3709 34.75C27.8234 34.9469 27.2395 35.022 26.66 34.97C25.9326 35.6327 24.984 36 24 36C23.016 36 22.0674 35.6327 21.34 34.97C20.7605 35.022 20.1766 34.9469 19.6291 34.75C19.0816 34.5531 18.5837 34.2392 18.17 33.83C18.0398 33.7019 17.9226 33.5612 17.82 33.41C17.2226 32.6241 16.9408 31.6432 17.03 30.66C16.8478 30.4571 16.687 30.2359 16.55 30C16.19 29.395 15.9999 28.7041 15.9999 28C15.9999 27.296 16.19 26.605 16.55 26C16.687 25.7642 16.8478 25.543 17.03 25.34C16.9748 24.7603 17.0483 24.1755 17.2454 23.6275C17.4425 23.0795 17.7582 22.5818 18.17 22.17C18.5818 21.7582 19.0795 21.4425 19.6275 21.2454C20.1755 21.0484 20.7603 20.9748 21.34 21.03C22.0674 20.3674 23.016 20.0001 24 20.0001C24.984 20.0001 25.9326 20.3674 26.66 21.03C27.2397 20.9748 27.8245 21.0484 28.3725 21.2454C28.9205 21.4425 29.4182 21.7582 29.83 22.17C30.2418 22.5818 30.5575 23.0795 30.7546 23.6275C30.9517 24.1755 31.0252 24.7603 30.97 25.34C31.1522 25.543 31.313 25.7642 31.45 26ZM28 28C28 27.2089 27.7654 26.4356 27.3259 25.7778C26.8864 25.12 26.2616 24.6073 25.5307 24.3045C24.7998 24.0018 23.9956 23.9226 23.2196 24.0769C22.4437 24.2312 21.731 24.6122 21.1716 25.1716C20.6122 25.731 20.2312 26.4438 20.0769 27.2197C19.9225 27.9956 20.0017 28.7999 20.3045 29.5308C20.6072 30.2617 21.1199 30.8864 21.7777 31.3259C22.4355 31.7654 23.2089 32 24 32C25.0609 32 26.0783 31.5786 26.8284 30.8285C27.5786 30.0783 28 29.0609 28 28Z" fill="#FFF978"/>
<path d="M29 21.54C29.3038 21.7116 29.583 21.9235 29.83 22.17C30.2391 22.5836 30.5531 23.0816 30.75 23.6291C30.9469 24.1766 31.022 24.7605 30.97 25.34C31.3515 25.77 31.6408 26.2737 31.82 26.82L32 26.76L44.9 27.99C43.995 27.811 43.252 25.229 43.054 21.814L29 20.476V21.54Z" fill="#E1E7F7"/>
<path d="M4.94598 21.814C4.74598 25.229 4.00498 27.814 3.09998 27.99L16 26.76L16.18 26.82C16.3592 26.2737 16.6485 25.77 17.03 25.34C16.978 24.7605 17.0531 24.1766 17.25 23.6291C17.4469 23.0816 17.7608 22.5836 18.17 22.17C18.417 21.9235 18.6962 21.7116 19 21.54V20.476L4.94598 21.814Z" fill="#E1E7F7"/>
<path d="M43.918 13.282C43.2419 15.455 42.9317 17.7253 43 20C42.9317 22.2747 43.2419 24.545 43.918 26.718C44.541 25.872 45 23.188 45 20C45 16.812 44.541 14.128 43.918 13.282Z" fill="#999DC2"/>
<path d="M4.082 13.282C4.75805 15.455 5.06828 17.7253 5 20C5.06828 22.2747 4.75805 24.545 4.082 26.718C3.459 25.872 3 23.188 3 20C3 16.812 3.459 14.128 4.082 13.282Z" fill="#999DC2"/>
<path d="M28.94 13.54C28.8367 13.1027 28.589 12.7129 28.2371 12.4335C27.8851 12.1542 27.4494 12.0014 27 12H21C20.5506 12.0014 20.1149 12.1542 19.7629 12.4335C19.411 12.7129 19.1634 13.1027 19.06 13.54C19.0198 13.69 18.9996 13.8447 19 14V17C18.9996 16.8447 19.0198 16.69 19.06 16.54C19.1634 16.1027 19.411 15.7129 19.7629 15.4335C20.1149 15.1542 20.5506 15.0014 21 15H27C27.4494 15.0014 27.8851 15.1542 28.2371 15.4335C28.589 15.7129 28.8367 16.1027 28.94 16.54C28.9802 16.69 29.0004 16.8447 29 17V14C29.0004 13.8447 28.9802 13.69 28.94 13.54Z" fill="#FFC69E"/>
<path d="M24 30C23.1151 29.9988 22.2558 29.7034 21.5572 29.1603C20.8586 28.6172 20.3604 27.8572 20.141 27C19.9791 27.5934 19.9563 28.2161 20.0742 28.8198C20.1922 29.4234 20.4478 29.9918 20.8211 30.4806C21.1944 30.9694 21.6755 31.3655 22.2268 31.6382C22.7781 31.9108 23.3849 32.0527 24 32.0527C24.6151 32.0527 25.2219 31.9108 25.7732 31.6382C26.3245 31.3655 26.8056 30.9694 27.1789 30.4806C27.5522 29.9918 27.8078 29.4234 27.9258 28.8198C28.0437 28.2161 28.0209 27.5934 27.859 27C27.6396 27.8572 27.1414 28.6172 26.4428 29.1603C25.7442 29.7034 24.8849 29.9988 24 30Z" fill="#976EFA"/>
<path d="M19.627 36.746L18 40L20 44L23.064 37.873C22.425 37.7167 21.8335 37.4079 21.34 36.973C20.7594 37.0182 20.1758 36.9408 19.627 36.746Z" fill="#FB9881"/>
<path d="M26.66 36.97C26.1665 37.4049 25.5749 37.7137 24.936 37.87L28 44L30 40L28.373 36.746C27.824 36.9398 27.2404 37.0161 26.66 36.97Z" fill="#FB9881"/>
<path d="M21.34 34.97C21.0681 34.9908 20.7948 34.9851 20.524 34.953L19.624 36.746C20.173 36.9399 20.7566 37.0162 21.337 36.97C21.8305 37.4049 22.4221 37.7138 23.061 37.87L24 36C23.0167 35.9964 22.0694 35.6295 21.34 34.97Z" fill="#FF8488"/>
<path d="M18.17 35.83C18.5812 36.2403 19.0791 36.5533 19.627 36.746L20.527 34.953C19.6365 34.8577 18.8051 34.4616 18.17 33.83C18.0399 33.7018 17.9226 33.5612 17.82 33.41L17.327 34.52C17.4509 34.8374 17.6167 35.1367 17.82 35.41C17.9226 35.5612 18.0399 35.7018 18.17 35.83Z" fill="#FB9881"/>
<path d="M28.373 36.746L27.473 34.953C27.2022 34.9851 26.9289 34.9908 26.657 34.97C25.9284 35.6289 24.9823 35.9956 24 36L24.936 37.873C25.575 37.7168 26.1665 37.4079 26.66 36.973C27.2406 37.0182 27.8242 36.9409 28.373 36.746Z" fill="#FF8488"/>
<path d="M29.83 33.83C29.1957 34.461 28.3655 34.857 27.476 34.953L28.376 36.746C28.924 36.5533 29.4218 36.2403 29.833 35.83C29.9632 35.7018 30.0804 35.5612 30.183 35.41C30.3863 35.1367 30.5521 34.8374 30.676 34.52L30.183 33.41C30.0795 33.5613 29.9612 33.702 29.83 33.83Z" fill="#FB9881"/>
<path d="M19 19.427C18.1451 19.6367 17.3628 20.0739 16.736 20.692L19 20.476V19.427Z" fill="#E1E7F7"/>
<path d="M31.264 20.692C30.6372 20.0739 29.8549 19.6367 29 19.427V20.476L31.264 20.692Z" fill="#E1E7F7"/>
<path d="M29 20.476V19.427C28.4528 19.2908 27.8872 19.2435 27.325 19.287C26.4156 18.459 25.2299 18.0001 24 18.0001C22.7701 18.0001 21.5844 18.459 20.675 19.287C20.1128 19.2435 19.5472 19.2908 19 19.427V21.54C19.1935 21.4313 19.3959 21.3393 19.605 21.265C19.674 21.24 19.744 21.225 19.814 21.204C19.9903 21.1503 20.17 21.1089 20.352 21.08C20.436 21.067 20.518 21.053 20.602 21.045C20.8465 21.0195 21.0927 21.0145 21.338 21.03C21.6949 20.7116 22.1043 20.4575 22.548 20.279C23.4789 19.9069 24.5171 19.9069 25.448 20.279C25.8916 20.4577 26.3009 20.7118 26.658 21.03C26.9033 21.0145 27.1495 21.0195 27.394 21.045C27.478 21.054 27.56 21.066 27.644 21.08C27.8261 21.1084 28.0059 21.1498 28.182 21.204C28.252 21.225 28.322 21.24 28.391 21.265C28.6015 21.3391 28.8052 21.4311 29 21.54V20.476Z" fill="#FF8488"/>
<path d="M32 26.76L33.871 26.938C33.8033 26.6159 33.7027 26.3016 33.571 26C33.4953 25.8285 33.4098 25.6616 33.315 25.5C33.1438 25.2051 32.9427 24.9287 32.715 24.675C32.7799 23.9504 32.6859 23.2205 32.4396 22.536C32.1933 21.8515 31.8007 21.229 31.289 20.712L31.266 20.692L29 20.476V21.54C29.023 21.553 29.044 21.57 29.066 21.584C29.115 21.612 29.16 21.645 29.207 21.676C29.4313 21.8185 29.6401 21.9841 29.83 22.17C30.2391 22.5836 30.5531 23.0816 30.75 23.6291C30.9469 24.1766 31.022 24.7605 30.97 25.34C31.1522 25.5429 31.313 25.7641 31.45 26L31.462 26.024C31.472 26.041 31.479 26.06 31.489 26.077C31.5628 26.2087 31.6295 26.3442 31.689 26.483C31.718 26.551 31.736 26.624 31.761 26.694C31.776 26.736 31.801 26.773 31.815 26.816L32 26.76Z" fill="#C7CCF0"/>
<path d="M19 20.476L16.736 20.692L16.713 20.712C16.2014 21.229 15.8087 21.8515 15.5624 22.536C15.3161 23.2205 15.2221 23.9504 15.287 24.675C15.0593 24.9287 14.8582 25.2051 14.687 25.5C14.5929 25.6618 14.5078 25.8287 14.432 26C14.3003 26.3016 14.1998 26.6159 14.132 26.938L16 26.76L16.18 26.82C16.194 26.777 16.219 26.74 16.234 26.698C16.259 26.628 16.277 26.555 16.306 26.487C16.3655 26.3482 16.4322 26.2127 16.506 26.081C16.516 26.064 16.523 26.045 16.533 26.028L16.55 26C16.687 25.7641 16.8478 25.5429 17.03 25.34C16.9781 24.7605 17.0531 24.1766 17.25 23.6291C17.4469 23.0816 17.7609 22.5836 18.17 22.17C18.3599 21.9841 18.5687 21.8185 18.793 21.676C18.84 21.645 18.885 21.612 18.934 21.584C18.956 21.57 18.977 21.553 19 21.54V20.476Z" fill="#C7CCF0"/>
<path d="M26.4936 27.519C26.8157 27.1967 26.7132 26.5721 26.2647 26.124C25.8163 25.6758 25.1916 25.5738 24.8695 25.896C24.5475 26.2183 24.6499 26.8429 25.0984 27.2911C25.5469 27.7393 26.1716 27.8413 26.4936 27.519Z" fill="#F6FAFD"/>
<path d="M22.8328 28.6141C22.994 28.4527 22.9429 28.1403 22.7187 27.9162C22.4945 27.6921 22.182 27.6412 22.0208 27.8026C21.8595 27.9639 21.9106 28.2764 22.1348 28.5005C22.3591 28.7245 22.6716 28.7754 22.8328 28.6141Z" fill="#F6FAFD"/>
<path d="M27.4942 15.5194C27.8163 15.1971 27.7138 14.5725 27.2653 14.1243C26.8169 13.6762 26.1922 13.5741 25.8701 13.8964C25.5481 14.2187 25.6506 14.8433 26.099 15.2915C26.5475 15.7396 27.1722 15.8417 27.4942 15.5194Z" fill="#F6FAFD"/>
<path d="M23.8327 14.6136C23.994 14.4522 23.9429 14.1398 23.7186 13.9157C23.4944 13.6916 23.1819 13.6408 23.0207 13.8021C22.8595 13.9634 22.9105 14.2759 23.1348 14.5C23.359 14.7241 23.6715 14.7749 23.8327 14.6136Z" fill="#F6FAFD"/>
<path d="M24 33C24.9889 33 25.9556 32.7068 26.7779 32.1574C27.6001 31.6079 28.241 30.8271 28.6194 29.9134C28.9978 28.9998 29.0969 27.9945 28.9039 27.0245C28.711 26.0546 28.2348 25.1637 27.5355 24.4645C26.8363 23.7652 25.9454 23.289 24.9755 23.0961C24.0055 22.9031 23.0002 23.0022 22.0866 23.3806C21.173 23.759 20.3921 24.3999 19.8427 25.2222C19.2932 26.0444 19 27.0111 19 28C19.0016 29.3256 19.5289 30.5964 20.4662 31.5338C21.4036 32.4711 22.6744 32.9984 24 33ZM24 25C24.5933 25 25.1734 25.1759 25.6667 25.5056C26.1601 25.8352 26.5446 26.3038 26.7716 26.852C26.9987 27.4001 27.0581 28.0033 26.9424 28.5853C26.8266 29.1672 26.5409 29.7018 26.1213 30.1213C25.7018 30.5409 25.1672 30.8266 24.5853 30.9424C24.0033 31.0581 23.4001 30.9987 22.8519 30.7716C22.3038 30.5446 21.8352 30.1601 21.5056 29.6667C21.1759 29.1734 21 28.5933 21 28C21 27.2044 21.3161 26.4413 21.8787 25.8787C22.4413 25.3161 23.2043 25 24 25Z" fill="black"/>
<path d="M31.31 33.4859C31.7475 32.7303 31.9792 31.8731 31.982 30.9999C32.6423 30.1392 33.0001 29.0847 33.0001 27.9999C33.0001 26.9152 32.6423 25.8607 31.982 24.9999C31.988 24.3451 31.8636 23.6957 31.6162 23.0894C31.3688 22.4831 31.0032 21.9321 30.5408 21.4684C30.0783 21.0048 29.5283 20.6378 28.9226 20.3887C28.317 20.1397 27.6678 20.0137 27.013 20.0179H27C26.1315 19.376 25.08 19.0295 24 19.0295C22.92 19.0295 21.8685 19.376 21 20.0179H20.988C20.3331 20.0135 19.6839 20.1395 19.0781 20.3884C18.4723 20.6374 17.9222 21.0044 17.4596 21.4681C16.9971 21.9317 16.6314 22.4828 16.3839 23.0891C16.1364 23.6955 16.012 24.345 16.018 24.9999C15.3578 25.8607 14.9999 26.9152 14.9999 27.9999C14.9999 29.0847 15.3578 30.1392 16.018 30.9999C16.0211 31.8731 16.2528 32.7302 16.69 33.4859L13.09 41.5939C13.0065 41.7822 12.9832 41.9916 13.0232 42.1936C13.0632 42.3955 13.1645 42.5802 13.3134 42.7225C13.4623 42.8647 13.6515 42.9575 13.8551 42.9882C14.0587 43.0189 14.2668 42.986 14.451 42.8939L17.557 41.3409L19.109 44.4459C19.1919 44.6124 19.3196 44.7523 19.4777 44.8502C19.6358 44.948 19.8181 44.9999 20.004 44.9999C20.1899 44.9999 20.3722 44.948 20.5303 44.8502C20.6884 44.7523 20.8161 44.6124 20.899 44.4459L24 38.2359L27.105 44.4469C27.1879 44.6133 27.3156 44.7533 27.4737 44.8512C27.6318 44.949 27.8141 45.0009 28 45.0009C28.1859 45.0009 28.3682 44.949 28.5263 44.8512C28.6844 44.7533 28.8121 44.6133 28.895 44.4469L30.447 41.3419L33.553 42.8999C33.7372 42.992 33.9453 43.0249 34.1489 42.9942C34.3525 42.9635 34.5417 42.8707 34.6906 42.7285C34.8395 42.5862 34.9408 42.4015 34.9808 42.1996C35.0208 41.9976 34.9975 41.7882 34.914 41.5999L31.31 33.4859ZM17.777 26.0079C17.8682 25.9063 17.9376 25.787 17.981 25.6575C18.0243 25.528 18.0406 25.391 18.029 25.2549C17.9859 24.8206 18.0397 24.3821 18.1866 23.9711C18.3334 23.5601 18.5697 23.1869 18.8783 22.8783C19.1869 22.5696 19.5602 22.3334 19.9712 22.1865C20.3822 22.0396 20.8207 21.9858 21.255 22.0289C21.3911 22.0411 21.5282 22.0249 21.6578 21.9816C21.7874 21.9382 21.9066 21.8685 22.008 21.7769C22.5586 21.2924 23.267 21.0251 24.0005 21.0251C24.734 21.0251 25.4424 21.2924 25.993 21.7769C26.094 21.8688 26.2131 21.9386 26.3425 21.982C26.472 22.0254 26.609 22.0414 26.745 22.0289C27.1793 21.9858 27.6178 22.0396 28.0288 22.1865C28.4398 22.3334 28.8131 22.5696 29.1217 22.8783C29.4303 23.1869 29.6666 23.5601 29.8135 23.9711C29.9603 24.3821 30.0141 24.8206 29.971 25.2549C29.9594 25.391 29.9757 25.528 30.0191 25.6575C30.0624 25.787 30.1318 25.9063 30.223 26.0079C30.7227 26.551 31 27.262 31 27.9999C31 28.7379 30.7227 29.4489 30.223 29.9919C30.1318 30.0936 30.0624 30.2129 30.0191 30.3424C29.9757 30.4719 29.9594 30.6089 29.971 30.7449C30.0141 31.1793 29.9603 31.6177 29.8135 32.0287C29.6666 32.4397 29.4303 32.813 29.1217 33.1216C28.8131 33.4303 28.4398 33.6665 28.0288 33.8134C27.6178 33.9603 27.1793 34.0141 26.745 33.9709C26.6089 33.9593 26.4719 33.9757 26.3424 34.019C26.2129 34.0623 26.0937 34.1317 25.992 34.2229C25.4414 34.7075 24.733 34.9748 23.9995 34.9748C23.266 34.9748 22.5576 34.7075 22.007 34.2229C21.8238 34.0584 21.5863 33.9672 21.34 33.9669C21.3117 33.9654 21.2833 33.9654 21.255 33.9669C20.8207 34.0101 20.3822 33.9563 19.9712 33.8094C19.5602 33.6625 19.1869 33.4263 18.8783 33.1176C18.5697 32.809 18.3334 32.4357 18.1866 32.0247C18.0397 31.6137 17.9859 31.1753 18.029 30.7409C18.0406 30.6049 18.0243 30.4679 17.981 30.3384C17.9376 30.2089 17.8682 30.0896 17.777 29.9879C17.2774 29.4449 17 28.7339 17 27.9959C17 27.258 17.2774 26.547 17.777 26.0039V26.0079ZM20 41.7639L18.9 39.5529C18.8414 39.4354 18.7601 39.3305 18.6609 39.2444C18.5617 39.1582 18.4465 39.0924 18.3218 39.0508C18.1972 39.0092 18.0656 38.9926 17.9345 39.0019C17.8035 39.0112 17.6755 39.0462 17.558 39.1049L16.051 39.8589L18.159 35.0999C18.991 35.6724 19.9772 35.9785 20.987 35.9779H21C21.4526 36.3197 21.9597 36.5824 22.5 36.7549L20 41.7639ZM30.447 39.0999C30.3295 39.0412 30.2015 39.0062 30.0705 38.9969C29.9394 38.9876 29.8078 39.0042 29.6832 39.0458C29.5585 39.0874 29.4433 39.1532 29.3441 39.2394C29.2449 39.3255 29.1637 39.4304 29.105 39.5479L28 41.7639L25.5 36.7589C26.0404 36.5867 26.5476 36.3239 27 35.9819H27.013C28.0229 35.9825 29.0091 35.6764 29.841 35.1039L31.954 39.8589L30.447 39.0999Z" fill="black"/>
<path d="M34.0889 25.9801L33.8988 27.9711L35.8987 28.162L36.0888 26.1711L34.0889 25.9801Z" fill="black"/>
<path d="M45 11C44.967 11 44.939 11.014 44.906 11.016V11L29.564 12.466C29.3 12.0206 28.925 11.6514 28.4756 11.3944C28.0261 11.1375 27.5177 11.0016 27 11H21C20.4823 11.0016 19.9739 11.1375 19.5244 11.3944C19.075 11.6514 18.7 12.0206 18.436 12.466L3.1 11V11.012C3.061 11.014 3.033 11 3 11C0.145 11 0 18.5 0 20C0 21.5 0.145 29 3 29C3.033 29 3.061 28.986 3.094 28.984V29L14.094 27.952L13.904 25.961L5.114 26.798C5.73177 24.5858 6.03012 22.2966 6 20C6.03006 17.7047 5.73205 15.417 5.115 13.206L18 14.433V19H20V14C20 13.7348 20.1054 13.4804 20.2929 13.2929C20.4804 13.1054 20.7348 13 21 13H27C27.2652 13 27.5196 13.1054 27.7071 13.2929C27.8946 13.4804 28 13.7348 28 14V19H30V14.433L42.885 13.206C42.268 15.417 41.9699 17.7047 42 20C41.9699 22.2953 42.268 24.583 42.885 26.794L38.094 26.338L37.905 28.329L44.905 28.996V28.984C44.938 28.984 44.966 29 44.999 29C47.854 29 47.999 21.5 47.999 20C47.999 18.5 47.855 11 45 11ZM2 20C1.88944 17.7135 2.22921 15.4275 3 13.272C3.77079 15.4275 4.11056 17.7135 4 20C4.11056 22.2865 3.77079 24.5725 3 26.728C2.22921 24.5725 1.88944 22.2865 2 20ZM45 26.728C44.2292 24.5725 43.8894 22.2865 44 20C43.8894 17.7135 44.2292 15.4275 45 13.272C45.7708 15.4275 46.1106 17.7135 46 20C46.1106 22.2865 45.7708 24.5725 45 26.728Z" fill="black"/>
<rect width="48" height="48" fill="white" style="mix-blend-mode:saturation"/>
</g>
<defs>
<clipPath id="clip0_10680_9342">
<rect width="48" height="48" fill="white"/>
</clipPath>
</defs>
</svg>
