<svg width="24" height="25" viewBox="0 0 24 25" fill="none" xmlns="http://www.w3.org/2000/svg">
<path d="M1.92 16.508V3.38004C1.92 2.85204 2.352 2.42004 2.88 2.42004H21.12C21.648 2.42004 22.08 2.85204 22.08 3.38004V16.508C22.08 17.036 21.648 17.468 21.12 17.468H2.88C2.352 17.468 1.92 17.036 1.92 16.508Z" fill="#83E1E5"/>
<path d="M8.9568 7.42167V12.4617C8.9568 13.4217 10.032 13.9881 10.824 13.4457L14.52 10.9257C15.216 10.4505 15.216 9.42808 14.52 8.95287L10.824 6.43287C10.032 5.89527 8.9568 6.46647 8.9568 7.42167Z" fill="#FDDF7F"/>
<path d="M10.1568 13.9016C9.9264 13.9016 9.7008 13.844 9.4848 13.7336C9.0048 13.4792 8.7216 13.0088 8.7216 12.4664V7.42645C8.7216 6.88405 9.0048 6.41365 9.4848 6.15925C9.9648 5.90485 10.5168 5.93845 10.9632 6.24085L14.6592 8.76085C15.0528 9.02965 15.2832 9.47125 15.2832 9.94645C15.2832 10.4216 15.048 10.8632 14.6592 11.132L10.9632 13.652C10.7136 13.8152 10.4352 13.9016 10.1568 13.9016ZM10.152 6.46645C9.9984 6.46645 9.8496 6.50485 9.7056 6.58165C9.3888 6.74965 9.1968 7.06645 9.1968 7.42645V12.4664C9.1968 12.8264 9.3888 13.1432 9.7056 13.3112C10.0224 13.4792 10.392 13.46 10.6896 13.2584L14.3856 10.7384C14.6496 10.556 14.8032 10.2728 14.8032 9.95125C14.8032 9.62965 14.6496 9.34165 14.3856 9.16405L10.6896 6.64405C10.5264 6.52405 10.3392 6.46645 10.152 6.46645Z" fill="#1C1D21"/>
<path d="M17.7984 24.5H6.2016C6.0672 24.5 5.9616 24.3944 5.9616 24.26V23.78C5.9616 22.7192 6.8208 21.86 7.8816 21.86H9.0768C9.528 21.86 9.8976 21.4904 9.8976 21.0392V20.3912C9.8976 19.8392 9.4464 19.388 8.8944 19.388H1.68C0.7536 19.388 0 18.6344 0 17.708V2.18C0 1.2536 0.7536 0.5 1.68 0.5H22.32C23.2464 0.5 24 1.2536 24 2.18V17.708C24 18.6344 23.2464 19.388 22.32 19.388H15.1008C14.5488 19.388 14.0976 19.8392 14.0976 20.3912V21.0392C14.0976 21.4904 14.4672 21.86 14.9184 21.86H16.1136C17.1744 21.86 18.0336 22.7192 18.0336 23.78V24.26C18.0384 24.3944 17.928 24.5 17.7984 24.5ZM6.4416 24.02H17.5536V23.78C17.5536 22.988 16.9056 22.34 16.1136 22.34H14.9184C14.1984 22.34 13.6176 21.7544 13.6176 21.0392V20.3912C13.6176 19.5752 14.2848 18.908 15.1008 18.908H22.32C22.9824 18.908 23.52 18.3704 23.52 17.708V2.18C23.52 1.5176 22.9824 0.98 22.32 0.98H1.68C1.0176 0.98 0.48 1.5176 0.48 2.18V17.708C0.48 18.3704 1.0176 18.908 1.68 18.908H8.8992C9.7152 18.908 10.3824 19.5752 10.3824 20.3912V21.0392C10.3824 21.7592 9.7968 22.34 9.0816 22.34H7.8864C7.0944 22.34 6.4464 22.988 6.4464 23.78V24.02H6.4416Z" fill="#1C1D21"/>
<path d="M10.7808 19.388H8.59201C8.45761 19.388 8.35201 19.2824 8.35201 19.148C8.35201 19.0136 8.45761 18.908 8.59201 18.908H10.7808C10.9152 18.908 11.0208 19.0136 11.0208 19.148C11.0208 19.2824 10.9104 19.388 10.7808 19.388Z" fill="#1C1D21"/>
<path d="M12.456 19.388H12C11.8656 19.388 11.76 19.2824 11.76 19.148C11.76 19.0136 11.8656 18.908 12 18.908H12.456C12.5904 18.908 12.696 19.0136 12.696 19.148C12.696 19.2824 12.5904 19.388 12.456 19.388Z" fill="#1C1D21"/>
<path d="M15.2496 22.34H12.5952C12.4608 22.34 12.3552 22.2344 12.3552 22.1C12.3552 21.9656 12.4608 21.86 12.5952 21.86H15.2496C15.384 21.86 15.4896 21.9656 15.4896 22.1C15.4896 22.2344 15.3792 22.34 15.2496 22.34Z" fill="#1C1D21"/>
<path d="M21.12 17.7081H20.2896C20.1552 17.7081 20.0496 17.6025 20.0496 17.4681C20.0496 17.3337 20.1552 17.2281 20.2896 17.2281H21.12C21.5184 17.2281 21.84 16.9065 21.84 16.5081C21.84 16.3737 21.9456 16.2681 22.08 16.2681C22.2144 16.2681 22.32 16.3737 22.32 16.5081C22.32 17.1705 21.7824 17.7081 21.12 17.7081Z" fill="#1C1D21"/>
<path d="M22.08 15.4664C21.9456 15.4664 21.84 15.3608 21.84 15.2264V11.6744C21.84 11.54 21.9456 11.4344 22.08 11.4344C22.2144 11.4344 22.32 11.54 22.32 11.6744V15.2264C22.32 15.3608 22.2144 15.4664 22.08 15.4664Z" fill="#1C1D21"/>
<path d="M19.224 17.708H18.864C18.7296 17.708 18.624 17.6024 18.624 17.468C18.624 17.3336 18.7296 17.228 18.864 17.228H19.224C19.3584 17.228 19.464 17.3336 19.464 17.468C19.464 17.6024 19.3584 17.708 19.224 17.708Z" fill="#1C1D21"/>
<path d="M1.91999 3.62005C1.78559 3.62005 1.67999 3.51445 1.67999 3.38005C1.67999 2.71765 2.21759 2.18005 2.87999 2.18005H3.71039C3.84479 2.18005 3.95039 2.28565 3.95039 2.42005C3.95039 2.55445 3.84479 2.66005 3.71039 2.66005H2.87999C2.48159 2.66005 2.15999 2.98165 2.15999 3.38005C2.15999 3.51445 2.05439 3.62005 1.91999 3.62005Z" fill="#1C1D21"/>
<path d="M1.91999 8.45363C1.78559 8.45363 1.67999 8.34803 1.67999 8.21363V4.66163C1.67999 4.52723 1.78559 4.42163 1.91999 4.42163C2.05439 4.42163 2.15999 4.52723 2.15999 4.66163V8.21363C2.15999 8.34323 2.05439 8.45363 1.91999 8.45363Z" fill="#1C1D21"/>
<path d="M5.136 2.66005H4.776C4.6416 2.66005 4.536 2.55445 4.536 2.42005C4.536 2.28565 4.6416 2.18005 4.776 2.18005H5.136C5.2704 2.18005 5.376 2.28565 5.376 2.42005C5.376 2.55445 5.2704 2.66005 5.136 2.66005Z" fill="#1C1D21"/>
</svg>
