<svg width="58" height="58" viewBox="0 0 58 58" fill="none" xmlns="http://www.w3.org/2000/svg">
<path d="M12.404 1.09309L6.292 1.08984C3.43875 1.08834 1.125 3.40109 1.125 6.25409V45.9956C1.125 48.8476 3.43725 51.1598 6.28925 51.1598H36.0858C38.9378 51.1598 41.25 48.8476 41.25 45.9956V14.1211L41.174 6.22009C41.1468 3.38834 38.8445 1.10684 36.0127 1.10534L15.5963 1.09459L12.404 1.09309Z" fill="#6D6D6D"/>
<path d="M36.0858 51.5348H6.28925C3.235 51.5348 0.75 49.0498 0.75 45.9953V6.25409C0.75 4.77384 1.3265 3.38259 2.3735 2.33609C3.4195 1.29034 4.81025 0.714844 6.28925 0.714844C6.29025 0.714844 6.291 0.714844 6.29225 0.714844L12.4043 0.718094C12.6113 0.718094 12.7793 0.886094 12.779 1.09334C12.779 1.30034 12.611 1.46809 12.404 1.46809C12.404 1.46809 12.404 1.46809 12.4038 1.46809L6.29175 1.46459C6.291 1.46459 6.29 1.46459 6.28925 1.46459C5.01025 1.46459 3.80825 1.96234 2.9035 2.86634C1.9985 3.77134 1.5 4.97409 1.5 6.25409V45.9956C1.5 48.6366 3.6485 50.7848 6.28925 50.7848H36.0858C38.7265 50.7848 40.875 48.6363 40.875 45.9956V14.1208L40.799 6.22334C40.7738 3.60909 38.6268 1.48134 36.0125 1.47984L15.596 1.46959C15.389 1.46959 15.2213 1.30159 15.2213 1.09434C15.2213 0.887344 15.3893 0.719594 15.5963 0.719594C15.5963 0.719594 15.5963 0.719594 15.5965 0.719594L36.0133 0.730094C39.0368 0.731594 41.5203 3.19284 41.5493 6.21609L41.6253 14.1173V45.9956C41.625 49.0498 39.1403 51.5348 36.0858 51.5348Z" fill="#3A312A"/>
<path d="M6.875 28.8224V51.6962C6.875 54.5777 9.20725 56.9097 12.0885 56.9097H41.7865C44.6677 56.9097 47 54.5777 47 51.6962V19.8709L33.9663 6.83691H12.0887C9.2075 6.83691 6.87525 9.16916 6.87525 12.0504V25.5182V28.8224H6.875Z" fill="#F7E3C7"/>
<path d="M41.7865 57.2847H12.0885C9.007 57.2847 6.5 54.7774 6.5 51.6959V28.8222C6.5 28.6152 6.66775 28.4472 6.875 28.4472C7.08225 28.4472 7.25 28.6152 7.25 28.8222V51.6959C7.25 54.3639 9.4205 56.5344 12.0885 56.5344H41.7865C44.4545 56.5344 46.625 54.3637 46.625 51.6959V20.0259L33.8107 7.21191H12.0885C9.4205 7.21191 7.25 9.38241 7.25 12.0504V25.5179C7.25 25.7249 7.08225 25.8929 6.875 25.8929C6.66775 25.8929 6.5 25.7249 6.5 25.5179V12.0504C6.5 8.96891 9.007 6.46191 12.0885 6.46191H33.966C34.0655 6.46191 34.1608 6.50141 34.2313 6.57166L47.2653 19.6057C47.3355 19.6759 47.375 19.7714 47.375 19.8709V51.6962C47.375 54.7774 44.868 57.2847 41.7865 57.2847Z" fill="#3A312A"/>
<path d="M39.6266 36.0508H14.2486C14.0413 36.0508 13.8736 35.8828 13.8736 35.6758C13.8736 35.4688 14.0413 35.3008 14.2486 35.3008H39.6268C39.8341 35.3008 40.0018 35.4688 40.0018 35.6758C40.0016 35.8828 39.8338 36.0508 39.6266 36.0508Z" fill="#3A312A"/>
<path d="M39.6266 42.2725H14.2486C14.0413 42.2725 13.8736 42.1045 13.8736 41.8975C13.8736 41.6905 14.0413 41.5225 14.2486 41.5225H39.6268C39.8341 41.5225 40.0018 41.6905 40.0018 41.8975C40.0016 42.1045 39.8338 42.2725 39.6266 42.2725Z" fill="#3A312A"/>
<path d="M39.6266 48.4951H14.2486C14.0413 48.4951 13.8736 48.3271 13.8736 48.1201C13.8736 47.9131 14.0413 47.7451 14.2486 47.7451H39.6268C39.8341 47.7451 40.0018 47.9131 40.0018 48.1201C40.0016 48.3271 39.8338 48.4951 39.6266 48.4951Z" fill="#3A312A"/>
<path d="M47.0001 19.8713V19.9035H38.5831C36.0481 19.9035 33.9931 17.8485 33.9931 15.3135V6.86426L47.0001 19.8713Z" fill="#F7E3C7"/>
<path d="M47.0001 20.2777H38.5833C35.8456 20.2777 33.6183 18.0504 33.6183 15.3127V6.86344C33.6183 6.71194 33.7096 6.57519 33.8498 6.51694C33.9901 6.45869 34.1516 6.49094 34.2586 6.59819L47.2656 19.6052C47.3358 19.6754 47.3753 19.7709 47.3753 19.8704V19.9027C47.3751 20.1097 47.2073 20.2777 47.0001 20.2777ZM34.3681 7.76869V15.3127C34.3681 17.6369 36.2588 19.5277 38.5831 19.5277H46.1268L34.3681 7.76869Z" fill="#3A312A"/>
<path d="M53.5695 3.53223C53.5695 3.53223 54.4215 6.69698 56.875 6.84373C56.875 6.84373 53.6 7.97498 53.5447 10.3942C53.5447 10.3942 52.9 7.00123 50.3135 6.87948C50.3135 6.87973 53.326 6.42323 53.5695 3.53223Z" fill="#D7E057"/>
<path d="M53.5442 10.7695C53.3662 10.7695 53.2105 10.643 53.1762 10.4652C53.1702 10.434 52.5525 7.36071 50.2955 7.25421C50.103 7.24521 49.9487 7.09171 49.9387 6.89896C49.9287 6.70646 50.0665 6.53796 50.257 6.50871C50.3672 6.49171 52.9807 6.05471 53.1957 3.50071C53.211 3.31921 53.3542 3.17546 53.5355 3.15896C53.716 3.14146 53.8837 3.25846 53.9315 3.43446C53.9395 3.46346 54.7462 6.34096 56.8975 6.46996C57.076 6.48071 57.2217 6.61596 57.2465 6.79296C57.271 6.96996 57.1667 7.13996 56.998 7.19846C56.9677 7.20896 53.9685 8.27621 53.9197 10.4032C53.9152 10.595 53.7672 10.7522 53.5762 10.7682C53.5655 10.769 53.5547 10.7695 53.5442 10.7695ZM51.609 6.83721C52.5785 7.32946 53.1667 8.27371 53.5057 9.05646C54.0125 8.05096 54.9912 7.35946 55.743 6.94946C54.7095 6.48896 54.0472 5.53671 53.6595 4.76871C53.2115 5.85896 52.3417 6.48596 51.609 6.83721Z" fill="#3A312A"/>
<path d="M48.1448 7.77734C48.1448 7.77734 48.7475 10.0158 50.4828 10.1196C50.4828 10.1196 48.1663 10.9198 48.1273 12.6308C48.1273 12.6308 47.6713 10.2308 45.8418 10.1448C45.8418 10.1448 47.9728 9.82209 48.1448 7.77734Z" fill="#D7E057"/>
<path d="M48.1271 13.006C47.9486 13.006 47.7928 12.8792 47.7588 12.701C47.7548 12.6805 47.3328 10.5905 45.8241 10.5195C45.6316 10.5105 45.4773 10.357 45.4673 10.1642C45.4576 9.97174 45.5951 9.80324 45.7856 9.77399C45.8596 9.76224 47.6266 9.46349 47.7711 7.74574C47.7863 7.56424 47.9298 7.41999 48.1111 7.40374C48.2936 7.38824 48.4591 7.50349 48.5066 7.67924C48.5118 7.69899 49.0636 9.65924 50.5051 9.74574C50.6836 9.75649 50.8298 9.89174 50.8541 10.069C50.8786 10.2462 50.7741 10.4162 50.6051 10.4745C50.5848 10.4815 48.5346 11.2125 48.5021 12.6397C48.4976 12.8317 48.3493 12.989 48.1581 13.005C48.1478 13.0055 48.1373 13.006 48.1271 13.006ZM46.9973 10.1242C47.5241 10.4572 47.8781 10.973 48.1091 11.444C48.4531 10.886 48.9878 10.4762 49.4503 10.201C48.8786 9.88374 48.4793 9.36349 48.2151 8.89474C47.9216 9.46674 47.4613 9.86399 46.9973 10.1242Z" fill="#3A312A"/>
<path d="M48.1448 1.11328C48.1448 1.11328 48.7475 3.35178 50.4828 3.45578C50.4828 3.45578 48.1663 4.25603 48.1273 5.96703C48.1273 5.96703 47.6713 3.56703 45.8418 3.48103C45.8418 3.48103 47.9728 3.15803 48.1448 1.11328Z" fill="#D7E057"/>
<path d="M48.1268 6.34225C47.9486 6.34225 47.7926 6.2155 47.7588 6.03725C47.7548 6.01675 47.3328 3.92675 45.8241 3.85575C45.6316 3.84675 45.4773 3.69325 45.4673 3.5005C45.4576 3.308 45.5951 3.1395 45.7856 3.11025C45.8596 3.0985 47.6266 2.79975 47.7711 1.082C47.7863 0.900504 47.9298 0.756254 48.1111 0.740004C48.2936 0.722504 48.4591 0.840004 48.5066 1.0155C48.5118 1.03525 49.0636 2.9955 50.5049 3.08175C50.6836 3.09225 50.8296 3.22775 50.8541 3.405C50.8786 3.58225 50.7744 3.752 50.6051 3.8105C50.5849 3.8175 48.5346 4.54875 48.5021 5.976C48.4976 6.168 48.3493 6.32525 48.1581 6.34125C48.1476 6.34175 48.1371 6.34225 48.1268 6.34225ZM46.9971 3.4605C47.5238 3.7935 47.8778 4.309 48.1088 4.78025C48.4528 4.22225 48.9876 3.81225 49.4498 3.537C48.8781 3.21975 48.4788 2.6995 48.2146 2.231C47.9213 2.803 47.4611 3.20025 46.9971 3.4605Z" fill="#3A312A"/>
<path d="M23.3937 32.6599L22.284 30.4291L19.75 30.6521L24.1765 22.6191L27.8202 24.6271L23.3937 32.6599Z" fill="#87796F"/>
<path d="M23.3937 33.0352C23.3912 33.0352 23.3885 33.0352 23.3857 33.0352C23.2462 33.0322 23.12 32.9522 23.0577 32.8272L22.062 30.8252L19.7827 31.0257C19.6455 31.0379 19.5115 30.9729 19.4357 30.8567C19.3602 30.7407 19.3547 30.5924 19.4215 30.4712L23.848 22.4384C23.948 22.2569 24.1757 22.1907 24.3575 22.2909L28.0012 24.2987C28.0882 24.3464 28.1527 24.4274 28.1805 24.5227C28.208 24.6182 28.1967 24.7209 28.1487 24.8079L23.7222 32.8409C23.6562 32.9609 23.5302 33.0352 23.3937 33.0352ZM22.2842 30.0542C22.4255 30.0542 22.556 30.1339 22.6197 30.2622L23.4107 31.8522L27.311 24.7744L24.324 23.1287L20.418 30.2167L22.2512 30.0554C22.2622 30.0547 22.2732 30.0542 22.2842 30.0542Z" fill="#3A312A"/>
<path d="M30.6062 32.6599L31.7159 30.4291L34.2499 30.6521L29.8234 22.6191L26.1797 24.6271L30.6062 32.6599Z" fill="#87796F"/>
<path d="M30.6063 33.0349C30.4698 33.0349 30.3438 32.9607 30.2778 32.8409L25.8513 24.8079C25.8033 24.7209 25.7921 24.6182 25.8196 24.5227C25.8473 24.4272 25.9118 24.3464 25.9988 24.2987L29.6426 22.2909C29.8243 22.1907 30.0521 22.2569 30.1521 22.4384L34.5786 30.4712C34.6453 30.5924 34.6398 30.7407 34.5643 30.8567C34.4886 30.9729 34.3538 31.0377 34.2173 31.0257L31.9381 30.8252L30.9423 32.8272C30.8801 32.9522 30.7538 33.0322 30.6143 33.0352C30.6116 33.0349 30.6088 33.0349 30.6063 33.0349ZM26.6891 24.7744L30.5893 31.8522L31.3803 30.2622C31.4491 30.1239 31.5983 30.0422 31.7488 30.0557L33.5821 30.2169L29.6761 23.1289L26.6891 24.7744Z" fill="#3A312A"/>
<path d="M33.1009 21.8745L33.0976 21.877C32.6449 22.2408 32.4509 22.838 32.6034 23.3983L32.6044 23.4015C32.8494 24.302 32.1981 25.198 31.2659 25.2428H31.2634C30.6826 25.2708 30.1739 25.6405 29.9681 26.1843C29.6376 27.058 28.5826 27.4008 27.8019 26.888H27.8016C27.3154 26.5688 26.6859 26.5688 26.1996 26.888L26.1994 26.8883C25.4184 27.4008 24.3636 27.0583 24.0331 26.1845C23.8274 25.6408 23.3186 25.2708 22.7379 25.243L22.7354 25.2428C21.8031 25.198 21.1519 24.302 21.3969 23.4015L21.3979 23.3983C21.5504 22.838 21.3564 22.2408 20.9036 21.877L20.9004 21.8745C20.1731 21.2903 20.1731 20.1828 20.9004 19.5985L20.9036 19.596C21.3564 19.2323 21.5504 18.635 21.3979 18.0748L21.3971 18.0715C21.1521 17.171 21.8034 16.2748 22.7356 16.2303L22.7381 16.23C23.3189 16.2023 23.8276 15.8323 24.0334 15.2885C24.3639 14.4148 25.4189 14.072 26.1996 14.5848L26.1999 14.585C26.6861 14.9043 27.3156 14.9043 27.8019 14.585L27.8021 14.5848C28.5831 14.0723 29.6379 14.4148 29.9684 15.2885C30.1741 15.8323 30.6829 16.2023 31.2636 16.23L31.2661 16.2303C32.1984 16.275 32.8499 17.171 32.6046 18.0718L32.6039 18.075C32.4514 18.6353 32.6456 19.2325 33.0981 19.5963L33.1011 19.5988C33.8281 20.1828 33.8281 21.29 33.1009 21.8745Z" fill="#8AC6DD"/>
<path d="M28.6 27.5045C28.2475 27.5045 27.8992 27.402 27.5955 27.2028C27.2335 26.9655 26.7662 26.9653 26.4045 27.2025C25.9362 27.5098 25.3625 27.5868 24.8305 27.4138C24.2982 27.241 23.8795 26.8415 23.6815 26.3183C23.5285 25.9138 23.1507 25.639 22.719 25.6183C22.1577 25.5913 21.6487 25.3165 21.32 24.864C20.9915 24.4118 20.887 23.843 21.0337 23.3038C21.148 22.884 21.0037 22.4405 20.6672 22.17C20.2285 21.8175 19.9785 21.2963 19.9785 20.737C19.9785 20.1783 20.2285 19.657 20.6642 19.3068C21.0037 19.0338 21.148 18.5903 21.0347 18.1738C20.887 17.631 20.9915 17.0625 21.3202 16.61C21.649 16.1578 22.158 15.883 22.7165 15.856C23.151 15.8353 23.5287 15.5605 23.6817 15.156C23.8797 14.6328 24.2985 14.2335 24.8307 14.0605C25.3632 13.8873 25.9367 13.9645 26.4045 14.2715C26.7665 14.5088 27.2337 14.509 27.5955 14.2718C28.0635 13.9643 28.6372 13.8873 29.1695 14.0605C29.7017 14.2333 30.1205 14.6328 30.3185 15.156C30.4715 15.5605 30.8492 15.8353 31.281 15.856C31.8422 15.8828 32.3512 16.1578 32.68 16.6103C33.0087 17.0625 33.113 17.6313 32.9662 18.1705C32.852 18.5903 32.9962 19.0338 33.3327 19.3043C33.7715 19.6568 34.0215 20.178 34.0215 20.7368C34.0215 21.2958 33.7715 21.817 33.3357 22.1673C33.3337 22.169 33.3315 22.1708 33.3295 22.1723L33.3262 22.1748C32.996 22.4403 32.8517 22.884 32.9652 23.3005C33.1127 23.8433 33.0085 24.4118 32.6797 24.864C32.351 25.3165 31.842 25.5913 31.2835 25.6183C30.849 25.639 30.4712 25.9138 30.3182 26.3183C30.1202 26.8415 29.7015 27.2408 29.1692 27.4138C28.9825 27.4743 28.7905 27.5045 28.6 27.5045ZM25.399 14.7205C25.2862 14.7205 25.1727 14.7383 25.0625 14.774C24.7477 14.8763 24.5002 15.1125 24.3832 15.422C24.1245 16.1058 23.4855 16.5705 22.755 16.6053C22.4222 16.621 22.1215 16.7838 21.927 17.051C21.7327 17.3185 21.671 17.6548 21.7577 17.9738C21.9502 18.681 21.7065 19.4315 21.1375 19.8888C20.8767 20.0983 20.729 20.4065 20.729 20.7368C20.729 21.0673 20.8767 21.3758 21.1345 21.5828C21.7067 22.0425 21.9505 22.793 21.759 23.497C21.6712 23.8193 21.733 24.1555 21.9272 24.4228C22.1217 24.6903 22.4227 24.853 22.7527 24.8688C23.4857 24.9038 24.1247 25.3683 24.3832 26.0523C24.5002 26.3615 24.748 26.5978 25.0625 26.7C25.3775 26.8028 25.7165 26.7563 25.9932 26.5753C26.6047 26.1743 27.3952 26.1735 28.007 26.575C28.2837 26.7568 28.6235 26.8023 28.9377 26.7C29.2525 26.5978 29.5 26.3615 29.617 26.0523C29.8757 25.3683 30.5147 24.9035 31.2452 24.8688C31.578 24.853 31.879 24.6903 32.0732 24.4228C32.2675 24.1555 32.3292 23.8193 32.2425 23.5005C32.05 22.793 32.2937 22.0425 32.863 21.5853L32.8662 21.5828C33.1237 21.3758 33.2717 21.0673 33.2717 20.7368C33.2717 20.4065 33.124 20.098 32.8662 19.891C32.294 19.4313 32.0502 18.6808 32.2417 17.9768C32.3295 17.6545 32.2677 17.3183 32.0735 17.051C31.879 16.7835 31.5782 16.6208 31.248 16.605C30.515 16.57 29.876 16.1055 29.6175 15.4215C29.5005 15.1123 29.2527 14.876 28.9382 14.7738C28.6235 14.6718 28.2845 14.7173 28.0075 14.8985C27.396 15.2995 26.6055 15.3003 25.9937 14.8988C25.8135 14.781 25.6075 14.7205 25.399 14.7205Z" fill="#3A312A"/>
<path d="M28.6 27.5045C28.2475 27.5045 27.8992 27.402 27.5955 27.2028C27.2335 26.9655 26.7662 26.9653 26.4045 27.2025C25.9362 27.5098 25.3625 27.5868 24.8305 27.4138C24.2982 27.241 23.8795 26.8415 23.6815 26.3183C23.5285 25.9138 23.1507 25.639 22.719 25.6183C22.1577 25.5913 21.6487 25.3165 21.32 24.864C20.9915 24.4118 20.887 23.843 21.0337 23.3038C21.148 22.884 21.0037 22.4405 20.6672 22.17C20.2285 21.8175 19.9785 21.2963 19.9785 20.737C19.9785 20.1783 20.2285 19.657 20.6642 19.3068C21.0037 19.0338 21.148 18.5903 21.0347 18.1738C20.887 17.631 20.9915 17.0625 21.3202 16.61C21.649 16.1578 22.158 15.883 22.7165 15.856C23.151 15.8353 23.5287 15.5605 23.6817 15.156C23.8797 14.6328 24.2985 14.2335 24.8307 14.0605C25.3632 13.8873 25.9367 13.9645 26.4045 14.2715C26.7665 14.5088 27.2337 14.509 27.5955 14.2718C28.0635 13.9643 28.6372 13.8873 29.1695 14.0605C29.7017 14.2333 30.1205 14.6328 30.3185 15.156C30.4715 15.5605 30.8492 15.8353 31.281 15.856C31.8422 15.8828 32.3512 16.1578 32.68 16.6103C33.0087 17.0625 33.113 17.6313 32.9662 18.1705C32.852 18.5903 32.9962 19.0338 33.3327 19.3043C33.7715 19.6568 34.0215 20.178 34.0215 20.7368C34.0215 21.2958 33.7715 21.817 33.3357 22.1673C33.3337 22.169 33.3315 22.1708 33.3295 22.1723L33.3262 22.1748C32.996 22.4403 32.8517 22.884 32.9652 23.3005C33.1127 23.8433 33.0085 24.4118 32.6797 24.864C32.351 25.3165 31.842 25.5913 31.2835 25.6183C30.849 25.639 30.4712 25.9138 30.3182 26.3183C30.1202 26.8415 29.7015 27.2408 29.1692 27.4138C28.9825 27.4743 28.7905 27.5045 28.6 27.5045ZM25.399 14.7205C25.2862 14.7205 25.1727 14.7383 25.0625 14.774C24.7477 14.8763 24.5002 15.1125 24.3832 15.422C24.1245 16.1058 23.4855 16.5705 22.755 16.6053C22.4222 16.621 22.1215 16.7838 21.927 17.051C21.7327 17.3185 21.671 17.6548 21.7577 17.9738C21.9502 18.681 21.7065 19.4315 21.1375 19.8888C20.8767 20.0983 20.729 20.4065 20.729 20.7368C20.729 21.0673 20.8767 21.3758 21.1345 21.5828C21.7067 22.0425 21.9505 22.793 21.759 23.497C21.6712 23.8193 21.733 24.1555 21.9272 24.4228C22.1217 24.6903 22.4227 24.853 22.7527 24.8688C23.4857 24.9038 24.1247 25.3683 24.3832 26.0523C24.5002 26.3615 24.748 26.5978 25.0625 26.7C25.3775 26.8028 25.7165 26.7563 25.9932 26.5753C26.6047 26.1743 27.3952 26.1735 28.007 26.575C28.2837 26.7568 28.6235 26.8023 28.9377 26.7C29.2525 26.5978 29.5 26.3615 29.617 26.0523C29.8757 25.3683 30.5147 24.9035 31.2452 24.8688C31.578 24.853 31.879 24.6903 32.0732 24.4228C32.2675 24.1555 32.3292 23.8193 32.2425 23.5005C32.05 22.793 32.2937 22.0425 32.863 21.5853L32.8662 21.5828C33.1237 21.3758 33.2717 21.0673 33.2717 20.7368C33.2717 20.4065 33.124 20.098 32.8662 19.891C32.294 19.4313 32.0502 18.6808 32.2417 17.9768C32.3295 17.6545 32.2677 17.3183 32.0735 17.051C31.879 16.7835 31.5782 16.6208 31.248 16.605C30.515 16.57 29.876 16.1055 29.6175 15.4215C29.5005 15.1123 29.2527 14.876 28.9382 14.7738C28.6235 14.6718 28.2845 14.7173 28.0075 14.8985C27.396 15.2995 26.6055 15.3003 25.9937 14.8988C25.8135 14.781 25.6075 14.7205 25.399 14.7205Z" fill="#3A312A"/>
<path d="M31.341 21.4408C31.73 19.0438 30.1022 16.7854 27.7053 16.3964C25.3084 16.0074 23.0499 17.6351 22.6609 20.032C22.2719 22.429 23.8996 24.6874 26.2966 25.0764C28.6935 25.4654 30.952 23.8377 31.341 21.4408Z" fill="#D7E057"/>
<path d="M27 25.5086C24.3687 25.5086 22.2282 23.3681 22.2282 20.7368C22.2282 18.1056 24.3687 15.9648 27 15.9648C29.6312 15.9648 31.7717 18.1053 31.7717 20.7368C31.7717 23.3681 29.6312 25.5086 27 25.5086ZM27 16.7148C24.7822 16.7148 22.9782 18.5191 22.9782 20.7368C22.9782 22.9543 24.7825 24.7586 27 24.7586C29.2175 24.7586 31.0217 22.9543 31.0217 20.7368C31.0217 18.5191 29.2177 16.7148 27 16.7148Z" fill="#3A312A"/>
<path d="M27.2252 18.2766L27.8714 19.5863C27.9079 19.6606 27.9787 19.7118 28.0604 19.7236L29.5057 19.9336C29.7117 19.9636 29.7939 20.2166 29.6449 20.3618L28.5992 21.3813C28.5399 21.4391 28.5129 21.5221 28.5269 21.6036L28.7739 23.0431C28.8092 23.2483 28.5937 23.4046 28.4094 23.3078L27.1167 22.6283C27.0434 22.5898 26.9562 22.5898 26.8829 22.6283L25.5902 23.3078C25.4059 23.4048 25.1907 23.2483 25.2257 23.0431L25.4727 21.6036C25.4867 21.5221 25.4597 21.4391 25.4004 21.3813L24.3547 20.3618C24.2057 20.2166 24.288 19.9633 24.494 19.9336L25.9392 19.7236C26.0209 19.7116 26.0917 19.6603 26.1282 19.5863L26.7744 18.2766C26.8669 18.0901 27.1329 18.0901 27.2252 18.2766Z" fill="#FAE6CA"/>
<path d="M25.473 23.7125C25.3437 23.7125 25.2152 23.672 25.1055 23.5922C24.9112 23.4512 24.816 23.2165 24.8565 22.98L25.0922 21.6047L24.093 20.6307C23.921 20.4632 23.8602 20.2175 23.9345 19.9892C24.0087 19.7607 24.2022 19.5975 24.44 19.5627L25.821 19.362L26.4385 18.1107C26.5447 17.8955 26.76 17.7617 27 17.7617C27.24 17.7617 27.4552 17.8955 27.5615 18.1107L28.179 19.362L29.5597 19.5627C29.7975 19.5975 29.991 19.7607 30.0652 19.9892C30.1392 20.2175 30.0785 20.4632 29.9067 20.6307L28.9075 21.6047L29.1432 22.98C29.184 23.2165 29.0885 23.4512 28.8942 23.5922C28.7 23.7335 28.4472 23.7517 28.2345 23.64L26.9995 22.9905L25.7645 23.64C25.6725 23.6885 25.5725 23.7125 25.473 23.7125ZM27 22.2242C27.1 22.2242 27.1997 22.2482 27.2907 22.296L28.3617 22.859L28.1572 21.667C28.1222 21.464 28.1895 21.257 28.337 21.113L29.2035 20.2682L28.0065 20.0945C27.802 20.0645 27.6257 19.9362 27.5347 19.7515L27 18.6675L26.4647 19.7522C26.3735 19.9367 26.1975 20.065 25.9937 20.0947L24.7962 20.2685L25.6622 21.1127C25.81 21.2572 25.8772 21.4642 25.8422 21.6675L25.638 22.8592L26.7085 22.2962C26.8 22.2482 26.9002 22.2242 27 22.2242ZM29.452 20.3047H29.4545H29.452ZM26.889 18.4425C26.889 18.4425 26.889 18.4427 26.8892 18.443L26.889 18.4425Z" fill="#3A312A"/>
<path d="M40.865 13.208L37.08 9.42047L37.0499 6.22297C37.0249 3.61047 34.8775 1.48297 32.2625 1.48047H36.0125C38.6275 1.48297 40.775 3.61047 40.7999 6.22297L40.865 13.208Z" fill="#6D6D6D"/>
<path d="M42.8751 20.2783V51.6958C42.8751 54.3658 40.7051 56.5358 38.0376 56.5358H41.7876C44.4551 56.5358 46.6251 54.3658 46.6251 51.6958V20.2783H42.8751Z" fill="#DECAAD"/>
</svg>
