<svg width="58" height="58" viewBox="0 0 58 58" fill="none" xmlns="http://www.w3.org/2000/svg">
<path d="M12.404 1.09358L6.292 1.09033C3.43875 1.08883 1.125 3.40158 1.125 6.25458V45.9961C1.125 48.8481 3.43725 51.1603 6.28925 51.1603H36.0858C38.9378 51.1603 41.25 48.8481 41.25 45.9961V14.1216L41.174 6.22058C41.1468 3.38883 38.8445 1.10733 36.0127 1.10583L15.5963 1.09508L12.404 1.09358Z" fill="#DEDEDE"/>
<path d="M36.0858 51.5353H6.28925C3.235 51.5353 0.75 49.0503 0.75 45.9958V6.25458C0.75 4.77433 1.3265 3.38308 2.3735 2.33658C3.4195 1.29083 4.81025 0.715332 6.28925 0.715332C6.29025 0.715332 6.291 0.715332 6.29225 0.715332L12.4043 0.718582C12.6113 0.718582 12.7793 0.886582 12.779 1.09383C12.779 1.30083 12.611 1.46858 12.404 1.46858C12.404 1.46858 12.404 1.46858 12.4038 1.46858L6.29175 1.46508C6.291 1.46508 6.29 1.46508 6.28925 1.46508C5.01025 1.46508 3.80825 1.96283 2.9035 2.86683C1.9985 3.77183 1.5 4.97458 1.5 6.25458V45.9961C1.5 48.6371 3.6485 50.7853 6.28925 50.7853H36.0858C38.7265 50.7853 40.875 48.6368 40.875 45.9961V14.1213L40.799 6.22383C40.7738 3.60958 38.6268 1.48183 36.0125 1.48033L15.596 1.47008C15.389 1.47008 15.2213 1.30208 15.2213 1.09483C15.2213 0.887832 15.3893 0.720082 15.5963 0.720082C15.5963 0.720082 15.5963 0.720082 15.5965 0.720082L36.0133 0.730582C39.0368 0.732082 41.5203 3.19333 41.5493 6.21658L41.6253 14.1178V45.9961C41.625 49.0503 39.1403 51.5353 36.0858 51.5353Z" fill="#3A312A"/>
<path d="M6.875 28.8229V51.6967C6.875 54.5782 9.20725 56.9102 12.0885 56.9102H41.7865C44.6677 56.9102 47 54.5782 47 51.6967V19.8714L33.9663 6.8374H12.0887C9.2075 6.8374 6.87525 9.16965 6.87525 12.0509V25.5187V28.8229H6.875Z" fill="#F7E3C7"/>
<path d="M41.7865 57.2852H12.0885C9.007 57.2852 6.5 54.7779 6.5 51.6964V28.8227C6.5 28.6157 6.66775 28.4477 6.875 28.4477C7.08225 28.4477 7.25 28.6157 7.25 28.8227V51.6964C7.25 54.3644 9.4205 56.5349 12.0885 56.5349H41.7865C44.4545 56.5349 46.625 54.3642 46.625 51.6964V20.0264L33.8107 7.2124H12.0885C9.4205 7.2124 7.25 9.3829 7.25 12.0509V25.5184C7.25 25.7254 7.08225 25.8934 6.875 25.8934C6.66775 25.8934 6.5 25.7254 6.5 25.5184V12.0509C6.5 8.9694 9.007 6.4624 12.0885 6.4624H33.966C34.0655 6.4624 34.1608 6.5019 34.2313 6.57215L47.2653 19.6062C47.3355 19.6764 47.375 19.7719 47.375 19.8714V51.6967C47.375 54.7779 44.868 57.2852 41.7865 57.2852Z" fill="#3A312A"/>
<path d="M39.6266 36.0518H14.2486C14.0413 36.0518 13.8736 35.8838 13.8736 35.6768C13.8736 35.4698 14.0413 35.3018 14.2486 35.3018H39.6268C39.8341 35.3018 40.0018 35.4698 40.0018 35.6768C40.0016 35.8838 39.8338 36.0518 39.6266 36.0518Z" fill="#3A312A"/>
<path d="M39.6266 42.2734H14.2486C14.0413 42.2734 13.8736 42.1054 13.8736 41.8984C13.8736 41.6914 14.0413 41.5234 14.2486 41.5234H39.6268C39.8341 41.5234 40.0018 41.6914 40.0018 41.8984C40.0016 42.1054 39.8338 42.2734 39.6266 42.2734Z" fill="#3A312A"/>
<path d="M39.6266 48.4951H14.2486C14.0413 48.4951 13.8736 48.3271 13.8736 48.1201C13.8736 47.9131 14.0413 47.7451 14.2486 47.7451H39.6268C39.8341 47.7451 40.0018 47.9131 40.0018 48.1201C40.0016 48.3271 39.8338 48.4951 39.6266 48.4951Z" fill="#3A312A"/>
<path d="M47.0001 19.8713V19.9035H38.5831C36.0481 19.9035 33.9931 17.8485 33.9931 15.3135V6.86426L47.0001 19.8713Z" fill="#F7E3C7"/>
<path d="M47.0001 20.2787H38.5833C35.8456 20.2787 33.6183 18.0514 33.6183 15.3137V6.86442C33.6183 6.71292 33.7096 6.57617 33.8498 6.51792C33.9901 6.45967 34.1516 6.49192 34.2586 6.59917L47.2656 19.6062C47.3358 19.6764 47.3753 19.7719 47.3753 19.8714V19.9037C47.3751 20.1107 47.2073 20.2787 47.0001 20.2787ZM34.3681 7.76967V15.3137C34.3681 17.6379 36.2588 19.5287 38.5831 19.5287H46.1268L34.3681 7.76967Z" fill="#3A312A"/>
<path d="M53.5695 3.53271C53.5695 3.53271 54.4215 6.69746 56.875 6.84421C56.875 6.84421 53.6 7.97546 53.5447 10.3947C53.5447 10.3947 52.9 7.00171 50.3135 6.87996C50.3135 6.88021 53.326 6.42371 53.5695 3.53271Z" fill="#D7E057"/>
<path d="M53.5442 10.7699C53.3662 10.7699 53.2105 10.6434 53.1762 10.4657C53.1702 10.4344 52.5525 7.3612 50.2955 7.2547C50.103 7.2457 49.9487 7.0922 49.9387 6.89945C49.9287 6.70694 50.0665 6.53844 50.257 6.50919C50.3672 6.49219 52.9807 6.05519 53.1957 3.50119C53.211 3.31969 53.3542 3.17594 53.5355 3.15944C53.716 3.14194 53.8837 3.25894 53.9315 3.43494C53.9395 3.46394 54.7462 6.34144 56.8975 6.47044C57.076 6.48119 57.2217 6.61645 57.2465 6.79345C57.271 6.97045 57.1667 7.14044 56.998 7.19894C56.9677 7.20944 53.9685 8.27669 53.9197 10.4037C53.9152 10.5954 53.7672 10.7527 53.5762 10.7687C53.5655 10.7694 53.5547 10.7699 53.5442 10.7699ZM51.609 6.83769C52.5785 7.32994 53.1667 8.2742 53.5057 9.05695C54.0125 8.05145 54.9912 7.35994 55.743 6.94994C54.7095 6.48944 54.0472 5.53719 53.6595 4.76919C53.2115 5.85944 52.3417 6.48644 51.609 6.83769Z" fill="#3A312A"/>
<path d="M48.1448 7.77783C48.1448 7.77783 48.7475 10.0163 50.4828 10.1201C50.4828 10.1201 48.1663 10.9203 48.1273 12.6313C48.1273 12.6313 47.6713 10.2313 45.8418 10.1453C45.8418 10.1453 47.9728 9.82258 48.1448 7.77783Z" fill="#D7E057"/>
<path d="M48.1271 13.0065C47.9486 13.0065 47.7928 12.8797 47.7588 12.7015C47.7548 12.681 47.3328 10.591 45.8241 10.52C45.6316 10.511 45.4773 10.3575 45.4673 10.1647C45.4576 9.97223 45.5951 9.80373 45.7856 9.77448C45.8596 9.76273 47.6266 9.46398 47.7711 7.74623C47.7863 7.56473 47.9298 7.42048 48.1111 7.40423C48.2936 7.38873 48.4591 7.50398 48.5066 7.67973C48.5118 7.69948 49.0636 9.65973 50.5051 9.74623C50.6836 9.75698 50.8298 9.89223 50.8541 10.0695C50.8786 10.2467 50.7741 10.4167 50.6051 10.475C50.5848 10.482 48.5346 11.213 48.5021 12.6402C48.4976 12.8322 48.3493 12.9895 48.1581 13.0055C48.1478 13.006 48.1373 13.0065 48.1271 13.0065ZM46.9973 10.1247C47.5241 10.4577 47.8781 10.9735 48.1091 11.4445C48.4531 10.8865 48.9878 10.4767 49.4503 10.2015C48.8786 9.88423 48.4793 9.36398 48.2151 8.89523C47.9216 9.46723 47.4613 9.86448 46.9973 10.1247Z" fill="#3A312A"/>
<path d="M48.1448 1.11377C48.1448 1.11377 48.7475 3.35227 50.4828 3.45627C50.4828 3.45627 48.1663 4.25652 48.1273 5.96752C48.1273 5.96752 47.6713 3.56752 45.8418 3.48152C45.8418 3.48152 47.9728 3.15852 48.1448 1.11377Z" fill="#D7E057"/>
<path d="M48.1268 6.34225C47.9486 6.34225 47.7926 6.2155 47.7588 6.03725C47.7548 6.01675 47.3328 3.92675 45.8241 3.85575C45.6316 3.84675 45.4773 3.69325 45.4673 3.5005C45.4576 3.308 45.5951 3.1395 45.7856 3.11025C45.8596 3.0985 47.6266 2.79975 47.7711 1.082C47.7863 0.900504 47.9298 0.756254 48.1111 0.740004C48.2936 0.722504 48.4591 0.840004 48.5066 1.0155C48.5118 1.03525 49.0636 2.9955 50.5049 3.08175C50.6836 3.09225 50.8296 3.22775 50.8541 3.405C50.8786 3.58225 50.7744 3.752 50.6051 3.8105C50.5849 3.8175 48.5346 4.54875 48.5021 5.976C48.4976 6.168 48.3493 6.32525 48.1581 6.34125C48.1476 6.34175 48.1371 6.34225 48.1268 6.34225ZM46.9971 3.4605C47.5238 3.7935 47.8778 4.309 48.1088 4.78025C48.4528 4.22225 48.9876 3.81225 49.4498 3.537C48.8781 3.21975 48.4788 2.6995 48.2146 2.231C47.9213 2.803 47.4611 3.20025 46.9971 3.4605Z" fill="#3A312A"/>
<path d="M23.3937 32.6604L22.284 30.4296L19.75 30.6526L24.1765 22.6196L27.8202 24.6276L23.3937 32.6604Z" fill="#87796F"/>
<path d="M23.3937 33.0352C23.3912 33.0352 23.3885 33.0352 23.3857 33.0352C23.2462 33.0322 23.12 32.9522 23.0577 32.8272L22.062 30.8252L19.7827 31.0257C19.6455 31.0379 19.5115 30.9729 19.4357 30.8567C19.3602 30.7407 19.3547 30.5924 19.4215 30.4712L23.848 22.4384C23.948 22.2569 24.1757 22.1907 24.3575 22.2909L28.0012 24.2987C28.0882 24.3464 28.1527 24.4274 28.1805 24.5227C28.208 24.6182 28.1967 24.7209 28.1487 24.8079L23.7222 32.8409C23.6562 32.9609 23.5302 33.0352 23.3937 33.0352ZM22.2842 30.0542C22.4255 30.0542 22.556 30.1339 22.6197 30.2622L23.4107 31.8522L27.311 24.7744L24.324 23.1287L20.418 30.2167L22.2512 30.0554C22.2622 30.0547 22.2732 30.0542 22.2842 30.0542Z" fill="#3A312A"/>
<path d="M30.6062 32.6604L31.7159 30.4296L34.2499 30.6526L29.8234 22.6196L26.1797 24.6276L30.6062 32.6604Z" fill="#87796F"/>
<path d="M30.6063 33.0354C30.4698 33.0354 30.3438 32.9612 30.2778 32.8414L25.8513 24.8084C25.8033 24.7214 25.7921 24.6187 25.8196 24.5232C25.8473 24.4277 25.9118 24.3469 25.9988 24.2992L29.6426 22.2914C29.8243 22.1912 30.0521 22.2574 30.1521 22.4389L34.5786 30.4717C34.6453 30.5929 34.6398 30.7412 34.5643 30.8572C34.4886 30.9734 34.3538 31.0382 34.2173 31.0262L31.9381 30.8257L30.9423 32.8277C30.8801 32.9527 30.7538 33.0327 30.6143 33.0357C30.6116 33.0354 30.6088 33.0354 30.6063 33.0354ZM26.6891 24.7749L30.5893 31.8527L31.3803 30.2627C31.4491 30.1244 31.5983 30.0427 31.7488 30.0562L33.5821 30.2174L29.6761 23.1294L26.6891 24.7749Z" fill="#3A312A"/>
<path d="M33.1009 21.8755L33.0976 21.878C32.6449 22.2418 32.4509 22.839 32.6034 23.3993L32.6044 23.4025C32.8494 24.303 32.1981 25.199 31.2659 25.2438H31.2634C30.6826 25.2718 30.1739 25.6415 29.9681 26.1853C29.6376 27.059 28.5826 27.4018 27.8019 26.889H27.8016C27.3154 26.5698 26.6859 26.5698 26.1996 26.889L26.1994 26.8893C25.4184 27.4018 24.3636 27.0593 24.0331 26.1855C23.8274 25.6418 23.3186 25.2718 22.7379 25.244L22.7354 25.2438C21.8031 25.199 21.1519 24.303 21.3969 23.4025L21.3979 23.3993C21.5504 22.839 21.3564 22.2418 20.9036 21.878L20.9004 21.8755C20.1731 21.2913 20.1731 20.1838 20.9004 19.5995L20.9036 19.597C21.3564 19.2333 21.5504 18.636 21.3979 18.0758L21.3971 18.0725C21.1521 17.172 21.8034 16.2758 22.7356 16.2313L22.7381 16.231C23.3189 16.2033 23.8276 15.8333 24.0334 15.2895C24.3639 14.4158 25.4189 14.073 26.1996 14.5858L26.1999 14.586C26.6861 14.9053 27.3156 14.9053 27.8019 14.586L27.8021 14.5858C28.5831 14.0733 29.6379 14.4158 29.9684 15.2895C30.1741 15.8333 30.6829 16.2033 31.2636 16.231L31.2661 16.2313C32.1984 16.276 32.8499 17.172 32.6046 18.0728L32.6039 18.076C32.4514 18.6363 32.6456 19.2335 33.0981 19.5973L33.1011 19.5998C33.8281 20.1838 33.8281 21.291 33.1009 21.8755Z" fill="#8AC6DD"/>
<path d="M28.6 27.5045C28.2475 27.5045 27.8992 27.402 27.5955 27.2028C27.2335 26.9655 26.7662 26.9653 26.4045 27.2025C25.9362 27.5098 25.3625 27.5868 24.8305 27.4138C24.2982 27.241 23.8795 26.8415 23.6815 26.3183C23.5285 25.9138 23.1507 25.639 22.719 25.6183C22.1577 25.5913 21.6487 25.3165 21.32 24.864C20.9915 24.4118 20.887 23.843 21.0337 23.3038C21.148 22.884 21.0037 22.4405 20.6672 22.17C20.2285 21.8175 19.9785 21.2963 19.9785 20.737C19.9785 20.1783 20.2285 19.657 20.6642 19.3068C21.0037 19.0338 21.148 18.5903 21.0347 18.1738C20.887 17.631 20.9915 17.0625 21.3202 16.61C21.649 16.1578 22.158 15.883 22.7165 15.856C23.151 15.8353 23.5287 15.5605 23.6817 15.156C23.8797 14.6328 24.2985 14.2335 24.8307 14.0605C25.3632 13.8873 25.9367 13.9645 26.4045 14.2715C26.7665 14.5088 27.2337 14.509 27.5955 14.2718C28.0635 13.9643 28.6372 13.8873 29.1695 14.0605C29.7017 14.2333 30.1205 14.6328 30.3185 15.156C30.4715 15.5605 30.8492 15.8353 31.281 15.856C31.8422 15.8828 32.3512 16.1578 32.68 16.6103C33.0087 17.0625 33.113 17.6313 32.9662 18.1705C32.852 18.5903 32.9962 19.0338 33.3327 19.3043C33.7715 19.6568 34.0215 20.178 34.0215 20.7368C34.0215 21.2958 33.7715 21.817 33.3357 22.1673C33.3337 22.169 33.3315 22.1708 33.3295 22.1723L33.3262 22.1748C32.996 22.4403 32.8517 22.884 32.9652 23.3005C33.1127 23.8433 33.0085 24.4118 32.6797 24.864C32.351 25.3165 31.842 25.5913 31.2835 25.6183C30.849 25.639 30.4712 25.9138 30.3182 26.3183C30.1202 26.8415 29.7015 27.2408 29.1692 27.4138C28.9825 27.4743 28.7905 27.5045 28.6 27.5045ZM25.399 14.7205C25.2862 14.7205 25.1727 14.7383 25.0625 14.774C24.7477 14.8763 24.5002 15.1125 24.3832 15.422C24.1245 16.1058 23.4855 16.5705 22.755 16.6053C22.4222 16.621 22.1215 16.7838 21.927 17.051C21.7327 17.3185 21.671 17.6548 21.7577 17.9738C21.9502 18.681 21.7065 19.4315 21.1375 19.8888C20.8767 20.0983 20.729 20.4065 20.729 20.7368C20.729 21.0673 20.8767 21.3758 21.1345 21.5828C21.7067 22.0425 21.9505 22.793 21.759 23.497C21.6712 23.8193 21.733 24.1555 21.9272 24.4228C22.1217 24.6903 22.4227 24.853 22.7527 24.8688C23.4857 24.9038 24.1247 25.3683 24.3832 26.0523C24.5002 26.3615 24.748 26.5978 25.0625 26.7C25.3775 26.8028 25.7165 26.7563 25.9932 26.5753C26.6047 26.1743 27.3952 26.1735 28.007 26.575C28.2837 26.7568 28.6235 26.8023 28.9377 26.7C29.2525 26.5978 29.5 26.3615 29.617 26.0523C29.8757 25.3683 30.5147 24.9035 31.2452 24.8688C31.578 24.853 31.879 24.6903 32.0732 24.4228C32.2675 24.1555 32.3292 23.8193 32.2425 23.5005C32.05 22.793 32.2937 22.0425 32.863 21.5853L32.8662 21.5828C33.1237 21.3758 33.2717 21.0673 33.2717 20.7368C33.2717 20.4065 33.124 20.098 32.8662 19.891C32.294 19.4313 32.0502 18.6808 32.2417 17.9768C32.3295 17.6545 32.2677 17.3183 32.0735 17.051C31.879 16.7835 31.5782 16.6208 31.248 16.605C30.515 16.57 29.876 16.1055 29.6175 15.4215C29.5005 15.1123 29.2527 14.876 28.9382 14.7738C28.6235 14.6718 28.2845 14.7173 28.0075 14.8985C27.396 15.2995 26.6055 15.3003 25.9937 14.8988C25.8135 14.781 25.6075 14.7205 25.399 14.7205Z" fill="#3A312A"/>
<path d="M28.6 27.5045C28.2475 27.5045 27.8992 27.402 27.5955 27.2028C27.2335 26.9655 26.7662 26.9653 26.4045 27.2025C25.9362 27.5098 25.3625 27.5868 24.8305 27.4138C24.2982 27.241 23.8795 26.8415 23.6815 26.3183C23.5285 25.9138 23.1507 25.639 22.719 25.6183C22.1577 25.5913 21.6487 25.3165 21.32 24.864C20.9915 24.4118 20.887 23.843 21.0337 23.3038C21.148 22.884 21.0037 22.4405 20.6672 22.17C20.2285 21.8175 19.9785 21.2963 19.9785 20.737C19.9785 20.1783 20.2285 19.657 20.6642 19.3068C21.0037 19.0338 21.148 18.5903 21.0347 18.1738C20.887 17.631 20.9915 17.0625 21.3202 16.61C21.649 16.1578 22.158 15.883 22.7165 15.856C23.151 15.8353 23.5287 15.5605 23.6817 15.156C23.8797 14.6328 24.2985 14.2335 24.8307 14.0605C25.3632 13.8873 25.9367 13.9645 26.4045 14.2715C26.7665 14.5088 27.2337 14.509 27.5955 14.2718C28.0635 13.9643 28.6372 13.8873 29.1695 14.0605C29.7017 14.2333 30.1205 14.6328 30.3185 15.156C30.4715 15.5605 30.8492 15.8353 31.281 15.856C31.8422 15.8828 32.3512 16.1578 32.68 16.6103C33.0087 17.0625 33.113 17.6313 32.9662 18.1705C32.852 18.5903 32.9962 19.0338 33.3327 19.3043C33.7715 19.6568 34.0215 20.178 34.0215 20.7368C34.0215 21.2958 33.7715 21.817 33.3357 22.1673C33.3337 22.169 33.3315 22.1708 33.3295 22.1723L33.3262 22.1748C32.996 22.4403 32.8517 22.884 32.9652 23.3005C33.1127 23.8433 33.0085 24.4118 32.6797 24.864C32.351 25.3165 31.842 25.5913 31.2835 25.6183C30.849 25.639 30.4712 25.9138 30.3182 26.3183C30.1202 26.8415 29.7015 27.2408 29.1692 27.4138C28.9825 27.4743 28.7905 27.5045 28.6 27.5045ZM25.399 14.7205C25.2862 14.7205 25.1727 14.7383 25.0625 14.774C24.7477 14.8763 24.5002 15.1125 24.3832 15.422C24.1245 16.1058 23.4855 16.5705 22.755 16.6053C22.4222 16.621 22.1215 16.7838 21.927 17.051C21.7327 17.3185 21.671 17.6548 21.7577 17.9738C21.9502 18.681 21.7065 19.4315 21.1375 19.8888C20.8767 20.0983 20.729 20.4065 20.729 20.7368C20.729 21.0673 20.8767 21.3758 21.1345 21.5828C21.7067 22.0425 21.9505 22.793 21.759 23.497C21.6712 23.8193 21.733 24.1555 21.9272 24.4228C22.1217 24.6903 22.4227 24.853 22.7527 24.8688C23.4857 24.9038 24.1247 25.3683 24.3832 26.0523C24.5002 26.3615 24.748 26.5978 25.0625 26.7C25.3775 26.8028 25.7165 26.7563 25.9932 26.5753C26.6047 26.1743 27.3952 26.1735 28.007 26.575C28.2837 26.7568 28.6235 26.8023 28.9377 26.7C29.2525 26.5978 29.5 26.3615 29.617 26.0523C29.8757 25.3683 30.5147 24.9035 31.2452 24.8688C31.578 24.853 31.879 24.6903 32.0732 24.4228C32.2675 24.1555 32.3292 23.8193 32.2425 23.5005C32.05 22.793 32.2937 22.0425 32.863 21.5853L32.8662 21.5828C33.1237 21.3758 33.2717 21.0673 33.2717 20.7368C33.2717 20.4065 33.124 20.098 32.8662 19.891C32.294 19.4313 32.0502 18.6808 32.2417 17.9768C32.3295 17.6545 32.2677 17.3183 32.0735 17.051C31.879 16.7835 31.5782 16.6208 31.248 16.605C30.515 16.57 29.876 16.1055 29.6175 15.4215C29.5005 15.1123 29.2527 14.876 28.9382 14.7738C28.6235 14.6718 28.2845 14.7173 28.0075 14.8985C27.396 15.2995 26.6055 15.3003 25.9937 14.8988C25.8135 14.781 25.6075 14.7205 25.399 14.7205Z" fill="#3A312A"/>
<path d="M31.341 21.4417C31.73 19.0448 30.1022 16.7864 27.7053 16.3973C25.3084 16.0083 23.0499 17.6361 22.6609 20.033C22.2719 22.4299 23.8996 24.6884 26.2966 25.0774C28.6935 25.4664 30.952 23.8387 31.341 21.4417Z" fill="#D7E057"/>
<path d="M27 25.5091C24.3687 25.5091 22.2282 23.3686 22.2282 20.7373C22.2282 18.1061 24.3687 15.9653 27 15.9653C29.6312 15.9653 31.7717 18.1058 31.7717 20.7373C31.7717 23.3686 29.6312 25.5091 27 25.5091ZM27 16.7153C24.7822 16.7153 22.9782 18.5196 22.9782 20.7373C22.9782 22.9548 24.7825 24.7591 27 24.7591C29.2175 24.7591 31.0217 22.9548 31.0217 20.7373C31.0217 18.5196 29.2177 16.7153 27 16.7153Z" fill="#3A312A"/>
<path d="M27.2252 18.2771L27.8714 19.5868C27.9079 19.6611 27.9787 19.7123 28.0604 19.7241L29.5057 19.9341C29.7117 19.9641 29.7939 20.2171 29.6449 20.3623L28.5992 21.3818C28.5399 21.4396 28.5129 21.5226 28.5269 21.6041L28.7739 23.0436C28.8092 23.2488 28.5937 23.4051 28.4094 23.3083L27.1167 22.6288C27.0434 22.5903 26.9562 22.5903 26.8829 22.6288L25.5902 23.3083C25.4059 23.4053 25.1907 23.2488 25.2257 23.0436L25.4727 21.6041C25.4867 21.5226 25.4597 21.4396 25.4004 21.3818L24.3547 20.3623C24.2057 20.2171 24.288 19.9638 24.494 19.9341L25.9392 19.7241C26.0209 19.7121 26.0917 19.6608 26.1282 19.5868L26.7744 18.2771C26.8669 18.0906 27.1329 18.0906 27.2252 18.2771Z" fill="#FAE6CA"/>
<path d="M25.473 23.713C25.3437 23.713 25.2152 23.6725 25.1055 23.5927C24.9112 23.4517 24.816 23.217 24.8565 22.9805L25.0922 21.6052L24.093 20.6312C23.921 20.4637 23.8602 20.218 23.9345 19.9897C24.0087 19.7612 24.2022 19.598 24.44 19.5632L25.821 19.3625L26.4385 18.1112C26.5447 17.896 26.76 17.7622 27 17.7622C27.24 17.7622 27.4552 17.896 27.5615 18.1112L28.179 19.3625L29.5597 19.5632C29.7975 19.598 29.991 19.7612 30.0652 19.9897C30.1392 20.218 30.0785 20.4637 29.9067 20.6312L28.9075 21.6052L29.1432 22.9805C29.184 23.217 29.0885 23.4517 28.8942 23.5927C28.7 23.734 28.4472 23.7522 28.2345 23.6405L26.9995 22.991L25.7645 23.6405C25.6725 23.689 25.5725 23.713 25.473 23.713ZM27 22.2247C27.1 22.2247 27.1997 22.2487 27.2907 22.2965L28.3617 22.8595L28.1572 21.6675C28.1222 21.4645 28.1895 21.2575 28.337 21.1135L29.2035 20.2687L28.0065 20.095C27.802 20.065 27.6257 19.9367 27.5347 19.752L27 18.668L26.4647 19.7527C26.3735 19.9372 26.1975 20.0655 25.9937 20.0952L24.7962 20.269L25.6622 21.1132C25.81 21.2577 25.8772 21.4647 25.8422 21.668L25.638 22.8597L26.7085 22.2967C26.8 22.2487 26.9002 22.2247 27 22.2247ZM29.452 20.3052H29.4545H29.452ZM26.889 18.443C26.889 18.443 26.889 18.4432 26.8892 18.4435L26.889 18.443Z" fill="#3A312A"/>
<path d="M40.865 13.2085L37.08 9.42096L37.0499 6.22346C37.0249 3.61096 34.8775 1.48346 32.2625 1.48096H36.0125C38.6275 1.48346 40.775 3.61096 40.7999 6.22346L40.865 13.2085Z" fill="#949494"/>
<path d="M42.8751 20.2783V51.6958C42.8751 54.3658 40.7051 56.5358 38.0376 56.5358H41.7876C44.4551 56.5358 46.6251 54.3658 46.6251 51.6958V20.2783H42.8751Z" fill="#DECAAD"/>
</svg>
