<svg width="146" height="160" viewBox="0 0 146 160" fill="none" xmlns="http://www.w3.org/2000/svg">
<g clip-path="url(#clip0_11401_80155)">
<path d="M101.381 32.4602C91.2601 30.848 79.7349 29.9878 67.7319 29.9878C56.7472 29.9878 46.164 30.7072 36.6924 32.0636C36.6946 31.9184 36.6967 31.7733 36.7032 31.6281C36.9543 23.2011 40.4978 15.2064 46.5765 9.35271C52.6551 3.49906 60.7865 0.250857 69.2328 0.302361C77.6791 0.353865 85.7702 3.70099 91.7767 9.62834C97.7832 15.5557 101.229 23.593 101.377 32.0225C101.379 32.1698 101.381 32.315 101.381 32.4602Z" fill="#2196F3"/>
<g opacity="0.1">
<path d="M73.2788 0.290647C68.7866 -0.315004 64.2169 0.0282615 59.8661 1.2982C55.5152 2.56813 51.4803 4.73639 48.0227 7.66246C44.5651 10.5885 41.7621 14.2071 39.7952 18.2836C37.8284 22.3602 36.7417 26.8038 36.6055 31.3264C36.599 31.4715 36.5969 31.6167 36.5947 31.7619C39.4086 31.3589 42.3226 31.0136 45.3142 30.7252C45.68 23.1908 48.6771 16.022 53.7852 10.4627C58.8933 4.90343 65.7901 1.30459 73.2788 0.290647Z" fill="white"/>
</g>
<path d="M115.531 35.0217C110.872 33.7611 106.147 32.7599 101.377 32.0227C93.5584 30.8135 85.6764 30.0574 77.7704 29.7584C74.4771 29.624 71.1231 29.5547 67.7321 29.5547C65.0446 29.5547 62.3787 29.598 59.7497 29.6847C52.0378 29.9121 44.3442 30.561 36.7034 31.6284C31.0473 32.4058 25.4461 33.5391 19.9332 35.0217C7.07927 38.5688 0 43.3229 0 48.4064C0 53.4899 7.07928 58.244 19.9332 61.7911C28.9729 64.2874 40.1182 65.9884 52.2624 66.7684C57.2749 67.0935 62.4569 67.2581 67.7321 67.2581C73.0248 67.2581 78.2241 67.0913 83.252 66.7663C94.304 66.0534 104.529 64.5777 113.087 62.4325C113.132 62.4195 113.176 62.4087 113.221 62.3979C113.799 62.2548 114.367 62.1053 114.93 61.9558C115.132 61.8995 115.331 61.8453 115.531 61.7911C115.542 61.7865 115.554 61.7829 115.566 61.7803C115.757 61.7283 115.946 61.6741 116.135 61.6221C116.512 61.5138 116.886 61.4076 117.253 61.2971C117.27 61.2928 117.285 61.2884 117.3 61.2841C117.619 61.1887 117.932 61.0934 118.243 60.9981C118.496 60.9179 118.748 60.8399 118.998 60.7597C119.18 60.7012 119.361 60.6427 119.539 60.5842C119.669 60.5409 119.797 60.4997 119.923 60.4563C120.094 60.4 120.266 60.3415 120.435 60.283C120.507 60.2592 120.578 60.2353 120.648 60.2093C120.811 60.1551 120.969 60.0988 121.128 60.0425C121.299 59.9818 121.471 59.919 121.64 59.8583C121.781 59.8085 121.922 59.7565 122.061 59.7044C122.178 59.6589 122.293 59.6156 122.411 59.5723C122.73 59.4531 123.042 59.3296 123.351 59.2082C123.505 59.1454 123.659 59.0847 123.811 59.0219C123.961 58.9612 124.113 58.8984 124.26 58.8355C124.503 58.7337 124.742 58.6318 124.977 58.53C125.09 58.478 125.205 58.4282 125.315 58.3805C125.4 58.3415 125.482 58.3047 125.567 58.2657C125.628 58.2397 125.689 58.2115 125.747 58.1833C125.967 58.0836 126.184 57.9818 126.396 57.88C127.213 57.4899 127.975 57.0912 128.682 56.6838C133.122 54.1465 135.464 51.3317 135.464 48.4064C135.464 43.3229 128.385 38.5688 115.531 35.0217ZM115.414 61.3751C106.363 63.8735 95.1876 65.5745 83.0109 66.3481C78.0591 66.6623 72.9402 66.8248 67.7322 66.8248C62.5415 66.8248 57.4399 66.6644 52.5033 66.3502C40.3071 65.5788 29.1139 63.8778 20.0504 61.3751C7.40058 57.8821 0.43418 53.2775 0.43418 48.4064C0.434887 47.976 0.488861 47.5473 0.594878 47.1301C1.70195 42.7357 8.5121 38.623 20.0504 35.4377C25.5216 33.9667 31.08 32.8399 36.6926 32.0639C44.3794 30.9905 52.1194 30.3394 59.8778 30.1137C62.4656 30.0292 65.0837 29.9873 67.7322 29.9881C71.0776 29.9881 74.3859 30.0552 77.638 30.1852C85.59 30.4816 93.5179 31.2413 101.381 32.4605C106.11 33.1943 110.795 34.1883 115.414 35.4377C126.95 38.623 133.758 42.7336 134.867 47.1258C134.975 47.5442 135.03 47.9744 135.03 48.4064C135.03 53.2775 128.064 57.8821 115.414 61.3751Z" fill="#3F3D56"/>
<path d="M135.341 48.6032C135.341 51.4981 132.95 54.2371 128.682 56.6834C127.973 57.0908 127.208 57.4895 126.396 57.8795C126.184 57.9814 125.967 58.0832 125.747 58.1829C125.689 58.2111 125.628 58.2392 125.567 58.2653C125.483 58.3043 125.4 58.3411 125.315 58.3801C125.205 58.4278 125.09 58.4776 124.977 58.5296C124.742 58.6314 124.503 58.7333 124.26 58.8351C124.113 58.898 123.961 58.9608 123.811 59.0215C123.659 59.0843 123.505 59.145 123.351 59.2078C123.043 59.3292 122.73 59.4527 122.411 59.5719C122.294 59.6152 122.178 59.6585 122.061 59.704C121.922 59.756 121.781 59.808 121.64 59.8579C121.471 59.9186 121.299 59.9814 121.128 60.0421C120.969 60.0984 120.811 60.1547 120.648 60.2089C120.579 60.2349 120.507 60.2588 120.435 60.2826C120.266 60.3411 120.094 60.3996 119.923 60.4559C119.797 60.4993 119.669 60.5404 119.539 60.5838C119.361 60.6423 119.18 60.7008 118.998 60.7593C118.748 60.8395 118.497 60.9175 118.243 60.9977C117.932 61.093 117.619 61.1883 117.3 61.2837C117.285 61.288 117.27 61.2924 117.253 61.2967C116.886 61.4072 116.512 61.5134 116.135 61.6217C115.946 61.6737 115.757 61.7279 115.566 61.7799C115.554 61.7825 115.542 61.7861 115.531 61.7907C115.331 61.8449 115.132 61.8991 114.93 61.9554C114.37 62.1028 113.799 62.2523 113.221 62.3975C113.176 62.4083 113.132 62.4191 113.087 62.4321C104.761 64.508 94.5472 66.0204 83.2433 66.7507C78.2915 67.0692 73.1291 67.2382 67.8256 67.2382C62.4744 67.2382 57.2684 67.067 52.2776 66.742C22.4841 64.8027 0.310547 57.418 0.310547 48.6032C0.312893 48.0668 0.394801 47.5338 0.553607 47.0214C0.566646 47.0582 0.579682 47.0929 0.594948 47.1297C3.69272 55.2511 25.6776 61.8146 54.2032 63.4159C58.5732 63.6629 63.0996 63.7907 67.7322 63.7907C72.3845 63.7907 76.9281 63.6607 81.3155 63.4137C109.817 61.8059 131.78 55.2403 134.867 47.1254C134.92 46.9954 134.965 46.8654 135.004 46.7354C135.224 47.3337 135.338 47.9658 135.341 48.6032Z" fill="#3F3D56"/>
<path d="M19.9006 46.2714C16.2876 46.2714 12.4478 45.4956 12.4478 44.0576C12.4478 42.6196 16.2876 41.8438 19.9006 41.8438C23.5136 41.8438 27.3535 42.6196 27.3535 44.0576C27.3535 45.4956 23.5136 46.2714 19.9006 46.2714ZM19.9006 42.2771C15.7644 42.2771 12.8819 43.2155 12.8819 44.0576C12.8819 44.8997 15.7644 45.8381 19.9006 45.8381C24.0368 45.8381 26.9193 44.8997 26.9193 44.0576C26.9193 43.2155 24.0368 42.2771 19.9006 42.2771Z" fill="#3F3D56"/>
<path d="M35.3137 56.455C31.7007 56.455 27.8608 55.6792 27.8608 54.2412C27.8608 52.8032 31.7007 52.0273 35.3137 52.0273C38.9267 52.0273 42.7666 52.8032 42.7666 54.2412C42.7666 55.6792 38.9267 56.455 35.3137 56.455ZM35.3137 52.4607C31.1775 52.4607 28.295 53.3991 28.295 54.2412C28.295 55.0833 31.1775 56.0217 35.3137 56.0217C39.4499 56.0217 42.3324 55.0833 42.3324 54.2412C42.3324 53.3991 39.4499 52.4607 35.3137 52.4607Z" fill="#3F3D56"/>
<path d="M115.42 46.2714C111.807 46.2714 107.967 45.4956 107.967 44.0576C107.967 42.6196 111.807 41.8438 115.42 41.8438C119.033 41.8438 122.873 42.6196 122.873 44.0576C122.873 45.4956 119.033 46.2714 115.42 46.2714ZM115.42 42.2771C111.284 42.2771 108.401 43.2155 108.401 44.0576C108.401 44.8997 111.284 45.8381 115.42 45.8381C119.556 45.8381 122.439 44.8997 122.439 44.0576C122.439 43.2155 119.556 42.2771 115.42 42.2771Z" fill="#3F3D56"/>
<path d="M100.007 56.455C96.3936 56.455 92.5537 55.6792 92.5537 54.2412C92.5537 52.8032 96.3936 52.0273 100.007 52.0273C103.62 52.0273 107.459 52.8032 107.459 54.2412C107.459 55.6792 103.62 56.455 100.007 56.455ZM100.007 52.4607C95.8703 52.4607 92.9879 53.3991 92.9879 54.2412C92.9879 55.0833 95.8703 56.0217 100.007 56.0217C104.143 56.0217 107.025 55.0833 107.025 54.2412C107.025 53.3991 104.143 52.4607 100.007 52.4607Z" fill="#3F3D56"/>
<path d="M67.6603 61.2226C64.0474 61.2226 60.2075 60.4467 60.2075 59.0088C60.2075 57.5708 64.0474 56.7949 67.6603 56.7949C71.2733 56.7949 75.1132 57.5708 75.1132 59.0088C75.1132 60.4467 71.2733 61.2226 67.6603 61.2226ZM67.6603 57.2283C63.5241 57.2283 60.6417 58.1667 60.6417 59.0088C60.6417 59.8509 63.5241 60.7892 67.6603 60.7892C71.7966 60.7892 74.6791 59.8509 74.6791 59.0088C74.6791 58.1667 71.7966 57.2283 67.6603 57.2283Z" fill="#3F3D56"/>
<path d="M73.1546 106.765C78.1917 106.765 82.2751 102.689 82.2751 97.6611C82.2751 92.6334 78.1917 88.5576 73.1546 88.5576C68.1176 88.5576 64.0342 92.6334 64.0342 97.6611C64.0342 102.689 68.1176 106.765 73.1546 106.765Z" fill="#2F2E41"/>
<path d="M69.6864 103.643L65.2476 105.861L66.4882 108.334L70.9271 106.115L69.6864 103.643Z" fill="#2F2E41"/>
<path d="M67.0737 108.083C67.3369 107.685 66.6873 106.794 65.6226 106.093C64.558 105.392 63.4816 105.148 63.2183 105.546C62.9551 105.945 63.6047 106.836 64.6694 107.536C65.734 108.237 66.8104 108.482 67.0737 108.083Z" fill="#2F2E41"/>
<path d="M76.623 103.642L75.3823 106.115L79.8212 108.334L81.0618 105.861L76.623 103.642Z" fill="#2F2E41"/>
<path d="M81.6402 107.536C82.7048 106.835 83.3545 105.944 83.0913 105.546C82.828 105.147 81.7516 105.392 80.687 106.093C79.6223 106.793 78.9727 107.684 79.2359 108.083C79.4991 108.481 80.5756 108.236 81.6402 107.536Z" fill="#2F2E41"/>
<path d="M72.516 98.5459C74.2376 98.5459 75.6332 97.1529 75.6332 95.4346C75.6332 93.7162 74.2376 92.3232 72.516 92.3232C70.7945 92.3232 69.3989 93.7162 69.3989 95.4346C69.3989 97.1529 70.7945 98.5459 72.516 98.5459Z" fill="white"/>
<path d="M73.2742 94.8383C73.6782 94.435 73.6759 93.7787 73.269 93.3725C72.862 92.9664 72.2046 92.964 71.8005 93.3674C71.3964 93.7707 71.3987 94.4269 71.8057 94.8331C72.2126 95.2393 72.8701 95.2416 73.2742 94.8383Z" fill="#3F3D56"/>
<path d="M80.3493 87.7582C80.4864 84.388 77.5763 81.5333 73.8494 81.3822C70.1225 81.2311 66.99 83.8407 66.8529 87.211C66.7157 90.5813 69.3064 91.347 73.0333 91.4981C76.7603 91.6492 80.2121 91.1285 80.3493 87.7582Z" fill="#2196F3"/>
<path d="M85.6066 102.429C86.2066 101.915 85.363 99.9517 83.7225 98.0443C82.082 96.1369 80.2657 95.0073 79.6658 95.5214C79.0659 96.0354 79.9095 97.9984 81.55 99.9058C83.1905 101.813 85.0067 102.943 85.6066 102.429Z" fill="#2F2E41"/>
<path d="M64.7845 99.9059C66.425 97.9985 67.2686 96.0355 66.6687 95.5215C66.0687 95.0074 64.2525 96.137 62.612 98.0444C60.9715 99.9518 60.1279 101.915 60.7278 102.429C61.3277 102.943 63.144 101.813 64.7845 99.9059Z" fill="#2F2E41"/>
<path d="M75.6596 101.249C75.7583 101.791 75.6375 102.349 75.3239 102.801C75.0103 103.254 74.5295 103.563 73.9873 103.662C73.445 103.76 72.8858 103.64 72.4326 103.327C71.9794 103.014 71.6693 102.534 71.5706 101.992L71.5699 101.988C71.3654 100.861 72.2386 100.462 73.3679 100.258C74.4973 100.054 75.4551 100.122 75.6596 101.249Z" fill="white"/>
<path d="M57.7462 107.345C57.631 107.345 57.5206 107.299 57.4392 107.218C57.3578 107.137 57.312 107.027 57.312 106.912V81.3426C57.312 81.2276 57.3577 81.1174 57.4392 81.0361C57.5206 80.9548 57.631 80.9092 57.7462 80.9092C57.8613 80.9092 57.9718 80.9548 58.0532 81.0361C58.1346 81.1174 58.1804 81.2276 58.1804 81.3426V106.912C58.1804 107.027 58.1346 107.137 58.0532 107.218C57.9718 107.299 57.8613 107.345 57.7462 107.345Z" fill="#CCCCCC"/>
<path d="M51.2335 130.314C51.1183 130.314 51.0079 130.269 50.9265 130.187C50.8451 130.106 50.7993 129.996 50.7993 129.881V111.246C50.7993 111.131 50.8451 111.021 50.9265 110.939C51.0079 110.858 51.1183 110.812 51.2335 110.812C51.3486 110.812 51.4591 110.858 51.5405 110.939C51.6219 111.021 51.6677 111.131 51.6677 111.246V129.881C51.6677 129.996 51.6219 130.106 51.5405 130.187C51.4591 130.269 51.3486 130.314 51.2335 130.314Z" fill="#CCCCCC"/>
<path d="M67.9493 114.929C67.8342 114.929 67.7237 114.883 67.6423 114.802C67.5609 114.721 67.5151 114.61 67.5151 114.496V88.9265C67.5151 88.8116 67.5609 88.7014 67.6423 88.6201C67.7237 88.5388 67.8342 88.4932 67.9493 88.4932C68.0645 88.4932 68.1749 88.5388 68.2563 88.6201C68.3377 88.7014 68.3835 88.8116 68.3835 88.9265V114.496C68.3835 114.61 68.3377 114.721 68.2563 114.802C68.1749 114.883 68.0645 114.929 67.9493 114.929Z" fill="#CCCCCC"/>
<path d="M61.6534 133.348C61.5383 133.348 61.4278 133.302 61.3464 133.221C61.265 133.14 61.2192 133.029 61.2192 132.914V122.513C61.2192 122.399 61.265 122.288 61.3464 122.207C61.4278 122.126 61.5383 122.08 61.6534 122.08C61.7686 122.08 61.879 122.126 61.9604 122.207C62.0418 122.288 62.0876 122.399 62.0876 122.513V132.914C62.0876 133.029 62.0418 133.14 61.9604 133.221C61.879 133.302 61.7686 133.348 61.6534 133.348Z" fill="#CCCCCC"/>
<path d="M70.5543 80.0431C70.4391 80.0431 70.3287 79.9974 70.2473 79.9162C70.1659 79.8349 70.1201 79.7247 70.1201 79.6097V69.2088C70.1201 69.0938 70.1659 68.9836 70.2473 68.9023C70.3287 68.821 70.4391 68.7754 70.5543 68.7754C70.6694 68.7754 70.7799 68.821 70.8613 68.9023C70.9427 68.9836 70.9885 69.0938 70.9885 69.2088V79.6097C70.9885 79.7247 70.9427 79.8349 70.8613 79.9162C70.7799 79.9974 70.6694 80.0431 70.5543 80.0431Z" fill="#CCCCCC"/>
<path d="M48.8453 84.5929C48.7302 84.5929 48.6197 84.5472 48.5383 84.466C48.4569 84.3847 48.4111 84.2745 48.4111 84.1595V73.7586C48.4111 73.6436 48.4569 73.5334 48.5383 73.4521C48.6197 73.3709 48.7302 73.3252 48.8453 73.3252C48.9605 73.3252 49.0709 73.3709 49.1523 73.4521C49.2338 73.5334 49.2795 73.6436 49.2795 73.7586V84.1595C49.2795 84.2745 49.2337 84.3847 49.1523 84.466C49.0709 84.5472 48.9605 84.5929 48.8453 84.5929Z" fill="#CCCCCC"/>
<path d="M86.6188 85.6759C86.5036 85.6759 86.3932 85.6302 86.3117 85.549C86.2303 85.4677 86.1846 85.3575 86.1846 85.2425V74.8416C86.1846 74.7266 86.2303 74.6164 86.3117 74.5351C86.3932 74.4539 86.5036 74.4082 86.6188 74.4082C86.7339 74.4082 86.8443 74.4539 86.9258 74.5351C87.0072 74.6164 87.0529 74.7266 87.0529 74.8416V85.2425C87.0529 85.3575 87.0072 85.4677 86.9258 85.549C86.8443 85.6302 86.7339 85.6759 86.6188 85.6759Z" fill="#CCCCCC"/>
<path d="M85.7506 118.18C85.6354 118.18 85.525 118.134 85.4436 118.053C85.3622 117.971 85.3164 117.861 85.3164 117.746V105.178C85.3164 105.064 85.3621 104.953 85.4436 104.872C85.525 104.791 85.6354 104.745 85.7506 104.745C85.8657 104.745 85.9762 104.791 86.0576 104.872C86.139 104.953 86.1848 105.064 86.1848 105.178V117.746C86.1848 117.861 86.139 117.971 86.0576 118.053C85.9762 118.134 85.8657 118.18 85.7506 118.18Z" fill="#CCCCCC"/>
<path d="M77.067 129.23C76.9518 129.23 76.8414 129.185 76.76 129.103C76.6786 129.022 76.6328 128.912 76.6328 128.797V110.162C76.6328 110.047 76.6785 109.937 76.76 109.855C76.8414 109.774 76.9518 109.729 77.067 109.729C77.1821 109.729 77.2926 109.774 77.374 109.855C77.4554 109.937 77.5012 110.047 77.5012 110.162V128.797C77.5012 128.912 77.4554 129.022 77.374 129.103C77.2926 129.185 77.1821 129.23 77.067 129.23Z" fill="#CCCCCC"/>
<path d="M78.8038 97.3772C78.6887 97.3772 78.5782 97.3315 78.4968 97.2502C78.4154 97.169 78.3696 97.0587 78.3696 96.9438V71.3748C78.3696 71.2598 78.4154 71.1496 78.4968 71.0683C78.5782 70.9871 78.6887 70.9414 78.8038 70.9414C78.919 70.9414 79.0294 70.9871 79.1108 71.0683C79.1922 71.1496 79.238 71.2598 79.238 71.3748V96.9438C79.238 97.0587 79.1922 97.169 79.1108 97.2502C79.0294 97.3315 78.919 97.3772 78.8038 97.3772Z" fill="#CCCCCC"/>
<path d="M132.033 151.787C132.654 151.268 131.815 149.245 130.157 147.269C128.5 145.293 126.652 144.113 126.031 144.632C125.41 145.151 126.249 147.174 127.907 149.15C129.564 151.126 131.412 152.307 132.033 151.787Z" fill="#2F2E41"/>
<path d="M127.957 149.54C129.59 144.651 126.943 139.366 122.044 137.736C117.145 136.106 111.851 138.749 110.218 143.638C108.585 148.527 111.232 153.812 116.131 155.442C121.03 157.072 126.324 154.43 127.957 149.54Z" fill="#2F2E41"/>
<path d="M123.045 153.913H120.205V158.993H123.045V153.913Z" fill="#2F2E41"/>
<path d="M117.364 153.913H114.524V158.993H117.364V153.913Z" fill="#2F2E41"/>
<path d="M120.678 159.937C121.985 159.937 123.045 159.54 123.045 159.051C123.045 158.562 121.985 158.165 120.678 158.165C119.371 158.165 118.311 158.562 118.311 159.051C118.311 159.54 119.371 159.937 120.678 159.937Z" fill="#2F2E41"/>
<path d="M114.997 159.819C116.305 159.819 117.364 159.422 117.364 158.933C117.364 158.444 116.305 158.047 114.997 158.047C113.69 158.047 112.63 158.444 112.63 158.933C112.63 159.422 113.69 159.819 114.997 159.819Z" fill="#2F2E41"/>
<path d="M116.152 134.858C116.987 131.502 120.672 129.528 124.383 130.447C128.094 131.367 130.425 134.833 129.59 138.189C128.756 141.545 125.986 141.556 122.275 140.636C118.564 139.716 115.317 138.214 116.152 134.858Z" fill="#CCCCCC"/>
<path d="M112.781 144.259C113.128 143.528 111.518 142.04 109.186 140.936C106.853 139.831 104.68 139.529 104.333 140.26C103.986 140.99 105.595 142.478 107.928 143.583C110.261 144.687 112.433 144.99 112.781 144.259Z" fill="#2F2E41"/>
<path d="M117.69 147.731C119.411 147.731 120.807 146.338 120.807 144.62C120.807 142.902 119.411 141.509 117.69 141.509C115.968 141.509 114.573 142.902 114.573 144.62C114.573 146.338 115.968 147.731 117.69 147.731Z" fill="white"/>
<path d="M116.409 144.542C116.983 144.542 117.448 144.078 117.448 143.505C117.448 142.932 116.983 142.468 116.409 142.468C115.835 142.468 115.37 142.932 115.37 143.505C115.37 144.078 115.835 144.542 116.409 144.542Z" fill="#3F3D56"/>
<path d="M117.663 152.416C118.382 152.416 118.965 151.834 118.965 151.116C118.965 150.398 118.382 149.815 117.663 149.815C116.944 149.815 116.36 150.398 116.36 151.116C116.36 151.834 116.944 152.416 117.663 152.416Z" fill="white"/>
<path d="M145.783 160H94.5496C94.492 160 94.4368 159.977 94.3961 159.936C94.3554 159.896 94.3325 159.841 94.3325 159.783C94.3325 159.726 94.3554 159.67 94.3961 159.63C94.4368 159.589 94.492 159.566 94.5496 159.566H145.783C145.84 159.566 145.896 159.589 145.936 159.63C145.977 159.67 146 159.726 146 159.783C146 159.841 145.977 159.896 145.936 159.936C145.896 159.977 145.84 160 145.783 160Z" fill="#3F3D56"/>
</g>
<defs>
<clipPath id="clip0_11401_80155">
<rect width="146" height="160" fill="white"/>
</clipPath>
</defs>
</svg>
