<svg width="179" height="160" viewBox="0 0 179 160" fill="none" xmlns="http://www.w3.org/2000/svg">
<g clip-path="url(#clip0_7970_133514)">
<path d="M44.7039 40.5866C41.6501 31.4582 32.2198 26.3847 26.016 28.4601C19.8121 30.5355 15.3329 40.2621 18.3867 49.3906C21.2133 57.8401 29.7784 62.718 35.6706 61.8475C35.6281 61.9214 35.6001 62.0027 35.5882 62.0871L35.408 63.5898C35.3943 63.7044 35.4101 63.8205 35.4538 63.9273C35.4976 64.034 35.568 64.1278 35.6582 64.1997C35.7484 64.2716 35.8555 64.3193 35.9693 64.3381C36.0831 64.357 36.1999 64.3465 36.3085 64.3075L39.3436 63.2192C39.4523 63.1803 39.5491 63.1142 39.625 63.0273C39.7009 62.9404 39.7533 62.8356 39.7773 62.7227C39.8013 62.6099 39.796 62.4928 39.762 62.3825C39.728 62.2723 39.6664 62.1725 39.583 62.0928L38.4889 61.047C38.45 61.0114 38.407 60.9805 38.3609 60.955C43.6162 58.1229 47.5367 49.0545 44.7039 40.5866Z" fill="#F2F2F2"/>
<path d="M33.6488 33.8706C36.1848 35.1795 38.1215 37.412 39.0592 40.1074C39.9969 42.8028 39.8639 45.7553 38.6877 48.3555C38.4251 48.9534 39.3909 49.2678 39.6518 48.6739C40.8867 45.8604 41.0123 42.6841 40.0034 39.782C38.9946 36.8798 36.9258 34.4664 34.212 33.0256C33.6392 32.7221 33.0717 33.5649 33.6488 33.8706Z" fill="white"/>
<path d="M168.34 27.2805C165.286 18.152 155.856 13.0786 149.652 15.154C143.448 17.2293 138.969 26.956 142.023 36.0844C144.849 44.534 153.414 49.4119 159.306 48.5414C159.264 48.6153 159.236 48.6966 159.224 48.781L159.044 50.2837C159.03 50.3983 159.046 50.5144 159.09 50.6212C159.133 50.7279 159.204 50.8217 159.294 50.8936C159.384 50.9655 159.491 51.0131 159.605 51.032C159.719 51.0509 159.836 51.0403 159.944 51.0014L162.979 49.9131C163.088 49.8742 163.185 49.8081 163.261 49.7212C163.337 49.6343 163.389 49.5295 163.413 49.4166C163.437 49.3037 163.432 49.1866 163.398 49.0764C163.364 48.9661 163.302 48.8664 163.219 48.7867L162.125 47.7409C162.086 47.7053 162.043 47.6744 161.997 47.6489C167.252 44.8168 171.173 35.7483 168.34 27.2805Z" fill="#F2F2F2"/>
<path d="M157.285 20.5645C159.821 21.8733 161.757 24.1059 162.695 26.8013C163.633 29.4967 163.5 32.4492 162.324 35.0494C162.061 35.6473 163.027 35.9617 163.288 35.3677C164.523 32.5543 164.648 29.378 163.639 26.4759C162.63 23.5737 160.562 21.1602 157.848 19.7195C157.275 19.416 156.708 20.2587 157.285 20.5645Z" fill="white"/>
<path d="M96.5422 12.5883C93.4885 3.45989 84.0581 -1.61357 77.8543 0.461819C71.6505 2.5372 67.1712 12.2639 70.225 21.3923C73.0516 29.8418 81.6167 34.7197 87.5089 33.8492C87.4664 33.9231 87.4384 34.0045 87.4265 34.0889L87.2463 35.5916C87.2326 35.7061 87.2484 35.8223 87.2922 35.929C87.3359 36.0358 87.4063 36.1295 87.4965 36.2014C87.5867 36.2733 87.6938 36.321 87.8076 36.3399C87.9215 36.3587 88.0382 36.3482 88.1468 36.3093L91.182 35.221C91.2906 35.182 91.3874 35.116 91.4633 35.0291C91.5392 34.9422 91.5916 34.8373 91.6156 34.7245C91.6396 34.6116 91.6343 34.4945 91.6003 34.3842C91.5663 34.274 91.5047 34.1743 91.4213 34.0945L90.3272 33.0487C90.2883 33.0132 90.2453 32.9823 90.1992 32.9567C95.4545 30.1246 99.375 21.0562 96.5422 12.5883Z" fill="#F2F2F2"/>
<path d="M85.4871 5.87238C88.0232 7.18121 89.9599 9.41373 90.8976 12.1091C91.8352 14.8045 91.7023 17.7571 90.5261 20.3573C90.2635 20.9551 91.2293 21.2696 91.4902 20.6756C92.7251 17.8622 92.8507 14.6859 91.8418 11.7837C90.8329 8.88156 88.7642 6.46811 86.0504 5.02736C85.4776 4.72383 84.9101 5.5666 85.4871 5.87238Z" fill="white"/>
<path d="M81.2263 56.5128C81.6281 56.5128 81.9538 56.187 81.9538 55.7852C81.9538 55.3834 81.6281 55.0577 81.2263 55.0577C80.8245 55.0577 80.4988 55.3834 80.4988 55.7852C80.4988 56.187 80.8245 56.5128 81.2263 56.5128Z" fill="#CCCCCC"/>
<path d="M79.6757 85.6972C80.4694 85.6972 81.1129 85.0537 81.1129 84.26C81.1129 83.4662 80.4694 82.8228 79.6757 82.8228C78.8819 82.8228 78.2385 83.4662 78.2385 84.26C78.2385 85.0537 78.8819 85.6972 79.6757 85.6972Z" fill="#CCCCCC"/>
<path d="M55.615 80.1632C56.0737 80.1632 56.4455 79.7913 56.4455 79.3327C56.4455 78.874 56.0737 78.5022 55.615 78.5022C55.1564 78.5022 54.7845 78.874 54.7845 79.3327C54.7845 79.7913 55.1564 80.1632 55.615 80.1632Z" fill="#CCCCCC"/>
<path d="M68.2316 66.565C68.7283 66.565 69.1309 66.1623 69.1309 65.6656C69.1309 65.1689 68.7283 64.7662 68.2316 64.7662C67.7349 64.7662 67.3322 65.1689 67.3322 65.6656C67.3322 66.1623 67.7349 66.565 68.2316 66.565Z" fill="#CCCCCC"/>
<path d="M112.487 119.22C112.889 119.22 113.214 118.895 113.214 118.493C113.214 118.091 112.889 117.765 112.487 117.765C112.085 117.765 111.759 118.091 111.759 118.493C111.759 118.895 112.085 119.22 112.487 119.22Z" fill="#CCCCCC"/>
<path d="M88.6606 104.261C89.4543 104.261 90.0978 103.617 90.0978 102.823C90.0978 102.03 89.4543 101.386 88.6606 101.386C87.8668 101.386 87.2234 102.03 87.2234 102.823C87.2234 103.617 87.8668 104.261 88.6606 104.261Z" fill="#CCCCCC"/>
<path d="M105.027 85.3414C105.485 85.3414 105.857 84.9696 105.857 84.5109C105.857 84.0522 105.485 83.6804 105.027 83.6804C104.568 83.6804 104.196 84.0522 104.196 84.5109C104.196 84.9696 104.568 85.3414 105.027 85.3414Z" fill="#CCCCCC"/>
<path d="M110.488 103.191C110.985 103.191 111.387 102.788 111.387 102.291C111.387 101.795 110.985 101.392 110.488 101.392C109.991 101.392 109.589 101.795 109.589 102.291C109.589 102.788 109.991 103.191 110.488 103.191Z" fill="#CCCCCC"/>
<path d="M158.93 149.511C159.723 148.847 158.651 146.259 156.535 143.731C154.418 141.203 152.059 139.693 151.266 140.357C150.472 141.022 151.544 143.609 153.661 146.137C155.777 148.665 158.136 150.176 158.93 149.511Z" fill="#2F2E41"/>
<path d="M142.399 154.8C148.993 154.8 154.338 149.455 154.338 142.861C154.338 136.268 148.993 130.923 142.399 130.923C135.806 130.923 130.461 136.268 130.461 142.861C130.461 149.455 135.806 154.8 142.399 154.8Z" fill="#2F2E41"/>
<path d="M147.453 152.231H143.826V158.729H147.453V152.231Z" fill="#2F2E41"/>
<path d="M140.199 152.231H136.572V158.729H140.199V152.231Z" fill="#2F2E41"/>
<path d="M144.43 159.938C146.099 159.938 147.453 159.431 147.453 158.805C147.453 158.179 146.099 157.671 144.43 157.671C142.761 157.671 141.408 158.179 141.408 158.805C141.408 159.431 142.761 159.938 144.43 159.938Z" fill="#2F2E41"/>
<path d="M137.176 159.787C138.846 159.787 140.199 159.28 140.199 158.654C140.199 158.028 138.846 157.52 137.176 157.52C135.507 157.52 134.154 158.028 134.154 158.654C134.154 159.28 135.507 159.787 137.176 159.787Z" fill="#2F2E41"/>
<path d="M138.651 127.854C139.717 123.561 144.422 121.034 149.161 122.211C153.9 123.388 156.877 127.822 155.811 132.115C154.745 136.408 151.208 136.422 146.47 135.245C141.731 134.069 137.585 132.147 138.651 127.854Z" fill="#E6E6E6"/>
<path d="M134.346 139.88C134.789 138.945 132.734 137.041 129.756 135.628C126.777 134.216 124.002 133.828 123.559 134.764C123.115 135.699 125.171 137.602 128.149 139.015C131.128 140.428 133.902 140.815 134.346 139.88Z" fill="#2F2E41"/>
<path d="M140.615 144.322C142.813 144.322 144.595 142.54 144.595 140.342C144.595 138.144 142.813 136.362 140.615 136.362C138.416 136.362 136.634 138.144 136.634 140.342C136.634 142.54 138.416 144.322 140.615 144.322Z" fill="white"/>
<path d="M138.979 140.242C139.711 140.242 140.305 139.648 140.305 138.915C140.305 138.183 139.711 137.589 138.979 137.589C138.246 137.589 137.652 138.183 137.652 138.915C137.652 139.648 138.246 140.242 138.979 140.242Z" fill="#3F3D56"/>
<path d="M143.112 148.635C143.174 148.978 143.168 149.33 143.095 149.67C143.021 150.011 142.881 150.334 142.683 150.62C142.485 150.907 142.232 151.151 141.939 151.34C141.646 151.529 141.319 151.658 140.976 151.721C140.633 151.783 140.281 151.778 139.941 151.704C139.6 151.63 139.277 151.491 138.991 151.292C138.704 151.094 138.46 150.841 138.271 150.548C138.082 150.255 137.953 149.928 137.89 149.585L137.889 149.58C137.628 148.138 138.743 147.628 140.185 147.367C141.627 147.106 142.85 147.193 143.112 148.635Z" fill="white"/>
<path d="M44.246 134.515C45.423 131.435 45.5935 128.639 44.6268 128.27C43.66 127.9 41.9221 130.097 40.7451 133.177C39.568 136.256 39.3975 139.052 40.3643 139.422C41.331 139.791 43.0689 137.594 44.246 134.515Z" fill="#2F2E41"/>
<path d="M31.4606 154.8C38.0541 154.8 43.3993 149.455 43.3993 142.861C43.3993 136.268 38.0541 130.923 31.4606 130.923C24.867 130.923 19.5219 136.268 19.5219 142.861C19.5219 149.455 24.867 154.8 31.4606 154.8Z" fill="#2F2E41"/>
<path d="M29.6471 152.231H26.0201V158.729H29.6471V152.231Z" fill="#2F2E41"/>
<path d="M36.901 152.231H33.274V158.729H36.901V152.231Z" fill="#2F2E41"/>
<path d="M29.0426 159.938C30.7119 159.938 32.0651 159.431 32.0651 158.805C32.0651 158.179 30.7119 157.671 29.0426 157.671C27.3733 157.671 26.0201 158.179 26.0201 158.805C26.0201 159.431 27.3733 159.938 29.0426 159.938Z" fill="#2F2E41"/>
<path d="M36.2965 159.787C37.9658 159.787 39.319 159.28 39.319 158.654C39.319 158.028 37.9658 157.52 36.2965 157.52C34.6273 157.52 33.274 158.028 33.274 158.654C33.274 159.28 34.6273 159.787 36.2965 159.787Z" fill="#2F2E41"/>
<path d="M31.7628 143.919C34.0163 143.919 35.8431 142.092 35.8431 139.839C35.8431 137.585 34.0163 135.758 31.7628 135.758C29.5093 135.758 27.6825 137.585 27.6825 139.839C27.6825 142.092 29.5093 143.919 31.7628 143.919Z" fill="white"/>
<path d="M31.7628 141.199C32.514 141.199 33.1229 140.59 33.1229 139.839C33.1229 139.088 32.514 138.479 31.7628 138.479C31.0117 138.479 30.4027 139.088 30.4027 139.839C30.4027 140.59 31.0117 141.199 31.7628 141.199Z" fill="#3F3D56"/>
<path d="M19.8796 131.759C18.9156 127.441 21.9971 123.079 26.7624 122.015C31.5276 120.951 36.1721 123.588 37.1361 127.905C38.1001 132.223 34.942 133.815 30.1767 134.879C25.4115 135.943 20.8436 136.076 19.8796 131.759Z" fill="#E6E6E6"/>
<path d="M23.4071 139.88C23.8506 138.945 21.7954 137.041 18.8167 135.628C15.8379 134.216 13.0636 133.828 12.6201 134.764C12.1766 135.699 14.2318 137.602 17.2106 139.015C20.1893 140.428 22.9636 140.815 23.4071 139.88Z" fill="#2F2E41"/>
<path d="M25.5963 147.168C25.5963 148.337 28.605 150.644 31.9435 150.644C35.282 150.644 38.4122 147.354 38.4122 146.186C38.4122 145.017 35.282 146.413 31.9435 146.413C28.605 146.413 25.5963 146 25.5963 147.168Z" fill="white"/>
<path d="M88.4881 143.434C95.0817 143.434 100.427 138.089 100.427 131.496C100.427 124.902 95.0817 119.557 88.4881 119.557C81.8945 119.557 76.5494 124.902 76.5494 131.496C76.5494 138.089 81.8945 143.434 88.4881 143.434Z" fill="#2F2E41"/>
<path d="M86.6746 140.865H83.0477V147.364H86.6746V140.865Z" fill="#2F2E41"/>
<path d="M93.9285 140.865H90.3016V147.364H93.9285V140.865Z" fill="#2F2E41"/>
<path d="M86.0701 148.573C87.7394 148.573 89.0926 148.065 89.0926 147.439C89.0926 146.813 87.7394 146.306 86.0701 146.306C84.4009 146.306 83.0477 146.813 83.0477 147.439C83.0477 148.065 84.4009 148.573 86.0701 148.573Z" fill="#2F2E41"/>
<path d="M93.324 148.421C94.9933 148.421 96.3465 147.914 96.3465 147.288C96.3465 146.662 94.9933 146.155 93.324 146.155C91.6548 146.155 90.3016 146.662 90.3016 147.288C90.3016 147.914 91.6548 148.421 93.324 148.421Z" fill="#2F2E41"/>
<path d="M76.9072 120.393C75.9432 116.076 79.0247 111.713 83.7899 110.649C88.5552 109.585 93.1996 112.223 94.1636 116.54C95.1276 120.857 91.9695 122.449 87.2043 123.513C82.439 124.577 77.8711 124.71 76.9072 120.393Z" fill="#FFCA63"/>
<path d="M101.353 126.279C103.939 123.691 105.376 120.935 104.564 120.124C103.752 119.312 100.997 120.752 98.4116 123.339C95.8261 125.927 94.3886 128.682 95.2009 129.494C96.0132 130.306 98.7677 128.866 101.353 126.279Z" fill="#2F2E41"/>
<path d="M78.8651 130.326C79.6774 129.514 78.2399 126.758 75.6544 124.171C73.0689 121.583 70.3144 120.144 69.5021 120.955C68.6898 121.767 70.1272 124.523 72.7128 127.11C75.2983 129.698 78.0528 131.137 78.8651 130.326Z" fill="#2F2E41"/>
<path d="M161.07 55.7251C160.673 43.4836 152.289 33.821 142.343 34.143C120.207 34.7989 119.666 75.3922 141.038 78.3082L140.585 81.9051L147.186 81.6914L146.502 78.1313C155.099 76.231 161.429 66.8235 161.07 55.7251Z" fill="#FF6584"/>
<path d="M131.335 62.5123L128.841 62.593C127.864 57.9459 127.709 53.1633 128.384 48.4627L130.878 48.382C129.957 53.3025 130.109 58.0126 131.335 62.5123Z" fill="white"/>
<path d="M147.509 78.0752L140.029 78.3174L140.083 79.9798L147.563 79.7376L147.509 78.0752Z" fill="#3F3D56"/>
<path d="M125.781 141.73L125.028 141.378L143.549 78.5695L144.302 78.9223L125.781 141.73Z" fill="#3F3D56"/>
<path d="M176.399 66.0768C180.922 54.6946 177.092 42.4884 167.844 38.8134C147.286 30.5788 130.586 67.5821 149.018 78.7866L147.167 81.9039L153.304 84.3427L154.098 80.8054C162.739 82.4949 172.298 76.3961 176.399 66.0768Z" fill="#FFCA63"/>
<path d="M146.426 60.4306L144.108 59.5093C145.067 54.8583 146.834 50.4114 149.329 46.3709L151.647 47.2922C148.839 51.4362 147.099 55.8156 146.426 60.4306Z" fill="white"/>
<path d="M148.089 78.3923L147.474 79.938L154.43 82.702L155.044 81.1563L148.089 78.3923Z" fill="#3F3D56"/>
<path d="M125.635 140.077L124.912 139.666L150.77 80.6563L151.492 81.0674L125.635 140.077Z" fill="#3F3D56"/>
<path d="M35.8497 56.5161C30.9561 45.2882 19.5937 39.4095 10.4711 43.3855C-9.85449 52.178 4.6494 90.0957 25.5851 84.9045L26.4944 88.4139L32.5484 85.7753L30.5966 82.7203C37.8825 77.7765 40.2863 66.6955 35.8497 56.5161Z" fill="#FFCA63"/>
<path d="M10.7303 73.8145L8.4432 74.8113C5.81702 70.8547 3.90518 66.4682 2.79456 61.8511L5.08166 60.8542C6.04489 65.7667 7.92777 70.0868 10.7303 73.8145Z" fill="white"/>
<path d="M31.5122 82.2958L24.6509 85.2863L25.3154 86.811L32.1767 83.8205L31.5122 82.2958Z" fill="#3F3D56"/>
<path d="M47.3869 141.891C47.2799 141.917 47.1667 141.9 47.0723 141.843C46.9778 141.787 46.9099 141.694 46.8833 141.587L28.8071 84.3113L29.6143 84.1111L47.6904 141.387C47.7036 141.44 47.7062 141.495 47.698 141.549C47.6899 141.603 47.6712 141.655 47.643 141.702C47.6148 141.749 47.5777 141.789 47.5338 141.822C47.4898 141.854 47.4399 141.878 47.3869 141.891Z" fill="#3F3D56"/>
<path d="M52.218 160H8.69597C8.62245 160 8.55195 159.971 8.49996 159.919C8.44797 159.867 8.41876 159.796 8.41876 159.723C8.41876 159.649 8.44797 159.579 8.49996 159.527C8.55195 159.475 8.62245 159.446 8.69597 159.446H52.218C52.2915 159.446 52.362 159.475 52.414 159.527C52.466 159.579 52.4952 159.649 52.4952 159.723C52.4952 159.796 52.466 159.867 52.414 159.919C52.362 159.971 52.2915 160 52.218 160Z" fill="#CCCCCC"/>
<path d="M162.825 160H119.303C119.229 160 119.159 159.971 119.107 159.919C119.055 159.867 119.026 159.796 119.026 159.723C119.026 159.649 119.055 159.579 119.107 159.527C119.159 159.475 119.229 159.446 119.303 159.446H162.825C162.898 159.446 162.969 159.475 163.021 159.527C163.073 159.579 163.102 159.649 163.102 159.723C163.102 159.796 163.073 159.867 163.021 159.919C162.969 159.971 162.898 160 162.825 160Z" fill="#CCCCCC"/>
<path d="M110.987 148.634H67.4646C67.3911 148.634 67.3205 148.605 67.2686 148.553C67.2166 148.501 67.1874 148.431 67.1874 148.357C67.1874 148.284 67.2166 148.213 67.2686 148.161C67.3205 148.109 67.3911 148.08 67.4646 148.08H110.987C111.06 148.08 111.131 148.109 111.183 148.161C111.235 148.213 111.264 148.284 111.264 148.357C111.264 148.431 111.235 148.501 111.183 148.553C111.131 148.605 111.06 148.634 110.987 148.634Z" fill="#CCCCCC"/>
<path d="M87.9858 133.884C90.2393 133.884 92.0661 132.057 92.0661 129.804C92.0661 127.55 90.2393 125.723 87.9858 125.723C85.7323 125.723 83.9055 127.55 83.9055 129.804C83.9055 132.057 85.7323 133.884 87.9858 133.884Z" fill="white"/>
<path d="M87.9858 131.164C88.737 131.164 89.3459 130.555 89.3459 129.804C89.3459 129.053 88.737 128.444 87.9858 128.444C87.2346 128.444 86.6257 129.053 86.6257 129.804C86.6257 130.555 87.2346 131.164 87.9858 131.164Z" fill="#3F3D56"/>
<path d="M91.2249 137.35C91.3509 138.042 91.1967 138.757 90.7962 139.335C90.3958 139.914 89.7818 140.31 89.0894 140.436C88.397 140.562 87.6829 140.408 87.1042 140.007C86.5255 139.607 86.1295 138.993 86.0035 138.301L86.0026 138.295C85.7415 136.853 86.8565 136.343 88.2986 136.082C89.7407 135.821 90.9638 135.908 91.2249 137.35Z" fill="white"/>
</g>
<defs>
<clipPath id="clip0_7970_133514">
<rect width="177.597" height="160" fill="white" transform="translate(0.701538)"/>
</clipPath>
</defs>
</svg>
