<svg width="232" height="200" viewBox="0 0 232 200" fill="none" xmlns="http://www.w3.org/2000/svg">
<path d="M214.974 56.8781C211.399 66.5185 206.55 76.5185 204.506 78.5298C198.54 82.0017 186.631 74.0354 165.238 74.0354C160.334 74.0354 147.676 62.0804 143.063 57.777C136.811 51.8218 130.228 46.2285 123.345 41.0242L116.91 50.1141L148.838 89.3725V128.125H182.855V91.0466C188.039 92.6149 193.408 93.4728 198.82 93.5972C203.464 93.7798 208.064 92.6386 212.091 90.3051C217.878 86.6309 223.944 72.7657 228.022 61.7882L214.974 56.8781Z" fill="#E9F5E9"/>
<path d="M182.855 129.271H148.838C148.542 129.271 148.258 129.153 148.048 128.942C147.839 128.731 147.721 128.446 147.721 128.148V89.7993L116.05 50.8442C115.902 50.6488 115.822 50.41 115.822 50.1645C115.822 49.919 115.902 49.6802 116.05 49.4847L122.474 40.3948C122.647 40.1543 122.908 39.9927 123.2 39.9454C123.345 39.92 123.494 39.9238 123.638 39.9566C123.781 39.9894 123.917 40.0505 124.038 40.1364C130.957 45.3702 137.574 50.9974 143.856 56.9903L144.336 57.4398C148.458 61.2825 160.982 72.9566 165.283 72.9566C174.059 73.074 182.785 74.3008 191.256 76.6083C197.066 78.024 201.311 79.0577 203.869 77.7319C205.656 75.7993 210.293 66.4959 213.923 56.5858C213.974 56.4468 214.052 56.3194 214.152 56.2108C214.252 56.1021 214.373 56.0145 214.507 55.9529C214.641 55.8913 214.786 55.8569 214.933 55.8518C215.08 55.8466 215.227 55.8708 215.365 55.9229L228.458 60.833C228.596 60.8843 228.722 60.9625 228.83 61.0632C228.938 61.1639 229.026 61.2851 229.087 61.4198C229.148 61.5546 229.182 61.7001 229.187 61.8482C229.192 61.9962 229.168 62.1438 229.117 62.2825C223.106 78.4847 217.599 88.2712 212.739 91.3611C206.237 95.4959 196.239 95.8555 183.973 92.642V128.249C183.947 128.529 183.819 128.789 183.612 128.979C183.405 129.168 183.135 129.272 182.855 129.271ZM149.955 127.024H181.738V91.069C181.74 90.8964 181.781 90.7266 181.859 90.5727C181.936 90.4188 182.048 90.2849 182.185 90.1813C182.323 90.0748 182.484 90.002 182.654 89.9689C182.825 89.9357 183.001 89.9431 183.168 89.9903C195.457 93.4847 205.366 93.2825 211.544 89.3611C215.756 86.6757 221.096 77.1364 226.625 62.3948L215.577 58.3274C212.326 66.878 207.544 77.0802 205.243 79.3386C205.176 79.404 205.101 79.4606 205.02 79.5072C201.668 81.4398 197.054 80.3162 190.642 78.7431C182.345 76.468 173.793 75.2636 165.193 75.1589C160.635 75.1589 151.274 67.0128 142.727 59.0465L142.258 58.5971C132.751 49.7431 125.903 44.4173 123.546 42.6308L118.273 50.0914L149.665 88.687C149.825 88.8876 149.912 89.1375 149.911 89.3948L149.955 127.024Z" fill="#093F68"/>
<path d="M165.774 98.0466L162.579 75.6309H169.483L165.774 98.0466Z" fill="white"/>
<path d="M165.774 99.1701C165.503 99.1728 165.24 99.0762 165.035 98.8984C164.829 98.7207 164.695 98.4738 164.657 98.2038L161.462 75.7881C161.438 75.627 161.448 75.4626 161.494 75.3062C161.539 75.1498 161.617 75.0051 161.723 74.8822C161.83 74.7593 161.961 74.6611 162.109 74.5944C162.257 74.5277 162.417 74.4941 162.579 74.4959H169.483C169.645 74.4973 169.805 74.5342 169.952 74.604C170.098 74.6739 170.228 74.775 170.332 74.9004C170.438 75.0242 170.516 75.1698 170.56 75.3269C170.605 75.4841 170.614 75.6492 170.589 75.8105L166.869 98.2824C166.815 98.5342 166.677 98.7597 166.478 98.9212C166.278 99.0828 166.03 99.1707 165.774 99.1701ZM163.864 76.6982L165.852 90.6645L168.165 76.6982H163.864Z" fill="#093F68"/>
<path d="M164.121 17.9904C164.971 17.8557 165.83 17.788 166.69 17.7882C170.656 17.7882 174.711 17.687 178.331 19.4735C182 21.2885 185.094 24.0962 187.265 27.5814C189.435 31.0666 190.597 35.0914 190.62 39.2039L189.782 55.5522H142.18C142.091 54.5329 142.159 53.5058 142.381 52.5073C142.353 51.4359 142.195 50.3719 141.912 49.3387C141.346 46.6736 141.024 43.9618 140.951 41.2376C140.97 36.9447 141.859 32.7008 143.565 28.7657C144.526 26.4061 145.666 23.9567 147.743 22.4735C149.821 20.9904 153.117 20.9567 154.592 23.0353C157.119 20.3313 160.474 18.5554 164.121 17.9904Z" fill="#725858"/>
<path d="M189.748 56.6758H144.224C141.566 56.6758 141.108 56.6758 141.074 55.7095C140.938 54.9302 140.961 54.1313 141.141 53.3612C141.203 53.061 141.244 52.7569 141.264 52.451C141.259 51.718 141.157 50.9888 140.962 50.2825C140.962 50.0465 140.862 49.8106 140.817 49.5634C140.237 46.828 139.908 44.0448 139.834 41.2488C139.847 36.8058 140.763 32.4124 142.526 28.3387C143.521 25.9342 144.761 23.2151 147.095 21.5971C148.184 20.8073 149.486 20.3711 150.828 20.347C152.17 20.3229 153.487 20.7121 154.603 21.4623C157.206 19.0621 160.461 17.4972 163.953 16.9679L164.121 18.0915L163.953 16.9679C164.859 16.8242 165.774 16.7529 166.69 16.7544H167.405C171.226 16.7544 175.225 16.7544 178.823 18.5522C182.677 20.4604 185.925 23.413 188.2 27.0776C190.476 30.7422 191.689 34.9731 191.703 39.2937C191.703 39.2937 191.703 39.2937 190.865 55.7095C190.827 55.9794 190.693 56.2263 190.488 56.4041C190.282 56.5819 190.019 56.6784 189.748 56.6758ZM143.241 54.4286H188.687C188.877 50.8218 189.469 39.2937 189.469 39.1477C189.447 35.2556 188.347 31.4466 186.293 28.148C184.239 24.8495 181.312 22.1919 177.839 20.4735C174.667 18.923 171.137 18.9117 167.405 18.9117H166.69C165.89 18.9096 165.09 18.9735 164.3 19.1027C160.898 19.6192 157.769 21.2738 155.418 23.7994C155.303 23.9189 155.163 24.0127 155.009 24.0746C154.855 24.1365 154.69 24.1653 154.525 24.1589C154.359 24.1479 154.198 24.0998 154.053 24.0181C153.908 23.9365 153.783 23.8234 153.687 23.687C152.57 22.1477 149.989 22.26 148.391 23.3949C146.537 24.7095 145.498 26.9791 144.593 29.1926C142.948 32.9898 142.089 37.0843 142.068 41.2263C142.141 43.8714 142.455 46.5042 143.007 49.0915C143.007 49.3162 143.096 49.5297 143.152 49.7544C143.391 50.6558 143.507 51.5856 143.498 52.5185C143.469 52.9182 143.417 53.3158 143.342 53.7095C143.308 53.9679 143.264 54.2039 143.241 54.4286Z" fill="#093F68"/>
<path d="M162.579 71.6309H169.483V75.6309C169.483 76.4116 169.175 77.1604 168.626 77.7125C168.077 78.2645 167.332 78.5747 166.556 78.5747H165.517C164.741 78.5747 163.996 78.2645 163.448 77.7125C162.899 77.1604 162.59 76.4116 162.59 75.6309V71.6309H162.579Z" fill="#FFC9B0"/>
<path d="M166.556 79.6983H165.506C164.432 79.6954 163.404 79.2643 162.646 78.4998C161.888 77.7352 161.462 76.6995 161.462 75.6197V71.6309C161.462 71.3329 161.58 71.0471 161.789 70.8364C161.999 70.6257 162.283 70.5073 162.579 70.5073H169.483C169.779 70.5073 170.063 70.6257 170.273 70.8364C170.483 71.0471 170.6 71.3329 170.6 71.6309V75.6197C170.6 76.6995 170.174 77.7352 169.416 78.4998C168.658 79.2643 167.63 79.6954 166.556 79.6983ZM163.696 72.7545V75.6197C163.696 76.1035 163.887 76.5676 164.226 76.9108C164.565 77.2539 165.025 77.4482 165.506 77.4511H166.556C167.037 77.4482 167.497 77.2539 167.837 76.9108C168.176 76.5676 168.366 76.1035 168.366 75.6197V72.7545H163.696Z" fill="#093F68"/>
<path d="M147.43 59.4062C150.923 59.4062 153.754 56.8004 153.754 53.586C153.754 50.3716 150.923 47.7657 147.43 47.7657C143.938 47.7657 141.107 50.3716 141.107 53.586C141.107 56.8004 143.938 59.4062 147.43 59.4062Z" fill="#FFC9B0"/>
<path d="M147.431 60.5185C146.09 60.4157 144.807 59.9216 143.74 59.0967C142.674 58.2717 141.87 57.1518 141.427 55.8741C140.984 54.5964 140.921 53.2165 141.246 51.9034C141.571 50.5903 142.27 49.401 143.257 48.4814C144.244 47.5618 145.476 46.9517 146.802 46.7259C148.129 46.5001 149.492 46.6685 150.725 47.2103C151.958 47.7521 153.007 48.6439 153.743 49.7763C154.48 50.9088 154.872 52.2327 154.871 53.5859C154.796 55.4965 153.97 57.299 152.576 58.5985C151.181 59.8979 149.331 60.5884 147.431 60.5185ZM147.431 48.8892C146.531 48.989 145.678 49.3488 144.977 49.9252C144.275 50.5015 143.755 51.2698 143.478 52.1372C143.201 53.0046 143.179 53.9341 143.416 54.8135C143.653 55.6929 144.138 56.4845 144.812 57.0929C145.486 57.7012 146.321 58.1002 147.216 58.2418C148.111 58.3833 149.027 58.2613 149.855 57.8905C150.682 57.5196 151.385 56.9159 151.879 56.152C152.373 55.3882 152.636 54.4969 152.637 53.5859C152.562 52.2702 151.972 51.0378 150.997 50.1578C150.022 49.2778 148.74 48.8218 147.431 48.8892Z" fill="#093F68"/>
<path d="M184.274 59.4062C187.766 59.4062 190.597 56.8004 190.597 53.586C190.597 50.3716 187.766 47.7657 184.274 47.7657C180.782 47.7657 177.951 50.3716 177.951 53.586C177.951 56.8004 180.782 59.4062 184.274 59.4062Z" fill="#FFC9B0"/>
<path d="M184.297 60.5185C182.955 60.4179 181.671 59.9255 180.603 59.1018C179.535 58.278 178.729 57.1587 178.284 55.881C177.839 54.6034 177.775 53.223 178.099 51.909C178.423 50.5951 179.121 49.4048 180.107 48.4841C181.094 47.5634 182.326 46.9523 183.653 46.7257C184.98 46.4991 186.344 46.6669 187.578 47.2086C188.811 47.7502 189.861 48.6421 190.597 49.7749C191.334 50.9077 191.726 52.2322 191.726 53.5859C191.647 55.4934 190.822 57.2925 189.431 58.591C188.039 59.8895 186.194 60.5823 184.297 60.5185ZM184.297 48.8892C183.396 48.9869 182.542 49.345 181.839 49.9202C181.136 50.4954 180.613 51.2632 180.335 52.1306C180.056 52.9981 180.033 53.9281 180.269 54.8084C180.505 55.6886 180.989 56.4813 181.663 57.0907C182.337 57.7002 183.172 58.1002 184.067 58.2425C184.962 58.3847 185.88 58.2632 186.708 57.8925C187.536 57.5218 188.239 56.9178 188.733 56.1535C189.227 55.3893 189.491 54.4975 189.492 53.5859C189.416 52.2722 188.828 51.0416 187.856 50.1619C186.883 49.2823 185.603 48.8248 184.297 48.8892Z" fill="#093F68"/>
<path d="M166.032 72.541C160.663 72.541 155.514 70.3959 151.718 66.5778C147.922 62.7596 145.789 57.5811 145.789 52.1814V41.2263C145.789 41.2263 150.883 38.305 152.403 33.687C152.403 33.687 160.223 42.5859 167.674 41.9904C173.916 41.4536 180.125 40.5834 186.275 39.3836V52.1814C186.275 57.5811 184.142 62.7596 180.346 66.5778C176.549 70.3959 171.401 72.541 166.032 72.541Z" fill="#FFC9B0"/>
<path d="M166.032 73.6646C160.369 73.6556 154.942 71.3894 150.938 67.3624C146.934 63.3355 144.681 57.8764 144.672 52.1814V41.2264C144.672 41.0273 144.725 40.8318 144.825 40.6601C144.925 40.4883 145.069 40.3464 145.242 40.2488C145.242 40.2488 149.978 37.4736 151.341 33.3387C151.403 33.1507 151.512 32.9822 151.659 32.8505C151.806 32.7187 151.985 32.6283 152.177 32.5884C152.37 32.5485 152.57 32.5605 152.757 32.6232C152.943 32.6859 153.11 32.7971 153.24 32.9455C153.319 33.0353 160.759 41.3949 167.585 40.8106C173.777 40.2772 179.938 39.4145 186.04 38.2264C186.203 38.1909 186.372 38.1927 186.534 38.2316C186.697 38.2705 186.849 38.3455 186.978 38.4511C187.108 38.5568 187.212 38.6904 187.284 38.8421C187.355 38.9938 187.392 39.1596 187.392 39.3275V52.1252C187.398 57.8299 185.151 63.3035 181.145 67.3426C177.14 71.3816 171.704 73.6556 166.032 73.6646ZM146.906 41.8443V52.1814C146.906 54.7075 147.401 57.2089 148.362 59.5427C149.323 61.8765 150.732 63.9971 152.508 65.7833C154.284 67.5695 156.392 68.9864 158.713 69.9531C161.033 70.9198 163.52 71.4174 166.032 71.4174C168.543 71.4174 171.03 70.9198 173.351 69.9531C175.671 68.9864 177.78 67.5695 179.556 65.7833C181.332 63.9971 182.74 61.8765 183.702 59.5427C184.663 57.2089 185.157 54.7075 185.157 52.1814V40.7432C182.286 41.2713 175.237 42.5073 167.763 43.1028C161.518 43.6196 155.307 38.2264 152.76 35.6983C151.331 38.1922 149.322 40.3009 146.906 41.8443Z" fill="#093F68"/>
<path d="M165.931 56.687C165.29 56.6837 164.652 56.6273 164.02 56.5185C163.874 56.4934 163.733 56.4395 163.607 56.3598C163.481 56.2802 163.372 56.1764 163.286 56.0543C163.112 55.8078 163.043 55.5018 163.093 55.2039C163.144 54.9059 163.31 54.6402 163.555 54.4653C163.8 54.2904 164.104 54.2206 164.4 54.2713C165.101 54.3898 165.814 54.4237 166.523 54.3724C166.176 53.0669 165.678 51.8072 165.037 50.6196C164.97 50.4883 164.928 50.3449 164.916 50.1976C164.904 50.0503 164.92 49.9019 164.965 49.7611C165.009 49.6202 165.081 49.4896 165.176 49.3766C165.271 49.2637 165.387 49.1706 165.517 49.1027C165.648 49.0349 165.791 48.9935 165.937 48.9811C166.083 48.9686 166.231 48.9853 166.371 49.0301C166.511 49.075 166.641 49.1472 166.753 49.2425C166.866 49.3379 166.958 49.4546 167.026 49.5859C168.076 51.6083 169.26 54.2937 168.623 55.5859C168.528 55.8036 168.386 55.9967 168.206 56.1505C168.026 56.3043 167.813 56.4148 167.584 56.4735C167.044 56.6118 166.488 56.6835 165.931 56.687Z" fill="#093F68"/>
<path d="M148.928 189.395H134.036L148.85 116.125H163.741L148.928 189.395Z" fill="#093F68"/>
<path d="M148.928 190.519H134.025C133.858 190.519 133.694 190.482 133.543 190.41C133.392 190.338 133.259 190.233 133.154 190.103C133.051 189.974 132.977 189.823 132.938 189.662C132.9 189.5 132.897 189.333 132.931 189.17L147.744 115.901C147.796 115.643 147.937 115.412 148.141 115.248C148.345 115.083 148.6 114.996 148.861 115.002H163.742C163.907 115.003 164.069 115.041 164.218 115.113C164.367 115.184 164.498 115.289 164.602 115.417C164.707 115.546 164.783 115.696 164.823 115.857C164.864 116.018 164.868 116.187 164.836 116.35L150.023 189.62C149.971 189.873 149.834 190.102 149.635 190.265C149.435 190.429 149.186 190.519 148.928 190.519ZM135.399 188.271H148.012L162.379 117.249H149.755L135.399 188.271Z" fill="#093F68"/>
<path d="M181.627 189.395H170.053L169.483 116.125H182.856L181.627 189.395Z" fill="#093F68"/>
<path d="M181.627 190.518H170.053C169.757 190.518 169.473 190.4 169.263 190.189C169.054 189.979 168.936 189.693 168.936 189.395L168.366 116.136C168.365 115.988 168.394 115.842 168.449 115.705C168.505 115.568 168.587 115.444 168.69 115.339C168.794 115.232 168.917 115.148 169.053 115.09C169.189 115.032 169.336 115.002 169.483 115.001H182.889C183.185 115.001 183.47 115.12 183.679 115.331C183.889 115.541 184.006 115.827 184.006 116.125L182.777 189.383C182.779 189.535 182.75 189.685 182.693 189.825C182.635 189.965 182.55 190.091 182.443 190.197C182.335 190.303 182.207 190.387 182.067 190.442C181.927 190.497 181.777 190.523 181.627 190.518ZM171.159 188.271H180.521L181.716 117.249H170.612L171.159 188.271Z" fill="#093F68"/>
<path d="M182.856 116.013H149.486V129.676H182.856V116.013Z" fill="#093F68"/>
<path d="M182.856 130.799H149.486C149.19 130.799 148.906 130.681 148.696 130.47C148.487 130.26 148.369 129.974 148.369 129.676V116.013C148.369 115.715 148.487 115.429 148.696 115.218C148.906 115.008 149.19 114.889 149.486 114.889H182.856C183.152 114.889 183.436 115.008 183.646 115.218C183.855 115.429 183.973 115.715 183.973 116.013V129.676C183.973 129.974 183.855 130.26 183.646 130.47C183.436 130.681 183.152 130.799 182.856 130.799ZM150.603 128.552H181.738V117.136H150.603V128.552Z" fill="#093F68"/>
<path d="M148.928 189.395L146.95 199.26H124.328L136.673 189.395H148.928Z" fill="#E9F5E9"/>
<path d="M146.951 200.384H124.328C124.098 200.382 123.873 200.309 123.685 200.174C123.497 200.039 123.356 199.849 123.28 199.63C123.204 199.41 123.197 199.173 123.261 198.95C123.325 198.727 123.456 198.529 123.636 198.384L135.925 188.507C136.123 188.353 136.366 188.269 136.617 188.271H148.906C149.072 188.269 149.236 188.305 149.387 188.375C149.538 188.444 149.671 188.547 149.777 188.676C149.881 188.805 149.954 188.956 149.993 189.117C150.031 189.278 150.034 189.446 150.001 189.608L148.046 199.451C148.001 199.711 147.867 199.947 147.667 200.117C147.467 200.288 147.213 200.382 146.951 200.384ZM127.535 198.136H146.035L147.565 190.518H137.053L127.535 198.136Z" fill="#093F68"/>
<path d="M170.769 189.395V199.26H191.514L179.817 189.395H170.769Z" fill="#E9F5E9"/>
<path d="M191.514 200.384H170.769C170.472 200.384 170.188 200.265 169.979 200.055C169.769 199.844 169.651 199.558 169.651 199.26V189.395C169.651 189.097 169.769 188.811 169.979 188.6C170.188 188.39 170.472 188.271 170.769 188.271H179.829C180.09 188.271 180.343 188.362 180.544 188.53L192.251 198.406C192.424 198.555 192.547 198.753 192.605 198.973C192.663 199.194 192.653 199.427 192.575 199.642C192.497 199.861 192.352 200.05 192.162 200.183C191.972 200.316 191.745 200.386 191.514 200.384ZM171.886 198.137H188.453L179.415 190.519H171.886V198.137Z" fill="#093F68"/>
<path d="M225.429 50.001L221.253 50.706C219.233 51.0471 217.871 52.9707 218.21 55.0025L218.911 59.2021C219.25 61.2339 221.162 62.6045 223.183 62.2634L227.358 61.5583C229.378 61.2172 230.741 59.2936 230.402 57.2619L229.701 53.0622C229.362 51.0304 227.449 49.6599 225.429 50.001Z" fill="#FFC9B0"/>
<path d="M222.559 63.4287C221.418 63.428 220.315 63.0198 219.445 62.2769C218.576 61.5341 217.997 60.5048 217.811 59.3725L217.108 55.1928C216.894 53.919 217.192 52.612 217.935 51.5587C218.679 50.5054 219.807 49.7919 221.073 49.5748L225.24 48.8781C225.868 48.7687 226.511 48.7852 227.132 48.9268C227.753 49.0683 228.34 49.3321 228.859 49.7029C229.378 50.0737 229.819 50.5441 230.157 51.0872C230.495 51.6302 230.722 52.2351 230.826 52.8669L231.519 57.0579C231.628 57.6859 231.611 58.3296 231.469 58.951C231.327 59.5724 231.063 60.1589 230.692 60.6759C230.325 61.196 229.86 61.6383 229.324 61.9776C228.787 62.317 228.189 62.5466 227.564 62.6534L223.397 63.3501C223.121 63.3998 222.84 63.4261 222.559 63.4287ZM226.045 51.0692C225.9 51.058 225.754 51.058 225.609 51.0692L221.442 51.777C220.765 51.8927 220.16 52.2729 219.761 52.8349C219.361 53.3969 219.198 54.095 219.308 54.777L220.046 59.0017C220.161 59.6852 220.54 60.295 221.102 60.6973C221.663 61.0996 222.36 61.2616 223.04 61.1478L227.207 60.4399C227.883 60.3244 228.487 59.9437 228.885 59.3813C229.283 58.8189 229.442 58.1208 229.329 57.4399L228.637 53.2489C228.534 52.6407 228.221 52.0884 227.753 51.6896C227.285 51.2908 226.692 51.071 226.078 51.0692H226.045Z" fill="#093F68"/>
<path d="M218.158 53.7478C217.82 52.5734 216.603 51.8956 215.438 52.2339C214.273 52.5723 213.603 53.7987 213.94 54.9731L214.721 57.6934C215.058 58.8679 216.276 59.5457 217.441 59.2073C218.605 58.869 219.276 57.6426 218.939 56.4681L218.158 53.7478Z" fill="#FFC9B0"/>
<path d="M216.828 60.3949C216.269 60.3973 215.718 60.2541 215.23 59.9791C214.463 59.5507 213.894 58.8366 213.644 57.9904L212.862 55.2713C212.661 54.8306 212.557 54.3516 212.557 53.8668C212.556 53.382 212.66 52.9029 212.861 52.4621C213.062 52.0213 213.354 51.6292 213.719 51.3126C214.085 50.996 214.513 50.7624 214.976 50.6276C215.439 50.4928 215.926 50.46 216.402 50.5315C216.879 50.603 217.335 50.7771 217.739 51.0419C218.142 51.3067 218.485 51.656 218.742 52.066C218.999 52.4759 219.166 52.9368 219.23 53.4173L220.012 56.1364C220.254 56.9869 220.153 57.899 219.733 58.6758C219.525 59.0597 219.244 59.3977 218.904 59.6699C218.564 59.9421 218.174 60.1427 217.755 60.26C217.454 60.3484 217.142 60.3938 216.828 60.3949ZM216.046 53.2488C215.949 53.2371 215.852 53.2371 215.755 53.2488C215.483 53.3348 215.254 53.5224 215.114 53.7731C214.975 54.0239 214.937 54.3187 215.007 54.5971L215.789 57.3162C215.877 57.5882 216.064 57.8163 216.313 57.954C216.562 58.0918 216.854 58.1289 217.13 58.0578C217.398 57.9696 217.622 57.7828 217.759 57.5348C217.896 57.2868 217.934 56.996 217.867 56.7207L217.085 53.9904C217.007 53.775 216.866 53.5886 216.681 53.456C216.495 53.3235 216.274 53.2512 216.046 53.2488Z" fill="#093F68"/>
<path d="M148.839 99.1702C148.543 99.1702 148.258 99.0518 148.049 98.8411C147.839 98.6304 147.722 98.3446 147.722 98.0466V85.4736C147.722 85.1756 147.839 84.8898 148.049 84.6791C148.258 84.4684 148.543 84.35 148.839 84.35C149.135 84.35 149.419 84.4684 149.629 84.6791C149.838 84.8898 149.956 85.1756 149.956 85.4736V98.0466C149.956 98.3446 149.838 98.6304 149.629 98.8411C149.419 99.0518 149.135 99.1702 148.839 99.1702Z" fill="#093F68"/>
<path d="M182.855 92.1926C182.559 92.1926 182.275 92.0742 182.066 91.8635C181.856 91.6528 181.738 91.367 181.738 91.069V82.8331C181.738 82.5351 181.856 82.2493 182.066 82.0386C182.275 81.8279 182.559 81.7095 182.855 81.7095C183.152 81.7095 183.436 81.8279 183.645 82.0386C183.855 82.2493 183.973 82.5351 183.973 82.8331V91.069C183.973 91.367 183.855 91.6528 183.645 91.8635C183.436 92.0742 183.152 92.1926 182.855 92.1926Z" fill="#093F68"/>
<path d="M165.138 65.507C163.457 65.4941 161.796 65.1344 160.259 64.4503C158.722 63.7661 157.341 62.7721 156.201 61.5295C156.031 61.297 155.957 61.0079 155.993 60.7219C156.03 60.4359 156.174 60.175 156.397 59.9932C156.619 59.8113 156.903 59.7224 157.189 59.7448C157.474 59.7673 157.741 59.8994 157.932 60.1138C158.189 60.4284 163.943 67.1924 173.908 59.9115C174.148 59.7515 174.441 59.6912 174.724 59.7432C175.008 59.7952 175.261 59.9556 175.43 60.1907C175.598 60.4258 175.67 60.7175 175.63 61.0047C175.59 61.292 175.441 61.5525 175.215 61.7318C171.305 64.6194 167.931 65.507 165.138 65.507Z" fill="#093F68"/>
<path d="M160.334 49.7321C160.038 49.7321 159.754 49.6137 159.544 49.403C159.335 49.1923 159.217 48.9065 159.217 48.6085C159.217 48.0989 159.016 47.6102 158.658 47.2499C158.299 46.8896 157.813 46.6871 157.307 46.6871C156.8 46.6871 156.314 46.8896 155.956 47.2499C155.598 47.6102 155.396 48.0989 155.396 48.6085C155.396 48.9065 155.279 49.1923 155.069 49.403C154.86 49.6137 154.576 49.7321 154.279 49.7321C153.983 49.7321 153.699 49.6137 153.489 49.403C153.28 49.1923 153.162 48.9065 153.162 48.6085C153.162 47.5029 153.599 46.4426 154.376 45.6609C155.153 44.8791 156.207 44.4399 157.307 44.4399C158.406 44.4399 159.46 44.8791 160.237 45.6609C161.015 46.4426 161.451 47.5029 161.451 48.6085C161.451 48.9065 161.334 49.1923 161.124 49.403C160.915 49.6137 160.63 49.7321 160.334 49.7321Z" fill="#093F68"/>
<path d="M177.594 49.7321C177.298 49.7321 177.014 49.6137 176.804 49.403C176.595 49.1923 176.477 48.9065 176.477 48.6085C176.477 48.0989 176.276 47.6102 175.917 47.2499C175.559 46.8896 175.073 46.6871 174.567 46.6871C174.06 46.6871 173.574 46.8896 173.216 47.2499C172.857 47.6102 172.656 48.0989 172.656 48.6085C172.656 48.9065 172.538 49.1923 172.329 49.403C172.119 49.6137 171.835 49.7321 171.539 49.7321C171.243 49.7321 170.959 49.6137 170.749 49.403C170.54 49.1923 170.422 48.9065 170.422 48.6085C170.422 47.5029 170.859 46.4426 171.636 45.6609C172.413 44.8791 173.467 44.4399 174.567 44.4399C175.666 44.4399 176.72 44.8791 177.497 45.6609C178.274 46.4426 178.711 47.5029 178.711 48.6085C178.711 48.9065 178.593 49.1923 178.384 49.403C178.174 49.6137 177.89 49.7321 177.594 49.7321Z" fill="#093F68"/>
<path d="M99.3936 41.0239C99.3936 41.0239 103.616 38.3722 104.432 36.1587C106.206 31.3358 107.618 26.3855 108.655 21.3497C108.845 20.3947 109.515 19.1026 110.42 19.5183C110.978 19.743 111.124 20.4509 111.191 21.0576C111.738 25.9453 110.9 37.6868 110.788 38.361C110.677 39.0351 107.906 47.2149 105.817 50.1138C103.68 47.0951 101.538 44.0651 99.3936 41.0239Z" fill="#FFC9B0"/>
<path d="M105.806 51.2599C105.628 51.2591 105.454 51.2159 105.297 51.1338C105.139 51.0517 105.004 50.9332 104.901 50.788L98.4772 41.6981C98.3889 41.5744 98.3265 41.4339 98.2939 41.2852C98.2612 41.1364 98.259 40.9826 98.2873 40.8329C98.3173 40.6832 98.3774 40.5413 98.4638 40.4157C98.5503 40.2901 98.6612 40.1836 98.79 40.1026C100.298 39.1475 102.879 37.1363 103.37 35.7992C105.127 31.0431 106.524 26.1603 107.548 21.1925C107.617 20.6634 107.796 20.1548 108.073 19.6999C108.35 19.2449 108.72 18.8538 109.157 18.552C109.411 18.4143 109.691 18.3338 109.978 18.3164C110.266 18.2989 110.554 18.3448 110.822 18.4509C111.263 18.6911 111.632 19.0463 111.889 19.4793C112.147 19.9123 112.283 20.4071 112.285 20.9116C112.855 26.0015 111.995 37.7655 111.883 38.5071C111.749 39.4172 108.9 47.7094 106.722 50.7543C106.622 50.9073 106.486 51.0333 106.326 51.1215C106.166 51.2096 105.988 51.2571 105.806 51.2599ZM100.957 41.3386L105.739 48.0801C107.318 44.8897 108.637 41.5754 109.682 38.17C109.783 37.4622 110.587 25.8105 110.073 21.1813C110.073 21.0352 110.073 20.9116 110.017 20.8217C109.879 21.0572 109.784 21.3161 109.738 21.5857C108.686 26.6677 107.256 31.663 105.459 36.5296C104.789 38.4172 102.365 40.3498 100.957 41.3386Z" fill="#093F68"/>
<path d="M123.345 41.0239C123.345 41.0239 119.123 38.3722 118.307 36.1587C116.528 31.3374 115.116 26.3868 114.084 21.3497C113.883 20.3947 113.224 19.1026 112.319 19.5183C111.761 19.743 111.615 20.4509 111.548 21.0576C111.001 25.9453 111.839 37.6868 111.939 38.361C112.04 39.0351 114.833 47.2149 116.911 50.1138L123.345 41.0239Z" fill="#FFC9B0"/>
<path d="M116.911 51.26C116.733 51.2592 116.559 51.2159 116.402 51.1339C116.244 51.0518 116.109 50.9333 116.006 50.7881C113.772 47.7544 110.979 39.4622 110.833 38.5521C110.733 37.8218 109.873 26.024 110.431 20.9566C110.446 20.4611 110.59 19.9781 110.849 19.5562C111.108 19.1342 111.472 18.788 111.906 18.5521C112.172 18.4455 112.458 18.3992 112.744 18.4167C113.03 18.4342 113.308 18.5149 113.559 18.6532C113.988 18.9445 114.353 19.3211 114.632 19.7598C114.911 20.1985 115.097 20.6899 115.179 21.2038C116.199 26.1729 117.596 31.0561 119.357 35.8106C119.849 37.1476 122.429 39.1813 123.938 40.1139C124.066 40.1949 124.177 40.3014 124.264 40.427C124.35 40.5526 124.41 40.6945 124.44 40.8443C124.469 40.9939 124.466 41.1477 124.434 41.2965C124.401 41.4452 124.339 41.5857 124.25 41.7094L117.827 50.7993C117.722 50.944 117.584 51.0613 117.424 51.1415C117.265 51.2216 117.089 51.2622 116.911 51.26ZM112.71 20.7993C112.71 20.8892 112.71 21.0016 112.71 21.1589C112.185 25.833 113.001 37.4398 113.101 38.1701C114.152 41.5648 115.466 44.871 117.034 48.0577L121.815 41.3162C120.419 40.3274 117.994 38.3948 117.346 36.5521C115.548 31.6797 114.121 26.6764 113.079 21.5858C112.997 21.306 112.873 21.0407 112.71 20.7993Z" fill="#093F68"/>
<path d="M38.1516 190.597L25.4385 190.361L38.9895 122.945L51.6915 123.193L38.1516 190.597Z" fill="#FFC9B0"/>
<path d="M38.14 191.721L25.4268 191.485C25.2637 191.482 25.1032 191.443 24.9565 191.371C24.8098 191.3 24.6805 191.196 24.5778 191.069C24.4744 190.94 24.4008 190.789 24.3621 190.628C24.3235 190.467 24.3208 190.299 24.3544 190.136L37.9054 122.721C37.9576 122.463 38.098 122.232 38.3021 122.068C38.5062 121.903 38.7612 121.816 39.0225 121.822L51.7245 122.058C51.8885 122.062 52.0496 122.102 52.1964 122.176C52.3431 122.25 52.4719 122.355 52.5735 122.485C52.6753 122.613 52.7481 122.761 52.7866 122.92C52.8252 123.08 52.8288 123.245 52.797 123.406L39.246 190.822C39.1941 191.077 39.0553 191.307 38.8535 191.471C38.6517 191.635 38.3994 191.723 38.14 191.721ZM26.7786 189.26L37.2127 189.462L50.3057 124.294L39.8716 124.103L26.7786 189.26Z" fill="#093F68"/>
<path d="M72.1018 190.597L59.3887 190.361L60.1818 122.945L72.895 123.193L72.1018 190.597Z" fill="#FFC9B0"/>
<path d="M72.1018 191.721L59.3886 191.485C59.0923 191.485 58.8082 191.366 58.5987 191.156C58.3892 190.945 58.2715 190.659 58.2715 190.361L59.0647 122.946C59.0653 122.797 59.0952 122.65 59.1527 122.513C59.2103 122.376 59.2942 122.252 59.3998 122.148C59.5064 122.044 59.6325 121.963 59.7706 121.909C59.9086 121.855 60.056 121.829 60.2041 121.833L72.9061 122.069C73.2024 122.069 73.4866 122.187 73.6961 122.398C73.9056 122.609 74.0233 122.895 74.0233 123.193L73.2301 190.608C73.2266 190.756 73.1942 190.901 73.1348 191.036C73.0753 191.171 72.9901 191.293 72.8838 191.395C72.6757 191.603 72.3949 191.72 72.1018 191.721ZM60.5169 189.26L70.9958 189.451L71.7555 124.283L61.2878 124.08L60.5169 189.26Z" fill="#093F68"/>
<path d="M74.7382 111.451L75.9224 160.125L29.583 159.181L38.8889 111.451H74.7382Z" fill="#093F68"/>
<path d="M75.9331 161.249L29.5937 160.305C29.4325 160.301 29.2742 160.261 29.1295 160.189C28.9849 160.118 28.8574 160.015 28.7559 159.889C28.6522 159.762 28.5774 159.614 28.5369 159.455C28.4963 159.295 28.491 159.129 28.5213 158.968L37.8271 111.237C37.8771 110.978 38.0165 110.744 38.2208 110.578C38.4252 110.411 38.6814 110.323 38.9443 110.327H74.7936C75.0899 110.327 75.3741 110.446 75.5836 110.656C75.7931 110.867 75.9108 111.153 75.9108 111.451L77.0503 160.125C77.0541 160.277 77.0274 160.428 76.9717 160.569C76.916 160.71 76.8326 160.838 76.7263 160.945C76.5119 161.147 76.2269 161.256 75.9331 161.249ZM30.9455 158.08L74.816 159.002L73.6988 112.597H39.8492L30.9455 158.08Z" fill="#093F68"/>
<path d="M48.6418 15.9006C48.6418 15.9006 42.7991 16.6983 42.1399 17.0242C40.642 17.6247 39.312 18.583 38.2649 19.8163C37.2177 21.0496 36.4848 22.5208 36.1297 24.1028L28.6448 55.1927C27.6329 58.5786 27.1838 62.1092 27.3154 65.6422C28.1085 74.1815 35.8727 80.8444 44.2067 82.6534C52.5406 84.4624 61.232 82.35 69.1973 79.2826C74.1798 77.395 79.4974 74.7882 82.6031 70.2152C86.3679 64.5972 83.6197 59.8107 83.8543 53.6534C84.2006 44.2714 84.0554 31.1815 79.2293 22.6084C72.8727 11.4624 55.9591 6.33878 48.6418 15.9006Z" fill="#725858"/>
<path d="M50.6519 84.4398C48.3994 84.4475 46.1524 84.214 43.949 83.7432C35.7826 81.9679 27.0689 75.2038 26.1863 65.7656C25.84 62.0353 26.7449 58.2713 27.5381 54.9566L35.023 23.8668C35.4132 22.1166 36.2185 20.4873 37.37 19.1178C38.5216 17.7483 39.9854 16.6792 41.6365 16.0016C41.6365 16.0016 45.9711 15.0578 48.0154 14.878C50.9982 11.2488 55.5227 9.45102 60.818 9.83304C64.7738 10.1983 68.5874 11.5006 71.9466 13.6332C75.3058 15.7658 78.1151 18.6682 80.1447 22.1027C85.1383 30.9229 85.25 44.3836 84.9037 53.7432C84.8837 55.5599 85.0145 57.3752 85.2947 59.1701C85.7639 62.9005 86.2555 66.7544 83.4738 70.8892C80.1223 75.8892 74.2796 78.5859 69.5764 80.3836C62.382 83.0915 56.2041 84.4398 50.6519 84.4398ZM48.6969 17.0241C48.0713 17.0915 43.234 17.7993 42.5861 18.0353C41.2468 18.5712 40.0575 19.4274 39.1212 20.5296C38.185 21.6318 37.5298 22.947 37.2126 24.3611L29.7277 55.451C28.9345 58.7544 28.119 62.1926 28.4318 65.5634C29.2138 73.9566 37.0785 79.9791 44.4406 81.5746C51.2663 83.069 58.9635 82.0128 68.8056 78.2825C73.196 76.6083 78.6365 74.1139 81.6528 69.6308C83.9542 66.2038 83.5632 63.069 83.094 59.451C82.7993 57.537 82.6685 55.601 82.7029 53.6645C83.0381 44.5746 82.9375 31.5409 78.2343 23.2151C76.3951 20.0959 73.8462 17.4602 70.7972 15.5246C67.7481 13.5889 64.2859 12.4084 60.6951 12.0802C55.9919 11.7432 52.026 13.3611 49.5236 16.5746C49.4265 16.7054 49.3023 16.8134 49.1595 16.891C49.0168 16.9686 48.8589 17.014 48.6969 17.0241Z" fill="#093F68"/>
<path d="M42.8662 72.9004L41.749 73.8779C42.1 73.5281 42.4731 73.2016 42.8662 72.9004Z" fill="#E9F5E9"/>
<path d="M41.7489 75.0015C41.5256 75.0029 41.3071 74.9369 41.1214 74.8121C40.9358 74.6874 40.7916 74.5095 40.7074 74.3015C40.6232 74.0935 40.603 73.8649 40.6492 73.6452C40.6955 73.4255 40.8061 73.2248 40.9669 73.0689C41.3554 72.6717 41.7657 72.2966 42.1958 71.9453C42.4248 71.7792 42.7079 71.7066 42.9881 71.7419C43.2683 71.7772 43.5248 71.918 43.7059 72.1358C43.8871 72.3536 43.9796 72.6324 43.9647 72.916C43.9498 73.1996 43.8287 73.467 43.6257 73.6644C43.4358 73.8442 43.0225 74.2038 42.5086 74.6869C42.3043 74.885 42.0327 74.9975 41.7489 75.0015Z" fill="#093F68"/>
<path d="M105.817 50.1363C97.2931 62.1363 87.0377 69.2374 74.749 84.9678V111.496H38.8885L38.006 92.3947C38.006 92.3947 19.1261 97.1363 14.7246 97.1363C5.11706 97.1363 3.79883 68.406 3.79883 68.406L13.1717 66.6532C13.1717 66.6532 16.188 78.2374 17.9643 80.406C17.9643 80.406 42.6756 73.1588 42.8655 72.9902C43.0555 72.8217 47.5241 70.406 50.1829 70.406H62.1811C63.9685 70.406 99.3822 41.1925 99.3822 41.1925L105.817 50.1363Z" fill="#E9F5E9"/>
<path d="M74.7491 112.575H38.8886C38.5923 112.575 38.3082 112.456 38.0987 112.246C37.8892 112.035 37.7715 111.749 37.7715 111.451L36.9448 93.6646C32.532 94.7882 18.5677 98.1589 14.7247 98.1589C4.35751 98.1589 2.81585 71.4061 2.68179 68.3499C2.67747 68.0839 2.76718 67.8249 2.93494 67.6192C3.10269 67.4134 3.3376 67.2742 3.59785 67.2263L12.9707 65.4848C13.2483 65.4329 13.5351 65.4887 13.7734 65.6409C14.0118 65.793 14.184 66.0303 14.2555 66.305C15.2832 70.2601 17.2159 76.732 18.4448 79.0241C27.9405 76.2376 41.6145 72.2039 42.4188 71.8893C43.5359 71.2263 47.5242 69.2039 50.183 69.2039H62.0248C64.5495 68.0803 85.7419 50.878 98.6673 40.1926C98.786 40.094 98.9237 40.0212 99.0717 39.9787C99.2197 39.9361 99.3749 39.9248 99.5275 39.9454C99.6798 39.9618 99.8268 40.0116 99.9581 40.0912C100.089 40.1707 100.202 40.2782 100.287 40.4061L106.722 49.496C106.857 49.6863 106.929 49.9141 106.929 50.1477C106.929 50.3813 106.857 50.6091 106.722 50.7994C102.366 56.6421 97.5382 62.1138 92.2884 67.1589C86.4669 72.888 80.9835 78.9545 75.8663 85.3275V111.462C75.8633 111.758 75.7443 112.041 75.5351 112.25C75.3259 112.458 75.0435 112.575 74.7491 112.575ZM39.9611 110.327H73.632V84.923C73.6327 84.6747 73.7152 84.4337 73.8666 84.2376C79.104 77.6816 84.7258 71.4457 90.702 65.5634C95.6739 60.7839 100.268 55.6223 104.443 50.1252L99.17 42.6758C76.0562 61.7769 63.6111 71.4398 62.1812 71.4398H50.2388C48.0604 71.4398 43.994 73.5634 43.5359 73.8443C43.0332 74.1027 40.2404 74.9679 18.3442 81.3949C18.1422 81.4437 17.9305 81.4349 17.7332 81.3694C17.5358 81.3039 17.3606 81.1843 17.2271 81.0241C15.6072 79.0578 13.2947 70.9117 12.4904 67.8668L5.09483 69.2376C5.39352 73.685 5.9907 78.1071 6.88227 82.4735C8.73674 91.1477 11.5631 95.9567 14.8475 95.9567C19.0592 95.9567 37.6709 91.2938 37.8497 91.2488C38.0096 91.2071 38.1767 91.2016 38.3389 91.2327C38.5012 91.2638 38.6546 91.3307 38.7881 91.4286C38.923 91.5275 39.0342 91.6555 39.1134 91.8033C39.1927 91.9511 39.238 92.1148 39.2461 92.2825L39.9611 110.327Z" fill="#093F68"/>
<path d="M55.166 71.6646L58.5175 97.0466L62.0477 71.6646H55.166Z" fill="#F56132"/>
<path d="M58.5171 98.0577C58.274 98.0571 58.0394 97.9681 57.8566 97.807C57.6738 97.6458 57.5552 97.4236 57.5228 97.1813L54.1714 71.7993C54.1497 71.6571 54.1595 71.5119 54.2001 71.374C54.2406 71.2362 54.3109 71.109 54.406 71.0015C54.4999 70.8915 54.6165 70.8034 54.7477 70.7433C54.8789 70.6831 55.0215 70.6524 55.1656 70.6532H62.0473C62.1883 70.6539 62.3276 70.6844 62.4562 70.7428C62.5847 70.8012 62.6996 70.8862 62.7934 70.9921C62.8871 71.0981 62.9577 71.2227 63.0004 71.3579C63.0432 71.4931 63.0572 71.6358 63.0415 71.7768L59.5113 97.2038C59.474 97.4419 59.3534 97.6589 59.1711 97.8155C58.9887 97.972 58.7568 98.0579 58.5171 98.0577ZM56.2828 72.6757L58.5171 89.5296L60.8631 72.6757H56.2828Z" fill="#093F68"/>
<path d="M55.0981 69.2712H62.1026V73.3274C62.1026 74.1201 61.7895 74.8803 61.2322 75.4408C60.675 76.0013 59.9191 76.3162 59.131 76.3162H58.0585C57.2704 76.3162 56.5146 76.0013 55.9573 75.4408C55.4 74.8803 55.0869 74.1201 55.0869 73.3274V69.2712H55.0981Z" fill="#FFC9B0"/>
<path d="M59.1761 77.4397H58.0589C56.9735 77.4397 55.9323 77.0068 55.1638 76.2359C54.3952 75.465 53.9619 74.4191 53.959 73.3274V69.2712C53.959 68.9732 54.0767 68.6874 54.2862 68.4767C54.4957 68.266 54.7798 68.1476 55.0761 68.1476H62.0918C62.3881 68.1476 62.6723 68.266 62.8818 68.4767C63.0913 68.6874 63.209 68.9732 63.209 69.2712V73.3274C63.2062 74.4075 62.7822 75.4434 62.028 76.2124C61.2739 76.9814 60.2499 77.4221 59.1761 77.4397ZM56.2603 70.3948V73.3274C56.2603 73.5733 56.3086 73.8167 56.4025 74.0437C56.4964 74.2708 56.634 74.4769 56.8074 74.6502C56.9808 74.8236 57.1866 74.9607 57.4129 75.0538C57.6391 75.1469 57.8815 75.194 58.126 75.1925H59.1761C59.4205 75.194 59.6629 75.1469 59.8892 75.0538C60.1155 74.9607 60.3212 74.8236 60.4946 74.6502C60.668 74.4769 60.8056 74.2708 60.8995 74.0437C60.9934 73.8167 61.0417 73.5733 61.0417 73.3274V70.3948H56.2603Z" fill="#093F68"/>
<path d="M38.5763 56.8554C42.3399 56.8554 45.3909 54.2143 45.3909 50.9565C45.3909 47.6986 42.3399 45.0576 38.5763 45.0576C34.8127 45.0576 31.7617 47.6986 31.7617 50.9565C31.7617 54.2143 34.8127 56.8554 38.5763 56.8554Z" fill="#FFC9B0"/>
<path d="M38.5763 57.979C34.2082 57.979 30.6445 54.833 30.6445 50.9566C30.6445 47.0801 34.2082 43.9341 38.5763 43.9341C42.9443 43.9341 46.5081 47.0801 46.5081 50.9566C46.5081 54.833 42.9443 57.979 38.5763 57.979ZM38.5763 46.1813C35.4371 46.1813 32.8788 48.3161 32.8788 50.9566C32.8788 53.597 35.4371 55.7318 38.5763 55.7318C41.7155 55.7318 44.2738 53.5858 44.2738 50.9566C44.2738 48.3273 41.7155 46.1813 38.5763 46.1813Z" fill="#093F68"/>
<path d="M78.2795 56.8554C82.0431 56.8554 85.0941 54.2143 85.0941 50.9565C85.0941 47.6986 82.0431 45.0576 78.2795 45.0576C74.5159 45.0576 71.4648 47.6986 71.4648 50.9565C71.4648 54.2143 74.5159 56.8554 78.2795 56.8554Z" fill="#FFC9B0"/>
<path d="M78.2794 57.979C73.9114 57.979 70.3477 54.833 70.3477 50.9566C70.3477 47.0801 73.9114 43.9341 78.2794 43.9341C82.6475 43.9341 86.2 47.0801 86.2 50.9566C86.2 54.833 82.6363 57.979 78.2794 57.979ZM78.2794 46.1813C75.1402 46.1813 72.582 48.3161 72.582 50.9566C72.582 53.597 75.1402 55.7318 78.2794 55.7318C81.4186 55.7318 83.9657 53.5858 83.9657 50.9566C83.9657 48.3273 81.4186 46.1813 78.2794 46.1813Z" fill="#093F68"/>
<path d="M71.0963 33.451L64.4493 24.8555C64.4493 24.8555 62.9635 30.1476 62.0362 33.4173H51.5686L49.122 25.7206L46.2174 33.3723H38.0957V49.5521C38.0913 52.2651 38.6184 54.9523 39.647 57.4603C40.6755 59.9683 42.1853 62.2479 44.09 64.1689C45.9948 66.0899 48.2572 67.6145 50.748 68.6558C53.2388 69.6971 55.9092 70.2345 58.6066 70.2375C64.0553 70.2375 69.2809 68.0605 73.1337 64.1855C76.9865 60.3104 79.151 55.0547 79.151 49.5746V33.4734L71.0963 33.451Z" fill="#FFC9B0"/>
<path d="M58.6064 71.3611C52.8652 71.3521 47.3618 69.0536 43.3032 64.9694C39.2445 60.8853 36.962 55.3489 36.9561 49.5745V33.3498C36.9552 33.202 36.9834 33.0554 37.039 32.9185C37.0946 32.7816 37.1765 32.6571 37.28 32.5521C37.3844 32.4479 37.5082 32.3656 37.6443 32.3096C37.7804 32.2537 37.9262 32.2254 38.0732 32.2262H45.4241L48.0047 25.2937C48.0901 25.0695 48.2446 24.8787 48.4457 24.7493C48.6467 24.6199 48.8837 24.5587 49.1218 24.5746C49.3536 24.5794 49.5781 24.6566 49.7642 24.7955C49.9504 24.9345 50.089 25.1282 50.1608 25.3498L52.3951 32.2487H61.2094C62.1255 28.979 63.3878 24.5071 63.3878 24.5071C63.4439 24.3072 63.5539 24.1268 63.7058 23.9859C63.8576 23.8451 64.0453 23.7494 64.248 23.7094C64.4543 23.6656 64.6686 23.6814 64.8663 23.755C65.064 23.8286 65.2369 23.9569 65.3652 24.1251L71.6771 32.2824H79.1843C79.4806 32.2824 79.7648 32.4008 79.9743 32.6115C80.1838 32.8222 80.3015 33.108 80.3015 33.406V49.4622C80.3133 52.3347 79.7607 55.1812 78.6756 57.8383C77.5904 60.4954 75.994 62.9108 73.9782 64.9456C71.9623 66.9804 69.5666 68.5947 66.9286 69.6956C64.2907 70.7966 61.4625 71.3626 58.6064 71.3611ZM39.1904 34.4734V49.5296C39.1283 52.1342 39.5847 54.725 40.5328 57.1496C41.4809 59.5742 42.9016 61.7836 44.7112 63.6479C46.5208 65.5121 48.6828 66.9935 51.0701 68.005C53.4573 69.0164 56.0216 69.5374 58.612 69.5374C61.2024 69.5374 63.7667 69.0164 66.154 68.005C68.5412 66.9935 70.7033 65.5121 72.5129 63.6479C74.3225 61.7836 75.7431 59.5742 76.6912 57.1496C77.6393 54.725 78.0958 52.1342 78.0337 49.5296V34.597H71.0962C70.9256 34.5966 70.7573 34.5569 70.6043 34.4809C70.4513 34.405 70.3177 34.2948 70.2136 34.1588L64.9295 27.3161C64.4044 29.1588 63.656 31.8105 63.1197 33.7543C63.0501 33.9953 62.9022 34.2058 62.6997 34.3524C62.4973 34.4991 62.2519 34.5733 62.0026 34.5633H51.5237C51.2886 34.56 51.0606 34.4822 50.8721 34.341C50.6835 34.1998 50.5441 34.0024 50.4736 33.7768L48.9766 29.1476L47.2003 33.8217C47.1193 34.0329 46.9768 34.2145 46.7914 34.3428C46.606 34.4712 46.3864 34.5402 46.1614 34.5408L39.1904 34.4734Z" fill="#093F68"/>
<path d="M49.0993 48.4399C50.1482 48.4399 50.9985 47.5847 50.9985 46.5297C50.9985 45.4748 50.1482 44.6196 49.0993 44.6196C48.0505 44.6196 47.2002 45.4748 47.2002 46.5297C47.2002 47.5847 48.0505 48.4399 49.0993 48.4399Z" fill="#093F68"/>
<path d="M68.7165 48.4399C69.7654 48.4399 70.6157 47.5847 70.6157 46.5297C70.6157 45.4748 69.7654 44.6196 68.7165 44.6196C67.6677 44.6196 66.8174 45.4748 66.8174 46.5297C66.8174 47.5847 67.6677 48.4399 68.7165 48.4399Z" fill="#093F68"/>
<path d="M58.5055 54.0801C57.8545 54.0771 57.2048 54.0245 56.5617 53.9228C56.2654 53.8707 56.0018 53.7023 55.829 53.4547C55.6561 53.2071 55.5882 52.9006 55.64 52.6026C55.6919 52.3046 55.8593 52.0395 56.1055 51.8657C56.3516 51.6918 56.6564 51.6235 56.9527 51.6756C57.6907 51.7992 58.4409 51.8332 59.187 51.7767C58.8365 50.4425 58.3263 49.1559 57.6676 47.9453C57.5299 47.6801 57.5025 47.3707 57.5915 47.0852C57.6806 46.7996 57.8787 46.5614 58.1424 46.4228C58.4061 46.2843 58.7138 46.2567 58.9976 46.3463C59.2815 46.4358 59.5184 46.6351 59.6562 46.9004C60.7733 48.9565 61.8905 51.6756 61.2761 52.9902C61.1829 53.2077 61.0404 53.4003 60.86 53.5525C60.6796 53.7047 60.4663 53.8123 60.2371 53.8666C59.6709 54.0095 59.0893 54.0812 58.5055 54.0801Z" fill="#093F68"/>
<path d="M52.9868 41.7657H43.9267C43.4556 41.7657 43.0038 41.5774 42.6706 41.2424C42.3375 40.9074 42.1504 40.453 42.1504 39.9791C42.1504 39.5053 42.3375 39.0509 42.6706 38.7159C43.0038 38.3808 43.4556 38.1926 43.9267 38.1926H52.9979C53.469 38.1926 53.9208 38.3808 54.2539 38.7159C54.587 39.0509 54.7742 39.5053 54.7742 39.9791C54.7742 40.453 54.587 40.9074 54.2539 41.2424C53.9208 41.5774 53.469 41.7657 52.9979 41.7657H52.9868Z" fill="#093F68"/>
<path d="M65.8791 41.9903C65.408 42.0022 64.9515 41.8254 64.61 41.4988C64.2685 41.1722 64.07 40.7225 64.0582 40.2487C64.0463 39.7749 64.2221 39.3157 64.5468 38.9723C64.8716 38.6288 65.3187 38.4292 65.7898 38.4172L74.8499 37.9566C75.0908 37.9294 75.3347 37.9521 75.5665 38.0233C75.7984 38.0945 76.0133 38.2127 76.198 38.3706C76.3828 38.5284 76.5334 38.7227 76.6407 38.9413C76.748 39.16 76.8096 39.3984 76.8218 39.6419C76.8341 39.8854 76.7966 40.1289 76.7117 40.3573C76.6269 40.5856 76.4965 40.7942 76.3285 40.97C76.1605 41.1457 75.9585 41.2851 75.7349 41.3794C75.5114 41.4737 75.271 41.521 75.0286 41.5184L65.9685 41.9903H65.8791Z" fill="#093F68"/>
<path d="M60.818 58.5634L55.0982 57.7769C55.0982 57.7769 54.2492 65.1813 57.0197 65.2038C59.1758 65.2151 60.036 62.9791 60.818 58.5634Z" fill="#093F68"/>
<path d="M74.7382 95.9453C74.442 95.9453 74.1578 95.8269 73.9483 95.6162C73.7388 95.4055 73.6211 95.1197 73.6211 94.8217V84.9228C73.6211 84.6248 73.7388 84.339 73.9483 84.1283C74.1578 83.9176 74.442 83.7992 74.7382 83.7992C75.0345 83.7992 75.3187 83.9176 75.5282 84.1283C75.7377 84.339 75.8554 84.6248 75.8554 84.9228V94.8217C75.8554 95.1197 75.7377 95.4055 75.5282 95.6162C75.3187 95.8269 75.0345 95.9453 74.7382 95.9453Z" fill="#093F68"/>
<path d="M38.0058 93.4286C37.7095 93.4286 37.4254 93.3103 37.2159 93.0996C37.0064 92.8888 36.8887 92.603 36.8887 92.3051V85.968C36.8887 85.67 37.0064 85.3842 37.2159 85.1735C37.4254 84.9627 37.7095 84.8444 38.0058 84.8444C38.3021 84.8444 38.5863 84.9627 38.7958 85.1735C39.0053 85.3842 39.123 85.67 39.123 85.968V92.3051C39.123 92.603 39.0053 92.8888 38.7958 93.0996C38.5863 93.3103 38.3021 93.4286 38.0058 93.4286Z" fill="#093F68"/>
<path d="M38.1511 190.597V199.26H15.8975L25.4379 190.361L38.1511 190.597Z" fill="#093F68"/>
<path d="M38.1399 200.384H15.8975C15.6737 200.383 15.4554 200.314 15.2707 200.187C15.086 200.06 14.9435 199.88 14.8616 199.671C14.7798 199.462 14.7623 199.232 14.8116 199.013C14.8608 198.793 14.9745 198.594 15.1378 198.44L24.6783 189.541C24.8965 189.352 25.1727 189.245 25.4603 189.238L38.1623 189.473C38.4586 189.473 38.7427 189.592 38.9522 189.803C39.1617 190.013 39.2794 190.299 39.2794 190.597V199.26C39.2795 199.409 39.2498 199.557 39.1923 199.695C39.1348 199.833 39.0505 199.958 38.9444 200.063C38.8383 200.167 38.7124 200.249 38.5743 200.305C38.4362 200.36 38.2885 200.387 38.1399 200.384ZM18.7462 198.136H37.0228V191.698L25.8513 191.496L18.7462 198.136Z" fill="#093F68"/>
<path d="M59.3887 190.597V199.26H81.6311L72.1018 190.361L59.3887 190.597Z" fill="#093F68"/>
<path d="M81.6311 200.384H59.3886C59.0923 200.384 58.8082 200.265 58.5987 200.055C58.3892 199.844 58.2715 199.558 58.2715 199.26V190.597C58.2715 190.299 58.3892 190.013 58.5987 189.803C58.8082 189.592 59.0923 189.473 59.3886 189.473L72.1018 189.238C72.3903 189.24 72.6681 189.348 72.8838 189.541L82.4131 198.44C82.5764 198.594 82.6901 198.793 82.7393 199.013C82.7886 199.232 82.7711 199.462 82.6893 199.671C82.6074 199.881 82.4649 200.06 82.2802 200.187C82.0956 200.314 81.8772 200.383 81.6534 200.384H81.6311ZM60.5058 198.136H78.7823L71.6661 191.496L60.4946 191.698L60.5058 198.136Z" fill="#093F68"/>
<path d="M13.1714 66.5634L11.8755 61.0578C11.8755 61.0578 14.2997 55.8219 12.5234 55.114C10.7471 54.4061 5.18374 51.8893 2.14509 55.5522C-0.893558 59.2151 3.79847 68.3162 3.79847 68.3162L13.1714 66.5634Z" fill="#FFC9B0"/>
<path d="M3.79901 69.4398C3.59387 69.4403 3.39257 69.3839 3.21719 69.2769C3.04181 69.1698 2.89911 69.0163 2.80475 68.8331C2.29086 67.8331 -2.13306 58.9567 1.28542 54.8331C4.7039 50.7095 10.4237 53.0691 12.6021 53.9342L12.9261 54.0691C13.1775 54.1719 13.4058 54.3243 13.5976 54.5173C13.7895 54.7102 13.941 54.9399 14.0433 55.1927C14.7024 56.8556 13.5741 59.8106 13.0043 61.114L14.222 66.2488C14.2579 66.3982 14.2629 66.5533 14.2369 66.7047C14.2108 66.8561 14.1541 67.0004 14.0703 67.1289C13.9866 67.2574 13.8775 67.3672 13.7499 67.4516C13.6222 67.536 13.4788 67.5932 13.3283 67.6196L3.95541 69.3612L3.79901 69.4398ZM6.60306 54.7432C5.92572 54.7057 5.2488 54.8239 4.62361 55.0886C3.99841 55.3534 3.44135 55.7578 2.99466 56.2713C1.10668 58.5185 3.18457 64.35 4.42461 67.0578L11.8201 65.6758L10.7812 61.3162C10.7252 61.0709 10.7527 60.8137 10.8594 60.5859C11.6749 58.8106 12.2223 56.7095 11.9765 56.0915L11.7084 55.9904C10.0954 55.2683 8.36572 54.8458 6.60306 54.7432Z" fill="#093F68"/>
<path d="M7.42945 56.3274C6.52224 56.4521 5.65091 56.7659 4.87117 57.2487C4.51063 57.4622 4.19857 57.7493 3.95511 58.0914C3.83274 58.2632 3.75186 58.4613 3.71889 58.67C3.68593 58.8787 3.70178 59.0922 3.7652 59.2937C4.03331 60.0128 4.94938 60.2263 5.70904 60.1926C6.45293 60.1696 7.18681 60.0137 7.87631 59.7319C7.83375 60.3886 8.04082 61.0371 8.45563 61.5461C8.87044 62.055 9.462 62.3865 10.1106 62.4735" fill="#FFC9B0"/>
<path d="M10.1332 63.5971H10.0214C9.06737 63.4961 8.19182 63.0194 7.58606 62.2712C7.31839 61.9333 7.10711 61.5538 6.96046 61.1476C6.55928 61.2302 6.15198 61.279 5.74276 61.2937C5.12829 61.3845 4.50109 61.274 3.95388 60.9786C3.40667 60.6832 2.96848 60.2185 2.70411 59.6533C2.57246 59.2817 2.53115 58.8838 2.58362 58.4928C2.63609 58.1019 2.78083 57.7293 3.00575 57.4061C3.34713 56.9458 3.78106 56.5629 4.2793 56.2825C5.18829 55.7017 6.20819 55.319 7.27326 55.1589C7.56955 55.1186 7.86958 55.1984 8.10737 55.3807C8.34516 55.563 8.50123 55.8328 8.54123 56.1308C8.58122 56.4288 8.50189 56.7306 8.32066 56.9697C8.13944 57.2089 7.87117 57.3658 7.57489 57.4061C6.82255 57.5108 6.09989 57.771 5.45231 58.1701C5.23078 58.2986 5.03401 58.466 4.87138 58.6645C4.8338 58.7299 4.81093 58.8027 4.80436 58.878C5.0645 59.0171 5.36102 59.0721 5.65339 59.0353C6.27076 59.0167 6.87988 58.8874 7.452 58.6533C7.63534 58.5774 7.83545 58.552 8.03177 58.5797C8.22809 58.6073 8.41356 58.687 8.56915 58.8106C8.72202 58.9273 8.84242 59.0816 8.91873 59.2588C8.99505 59.4359 9.0247 59.6298 9.00484 59.8218C8.994 60.0015 9.01906 60.1816 9.07854 60.3514C9.13802 60.5212 9.23072 60.6774 9.35116 60.8106C9.57262 61.0912 9.89233 61.2761 10.2449 61.3274C10.5412 61.3393 10.8206 61.4691 11.0217 61.6883C11.2229 61.9074 11.3292 62.198 11.3173 62.496C11.3055 62.794 11.1764 63.075 10.9585 63.2773C10.7406 63.4796 10.4518 63.5865 10.1555 63.5746L10.1332 63.5971Z" fill="#093F68"/>
<path d="M210.203 200.383H3.08395C2.78766 200.383 2.50351 200.265 2.294 200.054C2.0845 199.844 1.9668 199.558 1.9668 199.26C1.9668 198.962 2.0845 198.676 2.294 198.465C2.50351 198.255 2.78766 198.136 3.08395 198.136H210.203C210.5 198.136 210.784 198.255 210.993 198.465C211.203 198.676 211.321 198.962 211.321 199.26C211.321 199.558 211.203 199.844 210.993 200.054C210.784 200.265 210.5 200.383 210.203 200.383Z" fill="#093F68"/>
<path d="M91.9977 30.5859C91.7649 30.5843 91.5384 30.5097 91.3498 30.3724C91.1107 30.1988 90.9495 29.9373 90.9014 29.6447C90.8533 29.3522 90.9221 29.0523 91.0928 28.8106C92.0089 27.5184 91.7743 25.4398 90.3778 22.6757C87.8046 17.5351 84.4585 12.8243 80.4576 8.70945C80.2635 8.515 80.1473 8.25563 80.1309 7.98063C80.1145 7.70563 80.1992 7.43416 80.3688 7.21783C80.5384 7.00149 80.7811 6.85536 81.0508 6.8072C81.3205 6.75905 81.5984 6.81223 81.8317 6.95664L90.6348 12.26C91.9017 13.1825 93.3751 13.7768 94.9246 13.9904C96.4216 13.9904 98.0415 13.2375 99.8848 11.5746C103.04 8.7228 105.41 5.10044 106.766 1.05777C106.846 0.815244 107.006 0.607391 107.219 0.468492C107.433 0.329594 107.687 0.267947 107.939 0.293723C108.192 0.320163 108.429 0.432549 108.609 0.612319C108.79 0.792089 108.905 1.02849 108.934 1.28249C109.084 3.6876 109.635 6.05016 110.565 8.27125C110.992 9.26239 111.653 10.1342 112.49 10.8114C113.326 11.4887 114.314 11.9511 115.368 12.1589C116.526 12.2036 117.682 12.0282 118.776 11.642C125.947 9.52714 132.477 5.63692 137.767 0.32743C137.953 0.141185 138.198 0.0267272 138.46 0.00412784C138.721 -0.0184716 138.982 0.0522296 139.197 0.203834C139.411 0.355707 139.566 0.578464 139.633 0.833152C139.7 1.08784 139.677 1.35825 139.566 1.59709C136.214 8.82181 132.461 17.0128 132.226 25.451C132.226 25.749 132.109 26.0348 131.899 26.2455C131.69 26.4562 131.405 26.5746 131.109 26.5746C130.813 26.5746 130.529 26.4562 130.319 26.2455C130.11 26.0348 129.992 25.749 129.992 25.451C130.182 18.4398 132.64 11.7319 135.343 5.57462C130.601 9.34455 125.181 12.1599 119.379 13.8668C118.013 14.3435 116.566 14.5421 115.123 14.451C113.688 14.2166 112.335 13.6265 111.184 12.7339C110.033 11.8413 109.121 10.6744 108.532 9.33867C107.963 8.13606 107.543 6.86827 107.28 5.56338C105.787 8.49153 103.773 11.1193 101.337 13.3162C99.1028 15.3836 96.8685 16.3611 94.8241 16.2937C92.8891 16.0907 91.0387 15.3903 89.4506 14.26L86.6577 12.4847C88.8398 15.362 90.7544 18.4349 92.3775 21.6645C94.165 25.2488 94.3437 28.0915 92.9026 30.1139C92.7998 30.2592 92.6641 30.3777 92.5068 30.4597C92.3494 30.5418 92.175 30.585 91.9977 30.5859Z" fill="#E9F5E9"/>
<path d="M109.169 93.2488C109.098 93.2598 109.027 93.2598 108.956 93.2488C108.698 93.1986 108.466 93.0584 108.3 92.8529C108.135 92.6474 108.047 92.3897 108.051 92.1252C108.219 88.4416 107.405 84.7799 105.694 81.5185C104.968 80.1365 103.46 77.7769 101.226 77.5185C100.124 77.4856 99.0283 77.7006 98.0195 78.1477C94.6342 79.3909 91.4294 81.0838 88.4902 83.1814C88.2739 83.3422 88.0072 83.4191 87.7391 83.398C87.4709 83.377 87.2194 83.2593 87.0306 83.0667C86.8418 82.874 86.7284 82.6194 86.7113 82.3494C86.6941 82.0795 86.7744 81.8124 86.9374 81.5971C89.1469 78.5267 90.3213 74.8255 90.2888 71.0353C90.2888 70.7373 90.4065 70.4516 90.616 70.2408C90.8255 70.0301 91.1097 69.9117 91.406 69.9117C91.7022 69.9117 91.9864 70.0301 92.1959 70.2408C92.4054 70.4516 92.5231 70.7373 92.5231 71.0353C92.5367 73.7365 92.0046 76.4124 90.9591 78.9005C92.9675 77.7668 95.0633 76.7974 97.2263 76.0016C98.5568 75.4246 100.003 75.1669 101.449 75.2488C104.521 75.5971 106.532 78.2601 107.672 80.4398C108.75 82.5171 109.504 84.7494 109.906 87.0578C110.651 85.2825 111.489 83.5447 112.42 81.8443C112.861 80.846 113.573 79.9931 114.475 79.3837C115.303 78.9638 116.218 78.7482 117.145 78.7544C119.526 78.4826 121.934 78.585 124.284 79.0578C125.593 79.3811 126.823 79.9657 127.903 80.7769C127.829 78.082 127.956 75.3853 128.283 72.7095C128.319 72.4148 128.47 72.1466 128.703 71.9634C128.935 71.7803 129.23 71.6971 129.523 71.732C129.816 71.7685 130.083 71.9202 130.265 72.1539C130.447 72.3876 130.53 72.6843 130.495 72.9792C130.048 76.6669 129.992 80.3919 130.327 84.0915C130.343 84.3538 130.267 84.6132 130.112 84.8247C129.957 85.0362 129.733 85.1864 129.479 85.2492C129.226 85.312 128.958 85.2833 128.723 85.1683C128.488 85.0533 128.301 84.8592 128.194 84.6196C127.751 83.7542 127.119 83.0011 126.345 82.4171C125.571 81.8332 124.675 81.4337 123.725 81.2488C121.601 80.8396 119.428 80.7562 117.279 81.0016C116.696 80.998 116.119 81.1127 115.581 81.3387C115.051 81.754 114.635 82.2996 114.375 82.923C112.731 86.0082 111.327 89.2163 110.174 92.5185C110.097 92.7265 109.96 92.9069 109.781 93.0369C109.602 93.1669 109.389 93.2406 109.169 93.2488Z" fill="#E9F5E9"/>
</svg>
