<svg width="384" height="372" viewBox="0 0 384 372" fill="none" xmlns="http://www.w3.org/2000/svg">
<path d="M350.337 371.628V334.322C350.337 334.322 364.848 360.771 350.337 371.628Z" fill="#F1F1F1"/>
<path d="M351.233 371.621L323.803 346.393C323.803 346.393 353.064 353.569 351.233 371.621Z" fill="#F1F1F1"/>
<path d="M254.484 164.608L108.921 249.842C108.412 250.14 107.805 250.223 107.235 250.073C106.665 249.923 106.177 249.553 105.879 249.043L12.2726 88.5875C11.9756 88.0771 11.8928 87.4695 12.0424 86.898C12.192 86.3265 12.5617 85.8378 13.0705 85.5391L158.633 0.304551C159.142 0.00701309 159.749 -0.0759145 160.319 0.0739609C160.89 0.223836 161.377 0.594276 161.676 1.10401L255.282 161.559C255.579 162.07 255.661 162.677 255.512 163.249C255.362 163.82 254.992 164.309 254.484 164.608Z" fill="white"/>
<path d="M254.484 164.608L108.921 249.842C108.412 250.14 107.805 250.223 107.235 250.073C106.665 249.923 106.177 249.553 105.879 249.043L12.2726 88.5875C11.9756 88.0771 11.8928 87.4695 12.0424 86.898C12.192 86.3265 12.5617 85.8378 13.0705 85.5391L158.633 0.304551C159.142 0.00701309 159.749 -0.0759145 160.319 0.0739609C160.89 0.223836 161.377 0.594276 161.676 1.10401L255.282 161.559C255.579 162.07 255.661 162.677 255.512 163.249C255.362 163.82 254.992 164.309 254.484 164.608ZM13.5195 86.3087C13.2142 86.4879 12.9923 86.7811 12.9026 87.124C12.8128 87.4669 12.8625 87.8315 13.0407 88.1377L106.647 248.593C106.826 248.899 107.118 249.121 107.461 249.211C107.803 249.301 108.167 249.251 108.472 249.073L254.035 163.838C254.34 163.659 254.562 163.366 254.652 163.023C254.741 162.68 254.692 162.315 254.514 162.009L160.907 1.55377C160.729 1.24792 160.436 1.02564 160.094 0.935714C159.751 0.845787 159.388 0.895553 159.082 1.07409L13.5195 86.3087Z" fill="#3F3D56"/>
<path d="M107.087 102.288L70.9849 123.428C70.4755 123.726 69.869 123.808 69.2986 123.659C68.7282 123.509 68.2404 123.138 67.9422 122.629L46.8416 86.4587C46.5446 85.9483 46.4618 85.3407 46.6114 84.7692C46.761 84.1978 47.1308 83.709 47.6396 83.4103L83.7421 62.2704C84.2516 61.9728 84.858 61.8899 85.4284 62.0398C85.9989 62.1897 86.4867 62.5601 86.7848 63.0698L107.885 99.2396C108.182 99.7501 108.265 100.358 108.116 100.929C107.966 101.501 107.596 101.989 107.087 102.288ZM48.0885 84.1799C47.7832 84.3591 47.5614 84.6523 47.4716 84.9952C47.3818 85.3381 47.4315 85.7027 47.6097 86.0089L68.7104 122.179C68.8893 122.485 69.1819 122.707 69.5242 122.797C69.8665 122.887 70.2303 122.837 70.536 122.658L106.639 101.518C106.944 101.339 107.166 101.046 107.255 100.703C107.345 100.36 107.296 99.9957 107.117 99.6894L86.0167 63.5196C85.8378 63.2138 85.5451 62.9915 85.2029 62.9016C84.8606 62.8116 84.4967 62.8614 84.1911 63.0399L48.0885 84.1799Z" fill="#F2F2F2"/>
<path d="M99.2991 112.784L63.1965 133.924C62.738 134.192 62.1922 134.266 61.6788 134.132C61.1654 133.997 60.7264 133.663 60.4581 133.205L39.3574 97.0347C39.0901 96.5753 39.0156 96.0285 39.1503 95.5141C39.2849 94.9998 39.6177 94.56 40.0756 94.2911L76.1782 73.1512C76.6367 72.8834 77.1825 72.8087 77.6959 72.9436C78.2093 73.0785 78.6483 73.4119 78.9166 73.8707L100.017 110.04C100.285 110.5 100.359 111.047 100.224 111.561C100.09 112.075 99.757 112.515 99.2991 112.784Z" fill="#48A145"/>
<path d="M186.439 85.5057L73.5224 151.624C73.064 151.893 72.518 151.968 72.0044 151.833C71.4908 151.698 71.0518 151.364 70.7839 150.905C70.516 150.446 70.4412 149.899 70.5759 149.384C70.7105 148.869 71.0437 148.43 71.5021 148.161L184.419 82.0426C184.646 81.9097 184.896 81.8229 185.157 81.7871C185.417 81.7514 185.682 81.7673 185.937 81.8342C186.191 81.901 186.429 82.0173 186.639 82.1765C186.848 82.3358 187.024 82.5347 187.157 82.7621C187.29 82.9895 187.376 83.2409 187.412 83.5018C187.448 83.7627 187.432 84.0282 187.365 84.2829C187.298 84.5377 187.182 84.7768 187.023 84.9866C186.864 85.1964 186.666 85.3728 186.439 85.5057Z" fill="#CCCCCC"/>
<path d="M166.129 113.402L80.4811 163.553C80.2542 163.686 80.0033 163.773 79.7428 163.809C79.4824 163.845 79.2175 163.829 78.9632 163.762C78.4496 163.627 78.0106 163.293 77.7427 162.834C77.4748 162.375 77.3999 161.828 77.5346 161.313C77.6693 160.799 78.0025 160.359 78.4608 160.09L164.108 109.939C164.335 109.806 164.586 109.719 164.847 109.684C165.107 109.648 165.372 109.664 165.626 109.731C165.881 109.797 166.119 109.914 166.329 110.073C166.538 110.232 166.714 110.431 166.847 110.659C166.979 110.886 167.066 111.137 167.102 111.398C167.138 111.659 167.122 111.925 167.055 112.179C166.988 112.434 166.872 112.673 166.713 112.883C166.554 113.093 166.356 113.269 166.129 113.402V113.402Z" fill="#CCCCCC"/>
<path d="M160.465 41.8651L110.536 71.1012C110.077 71.3696 109.531 71.4446 109.018 71.3096C108.504 71.1747 108.065 70.8409 107.797 70.3817C107.529 69.9224 107.454 69.3754 107.589 68.8609C107.724 68.3464 108.057 67.9065 108.515 67.6381L158.444 38.402C158.903 38.1336 159.449 38.0586 159.962 38.1935C160.217 38.2604 160.455 38.3767 160.665 38.5359C160.874 38.6951 161.05 38.8941 161.183 39.1215C161.316 39.3489 161.402 39.6002 161.438 39.8612C161.474 40.1221 161.458 40.3875 161.391 40.6423C161.324 40.8971 161.208 41.1362 161.049 41.346C160.89 41.5558 160.692 41.7322 160.465 41.8651Z" fill="#CCCCCC"/>
<path d="M154.963 61.0897L117.494 83.0295C117.267 83.1624 117.016 83.2492 116.756 83.2849C116.496 83.3207 116.231 83.3047 115.976 83.2379C115.722 83.1711 115.483 83.0548 115.274 82.8955C115.065 82.7363 114.888 82.5373 114.756 82.3099C114.623 82.0826 114.537 81.8312 114.501 81.5703C114.465 81.3093 114.481 81.0439 114.548 80.7891C114.614 80.5344 114.731 80.2953 114.89 80.0855C115.048 79.8757 115.247 79.6993 115.474 79.5664L152.942 57.6266C153.401 57.3582 153.947 57.2832 154.46 57.4181C154.974 57.5531 155.413 57.8869 155.681 58.3461C155.949 58.8053 156.024 59.3524 155.889 59.8669C155.754 60.3814 155.421 60.8213 154.963 61.0897Z" fill="#CCCCCC"/>
<path d="M200.356 109.363L87.4399 175.482C86.9815 175.75 86.4355 175.825 85.9219 175.69C85.4083 175.555 84.9693 175.221 84.7014 174.762C84.4335 174.303 84.3587 173.756 84.4933 173.241C84.628 172.727 84.9612 172.287 85.4196 172.019L198.336 105.9C198.794 105.632 199.34 105.557 199.854 105.692C200.368 105.827 200.807 106.16 201.075 106.62C201.342 107.079 201.417 107.626 201.283 108.14C201.148 108.655 200.815 109.095 200.356 109.363V109.363Z" fill="#CCCCCC"/>
<path d="M180.046 137.259L94.3986 187.41C94.1716 187.543 93.9208 187.63 93.6603 187.665C93.3999 187.701 93.1349 187.685 92.8806 187.618C92.6263 187.551 92.3877 187.435 92.1783 187.276C91.9689 187.117 91.7928 186.918 91.6601 186.69C91.5275 186.463 91.4408 186.212 91.4051 185.951C91.3694 185.69 91.3854 185.424 91.4521 185.17C91.5188 184.915 91.6349 184.676 91.7938 184.466C91.9527 184.256 92.1514 184.08 92.3783 183.947L178.026 133.796C178.253 133.663 178.504 133.576 178.764 133.54C179.025 133.504 179.29 133.52 179.544 133.587C179.798 133.654 180.037 133.77 180.246 133.929C180.456 134.089 180.632 134.288 180.764 134.515C180.897 134.742 180.984 134.994 181.019 135.255C181.055 135.516 181.039 135.781 180.972 136.036C180.906 136.291 180.79 136.53 180.631 136.74C180.472 136.949 180.273 137.126 180.046 137.259V137.259Z" fill="#CCCCCC"/>
<path d="M214.274 133.219L101.357 199.337C101.13 199.47 100.88 199.557 100.619 199.593C100.359 199.628 100.094 199.612 99.8394 199.546C99.5851 199.479 99.3464 199.363 99.137 199.203C98.9276 199.044 98.7515 198.845 98.6189 198.618C98.4862 198.39 98.3996 198.139 98.3639 197.878C98.3282 197.617 98.3441 197.352 98.4108 197.097C98.4775 196.842 98.5936 196.603 98.7526 196.393C98.9115 196.183 99.1101 196.007 99.3371 195.874L212.254 129.756C212.48 129.623 212.731 129.536 212.992 129.5C213.252 129.464 213.517 129.48 213.771 129.547C214.026 129.614 214.264 129.73 214.474 129.889C214.683 130.049 214.859 130.248 214.992 130.475C215.125 130.702 215.211 130.954 215.247 131.215C215.283 131.476 215.267 131.741 215.2 131.996C215.133 132.251 215.017 132.49 214.858 132.699C214.699 132.909 214.501 133.086 214.274 133.219Z" fill="#CCCCCC"/>
<path d="M221.233 145.147L108.316 211.266C108.089 211.399 107.838 211.486 107.578 211.521C107.317 211.557 107.052 211.541 106.798 211.474C106.544 211.408 106.305 211.291 106.096 211.132C105.886 210.973 105.71 210.774 105.578 210.546C105.445 210.319 105.358 210.068 105.323 209.807C105.287 209.546 105.303 209.28 105.37 209.026C105.436 208.771 105.552 208.532 105.711 208.322C105.87 208.112 106.069 207.936 106.296 207.803L219.212 141.684C219.439 141.551 219.69 141.465 219.951 141.429C220.211 141.393 220.476 141.409 220.73 141.476C220.984 141.543 221.223 141.659 221.433 141.818C221.642 141.977 221.818 142.176 221.951 142.404C222.083 142.631 222.17 142.882 222.206 143.143C222.241 143.404 222.225 143.67 222.159 143.925C222.092 144.179 221.976 144.418 221.817 144.628C221.658 144.838 221.459 145.014 221.233 145.147Z" fill="#CCCCCC"/>
<path d="M184.718 191.584C186.286 189.733 187.699 187.754 188.939 185.668C190.052 183.787 191.144 181.775 191.389 179.568C191.514 178.628 191.417 177.672 191.104 176.777C190.791 175.882 190.271 175.074 189.588 174.418C188.927 173.808 188.09 173.425 187.198 173.323C186.305 173.221 185.403 173.407 184.623 173.853C183.833 174.307 183.181 174.967 182.734 175.762C182.288 176.557 182.065 177.458 182.089 178.37C182.153 179.375 182.442 180.351 182.936 181.227C183.429 182.104 184.114 182.857 184.938 183.431C188.276 185.854 193.488 185.728 197.045 183.884C201.052 181.807 203.122 176.375 199.974 172.656C199.32 171.882 198.23 172.746 198.394 173.581C198.602 174.708 199.232 175.713 200.155 176.391C201.077 177.068 202.224 177.367 203.359 177.227C204.494 177.086 205.533 176.516 206.264 175.634C206.994 174.752 207.361 173.624 207.288 172.48L205.873 173.308C207.608 174.078 209.515 174.377 211.402 174.174C213.288 173.971 215.088 173.274 216.621 172.153C217.379 171.601 218.056 170.946 218.632 170.206C219.325 169.3 220.488 168.715 221.43 168.063L228.22 163.363C229.219 162.672 228.269 161.024 227.262 161.721L221.113 165.978C220.088 166.687 219.057 167.388 218.039 168.106C217.311 168.62 216.863 169.449 216.2 170.059C214.946 171.189 213.397 171.939 211.733 172.221C210.07 172.503 208.361 172.305 206.805 171.651C206.66 171.573 206.498 171.533 206.333 171.536C206.169 171.539 206.008 171.585 205.866 171.668C205.724 171.751 205.605 171.869 205.522 172.011C205.439 172.154 205.393 172.315 205.39 172.48C205.465 173.162 205.268 173.847 204.841 174.384C204.415 174.922 203.793 175.269 203.113 175.35C202.432 175.43 201.747 175.238 201.207 174.816C200.667 174.393 200.315 173.773 200.229 173.092L198.649 174.017C200.68 176.416 199.327 180.096 196.988 181.706C194.371 183.506 190.505 183.819 187.556 182.7C186.833 182.45 186.169 182.054 185.605 181.536C185.041 181.018 184.59 180.389 184.28 179.688C183.992 179.055 183.91 178.348 184.045 177.665C184.18 176.983 184.526 176.361 185.033 175.886C185.472 175.451 186.062 175.204 186.68 175.198C187.297 175.191 187.892 175.425 188.341 175.85C188.829 176.35 189.187 176.962 189.384 177.633C189.581 178.303 189.61 179.012 189.469 179.697C189.164 181.602 188.113 183.359 187.135 184.987C186.018 186.841 184.755 188.603 183.358 190.256C182.575 191.184 183.926 192.522 184.718 191.584L184.718 191.584Z" fill="#48A145"/>
<path d="M201.571 236.801C201.734 236.97 201.884 237.151 202.019 237.343L223.046 236.828L225.499 232.337L232.747 235.16L229.176 243.533C228.888 244.209 228.388 244.774 227.752 245.141C227.116 245.509 226.378 245.66 225.649 245.572L201.893 242.696C201.333 243.407 200.57 243.93 199.705 244.196C198.841 244.462 197.917 244.457 197.055 244.184C196.193 243.91 195.435 243.38 194.881 242.664C194.327 241.948 194.004 241.08 193.954 240.176C193.905 239.272 194.131 238.374 194.604 237.601C195.076 236.829 195.772 236.219 196.599 235.853C197.426 235.486 198.344 235.381 199.232 235.55C200.12 235.72 200.936 236.156 201.571 236.801Z" fill="#FFB7B7"/>
<path d="M270.114 364.735H263.201L259.911 338.018L270.115 338.018L270.114 364.735Z" fill="#FFB7B7"/>
<path d="M271.877 371.45L249.585 371.449V371.167C249.585 368.861 250.499 366.65 252.126 365.02C253.753 363.39 255.96 362.474 258.261 362.474H258.262L271.878 362.474L271.877 371.45Z" fill="#2F2E41"/>
<path d="M207.335 364.582L200.978 361.861L208.429 335.997L217.812 340.013L207.335 364.582Z" fill="#FFB7B7"/>
<path d="M206.324 371.45L185.824 362.675L185.935 362.416C186.839 360.296 188.547 358.622 190.682 357.763C192.818 356.905 195.206 356.931 197.323 357.836L197.323 357.837L209.844 363.196L206.324 371.45Z" fill="#2F2E41"/>
<path d="M236.509 242.589L236.009 250.706L250.623 252.272L265.914 253.912L261.413 241.587L236.509 242.589Z" fill="#FFB7B7"/>
<path d="M235.549 250.809L229.871 211.158L239.712 207.927L242.602 203.956L256.666 204.79L258.731 209.424L266.23 212.974L265.078 234.418L265.919 252.356L235.549 250.809Z" fill="#2F2E41"/>
<path d="M231.975 240.183L221.966 236.171L222.009 235.993C222.052 235.813 226.312 217.978 226.878 215.112C227.467 212.126 229.62 211.3 229.711 211.267L229.778 211.242L233.739 212.45L235.479 226.144L231.975 240.183Z" fill="#2F2E41"/>
<path d="M212.485 359.886L199.161 357.148L220.456 298.278L227.744 278.199C227.744 278.199 232.367 262.099 234.455 255.868L235.715 247.509L265.551 250.817C265.551 250.817 273.884 263.078 271.352 283.062L272.497 358.175L259.174 358.859L248.014 283.104L228.427 324.633C228.427 324.633 222.254 342.354 217.837 346.195L212.485 359.886Z" fill="#2F2E41"/>
<path d="M253.586 253.605C253.821 253.6 254.056 253.613 254.288 253.644L268.207 237.846L266.588 232.991L273.583 229.585L277.283 237.901C277.582 238.573 277.655 239.324 277.492 240.041C277.328 240.758 276.937 241.403 276.377 241.879L258.121 257.377C258.26 258.272 258.124 259.188 257.731 260.003C257.337 260.819 256.706 261.495 255.92 261.942C255.133 262.389 254.23 262.586 253.329 262.506C252.429 262.426 251.574 262.074 250.878 261.495C250.183 260.917 249.679 260.14 249.435 259.268C249.191 258.396 249.218 257.47 249.512 256.613C249.806 255.757 250.353 255.01 251.081 254.473C251.809 253.936 252.683 253.633 253.586 253.605Z" fill="#FFB7B7"/>
<path d="M267.096 239.384L261.29 225.701L263.554 216.17L265.994 213.081C266.173 213.005 266.366 212.966 266.56 212.968C266.754 212.97 266.946 213.012 267.124 213.092C268.023 213.455 268.79 214.567 269.401 216.397L274.843 231.925L267.096 239.384Z" fill="#2F2E41"/>
<path d="M236.972 198.886V188.57C236.972 184.904 238.426 181.388 241.013 178.796C243.601 176.203 247.11 174.747 250.769 174.747C254.429 174.747 257.938 176.203 260.526 178.796C263.113 181.388 264.567 184.904 264.567 188.57V198.886C264.566 199.378 264.371 199.85 264.023 200.198C263.676 200.546 263.205 200.742 262.713 200.743H238.825C238.334 200.742 237.863 200.546 237.515 200.198C237.168 199.85 236.973 199.378 236.972 198.886Z" fill="#2F2E41"/>
<path d="M247.934 200.503C253.521 200.503 258.05 195.965 258.05 190.368C258.05 184.771 253.521 180.233 247.934 180.233C242.347 180.233 237.818 184.771 237.818 190.368C237.818 195.965 242.347 200.503 247.934 200.503Z" fill="#FFB7B7"/>
<path d="M233.708 189.396C233.711 186.497 234.862 183.717 236.908 181.667C238.954 179.617 241.729 178.464 244.622 178.461H246.682C249.575 178.464 252.35 179.617 254.396 181.667C256.442 183.717 257.593 186.497 257.596 189.396V189.602H253.244L251.76 185.438L251.463 189.602H249.214L248.465 187.501L248.315 189.602H233.708L233.708 189.396Z" fill="#2F2E41"/>
<path d="M246.939 201.903C246.734 201.626 246.612 201.297 246.587 200.953C246.561 200.609 246.633 200.265 246.794 199.961C248.976 195.802 252.031 188.118 247.976 183.38L247.684 183.039H259.458V200.749L248.762 202.64C248.654 202.659 248.544 202.669 248.434 202.669C248.142 202.669 247.855 202.599 247.595 202.466C247.335 202.333 247.11 202.14 246.939 201.903Z" fill="#2F2E41"/>
<path d="M109.591 358.899L115.839 361.136L127.426 338.055L118.204 334.754L109.591 358.899Z" fill="#9F616A"/>
<path d="M105.833 364.397L108.727 356.285L121.031 360.691C123.11 361.438 124.807 362.98 125.752 364.979C126.697 366.978 126.811 369.271 126.071 371.355L125.98 371.61L105.833 364.397Z" fill="#2F2E41"/>
<path d="M150.221 365.091L156.856 365.091L160.013 339.45L150.22 339.451L150.221 365.091Z" fill="#9F616A"/>
<path d="M148.529 362.92L161.596 362.92H161.596C162.69 362.92 163.773 363.136 164.783 363.555C165.793 363.974 166.711 364.589 167.485 365.363C168.258 366.138 168.871 367.058 169.29 368.07C169.708 369.082 169.924 370.167 169.924 371.263V371.534L148.529 371.535L148.529 362.92Z" fill="#2F2E41"/>
<path d="M135.099 201.279L137.985 195.566C137.985 195.566 148.735 198.265 149.712 204.507L135.099 201.279Z" fill="#F1F1F1"/>
<path d="M123.193 266.599L131.04 310.472L110.203 347.39L122.651 352.271L143.759 316.484L146.465 306.724L148.089 357.693L159.315 357.351L164.462 309.759L156.207 265.515L123.193 266.599Z" fill="#2F2E41"/>
<path d="M138.089 276.971C126.561 276.971 119.241 274.761 119.077 274.727L118.812 274.67L124.817 246.778L125.087 221.049C125.087 210.147 132.249 202.109 133.243 201.367C133.411 200.705 133.72 200.088 134.15 199.558C134.58 199.029 135.121 198.6 135.733 198.301C138.122 197.215 141.042 198.518 141.165 198.574L149.927 201.866L149.969 201.987C150.074 202.299 161.616 240.26 161.616 240.26C161.616 240.26 160.917 273.427 160.674 274.514C160.674 274.514 144.495 276.971 138.089 276.971Z" fill="#3F3D56"/>
<path d="M146.948 193.768C153.489 193.768 158.791 188.456 158.791 181.903C158.791 175.349 153.489 170.037 146.948 170.037C140.407 170.037 135.104 175.349 135.104 181.903C135.104 188.456 140.407 193.768 146.948 193.768Z" fill="#9F616A"/>
<path opacity="0.2" d="M133.743 223.153L154.463 252.116L157.522 238.591L133.743 223.153Z" fill="black"/>
<path d="M198.704 242.859C198.121 243.321 197.444 243.649 196.721 243.821C195.998 243.992 195.246 244.003 194.519 243.852C193.791 243.7 193.106 243.391 192.51 242.946C191.915 242.501 191.424 241.93 191.073 241.274L173.239 244.134L177.102 235.565L193.446 234.163C194.584 233.644 195.874 233.562 197.069 233.932C198.264 234.303 199.282 235.099 199.93 236.171C200.578 237.243 200.811 238.516 200.585 239.749C200.359 240.981 199.69 242.088 198.704 242.859H198.704Z" fill="#9F616A"/>
<path d="M178.021 235.077L184.429 234.447L186.204 243.403L178.141 243.546L178.021 235.077Z" fill="#F1F1F1"/>
<path d="M183.274 246.525L151.89 243.725L136.043 218.476L135.994 218.253C135.544 216.19 135.859 214.034 136.88 212.187C137.901 210.34 139.558 208.928 141.541 208.215C143.525 207.503 145.699 207.538 147.659 208.313C149.619 209.089 151.23 210.554 152.191 212.432L161.494 230.611L180.268 233.455L183.274 246.525Z" fill="#3F3D56"/>
<path d="M136.86 192.206L146.69 192.559C147.289 192.581 148.915 186.102 149.128 184.758C149.297 183.883 149.777 183.099 150.48 182.553C151.183 182.007 152.06 181.736 152.948 181.791C153.683 181.86 155.539 180.483 157.454 178.852C161.089 175.756 160.9 169.941 156.906 167.324C156.797 167.253 156.69 167.188 156.585 167.128C154.066 165.716 151.119 165.241 148.232 165.205C145.616 165.173 142.925 165.502 140.619 166.743C136.486 168.968 134.287 173.83 134.093 178.526C133.9 183.223 135.403 187.815 137.108 192.194" fill="#2F2E41"/>
</svg>
