<svg width="32" height="32" viewBox="0 0 32 32" fill="none" xmlns="http://www.w3.org/2000/svg">
<path d="M16 0.499023C24.5604 0.499023 31.5 7.43862 31.5 15.999C31.5 24.5595 24.5604 31.499 16 31.499C7.43956 31.499 0.5 24.5594 0.5 15.999C0.5 7.43859 7.43959 0.499023 16 0.499023Z" stroke="#48A145"/>
<path d="M10.4248 24.75L9.50769 21.8535H10.2525L10.7953 23.7519L11.2944 21.8535H12.0337L12.5169 23.7519L13.0709 21.8535H13.8259L12.8958 24.75H12.1593L11.6603 22.887L11.1696 24.75H10.4248H10.4248ZM14.77 24.75L13.8529 21.8535H14.5978L15.1406 23.7519L15.6396 21.8535H16.3789L16.8621 23.7519L17.4161 21.8535H18.1712L17.2411 24.75H16.5046L16.0056 22.887L15.5149 24.75H14.77ZM19.1153 24.75L18.1982 21.8535H18.943L19.4858 23.7519L19.9849 21.8535H20.7241L21.2074 23.7519L21.7613 21.8535H22.5164L21.5863 24.75H20.8498L20.3508 22.887L19.8601 24.75H19.1153H19.1153Z" fill="#48A145"/>
<path d="M16 20.7076C19.7162 20.7076 22.7288 17.695 22.7288 13.9788C22.7288 10.2626 19.7162 7.25 16 7.25C12.2838 7.25 9.27125 10.2626 9.27125 13.9788C9.27125 17.695 12.2838 20.7076 16 20.7076Z" fill="#0288D1"/>
<path fill-rule="evenodd" clip-rule="evenodd" d="M16 7.25001C16.0305 7.25001 16.0608 7.25077 16.0912 7.25117V11.9666H18.2036V7.61956C18.3375 7.66596 18.4695 7.7163 18.5994 7.77072V11.9665H22.4226C22.4634 12.0968 22.4999 12.2289 22.5329 12.3624H18.5994V14.4748H22.7106C22.7009 14.6078 22.6872 14.7398 22.6699 14.8706H18.5994V16.983H22.022C21.9548 17.1176 21.8832 17.2495 21.8073 17.3788H18.5994V20.1869C18.4695 20.2413 18.3375 20.2916 18.2036 20.338V17.3788H16.0912V20.7064C16.0608 20.7068 16.0305 20.7076 16 20.7076C15.8979 20.7076 15.7964 20.7049 15.6954 20.7004V17.3788H13.583V20.26C13.4489 20.2083 13.3169 20.1525 13.1872 20.0928V17.3788H10.1927C10.1169 17.2496 10.0453 17.1176 9.97803 16.983H13.1872V14.8706H9.3302C9.31286 14.7398 9.29929 14.6078 9.28951 14.4748H13.1872V12.3624H9.4672C9.50012 12.2289 9.53668 12.0968 9.57745 11.9666H13.1872V7.86484C13.3169 7.80503 13.4489 7.7493 13.583 7.69766V11.9665H15.6954V7.25718C15.7964 7.25268 15.8979 7.25 16 7.25L16 7.25001ZM16.0912 12.3624V14.4748H18.2036V12.3624H16.0912ZM16.0912 14.8706V16.983H18.2036V14.8706H16.0912ZM15.6954 16.983V14.8706H13.583V16.983H15.6954ZM15.6954 14.4748V12.3624H13.583V14.4748H15.6954Z" fill="#0277BD"/>
<path fill-rule="evenodd" clip-rule="evenodd" d="M12.78 8.06927C13.5924 7.62566 14.5062 7.34461 15.4779 7.27002C15.6303 7.25939 15.784 7.25391 15.939 7.25391C16.9352 7.25391 17.8748 7.48358 18.7189 7.8808L18.4836 7.9157L17.8442 7.82014L17.3897 8.12242L17.0692 8.47767L15.9047 8.58516L15.4237 8.50567L15.0956 9.02302L14.1358 9.07807L13.5332 8.90361L12.9993 9.19749L11.839 9.35794L10.9097 9.62814H10.9076C11.4265 8.99833 12.0617 8.46791 12.78 8.06926L12.78 8.06927ZM16.2154 7.90319L16.8828 7.53599L17.3108 7.78381L16.6901 8.25433L16.0995 8.31512L15.8336 8.14052L16.2154 7.90319V7.90319ZM14.2412 7.95619L14.5351 8.07973L14.9211 7.95619L15.1299 8.32131L14.2412 8.55454L13.8132 8.30307C13.8132 8.30307 14.2308 8.03511 14.2412 7.95619Z" fill="#33691E"/>
<path fill-rule="evenodd" clip-rule="evenodd" d="M21.1669 9.71714C22.1427 10.9006 22.7288 12.4174 22.7288 14.071C22.7288 15.149 22.4794 16.1687 22.0357 17.0759C21.5158 17.6657 20.8695 18.1494 20.1284 18.4804L20.1612 18.0985C21.1251 17.1575 20.8173 16.7828 21.7035 16.1508L22.1003 14.8594L21.0426 14.475C20.6722 14.184 20.6044 13.9949 20.147 14.0258C19.9429 14.0097 19.7386 13.9935 19.5344 13.9774C19.3617 13.9824 19.1891 13.9875 19.0164 13.9925C18.8774 14.0607 18.7383 14.1288 18.5994 14.1971C18.3064 13.9709 18.3555 13.9539 17.9894 13.9169C17.9724 13.7806 17.9552 13.6443 17.9382 13.508C17.8303 13.5317 17.7222 13.5555 17.6143 13.5792C17.5655 13.6617 17.5167 13.7442 17.4679 13.8268C17.2412 13.3129 17.2094 13.4479 17.6676 13.1174C17.8256 13.1574 17.9837 13.1975 18.1417 13.2375C18.2202 13.2229 18.2987 13.2083 18.3772 13.1937C18.4275 12.3092 19.0799 11.7912 19.7325 11.2931C19.9119 11.2833 20.0912 11.2736 20.2706 11.2638C20.2704 11.175 20.2703 11.0863 20.2702 10.9974C19.7236 10.6147 19.5604 10.5406 19.1564 10.0077C18.2477 10.1767 18.0477 9.57375 18.0587 10.5968C17.8566 10.5955 17.6546 10.5942 17.4525 10.5929C17.4154 10.4757 17.3783 10.3586 17.3411 10.2414C17.9178 9.99404 17.7715 10.0502 17.8002 9.38656C17.9598 9.41976 18.1195 9.45308 18.2792 9.48628C18.2921 9.578 18.3051 9.66972 18.318 9.76144C18.5328 9.80744 18.7047 9.84183 18.9232 9.86395C19.0068 9.79846 19.0903 9.73285 19.1739 9.66735C18.951 9.36362 18.6713 9.17847 18.2743 9.0228C18.2637 8.94357 18.2529 8.86436 18.2423 8.78516C19.0824 8.79283 19.2544 8.98654 19.6501 9.73054C19.9209 9.89677 20.1918 10.063 20.4626 10.2292L20.6526 10.2522L20.8246 9.81221L21.1669 9.71715V9.71714Z" fill="#0B8ECF"/>
<path fill-rule="evenodd" clip-rule="evenodd" d="M15.367 20.6694C11.9411 20.3089 9.27117 17.4112 9.27117 13.8898C9.27117 13.371 9.32942 12.8659 9.43917 12.3803C9.53795 12.151 9.65056 11.929 9.77578 11.7154L10.2042 11.6172L9.7739 11.9563L10.1116 12.1789H10.7812L11.7771 12.0008C11.9861 12.3403 12.1953 12.6799 12.4043 13.0194C12.4043 14.2889 12.4975 14.0993 13.2591 15.1322C13.3074 15.1322 13.3556 15.1322 13.404 15.1322C13.404 14.9955 13.404 14.859 13.404 14.7224C13.9596 15.1071 15.3576 15.5737 15.5727 16.2045C15.4397 16.4815 15.3068 16.7585 15.1738 17.0356C15.3185 17.3038 15.4631 17.5721 15.6078 17.8404C15.6078 17.8404 15.8823 18.7679 15.8823 18.8049C15.8823 18.84 15.6078 19.9142 15.6078 19.9142L15.671 20.6379C15.57 20.6499 15.4688 20.6608 15.367 20.6694L15.367 20.6694Z" fill="#0B8ECF"/>
<path fill-rule="evenodd" clip-rule="evenodd" d="M21.1942 9.70182C22.1529 10.8646 22.7288 12.3548 22.7288 13.9795C22.7288 15.0387 22.4838 16.0405 22.0478 16.9319C21.537 17.5113 20.902 17.9865 20.1739 18.3118L20.2061 17.9365C21.1531 17.0121 20.8507 16.6439 21.7214 16.0229L22.1113 14.7541L21.0721 14.3765C20.7082 14.0905 20.6416 13.9048 20.1922 13.9351C19.9916 13.9193 19.7909 13.9034 19.5903 13.8876C19.4206 13.8925 19.251 13.8975 19.0813 13.9024C18.9448 13.9694 18.8081 14.0363 18.6716 14.1034C18.3838 13.8812 18.432 13.8644 18.0723 13.8282C18.0556 13.6942 18.0387 13.5603 18.022 13.4264C17.916 13.4496 17.8098 13.473 17.7038 13.4963C17.6558 13.5774 17.6079 13.6584 17.5599 13.7396C17.3372 13.2346 17.306 13.3673 17.7561 13.0426C17.9114 13.0819 18.0667 13.1212 18.222 13.1606C18.2991 13.1462 18.3762 13.1319 18.4533 13.1176C18.5027 12.2486 19.1437 11.7396 19.7849 11.2502C19.9611 11.2406 20.1373 11.2311 20.3136 11.2215C20.3134 11.1342 20.3133 11.047 20.3132 10.9597C19.7762 10.5836 19.6158 10.5109 19.2188 9.98728C18.3261 10.1533 18.1296 9.56094 18.1404 10.5661C17.9418 10.5648 17.7434 10.5635 17.5448 10.5622C17.5083 10.4471 17.4718 10.332 17.4353 10.2169C18.0019 9.97388 17.8582 10.0291 17.8864 9.37702C18.0432 9.40964 18.2002 9.44236 18.357 9.47499C18.3697 9.56511 18.3824 9.65522 18.3952 9.74533C18.6062 9.79055 18.775 9.82432 18.9897 9.84606C19.0719 9.78171 19.1539 9.71725 19.236 9.65289C19.0171 9.35448 18.7423 9.17255 18.3522 9.0196C18.3418 8.94178 18.3312 8.86396 18.3207 8.78613C19.1462 8.79368 19.3151 8.98399 19.704 9.71498C19.97 9.8783 20.2362 10.0416 20.5023 10.2049L20.6889 10.2275L20.8579 9.7952L21.1942 9.70182L21.1942 9.70182Z" fill="#7CB342"/>
<path fill-rule="evenodd" clip-rule="evenodd" d="M15.2875 20.6696C11.9063 20.3137 9.27117 17.4539 9.27117 13.9783C9.27117 13.4663 9.32864 12.9678 9.43697 12.4885C9.53448 12.2622 9.64562 12.0431 9.76921 11.8323L10.1921 11.7354L9.76735 12.07L10.1007 12.2898H10.7615L11.7444 12.114C11.9507 12.4491 12.1572 12.7843 12.3635 13.1193C12.3635 14.3723 12.4554 14.1851 13.2071 15.2045C13.2548 15.2045 13.3024 15.2045 13.3501 15.2045C13.3501 15.0697 13.3501 14.935 13.3501 14.8001C13.8985 15.1798 15.2782 15.6403 15.4905 16.2629C15.3592 16.5363 15.2281 16.8097 15.0969 17.0831C15.2397 17.3479 15.3824 17.6127 15.5252 17.8775C15.5252 17.8775 15.7961 18.7928 15.7961 18.8294C15.7961 18.8641 15.5252 19.9242 15.5252 19.9242L15.5875 20.6385C15.4879 20.6504 15.388 20.6611 15.2875 20.6696L15.2875 20.6696Z" fill="#7CB342"/>
</svg>
