<svg width="64" height="64" viewBox="0 0 64 64" fill="none" xmlns="http://www.w3.org/2000/svg">
<g clip-path="url(#clip0)">
<path d="M32.2361 62.924C39.1723 62.7971 44.5997 56.8461 44.5997 49.9088V44.5995H50.3268C57.3638 44.5995 63.0533 38.8305 62.9242 31.764C62.7973 24.8278 56.8463 19.4004 49.9089 19.4004H44.5997V22.8366C44.5997 27.8974 40.4971 31.9999 35.4364 31.9999H28.5639C23.5032 31.9999 19.4007 36.1025 19.4007 41.1631V44.5994V50.3265C19.4006 57.3636 25.1696 63.0534 32.2361 62.924Z" fill="#FFDC64"/>
<path d="M44.5996 44.5996H34.2909C33.0256 44.5996 32 45.6252 32 46.8905V50.8995C32 54.3789 34.8205 57.1992 38.2998 57.1992C41.7791 57.1992 44.5995 54.3787 44.5995 50.8995V44.5996H44.5996Z" fill="#FFF082"/>
<path d="M37.7271 53.7631C38.9923 53.7631 40.018 52.7375 40.018 51.4723C40.018 50.2071 38.9923 49.1814 37.7271 49.1814C36.4619 49.1814 35.4362 50.2071 35.4362 51.4723C35.4362 52.7375 36.4619 53.7631 37.7271 53.7631Z" fill="white"/>
<path d="M31.7641 1.07613C24.8279 1.203 19.4005 7.15401 19.4005 14.0915V19.4006H13.6734C6.63638 19.4006 0.946883 25.1696 1.07601 32.2361C1.20288 39.1724 7.15388 44.5998 14.0913 44.5998H19.4005V41.1635C19.4005 36.1028 23.5031 32.0003 28.5638 32.0003H35.4363C40.497 32.0003 44.5995 27.8976 44.5995 22.837V19.4008V13.6736C44.5996 6.63651 38.8308 0.947005 31.7641 1.07613Z" fill="#00AAF0"/>
<path d="M19.4005 19.4004H29.7093C30.9745 19.4004 32.0002 18.3748 32.0002 17.1095V13.1005C32.0002 9.62128 29.1796 6.80078 25.7004 6.80078C22.221 6.80078 19.4006 9.62128 19.4006 13.1005V19.4004H19.4005Z" fill="#0096DC"/>
<path d="M26.2731 14.8188C27.5383 14.8188 28.564 13.7931 28.564 12.5279C28.564 11.2627 27.5383 10.2371 26.2731 10.2371C25.0079 10.2371 23.9822 11.2627 23.9822 12.5279C23.9822 13.7931 25.0079 14.8188 26.2731 14.8188Z" fill="white"/>
<path d="M53.7664 25.9015C53.602 25.9015 53.4342 25.8657 53.2752 25.7896C52.6532 25.4942 51.9922 25.2941 51.3121 25.1979C50.6857 25.1084 50.2506 24.529 50.339 23.9025C50.4285 23.2761 51.0091 22.8432 51.6344 22.9294C52.5449 23.0591 53.4285 23.3254 54.2596 23.7224C54.8311 23.9941 55.074 24.6776 54.801 25.2481C54.6052 25.661 54.1947 25.9015 53.7664 25.9015Z" fill="#FFF082"/>
<path d="M56.0537 38.7562C55.7641 38.7562 55.4755 38.6477 55.2516 38.4284C54.7997 37.9865 54.793 37.2607 55.236 36.8087C56.5022 35.5168 57.1991 33.8087 57.1991 31.9999C57.1991 30.586 56.7728 29.227 55.9665 28.0714C55.6052 27.5524 55.7315 26.8388 56.2506 26.4763C56.7718 26.116 57.4843 26.2436 57.8457 26.7603C58.9218 28.3028 59.49 30.1138 59.49 31.9997C59.49 34.4113 58.5605 36.6887 56.8715 38.4124C56.6478 38.6409 56.3502 38.7562 56.0537 38.7562Z" fill="#FFF082"/>
<path d="M10.2339 38.0984C10.3983 38.0984 10.566 38.1341 10.725 38.2103C11.347 38.5056 12.008 38.7058 12.6881 38.802C13.3145 38.8915 13.7496 39.4709 13.6613 40.0974C13.5718 40.7238 12.9911 41.1566 12.3659 41.0705C11.4554 40.9408 10.5718 40.6745 9.74063 40.2775C9.16913 40.0058 8.92626 39.3223 9.19926 38.7518C9.39501 38.3389 9.80551 38.0984 10.2339 38.0984Z" fill="#0096DC"/>
<path d="M7.94638 25.2439C8.23601 25.2439 8.52463 25.3524 8.74851 25.5716C9.20038 26.0135 9.20713 26.7394 8.76413 27.1914C7.49801 28.4833 6.80101 30.1911 6.80101 31.9999C6.80101 33.4138 7.22726 34.7728 8.03363 35.9284C8.39488 36.4474 8.26863 37.161 7.74951 37.5235C7.22826 37.8838 6.51576 37.7561 6.15438 37.2394C5.07838 35.6968 4.51013 33.8859 4.51013 31.9999C4.51013 29.5883 5.43963 27.3109 7.12863 25.5871C7.35251 25.359 7.65001 25.2439 7.94638 25.2439Z" fill="#0096DC"/>
<path d="M60.0839 22.4208C57.4914 19.7807 54.0264 18.3267 50.3267 18.3267H49.1816C48.5884 18.3267 48.1077 18.8074 48.1077 19.4006C48.1077 19.9936 48.5883 20.4744 49.1816 20.4744H50.3267C53.4452 20.4744 56.3662 21.7002 58.5513 23.9256C60.7358 26.1506 61.9074 29.0948 61.8502 32.2164C61.7363 38.4526 56.3794 43.5258 49.9088 43.5258H32.0002C31.4072 43.5258 30.9263 44.0066 30.9263 44.5997C30.9263 45.1928 31.4071 45.6736 32.0002 45.6736H43.5259V50.3268C43.5259 53.4453 42.3002 56.3663 40.0748 58.5514C37.8499 60.7359 34.9037 61.9061 31.7839 61.8506C25.5479 61.7366 20.4746 56.3797 20.4746 49.9091V41.1636C20.4746 36.7031 24.1036 33.0741 28.5641 33.0741H35.4366C41.0813 33.0741 45.6737 28.4817 45.6737 22.8369V13.6737C45.6737 9.97419 44.2197 6.50894 41.5796 3.91657C38.9399 1.32494 35.4471 -0.0645578 31.7448 0.00256723C24.3462 0.138067 18.3271 6.45832 18.3271 14.0916V18.3268H13.6738C9.97432 18.3268 6.50907 19.7808 3.9167 22.4209C1.32507 25.0606 -0.0650497 28.5532 0.00270026 32.2557C0.1382 39.6543 6.45845 45.6734 14.0917 45.6734H14.8191C15.4121 45.6734 15.8929 45.1927 15.8929 44.5996C15.8929 44.0064 15.4122 43.5257 14.8191 43.5257H14.0917C7.62107 43.5257 2.2642 38.4523 2.15007 32.2163C2.09307 29.0948 3.2647 26.1503 5.4492 23.9254C7.63445 21.7001 10.5554 20.4743 13.6738 20.4743H32.0004C32.5936 20.4743 33.0743 19.9936 33.0743 19.4004C33.0743 18.8074 32.5937 18.3266 32.0004 18.3266H20.4747V14.0913C20.4747 7.62069 25.5481 2.26382 31.7841 2.14969C34.9064 2.09369 37.8502 3.26432 40.0749 5.44882C42.3004 7.63407 43.5261 10.5549 43.5261 13.6734V22.8367C43.5261 27.2972 39.8971 30.9262 35.4366 30.9262H28.5641C22.9193 30.9262 18.3269 35.5186 18.3269 41.1633V49.9088C18.3269 57.5422 24.3461 63.8624 31.7446 63.9977C31.8309 63.9993 31.9167 63.9999 32.0027 63.9999C35.6091 63.9999 39.0014 62.6148 41.5794 60.0837C44.2196 57.4913 45.6736 54.0263 45.6736 50.3266V45.6733H49.9091C57.5422 45.6733 63.8624 39.6542 63.9978 32.2557C64.0654 28.5533 62.6754 25.0604 60.0839 22.4208Z" fill="black"/>
<path d="M26.273 11.3108C26.866 11.3108 27.3469 10.8301 27.3469 10.237C27.3469 9.64384 26.8662 9.16309 26.273 9.16309C24.4178 9.16309 22.9084 10.6725 22.9084 12.5277C22.9084 14.383 24.4178 15.8923 26.273 15.8923C28.1283 15.8923 29.6377 14.383 29.6377 12.5277C29.6377 11.9347 29.1569 11.4538 28.5638 11.4538C27.9708 11.4538 27.4899 11.9346 27.4899 12.5277C27.4899 13.1988 26.944 13.7447 26.2729 13.7447C25.6018 13.7447 25.0559 13.1988 25.0559 12.5277C25.056 11.8567 25.602 11.3108 26.273 11.3108Z" fill="black"/>
<path d="M37.7271 50.2552C38.3202 50.2552 38.801 49.7744 38.801 49.1813C38.801 48.5883 38.3203 48.1074 37.7271 48.1074C35.8718 48.1074 34.3625 49.6168 34.3625 51.472C34.3625 53.3273 35.8718 54.8367 37.7271 54.8367C39.5823 54.8367 41.0917 53.3273 41.0917 51.472C41.0917 50.879 40.6111 50.3982 40.0178 50.3982C39.4246 50.3982 38.944 50.8789 38.944 51.472C38.944 52.1432 38.3981 52.689 37.727 52.689C37.0558 52.689 36.51 52.1432 36.51 51.472C36.5101 50.801 37.0562 50.2552 37.7271 50.2552Z" fill="black"/>
</g>
<defs>
<clipPath id="clip0">
<rect width="64" height="64" fill="white"/>
</clipPath>
</defs>
</svg>
