<svg width="64" height="64" viewBox="0 0 64 64" fill="none" xmlns="http://www.w3.org/2000/svg">
<path d="M61.6217 33.4108H2.37823C1.68798 33.4108 1.12823 32.851 1.12823 32.1608V3.375C1.12823 2.68475 1.68798 2.125 2.37823 2.125H61.6215C62.3117 2.125 62.8715 2.68475 62.8715 3.375V32.1608C62.8717 32.8513 62.312 33.4108 61.6217 33.4108Z" fill="#40C4DF"/>
<path d="M9.61497 13.0649V15.2074C9.61497 15.8999 9.05497 16.4574 8.36497 16.4574H6.22247C5.53247 16.4574 4.97247 15.8999 4.97247 15.2074V13.0649C4.97247 12.3749 5.53247 11.8149 6.22247 11.8149H8.36497C9.05497 11.8149 9.61497 12.3749 9.61497 13.0649Z" fill="#D8D6D7"/>
<path d="M16.675 13.0649V15.2074C16.675 15.8999 16.115 16.4574 15.425 16.4574H13.28C12.59 16.4574 12.03 15.8999 12.03 15.2074V13.0649C12.03 12.3749 12.59 11.8149 13.28 11.8149H15.425C16.115 11.8149 16.675 12.3749 16.675 13.0649Z" fill="#D8D6D7"/>
<path d="M23.7325 13.0649V15.2074C23.7325 15.8999 23.1725 16.4574 22.4825 16.4574H20.34C19.65 16.4574 19.09 15.8999 19.09 15.2074V13.0649C19.09 12.3749 19.65 11.8149 20.34 11.8149H22.4825C23.1725 11.8149 23.7325 12.3749 23.7325 13.0649Z" fill="#D8D6D7"/>
<path d="M30.7924 13.0649V15.2074C30.7924 15.8999 30.2324 16.4574 29.5424 16.4574H27.3999C26.7074 16.4574 26.1499 15.8999 26.1499 15.2074V13.0649C26.1499 12.3749 26.7074 11.8149 27.3999 11.8149H29.5424C30.2324 11.8149 30.7924 12.3749 30.7924 13.0649Z" fill="#D8D6D7"/>
<path d="M9.61497 5.76489V7.90739C9.61497 8.59989 9.05497 9.1574 8.36497 9.1574H6.22247C5.53247 9.1574 4.97247 8.59989 4.97247 7.90739V5.76489C4.97247 5.07489 5.53247 4.51489 6.22247 4.51489H8.36497C9.05497 4.51489 9.61497 5.07489 9.61497 5.76489Z" fill="#D8D6D7"/>
<path d="M16.675 5.76489V7.90739C16.675 8.59989 16.115 9.1574 15.425 9.1574H13.28C12.59 9.1574 12.03 8.59989 12.03 7.90739V5.76489C12.03 5.07489 12.59 4.51489 13.28 4.51489H15.425C16.115 4.51489 16.675 5.07489 16.675 5.76489Z" fill="#D8D6D7"/>
<path d="M23.7325 5.76489V7.90739C23.7325 8.59989 23.1725 9.1574 22.4825 9.1574H20.34C19.65 9.1574 19.09 8.59989 19.09 7.90739V5.76489C19.09 5.07489 19.65 4.51489 20.34 4.51489H22.4825C23.1725 4.51489 23.7325 5.07489 23.7325 5.76489Z" fill="#D8D6D7"/>
<path d="M30.7924 5.76489V7.90739C30.7924 8.59989 30.2324 9.1574 29.5424 9.1574H27.3999C26.7074 9.1574 26.1499 8.59989 26.1499 7.90739V5.76489C26.1499 5.07489 26.7074 4.51489 27.3999 4.51489H29.5424C30.2324 4.51489 30.7924 5.07489 30.7924 5.76489Z" fill="#D8D6D7"/>
<path d="M37.8501 5.76489V7.90739C37.8501 8.59989 37.2926 9.1574 36.6001 9.1574H34.4576C33.7676 9.1574 33.2076 8.59989 33.2076 7.90739V5.76489C33.2076 5.07489 33.7676 4.51489 34.4576 4.51489H36.6001C37.2926 4.51489 37.8501 5.07489 37.8501 5.76489Z" fill="#D8D6D7"/>
<path d="M44.91 5.76489V7.90739C44.91 8.59989 44.35 9.1574 43.66 9.1574H41.5175C40.8275 9.1574 40.2675 8.59989 40.2675 7.90739V5.76489C40.2675 5.07489 40.8275 4.51489 41.5175 4.51489H43.66C44.35 4.51489 44.91 5.07489 44.91 5.76489Z" fill="#D8D6D7"/>
<path d="M51.9701 5.76489V7.90739C51.9701 8.59989 51.4101 9.1574 50.7201 9.1574H48.5751C47.8851 9.1574 47.3251 8.59989 47.3251 7.90739V5.76489C47.3251 5.07489 47.8851 4.51489 48.5751 4.51489H50.7201C51.4101 4.51489 51.9701 5.07489 51.9701 5.76489Z" fill="#D8D6D7"/>
<path d="M51.9701 5.76489V7.90739C51.9701 8.59989 51.4101 9.1574 50.7201 9.1574H48.5751C47.8851 9.1574 47.3251 8.59989 47.3251 7.90739V5.76489C47.3251 5.07489 47.8851 4.51489 48.5751 4.51489H50.7201C51.4101 4.51489 51.9701 5.07489 51.9701 5.76489Z" fill="#D8D6D7"/>
<path d="M59.0275 5.76489V7.90739C59.0275 8.59989 58.4675 9.1574 57.7775 9.1574H55.635C54.945 9.1574 54.385 8.59989 54.385 7.90739V5.76489C54.385 5.07489 54.945 4.51489 55.635 4.51489H57.7775C58.4675 4.51489 59.0275 5.07489 59.0275 5.76489Z" fill="#D8D6D7"/>
<path d="M9.61497 20.345V22.49C9.61497 23.18 9.05497 23.74 8.36497 23.74H6.22247C5.53247 23.74 4.97247 23.18 4.97247 22.49V20.345C4.97247 19.655 5.53247 19.095 6.22247 19.095H8.36497C9.05497 19.095 9.61497 19.655 9.61497 20.345Z" fill="#D8D6D7"/>
<path d="M16.675 20.345V22.49C16.675 23.18 16.115 23.74 15.425 23.74H13.28C12.59 23.74 12.03 23.18 12.03 22.49V20.345C12.03 19.655 12.59 19.095 13.28 19.095H15.425C16.115 19.095 16.675 19.655 16.675 20.345Z" fill="#D8D6D7"/>
<path d="M23.7325 20.345V22.49C23.7325 23.18 23.1725 23.74 22.4825 23.74H20.34C19.65 23.74 19.09 23.18 19.09 22.49V20.345C19.09 19.655 19.65 19.095 20.34 19.095H22.4825C23.1725 19.095 23.7325 19.655 23.7325 20.345Z" fill="#D8D6D7"/>
<path d="M37.8499 13.0649V22.4899C37.8499 23.1799 37.2924 23.7399 36.5999 23.7399H27.3999C26.7074 23.7399 26.1499 23.1799 26.1499 22.4899V20.3449C26.1499 19.6549 26.7074 19.0949 27.3999 19.0949H31.9574C32.6474 19.0949 33.2074 18.5374 33.2074 17.8449V13.0649C33.2074 12.3749 33.7674 11.8149 34.4574 11.8149H36.5999C37.2924 11.8149 37.8499 12.3749 37.8499 13.0649Z" fill="#D8D6D7"/>
<path d="M44.91 20.345V22.49C44.91 23.18 44.35 23.74 43.66 23.74H41.5175C40.8275 23.74 40.2675 23.18 40.2675 22.49V20.345C40.2675 19.655 40.8275 19.095 41.5175 19.095H43.66C44.35 19.095 44.91 19.655 44.91 20.345Z" fill="#D8D6D7"/>
<path d="M9.61497 27.6274V29.7699C9.61497 30.4599 9.05497 31.0199 8.36497 31.0199H6.22247C5.53247 31.0199 4.97247 30.4599 4.97247 29.7699V27.6274C4.97247 26.9374 5.53247 26.3774 6.22247 26.3774H8.36497C9.05497 26.3774 9.61497 26.9374 9.61497 27.6274Z" fill="#D8D6D7"/>
<path d="M30.7925 27.6274V29.7699C30.7925 30.4599 30.2325 31.0199 29.5425 31.0199H13.28C12.59 31.0199 12.03 30.4599 12.03 29.7699V27.6274C12.03 26.9374 12.59 26.3774 13.28 26.3774H29.5425C30.2325 26.3774 30.7925 26.9374 30.7925 27.6274Z" fill="#D8D6D7"/>
<path d="M37.8501 27.6274V29.7699C37.8501 30.4599 37.2926 31.0199 36.6001 31.0199H34.4576C33.7676 31.0199 33.2076 30.4599 33.2076 29.7699V27.6274C33.2076 26.9374 33.7676 26.3774 34.4576 26.3774H36.6001C37.2926 26.3774 37.8501 26.9374 37.8501 27.6274Z" fill="#D8D6D7"/>
<path d="M51.97 13.0649V15.2074C51.97 15.8999 51.41 16.4574 50.72 16.4574H41.5175C40.8275 16.4574 40.2675 15.8999 40.2675 15.2074V13.0649C40.2675 12.3749 40.8275 11.8149 41.5175 11.8149H50.72C51.41 11.8149 51.97 12.3749 51.97 13.0649Z" fill="#D8D6D7"/>
<path d="M51.9701 20.345V22.49C51.9701 23.18 51.4101 23.74 50.7201 23.74H48.5751C47.8851 23.74 47.3251 23.18 47.3251 22.49V20.345C47.3251 19.655 47.8851 19.095 48.5751 19.095H50.7201C51.4101 19.095 51.9701 19.655 51.9701 20.345Z" fill="#D8D6D7"/>
<path d="M51.9701 27.6274V29.7699C51.9701 30.4599 51.4101 31.0199 50.7201 31.0199H48.5751C47.8851 31.0199 47.3251 30.4599 47.3251 29.7699V27.6274C47.3251 26.9374 47.8851 26.3774 48.5751 26.3774H50.7201C51.4101 26.3774 51.9701 26.9374 51.9701 27.6274Z" fill="#D8D6D7"/>
<path d="M59.0275 13.0649V15.2074C59.0275 15.8999 58.4675 16.4574 57.7775 16.4574H55.635C54.945 16.4574 54.385 15.8999 54.385 15.2074V13.0649C54.385 12.3749 54.945 11.8149 55.635 11.8149H57.7775C58.4675 11.8149 59.0275 12.3749 59.0275 13.0649Z" fill="#D8D6D7"/>
<path d="M59.0275 20.345V22.49C59.0275 23.18 58.4675 23.74 57.7775 23.74H55.635C54.945 23.74 54.385 23.18 54.385 22.49V20.345C54.385 19.655 54.945 19.095 55.635 19.095H57.7775C58.4675 19.095 59.0275 19.655 59.0275 20.345Z" fill="#D8D6D7"/>
<path d="M59.0275 27.6274V29.7699C59.0275 30.4599 58.4675 31.0199 57.7775 31.0199H55.635C54.945 31.0199 54.385 30.4599 54.385 29.7699V27.6274C54.385 26.9374 54.945 26.3774 55.635 26.3774H57.7775C58.4675 26.3774 59.0275 26.9374 59.0275 27.6274Z" fill="#D8D6D7"/>
<path d="M9.61497 13.0649V13.5824C9.61497 14.2749 9.05497 14.8324 8.36497 14.8324H6.22247C5.53247 14.8324 4.97247 14.2749 4.97247 13.5824V13.0649C4.97247 12.3749 5.53247 11.8149 6.22247 11.8149H8.36497C9.05497 11.8149 9.61497 12.3749 9.61497 13.0649Z" fill="white"/>
<path d="M16.675 13.0649V13.5824C16.675 14.2749 16.115 14.8324 15.425 14.8324H13.28C12.59 14.8324 12.03 14.2749 12.03 13.5824V13.0649C12.03 12.3749 12.59 11.8149 13.28 11.8149H15.425C16.115 11.8149 16.675 12.3749 16.675 13.0649Z" fill="white"/>
<path d="M23.7325 13.0649V13.5824C23.7325 14.2749 23.1725 14.8324 22.4825 14.8324H20.34C19.65 14.8324 19.09 14.2749 19.09 13.5824V13.0649C19.09 12.3749 19.65 11.8149 20.34 11.8149H22.4825C23.1725 11.8149 23.7325 12.3749 23.7325 13.0649Z" fill="white"/>
<path d="M30.7924 13.0649V13.5824C30.7924 14.2749 30.2324 14.8324 29.5424 14.8324H27.3999C26.7074 14.8324 26.1499 14.2749 26.1499 13.5824V13.0649C26.1499 12.3749 26.7074 11.8149 27.3999 11.8149H29.5424C30.2324 11.8149 30.7924 12.3749 30.7924 13.0649Z" fill="white"/>
<path d="M9.61497 5.76489V6.28239C9.61497 6.97489 9.05497 7.53239 8.36497 7.53239H6.22247C5.53247 7.53239 4.97247 6.97489 4.97247 6.28239V5.76489C4.97247 5.07489 5.53247 4.51489 6.22247 4.51489H8.36497C9.05497 4.51489 9.61497 5.07489 9.61497 5.76489Z" fill="white"/>
<path d="M16.675 5.76489V6.28239C16.675 6.97489 16.115 7.53239 15.425 7.53239H13.28C12.59 7.53239 12.03 6.97489 12.03 6.28239V5.76489C12.03 5.07489 12.59 4.51489 13.28 4.51489H15.425C16.115 4.51489 16.675 5.07489 16.675 5.76489Z" fill="white"/>
<path d="M23.7325 5.76489V6.28239C23.7325 6.97489 23.1725 7.53239 22.4825 7.53239H20.34C19.65 7.53239 19.09 6.97489 19.09 6.28239V5.76489C19.09 5.07489 19.65 4.51489 20.34 4.51489H22.4825C23.1725 4.51489 23.7325 5.07489 23.7325 5.76489Z" fill="white"/>
<path d="M30.7924 5.76489V6.28239C30.7924 6.97489 30.2324 7.53239 29.5424 7.53239H27.3999C26.7074 7.53239 26.1499 6.97489 26.1499 6.28239V5.76489C26.1499 5.07489 26.7074 4.51489 27.3999 4.51489H29.5424C30.2324 4.51489 30.7924 5.07489 30.7924 5.76489Z" fill="white"/>
<path d="M37.8501 5.76489V6.28239C37.8501 6.97489 37.2926 7.53239 36.6001 7.53239H34.4576C33.7676 7.53239 33.2076 6.97489 33.2076 6.28239V5.76489C33.2076 5.07489 33.7676 4.51489 34.4576 4.51489H36.6001C37.2926 4.51489 37.8501 5.07489 37.8501 5.76489Z" fill="white"/>
<path d="M44.91 5.76489V6.28239C44.91 6.97489 44.35 7.53239 43.66 7.53239H41.5175C40.8275 7.53239 40.2675 6.97489 40.2675 6.28239V5.76489C40.2675 5.07489 40.8275 4.51489 41.5175 4.51489H43.66C44.35 4.51489 44.91 5.07489 44.91 5.76489Z" fill="white"/>
<path d="M51.9701 5.76489V6.28239C51.9701 6.97489 51.4101 7.53239 50.7201 7.53239H48.5751C47.8851 7.53239 47.3251 6.97489 47.3251 6.28239V5.76489C47.3251 5.07489 47.8851 4.51489 48.5751 4.51489H50.7201C51.4101 4.51489 51.9701 5.07489 51.9701 5.76489Z" fill="white"/>
<path d="M51.9701 5.76489V6.28239C51.9701 6.97489 51.4101 7.53239 50.7201 7.53239H48.5751C47.8851 7.53239 47.3251 6.97489 47.3251 6.28239V5.76489C47.3251 5.07489 47.8851 4.51489 48.5751 4.51489H50.7201C51.4101 4.51489 51.9701 5.07489 51.9701 5.76489Z" fill="white"/>
<path d="M59.0275 5.76489V6.28239C59.0275 6.97489 58.4675 7.53239 57.7775 7.53239H55.635C54.945 7.53239 54.385 6.97489 54.385 6.28239V5.76489C54.385 5.07489 54.945 4.51489 55.635 4.51489H57.7775C58.4675 4.51489 59.0275 5.07489 59.0275 5.76489Z" fill="white"/>
<path d="M9.61497 20.345V20.865C9.61497 21.555 9.05497 22.115 8.36497 22.115H6.22247C5.53247 22.115 4.97247 21.555 4.97247 20.865V20.345C4.97247 19.655 5.53247 19.095 6.22247 19.095H8.36497C9.05497 19.095 9.61497 19.655 9.61497 20.345Z" fill="white"/>
<path d="M16.675 20.345V20.865C16.675 21.555 16.115 22.115 15.425 22.115H13.28C12.59 22.115 12.03 21.555 12.03 20.865V20.345C12.03 19.655 12.59 19.095 13.28 19.095H15.425C16.115 19.095 16.675 19.655 16.675 20.345Z" fill="white"/>
<path d="M23.7325 20.345V20.865C23.7325 21.555 23.1725 22.115 22.4825 22.115H20.34C19.65 22.115 19.09 21.555 19.09 20.865V20.345C19.09 19.655 19.65 19.095 20.34 19.095H22.4825C23.1725 19.095 23.7325 19.655 23.7325 20.345Z" fill="white"/>
<path d="M37.8499 13.0649V20.8649C37.8499 21.5549 37.2924 22.1149 36.5999 22.1149H27.3999C26.7074 22.1149 26.1499 21.5549 26.1499 20.8649V20.3449C26.1499 19.6549 26.7074 19.0949 27.3999 19.0949H31.9574C32.6474 19.0949 33.2074 18.5374 33.2074 17.8449V13.0649C33.2074 12.3749 33.7674 11.8149 34.4574 11.8149H36.5999C37.2924 11.8149 37.8499 12.3749 37.8499 13.0649Z" fill="white"/>
<path d="M44.91 20.345V20.865C44.91 21.555 44.35 22.115 43.66 22.115H41.5175C40.8275 22.115 40.2675 21.555 40.2675 20.865V20.345C40.2675 19.655 40.8275 19.095 41.5175 19.095H43.66C44.35 19.095 44.91 19.655 44.91 20.345Z" fill="white"/>
<path d="M9.61497 27.6274V28.1449C9.61497 28.8349 9.05497 29.3949 8.36497 29.3949H6.22247C5.53247 29.3949 4.97247 28.8349 4.97247 28.1449V27.6274C4.97247 26.9374 5.53247 26.3774 6.22247 26.3774H8.36497C9.05497 26.3774 9.61497 26.9374 9.61497 27.6274Z" fill="white"/>
<path d="M30.7925 27.6274V28.1449C30.7925 28.8349 30.2325 29.3949 29.5425 29.3949H13.28C12.59 29.3949 12.03 28.8349 12.03 28.1449V27.6274C12.03 26.9374 12.59 26.3774 13.28 26.3774H29.5425C30.2325 26.3774 30.7925 26.9374 30.7925 27.6274Z" fill="white"/>
<path d="M37.8501 27.6274V28.1449C37.8501 28.8349 37.2926 29.3949 36.6001 29.3949H34.4576C33.7676 29.3949 33.2076 28.8349 33.2076 28.1449V27.6274C33.2076 26.9374 33.7676 26.3774 34.4576 26.3774H36.6001C37.2926 26.3774 37.8501 26.9374 37.8501 27.6274Z" fill="white"/>
<path d="M51.97 13.0649V13.5824C51.97 14.2749 51.41 14.8324 50.72 14.8324H41.5175C40.8275 14.8324 40.2675 14.2749 40.2675 13.5824V13.0649C40.2675 12.3749 40.8275 11.8149 41.5175 11.8149H50.72C51.41 11.8149 51.97 12.3749 51.97 13.0649Z" fill="white"/>
<path d="M51.9701 20.345V20.865C51.9701 21.555 51.4101 22.115 50.7201 22.115H48.5751C47.8851 22.115 47.3251 21.555 47.3251 20.865V20.345C47.3251 19.655 47.8851 19.095 48.5751 19.095H50.7201C51.4101 19.095 51.9701 19.655 51.9701 20.345Z" fill="white"/>
<path d="M51.9701 27.6274V28.1449C51.9701 28.8349 51.4101 29.3949 50.7201 29.3949H48.5751C47.8851 29.3949 47.3251 28.8349 47.3251 28.1449V27.6274C47.3251 26.9374 47.8851 26.3774 48.5751 26.3774H50.7201C51.4101 26.3774 51.9701 26.9374 51.9701 27.6274Z" fill="white"/>
<path d="M59.0275 13.0649V13.5824C59.0275 14.2749 58.4675 14.8324 57.7775 14.8324H55.635C54.945 14.8324 54.385 14.2749 54.385 13.5824V13.0649C54.385 12.3749 54.945 11.8149 55.635 11.8149H57.7775C58.4675 11.8149 59.0275 12.3749 59.0275 13.0649Z" fill="white"/>
<path d="M59.0275 20.345V20.865C59.0275 21.555 58.4675 22.115 57.7775 22.115H55.635C54.945 22.115 54.385 21.555 54.385 20.865V20.345C54.385 19.655 54.945 19.095 55.635 19.095H57.7775C58.4675 19.095 59.0275 19.655 59.0275 20.345Z" fill="white"/>
<path d="M59.0275 27.6274V28.1449C59.0275 28.8349 58.4675 29.3949 57.7775 29.3949H55.635C54.945 29.3949 54.385 28.8349 54.385 28.1449V27.6274C54.385 26.9374 54.945 26.3774 55.635 26.3774H57.7775C58.4675 26.3774 59.0275 26.9374 59.0275 27.6274Z" fill="white"/>
<path d="M28.9925 46.2726C26.4152 48.0019 23.997 50.0201 21.2925 53.0051C21.06 53.2626 20.935 53.5976 20.935 53.9451V59.3751C20.935 60.7559 19.8157 61.8751 18.435 61.8751H7.92996C6.54871 61.8751 5.42996 60.7546 5.42996 59.3734C5.42996 54.3576 5.55221 54.2901 5.04996 53.7676C3.21246 51.8401 2.08246 49.2301 2.08246 46.3576V40.9001C2.08246 40.2099 2.64221 39.6501 3.33246 39.6501H17.0475C17.7377 39.6501 18.2975 39.0904 18.2975 38.4001V27.6704C18.2975 26.2179 19.435 24.9726 20.887 24.9481C22.3645 24.9231 23.5675 26.1154 23.5675 27.5826C23.5675 38.6596 23.57 43.0586 23.57 43.5926C24.3077 43.0971 25.0885 42.4544 26.4425 42.5676C26.4475 42.5676 26.4525 42.5676 26.455 42.5701C27.9887 42.6954 28.7012 43.5909 29.3375 44.5401C29.72 45.1126 29.5675 45.8901 28.9925 46.2726Z" fill="#EDAF85"/>
<path d="M28.9925 46.2726C26.4152 48.0018 23.997 50.0201 21.2925 53.0051C21.06 53.2626 20.935 53.5976 20.935 53.9451V59.3751C20.935 60.7558 19.8157 61.8751 18.435 61.8751H8.41996C8.34496 61.6376 8.30496 61.3876 8.30496 61.1251C8.30496 56.1076 8.42721 56.0401 7.92496 55.5176C6.08746 53.5901 4.95746 50.9801 4.95746 48.1076V42.6501C4.95746 41.9598 5.51721 41.4001 6.20746 41.4001H19.9225C20.6127 41.4001 21.1725 40.8403 21.1725 40.1501V29.3326C21.1725 28.0076 22.1525 26.9101 23.425 26.7251C23.6212 27.2926 23.57 26.0861 23.57 43.5926C24.3077 43.0971 25.0885 42.4543 26.4425 42.5676V42.5851C26.4425 42.5851 26.4475 42.5801 26.455 42.5701C27.9887 42.6953 28.7012 43.5908 29.3375 44.5401C29.72 45.1126 29.5675 45.8901 28.9925 46.2726Z" fill="#F7C09A"/>
<path d="M35.013 46.2726C37.5902 48.0019 40.0085 50.0201 42.713 53.0051C42.9455 53.2626 43.0705 53.5976 43.0705 53.9451V59.3751C43.0705 60.7559 44.1897 61.8751 45.5705 61.8751H56.0755C57.4567 61.8751 58.5755 60.7546 58.5755 59.3734C58.5755 54.3576 58.4532 54.2901 58.9555 53.7676C60.793 51.8401 61.923 49.2301 61.923 46.3576V40.9001C61.923 40.2099 61.3632 39.6501 60.673 39.6501H46.958C46.2677 39.6501 45.708 39.0904 45.708 38.4001V27.6704C45.708 26.2179 44.5705 24.9726 43.1185 24.9481C41.641 24.9231 40.438 26.1154 40.438 27.5826C40.438 38.6596 40.4355 43.0586 40.4355 43.5926C39.6977 43.0971 38.917 42.4544 37.563 42.5676C37.558 42.5676 37.553 42.5676 37.5505 42.5701C36.0167 42.6954 35.3042 43.5909 34.668 44.5401C34.2855 45.1126 34.438 45.8901 35.013 46.2726Z" fill="#EDAF85"/>
<path d="M35.013 46.2726C37.5902 48.0018 40.0085 50.0201 42.713 53.0051C42.9455 53.2626 43.0705 53.5976 43.0705 53.9451V59.3751C43.0705 60.7558 44.1897 61.8751 45.5705 61.8751H55.5855C55.6605 61.6376 55.7005 61.3876 55.7005 61.1251C55.7005 56.1076 55.5782 56.0401 56.0805 55.5176C57.918 53.5901 59.048 50.9801 59.048 48.1076V42.6501C59.048 41.9598 58.4882 41.4001 57.798 41.4001H44.083C43.3927 41.4001 42.833 40.8403 42.833 40.1501V29.3326C42.833 28.0076 41.853 26.9101 40.5805 26.7251C40.3842 27.2926 40.4355 26.0861 40.4355 43.5926C39.6977 43.0971 38.917 42.4543 37.563 42.5676V42.5851C37.563 42.5851 37.558 42.5801 37.5505 42.5701C36.0167 42.6953 35.3042 43.5908 34.668 44.5401C34.2855 45.1126 34.438 45.8901 35.013 46.2726Z" fill="#F7C09A"/>
<path d="M61.6225 1.625H2.37744C1.41244 1.625 0.627441 2.41025 0.627441 3.375V32.16C0.627441 33.1248 1.41244 33.91 2.37744 33.91H17.7982V39.1495H3.33244C2.36744 39.1495 1.58244 39.9348 1.58244 40.8995V46.357C1.58244 49.2573 2.68594 52.0113 4.68919 54.112C5.01394 54.4528 4.93019 54.3408 4.93019 59.3753C4.93019 61.0295 6.27594 62.3753 7.93019 62.3753H18.4339C20.0882 62.3753 21.4339 61.0295 21.4339 59.3753C21.4339 53.4793 21.3494 53.6875 21.6639 53.3403C24.3269 50.3995 26.7219 48.3923 29.2714 46.689C30.0732 46.1523 30.2887 45.0633 29.7522 44.2615L29.4484 43.8078C28.2594 42.0318 25.8687 41.5303 24.0689 42.658C24.0689 42.5563 24.0682 40.7823 24.0682 33.9103H39.9314C39.9314 39.1015 39.9304 42.1888 39.9304 42.6578C36.4007 40.4453 32.0652 44.9075 34.9407 46.831C37.5052 48.548 39.9242 50.6773 42.3357 53.3403C42.6469 53.6838 42.5659 53.4598 42.5659 59.3753C42.5659 61.0295 43.9117 62.3753 45.5659 62.3753H56.0697C57.724 62.3753 59.0697 61.0295 59.0697 59.3753C59.0697 54.3285 58.9887 54.4493 59.3105 54.112C61.3139 52.0115 62.4174 49.2573 62.4174 46.357V40.8995C62.4174 39.9348 61.6322 39.1495 60.6674 39.1495H46.2019V33.91H61.6227C62.5874 33.91 63.3727 33.1248 63.3727 32.16V3.375C63.3724 2.41025 62.5875 1.625 61.6225 1.625ZM24.5259 43.553C25.8777 42.6498 27.7132 43.013 28.6174 44.3635C30.0677 46.5305 28.0139 44.8385 20.9227 52.6688C20.2774 53.3813 20.4337 53.5588 20.4337 59.375C20.4337 60.4778 19.5364 61.375 18.4337 61.375H7.93019C6.82744 61.375 5.93019 60.4778 5.93019 59.375C5.93019 54.3933 6.08244 54.1243 5.41294 53.4218C3.58769 51.5083 2.58244 48.9993 2.58244 46.357V40.8995C2.58244 40.486 2.91894 40.1495 3.33244 40.1495H18.2979C18.5739 40.1495 18.7979 39.9255 18.7979 39.6495C18.7979 26.5553 18.7234 27.299 18.9829 26.7168C19.0427 26.6523 19.0864 26.5728 19.1057 26.4835C20.2259 24.6273 23.0682 25.435 23.0682 27.582C23.0682 41.2493 23.0689 42.9195 23.0689 43.592C23.0689 43.9928 23.5174 44.229 23.8469 44.0075L24.5259 43.553ZM17.7979 30.52H13.2799C12.8664 30.52 12.5299 30.1835 12.5299 29.77V27.6275C12.5299 27.214 12.8664 26.8775 13.2799 26.8775H17.8807C17.7719 27.3493 17.7979 27.3185 17.7979 30.52ZM23.9857 26.8775H29.5424C29.9559 26.8775 30.2924 27.214 30.2924 27.6275V29.77C30.2924 30.1835 29.9559 30.52 29.5424 30.52H24.0682C24.0682 27.3383 24.0957 27.3543 23.9857 26.8775ZM60.6674 40.1495C61.0809 40.1495 61.4174 40.486 61.4174 40.8995V46.357C61.4174 48.999 60.4122 51.508 58.587 53.422C57.9177 54.1235 58.07 54.3893 58.07 59.3753C58.07 60.478 57.1727 61.3753 56.07 61.3753H45.5662C44.4634 61.3753 43.5662 60.478 43.5662 59.3753C43.5662 53.4975 43.714 53.3718 43.0772 52.669C36.0587 44.9193 33.9404 46.5193 35.3824 44.3638C36.2869 43.013 38.1227 42.6495 39.4739 43.5533C40.1467 44.0035 40.3327 44.2098 40.6664 44.0333C41.0372 43.8348 40.9319 44.9173 40.9319 27.582C40.9319 26.4048 41.8897 25.447 43.0672 25.447C44.2444 25.447 45.2022 26.4048 45.2022 27.582V39.6498C45.2022 39.9258 45.4262 40.1498 45.7022 40.1498H60.6674V40.1495ZM62.3725 32.16C62.3725 32.5735 62.0359 32.91 61.6225 32.91H46.2017V27.5818C46.2017 25.853 44.7952 24.4468 43.0664 24.4468C41.3377 24.4468 39.9314 25.853 39.9314 27.5818V32.91H24.0682V31.52H29.5422C30.5072 31.52 31.2922 30.7348 31.2922 29.77V27.6275C31.2922 26.6628 30.5072 25.8775 29.5422 25.8775H23.5609C23.0012 25.0178 22.0334 24.4468 20.9332 24.4468C19.8329 24.4468 18.8652 25.0175 18.3057 25.8775H13.2799C12.3149 25.8775 11.5299 26.6628 11.5299 27.6275V29.77C11.5299 30.7348 12.3149 31.52 13.2799 31.52H17.7979V32.91H2.37744C1.96394 32.91 1.62744 32.5735 1.62744 32.16V3.375C1.62744 2.9615 1.96394 2.625 2.37744 2.625H61.6225C62.0359 2.625 62.3725 2.9615 62.3725 3.375V32.16Z" fill="#491352"/>
<path d="M8.36548 11.3152H6.22198C5.25698 11.3152 4.47198 12.1004 4.47198 13.0652V15.2084C4.47198 16.1732 5.25698 16.9584 6.22198 16.9584H8.36548C9.33048 16.9584 10.1155 16.1732 10.1155 15.2084V13.0652C10.1155 12.1002 9.33048 11.3152 8.36548 11.3152ZM9.11548 15.2084C9.11548 15.6219 8.77898 15.9584 8.36548 15.9584H6.22198C5.80848 15.9584 5.47198 15.6219 5.47198 15.2084V13.0652C5.47198 12.6517 5.80848 12.3152 6.22198 12.3152H8.36548C8.77898 12.3152 9.11548 12.6517 9.11548 13.0652V15.2084Z" fill="#491352"/>
<path d="M15.4242 11.3152H13.2809C12.3159 11.3152 11.5309 12.1004 11.5309 13.0652V15.2084C11.5309 16.1732 12.3159 16.9584 13.2809 16.9584H15.4242C16.3892 16.9584 17.1742 16.1732 17.1742 15.2084V13.0652C17.1742 12.1002 16.3892 11.3152 15.4242 11.3152ZM16.1742 15.2084C16.1742 15.6219 15.8377 15.9584 15.4242 15.9584H13.2809C12.8674 15.9584 12.5309 15.6219 12.5309 15.2084V13.0652C12.5309 12.6517 12.8674 12.3152 13.2809 12.3152H15.4242C15.8377 12.3152 16.1742 12.6517 16.1742 13.0652V15.2084Z" fill="#491352"/>
<path d="M22.4831 11.3152H20.3398C19.3748 11.3152 18.5898 12.1004 18.5898 13.0652V15.2084C18.5898 16.1732 19.3748 16.9584 20.3398 16.9584H22.4831C23.4481 16.9584 24.2331 16.1732 24.2331 15.2084V13.0652C24.2331 12.1002 23.4481 11.3152 22.4831 11.3152ZM23.2331 15.2084C23.2331 15.6219 22.8966 15.9584 22.4831 15.9584H20.3398C19.9263 15.9584 19.5898 15.6219 19.5898 15.2084V13.0652C19.5898 12.6517 19.9263 12.3152 20.3398 12.3152H22.4831C22.8966 12.3152 23.2331 12.6517 23.2331 13.0652V15.2084Z" fill="#491352"/>
<path d="M27.3987 16.9584H29.5422C30.5072 16.9584 31.2922 16.1732 31.2922 15.2084V13.0652C31.2922 12.1004 30.5072 11.3152 29.5422 11.3152H27.3987C26.4337 11.3152 25.6487 12.1004 25.6487 13.0652V15.2084C25.6487 16.1732 26.4337 16.9584 27.3987 16.9584ZM26.6487 13.0652C26.6487 12.6517 26.9852 12.3152 27.3987 12.3152H29.5422C29.9557 12.3152 30.2922 12.6517 30.2922 13.0652V15.2084C30.2922 15.6219 29.9557 15.9584 29.5422 15.9584H27.3987C26.9852 15.9584 26.6487 15.6219 26.6487 15.2084V13.0652Z" fill="#491352"/>
<path d="M8.36548 4.01514H6.22198C5.25698 4.01514 4.47198 4.80039 4.47198 5.76514V7.90864C4.47198 8.87339 5.25698 9.65864 6.22198 9.65864H8.36548C9.33048 9.65864 10.1155 8.87339 10.1155 7.90864V5.76514C10.1155 4.80014 9.33048 4.01514 8.36548 4.01514ZM9.11548 7.90864C9.11548 8.32214 8.77898 8.65864 8.36548 8.65864H6.22198C5.80848 8.65864 5.47198 8.32214 5.47198 7.90864V5.76514C5.47198 5.35164 5.80848 5.01514 6.22198 5.01514H8.36548C8.77898 5.01514 9.11548 5.35164 9.11548 5.76514V7.90864Z" fill="#491352"/>
<path d="M15.4242 4.01514H13.2809C12.3159 4.01514 11.5309 4.80039 11.5309 5.76514V7.90864C11.5309 8.87339 12.3159 9.65864 13.2809 9.65864H15.4242C16.3892 9.65864 17.1742 8.87339 17.1742 7.90864V5.76514C17.1742 4.80014 16.3892 4.01514 15.4242 4.01514ZM16.1742 7.90864C16.1742 8.32214 15.8377 8.65864 15.4242 8.65864H13.2809C12.8674 8.65864 12.5309 8.32214 12.5309 7.90864V5.76514C12.5309 5.35164 12.8674 5.01514 13.2809 5.01514H15.4242C15.8377 5.01514 16.1742 5.35164 16.1742 5.76514V7.90864Z" fill="#491352"/>
<path d="M22.4831 4.01514H20.3398C19.3748 4.01514 18.5898 4.80039 18.5898 5.76514V7.90864C18.5898 8.87339 19.3748 9.65864 20.3398 9.65864H22.4831C23.4481 9.65864 24.2331 8.87339 24.2331 7.90864V5.76514C24.2331 4.80014 23.4481 4.01514 22.4831 4.01514ZM23.2331 7.90864C23.2331 8.32214 22.8966 8.65864 22.4831 8.65864H20.3398C19.9263 8.65864 19.5898 8.32214 19.5898 7.90864V5.76514C19.5898 5.35164 19.9263 5.01514 20.3398 5.01514H22.4831C22.8966 5.01514 23.2331 5.35164 23.2331 5.76514V7.90864Z" fill="#491352"/>
<path d="M27.3987 9.65864H29.5422C30.5072 9.65864 31.2922 8.87339 31.2922 7.90864V5.76514C31.2922 4.80039 30.5072 4.01514 29.5422 4.01514H27.3987C26.4337 4.01514 25.6487 4.80039 25.6487 5.76514V7.90864C25.6487 8.87339 26.4337 9.65864 27.3987 9.65864ZM26.6487 5.76514C26.6487 5.35164 26.9852 5.01514 27.3987 5.01514H29.5422C29.9557 5.01514 30.2922 5.35164 30.2922 5.76514V7.90864C30.2922 8.32214 29.9557 8.65864 29.5422 8.65864H27.3987C26.9852 8.65864 26.6487 8.32214 26.6487 7.90864V5.76514Z" fill="#491352"/>
<path d="M36.6008 4.01514H34.4576C33.4928 4.01514 32.7076 4.80039 32.7076 5.76514V7.90864C32.7076 8.87339 33.4928 9.65864 34.4576 9.65864H36.6008C37.5656 9.65864 38.3508 8.87339 38.3508 7.90864V5.76514C38.3508 4.80014 37.5658 4.01514 36.6008 4.01514ZM37.3508 7.90864C37.3508 8.32214 37.0143 8.65864 36.6008 8.65864H34.4576C34.0441 8.65864 33.7076 8.32214 33.7076 7.90864V5.76514C33.7076 5.35164 34.0441 5.01514 34.4576 5.01514H36.6008C37.0143 5.01514 37.3508 5.35164 37.3508 5.76514V7.90864Z" fill="#491352"/>
<path d="M41.5165 9.65864H43.66C44.6248 9.65864 45.41 8.87339 45.41 7.90864V5.76514C45.41 4.80039 44.6248 4.01514 43.66 4.01514H41.5165C40.5518 4.01514 39.7665 4.80039 39.7665 5.76514V7.90864C39.7665 8.87339 40.5518 9.65864 41.5165 9.65864ZM40.7665 5.76514C40.7665 5.35164 41.103 5.01514 41.5165 5.01514H43.66C44.0735 5.01514 44.41 5.35164 44.41 5.76514V7.90864C44.41 8.32214 44.0735 8.65864 43.66 8.65864H41.5165C41.103 8.65864 40.7665 8.32214 40.7665 7.90864V5.76514Z" fill="#491352"/>
<path d="M50.719 4.01514H48.5757C47.611 4.01514 46.8257 4.80039 46.8257 5.76514V7.90864C46.8257 8.87339 47.611 9.65864 48.5757 9.65864H50.719C51.6837 9.65864 52.469 8.87339 52.469 7.90864V5.76514C52.469 4.80014 51.6837 4.01514 50.719 4.01514ZM51.469 7.90864C51.469 8.32214 51.1325 8.65864 50.719 8.65864H48.5757C48.1622 8.65864 47.8257 8.32214 47.8257 7.90864V5.76514C47.8257 5.35164 48.1622 5.01514 48.5757 5.01514H50.719C51.1325 5.01514 51.469 5.35164 51.469 5.76514V7.90864Z" fill="#491352"/>
<path d="M57.7779 4.01514H55.6344C54.6696 4.01514 53.8844 4.80039 53.8844 5.76514V7.90864C53.8844 8.87339 54.6696 9.65864 55.6344 9.65864H57.7779C58.7426 9.65864 59.5279 8.87339 59.5279 7.90864V5.76514C59.5279 4.80014 58.7429 4.01514 57.7779 4.01514ZM58.5279 7.90864C58.5279 8.32214 58.1914 8.65864 57.7779 8.65864H55.6344C55.2209 8.65864 54.8844 8.32214 54.8844 7.90864V5.76514C54.8844 5.35164 55.2209 5.01514 55.6344 5.01514H57.7779C58.1914 5.01514 58.5279 5.35164 58.5279 5.76514V7.90864Z" fill="#491352"/>
<path d="M8.36548 18.5962H6.22198C5.25698 18.5962 4.47198 19.3814 4.47198 20.3462V22.4894C4.47198 23.4542 5.25698 24.2394 6.22198 24.2394H8.36548C9.33048 24.2394 10.1155 23.4542 10.1155 22.4894V20.3462C10.1155 19.3812 9.33048 18.5962 8.36548 18.5962ZM9.11548 22.4894C9.11548 22.9029 8.77898 23.2394 8.36548 23.2394H6.22198C5.80848 23.2394 5.47198 22.9029 5.47198 22.4894V20.3462C5.47198 19.9327 5.80848 19.5962 6.22198 19.5962H8.36548C8.77898 19.5962 9.11548 19.9327 9.11548 20.3462V22.4894Z" fill="#491352"/>
<path d="M15.4242 18.5962H13.2809C12.3159 18.5962 11.5309 19.3814 11.5309 20.3462V22.4894C11.5309 23.4542 12.3159 24.2394 13.2809 24.2394H15.4242C16.3892 24.2394 17.1742 23.4542 17.1742 22.4894V20.3462C17.1742 19.3812 16.3892 18.5962 15.4242 18.5962ZM16.1742 22.4894C16.1742 22.9029 15.8377 23.2394 15.4242 23.2394H13.2809C12.8674 23.2394 12.5309 22.9029 12.5309 22.4894V20.3462C12.5309 19.9327 12.8674 19.5962 13.2809 19.5962H15.4242C15.8377 19.5962 16.1742 19.9327 16.1742 20.3462V22.4894Z" fill="#491352"/>
<path d="M22.4831 18.5962H20.3398C19.3748 18.5962 18.5898 19.3814 18.5898 20.3462V22.4894C18.5898 23.4542 19.3748 24.2394 20.3398 24.2394H22.4831C23.4481 24.2394 24.2331 23.4542 24.2331 22.4894V20.3462C24.2331 19.3812 23.4481 18.5962 22.4831 18.5962ZM23.2331 22.4894C23.2331 22.9029 22.8966 23.2394 22.4831 23.2394H20.3398C19.9263 23.2394 19.5898 22.9029 19.5898 22.4894V20.3462C19.5898 19.9327 19.9263 19.5962 20.3398 19.5962H22.4831C22.8966 19.5962 23.2331 19.9327 23.2331 20.3462V22.4894Z" fill="#491352"/>
<path d="M36.6009 11.3152H34.4577C33.4929 11.3152 32.7077 12.1004 32.7077 13.0652V17.8462C32.7077 18.2597 32.3712 18.5962 31.9577 18.5962H27.3987C26.4337 18.5962 25.6487 19.3814 25.6487 20.3462V22.4894C25.6487 23.4542 26.4337 24.2394 27.3987 24.2394H36.6009C37.5657 24.2394 38.3509 23.4542 38.3509 22.4894V13.0652C38.3509 12.1002 37.5659 11.3152 36.6009 11.3152ZM37.3509 22.4894C37.3509 22.9029 37.0144 23.2394 36.6009 23.2394H27.3987C26.9852 23.2394 26.6487 22.9029 26.6487 22.4894V20.3462C26.6487 19.9327 26.9852 19.5962 27.3987 19.5962H31.9577C32.9224 19.5962 33.7077 18.8109 33.7077 17.8462V13.0652C33.7077 12.6517 34.0442 12.3152 34.4577 12.3152H36.6009C37.0144 12.3152 37.3509 12.6517 37.3509 13.0652V22.4894Z" fill="#491352"/>
<path d="M43.6603 18.5962H41.5168C40.5521 18.5962 39.7668 19.3814 39.7668 20.3462V22.4894C39.7668 23.4542 40.5521 24.2394 41.5168 24.2394H43.6603C44.6251 24.2394 45.4104 23.4542 45.4104 22.4894V20.3462C45.4104 19.3812 44.6251 18.5962 43.6603 18.5962ZM44.4104 22.4894C44.4104 22.9029 44.0739 23.2394 43.6603 23.2394H41.5168C41.1033 23.2394 40.7668 22.9029 40.7668 22.4894V20.3462C40.7668 19.9327 41.1033 19.5962 41.5168 19.5962H43.6603C44.0739 19.5962 44.4104 19.9327 44.4104 20.3462V22.4894Z" fill="#491352"/>
<path d="M8.36548 25.8772H6.22198C5.25698 25.8772 4.47198 26.6624 4.47198 27.6272V29.7704C4.47198 30.7352 5.25698 31.5204 6.22198 31.5204H8.36548C9.33048 31.5204 10.1155 30.7352 10.1155 29.7704V27.6272C10.1155 26.6622 9.33048 25.8772 8.36548 25.8772ZM9.11548 29.7704C9.11548 30.1839 8.77898 30.5204 8.36548 30.5204H6.22198C5.80848 30.5204 5.47198 30.1839 5.47198 29.7704V27.6272C5.47198 27.2137 5.80848 26.8772 6.22198 26.8772H8.36548C8.77898 26.8772 9.11548 27.2137 9.11548 27.6272V29.7704Z" fill="#491352"/>
<path d="M36.6008 25.8772H34.4576C33.4928 25.8772 32.7076 26.6624 32.7076 27.6272V29.7704C32.7076 30.7352 33.4928 31.5204 34.4576 31.5204H36.6008C37.5656 31.5204 38.3508 30.7352 38.3508 29.7704V27.6272C38.3508 26.6622 37.5658 25.8772 36.6008 25.8772ZM37.3508 29.7704C37.3508 30.1839 37.0143 30.5204 36.6008 30.5204H34.4576C34.0441 30.5204 33.7076 30.1839 33.7076 29.7704V27.6272C33.7076 27.2137 34.0441 26.8772 34.4576 26.8772H36.6008C37.0143 26.8772 37.3508 27.2137 37.3508 27.6272V29.7704Z" fill="#491352"/>
<path d="M50.7191 11.3152H41.5168C40.5521 11.3152 39.7668 12.1004 39.7668 13.0652V15.2084C39.7668 16.1732 40.5521 16.9584 41.5168 16.9584H50.7191C51.6838 16.9584 52.4691 16.1732 52.4691 15.2084V13.0652C52.4691 12.1002 51.6838 11.3152 50.7191 11.3152ZM51.4691 15.2084C51.4691 15.6219 51.1326 15.9584 50.7191 15.9584H41.5168C41.1033 15.9584 40.7668 15.6219 40.7668 15.2084V13.0652C40.7668 12.6517 41.1033 12.3152 41.5168 12.3152H50.7191C51.1326 12.3152 51.4691 12.6517 51.4691 13.0652V15.2084Z" fill="#491352"/>
<path d="M50.719 18.5962H48.5757C47.611 18.5962 46.8257 19.3814 46.8257 20.3462V22.4894C46.8257 23.4542 47.611 24.2394 48.5757 24.2394H50.719C51.6837 24.2394 52.469 23.4542 52.469 22.4894V20.3462C52.469 19.3812 51.6837 18.5962 50.719 18.5962ZM51.469 22.4894C51.469 22.9029 51.1325 23.2394 50.719 23.2394H48.5757C48.1622 23.2394 47.8257 22.9029 47.8257 22.4894V20.3462C47.8257 19.9327 48.1622 19.5962 48.5757 19.5962H50.719C51.1325 19.5962 51.469 19.9327 51.469 20.3462V22.4894Z" fill="#491352"/>
<path d="M50.719 25.8772H48.5757C47.611 25.8772 46.8257 26.6624 46.8257 27.6272V29.7704C46.8257 30.7352 47.611 31.5204 48.5757 31.5204H50.719C51.6837 31.5204 52.469 30.7352 52.469 29.7704V27.6272C52.469 26.6622 51.6837 25.8772 50.719 25.8772ZM51.469 29.7704C51.469 30.1839 51.1325 30.5204 50.719 30.5204H48.5757C48.1622 30.5204 47.8257 30.1839 47.8257 29.7704V27.6272C47.8257 27.2137 48.1622 26.8772 48.5757 26.8772H50.719C51.1325 26.8772 51.469 27.2137 51.469 27.6272V29.7704Z" fill="#491352"/>
<path d="M57.7779 11.3152H55.6344C54.6696 11.3152 53.8844 12.1004 53.8844 13.0652V15.2084C53.8844 16.1732 54.6696 16.9584 55.6344 16.9584H57.7779C58.7426 16.9584 59.5279 16.1732 59.5279 15.2084V13.0652C59.5279 12.1002 58.7429 11.3152 57.7779 11.3152ZM58.5279 15.2084C58.5279 15.6219 58.1914 15.9584 57.7779 15.9584H55.6344C55.2209 15.9584 54.8844 15.6219 54.8844 15.2084V13.0652C54.8844 12.6517 55.2209 12.3152 55.6344 12.3152H57.7779C58.1914 12.3152 58.5279 12.6517 58.5279 13.0652V15.2084Z" fill="#491352"/>
<path d="M57.7779 18.5962H55.6344C54.6696 18.5962 53.8844 19.3814 53.8844 20.3462V22.4894C53.8844 23.4542 54.6696 24.2394 55.6344 24.2394H57.7779C58.7426 24.2394 59.5279 23.4542 59.5279 22.4894V20.3462C59.5279 19.3812 58.7429 18.5962 57.7779 18.5962ZM58.5279 22.4894C58.5279 22.9029 58.1914 23.2394 57.7779 23.2394H55.6344C55.2209 23.2394 54.8844 22.9029 54.8844 22.4894V20.3462C54.8844 19.9327 55.2209 19.5962 55.6344 19.5962H57.7779C58.1914 19.5962 58.5279 19.9327 58.5279 20.3462V22.4894Z" fill="#491352"/>
<path d="M57.7779 25.8772H55.6344C54.6696 25.8772 53.8844 26.6624 53.8844 27.6272V29.7704C53.8844 30.7352 54.6696 31.5204 55.6344 31.5204H57.7779C58.7426 31.5204 59.5279 30.7352 59.5279 29.7704V27.6272C59.5279 26.6622 58.7429 25.8772 57.7779 25.8772ZM58.5279 29.7704C58.5279 30.1839 58.1914 30.5204 57.7779 30.5204H55.6344C55.2209 30.5204 54.8844 30.1839 54.8844 29.7704V27.6272C54.8844 27.2137 55.2209 26.8772 55.6344 26.8772H57.7779C58.1914 26.8772 58.5279 27.2137 58.5279 27.6272V29.7704Z" fill="#491352"/>
</svg>
