<svg width="40" height="40" viewBox="0 0 40 40" fill="none" xmlns="http://www.w3.org/2000/svg">
<g clip-path="url(#clip0_3930_8275)">
<path d="M20.1476 39.3275C24.4828 39.2482 27.8749 35.5288 27.8749 31.193V27.8747H31.4543C35.8524 27.8747 39.4084 24.2691 39.3277 19.8525C39.2484 15.5174 35.529 12.1252 31.1931 12.1252H27.8749V14.2729C27.8749 17.4359 25.3107 19.9999 22.1478 19.9999H17.8525C14.6896 19.9999 12.1255 22.5641 12.1255 25.727V27.8746V31.4541C12.1254 35.8523 15.731 39.4084 20.1476 39.3275Z" fill="#FFDC64"/>
<path d="M27.8748 27.8748H21.4318C20.641 27.8748 20 28.5158 20 29.3066V31.8122C20 33.9868 21.7628 35.7495 23.9373 35.7495C26.112 35.7495 27.8747 33.9867 27.8747 31.8122V27.8748H27.8748Z" fill="#FFF082"/>
<path d="M23.5795 33.6019C24.3703 33.6019 25.0113 32.9609 25.0113 32.1701C25.0113 31.3794 24.3703 30.7383 23.5795 30.7383C22.7887 30.7383 22.1477 31.3794 22.1477 32.1701C22.1477 32.9609 22.7887 33.6019 23.5795 33.6019Z" fill="white"/>
<path d="M19.8526 0.672551C15.5174 0.751848 12.1253 4.47122 12.1253 8.80716V12.1254H8.54585C4.14772 12.1254 0.591786 15.731 0.67249 20.1476C0.751787 24.4827 4.47116 27.8748 8.80702 27.8748H12.1253V25.7272C12.1253 22.5642 14.6894 20.0001 17.8523 20.0001H22.1476C25.3106 20.0001 27.8747 17.436 27.8747 14.2731V12.1254V8.54599C27.8748 4.14779 24.2692 0.591848 19.8526 0.672551Z" fill="#00AAF0"/>
<path d="M12.1252 12.1253H18.5682C19.359 12.1253 20 11.4843 20 10.6935V8.18789C20 6.01336 18.2372 4.25055 16.0627 4.25055C13.8881 4.25055 12.1253 6.01336 12.1253 8.18789V12.1253H12.1252Z" fill="#0096DC"/>
<path d="M16.4206 9.26179C17.2113 9.26179 17.8524 8.62075 17.8524 7.82999C17.8524 7.03923 17.2113 6.39819 16.4206 6.39819C15.6298 6.39819 14.9888 7.03923 14.9888 7.82999C14.9888 8.62075 15.6298 9.26179 16.4206 9.26179Z" fill="white"/>
<path d="M33.6041 16.1885C33.5013 16.1885 33.3965 16.1662 33.2971 16.1186C32.9084 15.934 32.4952 15.8089 32.0702 15.7487C31.6787 15.6928 31.4067 15.3307 31.462 14.9391C31.5179 14.5476 31.8808 14.2771 32.2716 14.3309C32.8406 14.412 33.3929 14.5784 33.9124 14.8265C34.2695 14.9964 34.4213 15.4236 34.2507 15.7801C34.1284 16.0382 33.8718 16.1885 33.6041 16.1885Z" fill="#FFF082"/>
<path d="M35.0336 24.2227C34.8526 24.2227 34.6722 24.1549 34.5323 24.0178C34.2499 23.7416 34.2456 23.288 34.5225 23.0055C35.3139 22.1981 35.7495 21.1305 35.7495 20C35.7495 19.1163 35.4831 18.267 34.9791 17.5447C34.7533 17.2203 34.8322 16.7743 35.1567 16.5477C35.4824 16.3226 35.9278 16.4023 36.1536 16.7252C36.8262 17.6893 37.1813 18.8212 37.1813 19.9998C37.1813 21.5071 36.6003 22.9305 35.5447 24.0078C35.4049 24.1506 35.2189 24.2227 35.0336 24.2227Z" fill="#FFF082"/>
<path d="M6.39615 23.8115C6.49888 23.8115 6.60372 23.8338 6.7031 23.8814C7.09185 24.066 7.50497 24.1911 7.93005 24.2512C8.32153 24.3072 8.59349 24.6693 8.53825 25.0608C8.48232 25.4523 8.11942 25.7229 7.72864 25.669C7.15958 25.588 6.60732 25.4215 6.08786 25.1734C5.73068 25.0036 5.57888 24.5764 5.74951 24.2198C5.87185 23.9618 6.12841 23.8115 6.39615 23.8115Z" fill="#0096DC"/>
<path d="M4.9665 15.7775C5.14752 15.7775 5.32791 15.8453 5.46783 15.9823C5.75025 16.2585 5.75447 16.7122 5.4776 16.9947C4.68627 17.8021 4.25064 18.8695 4.25064 20C4.25064 20.8836 4.51705 21.733 5.02103 22.4553C5.24682 22.7797 5.16791 23.2257 4.84346 23.4522C4.51768 23.6774 4.07236 23.5976 3.8465 23.2747C3.174 22.3105 2.81885 21.1787 2.81885 20C2.81885 18.4927 3.39978 17.0693 4.45541 15.992C4.59533 15.8494 4.78127 15.7775 4.9665 15.7775Z" fill="#0096DC"/>
<path d="M37.5525 14.0129C35.9322 12.3628 33.7666 11.4541 31.4542 11.4541H30.7385C30.3678 11.4541 30.0673 11.7546 30.0673 12.1253C30.0673 12.4959 30.3677 12.7964 30.7385 12.7964H31.4542C33.4033 12.7964 35.2289 13.5625 36.5946 14.9534C37.9599 16.344 38.6922 18.1842 38.6564 20.1352C38.5852 24.0328 35.2372 27.2035 31.193 27.2035H20.0002C19.6295 27.2035 19.329 27.504 19.329 27.8747C19.329 28.2454 19.6294 28.5459 20.0002 28.5459H27.2037V31.4542C27.2037 33.4032 26.4376 35.2289 25.0468 36.5946C23.6562 37.9599 21.8148 38.6912 19.865 38.6565C15.9675 38.5853 12.7966 35.2372 12.7966 31.1931V25.7271C12.7966 22.9393 15.0648 20.6712 17.8526 20.6712H22.1479C25.6759 20.6712 28.5461 17.801 28.5461 14.273V8.54597C28.5461 6.23378 27.6373 4.068 25.9873 2.44776C24.3375 0.827997 22.1544 -0.0404402 19.8405 0.00151297C15.2164 0.0862005 11.4545 4.03636 11.4545 8.80714V11.4542H8.54617C6.23398 11.4542 4.0682 12.3629 2.44797 14.013C0.828206 15.6628 -0.0406217 17.8457 0.001722 20.1597C0.0864095 24.7839 4.03656 28.5458 8.80734 28.5458H9.26195C9.63258 28.5458 9.93312 28.2453 9.93312 27.8746C9.93312 27.5039 9.63266 27.2035 9.26195 27.2035H8.80734C4.7632 27.2035 1.41516 24.0326 1.34383 20.1351C1.30821 18.1842 2.04047 16.3439 3.40578 14.9533C4.77156 13.5625 6.59719 12.7964 8.54617 12.7964H20.0003C20.371 12.7964 20.6715 12.4959 20.6715 12.1252C20.6715 11.7546 20.3711 11.454 20.0003 11.454H12.7967V8.80698C12.7967 4.76284 15.9676 1.41479 19.8651 1.34347C21.8166 1.30847 23.6564 2.04011 25.0469 3.40542C26.4378 4.7712 27.2038 6.59675 27.2038 8.54581V14.2728C27.2038 17.0607 24.9357 19.3288 22.1479 19.3288H17.8526C14.3246 19.3288 11.4544 22.199 11.4544 25.727V31.1929C11.4544 35.9638 15.2163 39.9139 19.8404 39.9985C19.8944 39.9995 19.948 39.9999 20.0017 39.9999C22.2557 39.9999 24.3759 39.1342 25.9872 37.5522C27.6373 35.932 28.546 33.7664 28.546 31.454V28.5457H31.1932C35.9639 28.5457 39.914 24.7838 39.9987 20.1597C40.0409 17.8457 39.1722 15.6627 37.5525 14.0129Z" fill="black"/>
<path d="M16.4208 7.06933C16.7914 7.06933 17.0919 6.76886 17.0919 6.39816C17.0919 6.02746 16.7915 5.72699 16.4208 5.72699C15.2612 5.72699 14.3179 6.67035 14.3179 7.82988C14.3179 8.98941 15.2612 9.93277 16.4208 9.93277C17.5803 9.93277 18.5237 8.98941 18.5237 7.82988C18.5237 7.45925 18.2232 7.15871 17.8525 7.15871C17.4819 7.15871 17.1813 7.45918 17.1813 7.82988C17.1813 8.24933 16.8401 8.5905 16.4207 8.5905C16.0012 8.5905 15.6601 8.24933 15.6601 7.82988C15.6601 7.41051 16.0014 7.06933 16.4208 7.06933Z" fill="black"/>
<path d="M23.5795 31.4094C23.9502 31.4094 24.2506 31.109 24.2506 30.7382C24.2506 30.3676 23.9502 30.0671 23.5795 30.0671C22.4199 30.0671 21.4766 31.0104 21.4766 32.17C21.4766 33.3295 22.4199 34.2729 23.5795 34.2729C24.739 34.2729 25.6823 33.3295 25.6823 32.17C25.6823 31.7993 25.382 31.4988 25.0112 31.4988C24.6404 31.4988 24.34 31.7993 24.34 32.17C24.34 32.5894 23.9988 32.9306 23.5794 32.9306C23.1599 32.9306 22.8187 32.5894 22.8187 32.17C22.8188 31.7506 23.1602 31.4094 23.5795 31.4094Z" fill="black"/>
</g>
<defs>
<clipPath id="clip0_3930_8275">
<rect width="40" height="40" fill="white"/>
</clipPath>
</defs>
</svg>
