<svg width="16" height="16" viewBox="0 0 16 16" fill="none" xmlns="http://www.w3.org/2000/svg">
<path d="M8.80717 2.06809C8.47704 1.39917 7.52317 1.39918 7.19304 2.06809L5.62106 5.25325L2.10604 5.76401C1.36784 5.87127 1.07308 6.77847 1.60724 7.29914L4.15074 9.77841L3.5503 13.2792C3.4242 14.0145 4.19589 14.5751 4.85616 14.228L8.0001 12.5751L11.144 14.228C11.8043 14.5751 12.576 14.0145 12.4498 13.2792L11.8494 9.77841L14.3929 7.29914C14.9271 6.77847 14.6323 5.87127 13.8941 5.76401L10.3791 5.25325L8.80717 2.06809Z" fill="#D55F31"/>
<path d="M0.77609 2.52068C0.603582 2.73631 0.638543 3.05095 0.854177 3.22346L2.52084 4.55679C2.73647 4.7293 3.05112 4.69434 3.22362 4.47871C3.39613 4.26307 3.36117 3.94843 3.14554 3.77593L1.47887 2.44259C1.26324 2.27009 0.94859 2.30505 0.77609 2.52068Z" fill="#D55F31"/>
<path d="M15.2236 12.1457C15.3962 11.9301 15.3612 11.6154 15.1456 11.4429L13.4789 10.1096C13.2632 9.93706 12.9486 9.97206 12.7761 10.1877C12.6036 10.4033 12.6386 10.7179 12.8542 10.8905L14.5208 12.2238C14.7365 12.3963 15.0511 12.3613 15.2236 12.1457Z" fill="#D55F31"/>
<path d="M0.854177 11.4429C0.638543 11.6154 0.603582 11.9301 0.77609 12.1457C0.94859 12.3613 1.26324 12.3963 1.47887 12.2238L3.14554 10.8905C3.36117 10.7179 3.39613 10.4033 3.22362 10.1877C3.05112 9.97206 2.73647 9.93706 2.52084 10.1096L0.854177 11.4429Z" fill="#D55F31"/>
<path d="M15.2236 2.52068C15.3962 2.73631 15.3612 3.05095 15.1456 3.22346L13.4789 4.55679C13.2632 4.7293 12.9486 4.69434 12.7761 4.47871C12.6036 4.26307 12.6386 3.94843 12.8542 3.77593L14.5208 2.44259C14.7365 2.27009 15.0511 2.30505 15.2236 2.52068Z" fill="#D55F31"/>
</svg>
