<svg width="40" height="40" viewBox="0 0 40 40" fill="none" xmlns="http://www.w3.org/2000/svg">
<path d="M38.5135 20.8817H1.48633C1.05492 20.8817 0.705078 20.5319 0.705078 20.1005V2.10938C0.705078 1.67797 1.05492 1.32812 1.48633 1.32812H38.5134C38.9448 1.32812 39.2946 1.67797 39.2946 2.10938V20.1005C39.2948 20.532 38.9449 20.8817 38.5135 20.8817Z" fill="#40C4DF"/>
<path d="M6.00923 8.16559V9.50465C6.00923 9.93746 5.65923 10.2859 5.22798 10.2859H3.88892C3.45767 10.2859 3.10767 9.93746 3.10767 9.50465V8.16559C3.10767 7.73434 3.45767 7.38434 3.88892 7.38434H5.22798C5.65923 7.38434 6.00923 7.73434 6.00923 8.16559Z" fill="#D8D6D7"/>
<path d="M10.4217 8.16559V9.50465C10.4217 9.93746 10.0717 10.2859 9.64043 10.2859H8.2998C7.86855 10.2859 7.51855 9.93746 7.51855 9.50465V8.16559C7.51855 7.73434 7.86855 7.38434 8.2998 7.38434H9.64043C10.0717 7.38434 10.4217 7.73434 10.4217 8.16559Z" fill="#D8D6D7"/>
<path d="M14.8327 8.16559V9.50465C14.8327 9.93746 14.4827 10.2859 14.0515 10.2859H12.7124C12.2812 10.2859 11.9312 9.93746 11.9312 9.50465V8.16559C11.9312 7.73434 12.2812 7.38434 12.7124 7.38434H14.0515C14.4827 7.38434 14.8327 7.73434 14.8327 8.16559Z" fill="#D8D6D7"/>
<path d="M19.2451 8.16559V9.50465C19.2451 9.93746 18.8951 10.2859 18.4638 10.2859H17.1248C16.6919 10.2859 16.3435 9.93746 16.3435 9.50465V8.16559C16.3435 7.73434 16.6919 7.38434 17.1248 7.38434H18.4638C18.8951 7.38434 19.2451 7.73434 19.2451 8.16559Z" fill="#D8D6D7"/>
<path d="M6.00923 3.60309V4.94215C6.00923 5.37496 5.65923 5.7234 5.22798 5.7234H3.88892C3.45767 5.7234 3.10767 5.37496 3.10767 4.94215V3.60309C3.10767 3.17184 3.45767 2.82184 3.88892 2.82184H5.22798C5.65923 2.82184 6.00923 3.17184 6.00923 3.60309Z" fill="#D8D6D7"/>
<path d="M10.4217 3.60309V4.94215C10.4217 5.37496 10.0717 5.7234 9.64043 5.7234H8.2998C7.86855 5.7234 7.51855 5.37496 7.51855 4.94215V3.60309C7.51855 3.17184 7.86855 2.82184 8.2998 2.82184H9.64043C10.0717 2.82184 10.4217 3.17184 10.4217 3.60309Z" fill="#D8D6D7"/>
<path d="M14.8327 3.60309V4.94215C14.8327 5.37496 14.4827 5.7234 14.0515 5.7234H12.7124C12.2812 5.7234 11.9312 5.37496 11.9312 4.94215V3.60309C11.9312 3.17184 12.2812 2.82184 12.7124 2.82184H14.0515C14.4827 2.82184 14.8327 3.17184 14.8327 3.60309Z" fill="#D8D6D7"/>
<path d="M19.2451 3.60309V4.94215C19.2451 5.37496 18.8951 5.7234 18.4638 5.7234H17.1248C16.6919 5.7234 16.3435 5.37496 16.3435 4.94215V3.60309C16.3435 3.17184 16.6919 2.82184 17.1248 2.82184H18.4638C18.8951 2.82184 19.2451 3.17184 19.2451 3.60309Z" fill="#D8D6D7"/>
<path d="M23.6562 3.60309V4.94215C23.6562 5.37496 23.3078 5.7234 22.8749 5.7234H21.5359C21.1046 5.7234 20.7546 5.37496 20.7546 4.94215V3.60309C20.7546 3.17184 21.1046 2.82184 21.5359 2.82184H22.8749C23.3078 2.82184 23.6562 3.17184 23.6562 3.60309Z" fill="#D8D6D7"/>
<path d="M28.0686 3.60309V4.94215C28.0686 5.37496 27.7186 5.7234 27.2873 5.7234H25.9482C25.517 5.7234 25.167 5.37496 25.167 4.94215V3.60309C25.167 3.17184 25.517 2.82184 25.9482 2.82184H27.2873C27.7186 2.82184 28.0686 3.17184 28.0686 3.60309Z" fill="#D8D6D7"/>
<path d="M32.4812 3.60309V4.94215C32.4812 5.37496 32.1312 5.7234 31.7 5.7234H30.3594C29.9281 5.7234 29.5781 5.37496 29.5781 4.94215V3.60309C29.5781 3.17184 29.9281 2.82184 30.3594 2.82184H31.7C32.1312 2.82184 32.4812 3.17184 32.4812 3.60309Z" fill="#D8D6D7"/>
<path d="M32.4812 3.60309V4.94215C32.4812 5.37496 32.1312 5.7234 31.7 5.7234H30.3594C29.9281 5.7234 29.5781 5.37496 29.5781 4.94215V3.60309C29.5781 3.17184 29.9281 2.82184 30.3594 2.82184H31.7C32.1312 2.82184 32.4812 3.17184 32.4812 3.60309Z" fill="#D8D6D7"/>
<path d="M36.892 3.60309V4.94215C36.892 5.37496 36.542 5.7234 36.1108 5.7234H34.7717C34.3405 5.7234 33.9905 5.37496 33.9905 4.94215V3.60309C33.9905 3.17184 34.3405 2.82184 34.7717 2.82184H36.1108C36.542 2.82184 36.892 3.17184 36.892 3.60309Z" fill="#D8D6D7"/>
<path d="M6.00923 12.7156V14.0563C6.00923 14.4875 5.65923 14.8375 5.22798 14.8375H3.88892C3.45767 14.8375 3.10767 14.4875 3.10767 14.0563V12.7156C3.10767 12.2844 3.45767 11.9344 3.88892 11.9344H5.22798C5.65923 11.9344 6.00923 12.2844 6.00923 12.7156Z" fill="#D8D6D7"/>
<path d="M10.4217 12.7156V14.0563C10.4217 14.4875 10.0717 14.8375 9.64043 14.8375H8.2998C7.86855 14.8375 7.51855 14.4875 7.51855 14.0563V12.7156C7.51855 12.2844 7.86855 11.9344 8.2998 11.9344H9.64043C10.0717 11.9344 10.4217 12.2844 10.4217 12.7156Z" fill="#D8D6D7"/>
<path d="M14.8327 12.7156V14.0563C14.8327 14.4875 14.4827 14.8375 14.0515 14.8375H12.7124C12.2812 14.8375 11.9312 14.4875 11.9312 14.0563V12.7156C11.9312 12.2844 12.2812 11.9344 12.7124 11.9344H14.0515C14.4827 11.9344 14.8327 12.2844 14.8327 12.7156Z" fill="#D8D6D7"/>
<path d="M23.656 8.16559V14.0562C23.656 14.4875 23.3076 14.8375 22.8748 14.8375H17.1248C16.6919 14.8375 16.3435 14.4875 16.3435 14.0562V12.7156C16.3435 12.2843 16.6919 11.9343 17.1248 11.9343H19.9732C20.4044 11.9343 20.7544 11.5859 20.7544 11.1531V8.16559C20.7544 7.73434 21.1044 7.38434 21.5357 7.38434H22.8748C23.3076 7.38434 23.656 7.73434 23.656 8.16559Z" fill="#D8D6D7"/>
<path d="M28.0686 12.7156V14.0563C28.0686 14.4875 27.7186 14.8375 27.2873 14.8375H25.9482C25.517 14.8375 25.167 14.4875 25.167 14.0563V12.7156C25.167 12.2844 25.517 11.9344 25.9482 11.9344H27.2873C27.7186 11.9344 28.0686 12.2844 28.0686 12.7156Z" fill="#D8D6D7"/>
<path d="M6.00923 17.2672V18.6062C6.00923 19.0375 5.65923 19.3875 5.22798 19.3875H3.88892C3.45767 19.3875 3.10767 19.0375 3.10767 18.6062V17.2672C3.10767 16.8359 3.45767 16.4859 3.88892 16.4859H5.22798C5.65923 16.4859 6.00923 16.8359 6.00923 17.2672Z" fill="#D8D6D7"/>
<path d="M19.2451 17.2672V18.6062C19.2451 19.0375 18.8951 19.3875 18.4639 19.3875H8.2998C7.86855 19.3875 7.51855 19.0375 7.51855 18.6062V17.2672C7.51855 16.8359 7.86855 16.4859 8.2998 16.4859H18.4639C18.8951 16.4859 19.2451 16.8359 19.2451 17.2672Z" fill="#D8D6D7"/>
<path d="M23.6562 17.2672V18.6062C23.6562 19.0375 23.3078 19.3875 22.8749 19.3875H21.5359C21.1046 19.3875 20.7546 19.0375 20.7546 18.6062V17.2672C20.7546 16.8359 21.1046 16.4859 21.5359 16.4859H22.8749C23.3078 16.4859 23.6562 16.8359 23.6562 17.2672Z" fill="#D8D6D7"/>
<path d="M32.4811 8.16559V9.50465C32.4811 9.93746 32.1311 10.2859 31.6998 10.2859H25.9482C25.517 10.2859 25.167 9.93746 25.167 9.50465V8.16559C25.167 7.73434 25.517 7.38434 25.9482 7.38434H31.6998C32.1311 7.38434 32.4811 7.73434 32.4811 8.16559Z" fill="#D8D6D7"/>
<path d="M32.4812 12.7156V14.0563C32.4812 14.4875 32.1312 14.8375 31.7 14.8375H30.3594C29.9281 14.8375 29.5781 14.4875 29.5781 14.0563V12.7156C29.5781 12.2844 29.9281 11.9344 30.3594 11.9344H31.7C32.1312 11.9344 32.4812 12.2844 32.4812 12.7156Z" fill="#D8D6D7"/>
<path d="M32.4812 17.2672V18.6062C32.4812 19.0375 32.1312 19.3875 31.7 19.3875H30.3594C29.9281 19.3875 29.5781 19.0375 29.5781 18.6062V17.2672C29.5781 16.8359 29.9281 16.4859 30.3594 16.4859H31.7C32.1312 16.4859 32.4812 16.8359 32.4812 17.2672Z" fill="#D8D6D7"/>
<path d="M36.892 8.16559V9.50465C36.892 9.93746 36.542 10.2859 36.1108 10.2859H34.7717C34.3405 10.2859 33.9905 9.93746 33.9905 9.50465V8.16559C33.9905 7.73434 34.3405 7.38434 34.7717 7.38434H36.1108C36.542 7.38434 36.892 7.73434 36.892 8.16559Z" fill="#D8D6D7"/>
<path d="M36.892 12.7156V14.0563C36.892 14.4875 36.542 14.8375 36.1108 14.8375H34.7717C34.3405 14.8375 33.9905 14.4875 33.9905 14.0563V12.7156C33.9905 12.2844 34.3405 11.9344 34.7717 11.9344H36.1108C36.542 11.9344 36.892 12.2844 36.892 12.7156Z" fill="#D8D6D7"/>
<path d="M36.892 17.2672V18.6062C36.892 19.0375 36.542 19.3875 36.1108 19.3875H34.7717C34.3405 19.3875 33.9905 19.0375 33.9905 18.6062V17.2672C33.9905 16.8359 34.3405 16.4859 34.7717 16.4859H36.1108C36.542 16.4859 36.892 16.8359 36.892 17.2672Z" fill="#D8D6D7"/>
<path d="M6.00923 8.16559V8.48903C6.00923 8.92184 5.65923 9.27028 5.22798 9.27028H3.88892C3.45767 9.27028 3.10767 8.92184 3.10767 8.48903V8.16559C3.10767 7.73434 3.45767 7.38434 3.88892 7.38434H5.22798C5.65923 7.38434 6.00923 7.73434 6.00923 8.16559Z" fill="white"/>
<path d="M10.4217 8.16559V8.48903C10.4217 8.92184 10.0717 9.27028 9.64043 9.27028H8.2998C7.86855 9.27028 7.51855 8.92184 7.51855 8.48903V8.16559C7.51855 7.73434 7.86855 7.38434 8.2998 7.38434H9.64043C10.0717 7.38434 10.4217 7.73434 10.4217 8.16559Z" fill="white"/>
<path d="M14.8327 8.16559V8.48903C14.8327 8.92184 14.4827 9.27028 14.0515 9.27028H12.7124C12.2812 9.27028 11.9312 8.92184 11.9312 8.48903V8.16559C11.9312 7.73434 12.2812 7.38434 12.7124 7.38434H14.0515C14.4827 7.38434 14.8327 7.73434 14.8327 8.16559Z" fill="white"/>
<path d="M19.2451 8.16559V8.48903C19.2451 8.92184 18.8951 9.27028 18.4638 9.27028H17.1248C16.6919 9.27028 16.3435 8.92184 16.3435 8.48903V8.16559C16.3435 7.73434 16.6919 7.38434 17.1248 7.38434H18.4638C18.8951 7.38434 19.2451 7.73434 19.2451 8.16559Z" fill="white"/>
<path d="M6.00923 3.60309V3.92653C6.00923 4.35934 5.65923 4.70778 5.22798 4.70778H3.88892C3.45767 4.70778 3.10767 4.35934 3.10767 3.92653V3.60309C3.10767 3.17184 3.45767 2.82184 3.88892 2.82184H5.22798C5.65923 2.82184 6.00923 3.17184 6.00923 3.60309Z" fill="white"/>
<path d="M10.4217 3.60309V3.92653C10.4217 4.35934 10.0717 4.70778 9.64043 4.70778H8.2998C7.86855 4.70778 7.51855 4.35934 7.51855 3.92653V3.60309C7.51855 3.17184 7.86855 2.82184 8.2998 2.82184H9.64043C10.0717 2.82184 10.4217 3.17184 10.4217 3.60309Z" fill="white"/>
<path d="M14.8327 3.60309V3.92653C14.8327 4.35934 14.4827 4.70778 14.0515 4.70778H12.7124C12.2812 4.70778 11.9312 4.35934 11.9312 3.92653V3.60309C11.9312 3.17184 12.2812 2.82184 12.7124 2.82184H14.0515C14.4827 2.82184 14.8327 3.17184 14.8327 3.60309Z" fill="white"/>
<path d="M19.2451 3.60309V3.92653C19.2451 4.35934 18.8951 4.70778 18.4638 4.70778H17.1248C16.6919 4.70778 16.3435 4.35934 16.3435 3.92653V3.60309C16.3435 3.17184 16.6919 2.82184 17.1248 2.82184H18.4638C18.8951 2.82184 19.2451 3.17184 19.2451 3.60309Z" fill="white"/>
<path d="M23.6562 3.60309V3.92653C23.6562 4.35934 23.3078 4.70778 22.8749 4.70778H21.5359C21.1046 4.70778 20.7546 4.35934 20.7546 3.92653V3.60309C20.7546 3.17184 21.1046 2.82184 21.5359 2.82184H22.8749C23.3078 2.82184 23.6562 3.17184 23.6562 3.60309Z" fill="white"/>
<path d="M28.0686 3.60309V3.92653C28.0686 4.35934 27.7186 4.70778 27.2873 4.70778H25.9482C25.517 4.70778 25.167 4.35934 25.167 3.92653V3.60309C25.167 3.17184 25.517 2.82184 25.9482 2.82184H27.2873C27.7186 2.82184 28.0686 3.17184 28.0686 3.60309Z" fill="white"/>
<path d="M32.4812 3.60309V3.92653C32.4812 4.35934 32.1312 4.70778 31.7 4.70778H30.3594C29.9281 4.70778 29.5781 4.35934 29.5781 3.92653V3.60309C29.5781 3.17184 29.9281 2.82184 30.3594 2.82184H31.7C32.1312 2.82184 32.4812 3.17184 32.4812 3.60309Z" fill="white"/>
<path d="M32.4812 3.60309V3.92653C32.4812 4.35934 32.1312 4.70778 31.7 4.70778H30.3594C29.9281 4.70778 29.5781 4.35934 29.5781 3.92653V3.60309C29.5781 3.17184 29.9281 2.82184 30.3594 2.82184H31.7C32.1312 2.82184 32.4812 3.17184 32.4812 3.60309Z" fill="white"/>
<path d="M36.892 3.60309V3.92653C36.892 4.35934 36.542 4.70778 36.1108 4.70778H34.7717C34.3405 4.70778 33.9905 4.35934 33.9905 3.92653V3.60309C33.9905 3.17184 34.3405 2.82184 34.7717 2.82184H36.1108C36.542 2.82184 36.892 3.17184 36.892 3.60309Z" fill="white"/>
<path d="M6.00923 12.7156V13.0406C6.00923 13.4719 5.65923 13.8219 5.22798 13.8219H3.88892C3.45767 13.8219 3.10767 13.4719 3.10767 13.0406V12.7156C3.10767 12.2844 3.45767 11.9344 3.88892 11.9344H5.22798C5.65923 11.9344 6.00923 12.2844 6.00923 12.7156Z" fill="white"/>
<path d="M10.4217 12.7156V13.0406C10.4217 13.4719 10.0717 13.8219 9.64043 13.8219H8.2998C7.86855 13.8219 7.51855 13.4719 7.51855 13.0406V12.7156C7.51855 12.2844 7.86855 11.9344 8.2998 11.9344H9.64043C10.0717 11.9344 10.4217 12.2844 10.4217 12.7156Z" fill="white"/>
<path d="M14.8327 12.7156V13.0406C14.8327 13.4719 14.4827 13.8219 14.0515 13.8219H12.7124C12.2812 13.8219 11.9312 13.4719 11.9312 13.0406V12.7156C11.9312 12.2844 12.2812 11.9344 12.7124 11.9344H14.0515C14.4827 11.9344 14.8327 12.2844 14.8327 12.7156Z" fill="white"/>
<path d="M23.656 8.16559V13.0406C23.656 13.4718 23.3076 13.8218 22.8748 13.8218H17.1248C16.6919 13.8218 16.3435 13.4718 16.3435 13.0406V12.7156C16.3435 12.2843 16.6919 11.9343 17.1248 11.9343H19.9732C20.4044 11.9343 20.7544 11.5859 20.7544 11.1531V8.16559C20.7544 7.73434 21.1044 7.38434 21.5357 7.38434H22.8748C23.3076 7.38434 23.656 7.73434 23.656 8.16559Z" fill="white"/>
<path d="M28.0686 12.7156V13.0406C28.0686 13.4719 27.7186 13.8219 27.2873 13.8219H25.9482C25.517 13.8219 25.167 13.4719 25.167 13.0406V12.7156C25.167 12.2844 25.517 11.9344 25.9482 11.9344H27.2873C27.7186 11.9344 28.0686 12.2844 28.0686 12.7156Z" fill="white"/>
<path d="M6.00923 17.2672V17.5906C6.00923 18.0218 5.65923 18.3718 5.22798 18.3718H3.88892C3.45767 18.3718 3.10767 18.0218 3.10767 17.5906V17.2672C3.10767 16.8359 3.45767 16.4859 3.88892 16.4859H5.22798C5.65923 16.4859 6.00923 16.8359 6.00923 17.2672Z" fill="white"/>
<path d="M19.2451 17.2672V17.5906C19.2451 18.0218 18.8951 18.3718 18.4639 18.3718H8.2998C7.86855 18.3718 7.51855 18.0218 7.51855 17.5906V17.2672C7.51855 16.8359 7.86855 16.4859 8.2998 16.4859H18.4639C18.8951 16.4859 19.2451 16.8359 19.2451 17.2672Z" fill="white"/>
<path d="M23.6562 17.2672V17.5906C23.6562 18.0218 23.3078 18.3718 22.8749 18.3718H21.5359C21.1046 18.3718 20.7546 18.0218 20.7546 17.5906V17.2672C20.7546 16.8359 21.1046 16.4859 21.5359 16.4859H22.8749C23.3078 16.4859 23.6562 16.8359 23.6562 17.2672Z" fill="white"/>
<path d="M32.4811 8.16559V8.48903C32.4811 8.92184 32.1311 9.27028 31.6998 9.27028H25.9482C25.517 9.27028 25.167 8.92184 25.167 8.48903V8.16559C25.167 7.73434 25.517 7.38434 25.9482 7.38434H31.6998C32.1311 7.38434 32.4811 7.73434 32.4811 8.16559Z" fill="white"/>
<path d="M32.4812 12.7156V13.0406C32.4812 13.4719 32.1312 13.8219 31.7 13.8219H30.3594C29.9281 13.8219 29.5781 13.4719 29.5781 13.0406V12.7156C29.5781 12.2844 29.9281 11.9344 30.3594 11.9344H31.7C32.1312 11.9344 32.4812 12.2844 32.4812 12.7156Z" fill="white"/>
<path d="M32.4812 17.2672V17.5906C32.4812 18.0218 32.1312 18.3718 31.7 18.3718H30.3594C29.9281 18.3718 29.5781 18.0218 29.5781 17.5906V17.2672C29.5781 16.8359 29.9281 16.4859 30.3594 16.4859H31.7C32.1312 16.4859 32.4812 16.8359 32.4812 17.2672Z" fill="white"/>
<path d="M36.892 8.16559V8.48903C36.892 8.92184 36.542 9.27028 36.1108 9.27028H34.7717C34.3405 9.27028 33.9905 8.92184 33.9905 8.48903V8.16559C33.9905 7.73434 34.3405 7.38434 34.7717 7.38434H36.1108C36.542 7.38434 36.892 7.73434 36.892 8.16559Z" fill="white"/>
<path d="M36.892 12.7156V13.0406C36.892 13.4719 36.542 13.8219 36.1108 13.8219H34.7717C34.3405 13.8219 33.9905 13.4719 33.9905 13.0406V12.7156C33.9905 12.2844 34.3405 11.9344 34.7717 11.9344H36.1108C36.542 11.9344 36.892 12.2844 36.892 12.7156Z" fill="white"/>
<path d="M36.892 17.2672V17.5906C36.892 18.0218 36.542 18.3718 36.1108 18.3718H34.7717C34.3405 18.3718 33.9905 18.0218 33.9905 17.5906V17.2672C33.9905 16.8359 34.3405 16.4859 34.7717 16.4859H36.1108C36.542 16.4859 36.892 16.8359 36.892 17.2672Z" fill="white"/>
<path d="M18.1203 28.9204C16.5095 30.0012 14.9981 31.2626 13.3078 33.1282C13.1625 33.2891 13.0843 33.4985 13.0843 33.7157V37.1095C13.0843 37.9724 12.3848 38.672 11.5218 38.672H4.9562C4.09292 38.672 3.3937 37.9716 3.3937 37.1084C3.3937 33.9735 3.47011 33.9313 3.1562 33.6048C2.00776 32.4001 1.30151 30.7688 1.30151 28.9735V25.5626C1.30151 25.1312 1.65136 24.7813 2.08276 24.7813H10.6546C11.086 24.7813 11.4359 24.4315 11.4359 24.0001V17.294C11.4359 16.3862 12.1468 15.6079 13.0543 15.5926C13.9778 15.577 14.7296 16.3221 14.7296 17.2391C14.7296 24.1623 14.7312 26.9116 14.7312 27.2454C15.1923 26.9357 15.6803 26.534 16.5265 26.6048C16.5296 26.6048 16.5328 26.6048 16.5343 26.6063C17.4929 26.6846 17.9382 27.2443 18.3359 27.8376C18.575 28.1954 18.4796 28.6813 18.1203 28.9204Z" fill="#EDAF85"/>
<path d="M18.1203 28.9203C16.5095 30.0011 14.9981 31.2625 13.3078 33.1281C13.1625 33.2891 13.0843 33.4984 13.0843 33.7156V37.1094C13.0843 37.9723 12.3848 38.6719 11.5218 38.6719H5.26245C5.21558 38.5234 5.19058 38.3672 5.19058 38.2031C5.19058 35.0672 5.26698 35.025 4.95308 34.6984C3.80464 33.4938 3.09839 31.8625 3.09839 30.0672V26.6563C3.09839 26.2248 3.44823 25.875 3.87964 25.875H12.4515C12.8829 25.875 13.2328 25.5252 13.2328 25.0938V18.3328C13.2328 17.5047 13.8453 16.8188 14.6406 16.7031C14.7632 17.0578 14.7312 16.3037 14.7312 27.2453C15.1923 26.9356 15.6803 26.5339 16.5265 26.6047V26.6156C16.5265 26.6156 16.5296 26.6125 16.5343 26.6062C17.4929 26.6845 17.9382 27.2442 18.3359 27.8375C18.575 28.1953 18.4796 28.6812 18.1203 28.9203Z" fill="#F7C09A"/>
<path d="M21.8831 28.9204C23.4939 30.0012 25.0053 31.2626 26.6956 33.1282C26.8409 33.2891 26.919 33.4985 26.919 33.7157V37.1095C26.919 37.9724 27.6186 38.672 28.4816 38.672H35.0472C35.9105 38.672 36.6097 37.9716 36.6097 37.1084C36.6097 33.9735 36.5333 33.9313 36.8472 33.6048C37.9956 32.4001 38.7019 30.7688 38.7019 28.9735V25.5626C38.7019 25.1312 38.352 24.7813 37.9206 24.7813H29.3487C28.9173 24.7813 28.5675 24.4315 28.5675 24.0001V17.294C28.5675 16.3862 27.8566 15.6079 26.949 15.5926C26.0256 15.577 25.2737 16.3221 25.2737 17.2391C25.2737 24.1623 25.2722 26.9116 25.2722 27.2454C24.8111 26.9357 24.3231 26.534 23.4769 26.6048C23.4737 26.6048 23.4706 26.6048 23.469 26.6063C22.5105 26.6846 22.0651 27.2443 21.6675 27.8376C21.4284 28.1954 21.5237 28.6813 21.8831 28.9204Z" fill="#EDAF85"/>
<path d="M21.8831 28.9203C23.4939 30.0011 25.0053 31.2625 26.6956 33.1281C26.8409 33.2891 26.9191 33.4984 26.9191 33.7156V37.1094C26.9191 37.9723 27.6186 38.6719 28.4816 38.6719H34.7409C34.7878 38.5234 34.8128 38.3672 34.8128 38.2031C34.8128 35.0672 34.7364 35.025 35.0503 34.6984C36.1987 33.4938 36.905 31.8625 36.905 30.0672V26.6563C36.905 26.2248 36.5551 25.875 36.1237 25.875H27.5519C27.1205 25.875 26.7706 25.5252 26.7706 25.0938V18.3328C26.7706 17.5047 26.1581 16.8188 25.3628 16.7031C25.2401 17.0578 25.2722 16.3037 25.2722 27.2453C24.8111 26.9356 24.3231 26.5339 23.4769 26.6047V26.6156C23.4769 26.6156 23.4737 26.6125 23.469 26.6062C22.5105 26.6845 22.0651 27.2442 21.6675 27.8375C21.4284 28.1953 21.5237 28.6812 21.8831 28.9203Z" fill="#F7C09A"/>
<path d="M38.514 1.01562H1.48584C0.882715 1.01562 0.39209 1.50641 0.39209 2.10938V20.1C0.39209 20.703 0.882715 21.1938 1.48584 21.1938H11.1238V24.4684H2.08271C1.47959 24.4684 0.988965 24.9592 0.988965 25.5622V28.9731C0.988965 30.7858 1.67865 32.507 2.93068 33.82C3.13365 34.033 3.08131 33.963 3.08131 37.1095C3.08131 38.1434 3.9224 38.9845 4.95631 38.9845H11.5212C12.5551 38.9845 13.3962 38.1434 13.3962 37.1095C13.3962 33.4245 13.3433 33.5547 13.5399 33.3377C15.2043 31.4997 16.7012 30.2452 18.2946 29.1806C18.7957 28.8452 18.9304 28.1645 18.5951 27.6634L18.4052 27.3798C17.6621 26.2698 16.1679 25.9564 15.043 26.6613C15.043 26.5977 15.0426 25.4889 15.0426 21.1939H24.9571C24.9571 24.4384 24.9565 26.368 24.9565 26.6611C22.7504 25.2783 20.0407 28.0672 21.8379 29.2694C23.4407 30.3425 24.9526 31.6733 26.4597 33.3377C26.6543 33.5523 26.6037 33.4123 26.6037 37.1095C26.6037 38.1434 27.4447 38.9845 28.4787 38.9845H35.0435C36.0774 38.9845 36.9185 38.1434 36.9185 37.1095C36.9185 33.9553 36.8679 34.0308 37.069 33.82C38.3212 32.5072 39.0108 30.7858 39.0108 28.9731V25.5622C39.0108 24.9592 38.5201 24.4684 37.9171 24.4684H28.8762V21.1938H38.5141C39.1171 21.1938 39.6079 20.703 39.6079 20.1V2.10938C39.6077 1.50641 39.1171 1.01562 38.514 1.01562ZM15.3287 27.2206C16.1735 26.6561 17.3207 26.8831 17.8858 27.7272C18.7922 29.0816 17.5087 28.0241 13.0766 32.918C12.6733 33.3633 12.771 33.4742 12.771 37.1094C12.771 37.7986 12.2102 38.3594 11.521 38.3594H4.95631C4.26709 38.3594 3.70631 37.7986 3.70631 37.1094C3.70631 33.9958 3.80146 33.8277 3.38303 33.3886C2.24225 32.1927 1.61396 30.6245 1.61396 28.9731V25.5622C1.61396 25.3038 1.82428 25.0934 2.08271 25.0934H11.4362C11.6087 25.0934 11.7487 24.9534 11.7487 24.7809C11.7487 16.597 11.7021 17.0619 11.8643 16.698C11.9016 16.6577 11.929 16.608 11.941 16.5522C12.6412 15.392 14.4176 15.8969 14.4176 17.2388C14.4176 25.7808 14.418 26.8247 14.418 27.245C14.418 27.4955 14.6983 27.6431 14.9043 27.5047L15.3287 27.2206ZM11.1237 19.075H8.2999C8.04146 19.075 7.83115 18.8647 7.83115 18.6063V17.2672C7.83115 17.0088 8.04146 16.7984 8.2999 16.7984H11.1754C11.1074 17.0933 11.1237 17.0741 11.1237 19.075ZM14.991 16.7984H18.464C18.7224 16.7984 18.9327 17.0088 18.9327 17.2672V18.6063C18.9327 18.8647 18.7224 19.075 18.464 19.075H15.0426C15.0426 17.0864 15.0597 17.0964 14.991 16.7984ZM37.9171 25.0934C38.1755 25.0934 38.3858 25.3038 38.3858 25.5622V28.9731C38.3858 30.6244 37.7576 32.1925 36.6168 33.3888C36.1985 33.8272 36.2937 33.9933 36.2937 37.1095C36.2937 37.7988 35.7329 38.3595 35.0437 38.3595H28.4788C27.7896 38.3595 27.2288 37.7988 27.2288 37.1095C27.2288 33.4359 27.3212 33.3573 26.9232 32.9181C22.5366 28.0745 21.2127 29.0745 22.114 27.7273C22.6793 26.8831 23.8266 26.6559 24.6712 27.2208C25.0916 27.5022 25.2079 27.6311 25.4165 27.5208C25.6482 27.3967 25.5824 28.0733 25.5824 17.2388C25.5824 16.503 26.181 15.9044 26.9169 15.9044C27.6527 15.9044 28.2513 16.503 28.2513 17.2388V24.7811C28.2513 24.9536 28.3913 25.0936 28.5638 25.0936H37.9171V25.0934ZM38.9827 20.1C38.9827 20.3584 38.7724 20.5688 38.514 20.5688H28.876V17.2386C28.876 16.1581 27.9969 15.2792 26.9165 15.2792C25.836 15.2792 24.9571 16.1581 24.9571 17.2386V20.5688H15.0426V19.7H18.4638C19.0669 19.7 19.5576 19.2092 19.5576 18.6063V17.2672C19.5576 16.6642 19.0669 16.1734 18.4638 16.1734H14.7255C14.3757 15.6361 13.7708 15.2792 13.0832 15.2792C12.3955 15.2792 11.7907 15.6359 11.441 16.1734H8.2999C7.69678 16.1734 7.20615 16.6642 7.20615 17.2672V18.6063C7.20615 19.2092 7.69678 19.7 8.2999 19.7H11.1237V20.5688H1.48584C1.2274 20.5688 1.01709 20.3584 1.01709 20.1V2.10938C1.01709 1.85094 1.2274 1.64063 1.48584 1.64063H38.514C38.7724 1.64063 38.9827 1.85094 38.9827 2.10938V20.1Z" fill="#491352"/>
<path d="M5.22836 7.07202H3.88867C3.28555 7.07202 2.79492 7.5628 2.79492 8.16577V9.5053C2.79492 10.1083 3.28555 10.5991 3.88867 10.5991H5.22836C5.83148 10.5991 6.32211 10.1083 6.32211 9.5053V8.16577C6.32211 7.56265 5.83148 7.07202 5.22836 7.07202ZM5.69711 9.5053C5.69711 9.76374 5.4868 9.97405 5.22836 9.97405H3.88867C3.63023 9.97405 3.41992 9.76374 3.41992 9.5053V8.16577C3.41992 7.90733 3.63023 7.69702 3.88867 7.69702H5.22836C5.4868 7.69702 5.69711 7.90733 5.69711 8.16577V9.5053Z" fill="#491352"/>
<path d="M9.64007 7.07202H8.30054C7.69741 7.07202 7.20679 7.5628 7.20679 8.16577V9.5053C7.20679 10.1083 7.69741 10.5991 8.30054 10.5991H9.64007C10.2432 10.5991 10.7338 10.1083 10.7338 9.5053V8.16577C10.7338 7.56265 10.2432 7.07202 9.64007 7.07202ZM10.1088 9.5053C10.1088 9.76374 9.89851 9.97405 9.64007 9.97405H8.30054C8.0421 9.97405 7.83179 9.76374 7.83179 9.5053V8.16577C7.83179 7.90733 8.0421 7.69702 8.30054 7.69702H9.64007C9.89851 7.69702 10.1088 7.90733 10.1088 8.16577V9.5053Z" fill="#491352"/>
<path d="M14.0519 7.07202H12.7124C12.1093 7.07202 11.6187 7.5628 11.6187 8.16577V9.5053C11.6187 10.1083 12.1093 10.5991 12.7124 10.5991H14.0519C14.6551 10.5991 15.1457 10.1083 15.1457 9.5053V8.16577C15.1457 7.56265 14.6551 7.07202 14.0519 7.07202ZM14.5207 9.5053C14.5207 9.76374 14.3104 9.97405 14.0519 9.97405H12.7124C12.454 9.97405 12.2437 9.76374 12.2437 9.5053V8.16577C12.2437 7.90733 12.454 7.69702 12.7124 7.69702H14.0519C14.3104 7.69702 14.5207 7.90733 14.5207 8.16577V9.5053Z" fill="#491352"/>
<path d="M17.124 10.5991H18.4637C19.0668 10.5991 19.5575 10.1083 19.5575 9.5053V8.16577C19.5575 7.5628 19.0668 7.07202 18.4637 7.07202H17.124C16.5209 7.07202 16.0303 7.5628 16.0303 8.16577V9.5053C16.0303 10.1083 16.5209 10.5991 17.124 10.5991ZM16.6553 8.16577C16.6553 7.90733 16.8656 7.69702 17.124 7.69702H18.4637C18.7221 7.69702 18.9325 7.90733 18.9325 8.16577V9.5053C18.9325 9.76374 18.7221 9.97405 18.4637 9.97405H17.124C16.8656 9.97405 16.6553 9.76374 16.6553 9.5053V8.16577Z" fill="#491352"/>
<path d="M5.22836 2.50952H3.88867C3.28555 2.50952 2.79492 3.0003 2.79492 3.60327V4.94296C2.79492 5.54593 3.28555 6.03671 3.88867 6.03671H5.22836C5.83148 6.03671 6.32211 5.54593 6.32211 4.94296V3.60327C6.32211 3.00015 5.83148 2.50952 5.22836 2.50952ZM5.69711 4.94296C5.69711 5.2014 5.4868 5.41171 5.22836 5.41171H3.88867C3.63023 5.41171 3.41992 5.2014 3.41992 4.94296V3.60327C3.41992 3.34483 3.63023 3.13452 3.88867 3.13452H5.22836C5.4868 3.13452 5.69711 3.34483 5.69711 3.60327V4.94296Z" fill="#491352"/>
<path d="M9.64007 2.50952H8.30054C7.69741 2.50952 7.20679 3.0003 7.20679 3.60327V4.94296C7.20679 5.54593 7.69741 6.03671 8.30054 6.03671H9.64007C10.2432 6.03671 10.7338 5.54593 10.7338 4.94296V3.60327C10.7338 3.00015 10.2432 2.50952 9.64007 2.50952ZM10.1088 4.94296C10.1088 5.2014 9.89851 5.41171 9.64007 5.41171H8.30054C8.0421 5.41171 7.83179 5.2014 7.83179 4.94296V3.60327C7.83179 3.34483 8.0421 3.13452 8.30054 3.13452H9.64007C9.89851 3.13452 10.1088 3.34483 10.1088 3.60327V4.94296Z" fill="#491352"/>
<path d="M14.0519 2.50952H12.7124C12.1093 2.50952 11.6187 3.0003 11.6187 3.60327V4.94296C11.6187 5.54593 12.1093 6.03671 12.7124 6.03671H14.0519C14.6551 6.03671 15.1457 5.54593 15.1457 4.94296V3.60327C15.1457 3.00015 14.6551 2.50952 14.0519 2.50952ZM14.5207 4.94296C14.5207 5.2014 14.3104 5.41171 14.0519 5.41171H12.7124C12.454 5.41171 12.2437 5.2014 12.2437 4.94296V3.60327C12.2437 3.34483 12.454 3.13452 12.7124 3.13452H14.0519C14.3104 3.13452 14.5207 3.34483 14.5207 3.60327V4.94296Z" fill="#491352"/>
<path d="M17.124 6.03671H18.4637C19.0668 6.03671 19.5575 5.54593 19.5575 4.94296V3.60327C19.5575 3.0003 19.0668 2.50952 18.4637 2.50952H17.124C16.5209 2.50952 16.0303 3.0003 16.0303 3.60327V4.94296C16.0303 5.54593 16.5209 6.03671 17.124 6.03671ZM16.6553 3.60327C16.6553 3.34483 16.8656 3.13452 17.124 3.13452H18.4637C18.7221 3.13452 18.9325 3.34483 18.9325 3.60327V4.94296C18.9325 5.2014 18.7221 5.41171 18.4637 5.41171H17.124C16.8656 5.41171 16.6553 5.2014 16.6553 4.94296V3.60327Z" fill="#491352"/>
<path d="M22.8754 2.50952H21.5359C20.9329 2.50952 20.4421 3.0003 20.4421 3.60327V4.94296C20.4421 5.54593 20.9329 6.03671 21.5359 6.03671H22.8754C23.4784 6.03671 23.9692 5.54593 23.9692 4.94296V3.60327C23.9692 3.00015 23.4785 2.50952 22.8754 2.50952ZM23.3442 4.94296C23.3442 5.2014 23.1339 5.41171 22.8754 5.41171H21.5359C21.2775 5.41171 21.0671 5.2014 21.0671 4.94296V3.60327C21.0671 3.34483 21.2775 3.13452 21.5359 3.13452H22.8754C23.1339 3.13452 23.3442 3.34483 23.3442 3.60327V4.94296Z" fill="#491352"/>
<path d="M25.9478 6.03671H27.2874C27.8904 6.03671 28.3812 5.54593 28.3812 4.94296V3.60327C28.3812 3.0003 27.8904 2.50952 27.2874 2.50952H25.9478C25.3448 2.50952 24.854 3.0003 24.854 3.60327V4.94296C24.854 5.54593 25.3448 6.03671 25.9478 6.03671ZM25.479 3.60327C25.479 3.34483 25.6893 3.13452 25.9478 3.13452H27.2874C27.5459 3.13452 27.7562 3.34483 27.7562 3.60327V4.94296C27.7562 5.2014 27.5459 5.41171 27.2874 5.41171H25.9478C25.6893 5.41171 25.479 5.2014 25.479 4.94296V3.60327Z" fill="#491352"/>
<path d="M31.6994 2.50952H30.3599C29.7569 2.50952 29.2661 3.0003 29.2661 3.60327V4.94296C29.2661 5.54593 29.7569 6.03671 30.3599 6.03671H31.6994C32.3024 6.03671 32.7931 5.54593 32.7931 4.94296V3.60327C32.7931 3.00015 32.3024 2.50952 31.6994 2.50952ZM32.1681 4.94296C32.1681 5.2014 31.9578 5.41171 31.6994 5.41171H30.3599C30.1014 5.41171 29.8911 5.2014 29.8911 4.94296V3.60327C29.8911 3.34483 30.1014 3.13452 30.3599 3.13452H31.6994C31.9578 3.13452 32.1681 3.34483 32.1681 3.60327V4.94296Z" fill="#491352"/>
<path d="M36.1112 2.50952H34.7715C34.1685 2.50952 33.6777 3.0003 33.6777 3.60327V4.94296C33.6777 5.54593 34.1685 6.03671 34.7715 6.03671H36.1112C36.7141 6.03671 37.2049 5.54593 37.2049 4.94296V3.60327C37.2049 3.00015 36.7143 2.50952 36.1112 2.50952ZM36.5799 4.94296C36.5799 5.2014 36.3696 5.41171 36.1112 5.41171H34.7715C34.513 5.41171 34.3027 5.2014 34.3027 4.94296V3.60327C34.3027 3.34483 34.513 3.13452 34.7715 3.13452H36.1112C36.3696 3.13452 36.5799 3.34483 36.5799 3.60327V4.94296Z" fill="#491352"/>
<path d="M5.22836 11.6227H3.88867C3.28555 11.6227 2.79492 12.1135 2.79492 12.7164V14.056C2.79492 14.6589 3.28555 15.1497 3.88867 15.1497H5.22836C5.83148 15.1497 6.32211 14.6589 6.32211 14.056V12.7164C6.32211 12.1133 5.83148 11.6227 5.22836 11.6227ZM5.69711 14.056C5.69711 14.3144 5.4868 14.5247 5.22836 14.5247H3.88867C3.63023 14.5247 3.41992 14.3144 3.41992 14.056V12.7164C3.41992 12.458 3.63023 12.2477 3.88867 12.2477H5.22836C5.4868 12.2477 5.69711 12.458 5.69711 12.7164V14.056Z" fill="#491352"/>
<path d="M9.64007 11.6227H8.30054C7.69741 11.6227 7.20679 12.1135 7.20679 12.7164V14.056C7.20679 14.6589 7.69741 15.1497 8.30054 15.1497H9.64007C10.2432 15.1497 10.7338 14.6589 10.7338 14.056V12.7164C10.7338 12.1133 10.2432 11.6227 9.64007 11.6227ZM10.1088 14.056C10.1088 14.3144 9.89851 14.5247 9.64007 14.5247H8.30054C8.0421 14.5247 7.83179 14.3144 7.83179 14.056V12.7164C7.83179 12.458 8.0421 12.2477 8.30054 12.2477H9.64007C9.89851 12.2477 10.1088 12.458 10.1088 12.7164V14.056Z" fill="#491352"/>
<path d="M14.0519 11.6227H12.7124C12.1093 11.6227 11.6187 12.1135 11.6187 12.7164V14.056C11.6187 14.6589 12.1093 15.1497 12.7124 15.1497H14.0519C14.6551 15.1497 15.1457 14.6589 15.1457 14.056V12.7164C15.1457 12.1133 14.6551 11.6227 14.0519 11.6227ZM14.5207 14.056C14.5207 14.3144 14.3104 14.5247 14.0519 14.5247H12.7124C12.454 14.5247 12.2437 14.3144 12.2437 14.056V12.7164C12.2437 12.458 12.454 12.2477 12.7124 12.2477H14.0519C14.3104 12.2477 14.5207 12.458 14.5207 12.7164V14.056Z" fill="#491352"/>
<path d="M22.8754 7.07202H21.5359C20.9329 7.07202 20.4421 7.5628 20.4421 8.16577V11.1539C20.4421 11.4123 20.2318 11.6226 19.9734 11.6226H17.124C16.5209 11.6226 16.0303 12.1134 16.0303 12.7164V14.0559C16.0303 14.6589 16.5209 15.1497 17.124 15.1497H22.8754C23.4784 15.1497 23.9692 14.6589 23.9692 14.0559V8.16577C23.9692 7.56265 23.4786 7.07202 22.8754 7.07202ZM23.3442 14.0559C23.3442 14.3144 23.1339 14.5247 22.8754 14.5247H17.124C16.8656 14.5247 16.6553 14.3144 16.6553 14.0559V12.7164C16.6553 12.458 16.8656 12.2476 17.124 12.2476H19.9734C20.5764 12.2476 21.0671 11.7569 21.0671 11.1539V8.16577C21.0671 7.90733 21.2775 7.69702 21.5359 7.69702H22.8754C23.1339 7.69702 23.3442 7.90733 23.3442 8.16577V14.0559Z" fill="#491352"/>
<path d="M27.2877 11.6227H25.948C25.345 11.6227 24.8542 12.1135 24.8542 12.7164V14.056C24.8542 14.6589 25.345 15.1497 25.948 15.1497H27.2877C27.8907 15.1497 28.3814 14.6589 28.3814 14.056V12.7164C28.3814 12.1133 27.8907 11.6227 27.2877 11.6227ZM27.7564 14.056C27.7564 14.3144 27.5461 14.5247 27.2877 14.5247H25.948C25.6896 14.5247 25.4792 14.3144 25.4792 14.056V12.7164C25.4792 12.458 25.6896 12.2477 25.948 12.2477H27.2877C27.5461 12.2477 27.7564 12.458 27.7564 12.7164V14.056Z" fill="#491352"/>
<path d="M5.22836 16.1732H3.88867C3.28555 16.1732 2.79492 16.664 2.79492 17.267V18.6065C2.79492 19.2095 3.28555 19.7002 3.88867 19.7002H5.22836C5.83148 19.7002 6.32211 19.2095 6.32211 18.6065V17.267C6.32211 16.6638 5.83148 16.1732 5.22836 16.1732ZM5.69711 18.6065C5.69711 18.8649 5.4868 19.0752 5.22836 19.0752H3.88867C3.63023 19.0752 3.41992 18.8649 3.41992 18.6065V17.267C3.41992 17.0085 3.63023 16.7982 3.88867 16.7982H5.22836C5.4868 16.7982 5.69711 17.0085 5.69711 17.267V18.6065Z" fill="#491352"/>
<path d="M22.8754 16.1732H21.5359C20.9329 16.1732 20.4421 16.664 20.4421 17.267V18.6065C20.4421 19.2095 20.9329 19.7002 21.5359 19.7002H22.8754C23.4784 19.7002 23.9692 19.2095 23.9692 18.6065V17.267C23.9692 16.6638 23.4785 16.1732 22.8754 16.1732ZM23.3442 18.6065C23.3442 18.8649 23.1339 19.0752 22.8754 19.0752H21.5359C21.2775 19.0752 21.0671 18.8649 21.0671 18.6065V17.267C21.0671 17.0085 21.2775 16.7982 21.5359 16.7982H22.8754C23.1339 16.7982 23.3442 17.0085 23.3442 17.267V18.6065Z" fill="#491352"/>
<path d="M31.6994 7.07202H25.948C25.345 7.07202 24.8542 7.5628 24.8542 8.16577V9.5053C24.8542 10.1083 25.345 10.5991 25.948 10.5991H31.6994C32.3024 10.5991 32.7932 10.1083 32.7932 9.5053V8.16577C32.7932 7.56265 32.3024 7.07202 31.6994 7.07202ZM32.1682 9.5053C32.1682 9.76374 31.9578 9.97405 31.6994 9.97405H25.948C25.6896 9.97405 25.4792 9.76374 25.4792 9.5053V8.16577C25.4792 7.90733 25.6896 7.69702 25.948 7.69702H31.6994C31.9578 7.69702 32.1682 7.90733 32.1682 8.16577V9.5053Z" fill="#491352"/>
<path d="M31.6994 11.6227H30.3599C29.7569 11.6227 29.2661 12.1135 29.2661 12.7164V14.056C29.2661 14.6589 29.7569 15.1497 30.3599 15.1497H31.6994C32.3024 15.1497 32.7931 14.6589 32.7931 14.056V12.7164C32.7931 12.1133 32.3024 11.6227 31.6994 11.6227ZM32.1681 14.056C32.1681 14.3144 31.9578 14.5247 31.6994 14.5247H30.3599C30.1014 14.5247 29.8911 14.3144 29.8911 14.056V12.7164C29.8911 12.458 30.1014 12.2477 30.3599 12.2477H31.6994C31.9578 12.2477 32.1681 12.458 32.1681 12.7164V14.056Z" fill="#491352"/>
<path d="M31.6994 16.1732H30.3599C29.7569 16.1732 29.2661 16.664 29.2661 17.267V18.6065C29.2661 19.2095 29.7569 19.7002 30.3599 19.7002H31.6994C32.3024 19.7002 32.7931 19.2095 32.7931 18.6065V17.267C32.7931 16.6638 32.3024 16.1732 31.6994 16.1732ZM32.1681 18.6065C32.1681 18.8649 31.9578 19.0752 31.6994 19.0752H30.3599C30.1014 19.0752 29.8911 18.8649 29.8911 18.6065V17.267C29.8911 17.0085 30.1014 16.7982 30.3599 16.7982H31.6994C31.9578 16.7982 32.1681 17.0085 32.1681 17.267V18.6065Z" fill="#491352"/>
<path d="M36.1112 7.07202H34.7715C34.1685 7.07202 33.6777 7.5628 33.6777 8.16577V9.5053C33.6777 10.1083 34.1685 10.5991 34.7715 10.5991H36.1112C36.7141 10.5991 37.2049 10.1083 37.2049 9.5053V8.16577C37.2049 7.56265 36.7143 7.07202 36.1112 7.07202ZM36.5799 9.5053C36.5799 9.76374 36.3696 9.97405 36.1112 9.97405H34.7715C34.513 9.97405 34.3027 9.76374 34.3027 9.5053V8.16577C34.3027 7.90733 34.513 7.69702 34.7715 7.69702H36.1112C36.3696 7.69702 36.5799 7.90733 36.5799 8.16577V9.5053Z" fill="#491352"/>
<path d="M36.1112 11.6227H34.7715C34.1685 11.6227 33.6777 12.1135 33.6777 12.7164V14.056C33.6777 14.6589 34.1685 15.1497 34.7715 15.1497H36.1112C36.7141 15.1497 37.2049 14.6589 37.2049 14.056V12.7164C37.2049 12.1133 36.7143 11.6227 36.1112 11.6227ZM36.5799 14.056C36.5799 14.3144 36.3696 14.5247 36.1112 14.5247H34.7715C34.513 14.5247 34.3027 14.3144 34.3027 14.056V12.7164C34.3027 12.458 34.513 12.2477 34.7715 12.2477H36.1112C36.3696 12.2477 36.5799 12.458 36.5799 12.7164V14.056Z" fill="#491352"/>
<path d="M36.1112 16.1732H34.7715C34.1685 16.1732 33.6777 16.664 33.6777 17.267V18.6065C33.6777 19.2095 34.1685 19.7002 34.7715 19.7002H36.1112C36.7141 19.7002 37.2049 19.2095 37.2049 18.6065V17.267C37.2049 16.6638 36.7143 16.1732 36.1112 16.1732ZM36.5799 18.6065C36.5799 18.8649 36.3696 19.0752 36.1112 19.0752H34.7715C34.513 19.0752 34.3027 18.8649 34.3027 18.6065V17.267C34.3027 17.0085 34.513 16.7982 34.7715 16.7982H36.1112C36.3696 16.7982 36.5799 17.0085 36.5799 17.267V18.6065Z" fill="#491352"/>
</svg>
