<svg width="40" height="40" viewBox="0 0 40 40" fill="none" xmlns="http://www.w3.org/2000/svg">
<path d="M14.7742 13.9918C14.1718 13.9918 13.7592 13.9356 13.7226 13.9307C13.2666 13.8667 12.9493 13.4455 13.0127 12.9896C13.0768 12.5343 13.4973 12.2168 13.9526 12.2804C13.977 12.2834 15.5395 12.4861 16.8786 11.9989C18.2427 11.5022 19.4878 10.2558 19.5007 10.243C19.8242 9.91645 20.3515 9.9134 20.6786 10.2363C21.0058 10.5598 21.0094 11.0865 20.6866 11.4136C20.6256 11.4759 19.1712 12.9382 17.4488 13.565C16.4978 13.9111 15.4987 13.9918 14.7742 13.9918Z" fill="#967ADC"/>
<path d="M8.72697 7.86475C8.29181 7.86475 7.92564 7.52725 7.89634 7.08654C7.86525 6.62756 8.21306 6.23022 8.67205 6.19967C8.71783 6.19662 11.5864 5.99092 14.3281 4.99248C17.0862 3.98904 19.5831 2.23311 19.6081 2.21537C19.984 1.9499 20.504 2.03897 20.7696 2.41436C21.0357 2.78975 20.9471 3.30975 20.5718 3.57584C20.4626 3.65272 17.8723 5.47647 14.8981 6.55858C11.9178 7.64381 8.90947 7.85436 8.78314 7.86287C8.76415 7.86412 8.74525 7.86475 8.72697 7.86475Z" fill="#967ADC"/>
<path d="M23.4506 30.5897C23.3468 30.5897 23.2406 30.5701 23.1393 30.5287C22.712 30.3553 22.5058 29.8694 22.6779 29.4423C22.7096 29.3679 23.4384 27.5905 24.8581 26.3992C26.2618 25.2212 28.2563 24.6926 28.3394 24.6707C28.7862 24.5548 29.2402 24.8209 29.3574 25.2676C29.4722 25.712 29.206 26.1673 28.7593 26.2833C28.7446 26.2881 27.0406 26.7423 25.9298 27.676C24.8422 28.5879 24.2294 30.0526 24.2233 30.0673C24.0914 30.3919 23.7802 30.5897 23.4506 30.5897Z" fill="#967ADC"/>
<path d="M26.1556 38.052C25.9957 38.052 25.8346 38.0068 25.693 37.9116C25.3097 37.6553 25.2071 37.1377 25.4635 36.7544C25.5343 36.6494 27.2212 34.1495 29.6503 32.1109C32.0746 30.0772 34.9506 28.7442 35.0702 28.6893C35.4889 28.4977 35.9833 28.6808 36.1761 29.0982C36.369 29.5169 36.1846 30.0113 35.766 30.2041C35.7391 30.2163 32.9707 31.5005 30.7221 33.3877C28.4711 35.2749 26.8647 37.6588 26.8476 37.682C26.6878 37.9226 26.4241 38.052 26.1556 38.052Z" fill="#967ADC"/>
<path d="M10.4908 19.7135C10.2131 19.7135 9.9415 19.5744 9.78337 19.3216C9.53986 18.9316 9.65767 18.4184 10.047 18.1742C10.0605 18.1657 11.3935 17.3155 12.1076 16.0777C12.8338 14.821 12.9865 13.065 12.9877 13.0473C13.0255 12.589 13.4271 12.2478 13.8861 12.285C14.3445 12.3228 14.6856 12.7238 14.6491 13.1822C14.6417 13.2688 14.4678 15.3232 13.551 16.9113C12.6245 18.5159 11.0005 19.5431 10.9321 19.5864C10.7948 19.672 10.6416 19.7135 10.4908 19.7135Z" fill="#967ADC"/>
<path d="M2.67055 18.3453C2.45141 18.3453 2.23289 18.2592 2.06938 18.0891C1.75079 17.757 1.76172 17.2291 2.09375 16.9105C2.12852 16.8769 4.19211 14.8763 5.65078 12.3506C7.11805 9.8086 7.90235 6.85883 7.91024 6.82891C8.02743 6.38399 8.48274 6.11781 8.92766 6.23446C9.37258 6.35164 9.63868 6.80633 9.52211 7.25188C9.48852 7.38063 8.67618 10.4427 7.09414 13.1838C5.50789 15.9302 3.33875 18.0256 3.24719 18.1135C3.08618 18.2684 2.87805 18.3453 2.67055 18.3453Z" fill="#967ADC"/>
<path d="M28.5555 26.2875C28.2052 26.2875 27.878 26.0642 27.7633 25.7114C27.7389 25.6357 27.1555 23.8046 27.4776 21.9797C27.795 20.1738 28.9828 18.488 29.0328 18.4171C29.3001 18.0418 29.8201 17.9539 30.1949 18.2206C30.5708 18.4873 30.6588 19.0073 30.3915 19.3827C30.383 19.3961 29.3697 20.839 29.1183 22.2689C28.8705 23.6764 29.3453 25.1839 29.3502 25.1985C29.4894 25.6367 29.2501 26.1067 28.8119 26.2471C28.7276 26.2753 28.6397 26.2875 28.5555 26.2875Z" fill="#967ADC"/>
<path d="M35.4244 30.2673C35.0045 30.2673 34.6431 29.95 34.598 29.5228C34.5845 29.3982 34.2696 26.3979 34.8202 23.2754C35.3695 20.1578 36.7159 17.2898 36.772 17.1696C36.9698 16.7533 37.4666 16.5757 37.8828 16.7729C38.2978 16.9694 38.4761 17.4662 38.2783 17.8825C38.2661 17.91 36.971 20.6736 36.462 23.5634C35.9529 26.4467 36.252 29.3153 36.2545 29.3446C36.3033 29.8011 35.9737 30.2124 35.5147 30.2625C35.4854 30.2648 35.4548 30.2673 35.4244 30.2673Z" fill="#967ADC"/>
<path d="M11.6377 26.2887C11.5522 26.2887 11.4655 26.2753 11.3801 26.2484C10.9431 26.1056 10.7032 25.6356 10.8442 25.1985C10.8491 25.1838 11.3239 23.6763 11.0755 22.2689C10.865 21.0739 10.0849 19.78 9.80234 19.3827C9.53562 19.0073 9.62351 18.4873 9.99828 18.2206C10.3737 17.9539 10.8937 18.0418 11.1604 18.4171C11.211 18.4879 12.3982 20.1737 12.7167 21.9797C13.0384 23.8046 12.4549 25.6356 12.4299 25.7113C12.3158 26.0653 11.9887 26.2887 11.6377 26.2887Z" fill="#967ADC"/>
<path d="M4.76894 30.2673C4.73902 30.2673 4.70855 30.2649 4.678 30.2624C4.22081 30.2124 3.89003 29.801 3.93949 29.3446C3.94253 29.3153 4.24097 26.4467 3.73261 23.5634C3.22175 20.6656 1.92785 17.9099 1.91504 17.8824C1.71793 17.4662 1.8955 16.9693 2.31175 16.7728C2.728 16.5757 3.22488 16.7533 3.42144 17.1695C3.47878 17.2898 4.82456 20.1577 5.37386 23.2753C5.92503 26.3978 5.61003 29.397 5.59667 29.5228C5.55019 29.9499 5.18886 30.2673 4.76894 30.2673Z" fill="#967ADC"/>
<path d="M29.7029 19.7139C29.5515 19.7139 29.3989 19.673 29.2622 19.5869C29.1938 19.5436 27.5691 18.5164 26.6427 16.9119C25.726 15.3237 25.5514 13.2694 25.5441 13.1827C25.5074 12.7237 25.8492 12.3221 26.3081 12.2849C26.7671 12.2483 27.1699 12.5901 27.2066 13.0491C27.2066 13.0655 27.3604 14.8216 28.0854 16.0787C28.7959 17.3074 30.1313 18.1655 30.1459 18.1741C30.5353 18.4175 30.6538 18.932 30.4096 19.322C30.2523 19.5748 29.98 19.7139 29.7029 19.7139Z" fill="#967ADC"/>
<path d="M37.5227 18.3454C37.3163 18.3454 37.1077 18.2685 36.9465 18.1135C36.8549 18.0256 34.6857 15.9303 33.1002 13.1837C31.5181 10.4427 30.7052 7.38068 30.6709 7.25185C30.555 6.8063 30.8211 6.35099 31.2666 6.23443C31.711 6.11786 32.1675 6.38396 32.2835 6.8295C32.292 6.85818 33.0758 9.80857 34.543 12.3506C36.0066 14.8854 38.0805 16.8909 38.1 16.9111C38.432 17.2297 38.443 17.757 38.1244 18.089C37.9608 18.2593 37.7412 18.3454 37.5227 18.3454Z" fill="#967ADC"/>
<path d="M16.7429 30.5898C16.414 30.5898 16.1021 30.392 15.9702 30.0698C15.9574 30.038 15.3525 28.5903 14.2643 27.676C13.3348 26.8961 11.906 26.4066 11.4336 26.2833C10.988 26.1673 10.7213 25.712 10.8373 25.2676C10.9533 24.8209 11.4079 24.5548 11.8535 24.6707C11.9377 24.6926 13.9311 25.2212 15.3355 26.3992C16.7551 27.5905 17.4845 29.3679 17.515 29.4423C17.6877 29.8695 17.4814 30.3554 17.0547 30.5287C16.9529 30.5702 16.8467 30.5898 16.7429 30.5898Z" fill="#967ADC"/>
<path d="M14.038 38.0532C13.7694 38.0532 13.5064 37.9226 13.3453 37.6821C13.3294 37.6589 11.7139 35.2701 9.47208 33.3877C7.21684 31.4956 4.4545 30.2163 4.427 30.2041C4.00887 30.0112 3.8252 29.5169 4.01746 29.0983C4.20973 28.6808 4.70473 28.4976 5.12278 28.6894C5.24356 28.7443 8.11833 30.0773 10.5432 32.1109C12.9723 34.1495 14.6593 36.6494 14.7301 36.7544C14.9858 37.1377 14.8833 37.6553 14.5012 37.9116C14.359 38.0068 14.1979 38.0532 14.038 38.0532Z" fill="#967ADC"/>
<path d="M25.4197 13.9925C24.6946 13.9925 23.6961 13.9119 22.7463 13.5658C21.0227 12.9384 19.5683 11.4767 19.5073 11.4144C19.1844 11.0867 19.1881 10.5594 19.5158 10.2358C19.8436 9.91295 20.3709 9.91662 20.6944 10.2444C20.7059 10.2559 21.9516 11.5029 23.3151 11.9997C24.6494 12.4849 26.2252 12.2829 26.2399 12.2811C26.6965 12.217 27.1164 12.535 27.1811 12.9909C27.2445 13.4462 26.9272 13.868 26.4719 13.9315C26.4352 13.9369 26.0226 13.9925 25.4197 13.9925Z" fill="#967ADC"/>
<path d="M31.4663 7.86485C31.4481 7.86485 31.4297 7.86422 31.4102 7.86305C31.2832 7.85454 28.2754 7.64391 25.2946 6.5593C22.321 5.47665 19.7308 3.6529 19.6215 3.57594C19.2461 3.30985 19.1576 2.78985 19.4237 2.41383C19.6898 2.03844 20.2098 1.94993 20.5852 2.2161C20.6102 2.23321 23.1071 3.98915 25.8659 4.99321C28.6246 5.99719 31.4932 6.19797 31.5213 6.19977C31.9803 6.23032 32.3282 6.62766 32.2965 7.08665C32.2671 7.52735 31.9009 7.86485 31.4663 7.86485Z" fill="#967ADC"/>
<path d="M16.762 30.6018C16.4501 30.6018 16.1511 30.426 16.0088 30.1257C15.8111 29.7082 15.988 29.2126 16.4037 29.0149C16.4825 28.9782 18.3489 28.1006 20.1823 28.1006C22.0359 28.1006 23.7376 28.9929 23.8083 29.032C24.2148 29.2468 24.3699 29.7521 24.1538 30.1574C23.9377 30.5651 23.4348 30.7189 23.0271 30.5041C23.0051 30.4919 21.6062 29.7668 20.1823 29.7668C18.9696 29.7668 17.5598 30.3112 17.119 30.52C17.0037 30.5749 16.8816 30.6018 16.762 30.6018Z" fill="#967ADC"/>
<path d="M26.1423 38.0575C26.0666 38.0575 25.9884 38.0454 25.9104 38.0233C25.864 38.0099 23.0991 37.2225 20.1824 37.2225C17.2478 37.2225 14.3006 38.0185 14.2713 38.027C13.8275 38.1479 13.3685 37.8866 13.2477 37.4423C13.1262 36.9992 13.3874 36.5414 13.8312 36.4193C13.9594 36.3851 17.0172 35.5576 20.1824 35.5576C23.3543 35.5564 26.2521 36.3876 26.3742 36.423C26.8161 36.5512 27.0713 37.0138 26.9431 37.4557C26.8369 37.8207 26.5036 38.0575 26.1423 38.0575Z" fill="#967ADC"/>
<path d="M22.4875 7.93999C22.5669 8.39288 22.2653 8.82491 21.8113 8.90491C21.3572 8.98483 20.9257 8.68273 20.8458 8.22937C20.7659 7.77585 21.0686 7.34374 21.522 7.26382C21.9748 7.18374 22.407 7.48648 22.4875 7.93999Z" fill="#434A54"/>
<path d="M13.3337 8.0841C13.3337 8.54434 12.9602 8.91715 12.5 8.91715C12.0398 8.91715 11.6669 8.54434 11.6669 8.0841C11.6669 7.62387 12.0398 7.25098 12.5 7.25098C12.9602 7.25098 13.3337 7.62395 13.3337 8.0841Z" fill="#434A54"/>
<path d="M34.9996 26.418C34.9996 26.877 34.6261 27.2504 34.1671 27.2504C33.7057 27.2504 33.3322 26.877 33.3322 26.418C33.3322 25.9566 33.7056 25.583 34.1671 25.583C34.6261 25.5831 34.9996 25.9566 34.9996 26.418Z" fill="#434A54"/>
<path d="M31.6207 14.7501C31.6207 15.2104 31.2472 15.5838 30.7882 15.5838C30.3268 15.5838 29.9545 15.2104 29.9545 14.7501C29.9545 14.2899 30.3268 13.917 30.7882 13.917C31.2472 13.9169 31.6207 14.2899 31.6207 14.7501Z" fill="#434A54"/>
<path d="M11.4734 29.7627C11.5534 30.2168 11.2506 30.649 10.7972 30.7295C10.3437 30.8089 9.91157 30.5062 9.83164 30.0533C9.75172 29.5992 10.0545 29.1671 10.5079 29.0878C10.9613 29.0085 11.3934 29.3112 11.4734 29.7627Z" fill="#434A54"/>
<path d="M24.1538 32.9389C24.2332 33.393 23.9304 33.8251 23.4787 33.9044C23.0246 33.9838 22.5925 33.6811 22.5119 33.2294C22.4325 32.7753 22.7353 32.3432 23.1882 32.2626C23.6423 32.1833 24.0744 32.4861 24.1538 32.9389Z" fill="#434A54"/>
<path d="M16.654 17.94C16.7339 18.3928 16.4312 18.8249 15.9783 18.9049C15.5249 18.9848 15.0928 18.6821 15.0128 18.2294C14.9329 17.7758 15.2356 17.3437 15.689 17.2638C16.1419 17.1837 16.5741 17.4865 16.654 17.94Z" fill="#434A54"/>
<path d="M8.31059 19.5689C8.39051 20.0218 8.08785 20.4539 7.63496 20.5339C7.18144 20.6138 6.74934 20.3111 6.66941 19.8583C6.58949 19.4047 6.89223 18.9726 7.34566 18.8927C7.79855 18.8127 8.23066 19.1154 8.31059 19.5689Z" fill="#434A54"/>
<path d="M36.8537 31.1504C36.7122 31.1504 36.5693 31.115 36.4375 31.0393L19.583 21.308C19.1844 21.078 19.0483 20.5684 19.2784 20.1698C19.5086 19.7713 20.0181 19.6345 20.4167 19.8647L37.2712 29.5953C37.6704 29.8259 37.8059 30.335 37.5752 30.7341C37.4213 31.0002 37.1405 31.1504 36.8537 31.1504Z" fill="#AC92EB"/>
<path d="M20.0012 21.4198C19.953 21.4198 19.9041 21.415 19.8553 21.4064L0.689436 18.027C0.23592 17.9471 -0.0668143 17.5149 0.0131858 17.0615C0.0931077 16.6086 0.525842 16.3059 0.978733 16.3859L20.1446 19.7653C20.5981 19.8452 20.9008 20.2774 20.8208 20.7309C20.7494 21.1348 20.3979 21.4198 20.0012 21.4198Z" fill="#AC92EB"/>
<path d="M19.9992 21.4199C19.6019 21.4199 19.2503 21.135 19.1789 20.7303C19.0995 20.2774 19.4017 19.8453 19.8552 19.7653L39.0204 16.3858C39.4745 16.3059 39.9066 16.6087 39.9871 17.0615C40.0665 17.515 39.7638 17.9471 39.3109 18.027L20.1445 21.4064C20.0956 21.415 20.0468 21.4199 19.9992 21.4199Z" fill="#AC92EB"/>
<path d="M3.14651 31.1504C2.85838 31.1504 2.57831 31.0002 2.42385 30.7341C2.19377 30.335 2.33049 29.8259 2.72901 29.5953L19.5829 19.8646C19.9821 19.6346 20.4917 19.7713 20.7218 20.1698C20.952 20.5683 20.8152 21.078 20.4167 21.308L3.56221 31.0393C3.43104 31.1149 3.2876 31.1504 3.14651 31.1504Z" fill="#AC92EB"/>
<path d="M19.9992 21.4198C19.8106 21.4198 19.6201 21.3551 19.4645 21.2239C19.1117 20.9285 19.0653 20.4024 19.3614 20.0503L31.8721 5.14151C32.1674 4.7887 32.6924 4.74292 33.0452 5.03901C33.3979 5.3344 33.4442 5.86049 33.1489 6.2126L20.6381 21.1214C20.4734 21.3172 20.2371 21.4198 19.9992 21.4198Z" fill="#AC92EB"/>
<path d="M13.3435 39.7087C13.2489 39.7087 13.1525 39.6916 13.0585 39.6575C12.6264 39.5 12.403 39.0227 12.5605 38.5894L19.2168 20.3018C19.3743 19.8691 19.8528 19.6463 20.2848 19.8032C20.7176 19.9607 20.9404 20.4392 20.7829 20.8713L14.1266 39.1594C14.0033 39.4988 13.6841 39.7087 13.3435 39.7087Z" fill="#AC92EB"/>
<path d="M19.9998 21.4202C19.5396 21.4202 19.1666 21.0462 19.1666 20.5859V1.12406C19.1666 0.663828 19.5395 0.291016 19.9998 0.291016C20.46 0.291016 20.8329 0.663828 20.8329 1.12406V20.5859C20.8329 21.0462 20.46 21.4202 19.9998 21.4202Z" fill="#AC92EB"/>
<path d="M26.6561 39.7087C26.3156 39.7087 25.9957 39.4975 25.8737 39.1594L19.2167 20.8713C19.0592 20.4392 19.2827 19.9607 19.7148 19.8032C20.1475 19.6463 20.6254 19.8691 20.7828 20.3018L27.4385 38.5894C27.5971 39.0227 27.3738 39.5 26.9405 39.6575C26.8478 39.6917 26.7501 39.7087 26.6561 39.7087Z" fill="#AC92EB"/>
<path d="M20.0004 21.4207C19.7625 21.4207 19.5262 21.3182 19.3615 21.1224L6.85194 6.21352C6.55592 5.86133 6.60171 5.33532 6.95444 5.03993C7.30725 4.74391 7.83272 4.78969 8.12874 5.14243L20.6382 20.0511C20.9342 20.4033 20.8878 20.9294 20.5357 21.2247C20.3794 21.3559 20.189 21.4207 20.0004 21.4207Z" fill="#AC92EB"/>
</svg>
