<svg width="40" height="40" viewBox="0 0 40 40" fill="none" xmlns="http://www.w3.org/2000/svg">
<path d="M38.5136 20.8817H1.48645C1.05504 20.8817 0.7052 20.5319 0.7052 20.1005V2.10938C0.7052 1.67797 1.05504 1.32812 1.48645 1.32812H38.5135C38.9449 1.32812 39.2947 1.67797 39.2947 2.10938V20.1005C39.2949 20.532 38.945 20.8817 38.5136 20.8817Z" fill="#40C4DF"/>
<path d="M6.00947 8.16602V9.50508C6.00947 9.93789 5.65947 10.2863 5.22822 10.2863H3.88916C3.45791 10.2863 3.10791 9.93789 3.10791 9.50508V8.16602C3.10791 7.73477 3.45791 7.38477 3.88916 7.38477H5.22822C5.65947 7.38477 6.00947 7.73477 6.00947 8.16602Z" fill="#D8D6D7"/>
<path d="M10.4219 8.16602V9.50508C10.4219 9.93789 10.0719 10.2863 9.64067 10.2863H8.30005C7.8688 10.2863 7.5188 9.93789 7.5188 9.50508V8.16602C7.5188 7.73477 7.8688 7.38477 8.30005 7.38477H9.64067C10.0719 7.38477 10.4219 7.73477 10.4219 8.16602Z" fill="#D8D6D7"/>
<path d="M14.833 8.16602V9.50508C14.833 9.93789 14.483 10.2863 14.0517 10.2863H12.7126C12.2814 10.2863 11.9314 9.93789 11.9314 9.50508V8.16602C11.9314 7.73477 12.2814 7.38477 12.7126 7.38477H14.0517C14.483 7.38477 14.833 7.73477 14.833 8.16602Z" fill="#D8D6D7"/>
<path d="M19.2454 8.16602V9.50508C19.2454 9.93789 18.8954 10.2863 18.4642 10.2863H17.1251C16.6923 10.2863 16.3439 9.93789 16.3439 9.50508V8.16602C16.3439 7.73477 16.6923 7.38477 17.1251 7.38477H18.4642C18.8954 7.38477 19.2454 7.73477 19.2454 8.16602Z" fill="#D8D6D7"/>
<path d="M6.00947 3.60352V4.94258C6.00947 5.37539 5.65947 5.72383 5.22822 5.72383H3.88916C3.45791 5.72383 3.10791 5.37539 3.10791 4.94258V3.60352C3.10791 3.17227 3.45791 2.82227 3.88916 2.82227H5.22822C5.65947 2.82227 6.00947 3.17227 6.00947 3.60352Z" fill="#D8D6D7"/>
<path d="M10.4219 3.60352V4.94258C10.4219 5.37539 10.0719 5.72383 9.64067 5.72383H8.30005C7.8688 5.72383 7.5188 5.37539 7.5188 4.94258V3.60352C7.5188 3.17227 7.8688 2.82227 8.30005 2.82227H9.64067C10.0719 2.82227 10.4219 3.17227 10.4219 3.60352Z" fill="#D8D6D7"/>
<path d="M14.833 3.60352V4.94258C14.833 5.37539 14.483 5.72383 14.0517 5.72383H12.7126C12.2814 5.72383 11.9314 5.37539 11.9314 4.94258V3.60352C11.9314 3.17227 12.2814 2.82227 12.7126 2.82227H14.0517C14.483 2.82227 14.833 3.17227 14.833 3.60352Z" fill="#D8D6D7"/>
<path d="M19.2454 3.60352V4.94258C19.2454 5.37539 18.8954 5.72383 18.4642 5.72383H17.1251C16.6923 5.72383 16.3439 5.37539 16.3439 4.94258V3.60352C16.3439 3.17227 16.6923 2.82227 17.1251 2.82227H18.4642C18.8954 2.82227 19.2454 3.17227 19.2454 3.60352Z" fill="#D8D6D7"/>
<path d="M23.6564 3.60352V4.94258C23.6564 5.37539 23.308 5.72383 22.8752 5.72383H21.5361C21.1049 5.72383 20.7549 5.37539 20.7549 4.94258V3.60352C20.7549 3.17227 21.1049 2.82227 21.5361 2.82227H22.8752C23.308 2.82227 23.6564 3.17227 23.6564 3.60352Z" fill="#D8D6D7"/>
<path d="M28.0689 3.60352V4.94258C28.0689 5.37539 27.7189 5.72383 27.2877 5.72383H25.9486C25.5174 5.72383 25.1674 5.37539 25.1674 4.94258V3.60352C25.1674 3.17227 25.5174 2.82227 25.9486 2.82227H27.2877C27.7189 2.82227 28.0689 3.17227 28.0689 3.60352Z" fill="#D8D6D7"/>
<path d="M32.4814 3.60352V4.94258C32.4814 5.37539 32.1314 5.72383 31.7001 5.72383H30.3595C29.9282 5.72383 29.5782 5.37539 29.5782 4.94258V3.60352C29.5782 3.17227 29.9282 2.82227 30.3595 2.82227H31.7001C32.1314 2.82227 32.4814 3.17227 32.4814 3.60352Z" fill="#D8D6D7"/>
<path d="M32.4814 3.60352V4.94258C32.4814 5.37539 32.1314 5.72383 31.7001 5.72383H30.3595C29.9282 5.72383 29.5782 5.37539 29.5782 4.94258V3.60352C29.5782 3.17227 29.9282 2.82227 30.3595 2.82227H31.7001C32.1314 2.82227 32.4814 3.17227 32.4814 3.60352Z" fill="#D8D6D7"/>
<path d="M36.8923 3.60352V4.94258C36.8923 5.37539 36.5423 5.72383 36.111 5.72383H34.772C34.3407 5.72383 33.9907 5.37539 33.9907 4.94258V3.60352C33.9907 3.17227 34.3407 2.82227 34.772 2.82227H36.111C36.5423 2.82227 36.8923 3.17227 36.8923 3.60352Z" fill="#D8D6D7"/>
<path d="M6.00947 12.7158V14.0564C6.00947 14.4877 5.65947 14.8377 5.22822 14.8377H3.88916C3.45791 14.8377 3.10791 14.4877 3.10791 14.0564V12.7158C3.10791 12.2846 3.45791 11.9346 3.88916 11.9346H5.22822C5.65947 11.9346 6.00947 12.2846 6.00947 12.7158Z" fill="#D8D6D7"/>
<path d="M10.4219 12.7158V14.0564C10.4219 14.4877 10.0719 14.8377 9.64067 14.8377H8.30005C7.8688 14.8377 7.5188 14.4877 7.5188 14.0564V12.7158C7.5188 12.2846 7.8688 11.9346 8.30005 11.9346H9.64067C10.0719 11.9346 10.4219 12.2846 10.4219 12.7158Z" fill="#D8D6D7"/>
<path d="M14.833 12.7158V14.0564C14.833 14.4877 14.483 14.8377 14.0517 14.8377H12.7126C12.2814 14.8377 11.9314 14.4877 11.9314 14.0564V12.7158C11.9314 12.2846 12.2814 11.9346 12.7126 11.9346H14.0517C14.483 11.9346 14.833 12.2846 14.833 12.7158Z" fill="#D8D6D7"/>
<path d="M23.6564 8.16602V14.0566C23.6564 14.4879 23.3079 14.8379 22.8751 14.8379H17.1251C16.6923 14.8379 16.3439 14.4879 16.3439 14.0566V12.716C16.3439 12.2848 16.6923 11.9348 17.1251 11.9348H19.9736C20.4048 11.9348 20.7548 11.5863 20.7548 11.1535V8.16602C20.7548 7.73477 21.1048 7.38477 21.5361 7.38477H22.8751C23.3079 7.38477 23.6564 7.73477 23.6564 8.16602Z" fill="#D8D6D7"/>
<path d="M28.0689 12.7158V14.0564C28.0689 14.4877 27.7189 14.8377 27.2877 14.8377H25.9486C25.5174 14.8377 25.1674 14.4877 25.1674 14.0564V12.7158C25.1674 12.2846 25.5174 11.9346 25.9486 11.9346H27.2877C27.7189 11.9346 28.0689 12.2846 28.0689 12.7158Z" fill="#D8D6D7"/>
<path d="M6.00947 17.2676V18.6066C6.00947 19.0379 5.65947 19.3879 5.22822 19.3879H3.88916C3.45791 19.3879 3.10791 19.0379 3.10791 18.6066V17.2676C3.10791 16.8363 3.45791 16.4863 3.88916 16.4863H5.22822C5.65947 16.4863 6.00947 16.8363 6.00947 17.2676Z" fill="#D8D6D7"/>
<path d="M19.2454 17.2676V18.6066C19.2454 19.0379 18.8954 19.3879 18.4641 19.3879H8.30005C7.8688 19.3879 7.5188 19.0379 7.5188 18.6066V17.2676C7.5188 16.8363 7.8688 16.4863 8.30005 16.4863H18.4641C18.8954 16.4863 19.2454 16.8363 19.2454 17.2676Z" fill="#D8D6D7"/>
<path d="M23.6564 17.2676V18.6066C23.6564 19.0379 23.308 19.3879 22.8752 19.3879H21.5361C21.1049 19.3879 20.7549 19.0379 20.7549 18.6066V17.2676C20.7549 16.8363 21.1049 16.4863 21.5361 16.4863H22.8752C23.308 16.4863 23.6564 16.8363 23.6564 17.2676Z" fill="#D8D6D7"/>
<path d="M32.4814 8.16602V9.50508C32.4814 9.93789 32.1314 10.2863 31.7002 10.2863H25.9486C25.5174 10.2863 25.1674 9.93789 25.1674 9.50508V8.16602C25.1674 7.73477 25.5174 7.38477 25.9486 7.38477H31.7002C32.1314 7.38477 32.4814 7.73477 32.4814 8.16602Z" fill="#D8D6D7"/>
<path d="M32.4814 12.7158V14.0564C32.4814 14.4877 32.1314 14.8377 31.7001 14.8377H30.3595C29.9282 14.8377 29.5782 14.4877 29.5782 14.0564V12.7158C29.5782 12.2846 29.9282 11.9346 30.3595 11.9346H31.7001C32.1314 11.9346 32.4814 12.2846 32.4814 12.7158Z" fill="#D8D6D7"/>
<path d="M32.4814 17.2676V18.6066C32.4814 19.0379 32.1314 19.3879 31.7001 19.3879H30.3595C29.9282 19.3879 29.5782 19.0379 29.5782 18.6066V17.2676C29.5782 16.8363 29.9282 16.4863 30.3595 16.4863H31.7001C32.1314 16.4863 32.4814 16.8363 32.4814 17.2676Z" fill="#D8D6D7"/>
<path d="M36.8923 8.16602V9.50508C36.8923 9.93789 36.5423 10.2863 36.111 10.2863H34.772C34.3407 10.2863 33.9907 9.93789 33.9907 9.50508V8.16602C33.9907 7.73477 34.3407 7.38477 34.772 7.38477H36.111C36.5423 7.38477 36.8923 7.73477 36.8923 8.16602Z" fill="#D8D6D7"/>
<path d="M36.8923 12.7158V14.0564C36.8923 14.4877 36.5423 14.8377 36.111 14.8377H34.772C34.3407 14.8377 33.9907 14.4877 33.9907 14.0564V12.7158C33.9907 12.2846 34.3407 11.9346 34.772 11.9346H36.111C36.5423 11.9346 36.8923 12.2846 36.8923 12.7158Z" fill="#D8D6D7"/>
<path d="M36.8923 17.2676V18.6066C36.8923 19.0379 36.5423 19.3879 36.111 19.3879H34.772C34.3407 19.3879 33.9907 19.0379 33.9907 18.6066V17.2676C33.9907 16.8363 34.3407 16.4863 34.772 16.4863H36.111C36.5423 16.4863 36.8923 16.8363 36.8923 17.2676Z" fill="#D8D6D7"/>
<path d="M6.00947 8.16602V8.48945C6.00947 8.92227 5.65947 9.2707 5.22822 9.2707H3.88916C3.45791 9.2707 3.10791 8.92227 3.10791 8.48945V8.16602C3.10791 7.73477 3.45791 7.38477 3.88916 7.38477H5.22822C5.65947 7.38477 6.00947 7.73477 6.00947 8.16602Z" fill="white"/>
<path d="M10.4219 8.16602V8.48945C10.4219 8.92227 10.0719 9.2707 9.64067 9.2707H8.30005C7.8688 9.2707 7.5188 8.92227 7.5188 8.48945V8.16602C7.5188 7.73477 7.8688 7.38477 8.30005 7.38477H9.64067C10.0719 7.38477 10.4219 7.73477 10.4219 8.16602Z" fill="white"/>
<path d="M14.833 8.16602V8.48945C14.833 8.92227 14.483 9.2707 14.0517 9.2707H12.7126C12.2814 9.2707 11.9314 8.92227 11.9314 8.48945V8.16602C11.9314 7.73477 12.2814 7.38477 12.7126 7.38477H14.0517C14.483 7.38477 14.833 7.73477 14.833 8.16602Z" fill="white"/>
<path d="M19.2454 8.16602V8.48945C19.2454 8.92227 18.8954 9.2707 18.4642 9.2707H17.1251C16.6923 9.2707 16.3439 8.92227 16.3439 8.48945V8.16602C16.3439 7.73477 16.6923 7.38477 17.1251 7.38477H18.4642C18.8954 7.38477 19.2454 7.73477 19.2454 8.16602Z" fill="white"/>
<path d="M6.00947 3.60352V3.92695C6.00947 4.35977 5.65947 4.7082 5.22822 4.7082H3.88916C3.45791 4.7082 3.10791 4.35977 3.10791 3.92695V3.60352C3.10791 3.17227 3.45791 2.82227 3.88916 2.82227H5.22822C5.65947 2.82227 6.00947 3.17227 6.00947 3.60352Z" fill="white"/>
<path d="M10.4219 3.60352V3.92695C10.4219 4.35977 10.0719 4.7082 9.64067 4.7082H8.30005C7.8688 4.7082 7.5188 4.35977 7.5188 3.92695V3.60352C7.5188 3.17227 7.8688 2.82227 8.30005 2.82227H9.64067C10.0719 2.82227 10.4219 3.17227 10.4219 3.60352Z" fill="white"/>
<path d="M14.833 3.60352V3.92695C14.833 4.35977 14.483 4.7082 14.0517 4.7082H12.7126C12.2814 4.7082 11.9314 4.35977 11.9314 3.92695V3.60352C11.9314 3.17227 12.2814 2.82227 12.7126 2.82227H14.0517C14.483 2.82227 14.833 3.17227 14.833 3.60352Z" fill="white"/>
<path d="M19.2454 3.60352V3.92695C19.2454 4.35977 18.8954 4.7082 18.4642 4.7082H17.1251C16.6923 4.7082 16.3439 4.35977 16.3439 3.92695V3.60352C16.3439 3.17227 16.6923 2.82227 17.1251 2.82227H18.4642C18.8954 2.82227 19.2454 3.17227 19.2454 3.60352Z" fill="white"/>
<path d="M23.6564 3.60352V3.92695C23.6564 4.35977 23.308 4.7082 22.8752 4.7082H21.5361C21.1049 4.7082 20.7549 4.35977 20.7549 3.92695V3.60352C20.7549 3.17227 21.1049 2.82227 21.5361 2.82227H22.8752C23.308 2.82227 23.6564 3.17227 23.6564 3.60352Z" fill="white"/>
<path d="M28.0689 3.60352V3.92695C28.0689 4.35977 27.7189 4.7082 27.2877 4.7082H25.9486C25.5174 4.7082 25.1674 4.35977 25.1674 3.92695V3.60352C25.1674 3.17227 25.5174 2.82227 25.9486 2.82227H27.2877C27.7189 2.82227 28.0689 3.17227 28.0689 3.60352Z" fill="white"/>
<path d="M32.4814 3.60352V3.92695C32.4814 4.35977 32.1314 4.7082 31.7001 4.7082H30.3595C29.9282 4.7082 29.5782 4.35977 29.5782 3.92695V3.60352C29.5782 3.17227 29.9282 2.82227 30.3595 2.82227H31.7001C32.1314 2.82227 32.4814 3.17227 32.4814 3.60352Z" fill="white"/>
<path d="M32.4814 3.60352V3.92695C32.4814 4.35977 32.1314 4.7082 31.7001 4.7082H30.3595C29.9282 4.7082 29.5782 4.35977 29.5782 3.92695V3.60352C29.5782 3.17227 29.9282 2.82227 30.3595 2.82227H31.7001C32.1314 2.82227 32.4814 3.17227 32.4814 3.60352Z" fill="white"/>
<path d="M36.8923 3.60352V3.92695C36.8923 4.35977 36.5423 4.7082 36.111 4.7082H34.772C34.3407 4.7082 33.9907 4.35977 33.9907 3.92695V3.60352C33.9907 3.17227 34.3407 2.82227 34.772 2.82227H36.111C36.5423 2.82227 36.8923 3.17227 36.8923 3.60352Z" fill="white"/>
<path d="M6.00947 12.7158V13.0408C6.00947 13.4721 5.65947 13.8221 5.22822 13.8221H3.88916C3.45791 13.8221 3.10791 13.4721 3.10791 13.0408V12.7158C3.10791 12.2846 3.45791 11.9346 3.88916 11.9346H5.22822C5.65947 11.9346 6.00947 12.2846 6.00947 12.7158Z" fill="white"/>
<path d="M10.4219 12.7158V13.0408C10.4219 13.4721 10.0719 13.8221 9.64067 13.8221H8.30005C7.8688 13.8221 7.5188 13.4721 7.5188 13.0408V12.7158C7.5188 12.2846 7.8688 11.9346 8.30005 11.9346H9.64067C10.0719 11.9346 10.4219 12.2846 10.4219 12.7158Z" fill="white"/>
<path d="M14.833 12.7158V13.0408C14.833 13.4721 14.483 13.8221 14.0517 13.8221H12.7126C12.2814 13.8221 11.9314 13.4721 11.9314 13.0408V12.7158C11.9314 12.2846 12.2814 11.9346 12.7126 11.9346H14.0517C14.483 11.9346 14.833 12.2846 14.833 12.7158Z" fill="white"/>
<path d="M23.6564 8.16602V13.041C23.6564 13.4723 23.3079 13.8223 22.8751 13.8223H17.1251C16.6923 13.8223 16.3439 13.4723 16.3439 13.041V12.716C16.3439 12.2848 16.6923 11.9348 17.1251 11.9348H19.9736C20.4048 11.9348 20.7548 11.5863 20.7548 11.1535V8.16602C20.7548 7.73477 21.1048 7.38477 21.5361 7.38477H22.8751C23.3079 7.38477 23.6564 7.73477 23.6564 8.16602Z" fill="white"/>
<path d="M28.0689 12.7158V13.0408C28.0689 13.4721 27.7189 13.8221 27.2877 13.8221H25.9486C25.5174 13.8221 25.1674 13.4721 25.1674 13.0408V12.7158C25.1674 12.2846 25.5174 11.9346 25.9486 11.9346H27.2877C27.7189 11.9346 28.0689 12.2846 28.0689 12.7158Z" fill="white"/>
<path d="M6.00947 17.2676V17.591C6.00947 18.0223 5.65947 18.3723 5.22822 18.3723H3.88916C3.45791 18.3723 3.10791 18.0223 3.10791 17.591V17.2676C3.10791 16.8363 3.45791 16.4863 3.88916 16.4863H5.22822C5.65947 16.4863 6.00947 16.8363 6.00947 17.2676Z" fill="white"/>
<path d="M19.2454 17.2676V17.591C19.2454 18.0223 18.8954 18.3723 18.4641 18.3723H8.30005C7.8688 18.3723 7.5188 18.0223 7.5188 17.591V17.2676C7.5188 16.8363 7.8688 16.4863 8.30005 16.4863H18.4641C18.8954 16.4863 19.2454 16.8363 19.2454 17.2676Z" fill="white"/>
<path d="M23.6564 17.2676V17.591C23.6564 18.0223 23.308 18.3723 22.8752 18.3723H21.5361C21.1049 18.3723 20.7549 18.0223 20.7549 17.591V17.2676C20.7549 16.8363 21.1049 16.4863 21.5361 16.4863H22.8752C23.308 16.4863 23.6564 16.8363 23.6564 17.2676Z" fill="white"/>
<path d="M32.4814 8.16602V8.48945C32.4814 8.92227 32.1314 9.2707 31.7002 9.2707H25.9486C25.5174 9.2707 25.1674 8.92227 25.1674 8.48945V8.16602C25.1674 7.73477 25.5174 7.38477 25.9486 7.38477H31.7002C32.1314 7.38477 32.4814 7.73477 32.4814 8.16602Z" fill="white"/>
<path d="M32.4814 12.7158V13.0408C32.4814 13.4721 32.1314 13.8221 31.7001 13.8221H30.3595C29.9282 13.8221 29.5782 13.4721 29.5782 13.0408V12.7158C29.5782 12.2846 29.9282 11.9346 30.3595 11.9346H31.7001C32.1314 11.9346 32.4814 12.2846 32.4814 12.7158Z" fill="white"/>
<path d="M32.4814 17.2676V17.591C32.4814 18.0223 32.1314 18.3723 31.7001 18.3723H30.3595C29.9282 18.3723 29.5782 18.0223 29.5782 17.591V17.2676C29.5782 16.8363 29.9282 16.4863 30.3595 16.4863H31.7001C32.1314 16.4863 32.4814 16.8363 32.4814 17.2676Z" fill="white"/>
<path d="M36.8923 8.16602V8.48945C36.8923 8.92227 36.5423 9.2707 36.111 9.2707H34.772C34.3407 9.2707 33.9907 8.92227 33.9907 8.48945V8.16602C33.9907 7.73477 34.3407 7.38477 34.772 7.38477H36.111C36.5423 7.38477 36.8923 7.73477 36.8923 8.16602Z" fill="white"/>
<path d="M36.8923 12.7158V13.0408C36.8923 13.4721 36.5423 13.8221 36.111 13.8221H34.772C34.3407 13.8221 33.9907 13.4721 33.9907 13.0408V12.7158C33.9907 12.2846 34.3407 11.9346 34.772 11.9346H36.111C36.5423 11.9346 36.8923 12.2846 36.8923 12.7158Z" fill="white"/>
<path d="M36.8923 17.2676V17.591C36.8923 18.0223 36.5423 18.3723 36.111 18.3723H34.772C34.3407 18.3723 33.9907 18.0223 33.9907 17.591V17.2676C33.9907 16.8363 34.3407 16.4863 34.772 16.4863H36.111C36.5423 16.4863 36.8923 16.8363 36.8923 17.2676Z" fill="white"/>
<path d="M18.1203 28.9208C16.5095 30.0016 14.9981 31.263 13.3078 33.1286C13.1625 33.2896 13.0843 33.499 13.0843 33.7161V37.1099C13.0843 37.9729 12.3848 38.6724 11.5218 38.6724H4.9562C4.09292 38.6724 3.3937 37.9721 3.3937 37.1088C3.3937 33.974 3.47011 33.9318 3.1562 33.6052C2.00776 32.4005 1.30151 30.7693 1.30151 28.974V25.563C1.30151 25.1316 1.65136 24.7818 2.08276 24.7818H10.6546C11.086 24.7818 11.4359 24.4319 11.4359 24.0005V17.2944C11.4359 16.3866 12.1468 15.6083 13.0543 15.593C13.9778 15.5774 14.7296 16.3225 14.7296 17.2396C14.7296 24.1627 14.7312 26.9121 14.7312 27.2458C15.1923 26.9361 15.6803 26.5344 16.5265 26.6052C16.5296 26.6052 16.5328 26.6052 16.5343 26.6068C17.4929 26.685 17.9382 27.2447 18.3359 27.838C18.575 28.1958 18.4796 28.6818 18.1203 28.9208Z" fill="#EDAF85"/>
<path d="M18.1203 28.9203C16.5095 30.0011 14.9981 31.2625 13.3078 33.1281C13.1625 33.2891 13.0843 33.4984 13.0843 33.7156V37.1094C13.0843 37.9723 12.3848 38.6719 11.5218 38.6719H5.26245C5.21558 38.5234 5.19058 38.3672 5.19058 38.2031C5.19058 35.0672 5.26698 35.025 4.95308 34.6984C3.80464 33.4938 3.09839 31.8625 3.09839 30.0672V26.6563C3.09839 26.2248 3.44823 25.875 3.87964 25.875H12.4515C12.8829 25.875 13.2328 25.5252 13.2328 25.0938V18.3328C13.2328 17.5047 13.8453 16.8188 14.6406 16.7031C14.7632 17.0578 14.7312 16.3037 14.7312 27.2453C15.1923 26.9356 15.6803 26.5339 16.5265 26.6047V26.6156C16.5265 26.6156 16.5296 26.6125 16.5343 26.6062C17.4929 26.6845 17.9382 27.2442 18.3359 27.8375C18.575 28.1953 18.4796 28.6812 18.1203 28.9203Z" fill="#F7C09A"/>
<path d="M21.8831 28.9208C23.4939 30.0016 25.0053 31.263 26.6956 33.1286C26.8409 33.2896 26.919 33.499 26.919 33.7161V37.1099C26.919 37.9729 27.6186 38.6724 28.4816 38.6724H35.0472C35.9105 38.6724 36.6097 37.9721 36.6097 37.1088C36.6097 33.974 36.5333 33.9318 36.8472 33.6052C37.9956 32.4005 38.7019 30.7693 38.7019 28.974V25.563C38.7019 25.1316 38.352 24.7818 37.9206 24.7818H29.3487C28.9173 24.7818 28.5675 24.4319 28.5675 24.0005V17.2944C28.5675 16.3866 27.8566 15.6083 26.949 15.593C26.0256 15.5774 25.2737 16.3225 25.2737 17.2396C25.2737 24.1627 25.2722 26.9121 25.2722 27.2458C24.8111 26.9361 24.3231 26.5344 23.4769 26.6052C23.4737 26.6052 23.4706 26.6052 23.469 26.6068C22.5105 26.685 22.0651 27.2447 21.6675 27.838C21.4284 28.1958 21.5237 28.6818 21.8831 28.9208Z" fill="#EDAF85"/>
<path d="M21.8831 28.9203C23.4939 30.0011 25.0053 31.2625 26.6956 33.1281C26.8409 33.2891 26.9191 33.4984 26.9191 33.7156V37.1094C26.9191 37.9723 27.6186 38.6719 28.4816 38.6719H34.7409C34.7878 38.5234 34.8128 38.3672 34.8128 38.2031C34.8128 35.0672 34.7364 35.025 35.0503 34.6984C36.1987 33.4938 36.905 31.8625 36.905 30.0672V26.6563C36.905 26.2248 36.5551 25.875 36.1237 25.875H27.5519C27.1205 25.875 26.7706 25.5252 26.7706 25.0938V18.3328C26.7706 17.5047 26.1581 16.8188 25.3628 16.7031C25.2401 17.0578 25.2722 16.3037 25.2722 27.2453C24.8111 26.9356 24.3231 26.5339 23.4769 26.6047V26.6156C23.4769 26.6156 23.4737 26.6125 23.469 26.6062C22.5105 26.6845 22.0651 27.2442 21.6675 27.8375C21.4284 28.1953 21.5237 28.6812 21.8831 28.9203Z" fill="#F7C09A"/>
<path d="M38.5141 1.01562H1.48596C0.882837 1.01562 0.392212 1.50641 0.392212 2.10938V20.1C0.392212 20.703 0.882837 21.1938 1.48596 21.1938H11.1239V24.4684H2.08284C1.47971 24.4684 0.989087 24.9592 0.989087 25.5622V28.9731C0.989087 30.7858 1.67877 32.507 2.93081 33.82C3.13377 34.033 3.08143 33.963 3.08143 37.1095C3.08143 38.1434 3.92252 38.9845 4.95643 38.9845H11.5213C12.5552 38.9845 13.3963 38.1434 13.3963 37.1095C13.3963 33.4245 13.3435 33.5547 13.54 33.3377C15.2044 31.4997 16.7013 30.2452 18.2947 29.1806C18.7958 28.8452 18.9305 28.1645 18.5952 27.6634L18.4053 27.3798C17.6622 26.2698 16.168 25.9564 15.0431 26.6613C15.0431 26.5977 15.0427 25.4889 15.0427 21.1939H24.9572C24.9572 24.4384 24.9566 26.368 24.9566 26.6611C22.7505 25.2783 20.0408 28.0672 21.838 29.2694C23.4408 30.3425 24.9527 31.6733 26.4599 33.3377C26.6544 33.5523 26.6038 33.4123 26.6038 37.1095C26.6038 38.1434 27.4449 38.9845 28.4788 38.9845H35.0436C36.0775 38.9845 36.9186 38.1434 36.9186 37.1095C36.9186 33.9553 36.868 34.0308 37.0691 33.82C38.3213 32.5072 39.011 30.7858 39.011 28.9731V25.5622C39.011 24.9592 38.5202 24.4684 37.9172 24.4684H28.8763V21.1938H38.5142C39.1172 21.1938 39.608 20.703 39.608 20.1V2.10938C39.6078 1.50641 39.1172 1.01562 38.5141 1.01562ZM15.3288 27.2206C16.1736 26.6561 17.3208 26.8831 17.886 27.7272C18.7924 29.0816 17.5088 28.0241 13.0767 32.918C12.6735 33.3633 12.7711 33.4742 12.7711 37.1094C12.7711 37.7986 12.2103 38.3594 11.5211 38.3594H4.95643C4.26721 38.3594 3.70643 37.7986 3.70643 37.1094C3.70643 33.9958 3.80159 33.8277 3.38315 33.3886C2.24237 32.1927 1.61409 30.6245 1.61409 28.9731V25.5622C1.61409 25.3038 1.8244 25.0934 2.08284 25.0934H11.4363C11.6088 25.0934 11.7488 24.9534 11.7488 24.7809C11.7488 16.597 11.7022 17.0619 11.8644 16.698C11.9017 16.6577 11.9291 16.608 11.9411 16.5522C12.6413 15.392 14.4177 15.8969 14.4177 17.2388C14.4177 25.7808 14.4181 26.8247 14.4181 27.245C14.4181 27.4955 14.6985 27.6431 14.9044 27.5047L15.3288 27.2206ZM11.1238 19.075H8.30002C8.04159 19.075 7.83127 18.8647 7.83127 18.6063V17.2672C7.83127 17.0088 8.04159 16.7984 8.30002 16.7984H11.1755C11.1075 17.0933 11.1238 17.0741 11.1238 19.075ZM14.9911 16.7984H18.4641C18.7225 16.7984 18.9328 17.0088 18.9328 17.2672V18.6063C18.9328 18.8647 18.7225 19.075 18.4641 19.075H15.0427C15.0427 17.0864 15.0599 17.0964 14.9911 16.7984ZM37.9172 25.0934C38.1757 25.0934 38.386 25.3038 38.386 25.5622V28.9731C38.386 30.6244 37.7577 32.1925 36.6169 33.3888C36.1986 33.8272 36.2938 33.9933 36.2938 37.1095C36.2938 37.7988 35.733 38.3595 35.0438 38.3595H28.4789C27.7897 38.3595 27.2289 37.7988 27.2289 37.1095C27.2289 33.4359 27.3213 33.3573 26.9233 32.9181C22.5367 28.0745 21.2128 29.0745 22.1141 27.7273C22.6794 26.8831 23.8267 26.6559 24.6713 27.2208C25.0917 27.5022 25.208 27.6311 25.4166 27.5208C25.6483 27.3967 25.5825 28.0733 25.5825 17.2388C25.5825 16.503 26.1811 15.9044 26.9171 15.9044C27.6528 15.9044 28.2514 16.503 28.2514 17.2388V24.7811C28.2514 24.9536 28.3914 25.0936 28.5639 25.0936H37.9172V25.0934ZM38.9828 20.1C38.9828 20.3584 38.7725 20.5688 38.5141 20.5688H28.8761V17.2386C28.8761 16.1581 27.9971 15.2792 26.9166 15.2792C25.8361 15.2792 24.9572 16.1581 24.9572 17.2386V20.5688H15.0427V19.7H18.4639C19.0671 19.7 19.5577 19.2092 19.5577 18.6063V17.2672C19.5577 16.6642 19.0671 16.1734 18.4639 16.1734H14.7256C14.3758 15.6361 13.771 15.2792 13.0833 15.2792C12.3956 15.2792 11.7908 15.6359 11.4411 16.1734H8.30002C7.6969 16.1734 7.20627 16.6642 7.20627 17.2672V18.6063C7.20627 19.2092 7.6969 19.7 8.30002 19.7H11.1238V20.5688H1.48596C1.22752 20.5688 1.01721 20.3584 1.01721 20.1V2.10938C1.01721 1.85094 1.22752 1.64063 1.48596 1.64063H38.5141C38.7725 1.64063 38.9828 1.85094 38.9828 2.10938V20.1Z" fill="#491352"/>
<path d="M5.22848 7.07227H3.88879C3.28567 7.07227 2.79504 7.56305 2.79504 8.16602V9.50555C2.79504 10.1085 3.28567 10.5993 3.88879 10.5993H5.22848C5.83161 10.5993 6.32223 10.1085 6.32223 9.50555V8.16602C6.32223 7.56289 5.83161 7.07227 5.22848 7.07227ZM5.69723 9.50555C5.69723 9.76398 5.48692 9.9743 5.22848 9.9743H3.88879C3.63036 9.9743 3.42004 9.76398 3.42004 9.50555V8.16602C3.42004 7.90758 3.63036 7.69727 3.88879 7.69727H5.22848C5.48692 7.69727 5.69723 7.90758 5.69723 8.16602V9.50555Z" fill="#491352"/>
<path d="M9.64019 7.07227H8.30066C7.69753 7.07227 7.20691 7.56305 7.20691 8.16602V9.50555C7.20691 10.1085 7.69753 10.5993 8.30066 10.5993H9.64019C10.2433 10.5993 10.7339 10.1085 10.7339 9.50555V8.16602C10.7339 7.56289 10.2433 7.07227 9.64019 7.07227ZM10.1089 9.50555C10.1089 9.76398 9.89863 9.9743 9.64019 9.9743H8.30066C8.04222 9.9743 7.83191 9.76398 7.83191 9.50555V8.16602C7.83191 7.90758 8.04222 7.69727 8.30066 7.69727H9.64019C9.89863 7.69727 10.1089 7.90758 10.1089 8.16602V9.50555Z" fill="#491352"/>
<path d="M14.0519 7.07227H12.7124C12.1093 7.07227 11.6187 7.56305 11.6187 8.16602V9.50555C11.6187 10.1085 12.1093 10.5993 12.7124 10.5993H14.0519C14.6551 10.5993 15.1457 10.1085 15.1457 9.50555V8.16602C15.1457 7.56289 14.6551 7.07227 14.0519 7.07227ZM14.5207 9.50555C14.5207 9.76398 14.3104 9.9743 14.0519 9.9743H12.7124C12.454 9.9743 12.2437 9.76398 12.2437 9.50555V8.16602C12.2437 7.90758 12.454 7.69727 12.7124 7.69727H14.0519C14.3104 7.69727 14.5207 7.90758 14.5207 8.16602V9.50555Z" fill="#491352"/>
<path d="M17.1243 10.5993H18.464C19.0671 10.5993 19.5577 10.1085 19.5577 9.50555V8.16602C19.5577 7.56305 19.0671 7.07227 18.464 7.07227H17.1243C16.5211 7.07227 16.0305 7.56305 16.0305 8.16602V9.50555C16.0305 10.1085 16.5211 10.5993 17.1243 10.5993ZM16.6555 8.16602C16.6555 7.90758 16.8658 7.69727 17.1243 7.69727H18.464C18.7224 7.69727 18.9327 7.90758 18.9327 8.16602V9.50555C18.9327 9.76398 18.7224 9.9743 18.464 9.9743H17.1243C16.8658 9.9743 16.6555 9.76398 16.6555 9.50555V8.16602Z" fill="#491352"/>
<path d="M5.22848 2.50977H3.88879C3.28567 2.50977 2.79504 3.00055 2.79504 3.60352V4.9432C2.79504 5.54617 3.28567 6.03695 3.88879 6.03695H5.22848C5.83161 6.03695 6.32223 5.54617 6.32223 4.9432V3.60352C6.32223 3.00039 5.83161 2.50977 5.22848 2.50977ZM5.69723 4.9432C5.69723 5.20164 5.48692 5.41195 5.22848 5.41195H3.88879C3.63036 5.41195 3.42004 5.20164 3.42004 4.9432V3.60352C3.42004 3.34508 3.63036 3.13477 3.88879 3.13477H5.22848C5.48692 3.13477 5.69723 3.34508 5.69723 3.60352V4.9432Z" fill="#491352"/>
<path d="M9.64019 2.50977H8.30066C7.69753 2.50977 7.20691 3.00055 7.20691 3.60352V4.9432C7.20691 5.54617 7.69753 6.03695 8.30066 6.03695H9.64019C10.2433 6.03695 10.7339 5.54617 10.7339 4.9432V3.60352C10.7339 3.00039 10.2433 2.50977 9.64019 2.50977ZM10.1089 4.9432C10.1089 5.20164 9.89863 5.41195 9.64019 5.41195H8.30066C8.04222 5.41195 7.83191 5.20164 7.83191 4.9432V3.60352C7.83191 3.34508 8.04222 3.13477 8.30066 3.13477H9.64019C9.89863 3.13477 10.1089 3.34508 10.1089 3.60352V4.9432Z" fill="#491352"/>
<path d="M14.0519 2.50977H12.7124C12.1093 2.50977 11.6187 3.00055 11.6187 3.60352V4.9432C11.6187 5.54617 12.1093 6.03695 12.7124 6.03695H14.0519C14.6551 6.03695 15.1457 5.54617 15.1457 4.9432V3.60352C15.1457 3.00039 14.6551 2.50977 14.0519 2.50977ZM14.5207 4.9432C14.5207 5.20164 14.3104 5.41195 14.0519 5.41195H12.7124C12.454 5.41195 12.2437 5.20164 12.2437 4.9432V3.60352C12.2437 3.34508 12.454 3.13477 12.7124 3.13477H14.0519C14.3104 3.13477 14.5207 3.34508 14.5207 3.60352V4.9432Z" fill="#491352"/>
<path d="M17.1243 6.03695H18.464C19.0671 6.03695 19.5577 5.54617 19.5577 4.9432V3.60352C19.5577 3.00055 19.0671 2.50977 18.464 2.50977H17.1243C16.5211 2.50977 16.0305 3.00055 16.0305 3.60352V4.9432C16.0305 5.54617 16.5211 6.03695 17.1243 6.03695ZM16.6555 3.60352C16.6555 3.34508 16.8658 3.13477 17.1243 3.13477H18.464C18.7224 3.13477 18.9327 3.34508 18.9327 3.60352V4.9432C18.9327 5.20164 18.7224 5.41195 18.464 5.41195H17.1243C16.8658 5.41195 16.6555 5.20164 16.6555 4.9432V3.60352Z" fill="#491352"/>
<path d="M22.8757 2.50977H21.5361C20.9332 2.50977 20.4424 3.00055 20.4424 3.60352V4.9432C20.4424 5.54617 20.9332 6.03695 21.5361 6.03695H22.8757C23.4786 6.03695 23.9694 5.54617 23.9694 4.9432V3.60352C23.9694 3.00039 23.4788 2.50977 22.8757 2.50977ZM23.3444 4.9432C23.3444 5.20164 23.1341 5.41195 22.8757 5.41195H21.5361C21.2777 5.41195 21.0674 5.20164 21.0674 4.9432V3.60352C21.0674 3.34508 21.2777 3.13477 21.5361 3.13477H22.8757C23.1341 3.13477 23.3444 3.34508 23.3444 3.60352V4.9432Z" fill="#491352"/>
<path d="M25.9479 6.03695H27.2876C27.8905 6.03695 28.3813 5.54617 28.3813 4.9432V3.60352C28.3813 3.00055 27.8905 2.50977 27.2876 2.50977H25.9479C25.3449 2.50977 24.8541 3.00055 24.8541 3.60352V4.9432C24.8541 5.54617 25.3449 6.03695 25.9479 6.03695ZM25.4791 3.60352C25.4791 3.34508 25.6894 3.13477 25.9479 3.13477H27.2876C27.546 3.13477 27.7563 3.34508 27.7563 3.60352V4.9432C27.7563 5.20164 27.546 5.41195 27.2876 5.41195H25.9479C25.6894 5.41195 25.4791 5.20164 25.4791 4.9432V3.60352Z" fill="#491352"/>
<path d="M31.6994 2.50977H30.3599C29.7569 2.50977 29.2661 3.00055 29.2661 3.60352V4.9432C29.2661 5.54617 29.7569 6.03695 30.3599 6.03695H31.6994C32.3024 6.03695 32.7931 5.54617 32.7931 4.9432V3.60352C32.7931 3.00039 32.3024 2.50977 31.6994 2.50977ZM32.1681 4.9432C32.1681 5.20164 31.9578 5.41195 31.6994 5.41195H30.3599C30.1014 5.41195 29.8911 5.20164 29.8911 4.9432V3.60352C29.8911 3.34508 30.1014 3.13477 30.3599 3.13477H31.6994C31.9578 3.13477 32.1681 3.34508 32.1681 3.60352V4.9432Z" fill="#491352"/>
<path d="M36.1112 2.50977H34.7715C34.1685 2.50977 33.6777 3.00055 33.6777 3.60352V4.9432C33.6777 5.54617 34.1685 6.03695 34.7715 6.03695H36.1112C36.7141 6.03695 37.2049 5.54617 37.2049 4.9432V3.60352C37.2049 3.00039 36.7143 2.50977 36.1112 2.50977ZM36.5799 4.9432C36.5799 5.20164 36.3696 5.41195 36.1112 5.41195H34.7715C34.513 5.41195 34.3027 5.20164 34.3027 4.9432V3.60352C34.3027 3.34508 34.513 3.13477 34.7715 3.13477H36.1112C36.3696 3.13477 36.5799 3.34508 36.5799 3.60352V4.9432Z" fill="#491352"/>
<path d="M5.22848 11.623H3.88879C3.28567 11.623 2.79504 12.1138 2.79504 12.7168V14.0563C2.79504 14.6593 3.28567 15.1501 3.88879 15.1501H5.22848C5.83161 15.1501 6.32223 14.6593 6.32223 14.0563V12.7168C6.32223 12.1137 5.83161 11.623 5.22848 11.623ZM5.69723 14.0563C5.69723 14.3148 5.48692 14.5251 5.22848 14.5251H3.88879C3.63036 14.5251 3.42004 14.3148 3.42004 14.0563V12.7168C3.42004 12.4584 3.63036 12.248 3.88879 12.248H5.22848C5.48692 12.248 5.69723 12.4584 5.69723 12.7168V14.0563Z" fill="#491352"/>
<path d="M9.64019 11.623H8.30066C7.69753 11.623 7.20691 12.1138 7.20691 12.7168V14.0563C7.20691 14.6593 7.69753 15.1501 8.30066 15.1501H9.64019C10.2433 15.1501 10.7339 14.6593 10.7339 14.0563V12.7168C10.7339 12.1137 10.2433 11.623 9.64019 11.623ZM10.1089 14.0563C10.1089 14.3148 9.89863 14.5251 9.64019 14.5251H8.30066C8.04222 14.5251 7.83191 14.3148 7.83191 14.0563V12.7168C7.83191 12.4584 8.04222 12.248 8.30066 12.248H9.64019C9.89863 12.248 10.1089 12.4584 10.1089 12.7168V14.0563Z" fill="#491352"/>
<path d="M14.0519 11.623H12.7124C12.1093 11.623 11.6187 12.1138 11.6187 12.7168V14.0563C11.6187 14.6593 12.1093 15.1501 12.7124 15.1501H14.0519C14.6551 15.1501 15.1457 14.6593 15.1457 14.0563V12.7168C15.1457 12.1137 14.6551 11.623 14.0519 11.623ZM14.5207 14.0563C14.5207 14.3148 14.3104 14.5251 14.0519 14.5251H12.7124C12.454 14.5251 12.2437 14.3148 12.2437 14.0563V12.7168C12.2437 12.4584 12.454 12.248 12.7124 12.248H14.0519C14.3104 12.248 14.5207 12.4584 14.5207 12.7168V14.0563Z" fill="#491352"/>
<path d="M22.8757 7.07227H21.5361C20.9332 7.07227 20.4424 7.56305 20.4424 8.16602V11.1541C20.4424 11.4126 20.2321 11.6229 19.9736 11.6229H17.1243C16.5211 11.6229 16.0305 12.1137 16.0305 12.7166V14.0562C16.0305 14.6591 16.5211 15.1499 17.1243 15.1499H22.8757C23.4786 15.1499 23.9694 14.6591 23.9694 14.0562V8.16602C23.9694 7.56289 23.4788 7.07227 22.8757 7.07227ZM23.3444 14.0562C23.3444 14.3146 23.1341 14.5249 22.8757 14.5249H17.1243C16.8658 14.5249 16.6555 14.3146 16.6555 14.0562V12.7166C16.6555 12.4582 16.8658 12.2479 17.1243 12.2479H19.9736C20.5766 12.2479 21.0674 11.7571 21.0674 11.1541V8.16602C21.0674 7.90758 21.2777 7.69727 21.5361 7.69727H22.8757C23.1341 7.69727 23.3444 7.90758 23.3444 8.16602V14.0562Z" fill="#491352"/>
<path d="M27.2878 11.623H25.9481C25.3452 11.623 24.8544 12.1138 24.8544 12.7168V14.0563C24.8544 14.6593 25.3452 15.1501 25.9481 15.1501H27.2878C27.8908 15.1501 28.3816 14.6593 28.3816 14.0563V12.7168C28.3816 12.1137 27.8908 11.623 27.2878 11.623ZM27.7566 14.0563C27.7566 14.3148 27.5462 14.5251 27.2878 14.5251H25.9481C25.6897 14.5251 25.4794 14.3148 25.4794 14.0563V12.7168C25.4794 12.4584 25.6897 12.248 25.9481 12.248H27.2878C27.5462 12.248 27.7566 12.4584 27.7566 12.7168V14.0563Z" fill="#491352"/>
<path d="M5.22848 16.1729H3.88879C3.28567 16.1729 2.79504 16.6636 2.79504 17.2666V18.6061C2.79504 19.2091 3.28567 19.6999 3.88879 19.6999H5.22848C5.83161 19.6999 6.32223 19.2091 6.32223 18.6061V17.2666C6.32223 16.6635 5.83161 16.1729 5.22848 16.1729ZM5.69723 18.6061C5.69723 18.8646 5.48692 19.0749 5.22848 19.0749H3.88879C3.63036 19.0749 3.42004 18.8646 3.42004 18.6061V17.2666C3.42004 17.0082 3.63036 16.7979 3.88879 16.7979H5.22848C5.48692 16.7979 5.69723 17.0082 5.69723 17.2666V18.6061Z" fill="#491352"/>
<path d="M22.8757 16.1729H21.5361C20.9332 16.1729 20.4424 16.6636 20.4424 17.2666V18.6061C20.4424 19.2091 20.9332 19.6999 21.5361 19.6999H22.8757C23.4786 19.6999 23.9694 19.2091 23.9694 18.6061V17.2666C23.9694 16.6635 23.4788 16.1729 22.8757 16.1729ZM23.3444 18.6061C23.3444 18.8646 23.1341 19.0749 22.8757 19.0749H21.5361C21.2777 19.0749 21.0674 18.8646 21.0674 18.6061V17.2666C21.0674 17.0082 21.2777 16.7979 21.5361 16.7979H22.8757C23.1341 16.7979 23.3444 17.0082 23.3444 17.2666V18.6061Z" fill="#491352"/>
<path d="M31.6995 7.07227H25.9481C25.3452 7.07227 24.8544 7.56305 24.8544 8.16602V9.50555C24.8544 10.1085 25.3452 10.5993 25.9481 10.5993H31.6995C32.3025 10.5993 32.7933 10.1085 32.7933 9.50555V8.16602C32.7933 7.56289 32.3025 7.07227 31.6995 7.07227ZM32.1683 9.50555C32.1683 9.76398 31.958 9.9743 31.6995 9.9743H25.9481C25.6897 9.9743 25.4794 9.76398 25.4794 9.50555V8.16602C25.4794 7.90758 25.6897 7.69727 25.9481 7.69727H31.6995C31.958 7.69727 32.1683 7.90758 32.1683 8.16602V9.50555Z" fill="#491352"/>
<path d="M31.6994 11.623H30.3599C29.7569 11.623 29.2661 12.1138 29.2661 12.7168V14.0563C29.2661 14.6593 29.7569 15.1501 30.3599 15.1501H31.6994C32.3024 15.1501 32.7931 14.6593 32.7931 14.0563V12.7168C32.7931 12.1137 32.3024 11.623 31.6994 11.623ZM32.1681 14.0563C32.1681 14.3148 31.9578 14.5251 31.6994 14.5251H30.3599C30.1014 14.5251 29.8911 14.3148 29.8911 14.0563V12.7168C29.8911 12.4584 30.1014 12.248 30.3599 12.248H31.6994C31.9578 12.248 32.1681 12.4584 32.1681 12.7168V14.0563Z" fill="#491352"/>
<path d="M31.6994 16.1729H30.3599C29.7569 16.1729 29.2661 16.6636 29.2661 17.2666V18.6061C29.2661 19.2091 29.7569 19.6999 30.3599 19.6999H31.6994C32.3024 19.6999 32.7931 19.2091 32.7931 18.6061V17.2666C32.7931 16.6635 32.3024 16.1729 31.6994 16.1729ZM32.1681 18.6061C32.1681 18.8646 31.9578 19.0749 31.6994 19.0749H30.3599C30.1014 19.0749 29.8911 18.8646 29.8911 18.6061V17.2666C29.8911 17.0082 30.1014 16.7979 30.3599 16.7979H31.6994C31.9578 16.7979 32.1681 17.0082 32.1681 17.2666V18.6061Z" fill="#491352"/>
<path d="M36.1112 7.07227H34.7715C34.1685 7.07227 33.6777 7.56305 33.6777 8.16602V9.50555C33.6777 10.1085 34.1685 10.5993 34.7715 10.5993H36.1112C36.7141 10.5993 37.2049 10.1085 37.2049 9.50555V8.16602C37.2049 7.56289 36.7143 7.07227 36.1112 7.07227ZM36.5799 9.50555C36.5799 9.76398 36.3696 9.9743 36.1112 9.9743H34.7715C34.513 9.9743 34.3027 9.76398 34.3027 9.50555V8.16602C34.3027 7.90758 34.513 7.69727 34.7715 7.69727H36.1112C36.3696 7.69727 36.5799 7.90758 36.5799 8.16602V9.50555Z" fill="#491352"/>
<path d="M36.1112 11.623H34.7715C34.1685 11.623 33.6777 12.1138 33.6777 12.7168V14.0563C33.6777 14.6593 34.1685 15.1501 34.7715 15.1501H36.1112C36.7141 15.1501 37.2049 14.6593 37.2049 14.0563V12.7168C37.2049 12.1137 36.7143 11.623 36.1112 11.623ZM36.5799 14.0563C36.5799 14.3148 36.3696 14.5251 36.1112 14.5251H34.7715C34.513 14.5251 34.3027 14.3148 34.3027 14.0563V12.7168C34.3027 12.4584 34.513 12.248 34.7715 12.248H36.1112C36.3696 12.248 36.5799 12.4584 36.5799 12.7168V14.0563Z" fill="#491352"/>
<path d="M36.1112 16.1729H34.7715C34.1685 16.1729 33.6777 16.6636 33.6777 17.2666V18.6061C33.6777 19.2091 34.1685 19.6999 34.7715 19.6999H36.1112C36.7141 19.6999 37.2049 19.2091 37.2049 18.6061V17.2666C37.2049 16.6635 36.7143 16.1729 36.1112 16.1729ZM36.5799 18.6061C36.5799 18.8646 36.3696 19.0749 36.1112 19.0749H34.7715C34.513 19.0749 34.3027 18.8646 34.3027 18.6061V17.2666C34.3027 17.0082 34.513 16.7979 34.7715 16.7979H36.1112C36.3696 16.7979 36.5799 17.0082 36.5799 17.2666V18.6061Z" fill="#491352"/>
</svg>
