<svg width="40" height="40" viewBox="0 0 40 40" fill="none" xmlns="http://www.w3.org/2000/svg">
<g clip-path="url(#clip0_5722_32573)">
<path d="M17.0009 12.8688C23.5883 6.28155 31.2899 2.84764 36.04 3.96007C37.1526 8.71038 33.7187 16.4119 27.1312 22.9991C23.1279 27.0027 18.7131 29.8412 14.7993 31.2024L12.5958 28.9989L17.0794 24.5152C17.5199 24.0749 17.5197 23.3612 17.0794 22.9206C16.6391 22.4803 15.9254 22.4803 15.4848 22.9206L11.0013 27.4043L8.79779 25.2009C9.99998 21.7446 12.354 17.898 15.6448 14.2887" fill="#EAE8E8"/>
<path d="M12.5955 28.9989L14.4668 30.8702C13.3195 31.3823 11.9827 31.3331 10.8723 30.7222L12.5955 28.9989Z" fill="#F57555"/>
<path d="M11.0012 27.4043L9.27794 29.1278C8.667 28.0172 8.61763 26.6804 9.12981 25.5331L11.0012 27.4043Z" fill="#F57555"/>
<path d="M14.5102 27.0841L17.4944 30.0683C16.5776 30.518 15.6758 30.8975 14.7991 31.2025L12.5956 28.999L14.5102 27.0841Z" fill="#6AC6D8"/>
<path d="M12.9158 25.4896L11.001 27.4044L8.79749 25.201C9.10249 24.3245 9.48218 23.4225 9.93171 22.5057L12.9158 25.4896Z" fill="#6AC6D8"/>
<path d="M23.1908 11.0957C24.7686 9.5179 27.3268 9.5179 28.9045 11.0957C30.4824 12.6735 30.4823 15.2314 28.9045 16.8094C27.3267 18.387 24.7688 18.3872 23.1908 16.8092C21.6131 15.2314 21.6131 12.6734 23.1908 11.0957ZM24.7396 15.2604C25.462 15.9827 26.6333 15.9827 27.3556 15.2604C28.078 14.5381 28.078 13.3667 27.3556 12.6444C26.6333 11.9222 25.462 11.9222 24.7396 12.6445C24.4731 12.911 24.3049 13.2386 24.2352 13.582C24.1155 14.1699 24.2837 14.8045 24.7396 15.2604Z" fill="#F57555"/>
<path d="M31.152 8.84799C29.8788 7.57471 28.4884 6.49744 27.0218 5.6151C30.4353 4.00682 33.6205 3.39362 36.0398 3.96002C36.6066 6.37955 35.993 9.56471 34.385 12.9781C33.5027 11.5116 32.4254 10.1211 31.152 8.84799Z" fill="#F57555"/>
<path d="M8.50899 29.8965C8.06867 30.3368 8.06867 31.0508 8.50899 31.4911C8.9493 31.9314 9.66328 31.9314 10.1034 31.4911L17.0794 24.5152C17.5198 24.0749 17.5197 23.3611 17.0794 22.9206C16.6391 22.4803 15.9253 22.4803 15.4848 22.9206L8.50899 29.8965Z" fill="#3E495A"/>
<path d="M12.4001 18.3431C10.9666 20.4053 9.84882 22.4693 9.08405 24.4266L0.632019 23.0747C5.49319 18.2138 11.5272 18.3029 12.4001 18.3431Z" fill="#3E495A"/>
<path d="M21.657 27.6C21.6972 28.4729 21.7862 34.5071 16.9254 39.3679L15.5736 30.9162C17.5306 30.1515 19.5946 29.0334 21.657 27.6Z" fill="#3E495A"/>
<path d="M27.8029 12.1973C28.2717 12.6661 28.5298 13.2894 28.5298 13.9522C28.5298 14.615 28.2717 15.2385 27.8029 15.7071C27.3342 16.1759 26.7108 16.434 26.048 16.434C25.3851 16.434 24.7617 16.1759 24.2931 15.7071C23.7025 15.1165 23.4494 14.2749 23.6162 13.456C23.7132 12.9784 23.9473 12.5432 24.2931 12.1973C24.762 11.7285 25.3852 11.4703 26.0481 11.4703C26.711 11.4705 27.334 11.7286 27.8029 12.1973ZM24.8548 13.708C24.7728 14.1103 24.897 14.5235 25.1868 14.8133C25.4168 15.0434 25.7225 15.1699 26.0479 15.1699C26.3732 15.1699 26.679 15.0433 26.909 14.8133C27.1391 14.5833 27.2656 14.2776 27.2656 13.9522C27.2656 13.6269 27.139 13.3211 26.9091 13.0911C26.679 12.8611 26.3733 12.7346 26.048 12.7346C25.7227 12.7346 25.4169 12.8613 25.1868 13.0913C25.0171 13.261 24.9023 13.4743 24.8548 13.708Z" fill="#231F20"/>
<path d="M29.3515 10.6486C31.1732 12.4702 31.1732 15.4343 29.3515 17.2562C28.469 18.1386 27.2958 18.6245 26.0479 18.6245C24.7998 18.6245 23.6266 18.1384 22.7441 17.2559C20.9225 15.4342 20.9225 12.4702 22.7441 10.6486C23.6266 9.76613 24.7999 9.28027 26.0479 9.28027C27.2959 9.28027 28.4692 9.76629 29.3515 10.6486ZM23.638 16.3621C24.2817 17.006 25.1376 17.3605 26.048 17.3605C26.9583 17.3605 27.8141 17.0061 28.4578 16.3624C29.7866 15.0333 29.7866 12.8712 28.4578 11.5425C27.8141 10.8988 26.9584 10.5443 26.048 10.5443C25.1375 10.5443 24.2816 10.8988 23.638 11.5425C22.3091 12.8712 22.3091 15.0333 23.638 16.3621Z" fill="#231F20"/>
<path d="M0.185387 22.6288C4.75554 18.0589 10.3757 17.7036 11.9894 17.7036C12.0213 17.7036 12.0516 17.7038 12.081 17.704C13.0076 16.3957 14.0462 15.1052 15.1779 13.8639C15.413 13.6059 15.8129 13.5874 16.0708 13.8227C16.3288 14.0579 16.3472 14.4576 16.112 14.7156C13.8766 17.1673 12.0202 19.8086 10.7024 22.3832L12.9161 24.5968L15.038 22.4748C15.0805 22.4324 15.1248 22.3926 15.1705 22.3551C15.1773 22.3496 15.1846 22.345 15.1916 22.3395C15.2312 22.308 15.2717 22.2776 15.3137 22.2498C15.3148 22.249 15.3159 22.2485 15.3171 22.2478C15.6014 22.0605 15.9341 21.9596 16.2823 21.9596C16.6309 21.9596 16.9638 22.0607 17.2484 22.2484C17.2492 22.249 17.2502 22.2494 17.2511 22.25C17.2931 22.2779 17.3337 22.3083 17.3735 22.34C17.3802 22.3454 17.3874 22.3498 17.3941 22.3553C17.4399 22.3927 17.4842 22.4325 17.5266 22.475C17.5691 22.5174 17.6088 22.5617 17.6463 22.6075C17.652 22.6145 17.6567 22.6218 17.6623 22.6289C17.6936 22.6685 17.724 22.7088 17.7516 22.7506C17.7525 22.7519 17.7532 22.7534 17.754 22.7547C17.941 23.0389 18.042 23.3713 18.042 23.7192C18.042 24.066 17.9416 24.3971 17.756 24.6806C17.7543 24.6831 17.753 24.6858 17.7513 24.6883C17.7245 24.7289 17.695 24.7678 17.6647 24.8062C17.6582 24.8144 17.6527 24.8232 17.6462 24.8312C17.6087 24.8769 17.569 24.9211 17.5266 24.9634L15.4047 27.0854L17.6199 29.3007C18.8352 28.6797 20.065 27.9382 21.2966 27.0823C21.3073 27.0749 21.3187 27.0691 21.3298 27.0623C23.166 25.7818 24.975 24.2632 26.6846 22.5535C29.7098 19.5283 32.1134 16.1837 33.6618 13.0129C32.8249 11.6733 31.833 10.4235 30.7054 9.29614C29.5781 8.1688 28.3283 7.17677 26.9887 6.33997C23.8179 7.88841 20.4733 10.2918 17.4481 13.3171C17.2012 13.5638 16.8011 13.5638 16.5543 13.3171C16.3075 13.0701 16.3075 12.67 16.5543 12.4232C23.0321 5.94505 30.7152 2.31435 35.8343 3.27302L38.9212 0.186221C39.168 -0.0604199 39.5682 -0.060498 39.8152 0.186299C40.062 0.433096 40.062 0.83333 39.8151 1.08005L36.7282 4.16677C36.9001 5.08333 36.9265 6.08606 36.8098 7.15981C36.8066 7.18934 36.8041 7.21849 36.8006 7.24802C36.7995 7.25825 36.798 7.26856 36.7967 7.27888C36.2314 12.114 32.8463 18.179 27.5782 23.447C25.8933 25.132 24.1113 26.6386 22.2973 27.9254C22.3029 28.6791 22.2388 30.2389 21.7407 32.149C20.9685 35.1099 19.4987 37.6893 17.3723 39.8157C17.2519 39.9361 17.0904 40.0008 16.9253 40.0008C16.8602 40.0008 16.7945 39.9908 16.7305 39.97C16.5046 39.8968 16.3388 39.7032 16.3012 39.4686L15.0711 31.7775C15.0498 31.785 15.0283 31.7929 15.007 31.8004C14.9391 31.8239 14.8689 31.8354 14.7994 31.8354C14.6344 31.8354 14.4729 31.7708 14.3523 31.6504L14.3109 31.6089C13.8315 31.7707 13.3314 31.8535 12.8184 31.8535C12.8182 31.8535 12.8182 31.8535 12.8181 31.8535C12.1939 31.8535 11.5757 31.7259 11.004 31.4854L10.5505 31.9389C10.2183 32.2711 9.77633 32.4543 9.30633 32.4543C8.83633 32.4543 8.39445 32.2712 8.06203 31.9389C7.37601 31.2528 7.37601 30.1365 8.06203 29.4505L8.51507 28.9975C8.07578 27.9517 8.03203 26.7682 8.39305 25.691L8.35086 25.6488C8.32945 25.6274 8.30976 25.6047 8.29195 25.5809C8.20273 25.4619 8.1589 25.3158 8.16656 25.1691C8.16961 25.1104 8.18086 25.0515 8.20078 24.9943C8.2082 24.973 8.21617 24.9514 8.22367 24.9302L0.532341 23.6999C0.29781 23.6624 0.104137 23.4965 0.0309334 23.2706C-0.0421906 23.0446 0.0174179 22.7968 0.185387 22.6288ZM31.5991 8.40216C32.5962 9.39903 33.4949 10.4858 34.281 11.6437C34.4442 11.2518 34.5932 10.8639 34.7277 10.4807C34.7579 10.394 34.788 10.3074 34.8167 10.2215C34.8277 10.1885 34.8391 10.1554 34.85 10.1226C35.5438 8.00239 35.7729 6.06934 35.504 4.49739C35.3978 4.47919 35.2898 4.46333 35.1802 4.44958C35.1777 4.44927 35.1751 4.44888 35.1726 4.44864C34.8407 4.40747 34.4934 4.38661 34.1337 4.38661C32.9802 4.38661 31.693 4.59958 30.3236 5.01122C30.3007 5.01809 30.2777 5.02497 30.2548 5.032C30.1811 5.05442 30.107 5.07817 30.0328 5.10177C29.4845 5.27747 28.9252 5.48419 28.3577 5.72052C29.5154 6.5063 30.6022 7.40505 31.5991 8.40216ZM10.1221 23.5905C10.1093 23.6191 10.0963 23.6477 10.0836 23.6763C10.0541 23.7426 10.025 23.8089 9.9964 23.875C9.97718 23.9193 9.95804 23.9635 9.93929 24.0076C9.90508 24.0878 9.87172 24.1676 9.83867 24.2475C9.82562 24.2789 9.81234 24.3106 9.79945 24.342C9.78406 24.3798 9.76922 24.4175 9.75406 24.4553C9.73086 24.5129 9.70757 24.5707 9.68492 24.628C9.67656 24.6492 9.66796 24.6705 9.65968 24.6916C9.61453 24.8076 9.57054 24.9232 9.52797 25.0383L11.0012 26.5114L12.0221 25.4906L10.1221 23.5905ZM16.4116 29.8799L14.5107 27.979L13.4898 29L14.9141 30.4243C14.9142 30.4245 14.9144 30.4247 14.9147 30.4249L14.9632 30.4734C15.1901 30.3896 15.4191 30.3001 15.6496 30.2061C15.6609 30.2014 15.6722 30.1972 15.6835 30.1925C15.9245 30.0936 16.1674 29.9894 16.4116 29.8799ZM17.3437 37.9819C20.2487 34.5488 20.8812 30.7178 21.0052 28.8017C19.6245 29.6939 18.2341 30.4537 16.8619 31.0637C16.8617 31.0638 16.8616 31.0638 16.8615 31.0639C16.6998 31.1357 16.5386 31.2053 16.3775 31.2729C16.3759 31.2736 16.3743 31.2742 16.3728 31.2749C16.3432 31.2873 16.3136 31.2999 16.2841 31.3122C16.2819 31.3132 16.2797 31.3142 16.2775 31.315L17.3437 37.9819ZM12.8182 30.5896C12.8182 30.5896 12.8183 30.5896 12.8184 30.5896C12.9682 30.5896 13.1165 30.58 13.263 30.561L12.5958 29.8938L11.9995 30.49C12.2664 30.5558 12.5415 30.5896 12.8182 30.5896ZM8.95609 31.0453C9.04961 31.1388 9.17398 31.1905 9.3064 31.1905C9.43875 31.1905 9.56312 31.139 9.65656 31.0453L10.4945 30.2073L12.1487 28.5531L13.1706 27.5312L14.0635 26.6382C14.0637 26.638 14.0641 26.6378 14.0644 26.6375L16.6327 24.0692C16.8258 23.8761 16.8257 23.5618 16.6326 23.3686C16.6084 23.3444 16.5825 23.3234 16.5552 23.3054C16.5549 23.3052 16.5546 23.3051 16.5544 23.3048C16.39 23.1967 16.1746 23.1967 16.0102 23.3047C16.0099 23.3049 16.0096 23.305 16.0093 23.3054C15.9819 23.3234 15.9559 23.3444 15.932 23.3685L13.3646 25.9359C13.3641 25.9364 13.3637 25.937 13.3632 25.9375L11.4484 27.8523C11.4482 27.8525 11.4478 27.8528 11.4476 27.8531L9.72515 29.5757C9.72484 29.576 9.72437 29.5764 9.72398 29.5767L8.95617 30.3446C8.76289 30.5378 8.76289 30.8521 8.95609 31.0453ZM9.44109 26.7389C9.38656 27.1599 9.41039 27.5889 9.51156 28.0012L10.1075 27.4053L9.91375 27.2115L9.44109 26.7389ZM8.68648 23.724C8.6925 23.7097 8.69914 23.6951 8.70507 23.6806C8.76984 23.5256 8.8368 23.3701 8.90562 23.214C8.9318 23.1547 8.95851 23.0952 8.98531 23.0357C9.04086 22.9124 9.09757 22.7889 9.15562 22.665C9.19656 22.5776 9.23836 22.4902 9.28054 22.4027C9.30851 22.3446 9.33609 22.2865 9.36453 22.2282C9.36711 22.2229 9.37062 22.2179 9.37336 22.2128C9.89672 21.1467 10.5066 20.0712 11.2034 18.9938C9.30164 19.1142 5.46367 19.7418 2.01906 22.6575L8.68648 23.724Z" fill="#231F20"/>
<g opacity="0.1">
<path opacity="0.1" d="M34.8207 3.77832C35.2451 3.80934 35.6526 3.86934 36.04 3.96004C37.1526 8.71035 33.7187 16.4118 27.1312 22.9991C23.1279 27.0027 18.7131 29.8411 14.7993 31.2024L13.3983 29.8014C17.3121 28.44 21.7268 25.6016 25.7302 21.5981C31.7804 15.548 35.1699 8.55855 34.8207 3.77832Z" fill="#231F20"/>
</g>
</g>
<defs>
<clipPath id="clip0_5722_32573">
<rect width="40" height="40" fill="white" transform="matrix(-1 0 0 1 40 0)"/>
</clipPath>
</defs>
</svg>
