<svg width="64" height="64" viewBox="0 0 64 64" fill="none" xmlns="http://www.w3.org/2000/svg">
<path d="M23.6385 22.3875C22.6747 22.3875 22.0145 22.2976 21.9559 22.2898C21.2264 22.1873 20.7187 21.5135 20.8202 20.784C20.9227 20.0555 21.5955 19.5476 22.324 19.6492C22.363 19.6541 24.863 19.9783 27.0057 19.199C29.1882 18.4042 31.1803 16.41 31.2009 16.3895C31.7185 15.867 32.5622 15.8621 33.0857 16.3787C33.6092 16.8963 33.6149 17.7391 33.0984 18.2625C33.0008 18.3621 30.6737 20.7018 27.9179 21.7047C26.3963 22.2585 24.7978 22.3875 23.6385 22.3875Z" fill="#967ADC"/>
<path d="M13.9631 12.5839C13.2668 12.5839 12.6809 12.0439 12.6341 11.3388C12.5843 10.6044 13.1408 9.96864 13.8752 9.91976C13.9484 9.91489 18.5382 9.58576 22.9248 7.98826C27.3378 6.38276 31.3328 3.57326 31.3728 3.54489C31.9743 3.12014 32.8063 3.26264 33.2312 3.86326C33.657 4.46389 33.5153 5.29589 32.9148 5.72164C32.7401 5.84464 28.5956 8.76264 23.837 10.494C19.0685 12.2304 14.2551 12.5673 14.0529 12.5809C14.0226 12.5829 13.9923 12.5839 13.9631 12.5839Z" fill="#967ADC"/>
<path d="M37.5209 48.9445C37.3549 48.9445 37.1849 48.9132 37.0229 48.8468C36.3393 48.5695 36.0093 47.7921 36.2846 47.1087C36.3354 46.9896 37.5014 44.1458 39.7729 42.2397C42.0189 40.355 45.2101 39.5092 45.343 39.4741C46.0579 39.2886 46.7844 39.7143 46.9719 40.4292C47.1555 41.1402 46.7296 41.8687 46.0149 42.0542C45.9914 42.062 43.265 42.7886 41.4876 44.2826C39.7475 45.7416 38.767 48.0852 38.7573 48.1086C38.5463 48.628 38.0483 48.9445 37.5209 48.9445Z" fill="#967ADC"/>
<path d="M41.8489 60.8836C41.593 60.8836 41.3354 60.8114 41.1087 60.659C40.4955 60.2489 40.3314 59.4208 40.7415 58.8075C40.8547 58.6395 43.5539 54.6396 47.4405 51.3779C51.3194 48.124 55.9209 45.9913 56.1122 45.9034C56.7821 45.5968 57.5732 45.8898 57.8817 46.5576C58.1904 47.2275 57.8954 48.0185 57.2255 48.327C57.1825 48.3465 52.753 50.4013 49.1552 53.4208C45.5537 56.4403 42.9835 60.2546 42.9561 60.2918C42.7004 60.6766 42.2785 60.8836 41.8489 60.8836Z" fill="#967ADC"/>
<path d="M16.785 31.5424C16.3406 31.5424 15.9061 31.3198 15.6531 30.9154C15.2635 30.2914 15.452 29.4702 16.075 29.0795C16.0965 29.0659 18.2293 27.7055 19.3719 25.725C20.5339 23.7144 20.7781 20.9048 20.78 20.8765C20.8405 20.1432 21.4831 19.5973 22.2175 19.6568C22.9509 19.7173 23.4968 20.3589 23.4383 21.0923C23.4265 21.2309 23.1483 24.5179 21.6814 27.0589C20.199 29.6262 17.6005 31.2698 17.4911 31.339C17.2714 31.476 17.0263 31.5424 16.785 31.5424Z" fill="#967ADC"/>
<path d="M4.27273 29.3529C3.92211 29.3529 3.57248 29.2151 3.31086 28.9429C2.80111 28.4116 2.81861 27.5669 3.34986 27.0571C3.40548 27.0034 6.70723 23.8024 9.04111 19.7614C11.3887 15.6941 12.6436 10.9745 12.6562 10.9266C12.8437 10.2148 13.5722 9.78889 14.2841 9.97552C14.996 10.163 15.4217 10.8905 15.2352 11.6034C15.1815 11.8094 13.8817 16.7088 11.3505 21.0944C8.81248 25.4888 5.34186 28.8414 5.19536 28.982C4.93773 29.2299 4.60473 29.3529 4.27273 29.3529Z" fill="#967ADC"/>
<path d="M45.6887 42.0618C45.1282 42.0618 44.6047 41.7044 44.421 41.1399C44.382 41.0188 43.4486 38.0891 43.9641 35.1692C44.4718 32.2797 46.3723 29.5825 46.4523 29.4691C46.88 28.8686 47.712 28.728 48.3117 29.1547C48.9132 29.5814 49.0539 30.4134 48.6262 31.014C48.6125 31.0355 46.9914 33.3441 46.5891 35.632C46.1926 37.8839 46.9523 40.296 46.9602 40.3194C47.1828 41.0205 46.8 41.7725 46.0988 41.9971C45.964 42.0423 45.8234 42.0618 45.6887 42.0618Z" fill="#967ADC"/>
<path d="M56.6788 48.4286C56.0069 48.4286 55.4288 47.9209 55.3565 47.2374C55.335 47.0381 54.8312 42.2375 55.712 37.2415C56.5909 32.2534 58.7453 27.6646 58.835 27.4722C59.1514 26.8062 59.9464 26.522 60.6123 26.8375C61.2763 27.152 61.5615 27.9469 61.245 28.6129C61.2255 28.6569 59.1534 33.0786 58.3389 37.7024C57.5244 42.3156 58.0029 46.9054 58.0069 46.9522C58.085 47.6826 57.5577 48.3407 56.8233 48.4209C56.7764 48.4246 56.7275 48.4286 56.6788 48.4286Z" fill="#967ADC"/>
<path d="M18.6201 42.0636C18.4834 42.0636 18.3447 42.0421 18.208 41.9991C17.5089 41.7706 17.125 41.0186 17.3506 40.3194C17.3584 40.2959 18.1181 37.8839 17.7207 35.632C17.3839 33.72 16.1357 31.6497 15.6836 31.014C15.2569 30.4134 15.3975 29.5814 15.9971 29.1547C16.5977 28.728 17.4297 28.8686 17.8565 29.4691C17.9375 29.5824 19.837 32.2796 20.3466 35.1692C20.8612 38.089 19.9277 41.0187 19.8877 41.1399C19.7051 41.7061 19.1817 42.0636 18.6201 42.0636Z" fill="#967ADC"/>
<path d="M7.63013 48.4286C7.58226 48.4286 7.53351 48.4247 7.48463 48.4208C6.75313 48.3407 6.22388 47.6826 6.30301 46.9522C6.30788 46.9053 6.78538 42.3156 5.97201 37.7023C5.15463 33.0658 3.08439 28.6568 3.06389 28.6128C2.74851 27.9468 3.03264 27.1518 3.69864 26.8374C4.36463 26.5221 5.15963 26.8062 5.47413 27.4722C5.56588 27.6646 7.71913 32.2533 8.59801 37.2415C9.47988 42.2375 8.97588 47.0361 8.95451 47.2373C8.88013 47.9207 8.30201 48.4286 7.63013 48.4286Z" fill="#967ADC"/>
<path d="M47.5245 31.5425C47.2823 31.5425 47.0381 31.4772 46.8194 31.3394C46.71 31.27 44.1104 29.6265 42.6281 27.0593C41.1615 24.5183 40.8821 21.2313 40.8704 21.0927C40.8118 20.3583 41.3586 19.7157 42.0929 19.6562C42.8273 19.5975 43.4718 20.1444 43.5304 20.8788C43.5304 20.9052 43.7765 23.7148 44.9365 25.7263C46.0733 27.6922 48.21 29.0652 48.2334 29.0788C48.8564 29.4683 49.0459 30.2915 48.6553 30.9155C48.4035 31.3199 47.9679 31.5425 47.5245 31.5425Z" fill="#967ADC"/>
<path d="M60.0362 29.353C59.7061 29.353 59.3722 29.23 59.1143 28.982C58.9678 28.8413 55.4971 25.4888 52.9602 21.0943C50.429 16.7087 49.1282 11.8095 49.0735 11.6033C48.888 10.8905 49.3137 10.162 50.0266 9.97547C50.7376 9.78897 51.468 10.2147 51.6536 10.9276C51.6672 10.9735 52.9212 15.6941 55.2687 19.7613C57.6104 23.817 60.9287 27.0258 60.9599 27.0581C61.4912 27.5678 61.5088 28.4116 60.999 28.9428C60.7372 29.2153 60.3858 29.353 60.0362 29.353Z" fill="#967ADC"/>
<path d="M26.7888 48.9443C26.2624 48.9443 25.7634 48.628 25.5524 48.1123C25.5319 48.0616 24.5642 45.7452 22.8231 44.2823C21.3358 43.0345 19.0497 42.2512 18.2938 42.054C17.5809 41.8685 17.1542 41.14 17.3398 40.429C17.5253 39.7141 18.2528 39.2883 18.9657 39.4738C19.1004 39.509 22.2898 40.3547 24.5369 42.2395C26.8083 44.1456 27.9753 46.9893 28.024 47.1085C28.3004 47.792 27.9703 48.5693 27.2877 48.8466C27.1248 48.9131 26.9548 48.9443 26.7888 48.9443Z" fill="#967ADC"/>
<path d="M22.4609 60.8856C22.0311 60.8856 21.6102 60.6766 21.3525 60.2918C21.3271 60.2547 18.7422 56.4326 15.1554 53.4208C11.547 50.3935 7.12724 48.3466 7.08324 48.3271C6.41424 48.0185 6.12037 47.2276 6.42799 46.5577C6.73562 45.8897 7.52762 45.5967 8.19649 45.9035C8.38974 45.9913 12.9894 48.1241 16.8691 51.378C20.7557 54.6397 23.455 58.6396 23.5682 58.8076C23.9774 59.4208 23.8134 60.249 23.202 60.6591C22.9745 60.8113 22.7166 60.8856 22.4609 60.8856Z" fill="#967ADC"/>
<path d="M40.6712 22.3874C39.5111 22.3874 37.9135 22.2585 36.3939 21.7048C33.6361 20.7009 31.3091 18.3621 31.2115 18.2625C30.6949 17.7381 30.7007 16.8944 31.2251 16.3768C31.7495 15.8601 32.5932 15.866 33.1107 16.3904C33.1292 16.4089 35.1224 18.404 37.304 19.1989C39.4387 19.9753 41.9601 19.652 41.9836 19.6491C42.7141 19.5466 43.386 20.0554 43.4895 20.7849C43.591 21.5134 43.0832 22.1883 42.3547 22.2898C42.2961 22.2985 41.636 22.3874 40.6712 22.3874Z" fill="#967ADC"/>
<path d="M50.3458 12.5838C50.3166 12.5838 50.2872 12.5828 50.2559 12.5809C50.0528 12.5673 45.2403 12.2303 40.4711 10.4949C35.7133 8.76268 31.5689 5.84468 31.394 5.72156C30.7934 5.29581 30.6518 4.46381 31.0777 3.86218C31.5034 3.26156 32.3354 3.11993 32.936 3.54581C32.976 3.57318 36.971 6.38268 41.3852 7.98918C45.7991 9.59556 50.3888 9.91681 50.4338 9.91968C51.1682 9.96856 51.7248 10.6043 51.6741 11.3387C51.6271 12.0438 51.0412 12.5838 50.3458 12.5838Z" fill="#967ADC"/>
<path d="M26.819 48.9638C26.32 48.9638 25.8415 48.6825 25.6139 48.202C25.2975 47.5342 25.5807 46.7412 26.2458 46.4248C26.3718 46.3662 29.358 44.9619 32.2915 44.9619C35.2573 44.9619 37.9799 46.3897 38.0932 46.4522C38.7435 46.7959 38.9917 47.6044 38.6459 48.2528C38.3002 48.9052 37.4955 49.1513 36.8432 48.8075C36.808 48.788 34.5697 47.6278 32.2915 47.6278C30.3512 47.6278 28.0954 48.4989 27.3903 48.8329C27.2058 48.9208 27.0104 48.9638 26.819 48.9638Z" fill="#967ADC"/>
<path d="M41.8274 60.8934C41.7063 60.8934 41.5813 60.8739 41.4564 60.8387C41.3822 60.8172 36.9584 59.5574 32.2916 59.5574C27.5963 59.5574 22.8807 60.8309 22.8338 60.8446C22.1238 61.0379 21.3895 60.6199 21.1961 59.9091C21.0017 59.2001 21.4197 58.4677 22.1297 58.2723C22.3348 58.2176 27.2273 56.8936 32.2916 56.8936C37.3667 56.8916 42.0032 58.2216 42.1986 58.2782C42.9056 58.4833 43.3138 59.2234 43.1087 59.9306C42.9388 60.5146 42.4056 60.8934 41.8274 60.8934Z" fill="#967ADC"/>
<path d="M35.98 12.704C36.107 13.4286 35.6245 14.1199 34.898 14.2479C34.1715 14.3757 33.4811 13.8924 33.3532 13.167C33.2254 12.4414 33.7097 11.75 34.4351 11.6221C35.1596 11.494 35.8511 11.9784 35.98 12.704Z" fill="#434A54"/>
<path d="M21.3337 12.9353C21.3337 13.6717 20.7361 14.2682 19.9999 14.2682C19.2635 14.2682 18.6669 13.6717 18.6669 12.9353C18.6669 12.1989 19.2635 11.6023 19.9999 11.6023C20.7361 11.6023 21.3337 12.199 21.3337 12.9353Z" fill="#434A54"/>
<path d="M55.9992 42.2686C55.9992 43.003 55.4016 43.6005 54.6672 43.6005C53.9289 43.6005 53.3313 43.003 53.3313 42.2686C53.3313 41.5304 53.9288 40.9326 54.6672 40.9326C55.4016 40.9327 55.9992 41.5304 55.9992 42.2686Z" fill="#434A54"/>
<path d="M50.593 23.6013C50.593 24.3377 49.9954 24.9352 49.261 24.9352C48.5228 24.9352 47.927 24.3377 47.927 23.6013C47.927 22.8649 48.5228 22.2683 49.261 22.2683C49.9954 22.2682 50.593 22.8649 50.593 23.6013Z" fill="#434A54"/>
<path d="M18.3573 47.6201C18.4852 48.3466 18.0008 49.0381 17.2753 49.167C16.5497 49.294 15.8583 48.8096 15.7304 48.085C15.6026 47.3585 16.0869 46.6671 16.8124 46.5402C17.5379 46.4133 18.2293 46.8976 18.3573 47.6201Z" fill="#434A54"/>
<path d="M38.646 52.7018C38.773 53.4283 38.2886 54.1198 37.5659 54.2467C36.8394 54.3737 36.1479 53.8893 36.019 53.1666C35.892 52.4401 36.3764 51.7487 37.101 51.6198C37.8276 51.4928 38.519 51.9773 38.646 52.7018Z" fill="#434A54"/>
<path d="M26.6461 28.7037C26.774 29.4282 26.2896 30.1196 25.5651 30.2476C24.8396 30.3755 24.1482 29.8911 24.0202 29.1667C23.8924 28.4411 24.3767 27.7497 25.1022 27.6219C25.8269 27.4937 26.5182 27.9781 26.6461 28.7037Z" fill="#434A54"/>
<path d="M13.2969 31.3109C13.4247 32.0355 12.9405 32.7269 12.2159 32.8549C11.4902 32.9828 10.7989 32.4984 10.671 31.7739C10.5431 31.0483 11.0275 30.3569 11.753 30.229C12.4776 30.101 13.169 30.5854 13.2969 31.3109Z" fill="#434A54"/>
<path d="M58.966 49.8407C58.7395 49.8407 58.5108 49.784 58.3 49.6629L31.3327 34.0929C30.695 33.7249 30.4772 32.9094 30.8455 32.2718C31.2137 31.6342 32.029 31.4153 32.6667 31.7835L59.634 47.3525C60.2726 47.7215 60.4894 48.536 60.1204 49.1747C59.8741 49.6004 59.4248 49.8407 58.966 49.8407Z" fill="#AC92EB"/>
<path d="M32.0018 34.2729C31.9246 34.2729 31.8465 34.2651 31.7684 34.2514L1.103 28.8444C0.377375 28.7165 -0.107 28.025 0.0209996 27.2995C0.148875 26.5749 0.84125 26.0905 1.56587 26.2185L32.2313 31.6256C32.9569 31.7535 33.4413 32.445 33.3133 33.1705C33.199 33.8169 32.6365 34.2729 32.0018 34.2729Z" fill="#AC92EB"/>
<path d="M31.9988 34.273C31.363 34.273 30.8005 33.8171 30.6863 33.1696C30.5593 32.445 31.0428 31.7536 31.7683 31.6256L62.4326 26.2185C63.1591 26.0906 63.8505 26.575 63.9794 27.2995C64.1064 28.0251 63.622 28.7165 62.8974 28.8443L32.2311 34.2513C32.153 34.2651 32.0749 34.273 31.9988 34.273Z" fill="#AC92EB"/>
<path d="M5.03434 49.8409C4.57334 49.8409 4.12522 49.6006 3.87809 49.1749C3.50997 48.5362 3.72872 47.7217 4.36634 47.3527L31.3326 31.7837C31.9712 31.4156 32.7866 31.6344 33.1548 32.272C33.5231 32.9096 33.3042 33.7251 32.6666 34.0931L5.69947 49.6631C5.48959 49.7841 5.26009 49.8409 5.03434 49.8409Z" fill="#AC92EB"/>
<path d="M31.9986 34.2729C31.6968 34.2729 31.3921 34.1694 31.1431 33.9594C30.5786 33.4869 30.5045 32.645 30.9781 32.0816L50.9952 8.22764C51.4678 7.66314 52.3077 7.58989 52.8722 8.06364C53.4366 8.53626 53.5107 9.37801 53.0382 9.94139L33.021 33.7954C32.7573 34.1088 32.3793 34.2729 31.9986 34.2729Z" fill="#AC92EB"/>
<path d="M21.3493 63.5337C21.198 63.5337 21.0437 63.5064 20.8933 63.4517C20.202 63.1997 19.8446 62.4361 20.0965 61.7429L30.7466 32.4827C30.9986 31.7904 31.7642 31.4338 32.4555 31.6848C33.1479 31.9368 33.5044 32.7025 33.2524 33.3939L22.6022 62.6549C22.405 63.1979 21.8942 63.5337 21.3493 63.5337Z" fill="#AC92EB"/>
<path d="M31.9995 34.2728C31.2633 34.2728 30.6665 33.6743 30.6665 32.9379V1.79894C30.6665 1.06256 31.2631 0.466064 31.9995 0.466064C32.7359 0.466064 33.3325 1.06256 33.3325 1.79894V32.9379C33.3325 33.6743 32.7359 34.2728 31.9995 34.2728Z" fill="#AC92EB"/>
<path d="M42.6498 63.5337C42.1049 63.5337 41.5932 63.1959 41.3979 62.6549L30.7468 33.3939C30.4948 32.7025 30.8523 31.9368 31.5437 31.6848C32.236 31.4338 33.0007 31.7904 33.2525 32.4827L43.9015 61.7429C44.1554 62.4361 43.7982 63.1997 43.1048 63.4517C42.9564 63.5065 42.8002 63.5337 42.6498 63.5337Z" fill="#AC92EB"/>
<path d="M32.0006 34.2728C31.6198 34.2728 31.2418 34.1088 30.9782 33.7954L10.963 9.94129C10.4893 9.37779 10.5626 8.53617 11.127 8.06354C11.6915 7.58992 12.5322 7.66317 13.0058 8.22754L33.0209 32.0814C33.4946 32.6449 33.4203 33.4867 32.8569 33.9592C32.6069 34.1692 32.3023 34.2728 32.0006 34.2728Z" fill="#AC92EB"/>
</svg>
