<svg width="32" height="32" viewBox="0 0 32 32" fill="none" xmlns="http://www.w3.org/2000/svg">
<path d="M15.9999 31.4631C24.5399 31.4631 31.463 24.54 31.463 16C31.463 7.45998 24.5399 0.536926 15.9999 0.536926C7.45992 0.536926 0.536865 7.45998 0.536865 16C0.536865 24.54 7.45992 31.4631 15.9999 31.4631Z" fill="#E0E0E0"/>
<path d="M19.4362 28.0269C10.8962 28.0269 3.97305 21.1038 3.97305 12.5638C3.97305 9.17078 5.0688 6.03528 6.92162 3.48553C3.0538 6.29622 0.536865 10.853 0.536865 16C0.536865 24.54 7.45999 31.4631 15.9999 31.4631C21.1469 31.4631 25.7037 28.9461 28.5145 25.0783C25.9647 26.9312 22.8292 28.0269 19.4362 28.0269Z" fill="#E0E0E0"/>
<path d="M15.9999 5.72705C11.5986 5.72705 8.01782 9.3078 8.01782 13.7092C8.01782 14.6368 8.77251 15.3915 9.70013 15.3915C10.6278 15.3915 11.3824 14.6368 11.3824 13.7092C11.3824 11.1631 13.4539 9.09174 15.9999 9.09174C16.8598 9.09174 17.6994 9.3308 18.4278 9.78305C18.6797 9.93949 19.0108 9.86211 19.1672 9.61011C19.3236 9.35818 19.2463 9.02718 18.9943 8.87074C18.0956 8.31286 17.0602 8.01793 15.9999 8.01793C12.8618 8.01793 10.3087 10.5711 10.3087 13.7092C10.3087 14.0447 10.0358 14.3177 9.7002 14.3177C9.36463 14.3177 9.0917 14.0447 9.0917 13.7092C9.0917 9.89999 12.1908 6.80093 15.9999 6.80093C19.8091 6.80093 22.9082 9.89999 22.9082 13.7092C22.9082 15.3654 22.3106 16.9684 21.2254 18.2228C20.1511 19.4649 18.6729 20.2864 17.063 20.536C16.8014 20.5766 16.6083 20.8018 16.6083 21.0666V21.1544C16.6083 21.49 16.3354 21.7629 15.9998 21.7629C15.6643 21.7629 15.3913 21.49 15.3913 21.1544V20.009C15.3913 19.6734 15.6643 19.4005 15.9998 19.4005C19.1379 19.4005 21.6911 16.8474 21.6911 13.7092C21.6911 12.5856 21.3626 11.4979 20.7411 10.5639C20.5768 10.3171 20.2435 10.2501 19.9966 10.4143C19.7498 10.5786 19.6827 10.9119 19.8471 11.1587C20.351 11.9159 20.6173 12.7978 20.6173 13.7092C20.6173 16.2552 18.5458 18.3266 15.9998 18.3266C15.0722 18.3266 14.3175 19.0813 14.3175 20.0089V21.1544C14.3175 22.082 15.0722 22.8367 15.9998 22.8367C16.8014 22.8367 17.4739 22.2732 17.6418 21.5214C19.3411 21.164 20.8895 20.2524 22.0375 18.9253C23.2914 17.4758 23.9819 15.6233 23.9819 13.7092C23.9821 9.30786 20.4012 5.72705 15.9999 5.72705Z" fill="#2E2E2E"/>
<path d="M15.9999 24.0537C15.0723 24.0537 14.3176 24.8084 14.3176 25.736C14.3176 26.6636 15.0723 27.4183 15.9999 27.4183C16.9276 27.4183 17.6823 26.6636 17.6823 25.736C17.6823 24.8084 16.9276 24.0537 15.9999 24.0537ZM15.9999 26.3445C15.6644 26.3445 15.3914 26.0716 15.3914 25.736C15.3914 25.4005 15.6644 25.1275 15.9999 25.1275C16.3355 25.1275 16.6085 25.4005 16.6085 25.736C16.6085 26.0716 16.3355 26.3445 15.9999 26.3445Z" fill="#2E2E2E"/>
</svg>
