<svg width="32" height="32" viewBox="0 0 32 32" fill="none" xmlns="http://www.w3.org/2000/svg">
<path d="M16.0001 31.4632C24.5401 31.4632 31.4631 24.5402 31.4631 16.0002C31.4631 7.46016 24.5401 0.537109 16.0001 0.537109C7.46004 0.537109 0.536987 7.46016 0.536987 16.0002C0.536987 24.5402 7.46004 31.4632 16.0001 31.4632Z" fill="#48A145"/>
<path d="M19.4363 28.0277C10.8963 28.0277 3.97318 21.1046 3.97318 12.5646C3.97318 9.17158 5.06893 6.03608 6.92174 3.48633C3.05393 6.29702 0.536987 10.8538 0.536987 16.0008C0.536987 24.5408 7.46011 31.4639 16.0001 31.4639C21.1471 31.4639 25.7039 28.9469 28.5146 25.0791C25.9648 26.932 22.8293 28.0277 19.4363 28.0277Z" fill="#48A145"/>
<path d="M15.9999 26.8807C16.6325 26.8807 17.1454 26.3679 17.1454 25.7353C17.1454 25.1027 16.6325 24.5898 15.9999 24.5898C15.3673 24.5898 14.8545 25.1027 14.8545 25.7353C14.8545 26.3679 15.3673 26.8807 15.9999 26.8807Z" fill="#48A145"/>
<path d="M21.1543 13.7089C21.1543 10.8622 18.8466 8.55448 15.9999 8.55448C13.1579 8.55448 10.8456 10.8665 10.8456 13.7089C10.8456 14.3414 10.3327 14.8543 9.70012 14.8543C9.06756 14.8543 8.55469 14.3414 8.55469 13.7089C8.55469 9.60367 11.8944 6.26367 15.9999 6.26367C20.1053 6.26367 23.4451 9.60367 23.4451 13.7089C23.4451 17.4247 20.7087 20.5137 17.1453 21.0662V21.154C17.1453 21.7866 16.6324 22.2995 15.9999 22.2995C15.3673 22.2995 14.8544 21.7866 14.8544 21.154V20.0086C14.8544 19.376 15.3673 18.8632 15.9999 18.8632C18.8419 18.8632 21.1543 16.5511 21.1543 13.7089Z" fill="#48A145"/>
<path d="M16.0001 5.72656C11.5988 5.72656 8.01794 9.30731 8.01794 13.7087C8.01794 14.6363 8.77263 15.391 9.70026 15.391C10.6279 15.391 11.3826 14.6363 11.3826 13.7087C11.3826 11.1626 13.454 9.09125 16 9.09125C16.8599 9.09125 17.6995 9.33031 18.4279 9.78256C18.6798 9.939 19.0109 9.86162 19.1673 9.60962C19.3237 9.35769 19.2464 9.02669 18.9944 8.87025C18.0957 8.31238 17.0603 8.01744 16.0001 8.01744C12.8619 8.01744 10.3088 10.5706 10.3088 13.7087C10.3088 14.0442 10.0359 14.3172 9.70032 14.3172C9.36476 14.3172 9.09182 14.0442 9.09182 13.7087C9.09182 9.8995 12.1909 6.80044 16.0001 6.80044C19.8092 6.80044 22.9083 9.8995 22.9083 13.7087C22.9083 15.3649 22.3107 16.9679 21.2256 18.2223C20.1512 19.4644 18.673 20.2859 17.0631 20.5355C16.8016 20.5761 16.6084 20.8013 16.6084 21.0661V21.1539C16.6084 21.4895 16.3355 21.7624 15.9999 21.7624C15.6644 21.7624 15.3914 21.4895 15.3914 21.1539V20.0085C15.3914 19.6729 15.6644 19.4 15.9999 19.4C19.1381 19.4 21.6912 16.8469 21.6912 13.7088C21.6912 12.5851 21.3627 11.4974 20.7412 10.5634C20.5769 10.3166 20.2436 10.2496 19.9967 10.4138C19.7499 10.5781 19.6829 10.9114 19.8472 11.1582C20.3511 11.9154 20.6174 12.7973 20.6174 13.7087C20.6174 16.2547 18.5459 18.3261 15.9999 18.3261C15.0723 18.3261 14.3176 19.0808 14.3176 20.0084V21.1539C14.3176 22.0815 15.0723 22.8362 15.9999 22.8362C16.8015 22.8362 17.474 22.2727 17.6419 21.5209C19.3412 21.1635 20.8896 20.2519 22.0376 18.9248C23.2915 17.4753 23.9821 15.6228 23.9821 13.7087C23.9822 9.30737 20.4014 5.72656 16.0001 5.72656Z" fill="white"/>
<path d="M16.0001 24.0527C15.0724 24.0527 14.3177 24.8074 14.3177 25.735C14.3177 26.6627 15.0724 27.4174 16.0001 27.4174C16.9277 27.4174 17.6824 26.6627 17.6824 25.735C17.6824 24.8074 16.9277 24.0527 16.0001 24.0527ZM16.0001 26.3435C15.6645 26.3435 15.3916 26.0706 15.3916 25.735C15.3916 25.3995 15.6645 25.1265 16.0001 25.1265C16.3356 25.1265 16.6086 25.3995 16.6086 25.735C16.6086 26.0706 16.3356 26.3435 16.0001 26.3435Z" fill="white"/>
</svg>
