<svg width="32" height="32" viewBox="0 0 32 32" fill="none" xmlns="http://www.w3.org/2000/svg">
<circle cx="16" cy="16" r="15.5" fill="#E9F5E9" stroke="#48A145"/>
<path fill-rule="evenodd" clip-rule="evenodd" d="M8.01807 13.7092C8.01807 9.3078 11.5989 5.72705 16.0002 5.72705C20.4015 5.72705 23.9823 9.30786 23.9822 13.7092C23.9822 15.6233 23.2916 17.4758 22.0377 18.9253C20.8897 20.2524 19.3414 21.164 17.6421 21.5214C17.4741 22.2732 16.8016 22.8367 16.0001 22.8367C15.0724 22.8367 14.3177 22.082 14.3177 21.1544V20.0089C14.3177 19.0813 15.0724 18.3266 16.0001 18.3266C18.5461 18.3266 20.6175 16.2552 20.6175 13.7092C20.6175 12.7978 20.3512 11.9159 19.8473 11.1587C19.683 10.9119 19.7501 10.5786 19.9969 10.4143C20.2437 10.2501 20.5771 10.3171 20.7413 10.5639C21.3629 11.4979 21.6913 12.5856 21.6913 13.7092C21.6913 16.8474 19.1382 19.4005 16.0001 19.4005C15.6645 19.4005 15.3916 19.6734 15.3916 20.009V21.1544C15.3916 21.49 15.6645 21.7629 16.0001 21.7629C16.3356 21.7629 16.6086 21.49 16.6086 21.1544V21.0666C16.6086 20.8018 16.8017 20.5766 17.0632 20.536C18.6731 20.2864 20.1514 19.4649 21.2257 18.2228C22.3108 16.9684 22.9084 15.3654 22.9084 13.7092C22.9084 9.89999 19.8094 6.80093 16.0002 6.80093C12.191 6.80093 9.09194 9.89999 9.09194 13.7092C9.09194 14.0447 9.36488 14.3177 9.70044 14.3177C10.036 14.3177 10.3089 14.0447 10.3089 13.7092C10.3089 10.5711 12.8621 8.01793 16.0002 8.01793C17.0604 8.01793 18.0959 8.31286 18.9945 8.87074C19.2465 9.02718 19.3239 9.35818 19.1674 9.61011C19.011 9.86211 18.6799 9.93949 18.4281 9.78305C17.6996 9.3308 16.8601 9.09174 16.0001 9.09174C13.4541 9.09174 11.3827 11.1631 11.3827 13.7092C11.3827 14.6368 10.628 15.3915 9.70038 15.3915C8.77275 15.3915 8.01807 14.6368 8.01807 13.7092ZM14.3179 25.736C14.3179 24.8084 15.0726 24.0537 16.0002 24.0537C16.9278 24.0537 17.6825 24.8084 17.6825 25.736C17.6825 26.6636 16.9278 27.4183 16.0002 27.4183C15.0726 27.4183 14.3179 26.6636 14.3179 25.736ZM15.3917 25.736C15.3917 26.0716 15.6646 26.3445 16.0002 26.3445C16.3358 26.3445 16.6087 26.0716 16.6087 25.736C16.6087 25.4005 16.3358 25.1275 16.0002 25.1275C15.6646 25.1275 15.3917 25.4005 15.3917 25.736Z" fill="#48A145"/>
</svg>
