<svg width="32" height="32" viewBox="0 0 32 32" fill="none" xmlns="http://www.w3.org/2000/svg">
<path d="M16.0002 31.4631C24.5402 31.4631 31.4632 24.54 31.4632 16C31.4632 7.46001 24.5402 0.536957 16.0002 0.536957C7.46016 0.536957 0.537109 7.46001 0.537109 16C0.537109 24.54 7.46016 31.4631 16.0002 31.4631Z" fill="#3A8137"/>
<path d="M19.4364 28.0269C10.8964 28.0269 3.9733 21.1038 3.9733 12.5638C3.9733 9.17075 5.06905 6.03525 6.92186 3.4855C3.05405 6.29619 0.537109 10.853 0.537109 16C0.537109 24.54 7.46023 31.4631 16.0002 31.4631C21.1472 31.4631 25.704 28.9461 28.5147 25.0783C25.9649 26.9311 22.8294 28.0269 19.4364 28.0269Z" fill="#3A8137"/>
<path d="M15.9999 26.8815C16.6325 26.8815 17.1454 26.3687 17.1454 25.736C17.1454 25.1034 16.6325 24.5906 15.9999 24.5906C15.3673 24.5906 14.8545 25.1034 14.8545 25.736C14.8545 26.3687 15.3673 26.8815 15.9999 26.8815Z" fill="#3A8137"/>
<path d="M21.1543 13.7092C21.1543 10.8626 18.8466 8.55482 15.9999 8.55482C13.1579 8.55482 10.8456 10.8669 10.8456 13.7092C10.8456 14.3418 10.3327 14.8546 9.70012 14.8546C9.06756 14.8546 8.55469 14.3418 8.55469 13.7092C8.55469 9.60401 11.8944 6.26401 15.9999 6.26401C20.1053 6.26401 23.4451 9.60401 23.4451 13.7092C23.4451 17.4251 20.7087 20.514 17.1453 21.0666V21.1544C17.1453 21.7869 16.6324 22.2998 15.9999 22.2998C15.3673 22.2998 14.8544 21.7869 14.8544 21.1544V20.0089C14.8544 19.3764 15.3673 18.8635 15.9999 18.8635C18.8419 18.8636 21.1543 16.5514 21.1543 13.7092Z" fill="#3A8137"/>
<circle cx="16" cy="16" r="13.5" stroke="white"/>
<path d="M27.3137 4.68625C24.2917 1.66431 20.2738 0 16 0C11.7262 0 7.70825 1.66431 4.68625 4.68625C1.66431 7.70825 0 11.7262 0 16C0 20.2738 1.66431 24.2917 4.68625 27.3137C7.70825 30.3357 11.7262 32 16 32C20.2738 32 24.2917 30.3357 27.3137 27.3137C30.3357 24.2917 32 20.2738 32 16C32 11.7262 30.3357 7.70825 27.3137 4.68625ZM16 30.9262C7.76969 30.9262 1.07381 24.2303 1.07381 16C1.07381 7.76969 7.76969 1.07381 16 1.07381C24.2303 1.07381 30.9262 7.76969 30.9262 16C30.9262 24.2303 24.2303 30.9262 16 30.9262Z" fill="#3A8137"/>
<path d="M16.0002 5.72702C11.5989 5.72702 8.01807 9.30777 8.01807 13.7091C8.01807 14.6368 8.77275 15.3915 9.70038 15.3915C10.628 15.3915 11.3827 14.6368 11.3827 13.7091C11.3827 11.1631 13.4541 9.09171 16.0001 9.09171C16.8601 9.09171 17.6996 9.33077 18.4281 9.78302C18.6799 9.93946 19.011 9.86208 19.1674 9.61008C19.3239 9.35814 19.2465 9.02715 18.9945 8.87071C18.0959 8.31283 17.0604 8.0179 16.0002 8.0179C12.8621 8.0179 10.3089 10.571 10.3089 13.7091C10.3089 14.0447 10.036 14.3176 9.70044 14.3176C9.36488 14.3176 9.09194 14.0447 9.09194 13.7091C9.09194 9.89996 12.191 6.8009 16.0002 6.8009C19.8094 6.8009 22.9084 9.89996 22.9084 13.7091C22.9084 15.3653 22.3108 16.9683 21.2257 18.2228C20.1514 19.4648 18.6731 20.2863 17.0632 20.536C16.8017 20.5765 16.6086 20.8018 16.6086 21.0666V21.1544C16.6086 21.49 16.3356 21.7629 16.0001 21.7629C15.6645 21.7629 15.3916 21.49 15.3916 21.1544V20.009C15.3916 19.6734 15.6645 19.4005 16.0001 19.4005C19.1382 19.4005 21.6913 16.8473 21.6913 13.7092C21.6913 12.5856 21.3629 11.4979 20.7413 10.5638C20.5771 10.317 20.2437 10.2501 19.9969 10.4143C19.7501 10.5785 19.683 10.9118 19.8473 11.1587C20.3512 11.9158 20.6175 12.7978 20.6175 13.7091C20.6175 16.2552 18.5461 18.3266 16.0001 18.3266C15.0724 18.3266 14.3177 19.0813 14.3177 20.0089V21.1543C14.3177 22.082 15.0724 22.8366 16.0001 22.8366C16.8016 22.8366 17.4741 22.2731 17.6421 21.5214C19.3414 21.164 20.8897 20.2524 22.0377 18.9253C23.2916 17.4758 23.9822 15.6233 23.9822 13.7091C23.9823 9.30783 20.4015 5.72702 16.0002 5.72702Z" fill="white"/>
<path d="M16.0002 24.0537C15.0726 24.0537 14.3179 24.8084 14.3179 25.736C14.3179 26.6636 15.0726 27.4183 16.0002 27.4183C16.9278 27.4183 17.6825 26.6636 17.6825 25.736C17.6825 24.8084 16.9278 24.0537 16.0002 24.0537ZM16.0002 26.3445C15.6646 26.3445 15.3917 26.0716 15.3917 25.736C15.3917 25.4004 15.6646 25.1275 16.0002 25.1275C16.3358 25.1275 16.6087 25.4004 16.6087 25.736C16.6087 26.0716 16.3358 26.3445 16.0002 26.3445Z" fill="white"/>
</svg>
