<svg width="32" height="32" viewBox="0 0 32 32" fill="none" xmlns="http://www.w3.org/2000/svg">
<ellipse cx="16" cy="16" rx="16" ry="16" fill="#48A145"/>
<path d="M11.9752 6.91386C13.0334 6.64867 13.8592 5.82242 14.1246 4.7648L14.1698 4.58398L14.215 4.7648C14.4801 5.82242 15.3062 6.64873 16.3642 6.91386L16.5449 6.95911L16.3642 7.00411C15.3062 7.26923 14.4802 8.09542 14.215 9.15342L14.1698 9.33398L14.1246 9.15342C13.8592 8.09542 13.0334 7.26929 11.9752 7.00411L11.7946 6.95911L11.9752 6.91386Z" fill="white"/>
<path d="M8.95394 7.18942C9.33538 7.09386 9.63325 6.79605 9.72888 6.41467L9.74513 6.34961L9.76156 6.41467C9.85713 6.79611 10.1549 7.09386 10.5365 7.18942L10.6016 7.20586L10.5365 7.2223C10.155 7.3178 9.85713 7.61567 9.76156 7.99723L9.74513 8.06236L9.72888 7.99723C9.63325 7.61573 9.33538 7.3178 8.95394 7.2223L8.88881 7.20586L8.95394 7.18942Z" fill="white"/>
<path d="M22.9287 17.6167C23.5742 17.4549 24.0782 16.9508 24.24 16.3054L24.2677 16.1953L24.2954 16.3054C24.457 16.9508 24.9612 17.4549 25.6067 17.6167L25.7168 17.6444L25.6067 17.672C24.9611 17.8338 24.457 18.3378 24.2954 18.9833L24.2677 19.0934L24.24 18.9833C24.0783 18.3377 23.5742 17.8338 22.9287 17.672L22.8184 17.6444L22.9287 17.6167Z" fill="white"/>
<path d="M11.012 24.4475C11.6419 24.2898 12.1335 23.7979 12.2916 23.168L12.3184 23.0605L12.3454 23.168C12.5032 23.7979 12.995 24.2898 13.6249 24.4475L13.7324 24.4745L13.6249 24.5016C12.995 24.6594 12.5032 25.1511 12.3454 25.7809L12.3184 25.8884L12.2916 25.7809C12.1335 25.1511 11.6419 24.6594 11.012 24.5016L10.9044 24.4745L11.012 24.4475Z" fill="white"/>
<path d="M19.6199 23.2461C19.6168 23.2712 19.6117 23.2964 19.6022 23.3212C19.59 23.3527 19.3102 24.0974 19.8788 24.4704C19.9813 24.5377 20.1099 24.5733 20.251 24.5854C20.2588 24.5019 20.2714 24.4174 20.289 24.3327C20.4212 23.6979 20.7965 23.2486 21.293 23.1307C21.7025 23.0335 22.1078 23.2236 22.2791 23.5929C22.4178 23.8921 22.4035 24.3716 21.906 24.7385C21.7001 24.8904 21.3299 25.0641 20.9177 25.1546C20.9727 25.3501 21.0716 25.5138 21.2063 25.6149C21.4606 25.8056 21.8197 25.7504 22.0113 25.7006C22.4977 25.574 22.9829 25.2117 23.1401 24.8578C23.2102 24.7001 23.3947 24.629 23.5525 24.699C23.7102 24.7691 23.7813 24.9537 23.7113 25.1114C23.4771 25.639 22.8428 26.1299 22.1688 26.3054C21.9943 26.3509 21.8247 26.3734 21.6634 26.3733C21.3454 26.3733 21.0595 26.2859 20.8313 26.1148C20.555 25.9075 20.3672 25.5874 20.2863 25.2153C20.0185 25.204 19.7581 25.1387 19.5361 24.9931C18.9989 24.6407 18.8745 24.0954 18.9024 23.6456C19.1655 23.5281 19.4051 23.3928 19.6199 23.2461ZM21.535 24.2355C21.6998 24.114 21.766 23.9721 21.7121 23.8559C21.6808 23.7884 21.6076 23.7304 21.5059 23.7304C21.4843 23.7304 21.4614 23.7331 21.4373 23.7387C21.1377 23.8099 20.9637 24.158 20.9008 24.4601C20.897 24.4787 20.8934 24.4974 20.8903 24.5161C21.1554 24.4462 21.3968 24.3374 21.535 24.2355Z" fill="white"/>
<path d="M10.756 8.30915C9.9346 8.37627 7.54591 9.65977 7.26716 11.7087C6.93098 14.1797 12.784 23.5944 16.2165 24.0364C16.5642 24.0819 16.909 24.09 17.2431 24.0624C19.6727 23.8636 20.9793 22.1573 20.9978 21.3416C21.0161 20.5256 19.8287 19.0699 18.9425 18.9157C18.243 18.8222 17.5865 19.319 17.198 19.6737C16.7924 20.044 16.3028 20.443 15.185 19.9814C14.0207 19.5006 10.9448 15.214 10.8697 14.0477C10.8177 13.2516 11.587 12.9213 12.2383 12.3196C12.5493 12.032 12.9972 11.3823 12.945 10.5968C12.9054 9.98684 11.7063 8.23133 10.756 8.30915Z" fill="white"/>
<path d="M17.4435 16.5884C17.5917 16.5884 17.7233 16.4825 17.7506 16.3315C18.0687 14.5752 16.8985 12.8876 15.1423 12.5695C14.9725 12.5387 14.8098 12.6515 14.7791 12.8213C14.7483 12.9911 14.8611 13.1538 15.0309 13.1845C16.4481 13.4411 17.3923 14.803 17.1357 16.2202C17.1049 16.39 17.2177 16.5526 17.3875 16.5833C17.4063 16.5868 17.425 16.5884 17.4435 16.5884Z" fill="white"/>
<path d="M19.1757 16.507C19.3239 16.507 19.4555 16.4012 19.4828 16.2502C19.6987 15.0577 19.4374 13.8526 18.7471 12.8569C18.0567 11.861 17.0197 11.1937 15.8272 10.9777C15.6574 10.9469 15.4948 11.0597 15.4641 11.2295C15.4333 11.3994 15.5461 11.562 15.7159 11.5927C16.7441 11.7789 17.6382 12.3544 18.2335 13.213C18.8287 14.0716 19.054 15.1107 18.8679 16.1389C18.8371 16.3087 18.9499 16.4713 19.1197 16.502C19.1384 16.5054 19.1572 16.507 19.1757 16.507Z" fill="white"/>
<path d="M21.0098 16.4179C21.158 16.4179 21.2896 16.3121 21.3169 16.1611C21.8978 12.9534 19.7608 9.87112 16.5531 9.29025C16.3833 9.25937 16.2206 9.37218 16.1899 9.54206C16.1591 9.71187 16.2719 9.87449 16.4417 9.90524C19.3103 10.4247 21.2214 13.1811 20.7019 16.0497C20.6712 16.2195 20.7839 16.3821 20.9538 16.4129C20.9726 16.4162 20.9913 16.4179 21.0098 16.4179Z" fill="white"/>
</svg>
