<svg width="32" height="32" viewBox="0 0 32 32" fill="none" xmlns="http://www.w3.org/2000/svg">
<ellipse cx="16" cy="16" rx="16" ry="16" fill="#E0E0E0"/>
<path d="M11.9752 6.91312C13.0334 6.64794 13.8592 5.82169 14.1246 4.76406L14.1698 4.58325L14.215 4.76406C14.4801 5.82169 15.3062 6.648 16.3642 6.91312L16.5449 6.95837L16.3642 7.00337C15.3062 7.2685 14.4802 8.09468 14.215 9.15268L14.1698 9.33324L14.1246 9.15268C13.8592 8.09468 13.0334 7.26856 11.9752 7.00337L11.7946 6.95837L11.9752 6.91312Z" fill="#2E2E2E"/>
<path d="M8.95394 7.18893C9.33538 7.09337 9.63325 6.79556 9.72888 6.41418L9.74513 6.34912L9.76156 6.41418C9.85713 6.79562 10.1549 7.09337 10.5365 7.18893L10.6016 7.20537L10.5365 7.22181C10.155 7.31731 9.85713 7.61518 9.76156 7.99675L9.74513 8.06187L9.72888 7.99675C9.63325 7.61525 9.33538 7.31731 8.95394 7.22181L8.88881 7.20537L8.95394 7.18893Z" fill="#2E2E2E"/>
<path d="M22.9287 17.6169C23.5742 17.4552 24.0782 16.951 24.24 16.3056L24.2677 16.1956L24.2954 16.3056C24.457 16.951 24.9612 17.4552 25.6067 17.6169L25.7168 17.6446L25.6067 17.6722C24.9611 17.834 24.457 18.338 24.2954 18.9836L24.2677 19.0937L24.24 18.9836C24.0783 18.3379 23.5742 17.834 22.9287 17.6722L22.8184 17.6446L22.9287 17.6169Z" fill="#2E2E2E"/>
<path d="M11.012 24.448C11.6419 24.2903 12.1335 23.7983 12.2916 23.1685L12.3184 23.061L12.3454 23.1685C12.5032 23.7984 12.995 24.2903 13.6249 24.448L13.7324 24.475L13.6249 24.5021C12.995 24.6598 12.5032 25.1516 12.3454 25.7814L12.3184 25.8888L12.2916 25.7814C12.1335 25.1516 11.6419 24.6598 11.012 24.5021L10.9044 24.475L11.012 24.448Z" fill="#2E2E2E"/>
<path d="M19.6199 23.2461C19.6168 23.2712 19.6117 23.2964 19.6022 23.3212C19.59 23.3527 19.3102 24.0974 19.8788 24.4704C19.9813 24.5377 20.1099 24.5733 20.251 24.5854C20.2588 24.5019 20.2714 24.4174 20.289 24.3327C20.4212 23.6979 20.7965 23.2486 21.293 23.1307C21.7025 23.0335 22.1078 23.2236 22.2791 23.5929C22.4178 23.8921 22.4035 24.3716 21.906 24.7385C21.7001 24.8904 21.3299 25.0641 20.9177 25.1546C20.9727 25.3501 21.0716 25.5138 21.2063 25.6149C21.4606 25.8056 21.8197 25.7504 22.0113 25.7006C22.4977 25.574 22.9829 25.2117 23.1401 24.8578C23.2102 24.7001 23.3947 24.629 23.5525 24.699C23.7102 24.7691 23.7813 24.9537 23.7113 25.1114C23.4771 25.639 22.8428 26.1299 22.1688 26.3054C21.9943 26.3509 21.8247 26.3734 21.6634 26.3733C21.3454 26.3733 21.0595 26.2859 20.8313 26.1148C20.555 25.9075 20.3672 25.5874 20.2863 25.2153C20.0185 25.204 19.7581 25.1387 19.5361 24.9931C18.9989 24.6407 18.8745 24.0954 18.9024 23.6456C19.1655 23.5281 19.4051 23.3928 19.6199 23.2461ZM21.535 24.2355C21.6998 24.114 21.766 23.9721 21.7121 23.8559C21.6808 23.7884 21.6076 23.7304 21.5059 23.7304C21.4843 23.7304 21.4614 23.7331 21.4373 23.7387C21.1377 23.8099 20.9637 24.158 20.9008 24.4601C20.897 24.4787 20.8934 24.4974 20.8903 24.5161C21.1554 24.4462 21.3968 24.3374 21.535 24.2355Z" fill="#2E2E2E"/>
<path d="M10.756 8.30964C9.9346 8.37676 7.54591 9.66026 7.26716 11.7092C6.93098 14.1802 12.784 23.5949 16.2165 24.0368C16.5642 24.0823 16.909 24.0905 17.2431 24.0628C19.6727 23.8641 20.9793 22.1578 20.9978 21.3421C21.0161 20.5261 19.8287 19.0704 18.9425 18.9161C18.243 18.8227 17.5865 19.3195 17.198 19.6742C16.7924 20.0445 16.3028 20.4435 15.185 19.9819C14.0207 19.5011 10.9448 15.2145 10.8697 14.0481C10.8177 13.2521 11.587 12.9218 12.2383 12.3201C12.5493 12.0325 12.9972 11.3828 12.945 10.5973C12.9054 9.98732 11.7063 8.23182 10.756 8.30964Z" fill="#2E2E2E"/>
<path d="M17.4435 16.5886C17.5917 16.5886 17.7233 16.4828 17.7506 16.3318C18.0687 14.5755 16.8985 12.8878 15.1423 12.5698C14.9725 12.539 14.8098 12.6518 14.7791 12.8216C14.7483 12.9914 14.8611 13.154 15.0309 13.1848C16.4481 13.4414 17.3923 14.8032 17.1357 16.2204C17.1049 16.3902 17.2177 16.5528 17.3875 16.5836C17.4063 16.587 17.425 16.5886 17.4435 16.5886Z" fill="#2E2E2E"/>
<path d="M19.1757 16.5066C19.3239 16.5066 19.4555 16.4007 19.4828 16.2497C19.6987 15.0572 19.4374 13.8521 18.7471 12.8564C18.0567 11.8605 17.0197 11.1932 15.8272 10.9772C15.6574 10.9464 15.4948 11.0592 15.4641 11.2291C15.4333 11.3989 15.5461 11.5615 15.7159 11.5922C16.7441 11.7784 17.6382 12.3539 18.2335 13.2125C18.8287 14.0711 19.054 15.1102 18.8679 16.1384C18.8371 16.3082 18.9499 16.4708 19.1197 16.5016C19.1384 16.5049 19.1572 16.5066 19.1757 16.5066Z" fill="#2E2E2E"/>
<path d="M21.0098 16.4177C21.158 16.4177 21.2896 16.3118 21.3169 16.1608C21.8978 12.9531 19.7608 9.87088 16.5531 9.29C16.3833 9.25913 16.2206 9.37194 16.1899 9.54181C16.1591 9.71163 16.2719 9.87425 16.4417 9.905C19.3103 10.4245 21.2214 13.1809 20.7019 16.0494C20.6712 16.2193 20.7839 16.3819 20.9538 16.4126C20.9726 16.416 20.9913 16.4177 21.0098 16.4177Z" fill="#2E2E2E"/>
</svg>
