<svg width="24" height="25" viewBox="0 0 24 25" fill="none" xmlns="http://www.w3.org/2000/svg">
<g clip-path="url(#clip0_5534_23058)">
<path d="M15.8066 16.5515C18.4718 15.1722 20.2934 12.3903 20.2934 9.18234C20.2934 4.45368 16.3362 0.649404 11.5527 0.900419C7.26256 1.12556 3.79339 4.71773 3.70775 9.01298C3.64226 12.2955 5.48468 15.1537 8.20104 16.5557C9.01432 16.9754 9.51162 17.828 9.51162 18.7432V22.0376C9.51162 22.4957 9.88292 22.867 10.341 22.867H13.6585C14.1165 22.867 14.4878 22.4957 14.4878 22.0376V18.7452C14.4878 17.8261 14.9904 16.9739 15.8066 16.5515Z" fill="#FFF082"/>
<path d="M12.0002 15.8178C15.6646 15.8178 18.6352 12.8472 18.6352 9.18282C18.6352 5.51843 15.6646 2.54785 12.0002 2.54785C8.33581 2.54785 5.36523 5.51843 5.36523 9.18282C5.36523 12.8472 8.33581 15.8178 12.0002 15.8178Z" fill="#FFFFAA"/>
<path d="M12.0004 13.3293C14.2906 13.3293 16.1472 11.4727 16.1472 9.18248C16.1472 6.89225 14.2906 5.03564 12.0004 5.03564C9.71012 5.03564 7.85352 6.89225 7.85352 9.18248C7.85352 11.4727 9.71012 13.3293 12.0004 13.3293Z" fill="#FFFFE5"/>
<path d="M10.7559 22.8673C10.7559 23.5544 11.3128 24.1114 11.9999 24.1114C12.687 24.1114 13.244 23.5544 13.244 22.8673V22.4526H10.7559V22.8673Z" fill="#7F8499"/>
<path d="M13.6586 22.8673H10.3411C9.88302 22.8673 9.51172 22.496 9.51172 22.0379V19.5498H14.4879V22.0379C14.4879 22.496 14.1166 22.8673 13.6586 22.8673Z" fill="#AFB9D2"/>
<path d="M11.1709 19.5498V18.969C11.1709 18.3135 10.7848 17.7194 10.1858 17.4532L8.29395 16.6123C9.05037 17.0479 9.51213 17.8647 9.51213 18.7435V19.5497L11.1709 19.5498Z" fill="#FFDC64"/>
<path d="M14.4879 21.5973V20.8198H11.1704V19.5498H9.51172V22.0379C9.51172 22.4959 9.88306 22.8673 10.3411 22.8673H11.9998C11.5418 22.8673 11.1705 22.4959 11.1705 22.0379V21.5973H14.4879Z" fill="#959CB5"/>
<path d="M17.9753 2.88342C16.2307 1.22798 13.9426 0.385961 11.5325 0.51243C9.35959 0.62643 7.31453 1.56688 5.77412 3.16045C4.23442 4.75331 3.36259 6.82912 3.31914 9.00543C3.28604 10.6638 3.72179 12.2843 4.57928 13.692C5.41168 15.0585 6.6025 16.1682 8.02286 16.9013C8.70137 17.2516 9.12297 17.9574 9.12297 18.7434V22.0378C9.12297 22.7095 9.66944 23.256 10.3411 23.256H10.4141C10.589 23.9692 11.2334 24.5 11.9998 24.5C12.7662 24.5 13.4106 23.9692 13.5855 23.256H13.6585C14.3302 23.256 14.8767 22.7095 14.8767 22.0378V18.7454C14.8767 17.9591 15.3015 17.2509 15.9854 16.8969C18.8826 15.3975 20.6823 12.4416 20.6823 9.18253C20.6823 6.77695 19.7209 4.53989 17.9753 2.88342ZM11.9998 23.7225C11.6683 23.7225 11.3808 23.5324 11.239 23.256H12.7607C12.6188 23.5325 12.3314 23.7225 11.9998 23.7225ZM13.6585 22.4784H10.3411C10.0981 22.4784 9.90044 22.2808 9.90044 22.0378V21.5972H11.9998C12.2145 21.5972 12.3886 21.4232 12.3886 21.2084C12.3886 20.9936 12.2146 20.8196 11.9998 20.8196H9.90048V19.9384H14.0992V20.8196H13.6585C13.4439 20.8196 13.2698 20.9936 13.2698 21.2084C13.2698 21.4232 13.4438 21.5972 13.6585 21.5972H14.0992V22.0378C14.0992 22.2808 13.9015 22.4784 13.6585 22.4784ZM15.628 16.2064C14.685 16.6945 14.0992 17.6674 14.0992 18.7454V19.1609H9.90048V18.7434C9.90048 17.6653 9.31764 16.6947 8.37948 16.2104C7.08592 15.5428 6.00147 14.5321 5.24331 13.2875C4.46293 12.0065 4.06637 10.5311 4.09651 9.0209C4.13603 7.04147 4.93028 5.15203 6.33315 3.70073C7.7364 2.24901 9.59734 1.39251 11.5732 1.28877C11.7174 1.28123 11.8609 1.27748 12.004 1.27748C14.0396 1.27748 15.9561 2.0392 17.44 3.44737C19.0294 4.95553 19.9047 6.99229 19.9047 9.18253C19.9047 12.1498 18.266 14.8411 15.628 16.2064Z" fill="black"/>
<path d="M13.3672 5.0815C13.1635 5.01381 12.9433 5.12369 12.8754 5.32736L10.3873 12.7917C10.3193 12.9954 10.4294 13.2156 10.6332 13.2835C10.6739 13.297 10.7154 13.3035 10.7562 13.3035C10.9189 13.3035 11.0706 13.2005 11.1249 13.0376L13.6131 5.57326C13.6809 5.36959 13.5708 5.14937 13.3672 5.0815Z" fill="black"/>
<path d="M9.37246 6.4195C9.22063 6.26772 8.97444 6.26772 8.8227 6.4195L6.33457 8.90763C6.18275 9.0595 6.18275 9.30564 6.33457 9.45747L8.8227 11.9456C8.8986 12.0215 8.99811 12.0594 9.09758 12.0594C9.19705 12.0594 9.29657 12.0215 9.37246 11.9456C9.52428 11.7937 9.52428 11.5476 9.37246 11.3958L7.15925 9.18259L9.37246 6.96944C9.52428 6.81747 9.52428 6.57133 9.37246 6.4195Z" fill="black"/>
<path d="M17.6654 8.90763L15.1773 6.4195C15.0255 6.26772 14.7793 6.26772 14.6275 6.4195C14.4757 6.57138 14.4757 6.81752 14.6275 6.96934L16.8408 9.1825L14.6275 11.3957C14.4757 11.5475 14.4757 11.7937 14.6275 11.9455C14.7034 12.0214 14.8029 12.0593 14.9024 12.0593C15.0019 12.0593 15.1014 12.0214 15.1773 11.9455L17.6654 9.45738C17.8173 9.30555 17.8173 9.05945 17.6654 8.90763Z" fill="black"/>
</g>
<defs>
<clipPath id="clip0_5534_23058">
<rect width="24" height="24" fill="white" transform="translate(0 0.5)"/>
</clipPath>
</defs>
</svg>
