<svg width="152" height="120" viewBox="0 0 152 120" fill="none" xmlns="http://www.w3.org/2000/svg">
<g clip-path="url(#clip0_7735_130331)">
<path d="M109.593 91.4287C115.749 94.141 105.722 94.4763 92.2517 95.5429C78.7812 96.6401 71.1622 95.6649 61.1355 95.5125C51.1393 95.3601 36.3279 96.061 35.3222 93.0744C34.286 90.0877 42.667 88.0763 43.4289 86.4001C44.1603 84.7544 25.6308 85.6687 26.0879 83.7487C26.2403 83.1087 26.8193 82.5296 27.7641 82.0116C35.9317 77.4706 71.3146 77.0439 88.5336 76.922C107.734 76.7697 127.635 76.4954 135.558 81.0363C136.625 81.6458 137.082 82.1639 137.052 82.6211C136.93 85.6077 116.816 85.7601 110.812 86.7049C103.802 87.7715 103.436 88.7163 109.593 91.4287Z" fill="#C7D4FF"/>
<path d="M100.572 86.4306C105.113 88.1983 97.7072 88.3811 87.7719 89.0821C77.8062 89.7525 72.1681 89.143 64.7929 89.0211C57.3871 88.8992 46.4767 89.3563 45.7148 87.4059C44.9529 85.4554 51.1395 84.1754 51.6881 83.1087C52.2367 82.0421 38.5224 82.6211 38.8576 81.3411C38.9795 80.9144 39.4062 80.5487 40.0767 80.2135C46.1109 77.2878 72.2595 77.0744 84.9681 76.983C99.1395 76.8916 116.999 75.9468 119.711 78.8421C121.021 80.244 105.875 82.7735 101.425 83.3525C96.2748 84.0535 96.0005 84.663 100.572 86.4306Z" fill="#99ADF9"/>
<path d="M109.593 91.4289C115.749 94.1413 105.722 94.4765 92.2517 95.5432C78.7812 96.6403 71.1622 95.6651 61.1355 95.5127C51.1393 95.3603 36.3279 96.0613 35.3222 93.0746C34.286 90.0879 42.667 88.0765 43.4289 86.4003C44.1603 84.7546 25.6308 85.6689 26.0879 83.7489C26.2403 83.1089 26.8193 82.5298 27.7641 82.0117C28.0079 82.4689 28.9831 82.926 31.6955 83.1393C37.8822 83.5965 46.6289 83.9317 47.147 85.2422C47.6651 86.5527 38.5527 90.1489 39.7108 91.9775C40.8689 93.7756 65.4022 93.0441 80.0612 93.5622C94.7203 94.0803 107.764 93.1356 106.088 92.1298C104.412 91.1241 100.328 88.8994 103.406 86.8879C106.484 84.8765 123.459 84.5413 130.621 83.8403C133.547 83.566 135.619 83.0784 137.021 82.6212C136.899 85.6079 116.785 85.7603 110.781 86.7051C103.802 87.7717 103.436 88.7165 109.593 91.4289Z" fill="#99ADF9"/>
<path d="M126.172 80.4262C124.313 80.5786 124.465 82.4071 127.635 81.9805C130.774 81.5843 129.798 80.1215 126.172 80.4262Z" fill="#99ADF9"/>
<path d="M115.169 81.7985C113.31 81.9509 113.463 83.7794 116.632 83.3528C119.802 82.9871 118.796 81.4938 115.169 81.7985Z" fill="#99ADF9"/>
<path d="M35.1087 81.036C33.2497 81.1884 33.4021 83.0169 36.5716 82.5902C39.7411 82.2245 38.7354 80.7617 35.1087 81.036Z" fill="#99ADF9"/>
<path d="M45.0443 87.3442C43.1852 87.4966 43.3376 89.3253 46.5071 88.8986C49.6462 88.5024 48.6709 87.0394 45.0443 87.3442Z" fill="#99ADF9"/>
<path d="M143.33 89.9045C141.227 91.3369 137.996 91.6416 133.211 91.7026C129.768 91.7635 127.817 90.6664 128.061 89.5997C128.244 88.8074 129.676 88.0455 132.602 87.7407C138.057 87.1921 143.055 87.8626 143.726 88.9293C143.939 89.234 143.817 89.5693 143.33 89.9045Z" fill="#C7D4FF"/>
<path d="M40.1373 76.5558C37.6078 78.0186 33.6459 78.4148 27.7335 78.5977C23.4973 78.7196 21.0592 77.6834 21.3639 76.6167C21.5773 75.8243 23.3144 75.0015 26.9106 74.6663C33.5849 73.9958 39.7716 74.5444 40.6554 75.611C40.8992 75.8853 40.7468 76.1901 40.1373 76.5558Z" fill="#C7D4FF"/>
<path d="M137.082 31.4202C137.082 31.4202 141.227 30.9935 145.829 36.9669C149.486 41.6907 148.663 47.3288 148.663 47.3288C148.663 47.3288 151.467 41.5383 147.688 36.144C143.634 30.384 137.082 31.4202 137.082 31.4202Z" fill="#C7D4FF"/>
<path d="M134.888 50.041C134.888 50.041 135.985 52.601 134.949 56.2582C133.912 59.9153 131.962 61.4391 131.962 61.4391C131.962 61.4391 135.467 60.4944 136.32 56.4105C137.204 52.2963 134.888 50.041 134.888 50.041Z" fill="#C7D4FF"/>
<path d="M46.9028 52.8448C46.9028 52.8448 46.4762 50.4677 49.8285 45.9877C53.1809 41.5077 58.0571 39.801 58.0571 39.801L52.1447 27.5801C52.1447 27.5801 54.3695 36.1439 51.1085 38.7039C47.8171 41.2639 42.3924 37.9724 42.3924 37.9724C42.3924 37.9724 45.6228 43.641 44.5866 46.14C43.5809 48.6391 38.0952 49.0658 38.0952 49.0658L46.9028 52.8448Z" fill="#99ADF9"/>
<path d="M65.7677 101.181L62.1106 105.569C61.7449 106.027 61.0439 106.087 60.5868 105.691C60.1296 105.326 60.0687 104.625 60.4649 104.167C60.4953 104.137 60.5563 104.076 60.5868 104.046L64.9144 100.297C65.1582 100.084 65.5544 100.114 65.7677 100.358C65.981 100.632 65.9506 100.967 65.7677 101.181Z" fill="#99ADF9"/>
<path d="M70.8574 101.699L70.126 110.598C70.0955 111.085 69.6384 111.451 69.1508 111.421C68.6632 111.39 68.2975 110.933 68.3279 110.445V110.415L69.5165 101.546C69.5775 101.181 69.9127 100.937 70.2784 100.967C70.6441 101.028 70.8879 101.364 70.8574 101.699Z" fill="#99ADF9"/>
<path d="M76.0686 101.363L78.4763 107.672C78.6896 108.221 78.4153 108.861 77.8668 109.074C77.3182 109.287 76.6782 109.013 76.4648 108.464C76.4344 108.434 76.4344 108.373 76.4344 108.312L74.9105 101.729C74.8496 101.394 75.0324 101.089 75.3677 100.998C75.6725 100.937 75.9772 101.089 76.0686 101.363Z" fill="#99ADF9"/>
<path d="M80.9756 100.357L84.6022 102.796C85.0898 103.131 85.2422 103.801 84.907 104.289C84.5717 104.777 83.9013 104.929 83.4136 104.594C83.3527 104.563 83.2917 104.502 83.2613 104.472L80.1222 101.424C79.8479 101.15 79.8479 100.723 80.1222 100.479C80.3356 100.205 80.7013 100.175 80.9756 100.357Z" fill="#99ADF9"/>
<path d="M144.823 54.7344C143.025 60.342 135.162 63.2067 135.162 63.2067C135.162 63.2067 135.253 63.1153 135.406 62.9629C136.533 61.6829 141.196 55.7705 137.204 48.0905C132.693 39.3743 117.79 42.361 117.79 42.361L117.455 40.1972L117.089 37.9419C117.089 37.9419 125.196 30.7191 136.137 34.8334C146.56 38.7648 146.621 49.1572 144.823 54.7344Z" fill="#FEC272"/>
<path d="M139.032 59.6098C138.179 60.9507 136.838 62.0784 135.436 62.9622C136.563 61.6822 141.226 55.7698 137.234 48.0898C132.723 39.3736 117.821 42.3603 117.821 42.3603L117.485 40.1965C120.716 39.7393 129.249 39.0079 135.04 42.3603C141.927 46.3526 141.897 55.1298 139.032 59.6098Z" fill="#FCAA51"/>
<path d="M120.411 49.2205C120.259 54.0662 119.466 58.272 118.369 60.7101C116.023 66.0129 114.377 69.0301 110.933 71.712C109.653 72.7177 108.129 73.6624 106.209 74.6682C99.1693 78.3558 79.9998 78.5996 79.9998 78.5996C79.2379 78.6605 78.476 78.7215 77.7141 78.752C70.735 79.1177 64.1522 78.3558 60.0989 76.1615C58.2093 75.1558 56.8684 73.8148 56.2893 72.1691C54.3693 66.5615 53.6684 57.9977 66.4074 36.2986C74.6055 22.3405 84.8455 16.8243 94.5369 16.8853C99.6874 16.9157 104.655 18.531 109.105 21.2738C109.287 21.3957 109.501 21.5177 109.684 21.6396C118.278 27.1862 120.716 39.4986 120.411 49.2205Z" fill="#FEC272"/>
<path d="M94.5367 16.854C88.8072 19.1702 79.9995 24.9302 72.0148 39.254C61.8662 57.4483 60.2814 70.8883 60.0681 76.1302C58.1786 75.1245 56.8376 73.7835 56.2586 72.1378C54.3386 66.5302 53.6376 57.9664 66.3767 36.2673C74.6357 22.3093 84.8757 16.7931 94.5367 16.854Z" fill="#FFCB8D"/>
<path d="M120.411 49.2199C120.258 54.0656 119.466 58.2714 118.369 60.7094C115.138 67.9628 113.249 70.9494 106.209 74.6371C99.169 78.3247 79.9995 78.5685 79.9995 78.5685C79.2376 78.6294 78.4757 78.6904 77.7138 78.7209C77.5005 75.8256 78.2319 71.9247 79.9386 66.8352C85.1195 51.2923 93.348 45.5628 102.643 43.7647C110.658 42.2409 116.906 46.1418 120.411 49.2199Z" fill="#FCAA51"/>
<path d="M120.411 49.2201C120.259 54.0658 119.466 58.2715 118.369 60.7096C116.023 66.0124 114.377 69.0295 110.933 71.7115C113.066 65.7991 115.108 57.662 115.291 47.8486C115.504 34.8658 111.908 26.0582 109.104 21.2734C109.287 21.3953 109.501 21.5172 109.684 21.6392C118.278 27.1858 120.716 39.4982 120.411 49.2201Z" fill="#FCAA51"/>
<path d="M120.563 51.4735C120.076 57.1725 117.699 66.3154 115.474 72.3801C114.59 74.7877 113.737 76.7382 113.005 77.7439C111.786 79.4811 109.409 80.243 107.032 80.3954C104.533 80.5782 102.003 80.1516 100.845 79.5116C98.7121 78.3839 93.4092 68.662 94.5978 58.0563C94.6587 57.4163 94.7502 56.7763 94.8721 56.1363C97.0054 44.8296 102.308 41.6601 110.354 42.5439C111.939 42.7268 113.615 43.0011 115.169 43.5496C118.4 44.7077 120.99 46.902 120.563 51.4735Z" fill="#FEC272"/>
<path d="M115.474 72.3793C114.59 74.7869 113.737 76.7374 113.005 77.7431C110.506 81.3088 103.131 80.7297 100.845 79.5412C98.7121 78.4136 93.4092 68.6917 94.5978 58.0859C95.2683 62.9926 97.7064 69.8802 105.843 71.6478C109.775 72.5317 112.944 72.6536 115.474 72.3793Z" fill="#FCAA51"/>
<path d="M120.564 51.4726C120.076 57.1717 117.699 66.3145 115.474 72.3793C114.59 74.7869 113.737 76.7374 113.006 77.7431C111.787 79.4803 109.409 80.2422 107.032 80.3945C109.44 76.0669 114.987 64.2726 115.261 47.8155C115.291 46.3526 115.261 44.9203 115.2 43.5488C118.4 44.7069 120.99 46.9012 120.564 51.4726Z" fill="#FCAA51"/>
<path d="M112.792 81.7669C112.518 81.8279 112.091 81.8888 111.573 81.9193C111.177 81.9498 110.75 82.0107 110.263 82.0412C109.348 82.1022 108.312 82.1631 107.245 82.1936C106.819 82.1936 106.362 82.2241 105.935 82.2241C105.021 82.2545 104.137 82.2241 103.314 82.2241C103.192 82.2241 103.07 82.2241 102.979 82.2241C102.644 82.2241 102.308 82.1936 102.034 82.1936C101.912 82.1936 101.79 82.1631 101.699 82.1631C101.211 82.1326 100.845 82.0412 100.571 81.9803C98.7121 81.4012 97.5845 79.5726 99.0169 77.3479C100.449 75.1231 103.558 73.3555 107.672 73.3555C111.786 73.3555 115.23 75.7631 115.413 78.3536C115.596 80.9136 114.712 81.4012 112.792 81.7669Z" fill="#FEC272"/>
<path d="M107.276 78.1392V82.1927C106.849 82.1927 106.392 82.2232 105.965 82.2232V78.1392C105.965 77.7735 106.27 77.4688 106.605 77.4688C106.941 77.4688 107.276 77.7735 107.276 78.1392Z" fill="#FFA245"/>
<path d="M103.375 78.2009V82.2237C103.253 82.2237 103.131 82.2237 103.04 82.2237C102.704 82.2237 102.369 82.1933 102.095 82.1933V78.2314C102.095 77.8352 102.4 77.5 102.735 77.5C103.07 77.4695 103.375 77.8047 103.375 78.2009Z" fill="#FFA245"/>
<path d="M111.604 78.1392V81.9183C111.208 81.9488 110.781 82.0098 110.293 82.0403V78.1392C110.293 77.7735 110.598 77.4688 110.933 77.4688C111.269 77.4688 111.604 77.7735 111.604 78.1392Z" fill="#FFA245"/>
<path d="M61.5313 57.9648C59.0323 63.2068 60.8304 75.9458 59.0323 79.8772C57.2342 83.8087 52.358 85.8201 47.3599 85.7287C46.8114 85.7287 46.2933 85.6372 45.7752 85.5153C41.5695 84.4791 38.5828 79.8163 40.9295 74.3001C43.5504 68.1134 49.7676 65.0049 52.358 55.8315C54.7047 47.6029 57.9961 46.1401 61.3485 45.7744C62.4761 45.6525 63.1771 46.1401 63.5732 47.0239C64.579 49.2487 63.3599 54.1858 61.5313 57.9648Z" fill="#FF8D76"/>
<path d="M61.5314 57.9641C59.0324 63.206 60.8305 75.9451 59.0324 79.8765C57.2343 83.8079 52.3581 85.8193 47.36 85.7279C46.8115 85.7279 46.2934 85.6365 45.7753 85.5146C45.1048 83.9603 44.8305 81.6441 45.7143 78.2917C47.9391 69.8803 52.2362 68.2955 53.0286 62.3832C53.8514 56.4708 53.9429 52.8136 56.0762 49.6136C57.9962 46.7489 62.5676 46.9317 63.5733 47.0231C64.5791 49.2479 63.36 54.1851 61.5314 57.9641Z" fill="#FC7059"/>
<path d="M101.486 75.2448C101.15 76.281 100.602 77.1648 99.9008 77.9267C97.1579 80.9133 92.1598 81.8886 89.2341 81.401C85.5769 80.7914 81.9808 73.4467 82.3465 67.9914C82.7122 62.5362 78.7808 55.3743 77.8055 51.8086C77.0741 49.1572 77.196 47.1457 77.9884 45.9267C78.2627 45.5 78.6284 45.1648 79.055 44.921C80.0608 44.4029 83.7789 42.7876 87.6493 48.5781C91.4893 54.3991 91.215 57.5076 95.5122 61.8048C99.8093 66.1324 103.101 70.1552 101.486 75.2448Z" fill="#FF8D76"/>
<path d="M99.9311 77.9259C97.1882 80.9126 92.1901 81.8878 89.2644 81.4002C85.6072 80.7907 82.011 73.4459 82.3767 67.9907C82.7425 62.5355 78.811 55.3736 77.8358 51.8079C77.1044 49.1565 77.2263 47.145 78.0186 45.926C80.3348 45.5907 83.992 45.9565 85.6987 50.7412C88.3196 58.025 87.9539 61.7736 92.0072 65.3393C96.0606 68.905 99.413 72.7755 99.9311 77.865C99.9311 77.8955 99.9311 77.8955 99.9311 77.9259Z" fill="#FC7059"/>
<path d="M94.8415 80.2741C94.4453 83.6265 92.6777 85.8817 88.6244 87.3141C82.5596 89.4474 76.9215 86.6131 74.6967 86.2474C72.411 85.8512 68.9672 88.0455 65.4929 89.2646C62.0186 90.5141 55.4967 90.9712 52.0224 87.5274C50.1939 85.6989 49.0053 83.1084 48.7919 80.396C48.5786 78.0189 49.1272 75.5198 50.59 73.3255C53.6986 68.6932 55.3443 64.1522 55.832 55.2227C56.3196 46.2932 63.2681 42.697 69.9424 42.1179C72.0453 41.9351 77.8967 41.6303 82.3463 45.5618C86.8263 49.4932 86.4606 57.5389 87.9844 61.4703C89.5082 65.4017 93.6225 67.8094 94.5977 74.5141C94.9329 76.7389 95.0548 78.6284 94.8415 80.2741Z" fill="#FEC272"/>
<path d="M77.4395 75.0328C76.5557 77.4404 74.3919 79.1775 72.929 79.1775C71.4662 79.1775 68.6319 77.7756 67.2605 76.4956C65.7976 75.1242 65.7062 73.8137 66.0414 72.9299C66.0414 72.8994 66.0719 72.8385 66.1024 72.808C66.4986 71.9547 68.8757 71.1928 71.8624 70.7966C74.1481 70.4918 76.7386 70.4309 77.3481 70.827C77.5005 70.949 77.6529 71.1013 77.7748 71.3451C78.0795 72.0461 78.11 73.2652 77.4395 75.0328Z" fill="#FCAA51"/>
<path d="M94.8415 80.2734C94.4453 83.6258 92.6777 85.881 88.6243 87.3134C82.5596 89.4467 76.9215 86.6125 74.6967 86.2467C72.411 85.8506 68.9672 88.0448 65.4929 89.2639C62.0186 90.5134 55.4967 90.9705 52.0225 87.5267C50.1939 85.6982 49.0053 83.1077 48.792 80.3953C50.2244 82.742 53.211 86.7344 57.1425 87.4048C62.7501 88.3496 66.072 83.3515 73.8434 83.3515C83.8396 83.3515 84.571 87.161 90.8186 83.9001C92.5558 82.9553 93.8662 81.6449 94.8415 80.2734Z" fill="#FCAA51"/>
<path d="M77.2567 83.7485C77.1958 84.419 77.1044 85.1809 76.891 85.9428C76.312 88.0761 73.9348 89.3866 71.9844 88.0761C70.7348 87.2533 70.1253 85.3637 69.851 84.0837C69.6987 83.3218 69.6377 82.8037 69.6377 82.8037L73.3558 78.8418L77.3177 81.5847C77.2872 81.5847 77.3482 82.5294 77.2567 83.7485Z" fill="#FC7059"/>
<path d="M77.2567 83.7492C75.3367 83.932 73.5691 82.6825 73.5691 82.6825C73.5691 82.6825 72.8682 83.414 71.3748 83.9625C70.8872 84.1454 70.3387 84.1759 69.851 84.1149C69.6987 83.353 69.6377 82.8349 69.6377 82.8349L73.3558 78.873L77.3177 81.6159C77.2872 81.5854 77.3482 82.5302 77.2567 83.7492Z" fill="#F45145"/>
<path d="M61.5921 80.121C60.7083 81.1267 62.8111 83.4124 66.2245 83.8696C69.6683 84.3267 72.9292 82.4981 73.2949 81.0658C73.6607 79.6334 73.3254 77.3477 73.3254 77.3477H72.1673C72.1673 77.3477 72.533 80.6086 69.5768 81.9191C65.0054 83.9305 62.2016 79.3896 61.5921 80.121Z" fill="#1C3177"/>
<path d="M73.8737 76.709C73.8737 76.709 74.0871 79.787 76.9214 80.9146C79.7252 82.0422 81.0052 81.3108 82.0719 80.8232C83.23 80.2746 83.23 79.1165 84.0528 79.4518C84.4795 79.6346 84.3271 81.1584 82.8643 82.1336C81.1271 83.2917 79.4204 83.4441 77.0433 82.865C74.6661 82.286 73.3861 81.2194 73.0814 79.9089C72.7766 78.5985 72.5938 77.1052 72.5938 77.1052L73.8737 76.709Z" fill="#1C3177"/>
<path d="M77.4395 73.6617C76.5557 76.0693 74.3919 77.8065 72.929 77.8065C71.4662 77.8065 68.6319 76.4045 67.2605 75.1245C65.7976 73.7531 65.7062 72.4426 66.0414 71.5588C66.0414 71.5283 66.0719 71.4674 66.1024 71.4369C66.4986 70.5836 68.8757 69.8217 71.8624 69.4255C74.1481 69.1207 76.7386 69.0598 77.3481 69.456C77.5005 69.5779 77.6529 69.7302 77.7748 69.9741C78.0795 70.7055 78.11 71.8941 77.4395 73.6617Z" fill="#1C3177"/>
<path d="M77.4396 73.6602C76.5557 76.0678 74.3919 77.8049 72.9291 77.8049C71.4662 77.8049 68.6319 76.4031 67.2605 75.1231C65.7976 73.7517 65.7062 72.4412 66.0414 71.5574C66.1938 71.5574 66.3462 71.6184 66.4986 71.8012C67.23 72.5936 67.87 74.3002 70.5214 75.7936C73.2033 77.2869 74.4224 76.1897 75.611 74.6355C76.7996 73.0812 77.0129 70.3993 77.5919 70.0336C77.6529 70.0031 77.6834 69.9727 77.7443 69.9727C78.0796 70.7041 78.11 71.8926 77.4396 73.6602Z" fill="#0B2359"/>
<path d="M61.6837 69.6689C62.9124 69.6689 63.9085 68.1952 63.9085 66.3774C63.9085 64.5596 62.9124 63.0859 61.6837 63.0859C60.455 63.0859 59.459 64.5596 59.459 66.3774C59.459 68.1952 60.455 69.6689 61.6837 69.6689Z" fill="#1C3177"/>
<path d="M81.6282 68.0694C82.8503 67.9414 83.6874 66.3719 83.498 64.5639C83.3086 62.7559 82.1643 61.3941 80.9423 61.5221C79.7202 61.6501 78.883 63.2196 79.0725 65.0276C79.2619 66.8356 80.4061 68.1975 81.6282 68.0694Z" fill="#1C3177"/>
<path d="M60.1603 56.0146C58.9108 57.0813 58.2099 58.3003 57.8746 59.2146C57.5089 60.0984 57.9356 60.4336 59.0022 60.4641C60.0689 60.4946 61.867 59.1841 62.8422 57.6603C63.8175 56.106 62.0803 54.3384 60.1603 56.0146Z" fill="#FF8D76"/>
<path d="M81.4933 54.065C82.8952 54.9184 83.7485 56.046 84.2666 56.8689C84.7847 57.6917 84.3885 58.0879 83.3523 58.2708C82.2857 58.4536 80.3352 57.4479 79.1161 56.1069C77.8971 54.766 79.3295 52.7241 81.4933 54.065Z" fill="#FF8D76"/>
<path d="M3.93128 120.777C2.52937 120.747 1.61509 120.686 1.46271 120.686C0.670327 120.625 0.0912784 119.954 0.121755 119.162C0.182707 118.369 0.822707 117.76 1.64556 117.821C1.79795 117.821 12.4037 118.918 21.1503 115.322C24.3808 114.011 26.1789 112.823 26.5141 111.878C26.758 111.177 26.2094 110.141 25.2951 108.495C24.9903 107.947 24.6551 107.368 24.3199 106.728C23.5884 105.295 23.5275 103.71 24.137 102.187C26.118 97.3104 34.4989 94.0799 37.0284 93.2266C51.078 88.4114 61.6532 90.2704 62.0799 90.3619C62.8418 90.5142 63.3599 91.2457 63.238 92.038C63.0856 92.8304 62.3542 93.318 61.5618 93.1961C61.4704 93.1657 51.2303 91.398 37.9427 95.9695C32.1522 97.9504 27.7637 100.846 26.758 103.284C26.4532 104.046 26.4837 104.747 26.8494 105.448C27.1541 106.027 27.4589 106.606 27.7637 107.124C28.8608 109.044 29.8665 110.872 29.1961 112.853C28.5561 114.743 26.4532 116.267 22.217 118.004C15.0551 120.929 8.68557 120.899 3.93128 120.777Z" fill="#1C3177"/>
<path d="M59.1541 94.0494C59.6722 95.2685 60.9217 96.0304 62.9941 96.3961C66.1331 96.9447 68.1445 96.1523 68.1445 96.1523L68.0836 94.9942L67.6569 88.2285C67.6569 88.2285 64.975 87.8628 62.1712 88.7771C59.7027 89.5999 58.636 90.9409 58.8494 92.9828C58.9103 93.3485 59.0017 93.7142 59.1541 94.0494Z" fill="#F0F6FF"/>
<path d="M67.6129 88.1628C66.9914 88.2022 66.6015 90.0317 66.7422 92.249C66.8828 94.4664 67.5007 96.2319 68.1222 96.1925C68.7437 96.1531 69.1335 94.3236 68.9929 92.1063C68.8523 89.8889 68.2344 88.1234 67.6129 88.1628Z" fill="#C2D7EF"/>
<path d="M59.1543 94.0488C59.6724 95.2679 60.9219 96.0297 62.9943 96.3954C66.1334 96.944 68.1448 96.1516 68.1448 96.1516L68.0839 94.9936C66.8648 94.9326 65.3105 94.8412 63.8172 94.6888C61.6838 94.4145 60.0991 94.2012 59.1543 94.0488Z" fill="#C2D7EF"/>
<path d="M71.2226 91.0317L68.4493 91.306C68.0836 91.3365 67.7483 91.0622 67.7178 90.6965L67.6874 90.5137C67.6569 90.1479 67.9312 89.8127 68.2969 89.7822L71.0702 89.508C71.4969 89.4775 71.8626 89.7822 71.8931 90.1784C71.954 90.6356 71.6493 91.0013 71.2226 91.0317Z" fill="#87AACC"/>
<path d="M71.4971 94.4458L68.7237 94.7201C68.358 94.7506 68.0227 94.4763 67.9923 94.1106L67.9618 93.9277C67.9313 93.562 68.2056 93.2268 68.5713 93.1963L71.3447 92.922C71.7714 92.8915 72.1371 93.1963 72.1676 93.5925C72.2285 94.0496 71.9237 94.4153 71.4971 94.4458Z" fill="#87AACC"/>
<path d="M145.341 120.137C143.269 120.076 125.044 119.406 119.772 112.884C116.206 108.465 118.309 105.478 120.137 102.826C120.564 102.217 120.991 101.577 121.387 100.937C122.027 99.8398 122.057 98.6512 121.448 97.5236C120.808 96.335 118.431 93.5312 110.324 93.196C98.7128 92.6779 83.6575 93.3179 83.5052 93.3484C82.7128 93.3788 82.0423 92.7693 82.0118 91.9769C81.9814 91.1846 82.5909 90.5141 83.3833 90.4836C83.5356 90.4836 98.7432 89.8131 110.477 90.3312C119.68 90.7579 122.88 94.1712 123.977 96.1827C125.075 98.1941 125.014 100.449 123.886 102.4C123.459 103.162 122.972 103.832 122.515 104.472C120.717 107.063 119.802 108.373 122.027 111.116C125.897 115.901 140.374 117.211 145.616 117.303C146.408 117.333 147.017 117.973 147.017 118.766C146.987 119.558 146.347 120.167 145.555 120.167C145.463 120.137 145.402 120.137 145.341 120.137Z" fill="#1C3177"/>
<path d="M85.3637 92.891C84.937 94.1405 83.7789 95.0243 81.737 95.5424C78.6589 96.3348 76.5865 95.6948 76.5865 95.6948L76.556 94.5367L76.4341 87.7711C76.4341 87.7711 79.0855 87.1616 81.9198 87.8625C84.4494 88.472 85.6075 89.7216 85.577 91.7939C85.5465 92.1901 85.4856 92.5558 85.3637 92.891Z" fill="#F0F6FF"/>
<path d="M85.3638 92.8906C84.9372 94.1402 83.7791 95.024 81.7371 95.5421C78.659 96.3345 76.5866 95.6945 76.5866 95.6945L76.5562 94.5364C77.7752 94.384 79.299 94.1706 80.7924 93.8659C82.8952 93.4697 84.4191 93.1344 85.3638 92.8906Z" fill="#C2D7EF"/>
<path d="M76.597 95.7519C77.2196 95.7404 77.6912 93.9304 77.6502 91.709C77.6093 89.4877 77.0713 87.6963 76.4487 87.7077C75.826 87.7192 75.3545 89.5293 75.3954 91.7506C75.4364 93.9719 75.9744 95.7634 76.597 95.7519Z" fill="#C2D7EF"/>
<path d="M76.517 91.4557C76.6685 91.4529 76.7802 90.8504 76.7666 90.1099C76.7529 89.3695 76.6191 88.7714 76.4676 88.7742C76.3161 88.777 76.2044 89.3796 76.2181 90.12C76.2317 90.8605 76.3656 91.4585 76.517 91.4557Z" fill="#87AACC"/>
<path d="M76.5175 94.9302C76.6689 94.9274 76.7806 94.3249 76.767 93.5845C76.7533 92.844 76.6195 92.2461 76.4681 92.2489C76.3166 92.2516 76.2049 92.8541 76.2186 93.5946C76.2322 94.335 76.366 94.933 76.5175 94.9302Z" fill="#87AACC"/>
<path d="M57.1731 92.4946C57.1731 92.7384 57.1731 92.9822 57.1426 93.1955C56.9902 94.7498 56.2283 95.8774 54.5826 96.6393C54.1255 96.8527 53.5769 97.0355 52.9369 97.1574C51.8398 97.4317 50.4683 97.5841 48.8226 97.6755C48.4569 97.706 48.0607 97.706 47.634 97.706C47.3293 97.706 47.055 97.706 46.7502 97.706C45.714 97.706 44.7388 97.6755 43.8245 97.6146C43.215 97.5536 42.6055 97.4622 42.0874 97.3708C39.8321 96.8831 38.3693 95.8165 38.095 93.7136C38.2778 95.2679 34.9864 85.1498 47.5731 83.9613C53.3941 83.3822 57.1731 89.0203 57.1731 92.4946Z" fill="#FCAA51"/>
<path d="M57.1731 92.4956C57.1731 92.7394 57.1731 92.9832 57.1426 93.1965C55.9236 94.8422 53.0588 95.6346 47.5731 95.726C43.215 95.8175 39.7102 95.5127 38.095 93.6841C38.2778 95.2384 34.9864 85.1203 47.5731 83.9318C53.3941 83.3832 57.1731 89.0213 57.1731 92.4956Z" fill="#FEC272"/>
<path d="M43.8248 97.616C43.2153 97.5551 42.6058 97.4636 42.0877 97.3722C41.9962 96.5493 41.8134 94.5684 41.9658 92.9226C42.1791 90.7588 43.0019 90.6369 43.2457 91.0331C43.4895 91.4293 43.3372 93.7455 43.6115 95.8789C43.6724 96.4884 43.7638 97.0979 43.8248 97.616Z" fill="#FFA245"/>
<path d="M54.5828 96.6406C54.1256 96.8539 53.577 97.0368 52.937 97.1587C52.8761 96.5796 52.8151 95.8787 52.7237 95.1472C52.4799 93.0139 51.7789 90.7891 51.9008 90.3624C52.0227 89.9358 52.8761 89.8443 53.577 91.9167C54.278 93.8367 54.5523 96.3053 54.5828 96.6406Z" fill="#FFA245"/>
<path d="M48.8224 97.6775C48.4567 97.7079 48.0605 97.7079 47.6339 97.7079C47.3291 97.7079 47.0548 97.7079 46.7501 97.7079C46.7501 96.8851 46.7196 95.7879 46.6586 94.7822C46.5672 92.8013 46.5063 91.5213 47.1158 91.3994C47.7253 91.2775 48.3653 93.4718 48.6396 95.7879C48.731 96.5803 48.792 97.1898 48.8224 97.6775Z" fill="#FFA245"/>
<path d="M87.3142 90.9105C87.3142 91.1543 87.3447 91.3981 87.3752 91.6115C87.558 93.1657 88.3199 94.2934 89.9656 94.9943C90.4533 95.2076 91.0018 95.36 91.6113 95.5124C92.7085 95.7562 94.0799 95.9086 95.7256 95.9695C96.0913 95.9695 96.4875 96 96.9142 96C97.219 96 97.4932 96 97.798 96C98.8342 96 99.8094 95.9695 100.724 95.8476C101.333 95.7867 101.912 95.6953 102.461 95.5734C104.686 95.0553 106.148 93.9886 106.392 91.8553C106.788 88.2591 102.613 82.7124 96.7923 82.2248C90.9713 81.7372 87.2533 87.4058 87.3142 90.9105Z" fill="#FCAA51"/>
<path d="M87.3142 90.9105C87.3142 91.1543 87.3447 91.3981 87.3752 91.6115C88.6247 93.2572 91.4895 93.9886 96.9752 94.0191C101.333 94.0495 104.838 93.6838 106.423 91.8553C106.819 88.2591 102.644 82.7124 96.8228 82.2248C90.9714 81.7372 87.2533 87.4058 87.3142 90.9105Z" fill="#FEC272"/>
<path d="M100.724 95.8476C101.333 95.7866 101.912 95.6952 102.461 95.5733C102.552 94.7504 102.705 92.7695 102.522 91.1238C102.278 88.96 101.455 88.8381 101.211 89.2343C100.998 89.6305 101.181 91.9467 100.937 94.08C100.876 94.72 100.785 95.299 100.724 95.8476Z" fill="#FFA245"/>
<path d="M89.9658 94.9941C90.4534 95.2074 91.002 95.3598 91.6115 95.5122C91.642 94.9331 91.7029 94.2322 91.7944 93.5007C92.0077 91.3674 92.6782 89.1426 92.5258 88.7159C92.4039 88.2893 91.5506 88.1979 90.8496 90.2702C90.2401 92.1903 89.9963 94.6588 89.9658 94.9941Z" fill="#FFA245"/>
<path d="M95.7256 95.9391C96.0913 95.9391 96.4875 95.9696 96.9141 95.9696C97.2189 95.9696 97.4932 95.9696 97.7979 95.9696C97.7979 95.1467 97.7979 94.0496 97.8284 93.0439C97.8894 91.0629 97.9198 89.7829 97.3408 89.661C96.7313 89.5391 96.1218 91.7639 95.878 94.0801C95.7865 94.8725 95.7561 95.482 95.7256 95.9391Z" fill="#FFA245"/>
</g>
<defs>
<clipPath id="clip0_7735_130331">
<rect width="151.429" height="120" fill="white" transform="translate(0.285645)"/>
</clipPath>
</defs>
</svg>
