<svg width="260" height="240" viewBox="0 0 260 240" fill="none" xmlns="http://www.w3.org/2000/svg">
<g clip-path="url(#clip0_7735_130574)">
<path d="M51.1904 216.655C63.9497 216.655 75.8116 222.006 88.3083 223.753C100.455 225.434 112.47 222.661 124.419 220.783C130.438 219.844 136.522 219.101 142.628 219.407C148.931 219.734 154.775 221.438 160.509 223.971C165.696 226.286 170.773 228.972 176.266 230.522C181.497 232.007 186.881 232.073 192.221 231.134C204.783 228.928 216.339 222.093 229.317 222.158C229.733 222.158 229.733 221.503 229.317 221.503C217.958 221.438 207.606 226.613 196.839 229.431C191.236 230.894 185.392 231.68 179.658 230.632C173.859 229.583 168.519 226.919 163.222 224.473C157.97 222.049 152.652 219.931 146.874 219.145C140.921 218.337 134.903 218.686 128.972 219.472C116.935 221.023 104.963 224.299 92.751 223.556C78.6348 222.683 65.4816 216.022 51.2342 216.022C50.7746 216 50.7746 216.655 51.1904 216.655Z" fill="#161616"/>
<path d="M33.5942 219.276C36.1985 218.293 38.8686 217.594 41.6261 217.179C42.042 217.114 41.8669 216.48 41.4511 216.546C38.6935 216.939 36.0235 217.638 33.4191 218.642C33.0251 218.795 33.2002 219.428 33.5942 219.276Z" fill="#161616"/>
<path d="M28.9107 224.954C43.574 218.512 59.3973 225.784 73.7323 229.474C77.9343 230.566 82.2239 231.374 86.5791 231.614C86.9949 231.636 86.9949 230.981 86.5791 230.959C70.7777 230.108 56.4208 221.307 40.4225 221.831C36.3518 221.962 32.3249 222.77 28.6043 224.408C28.2104 224.561 28.5387 225.129 28.9107 224.954Z" fill="#161616"/>
<path d="M96.7995 236.965C100.17 236.463 103.365 235.349 106.582 234.257C109.778 233.187 112.995 232.27 116.278 231.593C123.062 230.217 130.022 229.758 136.916 230.239C140.921 230.523 144.904 231.134 148.8 232.029C149.215 232.117 149.39 231.484 148.975 231.396C135.449 228.273 121.136 228.841 107.917 233.121C104.175 234.323 100.52 235.742 96.6026 236.332C96.2086 236.397 96.3837 237.03 96.7995 236.965Z" fill="#161616"/>
<path d="M175.215 237.861C179.767 240.197 184.976 240.241 189.944 239.564C195.7 238.8 201.347 237.271 206.927 235.611C218.023 232.314 229.075 228.296 240.74 227.597C247.153 227.204 253.609 227.881 259.628 230.174C260.022 230.327 260.197 229.693 259.803 229.54C237.764 221.111 215.441 234.017 194.037 238.21C187.974 239.389 181.256 240.197 175.565 237.271C175.171 237.096 174.843 237.664 175.215 237.861Z" fill="#161616"/>
<path d="M242.382 222.442C247.35 222.311 252.275 223.272 256.827 225.324C257.199 225.499 257.549 224.931 257.155 224.757C252.515 222.66 247.482 221.656 242.382 221.787C241.945 221.809 241.945 222.464 242.382 222.442Z" fill="#161616"/>
<path d="M87.6733 222.879C85.9662 221.088 84.6312 218.97 83.7777 216.633C83.4056 215.585 83.1211 214.515 82.946 213.423C82.8366 212.768 82.3989 210.933 83.909 211.348C84.4999 211.523 85.1783 212.44 85.5066 212.92C85.7474 213.27 86.3164 212.942 86.0756 212.593C84.9376 210.955 84.0841 209.143 83.5588 207.221C83.2962 206.26 83.1211 205.255 83.0117 204.251C82.9679 203.77 82.946 203.29 82.946 202.788C82.946 202.547 82.946 202.307 82.9679 202.067C82.9241 201.587 83.143 201.215 83.6682 200.953C83.8871 200.888 84.0841 200.844 84.3029 200.779C83.9527 199.883 83.6901 198.966 83.515 198.027C83.4275 197.503 83.3618 196.957 83.3181 196.411C83.3181 196.345 83.3618 194.336 83.712 194.708C83.9309 194.948 84.3686 194.708 84.2591 194.38C83.143 190.864 82.9241 187.13 83.712 183.505C83.8652 182.806 83.9965 181.779 84.4999 181.212C85.1564 180.469 86.0975 180.862 86.579 181.561C86.8854 181.998 87.0824 182.5 87.2575 183.002C87.8046 184.662 88.0016 186.453 88.3298 188.156C89.7524 195.603 91.1093 203.072 91.8972 210.627C92.3349 214.864 92.5975 219.122 92.5975 223.381C92.5975 223.796 93.2541 223.796 93.2541 223.381C93.2541 214.537 92.116 205.736 90.6278 197.022C89.8837 192.72 89.1396 188.375 88.2204 184.094C87.914 182.697 87.4107 180.688 85.9006 180.12C84.7844 179.705 83.9746 180.6 83.6026 181.561C82.0487 185.579 82.377 190.493 83.6463 194.533C83.8214 194.424 84.0184 194.314 84.1935 194.205C83.3837 193.375 82.7272 194.446 82.6615 195.21C82.5083 197.11 82.9898 199.141 83.6682 200.888C83.8214 201.281 84.4342 201.128 84.3029 200.713C84.1059 200.08 83.34 199.883 82.8147 200.32C81.9393 201.041 82.2676 203.072 82.3551 204.011C82.5958 207.199 83.712 210.234 85.5066 212.855C85.7036 212.746 85.8787 212.637 86.0756 212.527C85.5066 211.719 84.1716 210.038 82.9898 210.496C81.7861 210.955 82.2019 212.811 82.3551 213.728C82.9679 217.332 84.6969 220.651 87.2137 223.294C87.4982 223.643 87.9797 223.184 87.6733 222.879Z" fill="#E8E8E8"/>
<path d="M92.3569 206.871C92.3569 204.731 92.5539 202.613 92.9697 200.538C93.1448 199.73 94.1953 194.511 95.1364 194.664C95.2896 194.685 95.5084 194.62 95.5303 194.445C95.968 192.13 96.5808 189.859 97.3906 187.654C98.1785 185.557 99.0539 182.849 100.87 181.408C100.717 181.408 100.564 181.408 100.411 181.408C101.571 182.674 101.242 184.967 101.264 186.562C101.264 188.309 101.221 190.056 101.111 191.825C100.892 195.515 100.455 199.184 99.8636 202.809C98.7256 209.906 97.0185 216.917 95.2896 223.905C95.1801 224.32 95.8148 224.494 95.9242 224.079C97.8064 216.545 99.6229 209.011 100.761 201.324C101.308 197.677 101.68 194.03 101.833 190.361C101.921 188.396 101.943 186.431 101.877 184.465C101.833 183.199 101.768 181.932 100.87 180.971C100.739 180.84 100.542 180.862 100.411 180.971C98.6599 182.347 97.8283 184.749 97.0404 186.758C96.0775 189.204 95.3771 191.715 94.8956 194.292C95.0269 194.227 95.1583 194.139 95.2896 194.074C94.6111 193.965 94.261 194.358 93.9764 194.947C93.4074 196.17 93.0135 197.524 92.6852 198.835C91.9849 201.477 91.6785 204.207 91.6785 206.937C91.7004 207.286 92.3569 207.286 92.3569 206.871Z" fill="#E8E8E8"/>
<path d="M190.842 230.828C189.748 229.037 188.829 227.159 188.106 225.172C187.778 224.276 187.493 223.359 187.253 222.42C187.121 221.918 187.012 221.416 186.903 220.913C186.859 220.673 186.793 220.411 186.749 220.149C186.531 219.625 186.749 219.275 187.384 219.101C187.603 219.079 187.822 219.035 188.019 219.013C187.428 217.397 187.012 215.738 186.793 214.013C186.684 213.161 186.618 212.331 186.618 211.479C186.618 211.064 186.924 209.055 186.684 208.793C186.881 209.012 187.253 208.837 187.253 208.553C187.209 206.478 187.318 204.426 187.669 202.373C187.822 201.434 188.041 200.517 188.281 199.599C188.413 199.141 188.544 198.682 188.675 198.224C188.763 197.962 188.85 197.7 188.938 197.459C189.026 196.892 189.376 196.651 190.032 196.76C190.164 197.088 190.689 197.066 190.667 196.673C190.645 194.511 190.973 192.393 191.739 190.362C191.936 189.86 192.571 187.829 193.315 187.785C194.278 187.741 194.3 190.34 194.344 190.864C194.716 195.166 195 199.49 195.153 203.814C195.482 212.615 195.394 221.416 194.869 230.194C194.847 230.609 195.504 230.609 195.526 230.194C195.985 222.486 196.116 214.777 195.919 207.068C195.81 203.246 195.635 199.425 195.372 195.625C195.241 193.747 195.11 191.891 194.913 190.013C194.803 188.855 194.584 187.785 193.578 187.086C193.468 187.021 193.359 187.043 193.249 187.086C191.827 187.763 191.28 189.51 190.842 190.93C190.251 192.786 189.988 194.73 190.01 196.695C190.229 196.673 190.448 196.629 190.645 196.608C190.426 196.018 189.791 195.756 189.201 196.04C188.238 196.477 187.997 198.202 187.734 199.053C186.859 202.154 186.487 205.365 186.574 208.575C186.771 208.487 186.946 208.422 187.143 208.335C187.1 208.291 187.078 208.269 187.034 208.225C186.968 208.138 186.815 208.094 186.706 208.138C186.224 208.313 186.115 208.619 186.027 209.099C185.83 210.256 185.896 211.523 185.983 212.68C186.137 214.908 186.618 217.092 187.384 219.188C187.493 219.516 188.063 219.494 188.019 219.101C187.953 218.424 187.231 218.053 186.596 218.402C185.568 218.948 186.137 220.629 186.312 221.459C187.078 224.888 188.435 228.142 190.251 231.134C190.492 231.505 191.061 231.177 190.842 230.828Z" fill="#E8E8E8"/>
<path d="M196.116 214.45C196.094 213.27 196.204 212.113 196.445 210.956C196.554 210.431 196.707 209.907 196.882 209.405C196.948 209.23 197.648 207.221 198.064 207.833C198.239 208.095 198.655 208.007 198.677 207.658C198.743 206.697 198.874 205.758 199.137 204.841C199.246 204.448 200.209 201.718 200.647 201.98C200.866 202.133 201.128 201.936 201.15 201.696C201.281 199.774 201.719 197.896 202.507 196.149C202.879 195.298 203.339 194.468 203.864 193.703C204.28 193.07 204.914 192 205.571 191.585C207.278 190.493 206.972 193.157 206.95 193.944C206.906 194.926 206.84 195.909 206.775 196.914C206.621 199.032 206.403 201.128 206.118 203.225C204.98 211.764 202.967 220.149 200.975 228.513C200.887 228.928 201.5 229.103 201.61 228.688C203.492 220.848 205.374 212.986 206.534 204.994C207.081 201.194 207.475 197.372 207.628 193.529C207.672 192.612 207.803 191.127 206.797 190.624C205.746 190.1 204.871 191.389 204.302 192.066C202.047 194.817 200.734 198.18 200.493 201.74C200.669 201.652 200.822 201.543 200.997 201.456C199.115 200.255 198.086 206.719 198.042 207.702C198.239 207.636 198.458 207.592 198.655 207.527C197.911 206.435 196.97 207.505 196.62 208.313C195.81 210.257 195.46 212.375 195.482 214.471C195.46 214.865 196.116 214.865 196.116 214.45Z" fill="#E8E8E8"/>
<path d="M38.9782 216.414C38.1028 216.065 37.2711 215.563 36.724 214.776C36.4613 214.405 36.2863 213.99 36.1331 213.575C36.0893 213.488 35.6735 212.156 36.1987 212.418C36.5489 212.593 36.8334 212.2 36.5927 211.894C35.4108 210.387 34.5573 208.662 34.1415 206.784C34.032 206.281 33.7694 205.561 33.8788 205.059C34.0977 204.054 35.1044 203.923 35.761 204.556C36.4613 205.233 37.0741 206.063 37.6213 206.871C39.6566 209.819 40.9041 213.226 41.2762 216.786C41.3199 217.2 41.9765 217.2 41.9327 216.786C41.692 214.362 41.0573 212.025 40.0506 209.797C39.1095 207.745 37.7307 205.255 35.9361 203.836C35.3452 203.377 34.5135 203.071 33.8351 203.508C33.0472 203.988 33.2223 205.059 33.3098 205.823C33.6162 208.247 34.623 210.474 36.1331 212.396C36.2644 212.221 36.3957 212.047 36.527 211.872C36.1549 211.697 35.761 211.675 35.4546 212.025C34.995 212.527 35.2795 213.226 35.4984 213.772C36.1112 215.41 37.1617 216.436 38.7812 217.091C39.197 217.2 39.3721 216.567 38.9782 216.414Z" fill="#E8E8E8"/>
<path d="M39.7005 209.34C38.8032 205.933 37.9277 202.614 37.49 199.12C37.3806 198.29 37.2712 197.438 37.2055 196.609C37.1399 195.757 36.921 194.512 37.1399 193.682C37.1399 193.551 37.1618 193.398 37.1618 193.267C37.8402 192.525 38.3436 192.481 38.6719 193.18C38.8688 193.464 39.0439 193.792 39.1971 194.119C39.6129 194.84 39.985 195.582 40.3352 196.347C43.2678 202.483 44.6247 209.275 44.3402 216.066C44.3183 216.481 44.9749 216.481 44.9968 216.066C45.3469 208.183 43.5086 199.906 39.3941 193.136C38.8907 192.307 37.6651 191.171 36.8116 192.307C36.4395 192.787 36.4833 193.573 36.4833 194.141C36.4395 195.255 36.5271 196.39 36.6584 197.504C36.8772 199.469 37.0742 201.478 37.5119 203.422C37.9715 205.497 38.5624 207.528 39.1096 209.58C39.1752 209.908 39.8099 209.733 39.7005 209.34Z" fill="#E8E8E8"/>
<path d="M26.1314 158.15C40.5977 157.801 54.692 161.448 68.4142 165.663C82.1364 169.877 95.7492 174.769 109.975 177.106C117.109 178.285 124.354 178.744 131.576 178.198C139.52 177.608 147.333 175.992 155.037 174.027C162.894 172.017 170.663 169.681 178.52 167.606C186.399 165.51 194.322 163.61 202.31 161.972C218.439 158.653 234.832 156.425 251.333 156.032C253.325 155.988 255.338 155.966 257.33 155.966C257.746 155.966 257.746 155.311 257.33 155.311C241.157 155.268 225.027 157.058 209.116 159.985C193.074 162.955 177.404 167.257 161.69 171.581C153.899 173.743 146.042 175.73 138.032 176.866C130.394 177.936 122.69 178.067 115.03 177.171C100.63 175.512 86.8199 170.795 73.0758 166.449C59.5068 162.168 45.6533 158.085 31.362 157.539C29.6112 157.473 27.8603 157.473 26.1095 157.517C25.6937 157.517 25.6937 158.172 26.1314 158.15Z" fill="#E8E8E8"/>
<path d="M168.606 161.515C183.554 157.409 198.13 152.146 212.925 147.517C227.675 142.887 242.733 138.847 258.162 137.274C266.763 136.401 275.452 136.292 284.053 137.274C284.468 137.318 284.468 136.663 284.053 136.619C268.776 134.894 253.347 136.576 238.399 139.873C223.233 143.214 208.526 148.215 193.797 153.063C185.393 155.837 176.989 158.545 168.453 160.881C168.016 160.991 168.191 161.624 168.606 161.515Z" fill="#E8E8E8"/>
<path d="M120.48 196.193C126.082 197.481 131.86 196.892 137.463 195.865C143.328 194.795 149.084 193.267 154.84 191.651C166.439 188.419 177.973 185.121 190.032 184.204C196.838 183.702 203.689 183.833 210.473 184.553C210.889 184.597 210.889 183.942 210.473 183.898C198.699 182.632 186.793 183.221 175.194 185.667C163.66 188.091 152.498 192.022 140.987 194.49C134.355 195.909 127.396 197.11 120.677 195.56C120.239 195.472 120.064 196.106 120.48 196.193Z" fill="#E8E8E8"/>
<path d="M229.273 200.429C243.936 199.643 257.505 206.173 271.577 209.143C275.517 209.973 279.5 210.519 283.527 210.584C283.943 210.584 283.943 209.929 283.527 209.929C268.885 209.689 255.47 202.984 241.2 200.56C237.261 199.883 233.278 199.556 229.273 199.774C228.857 199.818 228.835 200.473 229.273 200.429Z" fill="#E8E8E8"/>
<path d="M15.692 133.037C30.8587 132.862 46.0035 135.613 60.1196 141.139C64.1684 142.733 68.1297 144.567 71.9816 146.598C72.3536 146.795 72.6819 146.227 72.3098 146.03C58.8503 138.911 44.0338 134.456 28.889 132.949C24.5119 132.512 20.091 132.316 15.692 132.381C15.2762 132.381 15.2762 133.037 15.692 133.037Z" fill="#E8E8E8"/>
<path d="M30.9681 107.421C42.9395 110.413 53.8604 116.288 65.1752 121.07C76.5995 125.896 88.5927 129.238 100.871 130.897C107.786 131.836 114.79 132.251 121.771 132.142C122.187 132.142 122.187 131.487 121.771 131.487C109.187 131.683 96.5809 130.155 84.4126 126.966C78.4379 125.394 72.5944 123.429 66.8823 121.07C61.2139 118.733 55.655 116.069 50.0523 113.601C43.9025 110.894 37.6651 108.404 31.1432 106.788C30.7493 106.679 30.5742 107.312 30.9681 107.421Z" fill="#E8E8E8"/>
<path d="M112.536 145.135C123.894 149.503 136.369 147.122 147.509 143.279C153.505 141.204 159.327 138.715 165.28 136.553C171.123 134.435 177.054 132.6 183.073 131.05C190.032 129.259 197.101 127.861 204.214 126.857C204.63 126.791 204.455 126.158 204.039 126.223C191.717 127.971 179.593 130.897 167.84 134.959C156.285 138.955 145.101 144.611 132.867 146.336C126.105 147.297 119.123 146.97 112.711 144.502C112.317 144.349 112.142 144.982 112.536 145.135Z" fill="#E8E8E8"/>
<path d="M71.0846 106.329C72.3175 106.329 73.3169 105.351 73.3169 104.145C73.3169 102.939 72.3175 101.961 71.0846 101.961C69.8517 101.961 68.8523 102.939 68.8523 104.145C68.8523 105.351 69.8517 106.329 71.0846 106.329Z" fill="#FF634E"/>
<path d="M156.416 135.134C157.359 135.134 158.123 134.391 158.123 133.474C158.123 132.558 157.359 131.814 156.416 131.814C155.473 131.814 154.709 132.558 154.709 133.474C154.709 134.391 155.473 135.134 156.416 135.134Z" fill="#FF634E"/>
<path d="M195.175 15.5693C195.804 15.5693 196.314 15.0706 196.314 14.4555C196.314 13.8404 195.804 13.3418 195.175 13.3418C194.547 13.3418 194.037 13.8404 194.037 14.4555C194.037 15.0706 194.547 15.5693 195.175 15.5693Z" fill="#FF634E"/>
<path d="M72.7256 166.864C73.6322 166.864 74.3671 166.15 74.3671 165.27C74.3671 164.39 73.6322 163.676 72.7256 163.676C71.8191 163.676 71.0842 164.39 71.0842 165.27C71.0842 166.15 71.8191 166.864 72.7256 166.864Z" fill="#FF634E"/>
<path d="M214.303 91.5225C214.521 91.5225 214.698 91.3465 214.698 91.1294C214.698 90.9123 214.521 90.7363 214.303 90.7363C214.086 90.7363 213.909 90.9123 213.909 91.1294C213.909 91.3465 214.086 91.5225 214.303 91.5225Z" fill="#FF634E"/>
<path d="M66.6635 102.965C67.8601 102.965 68.8301 102.017 68.8301 100.847C68.8301 99.6769 67.8601 98.7285 66.6635 98.7285C65.4669 98.7285 64.4968 99.6769 64.4968 100.847C64.4968 102.017 65.4669 102.965 66.6635 102.965Z" fill="#A5D4FF"/>
<path d="M75.1113 159.832C75.5223 159.832 75.8554 159.509 75.8554 159.111C75.8554 158.713 75.5223 158.391 75.1113 158.391C74.7003 158.391 74.3672 158.713 74.3672 159.111C74.3672 159.509 74.7003 159.832 75.1113 159.832Z" fill="#A5D4FF"/>
<path d="M35.192 41.7092C36.0865 41.7092 36.8116 41.0052 36.8116 40.1368C36.8116 39.2684 36.0865 38.5645 35.192 38.5645C34.2976 38.5645 33.5725 39.2684 33.5725 40.1368C33.5725 41.0052 34.2976 41.7092 35.192 41.7092Z" fill="#A5D4FF"/>
<path d="M200.603 77.4142C201.497 77.4142 202.222 76.7103 202.222 75.8419C202.222 74.9735 201.497 74.2695 200.603 74.2695C199.708 74.2695 198.983 74.9735 198.983 75.8419C198.983 76.7103 199.708 77.4142 200.603 77.4142Z" fill="#A5D4FF"/>
<path d="M207.147 71.5405C207.896 71.5405 208.504 70.9539 208.504 70.2302C208.504 69.5066 207.896 68.9199 207.147 68.9199C206.397 68.9199 205.79 69.5066 205.79 70.2302C205.79 70.9539 206.397 71.5405 207.147 71.5405Z" fill="#A5D4FF"/>
<path d="M59.4195 134.85C57.406 134.894 56.5525 137.689 57.209 139.349C57.5154 140.113 58.1939 140.31 58.9599 140.179C59.2006 140.135 59.507 139.982 59.7697 139.982C60.7983 140.048 60.7764 140.681 60.47 141.292C60.2511 141.729 60.0104 142.079 59.901 142.559C59.7697 143.17 59.8791 143.847 60.5138 144.109C60.8639 144.262 61.2798 144 61.5862 144.109C62.6804 144.459 61.805 145.835 61.7175 146.512C61.6299 147.254 61.8269 148.106 62.5491 148.455C63.1838 148.761 63.9498 148.564 64.2781 147.931C64.4751 147.56 63.906 147.232 63.7091 147.604C62.965 148.193 62.5272 147.975 62.3522 146.905C62.3522 146.599 62.3959 146.315 62.4835 146.031C62.5929 145.551 62.8118 145.114 62.8555 144.612C62.8774 144.262 62.8555 143.891 62.5929 143.629C62.0676 143.149 60.7983 143.847 60.5138 142.996C60.3387 142.472 61.1266 141.598 61.2798 141.118C61.5862 140.179 61.2141 139.24 60.0979 139.261C59.1788 139.283 58.0845 140.222 57.7562 138.584C57.5154 137.449 58.0626 135.505 59.4633 135.483C59.8353 135.483 59.8572 134.828 59.4195 134.85Z" fill="#A5D4FF"/>
<path d="M181.387 113.229C179.177 113.273 177.12 114.801 176.594 116.985C176.135 118.885 177.317 121.156 179.483 119.977C180.249 119.562 181.015 118.82 181.147 117.902C181.234 117.182 180.775 116.57 180.009 116.636C178.936 116.723 177.951 117.99 177.382 118.776C176.726 119.671 176.047 120.916 176.157 122.073C176.376 124.061 179.243 124.454 180.249 122.881C180.424 122.619 180.074 122.226 179.79 122.423C178.28 123.58 176.704 125.48 177.295 127.533C177.754 129.149 179.505 130.306 181.147 129.739C181.541 129.608 181.366 128.974 180.972 129.105C179.505 129.608 177.973 128.385 177.842 126.9C177.711 125.305 178.914 123.908 180.118 122.991C179.965 122.838 179.812 122.685 179.658 122.532C179.221 123.231 178.236 123.384 177.514 123.012C176.485 122.467 176.77 121.287 177.163 120.414C177.492 119.671 177.973 118.994 178.52 118.405C178.739 118.164 179.308 117.509 179.615 117.466C179.899 117.531 180.206 117.619 180.49 117.684C180.468 117.968 180.381 118.208 180.227 118.448C179.637 119.409 178.148 120.174 177.339 119.06C176.791 118.339 177.142 116.985 177.514 116.265C178.258 114.823 179.746 113.906 181.344 113.884C181.803 113.862 181.803 113.207 181.387 113.229Z" fill="#A5D4FF"/>
<path d="M9.49857 80.1459C10.1989 79.2942 11.4026 79.5781 11.7528 80.5608C11.9716 81.1504 11.9498 81.6527 12.4969 82.0676C13.4817 82.8101 14.7949 82.2423 15.8454 82.0239C18.5811 81.478 17.6838 84.2077 19.2376 85.2778C19.9161 85.7582 20.9447 85.6272 21.2949 84.841C21.47 84.4698 20.9009 84.1204 20.7259 84.5135C20.1568 85.7801 19.1063 84.1422 18.9312 83.64C18.8218 83.3342 18.7562 83.0285 18.6248 82.7446C18.4279 82.286 18.1652 81.8492 17.7275 81.5653C16.5019 80.801 15.145 81.74 13.8976 81.7619C12.5625 81.8056 12.6939 80.8884 12.2343 79.993C12.0373 79.5999 11.709 79.316 11.2932 79.1413C10.4834 78.8356 9.56423 79.0103 9.03898 79.6873C8.75447 80.0148 9.23595 80.4734 9.49857 80.1459Z" fill="#A5D4FF"/>
<path d="M11.8401 86.3255C13.2189 84.8405 15.2105 85.5393 16.0203 87.1553C16.5236 88.1599 16.8738 89.2518 17.9681 89.754C19.6314 90.5184 21.7981 89.6667 22.3671 87.9415C22.4984 87.5484 21.8637 87.3737 21.7324 87.7668C21.3166 89.0334 19.7846 89.6449 18.559 89.2736C17.0489 88.8368 16.9395 87.1116 16.1078 86.0197C14.9698 84.5129 12.6499 84.4911 11.3805 85.8669C11.096 86.1726 11.5556 86.6312 11.8401 86.3255Z" fill="#A5D4FF"/>
<path d="M167.162 182.216C167.972 181.277 169.066 181.299 170.051 181.954C170.379 182.173 170.708 182.391 171.123 182.238C171.649 182.042 171.736 181.343 172.108 180.994C172.874 180.273 174.144 180.273 174.932 180.928C175.26 181.19 175.719 180.731 175.391 180.469C174.209 179.487 172.261 179.574 171.32 180.884C171.233 181.015 171.123 181.365 171.014 181.43C170.511 181.758 170.314 181.256 169.985 181.125C169.635 180.994 169.307 180.841 168.935 180.819C168.059 180.753 167.25 181.103 166.681 181.758C166.44 182.064 166.899 182.522 167.162 182.216Z" fill="#FF634E"/>
<path d="M173.574 183.33C175.062 181.124 180.446 184.116 180.993 180.578C181.059 180.163 180.424 179.988 180.359 180.403C180.074 182.259 177.492 181.823 176.179 181.779C174.953 181.757 173.727 181.932 173.005 183.002C172.764 183.351 173.333 183.679 173.574 183.33Z" fill="#FF634E"/>
<path d="M57.5809 192.501C58.4344 191.038 59.5725 189.815 60.9732 188.876C61.3234 188.636 60.9951 188.068 60.6449 188.308C59.1567 189.334 57.9311 190.623 57.0119 192.173C56.793 192.523 57.362 192.85 57.5809 192.501Z" fill="#FF634E"/>
<path d="M60.6889 191.453C61.8489 190.667 63.0088 189.859 64.1687 189.073C64.5189 188.833 64.1906 188.265 63.8404 188.505C62.6805 189.291 61.5206 190.099 60.3606 190.886C60.0105 191.126 60.3388 191.694 60.6889 191.453Z" fill="#FF634E"/>
<path d="M59.9225 5.28468C59.7255 22.231 55.3484 39.0463 47.3164 53.9835C45.0622 58.1982 42.5016 62.2383 39.7003 66.1036C39.4595 66.453 40.0285 66.7806 40.2693 66.4312C50.2929 52.6077 56.9242 36.4039 59.441 19.5012C60.1413 14.7842 60.5134 10.0235 60.579 5.26284C60.6009 4.86976 59.9444 4.86976 59.9225 5.28468Z" fill="#E8E8E8"/>
<path d="M62.6585 6.00449C73.3386 12.5341 86.5575 14.5432 98.7477 11.8134C102.206 11.0491 105.554 9.86982 108.728 8.36299C109.1 8.18829 108.771 7.6205 108.399 7.7952C97.3033 13.08 84.1938 13.7351 72.5507 9.89165C69.2023 8.77792 65.9851 7.29293 62.9868 5.45854C62.6366 5.21832 62.3083 5.78611 62.6585 6.00449Z" fill="#E8E8E8"/>
<path d="M114.155 8.21132C118.817 15.5926 126.236 21.0521 134.596 23.5416C144.685 26.5553 155.562 24.568 165.498 21.9038C171.035 20.4188 176.441 18.3878 181.256 15.2868C181.606 15.0685 181.278 14.5007 180.928 14.7191C176.682 17.427 172.02 19.3269 167.205 20.7464C162.172 22.2095 156.963 23.3451 151.754 23.9784C146.742 24.5898 141.643 24.5898 136.719 23.4324C132.561 22.4497 128.578 20.7027 125.01 18.3442C120.896 15.6144 117.372 12.0548 114.724 7.88375C114.505 7.53435 113.936 7.86192 114.155 8.21132Z" fill="#E8E8E8"/>
<path d="M183.839 15.723C182.307 24.0652 181.125 32.8004 181.541 41.2954C181.869 48.2617 183.773 55.5338 189.463 60.0324C192.856 62.7185 196.992 64.2035 201.041 65.6448C201.435 65.7976 201.61 65.1643 201.216 65.0115C197.648 63.723 193.994 62.4346 190.864 60.2508C187.866 58.1762 185.655 55.2717 184.276 51.9087C181.584 45.3136 181.935 37.8231 182.482 30.8568C182.876 25.834 183.554 20.8331 184.451 15.8759C184.539 15.4828 183.904 15.3081 183.839 15.723Z" fill="#E8E8E8"/>
<path d="M41.3855 70.1654C57.7121 72.7204 72.7693 82.0453 82.3771 95.4756C85.069 99.2536 87.3232 103.337 89.0303 107.639C89.1835 108.032 89.8182 107.858 89.665 107.465C83.537 92.0471 70.734 79.7304 55.436 73.4193C50.9713 71.5849 46.3097 70.2746 41.5606 69.5321C41.1447 69.4666 40.9696 70.0999 41.3855 70.1654Z" fill="#E8E8E8"/>
<path d="M93.2542 108.185C100.98 102.202 111.222 100.717 120.699 102.114C130.81 103.599 139.98 108.447 148.253 114.256C153.242 117.75 157.948 121.616 162.653 125.481C162.981 125.743 163.441 125.285 163.113 125.022C154.621 118.034 145.998 110.959 135.997 106.22C127.067 101.983 117 99.865 107.151 101.547C101.943 102.442 96.9966 104.473 92.7946 107.705C92.4663 107.989 92.9259 108.447 93.2542 108.185Z" fill="#E8E8E8"/>
<path d="M162.369 121.441C166.134 105.216 176.398 90.8027 190.142 81.4342C194.081 78.7481 198.305 76.4769 202.726 74.6862C203.12 74.5334 202.945 73.9001 202.551 74.0529C186.881 80.4296 173.772 92.6808 166.44 107.902C164.383 112.182 162.807 116.659 161.735 121.267C161.647 121.682 162.282 121.856 162.369 121.441Z" fill="#E8E8E8"/>
<path d="M63.6431 82.6122C66.9259 84.0098 69.399 86.7832 71.7407 89.3819C74.17 92.068 76.4023 94.9288 78.4596 97.9206C82.4427 103.751 85.6161 110.084 87.8922 116.767C88.0235 117.16 88.6582 116.985 88.5269 116.592C86.1852 109.757 82.9023 103.249 78.8097 97.2873C76.7963 94.361 74.5858 91.5658 72.2003 88.9234C69.8148 86.3028 67.298 83.4638 63.9714 82.0662C63.5993 81.8697 63.2491 82.4375 63.6431 82.6122Z" fill="#161616"/>
<path d="M113.455 11.7053C117.066 17.5143 122.734 21.7727 129.256 23.7818C129.672 23.9128 129.825 23.2795 129.431 23.1485C123.062 21.2049 117.525 17.0338 114.024 11.3778C113.805 11.0065 113.236 11.3559 113.455 11.7053Z" fill="#161616"/>
<path d="M60.3165 0.632531C67.3198 5.37138 76.1834 6.90005 84.3905 4.93462C84.8063 4.82543 84.6313 4.21397 84.2154 4.30132C76.1616 6.2449 67.4949 4.69441 60.6447 0.0647421C60.2946 -0.153638 59.9663 0.414151 60.3165 0.632531Z" fill="#161616"/>
<path d="M37.118 61.823C40.6197 57.9576 43.6617 53.7211 46.1786 49.1569C46.3755 48.7856 45.8065 48.4581 45.6096 48.8293C43.1146 53.3498 40.1163 57.5427 36.6584 61.3644C36.3739 61.6701 36.8335 62.1287 37.118 61.823Z" fill="#161616"/>
<path d="M58.3686 36.228C58.0622 39.329 56.4208 42.2553 55.1514 45.0506C53.8383 47.9114 52.4814 50.7285 51.1026 53.5456C50.9056 53.9169 51.4747 54.2444 51.6716 53.8732C53.2036 50.8159 54.6699 47.7149 56.0925 44.592C57.3181 41.9059 58.7625 39.1762 59.047 36.2062C59.0689 35.8131 58.4124 35.8131 58.3686 36.228Z" fill="#161616"/>
<path d="M160.267 109.953C163.704 101.109 169.241 93.1814 176.332 86.8702C176.638 86.5863 176.178 86.1277 175.872 86.4116C168.693 92.8101 163.113 100.825 159.633 109.778C159.48 110.171 160.114 110.324 160.267 109.953Z" fill="#161616"/>
<path d="M57.2966 9.91303C56.9246 12.2497 56.5306 14.5864 56.1586 16.923C56.0929 17.338 56.7276 17.5127 56.7932 17.0977C57.1653 14.7611 57.5592 12.4244 57.9313 10.0877C57.997 9.67281 57.3623 9.49811 57.2966 9.91303Z" fill="#A5D4FF"/>
<path d="M113.279 2.46778C118.007 8.10199 123.872 12.688 130.481 15.92C130.853 16.0947 131.182 15.5488 130.81 15.3522C124.244 12.142 118.422 7.59971 113.739 2.00918C113.476 1.68161 113.017 2.1402 113.279 2.46778Z" fill="#A5D4FF"/>
<path d="M152.038 27.9079C157.554 28.17 163.047 27.0999 168.037 24.7414C168.409 24.5667 168.08 23.9989 167.708 24.1736C162.806 26.4666 157.444 27.5148 152.038 27.2528C151.601 27.2309 151.623 27.8861 152.038 27.9079Z" fill="#A5D4FF"/>
<path d="M171.583 17.9058C176.244 15.6346 180.446 12.5773 184.036 8.82114C184.32 8.51541 183.861 8.05681 183.576 8.36254C180.031 12.075 175.872 15.0887 171.254 17.338C170.882 17.5127 171.211 18.0805 171.583 17.9058Z" fill="#A5D4FF"/>
<path d="M94.5895 103.993C100.105 98.2058 108.509 95.5415 116.387 96.9392C116.803 97.0047 116.978 96.3714 116.563 96.3059C108.443 94.8645 99.8201 97.5506 94.1299 103.534C93.8235 103.818 94.2831 104.299 94.5895 103.993Z" fill="#A5D4FF"/>
<path d="M45.8066 67.4345C50.4463 68.3954 54.911 69.9459 59.1349 72.086C59.5069 72.2826 59.8352 71.7148 59.4632 71.5182C55.1955 69.3563 50.6652 67.7621 45.9817 66.8012C45.5659 66.7139 45.3908 67.3472 45.8066 67.4345Z" fill="#FF634E"/>
<path d="M63.0307 14.2155C63.2935 16.7705 63.3373 19.3474 63.184 21.9025C63.1621 22.3174 63.8193 22.3174 63.8412 21.9025C63.9945 19.3256 63.9288 16.7705 63.6878 14.2155C63.644 13.8006 62.9868 13.8006 63.0307 14.2155Z" fill="#FF634E"/>
<path d="M148.515 102.136C151.097 97.1137 155.278 93.1173 160.355 90.6496C160.727 90.4749 160.399 89.9071 160.027 90.0818C154.84 92.5932 150.572 96.6988 147.946 101.809C147.749 102.18 148.318 102.53 148.515 102.136Z" fill="#FF634E"/>
<path d="M134.815 55.0525C136.741 53.7203 138.973 53.1089 141.315 53.2399C141.731 53.2617 141.731 52.6066 141.315 52.5848C138.864 52.4537 136.5 53.1089 134.487 54.5065C134.136 54.7249 134.465 55.2927 134.815 55.0525Z" fill="#A5D4FF"/>
<path d="M140.133 49.1572C142.037 49.5503 143.876 50.0962 145.67 50.8169C146.064 50.9697 146.239 50.3364 145.845 50.1836C144.051 49.4629 142.212 48.917 140.308 48.5239C139.893 48.4365 139.717 49.0698 140.133 49.1572Z" fill="#A5D4FF"/>
<path d="M92.4227 32.3197C93.1012 29.2624 94.655 26.5326 96.8874 24.327C97.1938 24.0213 96.7342 23.5627 96.4278 23.8684C94.1079 26.1396 92.4884 28.9785 91.788 32.145C91.6786 32.5599 92.3133 32.7346 92.4227 32.3197Z" fill="#A5D4FF"/>
<path d="M97.2378 33.018C100.499 30.4848 104.176 28.5849 108.137 27.362C108.531 27.231 108.378 26.5977 107.962 26.7287C103.891 27.9735 100.127 29.9389 96.7782 32.5376C96.4499 32.8215 96.9095 33.2801 97.2378 33.018Z" fill="#A5D4FF"/>
<path d="M90.6499 76.2146C91.4596 78.3111 91.5472 80.4949 90.9344 82.6568C90.825 83.0718 91.4597 83.2465 91.5691 82.8316C92.2256 80.5604 92.1162 78.2456 91.2846 76.0399C91.1314 75.6468 90.4967 75.8216 90.6499 76.2146Z" fill="#FF634E"/>
<path d="M96.253 76.9345C97.4129 78.3321 98.8573 79.4677 100.477 80.2757C100.849 80.4723 101.177 79.9045 100.805 79.708C99.2075 78.9218 97.8287 77.8299 96.7126 76.4541C96.45 76.1483 95.9904 76.6069 96.253 76.9345Z" fill="#FF634E"/>
<path d="M167.622 72.6318C168.606 73.7237 169.044 75.1432 168.803 76.6063C168.738 77.0213 169.372 77.196 169.438 76.7811C169.723 75.0777 169.241 73.4398 168.081 72.1732C167.797 71.8457 167.337 72.3043 167.622 72.6318Z" fill="#FF634E"/>
<path d="M173.071 71.6279C173.881 72.5451 174.669 73.4405 175.479 74.3577C175.763 74.6853 176.223 74.2048 175.938 73.8991C175.128 72.9819 174.34 72.0865 173.531 71.1693C173.268 70.8418 172.808 71.3004 173.071 71.6279Z" fill="#FF634E"/>
<path d="M141.315 79.4461C142.825 76.8037 144.817 74.5107 147.246 72.6763C147.574 72.4142 147.246 71.8464 146.918 72.1085C144.401 74.0302 142.322 76.3669 140.746 79.1185C140.549 79.4897 141.118 79.8173 141.315 79.4461Z" fill="#FF634E"/>
<path d="M220.716 32.2313C222.48 32.2313 223.911 30.843 223.911 29.1303C223.911 27.4177 222.48 26.0293 220.716 26.0293C218.951 26.0293 217.521 27.4177 217.521 29.1303C217.521 30.843 218.951 32.2313 220.716 32.2313Z" fill="#A5D4FF"/>
<path d="M226.603 39.2424C228.09 39.2424 229.295 38.0789 229.295 36.6436C229.295 35.2084 228.09 34.0449 226.603 34.0449C225.116 34.0449 223.911 35.2084 223.911 36.6436C223.911 38.0789 225.116 39.2424 226.603 39.2424Z" fill="#FF634E"/>
<path d="M65.1326 53.9833C65.439 55.5775 65.811 57.259 66.2925 59.0061C67.8901 64.7058 70.1662 69.4665 72.4205 73.2663C73.077 73.4192 74.0181 73.6375 75.178 73.7686C76.7757 73.9651 79.3582 74.2927 82.269 73.4628C82.9693 73.2663 82.6629 73.2881 85.7487 72.0215C88.8346 70.7549 89.0097 70.7986 90.1915 70.2745C92.205 69.401 94.0215 68.1344 97.5888 65.6667C98.6175 64.946 100.04 63.9415 101.703 62.6967C101.813 61.9979 101.944 60.9715 101.922 59.7267C101.878 57.7613 101.463 56.3418 100.872 54.289C99.9306 51.0789 99.274 48.8951 98.8582 47.5193C98.0265 46.9951 97.1292 46.471 96.1006 45.9906C92.7083 44.3527 89.4912 43.6976 87.0181 43.4355C84.4794 43.6321 82.4659 44.0907 81.109 44.4619C75.1561 46.0998 71.0636 49.179 68.5248 51.1225C67.0147 52.2581 65.8548 53.2845 65.1326 53.9833Z" fill="white"/>
<path d="M157.62 45.9688C155.869 47.8468 154.009 50.0961 152.236 52.7385C151.36 54.0488 150.594 55.3154 149.916 56.5383C151.251 58.5256 152.586 60.5128 153.943 62.4783C156.941 63.6357 159.94 64.7931 162.938 65.9723C165.783 63.0024 168.65 60.0324 171.495 57.0406C170.751 54.6384 170.007 52.2581 169.285 49.8559C167.818 49.1134 166.133 48.3709 164.207 47.6939C161.756 46.8641 159.546 46.3182 157.62 45.9688Z" fill="white"/>
<path d="M64.913 54.1808C65.6571 61.2126 68.7648 67.6111 72.1352 73.7476C72.3322 74.1188 72.9012 73.7913 72.7042 73.42C69.3995 67.4146 66.2918 61.1034 65.5695 54.1808C65.5258 53.7658 64.8692 53.744 64.913 54.1808Z" fill="#161616"/>
<path d="M65.5262 54.3548C70.8882 48.5241 78.2418 44.7461 86.0987 43.7197C86.5145 43.6761 86.5145 43.0209 86.0987 43.0646C78.0667 44.1128 70.538 47.9126 65.0448 53.8744C64.7821 54.202 65.2417 54.6606 65.5262 54.3548Z" fill="#161616"/>
<path d="M86.1417 43.6332C89.709 48.9835 91.3723 55.2074 92.9699 61.3439C93.0794 61.7588 93.714 61.5841 93.6046 61.1692C91.9851 54.9672 90.2999 48.6996 86.7107 43.3056C86.47 42.9562 85.9009 43.2838 86.1417 43.6332Z" fill="#161616"/>
<path d="M72.9007 73.7262C76.9057 72.5251 80.7576 70.931 84.4343 68.9437C86.2508 67.961 88.0017 66.8691 89.7088 65.6898C91.2408 64.6416 92.8384 63.5497 93.67 61.8463C93.867 61.4751 93.298 61.1475 93.101 61.5188C92.2037 63.3313 90.3653 64.4669 88.7458 65.5588C87.1482 66.6289 85.4848 67.6334 83.7778 68.5506C80.2542 70.4287 76.5556 71.9355 72.7475 73.0929C72.3317 73.224 72.5067 73.8573 72.9007 73.7262Z" fill="#161616"/>
<path d="M86.4918 43.6772C90.8251 43.8519 94.9834 45.2932 98.485 47.8701C98.8352 48.1103 99.1635 47.5425 98.8133 47.3023C95.2241 44.6599 90.9564 43.1967 86.4918 43.022C86.076 43.0002 86.076 43.6553 86.4918 43.6772Z" fill="#161616"/>
<path d="M98.4416 47.5851C100.433 52.1492 101.484 57.041 101.506 62.0419C101.506 62.4568 102.162 62.4568 102.162 62.0419C102.118 56.9318 101.046 51.9309 98.9887 47.2575C98.8355 46.8644 98.2884 47.192 98.4416 47.5851Z" fill="#161616"/>
<path d="M93.2546 61.9118C95.9684 63.6589 99.1855 63.1784 102.14 62.3923C102.556 62.2831 102.381 61.6498 101.965 61.759C99.1855 62.5015 96.1653 62.9819 93.6047 61.344C93.2327 61.1257 92.9044 61.6934 93.2546 61.9118Z" fill="#161616"/>
<path d="M72.5508 73.8352C76.4464 74.7087 80.4952 74.4248 84.2158 72.9616C84.6097 72.8088 84.4346 72.1754 84.0407 72.3283C80.4296 73.7478 76.512 74.0754 72.7258 73.2018C72.31 73.1145 72.1349 73.7478 72.5508 73.8352Z" fill="#161616"/>
<path d="M84.3907 72.9165C90.8906 70.4707 96.931 66.9548 102.227 62.4561C102.556 62.1722 102.074 61.7136 101.768 61.9975C96.559 66.4088 90.628 69.8811 84.2375 72.2832C83.8216 72.4361 83.9967 73.0694 84.3907 72.9165Z" fill="#161616"/>
<path d="M157.116 45.9048C154.337 49.1805 151.798 52.6527 149.522 56.2778C149.303 56.6272 149.872 56.9548 150.091 56.6054C152.345 53.0239 154.862 49.5954 157.576 46.3634C157.86 46.0576 157.401 45.5772 157.116 45.9048Z" fill="#161616"/>
<path d="M157.423 46.472C161.362 47.1053 165.148 48.3501 168.672 50.1627C169.044 50.3592 169.372 49.7914 169 49.5949C165.411 47.7386 161.581 46.4939 157.576 45.8387C157.182 45.7732 157.007 46.4065 157.423 46.472Z" fill="#161616"/>
<path d="M149.544 56.9758C152.958 58.5263 156.329 60.1423 159.677 61.8457C160.049 62.0422 160.377 61.4744 160.005 61.2779C156.657 59.5963 153.286 57.9803 149.872 56.408C149.478 56.2333 149.15 56.8011 149.544 56.9758Z" fill="#161616"/>
<path d="M168.847 49.8558C165.914 53.7648 163.069 57.7393 160.312 61.7794C160.465 61.7357 160.618 61.692 160.771 61.6702C160.53 61.5392 160.29 61.3863 160.027 61.2553C159.655 61.0369 159.327 61.6047 159.699 61.8231C159.94 61.9541 160.18 62.1069 160.443 62.238C160.596 62.3253 160.793 62.2598 160.903 62.1288C163.638 58.0888 166.483 54.0924 169.438 50.2053C169.657 49.8558 169.088 49.5283 168.847 49.8558Z" fill="#161616"/>
<path d="M168.781 50.2272C169.766 52.5202 170.488 54.8787 170.97 57.3246C171.057 57.7395 171.692 57.5648 171.604 57.1499C171.123 54.6603 170.357 52.2363 169.35 49.8996C169.197 49.5284 168.628 49.856 168.781 50.2272Z" fill="#161616"/>
<path d="M160.531 62.2816C161.384 63.4172 162.129 64.5965 162.785 65.8631C162.982 66.2343 163.551 65.9068 163.354 65.5355C162.698 64.2689 161.953 63.0896 161.1 61.954C160.859 61.6265 160.29 61.954 160.531 62.2816Z" fill="#161616"/>
<path d="M163.354 65.8206C166.199 63.2 168.869 60.4484 171.407 57.5439C171.692 57.2164 171.211 56.7578 170.948 57.0853C168.409 59.9898 165.739 62.7632 162.894 65.362C162.588 65.6459 163.047 66.1045 163.354 65.8206Z" fill="#161616"/>
<path d="M149.609 57.1509C151.01 58.9635 152.411 60.7978 153.811 62.6104C154.074 62.938 154.643 62.6104 154.38 62.2828C152.98 60.4703 151.579 58.6359 150.178 56.8233C149.916 56.4958 149.347 56.8015 149.609 57.1509Z" fill="#161616"/>
<path d="M153.943 62.8503C156.876 63.964 159.808 65.0777 162.741 66.1915C163.135 66.3443 163.31 65.711 162.916 65.5582C159.983 64.4444 157.051 63.3307 154.118 62.217C153.724 62.0641 153.549 62.6974 153.943 62.8503Z" fill="#161616"/>
<path d="M71.8286 48.2837C74.6081 55.6213 77.4094 62.9589 80.1889 70.3183C82.268 70.9079 84.369 71.4757 86.4482 72.0653C88.002 71.3665 89.5559 70.6459 91.1098 69.947C89.3371 69.1827 87.5643 68.4184 85.7916 67.654C82.9465 60.2291 80.1014 52.7824 77.2562 45.3574C76.4684 45.7068 75.6367 46.0999 74.7832 46.5585C73.667 47.1045 72.704 47.7159 71.8286 48.2837Z" fill="#A5D4FF"/>
<path d="M91.8538 43.9609C93.6484 47.193 95.5962 51.7134 96.406 57.3258C96.6686 59.1602 96.778 60.9072 96.778 62.4796C93.2982 65.1438 89.0524 67.9609 83.9531 70.5815C81.108 72.0446 78.3504 73.2676 75.7898 74.2721C77.2124 74.2721 78.6349 74.2721 80.0575 74.2721C83.0996 73.0055 86.4699 71.4113 90.0373 69.3804C93.911 67.1748 97.2376 64.8818 100.017 62.7416C99.4918 60.1211 98.9228 57.435 98.31 54.7271C97.6315 51.7353 96.9312 48.8308 96.2309 45.97C95.8369 45.577 95.1804 45.031 94.2393 44.5942C93.2763 44.1575 92.4228 44.0046 91.8538 43.9609Z" fill="#A5D4FF"/>
<path d="M74.4768 46.6241C73.9953 46.231 74.63 43.8725 76.3808 43.13C77.7159 42.5622 79.4448 43.0208 80.6485 44.3311C79.97 44.5277 78.9414 44.8334 77.7158 45.3357C75.5273 46.231 74.8051 46.8862 74.4768 46.6241Z" fill="#A5D4FF"/>
<path d="M77.519 44.3315C78.5477 43.6763 80.0359 42.5408 81.3271 40.7282C83.5375 37.6054 83.7126 34.417 83.6907 33.0849C84.0628 32.9757 86.2732 32.2987 87.4988 33.3688C89.1621 34.8101 87.6301 38.2605 87.3018 38.9812C86.3389 41.1431 84.7631 42.3224 84.2597 42.6718C81.4584 44.6372 78.3945 44.4188 77.519 44.3315Z" fill="#A5D4FF"/>
<path d="M66.3134 38.5227C67.4076 38.348 68.0204 40.2916 70.2965 42.2133C72.3319 43.9167 74.608 44.681 76.3807 45.0741C75.6366 45.6419 74.2359 46.5809 72.2881 46.8211C69.4649 47.1705 65.613 46.1005 64.6938 43.4144C64.0154 41.3835 65.0878 38.6974 66.3134 38.5227Z" fill="#A5D4FF"/>
<path d="M161.647 46.7988C158.824 50.555 155.978 54.3111 153.155 58.0672C154.162 59.9016 155.169 61.736 156.197 63.5704C157.073 63.9198 157.948 64.2911 158.824 64.6405C158.189 63.1118 157.554 61.5613 156.898 60.0327C159.414 55.9053 161.953 51.7997 164.47 47.6723C163.529 47.3885 162.588 47.1046 161.647 46.7988Z" fill="#FF634E"/>
<path d="M170.226 52.8691C167.337 56.0793 164.426 59.2677 161.537 62.4779C158.167 61.4952 154.797 60.5124 151.426 59.5297C151.995 60.2504 152.564 60.971 153.133 61.6917C156.307 62.7399 159.458 63.7882 162.632 64.8364C165.367 61.7572 168.081 58.6999 170.817 55.6207C170.642 54.7035 170.445 53.7863 170.226 52.8691Z" fill="#FF634E"/>
<path d="M164.47 47.5863C164.579 47.1277 166.199 46.6691 167.293 47.4989C167.994 48.023 168.409 49.0494 168.103 49.3551C167.534 49.9229 164.317 48.2851 164.47 47.5863Z" fill="#FF634E"/>
<path d="M162.763 40.5311C163.245 40.269 164.208 41.0989 164.47 41.3173C164.733 41.5356 165.652 42.3655 166.287 44.7458C166.615 45.9469 167.097 47.7376 166.593 47.9779C166.024 48.2618 164.295 46.471 163.354 44.5493C162.632 43.0206 162.129 40.8805 162.763 40.5311Z" fill="#FF634E"/>
<path d="M175.456 48.2848C175.5 47.7607 174.318 47.3458 173.99 47.2366C173.684 47.1274 172.524 46.7561 170.051 47.3021C168.803 47.586 166.965 48.0009 166.943 48.525C166.921 49.1365 169.328 49.7261 171.495 49.6169C173.224 49.5296 175.391 48.9618 175.456 48.2848Z" fill="#FF634E"/>
<path opacity="0.09" d="M72.7258 73.6384C74.0171 73.1798 75.9211 72.5029 78.1972 71.542C82.071 69.926 84.8067 68.7904 87.8488 66.7376C89.3589 65.7112 91.3942 64.1389 93.5609 61.8459C94.6333 59.7058 95.9464 56.5174 96.4498 52.4555C96.7562 49.9878 96.7124 47.804 96.5373 46.0352C97.3252 46.4938 98.0912 46.9524 98.8791 47.3891C99.6669 49.4419 100.477 51.9533 101.046 54.8577C101.615 57.6748 101.856 60.2299 101.921 62.3919C99.5575 64.4446 97.4565 65.9733 95.8807 67.0434C88.2865 72.219 83.0558 73.4419 81.8959 73.704C80.1013 74.097 78.7225 74.1626 78.1097 74.1844C75.8117 74.2718 73.9514 73.9223 72.7258 73.6384Z" fill="#353535"/>
<path opacity="0.09" d="M149.982 56.627C151.383 58.6143 152.761 60.6016 154.162 62.567C157.073 63.7026 160.005 64.8163 162.916 65.9519C165.696 62.9382 168.475 59.9464 171.255 56.9328C170.576 54.6179 169.876 52.3031 169.197 49.9883C166.352 53.8318 163.507 57.6753 160.662 61.5188C157.095 59.9028 153.527 58.2649 149.982 56.627Z" fill="#353535"/>
<path d="M114.046 224.646C114.921 223.555 115.446 223.052 115.643 223.183C116.147 223.489 114.352 227.9 110.237 236.439C100.148 236.919 95.027 236.679 94.8956 235.696C94.7862 234.845 98.5287 233.425 106.123 231.46C107.786 227.944 109.45 224.428 111.113 220.912C112.098 222.157 113.061 223.402 114.046 224.646Z" fill="black"/>
<path d="M119.167 155.027C118.335 160.901 117.372 166.885 116.321 172.956C113.214 190.776 109.428 207.657 105.204 223.533C105.816 224.21 107.414 225.76 110.04 226.481C113.345 227.376 116.081 226.394 116.869 226.088C121.815 208.836 126.739 191.562 131.685 174.31C138.185 167.235 136.938 158.084 131.97 154.765C128.687 152.581 123.609 152.887 119.167 155.027Z" fill="#A5D4FF"/>
<path opacity="0.15" d="M119.43 155.399C120.064 155.464 119.67 165.269 119.167 174.092C118.029 194.118 114.286 211.697 109.844 226.35C109.362 226.219 108.793 226.023 108.224 225.739C106.823 225.04 105.882 224.123 105.335 223.468C106.67 218.707 108.596 211.544 110.588 202.765C116.825 175.271 118.532 155.333 119.43 155.399Z" fill="#353535"/>
<path opacity="0.13" d="M115.731 178.307C115.249 184.072 114.549 190.143 113.564 196.476C111.966 206.893 109.843 216.458 107.502 225.127C107.239 225.084 106.845 224.975 106.407 224.691C105.817 224.298 105.532 223.795 105.423 223.555C107.173 216.283 108.881 208.945 110.588 201.542C112.36 193.724 114.067 185.972 115.731 178.307Z" fill="#353535"/>
<path d="M155.956 223.992C154.993 222.9 154.402 222.398 154.183 222.529C153.636 222.835 155.606 227.246 160.114 235.785C171.21 236.265 176.813 236.025 176.966 235.042C177.097 234.191 172.983 232.771 164.623 230.806C162.784 227.29 160.968 223.774 159.129 220.258C158.079 221.503 157.028 222.747 155.956 223.992Z" fill="black"/>
<path d="M127.571 160.246C126.761 164.133 128.599 167.343 129.278 168.413C136.5 187.674 143.7 206.957 150.922 226.218C152.148 226.393 154.687 226.568 157.619 225.541C160.924 224.384 162.85 222.309 163.594 221.392C159.283 212.22 156.569 204.533 154.906 199.314C150.55 185.665 144.685 172.475 140.527 158.761C139.827 156.468 138.645 152.45 135.975 151.947C132.867 151.38 128.512 155.66 127.571 160.246Z" fill="#A5D4FF"/>
<path opacity="0.1" d="M134.355 152.079C132.845 153.171 135.646 159.002 136.981 161.906C140.199 168.916 141.862 176.538 144.948 183.613C148.274 191.235 153.155 203.573 160.049 224.275C160.53 224.035 161.143 223.708 161.756 223.205C162.566 222.55 163.113 221.873 163.463 221.349C161.734 217.615 159.239 211.959 156.613 204.905C155.672 202.394 155.562 201.935 154.534 198.79C153.439 195.449 151.732 190.383 151.382 189.356C149.741 184.639 149.741 185.273 146.655 176.909C145.998 175.14 145.101 172.694 144.029 169.506C143.503 167.955 143.109 166.71 142.825 165.815C142.781 165.684 141.337 161.207 139.301 155.901C138.776 154.503 138.207 153.127 136.784 152.407C136.697 152.341 135.099 151.533 134.355 152.079Z" fill="#353535"/>
<path opacity="0.12" d="M145.035 172.41C144.904 172.454 147.837 181.56 161.865 223.096C162.434 222.55 163.003 222.004 163.572 221.437C162.719 219.537 161.384 216.523 159.852 212.767C156.328 204.185 154.818 199.184 150.879 188.156C148.69 182.019 145.167 172.367 145.035 172.41Z" fill="#353535"/>
<path d="M151.229 91.085C150.726 91.1287 150.376 89.6437 149.828 89.6656C149.391 89.6874 149.084 90.6701 149.062 90.8011C148.8 91.6965 148.931 92.6137 149.828 95.0159C150.091 95.7147 150.441 96.6101 150.901 97.6364C150.66 99.3398 150.222 101.698 149.434 104.472C148.45 107.9 146.786 113.535 142.387 119.343C141.03 121.134 138.995 123.515 136.041 125.96C135.056 128.319 134.924 130.284 134.968 131.507C134.99 132.228 135.078 135.482 136.281 135.787C137.091 135.984 138.054 134.805 138.535 134.215C143.438 128.035 145.911 124.956 146.896 123.165C149.194 119.06 151.054 115.718 152.63 110.696C153.79 107.027 154.337 103.817 154.643 101.458C155.147 100.628 155.847 99.449 156.657 98.0077C158.867 94.0768 159.655 92.308 160.137 90.3425C160.64 88.3116 160.727 86.5645 160.224 86.368C159.852 86.237 159.392 86.914 158.977 86.7393C158.364 86.4772 159.02 84.6646 158.364 84.2716C158.123 84.1187 157.642 84.1405 156.657 84.7957C155.978 83.3762 155.541 83.1141 155.256 83.136C154.665 83.2233 154.381 84.8393 154.249 86.6737C154.074 85.7784 153.637 83.9003 153.089 83.9003C152.63 83.9003 152.148 85.2761 152.017 86.368C151.82 87.8748 152.258 88.9667 151.711 90.4954C151.601 90.7138 151.448 91.0413 151.229 91.085Z" fill="white"/>
<path d="M150.463 97.3534C150.397 100.236 149.478 103.009 148.603 105.739C147.749 108.316 146.786 110.871 145.604 113.317C143.416 117.859 140.461 122.009 136.587 125.262C136.259 125.524 136.741 126.005 137.047 125.721C141.074 122.358 144.094 118.012 146.326 113.295C147.486 110.849 148.449 108.316 149.281 105.739C150.156 103.031 151.054 100.258 151.097 97.3753C151.141 96.9385 150.485 96.9385 150.463 97.3534Z" fill="#161616"/>
<path d="M154.359 101.153C153.768 108.054 150.747 114.54 147.684 120.654C144.882 126.245 141.49 131.683 136.434 135.504C136.106 135.766 136.434 136.334 136.763 136.072C141.928 132.163 145.407 126.682 148.253 120.982C151.382 114.758 154.402 108.163 155.015 101.153C155.037 100.738 154.38 100.738 154.359 101.153Z" fill="#161616"/>
<path d="M151.01 97.0028C150.266 95.4086 149.566 93.5524 149.456 91.7835C149.434 91.5433 149.39 90.5169 149.566 90.3859C150.113 90.0146 150.266 90.6479 150.397 90.91C150.638 91.3686 150.813 91.6961 151.273 91.9582C151.645 92.1547 151.973 91.6088 151.601 91.3904C150.835 90.9536 150.901 89.7526 150.025 89.425C149.281 89.1411 149.018 89.7526 148.865 90.3859C148.34 92.6352 149.478 95.3212 150.397 97.3303C150.638 97.7234 151.185 97.374 151.01 97.0028Z" fill="#161616"/>
<path d="M151.755 91.7632C152.499 90.0598 152.324 88.3128 152.389 86.5002C152.411 86.0853 152.324 85.1244 152.564 84.7969C153.002 84.2509 153.33 85.4083 153.44 85.7796C153.746 86.9588 153.812 88.1381 153.724 89.3392C153.68 89.7541 154.337 89.7541 154.381 89.3392C154.446 88.5093 154.359 82.7223 152.499 83.6613C151.733 84.0544 151.776 85.6049 151.755 86.2819C151.689 88.0071 151.93 89.7759 151.207 91.4138C151.032 91.8069 151.601 92.1563 151.755 91.7632Z" fill="#161616"/>
<path d="M154.446 89.3822C154.577 88.596 154.687 87.8099 154.752 87.0018C154.818 86.1065 154.687 85.1019 154.971 84.2503C155.212 83.4641 155.343 83.3112 155.672 84.01C155.912 84.5123 156 85.0364 156.066 85.5605C156.175 86.5432 156.263 87.7007 155.956 88.6615C155.825 89.0765 156.46 89.2293 156.591 88.8362C156.941 87.6788 156.853 86.2594 156.656 85.0801C156.547 84.4468 156.197 82.7871 155.343 82.7871C154.599 82.7871 154.293 84.0319 154.227 84.556C154.008 86.0847 154.052 87.657 153.811 89.1856C153.746 89.6224 154.38 89.7971 154.446 89.3822Z" fill="#161616"/>
<path d="M156.832 88.8151C156.919 88.1382 156.919 87.4393 156.919 86.7624C156.941 86.1727 156.897 84.6004 157.642 84.6659C158.189 84.7096 158.145 85.1682 158.189 85.6486C158.211 85.9762 158.211 86.3256 158.211 86.6532C158.211 87.4612 158.167 88.2473 158.014 89.0553C157.926 89.4703 158.561 89.645 158.648 89.2301C158.867 88.16 159.611 83.7706 157.642 83.7269C155.825 83.6832 156.307 87.8324 156.175 88.837C156.131 89.2301 156.788 89.2301 156.832 88.8151Z" fill="#161616"/>
<path d="M159.174 86.8931C159.436 86.8712 159.677 86.8494 159.94 86.8275C159.984 87.0241 160.027 87.2206 160.049 87.439C160.093 87.8321 160.115 88.2033 160.115 88.5964C160.093 89.2952 159.984 90.0159 159.787 90.6929C159.436 92.025 158.846 93.2916 158.189 94.5145C156.985 96.7857 155.694 99.035 154.447 101.284C154.25 101.656 154.819 101.983 155.016 101.612C156.066 99.712 157.138 97.8121 158.189 95.9122C159.174 94.1433 160.159 92.287 160.574 90.278C160.793 89.1861 161.253 86.6747 160.115 85.9103C159.393 85.4081 158.452 86.0851 158.539 86.9149C158.561 87.308 159.218 87.308 159.174 86.8931Z" fill="#161616"/>
<path opacity="0.08" d="M158.058 84.4242C157.729 84.446 157.642 85.7999 157.423 87.416C157.073 90.2549 156.679 93.4433 155.322 96.1075C154.884 96.981 154.096 98.2695 152.674 99.6671C152.455 101.218 152.039 103.445 151.339 106.066C150.113 110.652 148.318 117.159 143.241 123.252C141.862 124.89 139.739 127.161 136.61 129.367C136.522 131.507 136.435 133.625 136.325 135.765C137.682 134.739 139.652 133.101 141.687 130.765C144.357 127.685 146.086 124.191 149.435 117.334C152.105 111.853 152.827 109.734 153.265 108.206C154.096 105.411 154.512 102.987 154.731 101.239C156.219 98.9028 157.313 96.8282 158.079 95.1903C159.414 92.3514 161.559 87.7654 160.246 86.6298C159.874 86.3241 159.327 86.3459 158.911 86.4114C158.714 85.4942 158.364 84.4023 158.058 84.4242Z" fill="#353535"/>
<path opacity="0.1" d="M157.226 97.2227C156.066 98.4456 154.906 99.6904 153.746 100.913C153.637 101.962 153.44 103.512 152.98 105.368C152.105 108.862 150.835 111.308 150.332 112.335C149.041 114.911 147.355 118.842 145.736 124.717C146.458 123.472 150.288 116.833 152.433 111.155C153.243 108.972 153.68 107.836 154.03 106.067C154.468 103.949 154.359 102.966 154.928 101.263C155.562 99.4065 156.525 98.0525 157.226 97.2227Z" fill="#353535"/>
<path d="M96.4288 86.3018C95.7285 86.4983 95.7066 88.3982 95.816 89.4683C95.9911 91.3682 96.7352 92.7876 97.0635 93.3991C98.4642 95.976 99.8211 98.4 101.2 100.737C101.375 102.309 101.681 104.449 102.294 106.939C103.367 111.306 104.745 114.276 106.649 118.36C109.67 124.802 111.464 128.493 115.294 132.424C116.739 133.887 118.052 134.979 118.949 135.677C119.277 135.306 121.291 132.991 120.897 129.694C120.59 127.008 118.883 125.37 118.402 124.933C117.351 124.06 115.754 122.64 114.112 120.631C110.654 116.351 109.21 112.071 107.109 105.65C106.54 103.903 105.774 101.435 105.008 98.4C105.424 97.0461 105.774 95.976 106.015 95.299C106.737 93.2244 107.196 92.1762 106.868 90.8441C106.781 90.4946 106.606 89.8395 106.168 89.7085C105.664 89.5774 104.899 90.1889 104.308 91.3027C103.979 89.5119 103.826 88.027 103.76 86.9132C103.673 85.2972 103.717 84.1179 103.367 84.0306C102.994 83.9432 102.425 85.2535 102.36 85.3846C101.813 86.6075 101.813 87.7649 101.9 88.4856C102.075 84.4237 101.616 83.3973 101.112 83.2663C100.696 83.1571 100.171 83.703 100.018 83.8777C98.9894 84.9696 99.5147 86.5638 99.5584 86.673C99.0988 84.249 98.6174 84.0961 98.4642 84.0961C98.0702 84.0743 97.6763 84.9478 97.5231 85.4501C97.348 86.0615 97.4574 86.6075 97.5231 86.8914C97.1729 86.5638 96.7571 86.2144 96.4288 86.3018Z" fill="white"/>
<path d="M104.81 97.396C104.876 100.191 105.686 102.899 106.517 105.563C107.349 108.206 108.29 110.805 109.45 113.316C111.616 118.011 114.549 122.357 118.467 125.742C118.795 126.026 119.255 125.545 118.926 125.283C115.14 122.007 112.295 117.858 110.172 113.338C109.012 110.892 108.071 108.337 107.261 105.76C106.386 103.03 105.51 100.257 105.445 97.3742C105.445 96.9811 104.788 96.9811 104.81 97.396Z" fill="#161616"/>
<path d="M101.046 101.217C101.615 108.118 104.503 114.603 107.48 120.784C110.237 126.527 113.63 132.118 118.707 136.092C119.035 136.354 119.495 135.896 119.167 135.633C114.199 131.768 110.916 126.352 108.18 120.784C105.182 114.625 102.249 108.118 101.68 101.239C101.658 100.802 101.002 100.802 101.046 101.217Z" fill="#161616"/>
<path d="M105.489 97.3967C106.408 95.3439 107.568 92.5705 106.933 90.2775C106.78 89.7097 106.495 89.2511 105.839 89.5132C104.985 89.8407 105.073 91.0418 104.307 91.4786C103.935 91.697 104.263 92.2647 104.635 92.0464C104.985 91.8498 105.182 91.5878 105.379 91.2384C105.467 91.0637 105.554 90.6706 105.707 90.5395C106.561 89.9062 106.408 91.282 106.408 91.6751C106.364 93.5095 105.642 95.4313 104.898 97.091C104.744 97.4404 105.313 97.7679 105.489 97.3967Z" fill="#161616"/>
<path d="M104.744 91.4779C104.066 89.9056 104.263 88.2022 104.219 86.5425C104.197 85.8437 104.285 84.1403 103.475 83.7254C101.658 82.7864 101.549 88.5953 101.615 89.4033C101.658 89.8182 102.315 89.8182 102.271 89.4033C102.184 88.2677 102.227 87.1322 102.49 86.0184C102.556 85.7345 102.796 84.4242 103.343 84.6645C103.584 84.7736 103.562 86.2805 103.562 86.5425C103.606 88.3551 103.453 90.1021 104.175 91.8055C104.35 92.1986 104.919 91.871 104.744 91.4779Z" fill="#161616"/>
<path d="M102.205 89.2504C101.965 87.7217 102.008 86.1712 101.79 84.6644C101.724 84.1184 101.439 82.8736 100.673 82.8518C99.8855 82.8299 99.5354 84.4023 99.4259 84.9701C99.1852 86.2149 99.0976 87.678 99.4478 88.901C99.5572 89.2941 100.192 89.1412 100.083 88.7263C99.8199 87.8527 99.8855 86.8482 99.9512 85.931C99.995 85.385 100.083 84.8172 100.279 84.2931C100.608 83.4633 100.739 83.2886 101.045 84.2931C101.286 85.1011 101.177 86.0402 101.242 86.87C101.308 87.7217 101.418 88.5734 101.571 89.4251C101.636 89.84 102.271 89.6653 102.205 89.2504Z" fill="#161616"/>
<path d="M99.9077 88.8569C99.7764 87.8742 100.258 83.6813 98.4633 83.7469C96.5373 83.8124 97.2814 88.2018 97.4784 89.25C97.566 89.6649 98.2006 89.4902 98.1131 89.0753C97.9599 88.2891 97.9161 87.4811 97.9161 86.6731C97.9161 86.0835 97.741 84.7514 98.4414 84.6859C99.1636 84.6204 99.1198 86.2145 99.1417 86.7823C99.1636 87.4811 99.1417 88.1581 99.2293 88.8351C99.2949 89.2718 99.9734 89.2937 99.9077 88.8569Z" fill="#161616"/>
<path d="M97.6538 86.9356C97.7414 86.1275 96.8441 85.4287 96.1219 85.931C95.0495 86.6735 95.4434 89.0538 95.6404 90.1021C95.9905 92.0457 96.866 93.8364 97.807 95.5834C98.8794 97.6144 99.9956 99.6235 101.068 101.633C101.265 102.004 101.834 101.676 101.637 101.305C100.39 98.9901 99.0983 96.6972 97.8946 94.3605C97.3037 93.2031 96.7565 92.002 96.4501 90.7135C96.2751 90.0366 96.1656 89.3377 96.1437 88.6171C96.1437 88.355 96.1438 88.093 96.1656 87.8091C96.1656 87.5252 96.2094 87.2413 96.2751 86.9792C96.297 86.6517 96.5596 86.6298 97.0192 86.9137C96.9535 87.3505 97.6101 87.3505 97.6538 86.9356Z" fill="#161616"/>
<path opacity="0.09" d="M98.639 84.2934C99.2518 84.5118 98.8141 87.1323 98.7047 88.115C98.4639 90.3644 98.9673 93.7711 102.535 98.6191C103.476 103.292 105.27 109.669 108.947 116.57C112.055 122.423 115.578 126.878 118.511 130.066C118.73 131.988 118.927 133.909 119.146 135.853C117.789 134.914 115.907 133.429 114.046 131.267C112.427 129.367 111.464 127.707 110.063 125.065C106.452 118.23 104.636 114.801 103.366 110.652C102.666 108.381 101.834 105.105 101.353 101.043C99.6238 98.8157 98.442 96.7629 97.6542 95.1906C96.1222 92.1551 95.7282 90.2333 95.772 88.5081C95.8158 86.5427 96.1659 86.2807 96.3191 86.2151C96.6474 86.0841 97.0851 86.3462 97.3696 86.5645C97.3478 86.4554 97.1289 85.4727 97.7855 84.752C97.8949 84.6646 98.3326 84.1842 98.639 84.2934Z" fill="#353535"/>
<path opacity="0.09" d="M96.8873 92.0885C97.1062 91.9793 98.4412 93.8574 99.4042 95.4297C101.658 99.1204 102.578 102.418 102.818 103.226C104.263 108.227 106.123 112.463 109.865 120.915C111.004 123.47 112.732 127.182 115.162 131.572C114.461 130.916 113.455 129.934 112.382 128.645C111.441 127.532 108.355 123.754 105.138 115.084C103.891 111.699 102.424 107.135 101.374 101.523C100.63 100.256 99.6011 98.4434 98.5069 96.1722C98.0254 95.1458 96.6466 92.2196 96.8873 92.0885Z" fill="#353535"/>
<path d="M127.964 123.036C127.198 122.97 125.841 122.861 124.069 123.036C122.011 123.254 120.173 123.429 118.794 124.63C117.765 125.525 117.459 126.639 116.89 128.845C116.562 130.133 116.124 131.88 116.168 134.239C116.255 138.606 117.919 139.174 118.794 144.459C119.232 147.014 119.188 149.001 119.166 151.382C119.122 154.548 118.794 157.234 118.444 159.309C119.385 160.051 120.829 161.056 122.799 161.842C124.003 162.322 127.417 163.611 131.794 162.846C136.39 162.06 139.213 159.483 140.154 158.544C138.622 154.417 138.469 151.098 138.601 148.848C138.776 146.119 139.345 145.529 140.154 139.654C140.767 135.287 140.745 133.474 140.702 132.492C140.548 128.561 140.461 126.574 139.148 125.241C137.856 123.931 134.552 123.625 127.964 123.036Z" fill="white"/>
<path d="M126.87 122.881C125.251 122.772 123.631 122.86 122.034 123.143C120.677 123.384 119.276 123.624 118.379 124.738C116.737 126.747 116.037 129.52 115.906 132.053C115.577 138.517 118.795 144.414 119.889 150.659C119.955 151.074 120.589 150.9 120.524 150.485C119.539 144.85 116.825 139.588 116.562 133.822C116.453 131.18 116.847 128.472 118.204 126.157C118.663 125.371 119.167 124.607 120.064 124.279C120.677 124.061 121.355 123.93 121.99 123.799C123.588 123.493 125.229 123.427 126.849 123.515C127.286 123.558 127.286 122.903 126.87 122.881Z" fill="#161616"/>
<path d="M118.379 144.37C119.014 149.174 118.948 154.022 118.16 158.805C118.094 159.22 118.729 159.394 118.795 158.979C119.606 154.131 119.693 149.24 119.036 144.37C118.97 143.955 118.313 143.955 118.379 144.37Z" fill="#161616"/>
<path d="M129.562 123.472C132.495 123.297 136.106 123.646 138.601 125.393C140.111 126.463 140.177 128.254 140.33 129.936C140.483 131.442 140.549 132.949 140.439 134.478C140.002 140.44 137.594 146.096 137.616 152.123C137.616 152.538 138.273 152.538 138.273 152.123C138.251 145.331 141.359 138.933 141.14 132.119C141.052 129.521 141.14 126.179 138.645 124.651C136.04 123.057 132.561 122.642 129.562 122.816C129.125 122.838 129.125 123.493 129.562 123.472Z" fill="#161616"/>
<path d="M138.295 145.571C138.251 149.851 138.776 154.088 139.827 158.237C139.936 158.652 140.571 158.477 140.461 158.062C139.433 153.979 138.907 149.786 138.951 145.571C138.951 145.156 138.295 145.156 138.295 145.571Z" fill="#161616"/>
<path d="M118.204 159.417C121.18 161.884 124.966 163.369 128.862 163.391C133.261 163.413 136.938 161.273 140.33 158.674C140.658 158.412 140.33 157.844 140.002 158.107C136.785 160.552 133.348 162.649 129.212 162.714C125.382 162.78 121.618 161.36 118.685 158.936C118.335 158.674 117.875 159.133 118.204 159.417Z" fill="#161616"/>
<path opacity="0.11" d="M134.771 123.318C135.449 124.956 136.325 127.424 136.762 130.503C137.616 136.683 136.171 141.422 134.443 146.903C133.151 150.987 130.985 156.621 127.177 162.933C128.38 163.042 129.868 163.042 131.532 162.736C135.865 161.95 138.754 159.591 140.045 158.39C139.892 157.298 139.629 155.595 139.257 153.542C138.666 150.332 138.469 150.092 138.404 148.934C138.316 147.515 138.557 147.69 139.848 141.684C140.352 139.326 140.724 137.186 140.943 134.39C140.964 134.15 140.964 133.91 140.986 133.67C141.096 130.066 141.14 127.861 139.608 125.983C138.141 124.192 136.018 123.559 134.771 123.318Z" fill="#353535"/>
<path opacity="0.08" d="M141.096 133.778C140.943 133.735 140.177 134.936 138.382 139.718C136.412 144.981 133.983 152.559 132.101 162.365C133.064 162.233 134.399 161.95 135.865 161.294C137.835 160.399 139.148 159.198 139.892 158.39C139.236 156.097 138.492 152.69 138.513 148.541C138.535 140.374 141.446 133.888 141.096 133.778Z" fill="#353535"/>
<path d="M120.064 107.135C119.211 108.882 119.451 110.651 119.648 111.481C119.561 111.481 118.532 111.437 117.985 112.179C117.328 113.053 117.941 114.145 118.051 114.32C118.204 114.582 118.401 114.953 118.817 115.062C119.473 115.259 120.086 114.691 120.13 114.647C120.458 115.477 121.005 116.525 121.859 117.595C123.172 119.255 124.638 120.238 125.623 120.784C125.667 121.832 125.711 122.858 125.732 123.906C125.973 124.125 126.477 124.518 127.221 124.649C128.687 124.933 129.825 123.972 129.956 123.841C129.935 122.531 129.913 121.22 129.891 119.91C130.46 119.473 131.116 118.862 131.751 118.054C133.02 116.394 133.48 114.713 133.655 113.708C133.896 113.795 134.29 113.883 134.793 113.883C135.275 113.883 135.887 113.861 136.172 113.468C136.478 113.031 136.15 112.398 135.822 111.721C135.493 111.088 135.253 111 135.165 110.978C134.793 110.869 134.443 111.088 134.334 111.153C134.421 110.454 134.465 109.144 133.918 107.681C133.764 107.266 132.889 105.038 130.766 103.859C127.286 101.981 121.815 103.575 120.064 107.135Z" fill="white"/>
<path d="M119.67 107.179C118.379 112.835 120.48 120.129 126.914 121.352C127.33 121.439 127.505 120.806 127.089 120.718C121.005 119.561 119.101 112.682 120.305 107.353C120.392 106.938 119.758 106.764 119.67 107.179Z" fill="#161616"/>
<path d="M127.002 121.33C127.899 121.592 129.125 120.74 129.847 120.26C130.81 119.627 131.664 118.819 132.342 117.88C134.027 115.63 134.662 112.791 134.399 110.04C134.355 109.625 133.699 109.625 133.743 110.04C133.983 112.42 133.546 114.844 132.254 116.875C131.707 117.727 131.029 118.491 130.241 119.146C129.606 119.67 128.052 120.937 127.177 120.697C126.761 120.588 126.586 121.221 127.002 121.33Z" fill="#161616"/>
<path d="M125.075 120.807C125.404 121.702 125.492 122.641 125.338 123.58C125.273 123.995 125.908 124.17 125.974 123.755C126.149 122.685 126.083 121.658 125.711 120.632C125.579 120.239 124.944 120.392 125.075 120.807Z" fill="#161616"/>
<path d="M129.606 120.063C129.497 121.177 129.584 122.269 129.869 123.361C129.979 123.776 130.614 123.601 130.504 123.186C130.241 122.16 130.176 121.111 130.263 120.063C130.307 119.648 129.65 119.648 129.606 120.063Z" fill="#161616"/>
<path d="M125.361 123.995C126.871 125.677 130.022 125.633 130.569 123.078C130.657 122.663 130.022 122.488 129.935 122.903C129.475 124.978 127.024 124.847 125.82 123.537C125.536 123.231 125.076 123.689 125.361 123.995Z" fill="#161616"/>
<path d="M125.491 121.244C126.761 122.401 128.752 122.139 129.562 120.589C129.759 120.217 129.19 119.89 128.993 120.261C128.38 121.418 126.914 121.68 125.951 120.785C125.645 120.501 125.185 120.96 125.491 121.244Z" fill="#161616"/>
<path d="M126.805 121.723C127.111 121.701 127.395 121.723 127.68 121.811C128.096 121.92 128.271 121.286 127.855 121.177C127.505 121.09 127.155 121.046 126.805 121.068C126.389 121.09 126.389 121.745 126.805 121.723Z" fill="#161616"/>
<path d="M119.735 114.714C118.838 115.435 118.05 114.43 117.963 113.578C117.853 112.748 118.576 111.722 119.495 112.29C119.845 112.508 120.173 111.94 119.823 111.722C118.466 110.87 117.153 112.312 117.306 113.666C117.481 115.107 118.904 116.221 120.195 115.172C120.523 114.91 120.064 114.452 119.735 114.714Z" fill="#161616"/>
<path d="M134.509 111.525C135.209 110.869 135.888 112.114 135.866 112.682C135.866 113.031 135.691 113.381 135.384 113.577C135.144 113.73 134.575 113.927 134.378 113.621C134.159 113.272 133.59 113.599 133.809 113.949C134.137 114.495 134.881 114.516 135.428 114.298C136.063 114.036 136.479 113.446 136.5 112.769C136.566 111.568 135.187 109.974 134.027 111.066C133.743 111.35 134.202 111.83 134.509 111.525Z" fill="#161616"/>
<path d="M125.71 107.114C125.885 108.643 125.798 110.084 125.645 111.613C125.557 112.639 126.104 113.076 126.914 113.731C127.242 113.993 127.702 113.534 127.374 113.272C126.805 112.792 126.301 112.464 126.323 111.591C126.323 111.176 126.433 110.717 126.476 110.302C126.564 109.232 126.52 108.162 126.389 107.114C126.323 106.699 125.667 106.699 125.71 107.114Z" fill="#161616"/>
<path d="M122.055 110.215C122.033 109.734 122.734 109.429 123.128 109.45C123.587 109.45 123.828 109.822 124.069 110.171C124.31 110.52 124.879 110.193 124.638 109.843C124.2 109.21 123.697 108.686 122.865 108.817C122.165 108.948 121.355 109.45 121.377 110.237C121.399 110.652 122.055 110.652 122.055 110.215Z" fill="#161616"/>
<path d="M129.563 109.625C130.153 108.511 131.751 108.686 132.036 109.931C132.123 110.346 132.758 110.171 132.67 109.756C132.276 107.965 129.847 107.682 128.994 109.276C128.818 109.647 129.366 109.996 129.563 109.625Z" fill="#161616"/>
<path d="M121.421 107.9C121.793 107.333 122.428 106.961 123.106 106.874C123.522 106.83 123.522 106.175 123.106 106.219C122.165 106.328 121.377 106.787 120.852 107.573C120.611 107.922 121.18 108.25 121.421 107.9Z" fill="#161616"/>
<path d="M129.562 106.677C130.35 106.633 131.072 106.873 131.641 107.397C131.948 107.681 132.429 107.223 132.101 106.939C131.401 106.305 130.503 105.978 129.54 106.021C129.125 106.043 129.125 106.698 129.562 106.677Z" fill="#161616"/>
<path d="M122.231 111.897C122.231 111.875 122.231 111.875 122.231 111.853C122.231 111.678 122.078 111.525 121.903 111.525C121.727 111.525 121.574 111.678 121.574 111.853C121.574 111.875 121.574 111.875 121.574 111.897C121.574 112.071 121.727 112.224 121.903 112.224C122.078 112.224 122.231 112.093 122.231 111.897Z" fill="#161616"/>
<path d="M123.238 111.743C123.259 111.743 123.281 111.743 123.281 111.743C123.457 111.743 123.61 111.59 123.61 111.415C123.61 111.241 123.457 111.088 123.281 111.088C123.259 111.088 123.238 111.088 123.238 111.088C123.062 111.088 122.909 111.241 122.909 111.415C122.931 111.59 123.062 111.743 123.238 111.743Z" fill="#161616"/>
<path d="M123.194 113.184C123.216 113.184 123.238 113.184 123.238 113.184C123.413 113.184 123.566 113.032 123.566 112.857C123.566 112.682 123.413 112.529 123.238 112.529C123.216 112.529 123.194 112.529 123.194 112.529C123.019 112.529 122.865 112.682 122.865 112.857C122.865 113.032 123.019 113.184 123.194 113.184Z" fill="#161616"/>
<path d="M130.285 111.263C130.307 111.263 130.329 111.263 130.329 111.263C130.504 111.263 130.658 111.11 130.658 110.935C130.658 110.76 130.504 110.607 130.329 110.607C130.307 110.607 130.285 110.607 130.285 110.607C130.11 110.607 129.957 110.76 129.957 110.935C129.978 111.11 130.11 111.263 130.285 111.263Z" fill="#161616"/>
<path d="M132.211 111.22C132.627 111.22 132.627 110.564 132.211 110.564C131.795 110.564 131.795 111.22 132.211 111.22Z" fill="#161616"/>
<path d="M131.489 112.268C131.905 112.268 131.905 111.613 131.489 111.613C131.051 111.613 131.051 112.268 131.489 112.268Z" fill="#161616"/>
<path d="M124.244 115.128C125.579 117.53 129.081 117.181 129.935 114.582C130.066 114.189 129.431 114.014 129.3 114.407C128.622 116.504 125.864 116.678 124.813 114.8C124.617 114.429 124.047 114.757 124.244 115.128Z" fill="#161616"/>
<path d="M116.431 109.778C115.621 110.979 114.461 113.054 114.001 115.827C113.673 117.815 113.104 121.287 115.293 124.039C115.883 124.781 118.05 127.205 121.027 126.812C123.018 126.55 125.141 125.065 125.535 122.99C125.732 122.029 125.513 121.2 125.316 120.719C124.375 120.261 122.69 119.3 121.377 117.422C120.72 116.504 120.326 115.609 120.107 114.91C119.998 114.998 119.648 115.26 119.166 115.238C118.597 115.216 118.247 114.823 118.16 114.714C117.481 113.949 117.547 112.377 118.444 111.853C118.904 111.591 119.429 111.678 119.713 111.744C119.582 110.936 119.451 109.21 120.37 107.398C120.983 106.175 121.924 105.28 124.09 103.926C125.885 102.812 126.673 102.899 126.957 102.943C127.92 103.118 128.511 103.882 128.818 104.275C130.197 106.022 131.991 108.271 134.136 111.045C134.223 111.001 134.814 110.717 135.405 110.979C135.821 111.176 136.018 111.547 136.149 111.831C136.259 112.071 136.434 112.421 136.346 112.836C136.259 113.36 135.843 113.84 135.274 114.015C134.574 114.233 134.005 113.862 133.917 113.796C133.742 114.626 133.392 115.871 132.56 117.203C131.707 118.557 130.722 119.453 130.043 119.977C129.956 120.501 129.846 121.462 130.262 122.554C130.919 124.344 132.626 125.48 134.202 125.829C137.156 126.463 139.542 124.257 140.154 123.667C142.255 121.702 143.525 118.404 142.452 115.238C141.643 112.879 139.848 111.591 139.148 111.132C138.294 109.167 137.419 107.638 136.718 106.546C134.749 103.467 133.392 101.392 130.919 100.628C129.409 100.169 128.03 100.344 127.111 100.563C125.622 100.235 124.463 100.366 123.675 100.563C120.042 101.458 117.284 105.083 116.431 109.778Z" fill="#FF634E"/>
<path opacity="0.08" d="M131.444 107.355C131.269 107.42 131.619 108.556 131.794 109.692C131.816 109.844 132.188 112.662 131.138 115.348C129.956 118.361 127.505 119.977 126.432 120.589C127.111 120.742 127.811 120.894 128.49 121.069C128.687 122.248 128.862 123.45 129.059 124.629C129.496 124.105 129.956 123.581 130.394 123.056C130.591 123.428 130.941 123.974 131.488 124.476C131.663 124.651 132.932 125.786 134.815 125.939C136.916 126.136 138.469 125 139.345 124.367C139.936 123.952 141.687 122.642 142.496 120.13C143.372 117.4 142.518 115.107 142.256 114.474C141.971 115.566 141.38 117.204 140.111 118.798C139.804 119.191 137.047 122.62 135.34 122.03C133.873 121.528 133.37 118.077 134.092 113.557C134.136 113.601 134.486 114.016 134.99 113.994C135.624 113.972 135.909 113.339 135.953 113.273C136.259 112.618 135.887 111.897 135.515 111.504C135.033 110.98 134.377 110.893 134.18 110.893C133.895 110.609 133.48 110.172 133.042 109.604C131.991 108.316 131.597 107.311 131.444 107.355Z" fill="#353535"/>
<path opacity="0.09" d="M126.148 112.203C126.323 111.919 127.286 111.854 127.571 112.443C127.79 112.902 127.505 113.513 127.199 113.579C126.717 113.71 125.907 112.574 126.148 112.203Z" fill="#353535"/>
<path opacity="0.09" d="M121.093 121.44C120.633 122.226 119.714 122.946 118.795 122.859C118.248 122.815 117.635 122.488 115.512 119.103C114.812 117.989 114.264 117.028 113.892 116.395C113.695 117.116 113.433 118.404 113.652 119.955C113.739 120.566 113.958 121.614 114.549 122.75C114.921 123.471 115.796 125.065 117.657 126.069C118.204 126.375 119.167 126.877 120.458 126.877C122.625 126.855 124.025 125.414 124.31 125.108C124.813 124.606 125.535 123.842 125.645 122.641C125.754 121.483 125.207 120.588 125.076 120.413C124.419 119.409 123.719 119.518 122.603 118.557C121.18 117.334 120.786 115.827 120.611 115.893C120.349 116.046 122.34 119.299 121.093 121.44Z" fill="#353535"/>
<path opacity="0.13" d="M134.005 112.245C133.874 112.201 133.48 113.577 132.342 115.433C130.722 118.076 128.731 119.801 127.286 120.849C128.293 120.565 130.087 119.91 131.576 118.294C133.939 115.761 134.202 112.311 134.005 112.245Z" fill="#353535"/>
</g>
<defs>
<clipPath id="clip0_7735_130574">
<rect width="260" height="240" fill="white"/>
</clipPath>
</defs>
</svg>
