<svg width="24" height="25" viewBox="0 0 24 25" fill="none" xmlns="http://www.w3.org/2000/svg">
<g clip-path="url(#clip0_7580_15920)">
<path d="M17.5243 2.46094H19.5681C20.3637 2.46094 21.1268 2.77701 21.6894 3.33962C22.252 3.90223 22.5681 4.66529 22.5681 5.46094V20.7234C22.5631 21.5158 22.2449 22.2741 21.6828 22.8326C21.1207 23.3912 20.3605 23.7047 19.5681 23.7047H3.68307C3.29174 23.7047 2.90425 23.6276 2.54276 23.4777C2.18127 23.3278 1.85287 23.1082 1.57633 22.8313C1.2998 22.5544 1.08055 22.2257 0.93114 21.864C0.781728 21.5023 0.705076 21.1148 0.705569 20.7234V5.44219C0.705076 5.05086 0.781728 4.66328 0.93114 4.3016C1.08055 3.93992 1.2998 3.61124 1.57633 3.33435C1.85287 3.05747 2.18127 2.83781 2.54276 2.68794C2.90425 2.53808 3.29174 2.46094 3.68307 2.46094H5.93307" fill="#F2F3F8"/>
<path d="M22.1254 5.62594H1.06913C1.00525 5.26761 1.02449 4.8994 1.12538 4.54969C1.26163 4.13701 1.50184 3.76636 1.82288 3.47344C2.32143 2.99385 2.95725 2.68184 3.64163 2.58094H5.47538L5.63288 2.54344C5.58132 2.70388 5.56871 2.8743 5.5961 3.04059C5.62349 3.20688 5.69009 3.36425 5.79038 3.49969C5.88051 3.61308 5.99434 3.70539 6.12389 3.77017C6.25344 3.83494 6.39559 3.87062 6.54038 3.87469C6.85126 3.84606 7.1384 3.69629 7.33977 3.45773C7.54115 3.21917 7.6406 2.91096 7.61663 2.59969H10.5079L10.6204 2.56969C10.5949 2.72042 10.6005 2.87476 10.6367 3.02328C10.6729 3.1718 10.739 3.31138 10.8309 3.43351C10.9229 3.55564 11.0388 3.65774 11.1715 3.73359C11.3042 3.80945 11.451 3.85745 11.6029 3.87469C11.8945 3.83361 12.1584 3.67983 12.3379 3.44635C12.5174 3.21287 12.5982 2.91832 12.5629 2.62594L12.5329 2.55094L15.5704 2.58094H15.7504C15.7166 3.33844 16.2341 3.87469 16.6504 3.87469C17.0666 3.87469 17.6254 3.27094 17.5241 2.46094L17.5654 2.58094H19.5604C20.2293 2.72542 20.8525 3.03189 21.3754 3.47344C21.7418 3.73588 22.0161 4.10727 22.1591 4.53469C22.2537 4.89404 22.242 5.27312 22.1254 5.62594Z" fill="#F7130D"/>
<path d="M6.64554 0.563477H6.52929C6.19585 0.563477 5.92554 0.833785 5.92554 1.16723V2.94098C5.92554 3.27442 6.19585 3.54473 6.52929 3.54473H6.64554C6.97898 3.54473 7.24929 3.27442 7.24929 2.94098V1.16723C7.24929 0.833785 6.97898 0.563477 6.64554 0.563477Z" fill="#F7F7F7"/>
<path d="M10.9617 2.46098V1.22723C10.9627 1.05149 11.0329 0.883237 11.1572 0.758972C11.2814 0.634708 11.4497 0.564461 11.6254 0.563477C11.8012 0.564461 11.9694 0.634708 12.0937 0.758972C12.2179 0.883237 12.2882 1.05149 12.2892 1.22723V2.88098C12.2882 3.05671 12.2179 3.22497 12.0937 3.34923C11.9694 3.4735 11.8012 3.54374 11.6254 3.54473C11.4497 3.54374 11.2814 3.4735 11.1572 3.34923C11.0329 3.22497 10.9627 3.05671 10.9617 2.88098V2.46098Z" fill="#F7F7F7"/>
<path d="M16.7215 0.563477H16.6052C16.2718 0.563477 16.0015 0.833785 16.0015 1.16723V2.94098C16.0015 3.27442 16.2718 3.54473 16.6052 3.54473H16.7215C17.0549 3.54473 17.3252 3.27442 17.3252 2.94098V1.16723C17.3252 0.833785 17.0549 0.563477 16.7215 0.563477Z" fill="#F7F7F7"/>
<path d="M0.705569 14.7497V5.44219C0.705076 5.05086 0.781728 4.66328 0.93114 4.3016C1.08055 3.93992 1.2998 3.61124 1.57633 3.33435C1.85287 3.05747 2.18127 2.83781 2.54276 2.68794C2.90425 2.53808 3.29174 2.46094 3.68307 2.46094H5.93307" stroke="black" stroke-width="0.75" stroke-linejoin="round"/>
<path d="M0.705566 16.25V15.125" stroke="black" stroke-width="0.75" stroke-linejoin="round"/>
<path d="M17.5243 2.46094H19.5681C20.3637 2.46094 21.1268 2.77701 21.6894 3.33962C22.252 3.90223 22.5681 4.66529 22.5681 5.46094V20.7234C22.5631 21.5158 22.2449 22.2741 21.6828 22.8326C21.1207 23.3912 20.3605 23.7047 19.5681 23.7047H3.68307C3.29174 23.7047 2.90425 23.6275 2.54276 23.4777C2.18127 23.3278 1.85287 23.1082 1.57633 22.8313C1.2998 22.5544 1.08055 22.2257 0.93114 21.864C0.781728 21.5024 0.705076 21.1148 0.705569 20.7234V16.9997" stroke="black" stroke-width="0.75" stroke-linejoin="round"/>
<path d="M12.4243 2.46094H16.0018" stroke="black" stroke-width="0.75" stroke-linejoin="round"/>
<path d="M7.34277 2.46094H10.849" stroke="black" stroke-width="0.75" stroke-linejoin="round"/>
<path d="M0.705566 5.85498H22.5493" stroke="black" stroke-width="0.75" stroke-linejoin="round"/>
<path d="M6.64554 0.563477H6.52929C6.19585 0.563477 5.92554 0.833785 5.92554 1.16723V2.94098C5.92554 3.27442 6.19585 3.54473 6.52929 3.54473H6.64554C6.97898 3.54473 7.24929 3.27442 7.24929 2.94098V1.16723C7.24929 0.833785 6.97898 0.563477 6.64554 0.563477Z" stroke="black" stroke-width="0.75" stroke-linejoin="round"/>
<path d="M10.9617 2.46098V1.22723C10.9627 1.05149 11.0329 0.883237 11.1572 0.758972C11.2814 0.634708 11.4497 0.564461 11.6254 0.563477V0.563477C11.8012 0.564461 11.9694 0.634708 12.0937 0.758972C12.2179 0.883237 12.2882 1.05149 12.2892 1.22723V2.88098C12.2882 3.05671 12.2179 3.22497 12.0937 3.34923C11.9694 3.4735 11.8012 3.54374 11.6254 3.54473V3.54473C11.4497 3.54374 11.2814 3.4735 11.1572 3.34923C11.0329 3.22497 10.9627 3.05671 10.9617 2.88098V2.46098Z" stroke="black" stroke-width="0.75" stroke-linejoin="round"/>
<path d="M16.7215 0.563477H16.6052C16.2718 0.563477 16.0015 0.833785 16.0015 1.16723V2.94098C16.0015 3.27442 16.2718 3.54473 16.6052 3.54473H16.7215C17.0549 3.54473 17.3252 3.27442 17.3252 2.94098V1.16723C17.3252 0.833785 17.0549 0.563477 16.7215 0.563477Z" stroke="black" stroke-width="0.75" stroke-linejoin="round"/>
<g style="mix-blend-mode:multiply">
<g style="mix-blend-mode:multiply" opacity="0.25">
<path d="M22.5493 20.705V5.4425C22.5444 4.68526 22.2533 3.95789 21.7345 3.40633C21.2156 2.85478 20.5073 2.51985 19.7518 2.46875C19.9325 4.80949 19.9212 7.1611 19.7181 9.5C19.5718 11.1613 19.3206 12.8488 18.5931 14.3375C17.8387 15.8026 16.6457 16.9956 15.1806 17.75C14.3331 18.185 12.9718 18.8375 8.18307 18.92C3.39432 19.0025 2.00682 18.4513 0.705569 18.905V20.705C0.705076 21.0963 0.781728 21.4839 0.93114 21.8456C1.08055 22.2073 1.2998 22.536 1.57633 22.8128C1.85287 23.0897 2.18127 23.3094 2.54276 23.4592C2.90425 23.6091 3.29174 23.6863 3.68307 23.6863H19.5681C20.3572 23.6813 21.1127 23.3657 21.6707 22.8076C22.2287 22.2496 22.5444 21.4942 22.5493 20.705Z" fill="black"/>
</g>
</g>
<circle cx="6.375" cy="12.125" r="1.125" fill="#2E2E2E"/>
<circle cx="11.625" cy="12.125" r="1.125" fill="#2E2E2E"/>
<circle cx="16.875" cy="12.125" r="1.125" fill="#2E2E2E"/>
<circle cx="6.375" cy="17.375" r="1.125" fill="#2E2E2E"/>
<circle cx="11.625" cy="17.375" r="1.125" fill="#2E2E2E"/>
</g>
<defs>
<clipPath id="clip0_7580_15920">
<rect width="24" height="24" fill="white" transform="translate(0 0.5)"/>
</clipPath>
</defs>
</svg>
