<svg width="544" height="523" viewBox="0 0 544 523" fill="none" xmlns="http://www.w3.org/2000/svg">
<path d="M208.313 523H543.977V0.013056H208.313V523Z" fill="#EFE8F6"/>
<path d="M367.688 413.581L407.527 390.585L335.914 349.63L296.361 371.914L367.688 413.581" fill="#D2C1E5"/>
<path d="M385.227 275.587L381.294 327.587L378.271 382.307C374.033 384.615 369.8 384.092 365.571 382.005C365.571 382.005 360.432 330.912 359.521 322.448C358.616 313.982 357.405 277.401 357.405 277.401" fill="#595AB2"/>
<path d="M360.999 262.842L353.675 312.626L351.588 365.773C347.35 368.081 343.116 367.559 338.888 365.471C338.888 365.471 332.814 315.951 331.903 307.486C330.998 299.022 329.249 256.795 329.249 256.795" fill="#595AB2"/>
<path d="M421.06 286.41C427.928 271.294 408.782 240.7 408.782 240.7C398.867 222.07 390.536 203.064 386.017 200.93C371.849 208.835 380.829 229.757 383.59 235.541L397.496 252.664L414.022 278.839" fill="#658CD0"/>
<path d="M359.643 190.47C359.643 190.47 347.626 185.415 344.705 187.914C340.472 191.542 332.533 205.493 330.194 230.844C327.849 256.195 328.983 262.89 328.983 262.89C331.1 271.96 367.993 284.355 386.438 274.68C386.438 274.68 393.597 217.301 386.578 202.48C385.198 199.574 371.67 194.477 371.67 194.477" fill="#658CD0"/>
<path d="M344.705 187.915C335.556 196.069 328.314 199.174 321.005 208.464L310.94 176.949C307.709 179.177 304.808 178.819 302.096 176.949C302.096 176.949 306.232 224.921 316.258 228.802C326.285 232.683 346.124 215.336 348.067 211.455C350.009 207.573 356.228 190.248 344.705 187.915" fill="#658CD0"/>
<path d="M377.056 212.797C374.043 213.536 370.774 213.515 367.359 212.617C352.218 208.637 339.939 188.925 339.939 168.588C339.939 148.252 352.218 134.992 367.359 138.972L330.097 120.538L329.041 209.477L374.445 234.285L377.056 212.797Z" fill="#584DAA"/>
<path d="M411.024 131.6L327.607 81.6111C322.148 79.2232 316.21 83.2052 312.722 86.3208L336.228 151.702C340.849 140.436 350.44 134.376 361.522 137.289C377.123 141.389 389.77 161.696 389.77 182.646C389.77 203.596 377.123 217.255 361.522 213.155C360.277 212.828 359.056 212.387 357.85 211.861L405.836 345.348C413.232 349.507 418.11 343.544 417.979 336.509L418.255 143.49C418.255 139.322 415.015 133.997 411.024 131.6" fill="#584DAA"/>
<path d="M133.882 346.042L239.347 285.37L239.424 279.081L191.211 251.925L83.0288 310.737V316.402L133.882 346.042Z" fill="#8E8DCF"/>
<path d="M189.607 405.898L149.768 382.901L221.381 341.946L260.934 364.231L189.607 405.898" fill="#D2C1E5"/>
<path d="M133.281 339.379L238.746 278.707L191.38 251.7L83.6973 310.523L133.281 339.379" fill="#BEB8E2"/>
<path d="M453.047 175.239V200.067L485.461 218.372L485.669 193.965L453.047 175.239Z" fill="#DF93CF"/>
<path d="M502.637 249.772L470.228 231.467L470.199 214.007L502.821 232.733L502.637 249.772" fill="#E9D0EB"/>
<path d="M100.393 164.307C93.3979 164.307 88.1958 158.63 88.1958 150.202C88.1958 140.357 95.297 130.487 104.059 128.157C105.318 127.822 106.549 127.661 107.726 127.661C114.715 127.661 119.917 133.338 119.917 141.766C119.917 151.612 112.816 161.482 104.059 163.812C102.795 164.147 101.57 164.307 100.393 164.307" fill="#FCE7F4"/>
<path d="M279.132 321.234L279.399 344.902L313.595 325.185L313.304 302.061L279.132 321.234Z" fill="#DF93CF"/>
<path d="M361.521 213.155C345.925 209.056 333.278 188.748 333.278 167.799C333.278 146.849 345.925 133.189 361.521 137.289C377.123 141.389 389.769 161.696 389.769 182.646C389.769 203.596 377.123 217.255 361.521 213.155ZM402.925 135.444L318.476 86.8714C314.485 84.5761 311.25 85.9499 311.25 89.9411V284.265C311.25 288.259 314.49 293.362 318.486 295.659L402.934 344.232C406.926 346.527 410.161 345.153 410.161 341.163V146.839C410.161 142.845 406.921 137.742 402.925 135.444" fill="#4548A1"/>
<path d="M327.035 217.57V240.872L393.306 278.461L393.16 255.503L327.035 217.57V217.57ZM326.362 249.254V272.555L392.632 310.144L392.492 287.187L326.362 249.254" fill="#C5B0DE"/>
<path d="M371.529 194.143C352.107 209.541 359.004 190.628 359.004 190.628C359.004 190.628 359.251 190.219 359.508 189.536C359.856 188.564 360.215 187.045 359.866 185.373C359.677 184.486 359.435 184.153 359.018 184.068C358.088 183.855 356.272 184.81 352.203 183.522C346.28 181.654 349.428 161.247 349.428 161.247C351.535 151.274 365.257 151.189 369.761 159.055C374.702 167.697 370.788 176.757 369.965 181.074C369.141 185.399 371.529 194.143 371.529 194.143" fill="#F9B5B0"/>
<path d="M349.233 163.475C349.233 163.475 354.421 164.761 356.043 163.138C356.043 163.138 360.708 168.007 363.551 169.428C363.551 169.428 364.161 175.109 364.767 175.514C365.377 175.921 365.605 170.544 367.61 170.848C370.705 171.318 368.521 183.819 369.94 185.036C371.359 186.254 380.886 166.905 374.73 161.54C374.73 161.54 372.735 148.797 362.897 152.39C351.888 156.407 347.562 151.713 346.957 154.756C346.347 157.8 349.233 163.475 349.233 163.475" fill="#385395"/>
<path d="M310.94 176.949C310.94 176.949 310.659 174.007 311.381 173.041C312.679 171.313 318.186 166.994 317 164.942C316.196 163.552 311.381 170.125 311.381 168.397C311.381 166.67 313.004 166.022 314.084 160.946C315.164 155.871 313.081 155.362 311.599 155.115C308.359 154.576 304.256 166.022 303.607 167.749C302.958 169.477 302.096 176.949 302.096 176.949C302.096 176.949 302.968 178.983 306.218 178.601C309.468 178.219 310.94 176.949 310.94 176.949ZM418.459 276.45C417.268 275.462 414.231 271.668 412.797 273.923C411.358 276.176 414.638 277.405 414.022 278.839C413.412 280.273 406.645 274.742 405.212 278.225C403.778 281.707 403.192 287.601 411.973 289.493C417.868 290.762 421.06 286.41 421.06 286.41C421.06 286.41 422.053 279.422 418.459 276.45" fill="#F9B5B0"/>
<path d="M365.571 382.005C365.571 382.005 347.504 394.583 351.767 398.019C356.024 401.454 363.309 401.454 375.684 391.834C380.901 387.776 378.271 382.307 378.271 382.307L365.571 382.005ZM339.013 365.019C339.013 365.019 320.947 377.597 325.204 381.033C329.467 384.469 336.751 384.469 349.122 374.848C354.343 370.79 351.713 365.321 351.713 365.321" fill="#5D3B9E"/>
<path d="M467.317 380.976C466.14 380.976 464.909 380.815 463.65 380.48C454.888 378.15 447.787 368.28 447.787 358.435C447.787 350.007 452.989 344.33 459.983 344.33C461.16 344.33 462.386 344.491 463.65 344.826C472.407 347.155 479.508 357.025 479.508 366.87C479.508 375.299 474.306 380.977 467.317 380.976Z" fill="#6B90D2"/>
<path d="M364.705 182.66C364.705 182.66 361.101 188.64 359.507 189.536C359.856 188.564 360.214 187.045 359.866 185.373C359.677 184.486 359.435 184.153 359.018 184.068C359.028 184.017 359.037 183.991 359.037 183.991L364.705 182.66Z" fill="#EDAAA8"/>
<path d="M230.376 375.135C222.442 378.523 209.291 368.251 205.615 365.171C204.99 364.651 204.651 363.866 204.685 363.056L204.966 356.947L205.082 354.269L219.855 351.53H219.865L219.855 351.547C219.821 351.658 219.555 352.452 219.443 353.577C219.23 355.719 219.574 359.072 223.062 361.281C228.85 364.933 239.762 371.135 230.376 375.135" fill="#4B3599"/>
<path d="M219.856 351.53V351.547C219.822 351.658 219.555 352.452 219.444 353.577C218.083 354.789 215.007 357.212 211.825 357.425C208.764 357.63 206.177 357.203 204.966 356.947L205.083 354.269L219.856 351.53" fill="#382E8C"/>
<path d="M207.321 387.386C199.387 390.766 186.231 380.486 182.555 377.411C181.935 376.89 181.596 376.111 181.635 375.302L181.877 369.881L182.027 366.519L196.621 363.814L196.81 363.78C196.81 363.78 194.529 370.068 200.007 373.523C205.795 377.183 216.717 383.385 207.321 387.386Z" fill="#4B3599"/>
<path d="M196.621 363.815L196.422 365.128C196.422 365.128 193.55 369.761 188.532 370.136C185.219 370.375 183.001 370.102 181.877 369.881L182.027 366.519L196.621 363.815Z" fill="#382E8C"/>
<path d="M221.434 350.839C216.494 356.247 209.471 357.843 204.259 353.893C204.259 353.893 203.184 345.14 201.886 335.372C200.878 327.788 199.735 319.581 198.839 314.403C198.35 311.588 197.943 309.66 197.672 309.208C196.262 306.853 188.028 304.03 169.443 294.62C150.848 285.21 156.268 268.045 156.268 268.045C166.149 270.869 192.261 266.868 192.261 266.868C192.261 266.868 218.465 284.468 222.142 293.212C224.181 298.057 221.434 350.839 221.434 350.839" fill="#61369C"/>
<path d="M201.886 335.372C200.879 327.789 199.736 319.581 198.84 314.403C198.84 309.822 198.752 306.444 198.549 305.318C198.157 303.16 192.906 298.237 186.924 293.22L189.007 291.31C189.007 291.31 197.924 295.251 200.835 300.02C203.567 304.507 202.075 332.165 201.886 335.372" fill="#563198"/>
<path d="M198.548 305.318C198.156 303.159 192.906 298.237 186.924 293.22C186.168 292.581 185.388 291.941 184.613 291.309C176.825 284.937 168.663 278.973 168.663 278.973C168.663 278.973 142.556 282.966 132.67 280.142C132.67 280.142 127.255 297.315 145.85 306.725C164.435 316.135 172.669 318.959 174.073 321.304C175.493 323.659 180.661 365.999 180.661 365.999C185.877 369.94 192.901 368.354 197.841 362.945C197.841 362.945 198.369 346.198 198.65 330.697C198.873 318.762 198.96 307.57 198.548 305.318" fill="#61369C"/>
<path d="M197.449 267.593C193.709 262.756 190.595 257.723 185.935 252.826L184.274 239.245L172.514 240.072C172.514 240.072 174.834 254.652 175.996 257.467C176.481 258.636 180.084 262.227 184.143 266.032C189.834 271.381 196.417 277.131 196.417 277.131L202.2 273.113C200.432 271.313 198.887 269.47 197.449 267.593" fill="#F9B5B0"/>
<path d="M176.626 186.695C176.626 186.695 184.904 178.416 182.143 172.084C179.382 165.753 166.556 169.811 161.524 168.675C156.487 167.538 144.474 162.343 143.012 169.162C141.549 175.98 145.123 180.364 136.676 185.883C128.234 191.403 131.808 196.274 130.835 202.93C129.856 209.586 120.116 208.774 119.142 217.54C118.169 226.307 126.446 229.067 126.446 229.067L156.811 207.475L176.626 186.695" fill="#385395"/>
<path d="M185.108 238.579C185.108 238.579 184.032 239.901 181.891 240.806C180.559 241.36 178.811 241.753 176.651 241.565L176.617 241.471L165.442 207.475C165.442 207.475 178.317 209.429 182.124 222.677C185.936 235.934 185.108 238.579 185.108 238.579" fill="#6151AD"/>
<path d="M181.891 240.806C180.559 241.36 178.81 241.753 176.65 241.565L176.616 241.471C177.556 236.02 179.358 230.168 176.975 222.584C179.28 228.709 181.45 234.195 181.891 240.806" fill="#554EAA"/>
<path d="M176.437 242.597C176.467 242.435 176.491 242.281 176.515 242.12C177.411 236.481 179.45 230.466 176.975 222.584C176.326 220.528 175.372 218.335 174.016 215.997C167.302 204.446 165.2 207.603 154.399 207.398C149.182 207.296 134.84 208.849 131.886 215.571C128.926 222.285 131.997 283.913 131.997 283.913C131.997 283.913 140.943 291.787 182.889 274.043C182.889 274.043 175.362 249.857 176.437 242.597" fill="#6151AD"/>
<path d="M147.119 243.066C146.344 249.755 142.803 255.735 139.858 259.685L140.764 248.296C141.37 248.202 141.975 248.091 142.581 247.972C142.581 247.972 144.789 228.12 145.346 223.846C145.472 222.874 145.593 221.875 145.705 220.886C147.565 225.134 148.068 234.894 147.119 243.066" fill="#554EAA"/>
<path d="M150.969 207.637C150.969 207.637 155.353 216.242 159.736 214.781C164.12 213.319 162.173 206.826 162.173 206.826L163.335 202.435C163.335 202.435 170.131 204.715 171.589 201.306C173.051 197.897 180.196 181.662 173.865 176.467C167.53 171.272 154.864 170.136 151.294 179.714C149.003 185.846 153.328 194.239 153.076 197.735C152.752 202.28 150.969 207.637 150.969 207.637" fill="#F9B5B0"/>
<path d="M152.868 198.559C157.092 194.339 152.772 188.066 155.828 185.681C157.286 184.541 158.308 190.832 159.456 189.497C161.437 187.185 160.313 183.105 160.313 183.105C172.524 184.25 176.302 180.85 176.302 180.85L177.75 174.955L160.604 170.542L150.587 174.955L146.514 185.139L152.868 198.559" fill="#385395"/>
<path d="M163.335 202.435C163.335 202.435 158.501 200.642 157.876 199.94L162.318 206.098L163.335 202.435" fill="#E4A4A1"/>
<path d="M199.314 300.172C199.314 300.172 198.617 298.087 201.537 293.499C203.121 291.012 215.158 284.686 215.158 284.686L211.132 280.99L193.197 295.584L199.314 300.172ZM148.984 287.662C148.984 287.662 168.169 304.203 175.261 306.982C182.352 309.762 193.754 297.948 193.754 297.948L192.083 295.584L148.984 287.662" fill="#563198"/>
<path d="M217.134 280.142L175.764 304.618L148.315 286.779L184.144 266.032C189.835 271.381 196.417 277.131 196.417 277.131L202.201 273.113C200.433 271.313 198.888 269.47 197.449 267.593L217.134 280.142" fill="#D591CE"/>
<path d="M158.816 289.223C158.816 289.223 162.008 291.34 164.459 290.774C166.905 290.209 167.874 290.968 167.874 290.968C167.874 290.968 172.146 294.497 173.933 293.272C175.726 292.047 175.6 289.713 175.13 287.64C174.66 285.568 172.088 284.179 170.582 283.614C169.075 283.049 162.924 284.398 162.924 284.398" fill="#F9B5B0"/>
<path d="M222.888 245.982L221.43 244.938L179.092 270.311L176.035 304.57L177.721 305.694" fill="#C87FC6"/>
<path d="M180.85 271.595L222.413 246.735L218.577 280.846L177.992 305.182L180.85 271.595Z" fill="#D591CE"/>
<path d="M139.331 266.331L139.859 259.685L140.764 248.296L141.036 244.901L126.418 241.736C126.418 241.736 122.397 264.385 126.054 269.257C129.711 274.128 158.817 289.219 158.817 289.219L163.205 284.596C163.205 284.596 147.129 270.468 139.331 266.331" fill="#F9B5B0"/>
<path d="M141.045 210.504C136.85 209.233 129.773 213.575 127.458 224.572C125.08 235.9 123.68 246.377 123.68 246.377C127.56 248.765 133.014 249.286 138.942 248.552C140.139 248.407 141.359 248.211 142.58 247.972C143.384 248.2 145.661 222.873 145.704 220.886C145.825 215.053 144.285 211.486 141.045 210.504" fill="#6151AD"/>
</svg>
