<svg width="352" height="348" viewBox="0 0 352 348" fill="none" xmlns="http://www.w3.org/2000/svg">
<g clip-path="url(#clip0_13737_18518)">
<path d="M348.985 173.999C349.008 193.802 345.634 213.462 339.009 232.13C339.005 232.143 339.001 232.151 338.997 232.163C338.967 232.25 338.938 232.329 338.905 232.415V232.42C337.492 236.379 335.939 240.272 334.247 244.099C329.977 253.75 324.836 262.994 318.886 271.716C317.444 273.841 315.951 275.93 314.406 277.986C312.707 280.259 310.953 282.487 309.146 284.669C307.48 286.682 305.77 288.656 304.015 290.592C301.93 292.898 299.783 295.145 297.574 297.333C292.375 302.496 286.854 307.327 281.045 311.798C280.025 312.587 278.995 313.363 277.953 314.125C275.528 315.91 273.055 317.632 270.534 319.291C264.988 322.947 259.235 326.281 253.304 329.276C252.281 329.797 251.249 330.31 250.212 330.806C246.205 332.736 242.115 334.512 237.944 336.133C236.755 336.6 235.561 337.051 234.355 337.485C234.152 337.563 233.949 337.638 233.741 337.708C219.439 342.855 204.52 346.104 189.368 347.371C188.315 347.466 187.261 347.546 186.206 347.61C185.087 347.689 183.966 347.752 182.844 347.801C181.957 347.846 181.074 347.879 180.183 347.904C180.001 347.912 179.814 347.92 179.632 347.92C178.434 347.958 177.232 347.981 176.026 347.991C175.516 347.995 175.007 347.999 174.493 347.999C174.252 347.999 174.012 347.999 173.771 347.995C170.294 347.982 166.843 347.869 163.418 347.656C163.347 347.652 163.277 347.644 163.207 347.644C161.98 347.561 160.757 347.474 159.538 347.367C155.199 347.003 150.906 346.479 146.661 345.796C145.683 345.643 144.707 345.478 143.735 345.3C139.511 344.556 135.343 343.659 131.23 342.61C130.007 342.3 128.792 341.976 127.583 341.638C120.606 339.702 113.757 337.331 107.079 334.538C103.245 332.934 99.4829 331.201 95.7927 329.338C94.1307 328.499 92.4852 327.634 90.8563 326.743C90.4129 326.503 89.9735 326.259 89.5342 326.016C86.3262 324.23 83.1845 322.348 80.1091 320.37C77.5891 318.754 75.1161 317.073 72.69 315.328C72.3916 315.121 72.0974 314.906 71.8031 314.691C69.9421 313.34 68.1115 311.954 66.3113 310.533C62.3946 307.438 58.6174 304.185 54.9797 300.775C52.4638 298.419 50.0212 295.989 47.6518 293.485C33.8461 278.926 22.6614 262.102 14.5894 243.752C12.8735 239.847 11.2985 235.869 9.86441 231.82C9.85976 231.811 9.85694 231.801 9.85613 231.791C3.3116 213.223 -0.0212235 193.681 -2.15471e-05 174C-2.15471e-05 100.945 45.1525 38.4039 109.147 12.6139C131.953 3.46195 156.438 -0.794531 181.005 0.121979C205.571 1.03849 229.669 7.10741 251.725 17.9331C309.353 46.3392 348.985 105.557 348.985 173.999Z" fill="#F2F2F2"/>
<path d="M251.725 17.9331V237.813H109.147V12.6139C131.953 3.46194 156.438 -0.794547 181.005 0.121963C205.571 1.03847 229.669 7.1074 251.725 17.9331Z" fill="white"/>
<path d="M143.458 118.203C147.326 111.825 151.909 105.014 159.086 102.931C167.399 100.519 175.937 105.31 183.18 110.039C204.84 124.18 225.7 139.506 245.662 155.945L245.64 156.192C230.099 155.124 214.557 154.055 199.015 152.986C187.786 152.214 176.172 151.335 166.249 146.038C162.483 144.028 158.813 141.343 154.546 141.156C149.244 140.924 144.622 144.616 140.989 148.473C119.502 171.29 113.284 206.182 89.1764 226.229C104.378 188.846 122.528 152.724 143.458 118.203Z" fill="#F2F2F2"/>
<path d="M262.154 23.5414C261.794 23.3017 261.429 23.0744 261.068 22.8429C250.645 16.1953 239.472 10.7948 227.782 6.75313L225.071 44.0411H207.887V1.30996C206.806 1.08678 205.716 0.875997 204.626 0.677612V44.0411H184.204C172.962 44.0411 162.181 39.5879 154.232 31.661C146.282 23.7342 141.816 12.9831 141.816 1.77291C140.722 2.00849 139.636 2.26056 138.55 2.52921V44.0411H121.918L119.336 8.48487C107.322 13.0792 95.9167 19.1211 85.3737 26.4758C85.1913 26.5998 85.009 26.728 84.8308 26.8519C83.9148 27.4926 83.0112 28.1456 82.1118 28.8069V236.362H131.131L130.265 224.397L125.499 93.4016H221.486L216.72 224.397L215.854 236.362H264.33V24.9797C263.609 24.492 262.884 24.0126 262.154 23.5414ZM138.55 82.5524H124.711L122.154 47.2979H138.55V82.5524ZM204.626 82.5524H181.382V81.854C181.382 81.5182 181.316 81.1857 181.187 80.8755C181.058 80.5654 180.869 80.2836 180.63 80.0464C180.392 79.8091 180.109 79.6211 179.798 79.493C179.487 79.3649 179.153 79.2992 178.816 79.2998H168.712C168.375 79.2996 168.042 79.3656 167.731 79.4939C167.42 79.6222 167.138 79.8104 166.9 80.0476C166.662 80.2848 166.474 80.5664 166.345 80.8764C166.216 81.1863 166.15 81.5185 166.15 81.854V82.5524H141.816V47.2979H204.626V82.5524ZM207.887 82.5524V47.2979H224.835L222.278 82.5524H207.887Z" fill="#3F3D56"/>
<path d="M339.009 232.129C339.005 232.142 339.001 232.15 338.997 232.162C338.968 232.249 338.939 232.328 338.906 232.414V232.419C337.492 236.378 335.94 240.271 334.247 244.098L14.5898 243.751C12.8739 239.846 11.2989 235.868 9.86486 231.819C9.8602 231.81 9.85738 231.801 9.85657 231.79L339.009 232.129Z" fill="#3F3D56"/>
<path d="M219.55 233.489H163.597V240.928H219.55V233.489Z" fill="white"/>
<path d="M89.5301 306.342C89.7291 304.594 90.004 302.857 90.3549 301.131C92.2729 291.771 96.3893 282.997 102.366 275.531C105.786 275.721 108.782 275.2 109.068 268.596C109.122 267.422 109.997 266.401 110.187 265.244C109.864 265.289 109.528 265.314 109.205 265.335C109.101 265.339 108.994 265.347 108.894 265.351H108.857C108.498 265.368 108.142 265.281 107.832 265.1C107.521 264.92 107.27 264.653 107.108 264.333C106.947 264.013 106.881 263.653 106.92 263.297C106.959 262.941 107.101 262.604 107.328 262.326C107.468 262.157 107.609 261.983 107.75 261.809C107.962 261.541 108.181 261.28 108.397 261.016C108.422 260.987 108.442 260.962 108.467 260.933C108.712 260.631 108.956 260.33 109.205 260.028C108.756 259.332 108.152 258.75 107.439 258.325C104.973 256.883 101.571 257.883 99.7883 260.107C98.0019 262.33 97.6621 265.455 98.2838 268.232C98.8143 270.613 99.9707 272.795 101.268 274.87C101.135 275.039 100.994 275.204 100.862 275.378C98.4174 278.514 96.2865 281.88 94.4996 285.429C95.0053 281.491 88.8255 267.273 86.434 264.26C83.5617 260.644 77.6762 262.223 77.1706 266.81C77.1664 266.852 77.1581 266.897 77.154 266.943C77.5104 267.141 77.8586 267.352 78.1985 267.579C78.6254 267.863 78.9562 268.27 79.1475 268.745C79.3388 269.22 79.3818 269.742 79.2707 270.242C79.1596 270.742 78.8996 271.197 78.5249 271.547C78.1501 271.897 77.6781 272.126 77.1706 272.204L77.1167 272.212C72.3668 278.978 87.5987 296.589 91.416 292.637C90.4562 295.327 89.6903 298.081 89.1239 300.879C88.6156 303.347 88.2613 305.844 88.0629 308.355C87.8211 311.519 87.8363 314.696 88.1085 317.857C88.1009 317.82 88.0954 317.783 88.0919 317.745C87.2422 310.86 72.7067 300.622 68.4625 301.474C66.0171 301.966 63.609 301.854 63.9821 304.313C63.9862 304.354 63.9945 304.392 63.9986 304.433C64.6577 304.698 65.2988 305.006 65.9177 305.355C66.2741 305.553 66.6222 305.768 66.9621 305.991C67.3619 306.258 67.6779 306.632 67.8739 307.069C68.0698 307.507 68.1377 307.992 68.0697 308.466C68.0017 308.941 67.8006 309.387 67.4895 309.753C67.1784 310.118 66.77 310.389 66.3114 310.533C68.1144 311.951 69.945 313.337 71.8032 314.691C72.0975 314.906 72.3917 315.121 72.6901 315.328C75.1148 317.072 77.5878 318.752 80.1092 320.37C83.1846 322.345 86.3263 324.227 89.5343 326.016C89.9736 326.259 90.4129 326.503 90.8564 326.743C89.7414 322.168 89.1765 317.477 89.1737 312.769C89.1726 310.622 89.2916 308.476 89.5301 306.342ZM91.7973 291.575L91.8056 291.563C91.8054 291.571 91.8025 291.578 91.7973 291.584V291.575ZM88.4939 321.296L88.3655 321.01C88.3696 320.8 88.3696 320.593 88.3655 320.378C88.3655 320.32 88.353 320.262 88.353 320.205C88.4028 320.572 88.4442 320.94 88.4981 321.308L88.4939 321.296ZM107.531 321.858C107.576 321.668 107.614 321.535 107.659 321.345C107.643 321.304 107.626 321.263 107.609 321.225C106.229 317.948 98.9428 324.557 95.7928 329.339C99.4816 331.198 103.244 332.931 107.079 334.538C107.336 334.215 107.601 333.897 107.862 333.575C107.887 333.546 107.908 333.521 107.929 333.492C108.492 332.798 109.06 332.112 109.62 331.417C109.624 331.281 109.624 331.145 109.624 331.012C109.618 329.022 109.373 327.039 108.894 325.106C108.509 325.124 108.128 325.023 107.802 324.818C107.477 324.612 107.222 324.312 107.073 323.957C106.925 323.603 106.889 323.211 106.97 322.836C107.052 322.46 107.248 322.119 107.531 321.858Z" fill="white"/>
<path d="M197.188 235.84C198.183 236.524 199.317 236.983 200.509 237.183C201.701 237.384 202.923 237.321 204.088 236.999C205.253 236.678 206.334 236.106 207.253 235.323C208.173 234.54 208.909 233.566 209.41 232.469L238.669 235.198L231.486 221.76L204.802 221.228C202.898 220.511 200.796 220.516 198.895 221.241C196.993 221.966 195.425 223.361 194.487 225.162C193.548 226.963 193.305 229.045 193.803 231.013C194.301 232.981 195.505 234.698 197.188 235.84Z" fill="#FFB6B6"/>
<path d="M226.857 234.92L267.347 239.446L267.487 239.268C267.754 238.928 294.247 205.111 298.698 197.061C301.437 192.224 302.435 186.599 301.525 181.119L301.495 180.985L301.389 180.896C299.231 179.092 296.52 178.076 293.705 178.014C290.889 177.953 288.137 178.85 285.901 180.558C275.151 188.86 266.483 199.54 260.582 211.755L257.233 218.707L226.857 221.694V234.92Z" fill="#48A145"/>
<path d="M194.007 329.501L186.207 347.611C185.088 347.69 183.967 347.753 182.845 347.802C181.958 347.847 181.075 347.88 180.184 347.905L179.882 348L179.633 347.921C178.435 347.959 177.233 347.982 176.027 347.992C175.517 347.996 175.008 348 174.494 348C174.253 348 174.013 348 173.772 347.996L174.291 346.227L174.9 344.131L177.32 335.832L180.814 323.851L186.012 326.074L194.007 329.501Z" fill="#FFB6B6"/>
<path d="M250.214 330.807C246.206 332.737 242.116 334.513 237.945 336.134L233.867 329.294L247.014 323.537L250.214 330.807Z" fill="#FFB6B6"/>
<path d="M277.954 299.718V314.126C275.53 315.911 273.057 317.633 270.535 319.292V299.718H277.954Z" fill="#CACACA"/>
<path d="M304.016 290.593C301.931 292.899 299.784 295.146 297.575 297.334C292.376 302.497 286.855 307.328 281.046 311.799H247.971C247.093 311.799 246.225 311.612 245.425 311.251C244.625 310.89 243.912 310.362 243.333 309.704L243.329 309.691C242.639 308.915 242.16 307.976 241.936 306.963L241.932 306.955C241.839 306.52 241.792 306.077 241.791 305.633V296.759C241.792 295.125 242.444 293.557 243.602 292.401C244.761 291.245 246.332 290.595 247.971 290.593H304.016Z" fill="#3F3D56"/>
<path d="M317.644 255.958L314.059 271.275C314.409 273.494 314.526 275.744 314.407 277.987C312.708 280.26 310.954 282.488 309.147 284.67C307.481 286.683 305.771 288.657 304.016 290.593C301.931 292.899 299.784 295.146 297.575 297.334C291.822 299.136 285.042 299.871 277.954 299.921C275.509 299.941 273.026 299.875 270.535 299.743C260.434 299.214 250.218 297.598 241.849 295.92C239.636 295.482 237.556 295.036 235.641 294.602C232.014 293.787 228.98 293.027 226.783 292.448C224.309 291.804 222.9 291.386 222.9 291.386L213.487 307.104L204.941 321.371L193.928 335.386C192.875 335.481 191.821 335.561 190.766 335.626C189.647 335.704 188.526 335.768 187.404 335.816C186.517 335.861 185.635 335.894 184.743 335.919L184.441 336.014L184.192 335.936L180.197 334.667L178.85 334.241L174.005 332.704C174.005 332.704 175.086 329.306 176.98 323.64C177.677 321.561 182.609 306.191 187.769 292.771C189.299 288.786 190.882 284.744 192.511 280.723C193.845 277.421 195.205 274.131 196.581 270.886C198.972 265.261 210.528 262.228 224.135 260.637C224.827 260.558 225.523 260.48 226.224 260.405C233.158 259.678 240.515 259.302 247.395 259.128C250.839 259.041 254.163 259.008 257.255 259.004C258.254 259.004 259.225 259.007 260.169 259.012H260.173C262.722 259.025 265.068 259.062 267.132 259.103C267.534 259.111 267.924 259.124 268.305 259.132H268.309C268.566 259.136 268.819 259.145 269.068 259.149C273.581 259.264 276.35 259.405 276.35 259.405L277.424 251.007L277.643 249.312L277.85 247.7V247.696L277.875 247.494L278.045 247.489L281.029 247.432L306.113 246.944L316.797 246.492L317.644 255.958Z" fill="#2F2E41"/>
<path d="M249.575 323.905C248.551 324.425 247.519 324.938 246.483 325.434C242.475 327.364 238.386 329.14 234.215 330.761C233.025 331.228 231.832 331.679 230.626 332.113C230.493 331.927 230.356 331.741 230.219 331.555C224.466 323.681 220.885 318.664 213.487 307.104C210.391 302.268 207.278 297.226 204.257 292.076L226.133 281.893L228.586 280.752L235.641 294.602L241.932 306.955L243.333 309.704L249.575 323.905Z" fill="#2F2E41"/>
<path d="M285.059 157.076C296.19 157.076 305.213 148.079 305.213 136.979C305.213 125.88 296.19 116.883 285.059 116.883C273.928 116.883 264.905 125.88 264.905 136.979C264.905 148.079 273.928 157.076 285.059 157.076Z" fill="#FFB6B6"/>
<path d="M321.034 199.447C320.869 182.849 321.358 187.656 320.04 181.94C316.5 166.574 301.807 163.771 299.246 163.424C298.973 162.7 298.553 162.039 298.014 161.484C297.474 160.928 296.825 160.489 296.108 160.194C295.391 159.899 294.62 159.754 293.844 159.769C293.069 159.783 292.304 159.957 291.599 160.279L286.695 162.815C281.941 164.985 284.826 168.119 283.185 173.066L281.461 178.315L267.331 217.261L270.191 232.078L270.195 232.086L272.123 242.067L277.837 248.559L277.73 247.523L277.602 247.721L277.598 247.725L277.266 248.217C277.726 248.469 278.182 248.717 278.63 248.965C279.79 249.601 280.922 250.226 282.024 250.837C282.29 250.986 282.551 251.131 282.812 251.279H282.816C282.982 251.37 283.148 251.461 283.309 251.552C287.446 253.858 272.135 258.058 275.538 260.029C276.01 260.302 276.479 260.575 276.939 260.843C292.606 269.981 305.106 281.364 309.147 284.67C310.955 282.488 312.708 280.26 314.407 277.987C315.949 275.933 317.442 273.843 318.887 271.717C319.14 270.056 319.31 268.394 319.476 266.766C319.675 264.807 318.639 246.659 318.987 244.663C319.14 243.778 318.552 242.939 317.984 242.129C317.458 241.373 316.96 240.662 317.064 239.992C317.172 239.302 317.934 238.55 318.676 237.818C319.484 237.016 320.322 236.19 320.442 235.318C320.773 232.888 319.41 230.449 319.667 228.002C320.089 224.022 320.414 220.03 320.641 216.025C320.96 210.495 321.091 204.969 321.034 199.447Z" fill="#48A145"/>
<path d="M207.359 240.153C208.191 239.279 209.206 238.597 210.331 238.155C211.456 237.714 212.664 237.524 213.871 237.599C215.077 237.673 216.253 238.011 217.315 238.588C218.376 239.164 219.298 239.966 220.015 240.936L248.08 232.244L243.833 246.871L217.833 252.883C216.119 253.977 214.061 254.405 212.051 254.087C210.041 253.769 208.217 252.726 206.926 251.157C205.635 249.588 204.966 247.601 205.046 245.573C205.126 243.545 205.949 241.617 207.359 240.153Z" fill="#FFB6B6"/>
<path d="M241.383 248.245L293.475 237.536L279.956 240.875C280.109 240.471 295.304 200.321 297.149 191.314C298.319 185.884 297.592 180.218 295.087 175.257L295.018 175.138L294.891 175.084C292.292 174.003 289.401 173.838 286.695 174.615C283.989 175.392 281.629 177.066 280.004 179.36C272.221 190.477 267.135 203.246 265.149 216.66L264.028 224.291L245.662 229.769L241.383 248.245Z" fill="#48A145"/>
<path d="M144.303 231.891C144.486 232.421 144.832 232.88 145.293 233.201C145.753 233.523 146.304 233.691 146.866 233.681L157.846 233.399C158.412 233.388 158.96 233.194 159.407 232.847C159.853 232.501 160.176 232.019 160.325 231.474L161.879 214.906C162.43 215.155 163.03 215.278 163.635 215.266C164.697 215.239 165.705 214.793 166.437 214.026C167.169 213.258 167.565 212.233 167.538 211.174C167.511 210.115 167.064 209.11 166.295 208.381C165.525 207.651 164.496 207.256 163.434 207.282C163.193 207.282 162.951 207.307 162.715 207.357C162.458 207.079 162.145 206.859 161.797 206.709C161.449 206.559 161.074 206.484 160.695 206.488L143.805 206.923C143.665 206.928 143.525 206.945 143.388 206.974C143.018 207.043 142.666 207.19 142.358 207.406C142.049 207.621 141.791 207.901 141.599 208.224C141.408 208.548 141.288 208.909 141.248 209.282C141.209 209.656 141.249 210.034 141.368 210.39L144.303 231.891ZM162.198 213.781L163.303 209.833C163.429 209.377 163.432 208.896 163.312 208.438C163.365 208.438 163.413 208.413 163.466 208.413C164.224 208.397 164.958 208.682 165.506 209.204C166.054 209.727 166.371 210.445 166.389 211.201C166.407 211.957 166.123 212.689 165.6 213.237C165.078 213.785 164.358 214.103 163.6 214.123C163.11 214.138 162.625 214.02 162.198 213.781Z" fill="#2F2E41"/>
<path d="M143.388 206.974C143.748 209.026 147.794 210.468 152.658 210.217C157.132 210.012 160.789 208.446 161.459 206.589C161.211 206.516 160.953 206.482 160.695 206.488L143.805 206.923C143.665 206.928 143.525 206.945 143.388 206.974Z" fill="#3F3D56"/>
<path d="M69.9391 191.976V227.397C69.9394 227.849 70.1194 228.281 70.4395 228.601C70.7596 228.92 71.1936 229.099 71.6463 229.1H124.286C124.739 229.099 125.173 228.92 125.493 228.601C125.813 228.281 125.993 227.849 125.993 227.397V191.976C125.992 191.525 125.812 191.092 125.492 190.774C125.172 190.455 124.738 190.276 124.286 190.275H71.6463C71.194 190.276 70.7604 190.455 70.4404 190.774C70.1204 191.092 69.9402 191.525 69.9391 191.976Z" fill="#3F3D56"/>
<path d="M71.1741 192.416V226.96C71.1745 227.201 71.2708 227.433 71.4418 227.603C71.6128 227.774 71.8446 227.87 72.0865 227.87H123.848C124.09 227.87 124.322 227.774 124.493 227.603C124.664 227.433 124.76 227.201 124.76 226.96V192.416C124.76 192.175 124.664 191.943 124.493 191.772C124.322 191.601 124.09 191.505 123.848 191.505H72.0865C71.8443 191.505 71.6123 191.601 71.4412 191.772C71.2702 191.943 71.1741 192.175 71.1741 192.416Z" fill="#48A145"/>
<path d="M68.8382 234.305C68.9346 234.426 69.0572 234.523 69.1967 234.59C69.3362 234.656 69.489 234.69 69.6437 234.69H126.009C126.163 234.689 126.315 234.655 126.454 234.589C126.593 234.523 126.716 234.426 126.813 234.307C126.91 234.187 126.979 234.048 127.015 233.899C127.052 233.749 127.054 233.594 127.022 233.443L126.147 229.299C126.111 229.13 126.033 228.973 125.92 228.841C125.807 228.71 125.664 228.609 125.502 228.548C125.384 228.502 125.26 228.478 125.134 228.478H70.5152C70.3892 228.478 70.2644 228.502 70.1471 228.548C69.9852 228.609 69.8413 228.71 69.7285 228.841C69.6157 228.973 69.5376 229.13 69.5013 229.299L68.6264 233.443C68.5953 233.594 68.5981 233.749 68.6347 233.898C68.6714 234.047 68.7409 234.186 68.8382 234.305Z" fill="#2F2E41"/>
<path d="M123.2 230.263H124.531C124.643 230.263 124.733 230.173 124.733 230.062V229.427C124.733 229.315 124.643 229.225 124.531 229.225H123.2C123.088 229.225 122.997 229.315 122.997 229.427V230.062C122.997 230.173 123.088 230.263 123.2 230.263Z" fill="#3F3D56"/>
<path d="M119.728 230.263H121.059C121.171 230.263 121.261 230.173 121.261 230.062V229.427C121.261 229.315 121.171 229.225 121.059 229.225H119.728C119.616 229.225 119.525 229.315 119.525 229.427V230.062C119.525 230.173 119.616 230.263 119.728 230.263Z" fill="#3F3D56"/>
<path d="M116.256 230.263H117.587C117.699 230.263 117.789 230.173 117.789 230.062V229.427C117.789 229.315 117.699 229.225 117.587 229.225H116.256C116.144 229.225 116.053 229.315 116.053 229.427V230.062C116.053 230.173 116.144 230.263 116.256 230.263Z" fill="#3F3D56"/>
<path d="M112.784 230.263H114.115C114.227 230.263 114.317 230.173 114.317 230.062V229.427C114.317 229.315 114.227 229.225 114.115 229.225H112.784C112.672 229.225 112.581 229.315 112.581 229.427V230.062C112.581 230.173 112.672 230.263 112.784 230.263Z" fill="#3F3D56"/>
<path d="M109.312 230.263H110.643C110.755 230.263 110.845 230.173 110.845 230.062V229.427C110.845 229.315 110.755 229.225 110.643 229.225H109.312C109.2 229.225 109.109 229.315 109.109 229.427V230.062C109.109 230.173 109.2 230.263 109.312 230.263Z" fill="#3F3D56"/>
<path d="M105.839 230.263H107.171C107.283 230.263 107.373 230.173 107.373 230.062V229.427C107.373 229.315 107.283 229.225 107.171 229.225H105.839C105.728 229.225 105.637 229.315 105.637 229.427V230.062C105.637 230.173 105.728 230.263 105.839 230.263Z" fill="#3F3D56"/>
<path d="M102.368 230.263H103.699C103.811 230.263 103.901 230.173 103.901 230.062V229.427C103.901 229.315 103.811 229.225 103.699 229.225H102.368C102.256 229.225 102.165 229.315 102.165 229.427V230.062C102.165 230.173 102.256 230.263 102.368 230.263Z" fill="#3F3D56"/>
<path d="M98.8955 230.263H100.227C100.339 230.263 100.429 230.173 100.429 230.062V229.427C100.429 229.315 100.339 229.225 100.227 229.225H98.8955C98.7838 229.225 98.6932 229.315 98.6932 229.427V230.062C98.6932 230.173 98.7838 230.263 98.8955 230.263Z" fill="#3F3D56"/>
<path d="M95.4235 230.263H96.7548C96.8665 230.263 96.9572 230.173 96.9572 230.062V229.427C96.9572 229.315 96.8665 229.225 96.7548 229.225H95.4235C95.3117 229.225 95.2211 229.315 95.2211 229.427V230.062C95.2211 230.173 95.3117 230.263 95.4235 230.263Z" fill="#3F3D56"/>
<path d="M91.9514 230.263H93.2828C93.3945 230.263 93.4851 230.173 93.4851 230.062V229.427C93.4851 229.315 93.3945 229.225 93.2828 229.225H91.9514C91.8397 229.225 91.7491 229.315 91.7491 229.427V230.062C91.7491 230.173 91.8397 230.263 91.9514 230.263Z" fill="#3F3D56"/>
<path d="M88.4795 230.263H89.8108C89.9225 230.263 90.0131 230.173 90.0131 230.062V229.427C90.0131 229.315 89.9225 229.225 89.8108 229.225H88.4795C88.3677 229.225 88.2771 229.315 88.2771 229.427V230.062C88.2771 230.173 88.3677 230.263 88.4795 230.263Z" fill="#3F3D56"/>
<path d="M85.0074 230.263H86.3387C86.4505 230.263 86.5411 230.173 86.5411 230.062V229.427C86.5411 229.315 86.4505 229.225 86.3387 229.225H85.0074C84.8957 229.225 84.8051 229.315 84.8051 229.427V230.062C84.8051 230.173 84.8957 230.263 85.0074 230.263Z" fill="#3F3D56"/>
<path d="M81.5354 230.263H82.8667C82.9784 230.263 83.069 230.173 83.069 230.062V229.427C83.069 229.315 82.9784 229.225 82.8667 229.225H81.5354C81.4236 229.225 81.333 229.315 81.333 229.427V230.062C81.333 230.173 81.4236 230.263 81.5354 230.263Z" fill="#3F3D56"/>
<path d="M78.0633 230.263H79.3946C79.5064 230.263 79.597 230.173 79.597 230.062V229.427C79.597 229.315 79.5064 229.225 79.3946 229.225H78.0633C77.9516 229.225 77.861 229.315 77.861 229.427V230.062C77.861 230.173 77.9516 230.263 78.0633 230.263Z" fill="#3F3D56"/>
<path d="M74.5913 230.263H75.9227C76.0344 230.263 76.125 230.173 76.125 230.062V229.427C76.125 229.315 76.0344 229.225 75.9227 229.225H74.5913C74.4796 229.225 74.389 229.315 74.389 229.427V230.062C74.389 230.173 74.4796 230.263 74.5913 230.263Z" fill="#3F3D56"/>
<path d="M71.1193 230.263H72.4506C72.5624 230.263 72.653 230.173 72.653 230.062V229.427C72.653 229.315 72.5624 229.225 72.4506 229.225H71.1193C71.0075 229.225 70.9169 229.315 70.9169 229.427V230.062C70.9169 230.173 71.0075 230.263 71.1193 230.263Z" fill="#3F3D56"/>
<path d="M123.241 231.995H124.572C124.684 231.995 124.774 231.904 124.774 231.793V231.158C124.774 231.046 124.684 230.956 124.572 230.956H123.241C123.129 230.956 123.038 231.046 123.038 231.158V231.793C123.038 231.904 123.129 231.995 123.241 231.995Z" fill="#3F3D56"/>
<path d="M119.769 231.995H121.1C121.212 231.995 121.302 231.904 121.302 231.793V231.158C121.302 231.046 121.212 230.956 121.1 230.956H119.769C119.657 230.956 119.566 231.046 119.566 231.158V231.793C119.566 231.904 119.657 231.995 119.769 231.995Z" fill="#3F3D56"/>
<path d="M116.297 231.995H117.628C117.74 231.995 117.83 231.904 117.83 231.793V231.158C117.83 231.046 117.74 230.956 117.628 230.956H116.297C116.185 230.956 116.094 231.046 116.094 231.158V231.793C116.094 231.904 116.185 231.995 116.297 231.995Z" fill="#3F3D56"/>
<path d="M112.825 231.995H114.156C114.268 231.995 114.358 231.904 114.358 231.793V231.158C114.358 231.046 114.268 230.956 114.156 230.956H112.825C112.713 230.956 112.622 231.046 112.622 231.158V231.793C112.622 231.904 112.713 231.995 112.825 231.995Z" fill="#3F3D56"/>
<path d="M109.353 231.995H110.684C110.796 231.995 110.886 231.904 110.886 231.793V231.158C110.886 231.046 110.796 230.956 110.684 230.956H109.353C109.241 230.956 109.15 231.046 109.15 231.158V231.793C109.15 231.904 109.241 231.995 109.353 231.995Z" fill="#3F3D56"/>
<path d="M105.881 231.995H107.212C107.324 231.995 107.414 231.904 107.414 231.793V231.158C107.414 231.046 107.324 230.956 107.212 230.956H105.881C105.769 230.956 105.678 231.046 105.678 231.158V231.793C105.678 231.904 105.769 231.995 105.881 231.995Z" fill="#3F3D56"/>
<path d="M102.409 231.995H103.74C103.852 231.995 103.942 231.904 103.942 231.793V231.158C103.942 231.046 103.852 230.956 103.74 230.956H102.409C102.297 230.956 102.206 231.046 102.206 231.158V231.793C102.206 231.904 102.297 231.995 102.409 231.995Z" fill="#3F3D56"/>
<path d="M98.9364 231.995H100.268C100.38 231.995 100.47 231.904 100.47 231.793V231.158C100.47 231.046 100.38 230.956 100.268 230.956H98.9364C98.8247 230.956 98.7341 231.046 98.7341 231.158V231.793C98.7341 231.904 98.8247 231.995 98.9364 231.995Z" fill="#3F3D56"/>
<path d="M95.4645 231.995H96.7958C96.9076 231.995 96.9982 231.904 96.9982 231.793V231.158C96.9982 231.046 96.9076 230.956 96.7958 230.956H95.4645C95.3528 230.956 95.2622 231.046 95.2622 231.158V231.793C95.2622 231.904 95.3528 231.995 95.4645 231.995Z" fill="#3F3D56"/>
<path d="M91.9925 231.995H93.3238C93.4355 231.995 93.5261 231.904 93.5261 231.793V231.158C93.5261 231.046 93.4355 230.956 93.3238 230.956H91.9925C91.8807 230.956 91.7901 231.046 91.7901 231.158V231.793C91.7901 231.904 91.8807 231.995 91.9925 231.995Z" fill="#3F3D56"/>
<path d="M88.5205 231.995H89.8518C89.9635 231.995 90.0541 231.904 90.0541 231.793V231.158C90.0541 231.046 89.9635 230.956 89.8518 230.956H88.5205C88.4087 230.956 88.3181 231.046 88.3181 231.158V231.793C88.3181 231.904 88.4087 231.995 88.5205 231.995Z" fill="#3F3D56"/>
<path d="M85.0484 231.995H86.3798C86.4915 231.995 86.5821 231.904 86.5821 231.793V231.158C86.5821 231.046 86.4915 230.956 86.3798 230.956H85.0484C84.9367 230.956 84.8461 231.046 84.8461 231.158V231.793C84.8461 231.904 84.9367 231.995 85.0484 231.995Z" fill="#3F3D56"/>
<path d="M81.5764 231.995H82.9077C83.0195 231.995 83.11 231.904 83.11 231.793V231.158C83.11 231.046 83.0195 230.956 82.9077 230.956H81.5764C81.4646 230.956 81.374 231.046 81.374 231.158V231.793C81.374 231.904 81.4646 231.995 81.5764 231.995Z" fill="#3F3D56"/>
<path d="M78.1043 231.995H79.4357C79.5474 231.995 79.638 231.904 79.638 231.793V231.158C79.638 231.046 79.5474 230.956 79.4357 230.956H78.1043C77.9926 230.956 77.902 231.046 77.902 231.158V231.793C77.902 231.904 77.9926 231.995 78.1043 231.995Z" fill="#3F3D56"/>
<path d="M74.6323 231.995H75.9637C76.0754 231.995 76.166 231.904 76.166 231.793V231.158C76.166 231.046 76.0754 230.956 75.9637 230.956H74.6323C74.5206 230.956 74.43 231.046 74.43 231.158V231.793C74.43 231.904 74.5206 231.995 74.6323 231.995Z" fill="#3F3D56"/>
<path d="M71.1604 231.995H72.4918C72.6035 231.995 72.6941 231.904 72.6941 231.793V231.158C72.6941 231.046 72.6035 230.956 72.4918 230.956H71.1604C71.0487 230.956 70.9581 231.046 70.9581 231.158V231.793C70.9581 231.904 71.0487 231.995 71.1604 231.995Z" fill="#3F3D56"/>
<path d="M94.4229 234.072H107.906C108.018 234.072 108.109 233.982 108.109 233.87V233.235C108.109 233.124 108.018 233.033 107.906 233.033H94.4229C94.3111 233.033 94.2205 233.124 94.2205 233.235V233.87C94.2205 233.982 94.3111 234.072 94.4229 234.072Z" fill="#3F3D56"/>
<path d="M196.029 232.379L219.587 211.841C220.707 210.864 218.571 213.774 219.55 214.891C220.53 216.008 224.254 214.909 223.134 215.886L199.575 236.424L193.609 237.782L196.029 232.379Z" fill="#3F3D56"/>
<path d="M196.028 232.379L196.599 231.881C197.362 232.262 198.042 232.788 198.601 233.43C199.264 234.184 199.745 235.078 200.009 236.046L199.575 236.424L194.82 237.506L193.609 237.782L194.114 236.65L196.028 232.379Z" fill="#CCCCCC"/>
<path d="M194.114 236.65C194.291 236.728 194.446 236.846 194.569 236.995C194.692 237.143 194.778 237.318 194.82 237.506L193.609 237.782L194.114 236.65Z" fill="#3F3D56"/>
<path d="M349.74 166.552C347.518 169.866 343.962 172.16 340.132 173.297C338.576 173.759 336.97 174.031 335.349 174.107C335.149 172.279 334.67 170.492 333.928 168.808C334.003 170.6 333.753 172.391 333.19 174.095C330.755 173.957 328.375 173.321 326.198 172.226C321.949 170.057 318.679 165.907 317.954 161.2C317.1 155.703 319.599 150.305 320.503 144.816C321.41 139.328 319.707 132.376 314.319 130.934C310.216 129.834 310.676 130.309 307.265 132.835C310.813 138.066 297.707 157.238 292.344 155.566C289.311 154.621 287.37 151.847 286.744 151.847C282.529 159.088 290.466 171.288 282.467 173.822L283.126 173.165C287.954 167.242 277.862 154.707 282.691 148.784C284.038 147.127 285.472 145.164 285.074 143.068C284.697 141.076 281.526 140.022 280.597 141.659C282.268 137.844 279.802 132.752 275.719 131.773C272.092 130.901 272.159 131.975 268.52 132.442C268.282 130.874 267.837 129.344 267.198 127.892C267.264 129.456 267.081 131.022 266.655 132.529C265.369 132.504 264.128 132.056 263.123 131.256C260.156 128.871 260.757 123.862 263.405 121.13C266.058 118.398 269.999 117.415 273.759 116.778C274.851 109.19 295.848 108.398 298.631 115.98C299.816 110.318 306.925 107.38 312.45 109.136C317.975 110.893 321.808 116.038 323.827 121.461C325.845 126.879 326.409 132.711 327.652 138.356C328.896 144.002 330.997 149.751 335.324 153.599C339.651 157.443 346.702 158.716 351.261 155.145C352.699 158.864 351.957 163.233 349.74 166.552Z" fill="#2F2E41"/>
</g>
<defs>
<clipPath id="clip0_13737_18518">
<rect width="352" height="348" fill="white"/>
</clipPath>
</defs>
</svg>
