<svg width="488" height="540" viewBox="0 0 488 540" fill="none" xmlns="http://www.w3.org/2000/svg">
<g clip-path="url(#clip0_11392_84426)">
<path d="M331.945 334.54C598.028 512.314 511.55 578.556 165.972 518.224C75.6778 502.459 -0.000488281 435.986 -0.000488281 334.54C-0.000488281 233.094 74.3081 150.856 165.972 150.856C257.637 150.856 247.508 278.126 331.945 334.54Z" fill="#3F3D56"/>
<path opacity="0.1" d="M355.735 507.727C413.789 507.727 460.851 503.523 460.851 498.336C460.851 493.149 413.789 488.944 355.735 488.944C297.681 488.944 250.619 493.149 250.619 498.336C250.619 503.523 297.681 507.727 355.735 507.727Z" fill="black"/>
<path opacity="0.1" d="M148.422 198.173C179.193 198.173 204.137 193.969 204.137 188.782C204.137 183.595 179.193 179.391 148.422 179.391C117.652 179.391 92.708 183.595 92.708 188.782C92.708 193.969 117.652 198.173 148.422 198.173Z" fill="black"/>
<path opacity="0.1" d="M145.502 211.901C121.597 211.896 98.1781 218.644 77.9506 231.366C57.7232 244.088 41.5126 262.264 31.1914 283.794C43.0557 270.707 57.5378 260.25 73.7021 253.1C89.8663 245.949 107.353 242.265 125.032 242.285C195.001 242.285 251.725 298.926 251.725 368.792C251.753 387.693 247.522 406.359 239.343 423.405C260.524 400.154 272.24 369.839 272.195 338.408C272.195 268.542 215.471 211.901 145.502 211.901Z" fill="black"/>
<path opacity="0.3" d="M251.725 368.239C251.754 387.141 247.522 405.806 239.344 422.853C227.48 435.941 212.997 446.398 196.833 453.548C180.669 460.698 163.182 464.382 145.503 464.363C75.5342 464.363 18.8102 407.722 18.8102 337.856C18.7816 318.954 23.0134 300.288 31.1918 283.242C43.0561 270.154 57.5382 259.697 73.7025 252.547C89.8667 245.397 107.353 241.713 125.033 241.732C195.001 241.732 251.725 298.373 251.725 368.239Z" fill="#48A145"/>
<path d="M145.503 464.984C75.3009 464.984 18.1875 407.954 18.1875 337.856C18.1365 318.859 22.3903 300.096 30.6303 282.973C41.0023 261.337 57.2926 243.072 77.6193 230.288C97.9461 217.503 121.48 210.722 145.503 210.727C215.705 210.727 272.818 267.757 272.818 337.856C272.819 354.551 269.527 371.082 263.129 386.507C256.731 401.931 247.353 415.946 235.53 427.751C223.708 439.557 209.672 448.921 194.225 455.309C178.778 461.697 162.222 464.985 145.503 464.984ZM145.503 211.97C97.2652 211.97 52.6156 240.051 31.7531 283.511C23.5937 300.466 19.3817 319.045 19.4325 337.856C19.4325 407.269 75.9872 463.741 145.503 463.741C162.059 463.742 178.453 460.487 193.749 454.161C209.045 447.835 222.943 438.562 234.65 426.872C246.357 415.183 255.643 401.305 261.979 386.031C268.314 370.758 271.574 354.387 271.573 337.856C271.573 268.442 215.018 211.97 145.503 211.97V211.97Z" fill="white"/>
<path d="M435.353 466.59C426.151 478.607 427.203 494.846 427.203 494.846C427.203 494.846 443.174 491.604 452.376 479.587C461.578 467.571 460.525 451.331 460.525 451.331C460.525 451.331 444.554 454.574 435.353 466.59Z" fill="#D0CDE1"/>
<path d="M441.383 469.289C439.598 484.31 427.51 495.226 427.51 495.226C427.51 495.226 418.318 481.788 420.103 466.767C421.889 451.745 433.976 440.829 433.976 440.829C433.976 440.829 443.169 454.268 441.383 469.289Z" fill="#48A145"/>
<path d="M107.587 117.413C136.459 117.413 159.864 94.0416 159.864 65.2118C159.864 36.382 136.459 13.0108 107.587 13.0108C78.7146 13.0108 55.3091 36.382 55.3091 65.2118C55.3091 94.0416 78.7146 117.413 107.587 117.413Z" fill="#FFCC00"/>
<path d="M220.928 118.434C220.953 170.576 189.919 188.795 151.628 188.813C150.739 188.814 149.854 188.804 148.973 188.785C147.198 188.747 145.442 188.668 143.705 188.545C109.145 186.119 82.2838 166.993 82.2603 118.501C82.2359 68.3182 146.437 4.95697 151.252 0.272011C151.256 0.272011 151.256 0.27201 151.26 0.267752C151.443 0.0891993 151.537 -6.10352e-05 151.537 -6.10352e-05C151.537 -6.10352e-05 220.903 66.2964 220.928 118.434Z" fill="#48A145"/>
<path d="M149.101 180.839L174.442 145.448L149.039 184.723L148.973 188.785C147.199 188.747 145.442 188.668 143.705 188.545L146.411 136.381L146.39 135.977L146.437 135.9L146.694 130.971L121.189 91.6233L146.769 127.279L146.833 128.324L148.878 88.9116L127.04 48.2488L149.142 81.9853L151.252 0.272057L151.26 0.00012207L151.26 0.267798L150.934 64.7071L172.637 39.1504L150.843 70.2566L150.286 105.547L170.555 71.6706L150.208 110.735L149.898 130.358L179.314 83.2029L149.786 137.203L149.101 180.839Z" fill="#3F3D56"/>
<path d="M356.668 148.308C350.023 137.097 336.876 136.574 336.876 136.574C336.876 136.574 324.066 134.939 315.848 152.014C308.188 167.93 297.616 183.297 314.146 187.022L317.131 177.743L318.98 187.713C321.334 187.882 323.695 187.922 326.053 187.834C343.754 187.263 360.612 188.001 360.07 181.658C359.348 173.226 363.062 159.096 356.668 148.308Z" fill="#2F2E41"/>
<path d="M327.352 253.513L329.061 270.58L368.66 266.314L369.515 253.513H327.352Z" fill="#A0616A"/>
<path d="M323.079 262.9L321.939 272.857C321.939 272.857 308.835 291.063 309.974 322.354C311.114 353.646 292.026 492.75 305.701 493.888C319.375 495.026 343.875 496.733 345.015 492.466C346.155 488.199 348.434 326.337 348.434 326.337C348.434 326.337 354.416 492.668 364.672 493.237C374.928 493.806 409.399 494.944 409.399 490.676C409.399 486.409 379.201 295.899 379.201 295.899L374.358 279.968L369.515 260.34C369.515 260.34 339.317 265.461 331.056 263.469C322.794 261.478 323.079 262.9 323.079 262.9Z" fill="#2F2E41"/>
<path d="M336.754 184.103C346.823 184.103 354.986 175.952 354.986 165.897C354.986 155.842 346.823 147.691 336.754 147.691C326.684 147.691 318.521 155.842 318.521 165.897C318.521 175.952 326.684 184.103 336.754 184.103Z" fill="#A0616A"/>
<path d="M368.661 196.05L365.2 201.08L362.983 204.297L359.26 209.705L340.742 211.127C340.742 211.127 336.244 209.676 331.053 207.557C329.136 206.772 327.122 205.896 325.208 204.965C317.781 201.364 311.821 196.969 318.521 194.059C319.711 193.549 320.854 192.936 321.937 192.227C322.923 191.584 323.84 190.842 324.675 190.014C326.391 188.296 327.662 186.187 328.377 183.868C329.092 181.549 329.229 179.09 328.777 176.706L346.725 174.146C346.204 178.692 350.731 183.65 355.804 187.698C357.471 189.032 359.2 190.264 360.827 191.351C365.092 194.201 368.661 196.05 368.661 196.05Z" fill="#A0616A"/>
<path d="M344.16 201.455C344.16 201.455 326.64 198.468 322.652 192.21C322.652 192.21 305.416 194.343 306.841 203.446C308.265 212.549 322.509 262.331 322.509 262.331C322.509 262.331 358.12 255.504 371.225 260.624L379.201 197.188C379.201 197.188 376.352 190.93 370.94 192.637C365.527 194.343 363.39 192.779 363.39 192.779C363.39 192.779 357.265 201.455 344.16 201.455Z" fill="#D0CDE1"/>
<path d="M360.114 301.303C360.114 301.303 372.364 314.958 365.527 317.233C358.69 319.509 350.428 308.13 350.428 308.13L360.114 301.303Z" fill="#A0616A"/>
<path d="M364.102 302.441C364.102 302.441 354.131 309.268 357.835 313.82C361.538 318.371 374.358 309.837 374.358 308.13C374.358 306.424 364.102 302.441 364.102 302.441Z" fill="#A0616A"/>
<path d="M339.603 265.46L331.341 266.883L325.928 226.773C326.241 219.496 326 212.206 325.207 204.965C324.604 200.129 323.595 195.481 321.937 192.227C322.922 191.584 323.84 190.842 324.675 190.014C326.658 193.151 330.276 199.797 331.053 207.557C331.257 209.5 331.258 211.459 331.056 213.403C329.632 226.773 329.917 229.333 329.917 229.333L339.603 265.46Z" fill="#2F2E41"/>
<path d="M320.516 194.628C320.516 194.628 307.126 190.93 305.986 198.895C304.847 206.86 306.271 227.342 309.405 235.022C312.539 242.703 323.364 267.736 323.364 267.736C323.364 267.736 343.022 292.769 343.876 298.743C344.731 304.717 349.004 310.975 349.004 310.975L362.679 302.157L335.899 256.926L324.219 225.635C324.219 225.635 329.062 197.188 320.516 194.628Z" fill="#D0CDE1"/>
<path d="M372.934 195.766L379.202 197.188C379.202 197.188 384.899 221.652 382.62 234.738C380.341 247.823 380.056 252.375 380.056 252.375L378.062 289.64C378.062 289.64 378.632 313.535 374.643 309.837C370.655 306.139 362.678 304.432 362.678 304.432C362.678 304.432 363.533 293.907 366.667 291.347C366.667 291.347 370.37 271.719 368.091 263.185C365.812 254.651 372.934 195.766 372.934 195.766Z" fill="#D0CDE1"/>
<path d="M375.214 223.359L367.949 265.318L363.534 263.469L371.225 223.359L362.984 204.297L355.805 187.698C357.471 189.032 359.2 190.264 360.827 191.351L365.2 201.08L375.214 223.359Z" fill="#2F2E41"/>
<path d="M353.731 147.228L340.743 140.434L322.806 143.213L319.096 159.579L328.333 159.224L330.914 153.212V159.126L335.176 158.962L337.65 149.389L339.196 159.579L354.349 159.27L353.731 147.228Z" fill="#2F2E41"/>
<path d="M328.073 498.336C332.961 498.336 336.924 496.852 336.924 495.021C336.924 493.191 332.961 491.707 328.073 491.707C323.184 491.707 319.221 493.191 319.221 495.021C319.221 496.852 323.184 498.336 328.073 498.336Z" fill="#2F2E41"/>
<path d="M387.823 498.336C392.712 498.336 396.675 496.852 396.675 495.021C396.675 493.191 392.712 491.707 387.823 491.707C382.934 491.707 378.971 493.191 378.971 495.021C378.971 496.852 382.934 498.336 387.823 498.336Z" fill="#2F2E41"/>
<path d="M164.059 403.287C155.004 409.171 144.57 412.595 133.785 413.222C123 413.85 112.238 411.658 102.56 406.864L103.931 404.073C115.596 409.795 128.817 411.543 141.571 409.048C154.325 406.553 165.91 399.954 174.55 390.26C183.191 380.566 188.413 368.312 189.415 355.373C190.418 342.435 187.147 329.524 180.103 318.618C173.059 307.712 162.629 299.412 150.411 294.987C138.194 290.563 124.86 290.258 112.452 294.12C100.045 297.982 89.2461 305.797 81.7097 316.37C74.1733 326.943 70.3143 339.691 70.7234 352.662L67.6121 352.757C67.2675 341.843 69.7936 331.03 74.9387 321.394C80.0838 311.759 87.6681 303.639 96.9357 297.843C106.203 292.047 116.83 288.777 127.758 288.36C138.685 287.944 149.531 290.394 159.214 295.467C168.898 300.541 177.08 308.06 182.947 317.275C188.813 326.49 192.158 337.08 192.648 347.988C193.138 358.896 190.756 369.742 185.74 379.445C180.724 389.148 173.248 397.368 164.059 403.287Z" fill="white"/>
<path d="M135.904 347.083C126.7 349.117 114.451 350.357 105.525 349.062L116.73 357.582L85.3628 377.783L87.0498 380.395L118.417 360.194L121.57 373.903C124.071 365.25 130.254 354.619 135.904 347.083Z" fill="white"/>
</g>
<defs>
<clipPath id="clip0_11392_84426">
<rect width="488" height="540" fill="white"/>
</clipPath>
</defs>
</svg>
