<svg width="25" height="25" viewBox="0 0 25 25" fill="none" xmlns="http://www.w3.org/2000/svg">
<g clip-path="url(#clip0_5909_125344)">
<path d="M18.0243 2.46094H20.0681C20.8637 2.46094 21.6268 2.77701 22.1894 3.33962C22.752 3.90223 23.0681 4.66529 23.0681 5.46094V20.7234C23.0631 21.5158 22.7449 22.2741 22.1828 22.8326C21.6207 23.3912 20.8605 23.7047 20.0681 23.7047H4.18307C3.79174 23.7047 3.40425 23.6276 3.04276 23.4777C2.68127 23.3278 2.35287 23.1082 2.07633 22.8313C1.7998 22.5544 1.58055 22.2257 1.43114 21.864C1.28173 21.5023 1.20508 21.1148 1.20557 20.7234V5.44219C1.20508 5.05086 1.28173 4.66328 1.43114 4.3016C1.58055 3.93992 1.7998 3.61124 2.07633 3.33435C2.35287 3.05747 2.68127 2.83781 3.04276 2.68794C3.40425 2.53808 3.79174 2.46094 4.18307 2.46094H6.43307" fill="#F2F3F8"/>
<path d="M22.6254 5.62594H1.56913C1.50525 5.26761 1.52449 4.8994 1.62538 4.54969C1.76163 4.13701 2.00184 3.76636 2.32288 3.47344C2.82143 2.99385 3.45725 2.68184 4.14163 2.58094H5.97538L6.13288 2.54344C6.08132 2.70388 6.06871 2.8743 6.0961 3.04059C6.12349 3.20688 6.19009 3.36425 6.29038 3.49969C6.38051 3.61308 6.49434 3.70539 6.62389 3.77017C6.75344 3.83494 6.89559 3.87062 7.04038 3.87469C7.35126 3.84606 7.6384 3.69629 7.83977 3.45773C8.04115 3.21917 8.1406 2.91096 8.11663 2.59969H11.0079L11.1204 2.56969C11.0949 2.72042 11.1005 2.87476 11.1367 3.02328C11.1729 3.1718 11.239 3.31138 11.3309 3.43351C11.4229 3.55564 11.5388 3.65774 11.6715 3.73359C11.8042 3.80945 11.951 3.85745 12.1029 3.87469C12.3945 3.83361 12.6584 3.67983 12.8379 3.44635C13.0174 3.21287 13.0982 2.91832 13.0629 2.62594L13.0329 2.55094L16.0704 2.58094H16.2504C16.2166 3.33844 16.7341 3.87469 17.1504 3.87469C17.5666 3.87469 18.1254 3.27094 18.0241 2.46094L18.0654 2.58094H20.0604C20.7293 2.72542 21.3525 3.03189 21.8754 3.47344C22.2418 3.73588 22.5161 4.10727 22.6591 4.53469C22.7537 4.89404 22.742 5.27312 22.6254 5.62594Z" fill="#F7130D"/>
<path d="M7.14554 0.563477H7.02929C6.69585 0.563477 6.42554 0.833785 6.42554 1.16723V2.94098C6.42554 3.27442 6.69585 3.54473 7.02929 3.54473H7.14554C7.47898 3.54473 7.74929 3.27442 7.74929 2.94098V1.16723C7.74929 0.833785 7.47898 0.563477 7.14554 0.563477Z" fill="#F7F7F7"/>
<path d="M11.4617 2.46098V1.22723C11.4627 1.05149 11.5329 0.883237 11.6572 0.758972C11.7814 0.634708 11.9497 0.564461 12.1254 0.563477C12.3012 0.564461 12.4694 0.634708 12.5937 0.758972C12.7179 0.883237 12.7882 1.05149 12.7892 1.22723V2.88098C12.7882 3.05671 12.7179 3.22497 12.5937 3.34923C12.4694 3.4735 12.3012 3.54374 12.1254 3.54473C11.9497 3.54374 11.7814 3.4735 11.6572 3.34923C11.5329 3.22497 11.4627 3.05671 11.4617 2.88098V2.46098Z" fill="#F7F7F7"/>
<path d="M17.2215 0.563477H17.1052C16.7718 0.563477 16.5015 0.833785 16.5015 1.16723V2.94098C16.5015 3.27442 16.7718 3.54473 17.1052 3.54473H17.2215C17.5549 3.54473 17.8252 3.27442 17.8252 2.94098V1.16723C17.8252 0.833785 17.5549 0.563477 17.2215 0.563477Z" fill="#F7F7F7"/>
<path d="M1.20557 14.7497V5.44219C1.20508 5.05086 1.28173 4.66328 1.43114 4.3016C1.58055 3.93992 1.7998 3.61124 2.07633 3.33435C2.35287 3.05747 2.68127 2.83781 3.04276 2.68794C3.40425 2.53808 3.79174 2.46094 4.18307 2.46094H6.43307" stroke="black" stroke-width="0.75" stroke-linejoin="round"/>
<path d="M1.20557 16.25V15.125" stroke="black" stroke-width="0.75" stroke-linejoin="round"/>
<path d="M18.0243 2.46094H20.0681C20.8637 2.46094 21.6268 2.77701 22.1894 3.33962C22.752 3.90223 23.0681 4.66529 23.0681 5.46094V20.7234C23.0631 21.5158 22.7449 22.2741 22.1828 22.8326C21.6207 23.3912 20.8605 23.7047 20.0681 23.7047H4.18307C3.79174 23.7047 3.40425 23.6275 3.04276 23.4777C2.68127 23.3278 2.35287 23.1082 2.07633 22.8313C1.7998 22.5544 1.58055 22.2257 1.43114 21.864C1.28173 21.5024 1.20508 21.1148 1.20557 20.7234V16.9997" stroke="black" stroke-width="0.75" stroke-linejoin="round"/>
<path d="M12.9243 2.46094H16.5018" stroke="black" stroke-width="0.75" stroke-linejoin="round"/>
<path d="M7.84277 2.46094H11.349" stroke="black" stroke-width="0.75" stroke-linejoin="round"/>
<path d="M1.20557 5.85498H23.0493" stroke="black" stroke-width="0.75" stroke-linejoin="round"/>
<path d="M7.14554 0.563477H7.02929C6.69585 0.563477 6.42554 0.833785 6.42554 1.16723V2.94098C6.42554 3.27442 6.69585 3.54473 7.02929 3.54473H7.14554C7.47898 3.54473 7.74929 3.27442 7.74929 2.94098V1.16723C7.74929 0.833785 7.47898 0.563477 7.14554 0.563477Z" stroke="black" stroke-width="0.75" stroke-linejoin="round"/>
<path d="M11.4617 2.46098V1.22723C11.4627 1.05149 11.5329 0.883237 11.6572 0.758972C11.7814 0.634708 11.9497 0.564461 12.1254 0.563477V0.563477C12.3012 0.564461 12.4694 0.634708 12.5937 0.758972C12.7179 0.883237 12.7882 1.05149 12.7892 1.22723V2.88098C12.7882 3.05671 12.7179 3.22497 12.5937 3.34923C12.4694 3.4735 12.3012 3.54374 12.1254 3.54473V3.54473C11.9497 3.54374 11.7814 3.4735 11.6572 3.34923C11.5329 3.22497 11.4627 3.05671 11.4617 2.88098V2.46098Z" stroke="black" stroke-width="0.75" stroke-linejoin="round"/>
<path d="M17.2215 0.563477H17.1052C16.7718 0.563477 16.5015 0.833785 16.5015 1.16723V2.94098C16.5015 3.27442 16.7718 3.54473 17.1052 3.54473H17.2215C17.5549 3.54473 17.8252 3.27442 17.8252 2.94098V1.16723C17.8252 0.833785 17.5549 0.563477 17.2215 0.563477Z" stroke="black" stroke-width="0.75" stroke-linejoin="round"/>
<g style="mix-blend-mode:multiply">
<g style="mix-blend-mode:multiply" opacity="0.25">
<path d="M23.0493 20.705V5.4425C23.0444 4.68526 22.7533 3.95789 22.2345 3.40633C21.7156 2.85478 21.0073 2.51985 20.2518 2.46875C20.4325 4.80949 20.4212 7.1611 20.2181 9.5C20.0718 11.1613 19.8206 12.8488 19.0931 14.3375C18.3387 15.8026 17.1457 16.9956 15.6806 17.75C14.8331 18.185 13.4718 18.8375 8.68307 18.92C3.89432 19.0025 2.50682 18.4513 1.20557 18.905V20.705C1.20508 21.0963 1.28173 21.4839 1.43114 21.8456C1.58055 22.2073 1.7998 22.536 2.07633 22.8128C2.35287 23.0897 2.68127 23.3094 3.04276 23.4592C3.40425 23.6091 3.79174 23.6863 4.18307 23.6863H20.0681C20.8572 23.6813 21.6127 23.3657 22.1707 22.8076C22.7287 22.2496 23.0444 21.4942 23.0493 20.705Z" fill="black"/>
</g>
</g>
<circle cx="6.875" cy="12.125" r="1.125" fill="#2E2E2E"/>
<circle cx="12.125" cy="12.125" r="1.125" fill="#2E2E2E"/>
<circle cx="17.375" cy="12.125" r="1.125" fill="#2E2E2E"/>
<circle cx="6.875" cy="17.375" r="1.125" fill="#2E2E2E"/>
<circle cx="12.125" cy="17.375" r="1.125" fill="#2E2E2E"/>
</g>
<defs>
<clipPath id="clip0_5909_125344">
<rect width="24" height="24" fill="white" transform="translate(0.5 0.5)"/>
</clipPath>
</defs>
</svg>
