<svg width="24" height="25" viewBox="0 0 24 25" fill="none" xmlns="http://www.w3.org/2000/svg">
<path d="M18.1348 11.5579C18.1348 11.5579 18.1104 11.4932 18.1102 11.4927L18.111 11.4923C18.1073 11.4804 17.2758 8.8281 17.2718 8.81516V8.81535C16.4606 6.3651 15.5569 6.55307 15.5569 6.55307L15.557 6.55345C15.284 6.51098 15.024 6.61532 14.8982 6.65338H14.8642C14.9074 7.16057 14.6894 7.66195 14.392 8.00751C12.9916 9.98629 10.1564 10.3472 10.1564 10.3472C10.1564 10.3472 9.69865 10.4082 9.46502 10.4262C7.22205 10.5984 5.85161 9.86076 5.0448 9.09201C4.22271 10.4489 3.85689 11.558 3.85689 11.558C3.26777 13.2095 2.99814 15.2047 4.1598 16.7438L4.15914 16.745C5.01846 17.8522 7.05527 19.1471 9.64343 19.5223L9.64277 19.5216C9.90086 19.5604 10.1678 19.589 10.4417 19.6064V19.6081C10.7766 19.6291 11.1971 19.6303 11.5499 19.6081V19.6064C11.8239 19.589 12.0908 19.5604 12.3489 19.5216L12.3482 19.5223C14.3886 19.2265 16.7194 18.1792 17.8325 16.745L17.8318 16.7438C18.9936 15.2046 18.724 13.2094 18.1348 11.5579Z" fill="#4671C6"/>
<path d="M10.9957 19.8117C10.8013 19.8117 10.607 19.8062 10.43 19.7951C10.4211 19.7946 10.4123 19.7933 10.4038 19.7916C10.1428 19.7744 9.88266 19.7467 9.62981 19.7091C9.62541 19.7089 9.62091 19.7084 9.61641 19.7077C6.97359 19.3246 4.89675 18.0013 4.01091 16.8598C4.00594 16.8534 4.00134 16.8467 3.99731 16.8398C3.01275 15.5211 2.90297 13.6735 3.68006 11.495L3.68297 11.496C3.70969 11.3849 3.78759 11.1796 3.97031 10.759C4.14984 10.3461 4.45406 9.70471 4.88419 8.99493C4.91363 8.94627 4.9635 8.91374 5.01975 8.90624C5.07619 8.89893 5.13281 8.91721 5.17388 8.9564C5.88788 9.63656 7.20956 10.4115 9.45038 10.2394C9.67622 10.222 10.127 10.1622 10.1315 10.1616C10.16 10.1579 12.9038 9.78571 14.2386 7.89937C14.242 7.89449 14.2457 7.88981 14.2495 7.88531C14.5522 7.53384 14.7121 7.07934 14.6771 6.66946C14.6727 6.61715 14.6904 6.5654 14.726 6.52668C14.7614 6.48806 14.8116 6.46602 14.8641 6.46602H14.8694C14.8777 6.4634 14.8865 6.46049 14.8955 6.45759C15.0428 6.40959 15.2852 6.33027 15.5557 6.36412C15.7685 6.34218 16.6691 6.40424 17.4472 8.74912C17.4486 8.75259 17.4497 8.75606 17.4508 8.75962C17.4582 8.78343 18.2841 11.4175 18.2898 11.4361C18.2907 11.4391 18.2917 11.442 18.2923 11.445L18.3101 11.4919C18.3105 11.493 18.311 11.494 18.3113 11.4951C19.0884 13.6736 18.9786 15.5212 17.9941 16.84C17.9901 16.847 17.9855 16.8536 17.9805 16.86C16.7511 18.4442 14.2793 19.4318 12.375 19.7079C12.3705 19.7086 12.366 19.7091 12.3616 19.7093C12.1086 19.7469 11.8483 19.7747 11.5873 19.7918C11.5789 19.7936 11.5703 19.7947 11.5614 19.7953C11.3843 19.8062 11.1899 19.8117 10.9957 19.8117ZM10.4787 19.4224C10.8002 19.4413 11.1913 19.4413 11.513 19.4224C11.5211 19.4207 11.5295 19.4197 11.538 19.4191C11.8021 19.4024 12.0655 19.3744 12.321 19.336C12.3261 19.3353 12.331 19.3347 12.336 19.3343C14.4866 19.019 16.6749 17.9161 17.6719 16.6458C17.675 16.6405 17.6784 16.6356 17.6821 16.6306C18.6115 15.3993 18.7045 13.7143 17.9587 11.6224C17.9545 11.6113 17.9324 11.5524 17.9322 11.5519C17.93 11.5448 17.928 11.5378 17.9265 11.5307C17.8558 11.3053 17.143 9.03168 17.095 8.87859C17.0946 8.87709 17.094 8.87568 17.0935 8.87418C16.3891 6.74634 15.6524 6.7349 15.5918 6.73743C15.5711 6.74146 15.5493 6.74202 15.5278 6.73856C15.3557 6.71184 15.1832 6.7589 15.0566 6.79921C15.0515 7.25877 14.8643 7.74252 14.5395 8.12287C13.1065 10.1395 10.2987 10.518 10.1798 10.5331C10.1619 10.5354 9.71513 10.5948 9.47897 10.613C7.269 10.7824 5.88966 10.0736 5.08838 9.38456C4.36903 10.6161 4.03781 11.6062 4.03444 11.6166C3.28659 13.7135 3.37941 15.399 4.30903 16.6306C4.31278 16.6355 4.31616 16.6405 4.31925 16.6457C5.16431 17.7219 7.13541 18.9653 9.65531 19.3344C9.66028 19.3347 9.66525 19.3353 9.67031 19.336C9.92569 19.3744 10.1891 19.4024 10.4533 19.4191C10.4621 19.4197 10.4706 19.4208 10.4787 19.4224Z" fill="#3762CC"/>
<path d="M14.2577 18.6923C13.3754 18.6923 13.4049 18.6919 13.4049 18.6919L13.4046 18.6923H7.83101C6.35857 18.6923 5.16495 19.8859 5.16495 21.3583C5.16495 22.2602 5.16495 22.8751 5.16495 23.7789H16.9237C16.9237 22.8762 16.9237 22.2604 16.9237 21.3583C16.9237 19.886 15.7301 18.6923 14.2577 18.6923Z" fill="#6BDDDD"/>
<path d="M16.9239 23.9663H5.16489C5.06139 23.9663 4.97739 23.8823 4.97739 23.7788V21.3582C4.97739 19.7847 6.25754 18.5047 7.83095 18.5047H13.3975C13.4008 18.5046 13.4039 18.5047 13.4073 18.5046V18.5044C13.4151 18.5044 13.4951 18.5047 14.2575 18.5047C15.831 18.5047 17.1111 19.7848 17.1111 21.3582V23.7788C17.1114 23.8823 17.0274 23.9663 16.9239 23.9663ZM5.35239 23.5913H16.7363V21.3582C16.7363 19.9916 15.6244 18.8797 14.2577 18.8797L13.5211 18.8795C13.4922 18.8795 13.4619 18.8795 13.4321 18.8776C13.423 18.879 13.4139 18.8797 13.4047 18.8797H7.83104C6.46436 18.8797 5.35248 19.9916 5.35248 21.3582V23.5913H5.35239Z" fill="#3762CC"/>
<path d="M13.4211 18.6924C12.8425 18.6924 9.24927 18.6924 8.67055 18.6924C8.67055 19.7643 9.04339 20.7306 9.69542 21.4889C10.2975 22.1891 11.1487 22.1087 11.0458 22.1087C12.5444 22.1087 13.4211 20.1978 13.4211 18.6924Z" fill="#E0EBFC"/>
<path d="M11.0441 19.6077L12.4756 21.3607C12.6764 21.6067 13.0509 21.611 13.2574 21.3698L15.433 18.9649C14.7576 18.6326 14.2138 18.6921 13.4152 18.6921L11.0441 19.6077Z" fill="#4671C6"/>
<path d="M11.0418 19.6077L9.61024 21.3607C9.40943 21.6067 9.03499 21.611 8.82846 21.3698L6.65289 18.9649C7.32152 18.636 7.83255 18.6921 8.67067 18.6921L11.0418 19.6077Z" fill="#4671C6"/>
<path d="M16.1548 11.1716C15.2364 10.5103 14.2854 9.98194 14.0974 8.53782L14.0606 8.4165C12.5893 10.0361 10.1562 10.3472 10.1562 10.3472C10.1562 10.3472 9.69845 10.4081 9.46482 10.4261C7.94935 10.5425 6.83251 10.2428 6.01792 9.79932C5.92304 10.3267 5.93692 10.6487 5.93692 11.1717C5.92604 11.1715 5.91554 11.1701 5.90467 11.1701C5.04385 11.1701 4.34598 11.8616 4.34598 12.7148C4.34598 13.6269 5.1422 14.3484 6.07192 14.2502C6.59907 16.49 8.6252 18.159 11.0459 18.159C13.4666 18.159 15.4927 16.49 16.0199 14.2502C16.9486 14.3484 17.7458 13.6279 17.7458 12.7148C17.7458 11.8359 17.0102 11.1489 16.1548 11.1716Z" fill="#F9CFCF"/>
<path d="M11.0458 18.346C8.62479 18.346 6.54251 16.7502 5.9277 14.4457C5.48914 14.4513 5.0592 14.2921 4.73154 13.9972C4.36732 13.6695 4.15836 13.2018 4.15836 12.7142C4.15836 11.8111 4.85867 11.0672 5.74892 10.9889C5.74751 10.5582 5.74695 10.2454 5.83329 9.76555C5.84398 9.7063 5.88242 9.65567 5.93679 9.6297C5.99107 9.60364 6.05464 9.60523 6.10751 9.63411C7.02729 10.1349 8.15182 10.3385 9.45036 10.2387C9.67611 10.2214 10.1269 10.1615 10.1314 10.1609C10.156 10.1577 12.5159 9.83764 13.9219 8.28992C13.9672 8.23986 14.036 8.2183 14.1019 8.23311C14.1678 8.24801 14.2206 8.29714 14.2401 8.36173L14.2769 8.48305C14.2799 8.49289 14.282 8.50292 14.2834 8.51314C14.4424 9.73573 15.1622 10.2421 15.9955 10.8285C16.0684 10.8797 16.1416 10.9311 16.2145 10.9834C16.6578 10.9885 17.0905 11.1671 17.4109 11.479C17.7478 11.8071 17.9333 12.2458 17.9333 12.7143C17.9333 13.2019 17.7244 13.6695 17.3603 13.9972C17.038 14.2872 16.6182 14.446 16.1859 14.446C16.1786 14.446 16.1713 14.446 16.1641 14.4459C15.5491 16.7502 13.4668 18.346 11.0458 18.346ZM6.07198 14.0622C6.15804 14.0622 6.23426 14.1214 6.25432 14.2068C6.77604 16.4231 8.74639 17.971 11.0458 17.971C13.3453 17.971 15.3156 16.4231 15.8372 14.2068C15.8588 14.1148 15.9455 14.0527 16.0394 14.0632C16.4305 14.1046 16.8199 13.9789 17.1093 13.7184C17.3945 13.4617 17.5581 13.0956 17.5581 12.7143C17.5581 12.3479 17.4128 12.0046 17.149 11.7476C16.8852 11.4907 16.5272 11.3495 16.1596 11.3587C16.1194 11.3603 16.0784 11.3474 16.045 11.3235C15.9566 11.2598 15.8678 11.1974 15.7795 11.1352C14.9984 10.5856 14.192 10.0182 13.9498 8.7973C12.4455 10.2281 10.2765 10.5204 10.1798 10.5328C10.1619 10.5351 9.71511 10.5946 9.47895 10.6127C8.21436 10.7097 7.1007 10.5318 6.1632 10.0836C6.12195 10.4042 6.1227 10.6624 6.12382 10.9944L6.1242 11.1712C6.1242 11.2217 6.10395 11.27 6.06786 11.3052C6.03176 11.3405 5.98357 11.3604 5.93276 11.3586C5.92479 11.3585 5.91682 11.358 5.90895 11.3574C5.90876 11.3574 5.90848 11.3574 5.90829 11.3574C5.14798 11.3574 4.53326 11.966 4.53326 12.7142C4.53326 13.0956 4.69695 13.4617 4.98232 13.7185C5.27154 13.9789 5.66173 14.1048 6.05201 14.0631C6.05876 14.0625 6.06542 14.0622 6.07198 14.0622Z" fill="#3762CC"/>
<path d="M11.0468 15.9801C10.6991 15.9801 10.3755 15.8549 10.159 15.6367C9.99507 15.4714 9.90479 15.263 9.90479 15.0498C9.90479 14.9463 9.98879 14.8623 10.0923 14.8623C10.1958 14.8623 10.2798 14.9463 10.2798 15.0498C10.2798 15.165 10.3301 15.2766 10.4252 15.3725C10.5697 15.5181 10.8021 15.605 11.0468 15.605C11.2932 15.605 11.5187 15.5202 11.6652 15.3725C11.7604 15.2766 11.8107 15.1649 11.8107 15.0498C11.8107 14.9463 11.8947 14.8623 11.9982 14.8623C12.1017 14.8623 12.1857 14.9463 12.1857 15.0498C12.1857 15.2629 12.0954 15.4714 11.9315 15.6367C11.7149 15.8549 11.3925 15.9801 11.0468 15.9801Z" fill="#3762CC"/>
<path d="M2.72372 16.9719L2.13638 17.046L0.804752 6.48496C0.784315 6.32277 0.899252 6.17465 1.06144 6.15421C1.22363 6.13377 1.37175 6.24871 1.39219 6.4109L2.72372 16.9719Z" fill="#E0EBFC"/>
<path d="M1.2616 15.3005C0.92138 15.3449 0.681567 15.6567 0.726005 15.9968L1.09716 18.8402C1.1416 19.1804 1.45332 19.4202 1.79354 19.3758L4.4971 19.0229C4.83732 18.9785 5.07713 18.6667 5.03269 18.3265L4.66154 15.4832C4.6441 15.3497 4.58513 15.2321 4.49982 15.1406L4.51744 15.1234L3.3675 13.9492C3.22566 13.8044 2.99185 13.7957 2.84504 13.9355C2.51532 14.2495 2.50125 14.7666 2.805 15.0991L1.2616 15.3005Z" fill="#F9CFCF"/>
<path d="M1.7111 19.5689C1.53401 19.5689 1.36273 19.511 1.22004 19.4012C1.04895 19.2696 0.939258 19.0792 0.911321 18.865L0.540071 16.0209C0.482415 15.579 0.794977 15.1725 1.23701 15.1148L2.43785 14.958C2.65188 14.9303 2.86404 14.9872 3.03523 15.1188C3.20641 15.2504 3.31601 15.4408 3.34395 15.6549L3.7152 18.499C3.77285 18.941 3.4602 19.3475 3.01835 19.4051L1.81741 19.5619C1.78188 19.5667 1.74635 19.5689 1.7111 19.5689ZM2.99407 19.2193H2.99501H2.99407ZM2.54332 15.3263C2.52438 15.3263 2.50535 15.3275 2.48632 15.33L1.28548 15.4868C1.17073 15.5018 1.06863 15.5605 0.998133 15.6522C0.927633 15.7439 0.896977 15.8577 0.911977 15.9725L1.28323 18.8166C1.29823 18.9313 1.35701 19.0334 1.4487 19.1039C1.54048 19.1745 1.65448 19.2055 1.76895 19.1901L2.96988 19.0333C3.20679 19.0024 3.37432 18.7845 3.34338 18.5476L2.97213 15.7035C2.95713 15.5888 2.89835 15.4867 2.80666 15.4162C2.73007 15.3574 2.6382 15.3263 2.54332 15.3263Z" fill="#3762CC"/>
<path d="M1.7115 19.5687C1.53432 19.5687 1.36303 19.5108 1.22016 19.4009C1.04888 19.2692 0.939191 19.0787 0.911254 18.8645L0.540097 16.0211C0.51216 15.8069 0.569347 15.5947 0.700972 15.4235C0.832691 15.2523 1.02319 15.1425 1.23741 15.1146L2.48803 14.9512C2.31994 14.5684 2.3986 14.1017 2.71575 13.7996C2.93475 13.5911 3.28735 13.5993 3.50147 13.8179L4.6515 14.992C4.67935 15.0205 4.69641 15.0556 4.7025 15.0922C4.7805 15.2002 4.83019 15.3252 4.84763 15.4588L5.21878 18.3022C5.24672 18.5164 5.18953 18.7286 5.05791 18.8998C4.92619 19.0711 4.73569 19.1808 4.52147 19.2087L1.81791 19.5617C1.78228 19.5665 1.74675 19.5687 1.7115 19.5687ZM3.09722 14.0228C3.0525 14.0228 3.00835 14.0389 2.97432 14.0713C2.72241 14.3113 2.70853 14.7157 2.94338 14.9726C2.99053 15.0243 3.00507 15.0978 2.98107 15.1635C2.95707 15.2291 2.89857 15.276 2.82919 15.2851L1.28588 15.4866C1.04878 15.5175 0.880972 15.7356 0.912003 15.9727L1.28316 18.8161C1.29816 18.9309 1.35694 19.0331 1.44882 19.1037C1.5406 19.1743 1.65441 19.2053 1.76935 19.19L4.47291 18.837C4.58785 18.822 4.68994 18.7632 4.76053 18.6713C4.83113 18.5795 4.86178 18.4657 4.84678 18.3508L4.47563 15.5075C4.46391 15.4177 4.42482 15.3352 4.36266 15.2685C4.34072 15.2451 4.326 15.2173 4.31841 15.1882L3.23344 14.0804C3.19603 14.0422 3.14635 14.0228 3.09722 14.0228ZM1.2616 15.3006H1.26253H1.2616Z" fill="#3762CC"/>
<path d="M8.12139 14.9058C7.52101 14.9058 7.09539 14.7813 6.83195 14.531C6.82942 14.5285 6.8268 14.5259 6.82436 14.5233C6.57826 14.261 6.41186 13.9373 6.34305 13.5873C6.30836 13.4113 6.2988 13.2315 6.31445 13.0529L6.43783 11.6427C6.44767 11.5305 6.50055 11.4288 6.5868 11.3564C6.67314 11.284 6.78273 11.2499 6.89467 11.2594L10.3731 11.5637C10.6972 11.592 10.9377 11.8788 10.9094 12.2029L10.8375 13.025C10.771 13.7851 10.2516 14.6284 9.24123 14.7983C8.81636 14.8699 8.4437 14.9058 8.12139 14.9058ZM7.09408 14.2626C7.30895 14.4632 7.8453 14.6529 9.17898 14.4286C9.9918 14.2918 10.4101 13.6086 10.464 12.9923L10.5359 12.1702C10.5462 12.0521 10.4586 11.9476 10.3405 11.9373L6.86195 11.633C6.8463 11.6323 6.83467 11.6381 6.82792 11.6437C6.82117 11.6495 6.81273 11.6595 6.81133 11.6755L6.68795 13.0857C6.67539 13.2291 6.68317 13.3736 6.71101 13.5151C6.76586 13.7941 6.89833 14.0525 7.09408 14.2626ZM6.5012 13.0693H6.50214H6.5012Z" fill="#3762CC"/>
<path d="M13.9565 14.9154C13.5524 14.9154 13.154 14.8484 12.8462 14.7965C11.9712 14.6493 11.3298 13.9366 11.2499 13.0231L11.178 12.201C11.1497 11.8768 11.3902 11.5901 11.7143 11.5618L15.1928 11.2575C15.3042 11.2477 15.4142 11.2821 15.5005 11.3545C15.5869 11.4269 15.6397 11.5286 15.6496 11.6408L15.773 13.051C15.7886 13.2296 15.779 13.4094 15.7443 13.5855C15.5315 14.6673 14.7336 14.9153 13.9565 14.9154ZM15.2298 11.6309C15.2283 11.6309 15.227 11.631 15.2254 11.6311L11.747 11.9354C11.6898 11.9405 11.6379 11.9674 11.601 12.0114C11.564 12.0554 11.5465 12.1112 11.5515 12.1684L11.6234 12.9905C11.6882 13.7311 12.2045 14.3083 12.9084 14.4268C14.3115 14.663 15.1647 14.589 15.3764 13.5131C15.4041 13.3717 15.4119 13.2273 15.3994 13.0837L15.276 11.6735C15.2746 11.6576 15.2662 11.6475 15.2595 11.6419C15.2534 11.6367 15.2435 11.6309 15.2298 11.6309Z" fill="#3762CC"/>
<path d="M11.8084 12.5459H10.2755C10.172 12.5459 10.088 12.4619 10.088 12.3584C10.088 12.2549 10.172 12.1709 10.2755 12.1709H11.8084C11.9119 12.1709 11.9959 12.2549 11.9959 12.3584C11.9959 12.4619 11.9119 12.5459 11.8084 12.5459Z" fill="#3762CC"/>
<path d="M14.2938 5.54246C13.3553 4.7319 11.3668 3.51671 8.5995 4.49828C7.39969 4.98653 5.75344 6.12465 4.74394 8.77674C5.49225 9.64168 6.91491 10.6217 9.46472 10.426C9.69834 10.4081 10.1561 10.3471 10.1561 10.3471C10.1561 10.3471 12.9913 9.98612 14.3917 8.00734C14.5823 7.7859 14.7176 7.5294 14.8006 7.25725C14.9899 6.63653 14.785 5.96678 14.2938 5.54246Z" fill="#4671C6"/>
<path d="M14.3745 11.9697H13.5953C13.2883 11.9697 13.0387 12.2195 13.0387 12.5263V13.454C13.0387 13.7609 13.2883 14.0106 13.5953 14.0106C13.9021 14.0106 14.1519 13.7609 14.1519 13.454V12.5263C14.1519 12.4776 14.1449 12.4305 14.1331 12.3855H14.3746C14.4894 12.3855 14.5824 12.2924 14.5824 12.1777C14.5824 12.0628 14.4893 11.9697 14.3745 11.9697Z" fill="#4671C6"/>
<path d="M8.51999 11.9709V11.9697H7.74074C7.6259 11.9697 7.5329 12.0628 7.5329 12.1776C7.5329 12.2924 7.62599 12.3854 7.74074 12.3854H7.95871C7.9469 12.4305 7.93996 12.4776 7.93996 12.5262V13.4539C7.93996 13.7608 8.18962 14.0105 8.49655 14.0105C8.8034 14.0105 9.05315 13.7608 9.05315 13.4539V12.5262C9.05315 12.2274 8.81596 11.9833 8.51999 11.9709Z" fill="#4671C6"/>
<path d="M5.5681 19.9267C5.54466 19.7406 5.37469 19.6087 5.1886 19.6321L1.9876 20.0357C1.80141 20.0591 1.6696 20.2291 1.69304 20.4152L2.11716 23.7788H6.05382L5.5681 19.9267Z" fill="#6BDDDD"/>
<path d="M6.05381 23.9663H2.11716C2.02266 23.9663 1.94297 23.896 1.93116 23.8023L1.50703 20.4387C1.47066 20.1503 1.67569 19.8861 1.96407 19.8497L5.16516 19.4461C5.30456 19.4286 5.44303 19.4663 5.55431 19.5527C5.66559 19.639 5.73656 19.7635 5.75409 19.9032L6.23981 23.7554C6.24656 23.8087 6.23006 23.8625 6.19444 23.9029C6.15891 23.9432 6.10762 23.9663 6.05381 23.9663ZM2.28253 23.5913H5.84119L5.38209 19.9501C5.37703 19.9098 5.35659 19.8739 5.32444 19.8488C5.29238 19.8239 5.25234 19.813 5.21213 19.8181L2.01113 20.2217C1.92788 20.2322 1.86863 20.3085 1.87922 20.3917L2.28253 23.5913Z" fill="#3762CC"/>
<path d="M19.2488 1.22168H19.0026C16.7766 1.22168 14.972 3.02627 14.972 5.25227C14.972 6.58099 15.6152 7.75924 16.607 8.49349L16.4762 9.87284C16.4552 10.0942 16.6905 10.2488 16.8853 10.1415L18.5038 9.25099C18.6673 9.27115 18.8335 9.28287 19.0026 9.28287H19.2488C21.4748 9.28287 23.2794 7.47827 23.2794 5.25227C23.2794 3.02627 21.4748 1.22168 19.2488 1.22168Z" fill="#A4C9FF"/>
<path d="M16.7518 10.3634C16.6629 10.3634 16.5742 10.3378 16.4969 10.287C16.3527 10.1923 16.2732 10.0269 16.2895 9.85512L16.4105 8.57955C15.3905 7.78324 14.7845 6.54752 14.7845 5.25227C14.7845 2.92643 16.6768 1.03418 19.0025 1.03418H19.2487C21.5746 1.03418 23.4667 2.92643 23.4667 5.25227C23.4667 7.57812 21.5745 9.47037 19.2487 9.47037H19.0025C18.8518 9.47037 18.7004 9.46184 18.5417 9.4443L16.9757 10.3059C16.9056 10.3443 16.8286 10.3634 16.7518 10.3634ZM19.0025 1.40909C16.8834 1.40909 15.1595 3.13315 15.1595 5.25218C15.1595 6.46465 15.7424 7.61993 16.7186 8.34265C16.7714 8.38174 16.7999 8.44568 16.7937 8.51102L16.6628 9.89037C16.6582 9.93874 16.6892 9.96462 16.7028 9.97352C16.7163 9.98234 16.7525 10.0004 16.7949 9.97718L18.4135 9.08665C18.448 9.06762 18.4876 9.06002 18.5269 9.0649C18.6926 9.08534 18.8481 9.09527 19.0025 9.09527H19.2487C21.3679 9.09527 23.0917 7.3713 23.0917 5.25218C23.0917 3.13305 21.3679 1.40909 19.2487 1.40909H19.0025Z" fill="#3762CC"/>
<path d="M17.3802 7.26674C17.0069 7.26674 16.7383 7.16033 16.6035 6.95896C16.5101 6.81936 16.485 6.64311 16.5289 6.43489C16.6608 5.8093 17.3934 4.99452 18.3952 4.35917C19.2376 3.82489 20.1305 3.50586 20.7837 3.50586C21.157 3.50586 21.4256 3.61227 21.5605 3.81364C21.6538 3.95323 21.679 4.12958 21.6351 4.3377C21.5032 4.9633 20.7706 5.77808 19.7688 6.41342C18.9264 6.94771 18.0335 7.26674 17.3803 7.26674C17.3803 7.26674 17.3803 7.26674 17.3802 7.26674ZM20.7775 3.74839C20.1718 3.74839 19.3313 4.05214 18.529 4.56102C17.4521 5.24399 16.8719 6.01564 16.7745 6.47755C16.7441 6.62211 16.7575 6.73855 16.8145 6.82377C16.901 6.95296 17.1041 7.02411 17.3866 7.02411C17.9923 7.02411 18.8329 6.72036 19.6352 6.21149C20.712 5.52852 21.2923 4.75677 21.3897 4.29495C21.4202 4.15039 21.4068 4.03395 21.3498 3.94873C21.2632 3.81955 21.06 3.74839 20.7775 3.74839Z" fill="#E0EBFC"/>
<path d="M20.7838 7.26674C19.238 7.26664 16.7902 5.57605 16.529 4.3377C16.4851 4.12948 16.5101 3.95314 16.6036 3.81364C16.7383 3.61227 17.0069 3.50586 17.3803 3.50586C18.0336 3.50586 18.9265 3.8248 19.7689 4.35917C20.7707 4.99452 21.5033 5.8093 21.6352 6.43489C21.6791 6.64311 21.654 6.81946 21.5606 6.95896C21.4257 7.16033 21.1572 7.26674 20.7838 7.26674ZM17.3865 3.74839C17.1041 3.74839 16.9009 3.81955 16.8144 3.94873C16.7574 4.03386 16.744 4.15039 16.7744 4.29495C17.006 5.39267 19.3283 7.02411 20.7775 7.02411C21.0599 7.02411 21.2631 6.95296 21.3496 6.82377C21.4066 6.73864 21.42 6.62211 21.3896 6.47755C21.2922 6.01564 20.7118 5.24399 19.6351 4.56102C18.8328 4.05224 17.9922 3.74839 17.3865 3.74839Z" fill="#E0EBFC"/>
<path d="M19.082 5.96402C19.3735 5.96402 19.6099 5.72766 19.6099 5.43611C19.6099 5.14455 19.3735 4.9082 19.082 4.9082C18.7904 4.9082 18.554 5.14455 18.554 5.43611C18.554 5.72766 18.7904 5.96402 19.082 5.96402Z" fill="#4671C6"/>
<path d="M19.082 8.26661C18.7419 8.26661 18.424 7.96427 18.1868 7.41527C17.9526 6.87292 17.8235 6.15227 17.8235 5.38624C17.8235 4.6202 17.9526 3.89955 18.1868 3.3572C18.424 2.8082 18.7419 2.50586 19.082 2.50586C19.422 2.50586 19.7399 2.8082 19.9771 3.3572C20.2114 3.89955 20.3405 4.6202 20.3405 5.38624C20.3405 6.15227 20.2114 6.87292 19.9771 7.41527C19.74 7.96427 19.4221 8.26661 19.082 8.26661ZM19.0821 2.75252C18.8485 2.75252 18.5944 3.02411 18.4022 3.47908C18.1876 3.98702 18.0694 4.66436 18.0694 5.38624C18.0694 6.10811 18.1876 6.78536 18.4022 7.29339C18.5944 7.74836 18.8485 8.01996 19.0821 8.01996C19.3156 8.01996 19.5698 7.74836 19.7619 7.29339C19.9765 6.78536 20.0948 6.10811 20.0948 5.38624C20.0948 4.66436 19.9765 3.98711 19.7619 3.47908C19.5698 3.02411 19.3156 2.75252 19.0821 2.75252Z" fill="#E0EBFC"/>
<path d="M19.082 3.07352C19.3319 3.07352 19.5345 2.87091 19.5345 2.62099C19.5345 2.37106 19.3319 2.16846 19.082 2.16846C18.8321 2.16846 18.6295 2.37106 18.6295 2.62099C18.6295 2.87091 18.8321 3.07352 19.082 3.07352Z" fill="#F9A7A7"/>
<path d="M21.5264 7.2952C21.7764 7.2952 21.979 7.09259 21.979 6.84267C21.979 6.59274 21.7764 6.39014 21.5264 6.39014C21.2765 6.39014 21.0739 6.59274 21.0739 6.84267C21.0739 7.09259 21.2765 7.2952 21.5264 7.2952Z" fill="#EAA97D"/>
<path d="M16.7249 7.2952C16.9748 7.2952 17.1774 7.09259 17.1774 6.84267C17.1774 6.59274 16.9748 6.39014 16.7249 6.39014C16.475 6.39014 16.2724 6.59274 16.2724 6.84267C16.2724 7.09259 16.475 7.2952 16.7249 7.2952Z" fill="#FFEA92"/>
<path d="M8.82113 10.6389C6.59813 10.639 5.30804 9.7154 4.60229 8.89959C4.55719 8.84737 4.54435 8.77462 4.56891 8.71022C5.60147 5.99737 7.29235 4.82803 8.52901 4.32469C11.393 3.30881 13.4466 4.563 14.4166 5.40065C14.9677 5.87672 15.1889 6.627 14.9802 7.31212C14.8874 7.61681 14.7392 7.88962 14.5399 8.12297C13.1069 10.1396 10.2991 10.518 10.1801 10.5332C10.1623 10.5355 9.71551 10.595 9.47935 10.6131C9.25135 10.6306 9.03188 10.6389 8.82113 10.6389ZM4.96013 8.73797C5.6956 9.5445 7.05901 10.4235 9.45038 10.2393C9.67623 10.2219 10.1269 10.162 10.1315 10.1615C10.1601 10.1578 12.9038 9.78562 14.2387 7.89928C14.2421 7.8944 14.2458 7.88972 14.2496 7.88522C14.4178 7.68994 14.5428 7.46044 14.6214 7.2029C14.7869 6.65972 14.6102 6.06365 14.1713 5.68462C13.2629 4.90003 11.3394 3.72572 8.66223 4.67522C7.51848 5.14087 5.94769 6.22659 4.96013 8.73797Z" fill="#3762CC"/>
<path d="M4.86374 19.6732L4.76521 18.9185C4.68712 18.9718 4.5973 19.0102 4.49708 19.0234L2.06737 19.3405L2.1554 20.0148L4.86374 19.6732Z" fill="#F9CFCF"/>
<path d="M2.15511 20.2017C2.0623 20.2017 1.98177 20.1329 1.96939 20.0385L1.88136 19.3642C1.87498 19.3149 1.88839 19.265 1.91867 19.2257C1.94895 19.1863 1.99377 19.1605 2.04308 19.154L4.4728 18.8369C4.53739 18.8284 4.6002 18.8037 4.65936 18.7632C4.71317 18.7263 4.78236 18.7202 4.8417 18.7468C4.90123 18.7734 4.94267 18.829 4.95111 18.8937L5.04964 19.6484C5.05611 19.6978 5.04252 19.7478 5.01205 19.7872C4.98158 19.8266 4.93658 19.8524 4.88708 19.8587L2.17864 20.2002C2.17086 20.2012 2.16298 20.2017 2.15511 20.2017ZM2.27755 19.5017L2.31711 19.8048L4.65345 19.5103L4.61183 19.1914C4.58211 19.199 4.55192 19.2048 4.52136 19.2089L2.27755 19.5017Z" fill="#3762CC"/>
<path d="M8.67055 17.5781V18.6923L11.0418 19.6079H11.044L13.4152 18.6923H13.4211V17.5781C11.942 18.3501 10.1608 18.3559 8.67055 17.5781Z" fill="#4671C6"/>
<path d="M8.67055 17.5781V18.6923L11.0418 19.6079H11.044L13.4152 18.6923H13.4211V17.5781C11.942 18.3501 10.1608 18.3559 8.67055 17.5781Z" fill="#F9CFCF"/>
<path d="M11.044 19.7955C11.0209 19.7955 10.9957 19.7913 10.9742 19.783L8.60306 18.8672C8.53078 18.8393 8.48315 18.7698 8.48315 18.6923V17.5781C8.48315 17.5126 8.51737 17.4518 8.57344 17.4178C8.62959 17.3839 8.69925 17.3815 8.75737 17.4119C10.1902 18.1597 11.9013 18.1598 13.3343 17.4119C13.3925 17.3815 13.4621 17.3838 13.5184 17.4178C13.5744 17.4519 13.6087 17.5126 13.6087 17.5781V18.6923C13.6087 18.782 13.5457 18.8569 13.4616 18.8755L11.1117 19.783C11.09 19.7913 11.0671 19.7955 11.044 19.7955ZM8.85806 18.5637L11.0428 19.4075L13.2336 18.5615V17.8778C11.8435 18.5047 10.248 18.5047 8.85806 17.8778V18.5637Z" fill="#3762CC"/>
<path d="M12.8703 21.7355C12.8675 21.7355 12.8647 21.7355 12.862 21.7355C12.655 21.7331 12.4612 21.6397 12.3303 21.4794L10.8987 19.7263C10.8607 19.6797 10.8473 19.6179 10.8627 19.5597C10.8781 19.5016 10.9204 19.4545 10.9764 19.4328L13.3476 18.5172C13.3692 18.5088 13.3922 18.5046 13.4152 18.5046C13.5235 18.5046 13.6272 18.5035 13.727 18.5024C14.3786 18.4956 14.8925 18.4901 15.5157 18.7967C15.5685 18.8227 15.6061 18.8719 15.6171 18.9297C15.6281 18.9874 15.6114 19.047 15.572 19.0907L13.3965 21.4956C13.2669 21.647 13.0744 21.7355 12.8703 21.7355ZM11.3528 19.6895L12.6208 21.2422C12.6814 21.3163 12.7709 21.3594 12.8664 21.3605C12.9614 21.3655 13.0527 21.3206 13.1149 21.2479L15.1184 19.0331C14.6721 18.8673 14.2647 18.8716 13.731 18.8773C13.6406 18.8783 13.5472 18.8793 13.4502 18.8795L11.3528 19.6895Z" fill="#3762CC"/>
<path d="M9.21546 21.7356C9.01146 21.7356 8.8189 21.647 8.68606 21.4918L6.51377 19.0908C6.47431 19.0472 6.45762 18.9875 6.46868 18.9297C6.47974 18.872 6.51734 18.8227 6.57012 18.7968C7.1899 18.4918 7.67805 18.4963 8.35474 18.5027C8.45506 18.5036 8.55996 18.5047 8.67068 18.5047C8.69384 18.5047 8.71671 18.5089 8.73827 18.5172L11.1094 19.4329C11.1655 19.4545 11.2077 19.5017 11.2231 19.5598C11.2385 19.618 11.2251 19.6798 11.1871 19.7264L9.75556 21.4795C9.62459 21.6398 9.43081 21.7331 9.22371 21.7356C9.2209 21.7356 9.21818 21.7356 9.21546 21.7356ZM6.96715 19.0329L8.96749 21.244C9.03312 21.3205 9.12199 21.3624 9.21931 21.3605C9.31502 21.3594 9.40456 21.3162 9.46502 21.2422L10.733 19.6895L8.63562 18.8795C8.53652 18.8793 8.44202 18.8785 8.35118 18.8776C7.79862 18.8726 7.4059 18.8688 6.96715 19.0329Z" fill="#3762CC"/>
</svg>
