<svg width="24" height="25" viewBox="0 0 24 25" fill="none" xmlns="http://www.w3.org/2000/svg">
<path d="M20.8048 11.3348C21.7855 10.3502 22.3813 9.06146 22.3813 7.64968C22.3813 4.55828 19.5312 2.05225 16.0153 2.05225C14.4243 2.05225 12.9707 2.56665 11.8547 3.41518L10.8258 4.40978C10.0859 5.32431 9.64931 6.4419 9.64931 7.64968C9.64931 10.7411 12.4995 13.2471 16.0153 13.2471C16.5979 13.2471 17.1615 13.1769 17.6976 13.0481L21.4278 14.276C21.6761 14.3578 21.9071 14.1126 21.8107 13.8695L20.8048 11.3348Z" fill="#87796F"/>
<path d="M20.9693 11.368C21.9713 10.3307 22.5219 9.01365 22.5219 7.64968C22.5219 4.48571 19.6031 1.91162 16.0154 1.91162C14.4578 1.91162 12.95 2.40578 11.7697 3.30325C11.7078 3.35021 11.6958 3.43843 11.7428 3.50031C11.7899 3.56209 11.878 3.57418 11.9399 3.52712C13.0716 2.66678 14.5189 2.19296 16.0154 2.19296C19.4481 2.19296 22.2407 4.64087 22.2407 7.64978C22.2407 8.968 21.6954 10.2415 20.7053 11.2357C20.6657 11.2754 20.6535 11.3348 20.6741 11.3868L21.68 13.9216C21.7046 13.9836 21.692 14.0497 21.6462 14.0984C21.6005 14.147 21.5352 14.1636 21.4718 14.1426L17.7416 12.9147C17.7169 12.9066 17.6902 12.9054 17.6648 12.9115C17.1263 13.041 16.5713 13.1067 16.0155 13.1067C12.5828 13.1067 9.79013 10.6588 9.79013 7.64987C9.79013 6.51418 10.1861 5.42443 10.9353 4.49837C10.9841 4.438 10.9748 4.3495 10.9144 4.30065C10.854 4.25181 10.7655 4.26118 10.7167 4.32156C9.92654 5.29815 9.50888 6.44912 9.50888 7.64987C9.50888 10.8138 12.4277 13.3879 16.0155 13.3879C16.58 13.3879 17.1436 13.3228 17.6915 13.1943L21.384 14.4098C21.431 14.4253 21.479 14.4329 21.5262 14.4329C21.6473 14.4329 21.7642 14.3835 21.8511 14.2913C21.9718 14.1631 22.0065 13.9817 21.9416 13.818L20.9693 11.368Z" fill="#3A312A"/>
<path d="M7.98468 10.7075C5.81896 10.7075 3.90702 11.6593 2.75709 13.1121L2.02096 14.3448C1.76146 14.955 1.61877 15.6152 1.61877 16.305C1.61877 17.7167 2.21446 19.0054 3.19527 19.9901L2.18943 22.5248C2.09296 22.7679 2.32396 23.0131 2.57231 22.9313L6.30252 21.7034C6.83859 21.8323 7.40221 21.9024 7.98477 21.9024C11.5006 21.9024 14.3508 19.3964 14.3508 16.305C14.3507 13.2136 11.5005 10.7075 7.98468 10.7075Z" fill="#F16C7A"/>
<path d="M7.98468 10.5669C5.8604 10.5669 3.86503 11.4857 2.64675 13.0247C2.59856 13.0857 2.60887 13.1741 2.66972 13.2223C2.73065 13.2705 2.81906 13.2602 2.86725 13.1993C4.03256 11.7271 5.94562 10.8481 7.98459 10.8481C11.4172 10.8481 14.2099 13.296 14.2099 16.3049C14.2099 19.3138 11.4172 21.7617 7.98459 21.7617C7.42884 21.7617 6.87384 21.6961 6.33515 21.5665C6.30984 21.5605 6.28322 21.5616 6.25828 21.5697L2.52815 22.7976C2.46478 22.8185 2.39953 22.8019 2.35369 22.7533C2.30794 22.7046 2.29528 22.6386 2.31994 22.5766L3.32578 20.0418C3.3465 19.9898 3.33422 19.9305 3.29475 19.8907C2.30456 18.8966 1.75922 17.6231 1.75922 16.3048C1.75922 15.6507 1.89075 15.0097 2.15025 14.3997C2.18062 14.3282 2.14734 14.2456 2.07581 14.2153C2.00447 14.1849 1.92178 14.2182 1.8914 14.2896C1.61709 14.9346 1.47797 15.6126 1.47797 16.3048C1.47797 17.6688 2.02865 18.9857 3.03065 20.0231L2.05856 22.4728C1.99359 22.6365 2.02819 22.8179 2.14903 22.9461C2.23584 23.0384 2.35284 23.0878 2.47387 23.0878C2.52112 23.0878 2.56912 23.0802 2.61609 23.0647L6.30844 21.8492C6.8564 21.9778 7.42003 22.0428 7.9845 22.0428C11.5722 22.0428 14.491 19.4687 14.491 16.3048C14.491 13.1408 11.5724 10.5669 7.98468 10.5669Z" fill="#3A312A"/>
<path d="M18.8327 9.96899C18.8234 9.90439 18.8003 9.81655 18.7634 9.70564L16.9156 4.40689C16.8971 4.34839 16.8747 4.30227 16.8486 4.26824C16.8224 4.23439 16.7793 4.20899 16.7192 4.19202C16.6591 4.17514 16.5752 4.16436 16.4675 4.15968C16.3597 4.15508 16.2149 4.15283 16.0332 4.15283C15.8761 4.15283 15.7499 4.15508 15.6544 4.15968C15.5589 4.16436 15.4842 4.17514 15.4303 4.19202C15.3764 4.20908 15.3371 4.23364 15.3125 4.26599C15.2878 4.29833 15.2663 4.34071 15.2479 4.39293L13.4047 9.69627C13.3676 9.80408 13.3446 9.89024 13.3354 9.95502C13.3261 10.0196 13.3369 10.0698 13.3677 10.1052C13.3985 10.1406 13.454 10.1629 13.534 10.1721C13.6141 10.1814 13.7249 10.186 13.8667 10.186C13.999 10.186 14.1061 10.1829 14.1877 10.1767C14.2693 10.1706 14.3324 10.159 14.377 10.1421C14.4217 10.1252 14.454 10.1021 14.4741 10.0729C14.494 10.0435 14.5102 10.0074 14.5226 9.9643L14.9014 8.79552H17.1465L17.5484 9.99664C17.5607 10.0368 17.5762 10.069 17.5946 10.0937C17.6131 10.1183 17.6454 10.1376 17.6917 10.1513C17.7378 10.1652 17.8048 10.1745 17.8926 10.1791C17.9803 10.1838 18.1027 10.186 18.2598 10.186C18.4106 10.186 18.5292 10.1821 18.6155 10.1745C18.7017 10.1667 18.7617 10.1467 18.7957 10.1144C18.8296 10.0821 18.842 10.0337 18.8327 9.96899ZM15.1693 7.86243L16.0147 5.32161H16.0194L16.8648 7.86243H15.1693Z" fill="#FCE8CB"/>
<path d="M16.1528 5.27727C16.1338 5.2198 16.0753 5.18108 16.0147 5.18108C15.9543 5.18108 15.9004 5.21989 15.8813 5.27727L15.0359 7.81808C15.0216 7.86102 15.0288 7.90808 15.0552 7.94474C15.0816 7.98139 15.124 8.00314 15.1693 8.00314H16.8647C16.9099 8.00314 16.9523 7.98149 16.9788 7.94474C17.0052 7.90808 17.0123 7.86093 16.9981 7.81808L16.1528 5.27727ZM15.3644 7.7218L16.0171 5.76008L16.6698 7.7218H15.3644ZM18.972 9.94911C18.9614 9.87514 18.9368 9.78102 18.8968 9.66121C18.8966 9.66064 18.8964 9.65999 18.8961 9.65933L17.0497 4.36452C17.0261 4.28989 16.9969 4.23036 16.9598 4.18227C16.915 4.12433 16.8471 4.08205 16.7572 4.05664C16.6859 4.03668 16.5932 4.02439 16.4735 4.01924C16.3641 4.01455 16.216 4.01221 16.0333 4.01221C15.8748 4.01221 15.745 4.01455 15.6476 4.01924C15.5392 4.02449 15.4545 4.03714 15.3881 4.05796C15.3063 4.08383 15.2432 4.12508 15.2008 4.18077C15.1671 4.22511 15.1392 4.27911 15.1152 4.3468L13.2718 9.65071C13.2316 9.76789 13.2069 9.86099 13.1962 9.93514C13.1773 10.068 13.2214 10.1512 13.2616 10.1974C13.3167 10.2608 13.4005 10.2982 13.518 10.3118C13.6044 10.3218 13.7185 10.3266 13.8667 10.3266C14.0016 10.3266 14.1132 10.3234 14.1985 10.317C14.2944 10.3097 14.3692 10.2955 14.4268 10.2737C14.4987 10.2466 14.5537 10.2057 14.5904 10.1521C14.6188 10.1105 14.6415 10.0603 14.6565 10.0076L15.0037 8.93614H17.0453L17.4141 10.0377C17.431 10.093 17.454 10.1403 17.4823 10.1781C17.5191 10.2271 17.5761 10.2635 17.6511 10.2859C17.7087 10.3032 17.7854 10.3142 17.8852 10.3194C17.9757 10.3242 18.0982 10.3266 18.26 10.3266C18.4132 10.3266 18.537 10.3225 18.6283 10.3145C18.7483 10.3036 18.8348 10.2714 18.8931 10.2159C18.9399 10.1712 18.9919 10.0883 18.972 9.94911ZM18.6033 10.0345C18.5205 10.0418 18.405 10.0455 18.26 10.0455C18.1056 10.0455 17.9845 10.0432 17.9001 10.0387C17.8052 10.0338 17.7565 10.0241 17.7321 10.0167C17.7159 10.0118 17.7077 10.0075 17.7063 10.0075C17.7061 10.0075 17.7061 10.0075 17.706 10.0076C17.7008 10.0003 17.6919 9.98446 17.6819 9.95202L17.28 8.75089C17.2608 8.69352 17.2071 8.65489 17.1466 8.65489H14.9015C14.8405 8.65489 14.7864 8.69418 14.7677 8.75221L14.3874 9.92558C14.3794 9.95389 14.3694 9.97686 14.3581 9.99346C14.358 9.99355 14.3518 10.0013 14.3272 10.0106C14.3054 10.019 14.2615 10.0301 14.1771 10.0366C14.099 10.0425 13.9945 10.0454 13.8666 10.0454C13.7312 10.0454 13.6247 10.0411 13.5501 10.0324C13.4945 10.026 13.4758 10.0141 13.4746 10.0141C13.4738 10.0121 13.4707 10.0011 13.4745 9.97489C13.4824 9.91921 13.5036 9.84083 13.5374 9.74249L15.3803 4.4398C15.3973 4.39189 15.4135 4.36518 15.4243 4.35111C15.4253 4.3498 15.4352 4.3378 15.4723 4.32608C15.5014 4.31699 15.5577 4.30508 15.6611 4.30002C15.7538 4.29561 15.8791 4.29336 16.0332 4.29336C16.212 4.29336 16.3561 4.29561 16.4614 4.30011C16.5814 4.30536 16.6471 4.31774 16.6808 4.32721C16.7259 4.34005 16.7369 4.35364 16.7371 4.35383C16.7481 4.36827 16.7649 4.39658 16.7828 4.45311L18.6303 9.75093C18.6642 9.85264 18.6855 9.93271 18.6935 9.98868C18.6955 10.003 18.6952 10.0116 18.6961 10.0139C18.6878 10.0185 18.6621 10.0293 18.6033 10.0345Z" fill="#3A312A"/>
<path d="M10.556 14.4153C10.556 14.1312 10.3257 13.9009 10.0417 13.9009H8.5034V13.4279C8.5034 13.1438 8.27315 12.9136 7.98909 12.9136C7.70503 12.9136 7.47478 13.1438 7.47478 13.4279V13.9009H5.93643C5.65237 13.9009 5.42212 14.1312 5.42212 14.4153C5.42212 14.6993 5.65246 14.9296 5.93643 14.9296H6.23315C6.19631 15.9413 6.55349 16.9023 7.18406 17.6382C6.92559 17.7774 6.6419 17.8799 6.33824 17.9366C6.05896 17.9887 5.87484 18.2574 5.92696 18.5366C5.97318 18.784 6.18918 18.9567 6.43199 18.9567C6.46331 18.9567 6.49499 18.9538 6.52696 18.9479C7.06621 18.8473 7.55934 18.6404 7.98909 18.3534C8.41884 18.6404 8.91187 18.8473 9.45112 18.9479C9.48299 18.9538 9.51478 18.9567 9.54609 18.9567C9.7889 18.9567 10.0049 18.784 10.0511 18.5366C10.1032 18.2574 9.91912 17.9887 9.63984 17.9366C9.33618 17.88 9.05249 17.7774 8.79403 17.6382C9.42459 16.9023 9.78178 15.9413 9.74493 14.9296H10.0417C10.3257 14.9297 10.556 14.6993 10.556 14.4153ZM7.98909 16.997C7.49981 16.4407 7.2254 15.7041 7.26346 14.9297H8.71481C8.75278 15.7041 8.47828 16.4407 7.98909 16.997Z" fill="#FCE8CB"/>
<path d="M8.71471 14.7889H7.26337C7.18837 14.7889 7.12659 14.8476 7.12293 14.9225C7.08384 15.718 7.35393 16.4877 7.88343 17.0898C7.91015 17.1201 7.94859 17.1375 7.98909 17.1375C8.02949 17.1375 8.06803 17.12 8.09465 17.0898C8.62415 16.4876 8.89424 15.718 8.85515 14.9225C8.85149 14.8476 8.78971 14.7889 8.71471 14.7889ZM7.98909 16.7767C7.60556 16.286 7.39968 15.6896 7.40053 15.0701H8.57765C8.5784 15.6895 8.37253 16.2859 7.98909 16.7767ZM10.0417 15.0701C10.4028 15.0701 10.6966 14.7763 10.6966 14.4152C10.6966 14.054 10.4028 13.7602 10.0417 13.7602H8.64403V13.4279C8.64403 13.0668 8.35021 12.7729 7.98909 12.7729C7.62787 12.7729 7.33406 13.0668 7.33406 13.4279V13.7602H5.93643C5.57531 13.7602 5.28149 14.054 5.28149 14.4152C5.28149 14.7763 5.57531 15.0701 5.93643 15.0701H6.0899C6.08924 15.9837 6.3959 16.8679 6.96356 17.5911C6.75628 17.6868 6.53793 17.7562 6.31237 17.7983C5.95743 17.8647 5.72249 18.2074 5.78868 18.5624C5.84653 18.8723 6.11709 19.0973 6.43199 19.0973C6.4724 19.0973 6.51299 19.0936 6.55274 19.0862C7.06743 18.9902 7.55024 18.8002 7.98909 18.5213C8.42793 18.8002 8.91065 18.9902 9.42534 19.0862C9.46509 19.0936 9.50568 19.0973 9.54609 19.0973C9.86099 19.0973 10.1316 18.8724 10.1894 18.5624C10.2556 18.2074 10.0207 17.8647 9.66571 17.7984C9.44015 17.7563 9.2219 17.6869 9.01453 17.5912C9.58218 16.8679 9.88884 15.9838 9.88818 15.0702H10.0417V15.0701ZM9.64368 14.8318C9.61715 14.8593 9.60299 14.8963 9.6044 14.9345C9.63918 15.8881 9.3134 16.8157 8.68724 17.5465C8.65959 17.5789 8.64806 17.622 8.65584 17.6637C8.66362 17.7055 8.68996 17.7416 8.72737 17.7618C9.00506 17.9114 9.30337 18.0167 9.61396 18.0746C9.81656 18.1125 9.95062 18.308 9.91284 18.5105C9.87984 18.6874 9.72553 18.8158 9.54599 18.8158C9.52284 18.8158 9.49959 18.8136 9.47681 18.8094C8.96906 18.7146 8.49468 18.5219 8.06709 18.2362C8.04346 18.2205 8.01618 18.2126 7.98899 18.2126C7.96171 18.2126 7.93453 18.2205 7.9109 18.2362C7.48321 18.5218 7.00893 18.7146 6.50109 18.8094C6.47831 18.8136 6.45506 18.8158 6.4319 18.8158C6.25237 18.8158 6.09815 18.6874 6.06506 18.5105C6.02728 18.3079 6.16134 18.1124 6.36393 18.0746C6.67453 18.0166 6.97293 17.9114 7.25062 17.7618C7.28803 17.7416 7.31437 17.7055 7.32215 17.6637C7.32993 17.6219 7.3184 17.5788 7.29065 17.5465C6.66449 16.8157 6.33881 15.8881 6.37349 14.9345C6.3749 14.8964 6.36065 14.8593 6.33421 14.8318C6.30768 14.8043 6.27121 14.7888 6.23296 14.7888H5.93624C5.73018 14.7888 5.56256 14.6211 5.56256 14.4151C5.56256 14.209 5.73018 14.0414 5.93624 14.0414H7.47468C7.5524 14.0414 7.61531 13.9785 7.61531 13.9008V13.4278C7.61531 13.2217 7.78303 13.0541 7.98909 13.0541C8.19515 13.0541 8.36278 13.2217 8.36278 13.4278V13.9008C8.36278 13.9785 8.42568 14.0414 8.5034 14.0414H10.0417C10.2477 14.0414 10.4153 14.209 10.4153 14.4151C10.4153 14.6211 10.2477 14.7888 10.0417 14.7888H9.74493C9.70678 14.7889 9.67021 14.8043 9.64368 14.8318Z" fill="#3A312A"/>
<path d="M20.6739 11.3865C20.6533 11.3349 20.6655 11.2759 20.7049 11.2355C21.6949 10.2418 22.2405 8.96867 22.2405 7.64961C22.2405 4.64117 19.4477 2.19336 16.0155 2.19336C15.7802 2.19336 15.5458 2.20461 15.3143 2.22898C18.4155 2.53648 20.8343 4.85023 20.8343 7.64961C20.8343 8.96867 20.2886 10.2418 19.2986 11.2355C19.2593 11.2759 19.2471 11.3349 19.2677 11.3865L20.1949 13.7218L21.4718 14.1427C21.5355 14.1634 21.6002 14.1474 21.6461 14.0987C21.6921 14.0499 21.7043 13.9834 21.6799 13.9215L20.6739 11.3865Z" fill="#695B51"/>
<path d="M7.98488 10.8481C7.74863 10.8481 7.51519 10.8603 7.28363 10.8838C10.3849 11.1913 12.8036 13.505 12.8036 16.3053C12.8036 19.1047 10.3849 21.4185 7.28363 21.726C7.51613 21.7503 7.7505 21.7616 7.98488 21.7616C11.4171 21.7616 14.2099 19.3138 14.2099 16.3053C14.2099 13.2961 11.4171 10.8481 7.98488 10.8481Z" fill="#D34E5C"/>
<path d="M7.12134 5.22949C7.02271 6.40052 5.80237 6.5854 5.80237 6.5854C6.85012 6.63471 7.11131 8.00918 7.11131 8.00918C7.13371 7.02921 8.46037 6.57096 8.46037 6.57096C7.46643 6.51152 7.12134 5.22949 7.12134 5.22949Z" fill="#D6DF58"/>
<path d="M8.46862 6.43047C7.58906 6.37787 7.26028 5.20459 7.257 5.19269C7.23918 5.12687 7.17759 5.08366 7.10859 5.08937C7.04062 5.09556 6.9869 5.14956 6.98119 5.21753C6.89325 6.26106 5.82637 6.43919 5.78128 6.44622C5.70975 6.457 5.65819 6.52028 5.66194 6.59256C5.66569 6.66475 5.72353 6.72231 5.79581 6.72578C6.71906 6.76919 6.97078 8.02272 6.97322 8.03547C6.98606 8.10212 7.04437 8.14956 7.11122 8.14956C7.11515 8.14956 7.119 8.14947 7.12303 8.14909C7.19465 8.14309 7.25025 8.08412 7.25193 8.01222C7.27181 7.14259 8.49403 6.70787 8.5064 6.70365C8.56969 6.68162 8.60878 6.61797 8.59959 6.5515C8.59031 6.48522 8.53556 6.4345 8.46862 6.43047ZM7.09481 7.49387C6.95756 7.16894 6.71315 6.76731 6.3014 6.5679C6.60553 6.42625 6.97509 6.16619 7.15668 5.70287C7.31372 6.02097 7.58934 6.42662 8.02753 6.61253C7.71647 6.77912 7.29984 7.06806 7.09481 7.49387Z" fill="#3A312A"/>
<path d="M4.92384 6.94922C4.85409 7.7775 3.99094 7.90828 3.99094 7.90828C4.73203 7.94316 4.91672 8.91534 4.91672 8.91534C4.93256 8.22216 5.87091 7.89806 5.87091 7.89806C5.16806 7.85597 4.92384 6.94922 4.92384 6.94922Z" fill="#D6DF58"/>
<path d="M5.87934 7.75717C5.28759 7.72183 5.06213 6.9213 5.05959 6.91202C5.04178 6.84611 4.97925 6.80242 4.91128 6.8087C4.84322 6.8148 4.7895 6.86899 4.78378 6.93696C4.72444 7.64186 4.00031 7.76402 3.96994 7.7688C3.89841 7.77958 3.84684 7.84286 3.85059 7.91514C3.85434 7.98733 3.91219 8.04489 3.98447 8.04836C4.60463 8.07752 4.77713 8.9328 4.77872 8.94114C4.79138 9.00799 4.84988 9.05552 4.91672 9.05552C4.92066 9.05552 4.9245 9.05542 4.92844 9.05505C5.00016 9.04914 5.05575 8.98999 5.05744 8.91808C5.07084 8.33195 5.90869 8.03336 5.91713 8.03046C5.98041 8.00842 6.01941 7.94467 6.01022 7.8783C6.00103 7.81192 5.94628 7.76121 5.87934 7.75717ZM4.90828 8.45758C4.8135 8.25836 4.66416 8.03627 4.43672 7.89892C4.63359 7.79186 4.83113 7.62405 4.95169 7.37749C5.06025 7.57511 5.229 7.79974 5.47547 7.93005C5.28084 8.04349 5.05003 8.2173 4.90828 8.45758Z" fill="#3A312A"/>
<path d="M4.92384 4.24951C4.85409 5.07779 3.99094 5.20857 3.99094 5.20857C4.73203 5.24345 4.91672 6.21564 4.91672 6.21564C4.93256 5.52245 5.87091 5.19836 5.87091 5.19836C5.16806 5.15626 4.92384 4.24951 4.92384 4.24951Z" fill="#D6DF58"/>
<path d="M5.87934 5.05788C5.28759 5.02253 5.06213 4.222 5.05959 4.21272C5.04178 4.14682 4.97925 4.1036 4.91128 4.10941C4.84322 4.1155 4.7895 4.16969 4.78378 4.23766C4.72444 4.94257 4.00031 5.06472 3.96994 5.0695C3.89841 5.08028 3.84684 5.14357 3.85059 5.21585C3.85434 5.28803 3.91219 5.3456 3.98447 5.34907C4.60463 5.37822 4.77713 6.2335 4.77872 6.24185C4.79138 6.30869 4.84988 6.35622 4.91672 6.35622C4.92066 6.35622 4.9245 6.35613 4.92844 6.35575C5.00016 6.34985 5.05575 6.29069 5.05744 6.21878C5.07084 5.63266 5.90869 5.33407 5.91713 5.33116C5.98041 5.30913 6.01941 5.24538 6.01022 5.179C6.00103 5.11263 5.94628 5.06191 5.87934 5.05788ZM4.90828 5.75828C4.8135 5.55907 4.66416 5.33697 4.43672 5.19963C4.63359 5.09257 4.83113 4.92475 4.95169 4.67819C5.06025 4.87582 5.229 5.10044 5.47547 5.23075C5.28084 5.34419 5.05003 5.518 4.90828 5.75828Z" fill="#3A312A"/>
</svg>
