<svg width="24" height="25" viewBox="0 0 24 25" fill="none" xmlns="http://www.w3.org/2000/svg">
<path fill-rule="evenodd" clip-rule="evenodd" d="M12 3.5C16.9706 3.5 21 7.52944 21 12.5C21 17.4706 16.9706 21.5 12 21.5C7.02942 21.5 2.99998 17.4706 2.99998 12.5C2.99998 7.52944 7.02942 3.5 12 3.5Z" fill="#7E7E7E"/>
<path fill-rule="evenodd" clip-rule="evenodd" d="M12 4.68896C14.1569 4.68896 16.1097 5.56328 17.5233 6.9768C18.9368 8.39033 19.8111 10.3431 19.8111 12.5001C19.8111 14.657 18.9368 16.6098 17.5233 18.0233C16.1097 19.4368 14.1569 20.3112 12 20.3112C9.84305 20.3112 7.89026 19.4368 6.47673 18.0233C5.06322 16.6098 4.1889 14.657 4.1889 12.5001C4.1889 10.3431 5.06322 8.39032 6.47673 6.9768C7.89027 5.56328 9.84305 4.68896 12 4.68896Z" fill="#D4D4D4"/>
<path fill-rule="evenodd" clip-rule="evenodd" d="M17.1255 7.3745C15.8138 6.0628 14.0017 5.25146 12 5.25146C9.99833 5.25146 8.18617 6.0628 6.87446 7.3745C5.56276 8.68622 4.75142 10.4984 4.75142 12.5C4.75142 14.5017 5.56276 16.3139 6.87446 17.6256C8.18617 18.9373 9.99834 19.7486 12 19.7486C14.0017 19.7486 15.8138 18.9373 17.1255 17.6256C18.4372 16.3139 19.2486 14.5017 19.2486 12.5C19.2486 10.4984 18.4372 8.68622 17.1255 7.3745Z" fill="#F0F0F0"/>
<path fill-rule="evenodd" clip-rule="evenodd" d="M8.71706 6.81361C8.85158 6.73594 9.02358 6.78203 9.10126 6.91655C9.17892 7.05107 9.13283 7.22309 8.99831 7.30075C8.86379 7.37841 8.69178 7.33232 8.61411 7.1978C8.53645 7.06328 8.58254 6.89127 8.71706 6.81361V6.81361Z" fill="#202020"/>
<path fill-rule="evenodd" clip-rule="evenodd" d="M6.31378 9.21685C6.39144 9.08233 6.56344 9.03623 6.69797 9.1139C6.83249 9.19157 6.87858 9.36358 6.80092 9.4981C6.72325 9.63262 6.55124 9.67871 6.41672 9.60105C6.2822 9.52337 6.23611 9.35137 6.31378 9.21685H6.31378Z" fill="#202020"/>
<path fill-rule="evenodd" clip-rule="evenodd" d="M5.4341 12.5C5.4341 12.3447 5.56002 12.2188 5.71535 12.2188C5.87067 12.2188 5.9966 12.3447 5.9966 12.5C5.9966 12.6553 5.87067 12.7813 5.71535 12.7813C5.56002 12.7813 5.4341 12.6553 5.4341 12.5Z" fill="#202020"/>
<path fill-rule="evenodd" clip-rule="evenodd" d="M6.31378 15.7828C6.23611 15.6482 6.2822 15.4762 6.41672 15.3986C6.55124 15.3209 6.72325 15.367 6.80092 15.5015C6.87858 15.636 6.83249 15.808 6.69797 15.8857C6.56344 15.9634 6.39144 15.9173 6.31378 15.7828H6.31378Z" fill="#202020"/>
<path fill-rule="evenodd" clip-rule="evenodd" d="M8.71706 18.186C8.58254 18.1083 8.53645 17.9363 8.61411 17.8018C8.69179 17.6673 8.86379 17.6212 8.99831 17.6989C9.13283 17.7765 9.17892 17.9485 9.10126 18.0831C9.02358 18.2176 8.85158 18.2637 8.71706 18.186V18.186Z" fill="#202020"/>
<path fill-rule="evenodd" clip-rule="evenodd" d="M12 19.0659C11.8447 19.0659 11.7188 18.94 11.7188 18.7847C11.7188 18.6293 11.8447 18.5034 12 18.5034C12.1553 18.5034 12.2813 18.6293 12.2813 18.7847C12.2813 18.94 12.1553 19.0659 12 19.0659Z" fill="#202020"/>
<path fill-rule="evenodd" clip-rule="evenodd" d="M15.283 18.186C15.1484 18.2637 14.9764 18.2176 14.8988 18.0831C14.8211 17.9485 14.8672 17.7765 15.0017 17.6989C15.1362 17.6212 15.3082 17.6673 15.3859 17.8018C15.4636 17.9363 15.4175 18.1083 15.283 18.186V18.186Z" fill="#202020"/>
<path fill-rule="evenodd" clip-rule="evenodd" d="M17.6862 15.7828C17.6085 15.9173 17.4365 15.9634 17.302 15.8857C17.1675 15.808 17.1214 15.636 17.1991 15.5015C17.2767 15.367 17.4488 15.3209 17.5833 15.3986C17.7178 15.4762 17.7639 15.6482 17.6862 15.7828H17.6862Z" fill="#202020"/>
<path fill-rule="evenodd" clip-rule="evenodd" d="M18.5659 12.5C18.5659 12.6553 18.44 12.7813 18.2846 12.7813C18.1293 12.7813 18.0034 12.6553 18.0034 12.5C18.0034 12.3447 18.1293 12.2188 18.2846 12.2188C18.44 12.2188 18.5659 12.3447 18.5659 12.5Z" fill="#202020"/>
<path fill-rule="evenodd" clip-rule="evenodd" d="M17.6862 9.21685C17.7639 9.35137 17.7178 9.52337 17.5833 9.60105C17.4487 9.67871 17.2767 9.63262 17.1991 9.4981C17.1214 9.36357 17.1675 9.19157 17.302 9.1139C17.4365 9.03623 17.6085 9.08233 17.6862 9.21685H17.6862Z" fill="#202020"/>
<path fill-rule="evenodd" clip-rule="evenodd" d="M15.283 6.81361C15.4175 6.89127 15.4636 7.06328 15.3859 7.1978C15.3082 7.33232 15.1362 7.37841 15.0017 7.30075C14.8672 7.22309 14.8211 7.05107 14.8988 6.91655C14.9764 6.78203 15.1484 6.73594 15.283 6.81361V6.81361Z" fill="#202020"/>
<path fill-rule="evenodd" clip-rule="evenodd" d="M12 5.93408C12.1553 5.93408 12.2813 6.06001 12.2813 6.21533C12.2813 6.37066 12.1553 6.49658 12 6.49658C11.8447 6.49658 11.7188 6.37066 11.7188 6.21533C11.7188 6.06001 11.8447 5.93408 12 5.93408Z" fill="#202020"/>
<path fill-rule="evenodd" clip-rule="evenodd" d="M12.7027 12.2376L17.25 12.4995L12.7028 12.7623C12.5964 13.0471 12.3219 13.25 12 13.25C11.5858 13.25 11.25 12.9142 11.25 12.5C11.25 12.1768 11.4545 11.9013 11.7411 11.7959L11.9995 8L12.2588 11.7959C12.4636 11.8712 12.6264 12.0333 12.7027 12.2376L12.7027 12.2376Z" fill="#202020"/>
</svg>
