<svg width="351" height="208" viewBox="0 0 351 208" fill="none" xmlns="http://www.w3.org/2000/svg">
<path d="M23.0389 172.025C8.5439 156.622 24.0496 115.411 47.4301 90.2089C75.8611 59.5681 115.056 33.7938 190.817 42.5585C253.376 49.7993 292.217 81.5487 305.428 97.9042C326.436 123.898 341.614 160.572 328.961 175.741C307.729 201.201 220.005 157.881 172.422 156.998C124.839 156.115 55.4056 206.365 23.0389 172.025Z" fill="#E1ECFF"/>
<path d="M247.848 147.415H82.7151L47.9824 33.1559C47.6501 32.0646 47.5771 30.9101 47.7693 29.7852C47.9615 28.6603 48.4134 27.5966 49.0888 26.6796C49.7641 25.7627 50.644 25.0181 51.6576 24.5058C52.6712 23.9936 53.7902 23.728 54.9244 23.7305H204.886C206.438 23.7302 207.95 24.2315 209.198 25.1605C210.446 26.0896 211.364 27.3974 211.818 28.8912L247.848 147.415Z" fill="#F78B72"/>
<path d="M220.805 133.813H102.336C100.77 133.813 99.2447 133.307 97.9851 132.37C96.7256 131.433 95.7981 130.114 95.339 128.607L69.0368 42.0774C68.8694 41.5284 68.8325 40.9475 68.9289 40.3814C69.0253 39.8154 69.2525 39.28 69.592 38.8184C69.9315 38.3568 70.374 37.9818 70.8838 37.7237C71.3936 37.4655 71.9565 37.3314 72.5273 37.332H190.996C192.563 37.3321 194.088 37.8379 195.347 38.7751C196.607 39.7123 197.534 41.0315 197.994 42.5386L224.296 129.068C224.463 129.617 224.5 130.198 224.404 130.764C224.307 131.33 224.08 131.865 223.741 132.327C223.401 132.789 222.959 133.164 222.449 133.422C221.939 133.68 221.376 133.814 220.805 133.813Z" fill="#1C3177"/>
<path d="M82.7148 147.415H304.524C306.02 147.415 307.456 148.013 308.514 149.078C309.572 150.143 310.166 151.587 310.166 153.093V160.677C310.166 162.182 309.572 163.627 308.514 164.691C307.456 165.756 306.02 166.354 304.524 166.354H88.3568C87.6159 166.354 86.8823 166.207 86.1977 165.922C85.5132 165.637 84.8913 165.218 84.3674 164.691C83.8434 164.164 83.4279 163.538 83.1443 162.849C82.8608 162.161 82.7148 161.422 82.7148 160.677V147.415Z" fill="#D55F31"/>
<path d="M109.75 89.7408L123.24 74.5889" stroke="#99ADF9" stroke-width="3" stroke-miterlimit="10" stroke-linecap="round"/>
<path d="M126.425 89.7408L106.109 74.5889" stroke="#99ADF9" stroke-width="3" stroke-miterlimit="10" stroke-linecap="round"/>
<path d="M176.368 89.7408L189.859 74.5889" stroke="#99ADF9" stroke-width="3" stroke-miterlimit="10" stroke-linecap="round"/>
<path d="M193.044 89.7408L172.725 74.5889" stroke="#99ADF9" stroke-width="3" stroke-miterlimit="10" stroke-linecap="round"/>
<path d="M143.023 99.3166C143.023 99.3166 153.598 93.4494 164.34 99.3166" stroke="#99ADF9" stroke-width="3" stroke-miterlimit="10" stroke-linecap="round"/>
<path d="M258.518 81.4334C257.295 81.4303 256.111 81.0071 255.16 80.2339C254.209 79.4608 253.549 78.384 253.289 77.1819C252.294 72.6719 251.664 69.2282 252.541 66.0068C253.594 62.1869 256.373 59.9499 259.366 57.811C261.384 56.3721 262.785 54.1874 262.941 52.2513C263.039 50.966 262.59 49.8835 261.527 48.85C258.388 45.7856 253.305 50.5539 253.077 50.76C253.077 50.76 248.807 54.3967 245.635 50.5834C242.463 46.77 245.635 42.9894 245.635 42.9894C247.681 41.0777 250.035 39.5295 252.596 38.4108C258.703 35.7944 264.521 36.7756 268.98 41.1089C272.314 44.3597 273.962 48.6146 273.621 53.0885C273.227 58.2493 270.215 63.3152 265.557 66.6314C263.37 68.1914 262.957 68.7441 262.857 68.9207C262.606 69.7187 263.432 73.4568 263.744 74.8664C263.916 75.6543 263.911 76.471 263.729 77.2567C263.546 78.0423 263.192 78.7769 262.69 79.4066C262.189 80.0364 261.554 80.5452 260.832 80.8959C260.11 81.2467 259.32 81.4303 258.518 81.4334Z" fill="#FEC272"/>
<path d="M261.102 100.147C264.535 100.147 267.319 97.3464 267.319 93.8911C267.319 90.4358 264.535 87.6348 261.102 87.6348C257.668 87.6348 254.884 90.4358 254.884 93.8911C254.884 97.3464 257.668 100.147 261.102 100.147Z" fill="#FEC272"/>
</svg>
