<svg width="522" height="97" viewBox="0 0 522 97" fill="none" xmlns="http://www.w3.org/2000/svg">
<path d="M24.88 30.606C24.46 30.914 23.802 31.292 22.906 31.74C22.01 32.188 20.946 32.58 19.714 32.916C18.51 33.224 17.166 33.364 15.682 33.336C13.302 33.308 11.16 32.888 9.256 32.076C7.352 31.236 5.742 30.116 4.426 28.716C3.11 27.288 2.088 25.664 1.36 23.844C0.66 21.996 0.31 20.036 0.31 17.964C0.31 15.64 0.674 13.512 1.402 11.58C2.13 9.648 3.166 7.982 4.51 6.582C5.854 5.154 7.45 4.048 9.298 3.264C11.146 2.48 13.162 2.088 15.346 2.088C17.278 2.088 19 2.354 20.512 2.886C22.052 3.39 23.34 3.964 24.376 4.608L22.444 9.228C21.66 8.668 20.68 8.122 19.504 7.59C18.328 7.058 16.998 6.792 15.514 6.792C14.17 6.792 12.882 7.072 11.65 7.632C10.418 8.164 9.34 8.934 8.416 9.942C7.492 10.922 6.75 12.07 6.19 13.386C5.658 14.702 5.392 16.13 5.392 17.67C5.392 19.266 5.63 20.736 6.106 22.08C6.61 23.396 7.31 24.544 8.206 25.524C9.13 26.504 10.222 27.274 11.482 27.834C12.77 28.366 14.198 28.632 15.766 28.632C17.362 28.632 18.748 28.394 19.924 27.918C21.128 27.414 22.094 26.854 22.822 26.238L24.88 30.606ZM30.4371 0.239999H35.1411V33H30.4371V0.239999ZM40.1234 23.928C40.1234 22.136 40.5434 20.526 41.3834 19.098C42.2234 17.642 43.3994 16.508 44.9114 15.696C46.4514 14.856 48.1874 14.436 50.1194 14.436C52.1074 14.436 53.8294 14.856 55.2854 15.696C56.7694 16.508 57.9174 17.642 58.7294 19.098C59.5414 20.526 59.9474 22.136 59.9474 23.928C59.9474 25.72 59.5414 27.344 58.7294 28.8C57.9174 30.228 56.7694 31.362 55.2854 32.202C53.8294 33.042 52.0934 33.462 50.0774 33.462C48.1734 33.462 46.4654 33.084 44.9534 32.328C43.4414 31.544 42.2514 30.438 41.3834 29.01C40.5434 27.582 40.1234 25.888 40.1234 23.928ZM44.8694 23.97C44.8694 25.006 45.0934 25.958 45.5414 26.826C45.9894 27.666 46.6054 28.338 47.3894 28.842C48.1734 29.346 49.0414 29.598 49.9934 29.598C51.0294 29.598 51.9254 29.346 52.6814 28.842C53.4654 28.338 54.0674 27.666 54.4874 26.826C54.9354 25.958 55.1594 25.006 55.1594 23.97C55.1594 22.906 54.9354 21.954 54.4874 21.114C54.0674 20.246 53.4654 19.56 52.6814 19.056C51.9254 18.552 51.0294 18.3 49.9934 18.3C49.0134 18.3 48.1314 18.566 47.3474 19.098C46.5914 19.602 45.9894 20.274 45.5414 21.114C45.0934 21.954 44.8694 22.906 44.8694 23.97ZM70.2243 33.378C68.8803 33.378 67.5923 33.14 66.3603 32.664C65.1563 32.188 64.1343 31.488 63.2943 30.564L65.3103 27.918C66.0943 28.674 66.8643 29.234 67.6203 29.598C68.4043 29.934 69.1463 30.102 69.8463 30.102C70.3783 30.102 70.8543 30.046 71.2743 29.934C71.7223 29.794 72.0723 29.584 72.3243 29.304C72.6043 29.024 72.7442 28.646 72.7442 28.17C72.7442 27.61 72.5482 27.176 72.1562 26.868C71.7643 26.532 71.2603 26.266 70.6443 26.07C70.0283 25.846 69.3843 25.636 68.7123 25.44C67.1723 24.964 66.0243 24.264 65.2683 23.34C64.5123 22.416 64.1343 21.352 64.1343 20.148C64.1343 19.224 64.3723 18.342 64.8483 17.502C65.3243 16.634 66.0523 15.92 67.0323 15.36C68.0123 14.8 69.2443 14.52 70.7283 14.52C72.0723 14.52 73.2343 14.674 74.2143 14.982C75.2223 15.262 76.1603 15.752 77.0283 16.452L75.2223 19.266C74.7183 18.79 74.1163 18.426 73.4163 18.174C72.7443 17.894 72.1283 17.74 71.5683 17.712C71.0643 17.684 70.6163 17.754 70.2243 17.922C69.8323 18.062 69.5103 18.272 69.2583 18.552C69.0343 18.832 68.9223 19.154 68.9223 19.518C68.8943 20.078 69.0763 20.526 69.4683 20.862C69.8883 21.198 70.4203 21.464 71.0643 21.66C71.7083 21.856 72.3523 22.066 72.9963 22.29C73.8643 22.542 74.6343 22.892 75.3063 23.34C75.9783 23.788 76.4963 24.334 76.8603 24.978C77.2523 25.594 77.4483 26.364 77.4483 27.288C77.4483 28.352 77.1823 29.36 76.6503 30.312C76.1183 31.236 75.3203 31.978 74.2563 32.538C73.1923 33.098 71.8483 33.378 70.2243 33.378ZM82.65 15.234H87.354V33H82.65V15.234ZM82.44 8.892C82.44 8.164 82.72 7.562 83.28 7.086C83.868 6.61 84.498 6.372 85.17 6.372C85.842 6.372 86.444 6.61 86.976 7.086C87.536 7.562 87.816 8.164 87.816 8.892C87.816 9.62 87.536 10.222 86.976 10.698C86.444 11.146 85.842 11.37 85.17 11.37C84.498 11.37 83.868 11.132 83.28 10.656C82.72 10.18 82.44 9.592 82.44 8.892ZM98.0483 15.234L98.4683 19.056L98.3003 18.552C98.9163 17.32 99.8263 16.34 101.03 15.612C102.262 14.856 103.718 14.478 105.398 14.478C107.078 14.478 108.464 14.968 109.556 15.948C110.648 16.928 111.208 18.216 111.236 19.812V33H106.532V21.492C106.504 20.596 106.252 19.882 105.776 19.35C105.3 18.79 104.544 18.496 103.508 18.468C102.556 18.468 101.702 18.762 100.946 19.35C100.19 19.91 99.5883 20.694 99.1403 21.702C98.7203 22.682 98.5103 23.816 98.5103 25.104V33H93.8063V15.234H98.0483ZM126.58 41.862C125.124 41.862 123.878 41.694 122.842 41.358C121.806 41.022 120.882 40.574 120.07 40.014C119.286 39.482 118.544 38.922 117.844 38.334L120.616 35.1C121.428 35.856 122.282 36.486 123.178 36.99C124.102 37.494 125.208 37.746 126.496 37.746C127.644 37.746 128.638 37.55 129.478 37.158C130.346 36.766 131.018 36.22 131.494 35.52C131.97 34.82 132.222 33.98 132.25 33V28.59L132.544 29.472C132.068 30.564 131.2 31.502 129.94 32.286C128.68 33.07 127.112 33.462 125.236 33.462C123.612 33.462 122.114 33.056 120.742 32.244C119.37 31.404 118.278 30.27 117.466 28.842C116.654 27.414 116.248 25.804 116.248 24.012C116.248 22.164 116.668 20.526 117.508 19.098C118.376 17.642 119.51 16.508 120.91 15.696C122.338 14.856 123.85 14.436 125.446 14.436C127.014 14.436 128.4 14.716 129.604 15.276C130.836 15.836 131.76 16.536 132.376 17.376L132.124 18.048L132.628 15.234H136.954V33.084C136.954 34.736 136.506 36.22 135.61 37.536C134.742 38.88 133.524 39.93 131.956 40.686C130.416 41.47 128.624 41.862 126.58 41.862ZM120.994 23.886C120.994 24.95 121.232 25.916 121.708 26.784C122.212 27.652 122.884 28.338 123.724 28.842C124.592 29.346 125.558 29.598 126.622 29.598C127.546 29.598 128.372 29.444 129.1 29.136C129.856 28.828 130.5 28.394 131.032 27.834C131.592 27.274 131.998 26.616 132.25 25.86V21.996C131.998 21.24 131.592 20.596 131.032 20.064C130.5 19.504 129.856 19.07 129.1 18.762C128.372 18.454 127.546 18.3 126.622 18.3C125.558 18.3 124.592 18.538 123.724 19.014C122.884 19.49 122.212 20.148 121.708 20.988C121.232 21.828 120.994 22.794 120.994 23.886ZM155.67 2.424H176.124V7.128H168.228V33H163.356V7.128H155.67V2.424ZM181.375 33V0.239999H185.995V19.14L185.911 18.426C186.527 17.278 187.437 16.34 188.641 15.612C189.845 14.856 191.287 14.478 192.967 14.478C194.647 14.478 196.033 14.968 197.125 15.948C198.217 16.928 198.777 18.216 198.805 19.812V33H194.101V21.492C194.073 20.596 193.821 19.882 193.345 19.35C192.869 18.79 192.113 18.496 191.077 18.468C190.125 18.468 189.271 18.762 188.515 19.35C187.759 19.938 187.157 20.736 186.709 21.744C186.289 22.724 186.079 23.844 186.079 25.104V33H181.375ZM213.771 33.462C211.671 33.462 209.879 33.056 208.395 32.244C206.911 31.432 205.777 30.312 204.993 28.884C204.209 27.428 203.817 25.79 203.817 23.97C203.817 22.178 204.265 20.568 205.161 19.14C206.057 17.712 207.261 16.578 208.773 15.738C210.313 14.87 212.007 14.436 213.855 14.436C216.291 14.436 218.293 15.15 219.861 16.578C221.457 17.978 222.521 19.966 223.053 22.542L208.731 27.372L207.639 24.726L218.811 20.736L217.845 21.282C217.537 20.442 217.033 19.714 216.333 19.098C215.661 18.482 214.709 18.174 213.477 18.174C212.497 18.174 211.629 18.412 210.873 18.888C210.117 19.336 209.515 19.98 209.067 20.82C208.647 21.632 208.437 22.598 208.437 23.718C208.437 24.866 208.675 25.874 209.151 26.742C209.627 27.61 210.271 28.282 211.083 28.758C211.895 29.206 212.819 29.43 213.855 29.43C214.583 29.43 215.283 29.304 215.955 29.052C216.627 28.8 217.257 28.464 217.845 28.044L219.987 31.53C219.063 32.118 218.041 32.594 216.921 32.958C215.829 33.294 214.779 33.462 213.771 33.462ZM266.418 30.186C266.026 30.578 265.438 30.956 264.654 31.32C263.898 31.684 263.044 32.02 262.092 32.328C261.14 32.636 260.16 32.874 259.152 33.042C258.144 33.238 257.192 33.336 256.296 33.336C253.832 33.336 251.606 32.958 249.618 32.202C247.658 31.446 245.964 30.41 244.536 29.094C243.136 27.75 242.058 26.168 241.302 24.348C240.574 22.528 240.21 20.554 240.21 18.426C240.21 15.766 240.63 13.428 241.47 11.412C242.31 9.368 243.458 7.66 244.914 6.288C246.37 4.888 248.036 3.838 249.912 3.138C251.816 2.438 253.818 2.088 255.918 2.088C257.766 2.088 259.474 2.298 261.042 2.718C262.638 3.138 263.996 3.67 265.116 4.314L263.52 8.85C262.988 8.542 262.302 8.248 261.462 7.968C260.622 7.66 259.768 7.422 258.9 7.254C258.06 7.086 257.276 7.002 256.548 7.002C254.784 7.002 253.202 7.254 251.802 7.758C250.43 8.234 249.254 8.948 248.274 9.9C247.294 10.852 246.538 12.014 246.006 13.386C245.502 14.73 245.25 16.27 245.25 18.006C245.25 19.574 245.516 21.002 246.048 22.29C246.608 23.578 247.378 24.684 248.358 25.608C249.366 26.532 250.542 27.246 251.886 27.75C253.258 28.226 254.77 28.464 256.422 28.464C257.374 28.464 258.298 28.38 259.194 28.212C260.09 28.044 260.846 27.778 261.462 27.414V22.332H255.75V17.628H266.418V30.186ZM281.364 33.462C279.264 33.462 277.472 33.056 275.988 32.244C274.504 31.432 273.37 30.312 272.586 28.884C271.802 27.428 271.41 25.79 271.41 23.97C271.41 22.178 271.858 20.568 272.754 19.14C273.65 17.712 274.854 16.578 276.366 15.738C277.906 14.87 279.6 14.436 281.448 14.436C283.884 14.436 285.886 15.15 287.454 16.578C289.05 17.978 290.114 19.966 290.646 22.542L276.324 27.372L275.232 24.726L286.404 20.736L285.438 21.282C285.13 20.442 284.626 19.714 283.926 19.098C283.254 18.482 282.302 18.174 281.07 18.174C280.09 18.174 279.222 18.412 278.466 18.888C277.71 19.336 277.108 19.98 276.66 20.82C276.24 21.632 276.03 22.598 276.03 23.718C276.03 24.866 276.268 25.874 276.744 26.742C277.22 27.61 277.864 28.282 278.676 28.758C279.488 29.206 280.412 29.43 281.448 29.43C282.176 29.43 282.876 29.304 283.548 29.052C284.22 28.8 284.85 28.464 285.438 28.044L287.58 31.53C286.656 32.118 285.634 32.594 284.514 32.958C283.422 33.294 282.372 33.462 281.364 33.462ZM299.517 15.234L299.937 19.056L299.769 18.552C300.385 17.32 301.295 16.34 302.499 15.612C303.731 14.856 305.187 14.478 306.867 14.478C308.547 14.478 309.933 14.968 311.025 15.948C312.117 16.928 312.677 18.216 312.705 19.812V33H308.001V21.492C307.973 20.596 307.721 19.882 307.245 19.35C306.769 18.79 306.013 18.496 304.977 18.468C304.025 18.468 303.171 18.762 302.415 19.35C301.659 19.91 301.057 20.694 300.609 21.702C300.189 22.682 299.979 23.816 299.979 25.104V33H295.275V15.234H299.517ZM326.453 33.462C324.773 33.462 323.275 33.07 321.959 32.286C320.643 31.502 319.607 30.382 318.851 28.926C318.095 27.47 317.717 25.776 317.717 23.844C317.717 21.856 318.123 20.162 318.935 18.762C319.747 17.362 320.853 16.298 322.253 15.57C323.681 14.814 325.277 14.436 327.041 14.436C328.329 14.436 329.561 14.688 330.737 15.192C331.913 15.668 332.851 16.368 333.551 17.292L333.467 18.888V0.239999H338.129V33H333.425V29.01L333.887 30.144C332.991 31.096 331.913 31.894 330.653 32.538C329.421 33.154 328.021 33.462 326.453 33.462ZM327.965 29.472C328.889 29.472 329.701 29.318 330.401 29.01C331.129 28.702 331.745 28.268 332.249 27.708C332.781 27.12 333.173 26.434 333.425 25.65V21.87C333.201 21.142 332.823 20.498 332.291 19.938C331.787 19.378 331.157 18.944 330.401 18.636C329.645 18.328 328.833 18.174 327.965 18.174C326.957 18.174 326.033 18.412 325.193 18.888C324.381 19.364 323.723 20.022 323.219 20.862C322.715 21.702 322.463 22.668 322.463 23.76C322.463 24.824 322.715 25.79 323.219 26.658C323.723 27.526 324.395 28.212 325.235 28.716C326.075 29.22 326.985 29.472 327.965 29.472ZM353.101 33.462C351.001 33.462 349.209 33.056 347.725 32.244C346.241 31.432 345.107 30.312 344.323 28.884C343.539 27.428 343.147 25.79 343.147 23.97C343.147 22.178 343.595 20.568 344.491 19.14C345.387 17.712 346.591 16.578 348.103 15.738C349.643 14.87 351.337 14.436 353.185 14.436C355.621 14.436 357.623 15.15 359.191 16.578C360.787 17.978 361.851 19.966 362.383 22.542L348.061 27.372L346.969 24.726L358.141 20.736L357.175 21.282C356.867 20.442 356.363 19.714 355.663 19.098C354.991 18.482 354.039 18.174 352.807 18.174C351.827 18.174 350.959 18.412 350.203 18.888C349.447 19.336 348.845 19.98 348.397 20.82C347.977 21.632 347.767 22.598 347.767 23.718C347.767 24.866 348.005 25.874 348.481 26.742C348.957 27.61 349.601 28.282 350.413 28.758C351.225 29.206 352.149 29.43 353.185 29.43C353.913 29.43 354.613 29.304 355.285 29.052C355.957 28.8 356.587 28.464 357.175 28.044L359.317 31.53C358.393 32.118 357.371 32.594 356.251 32.958C355.159 33.294 354.109 33.462 353.101 33.462ZM371.253 15.234L371.673 20.274L371.505 19.56C372.009 18.496 372.695 17.586 373.563 16.83C374.459 16.046 375.369 15.458 376.293 15.066C377.217 14.646 377.973 14.436 378.561 14.436L378.351 19.14C377.007 19.028 375.831 19.28 374.823 19.896C373.843 20.484 373.073 21.268 372.513 22.248C371.981 23.228 371.715 24.264 371.715 25.356V33H367.011V15.234H371.253ZM422.114 30.186C421.722 30.578 421.134 30.956 420.35 31.32C419.594 31.684 418.74 32.02 417.788 32.328C416.836 32.636 415.856 32.874 414.848 33.042C413.84 33.238 412.888 33.336 411.992 33.336C409.528 33.336 407.302 32.958 405.314 32.202C403.354 31.446 401.66 30.41 400.232 29.094C398.832 27.75 397.754 26.168 396.998 24.348C396.27 22.528 395.906 20.554 395.906 18.426C395.906 15.766 396.326 13.428 397.166 11.412C398.006 9.368 399.154 7.66 400.61 6.288C402.066 4.888 403.732 3.838 405.608 3.138C407.512 2.438 409.514 2.088 411.614 2.088C413.462 2.088 415.17 2.298 416.738 2.718C418.334 3.138 419.692 3.67 420.812 4.314L419.216 8.85C418.684 8.542 417.998 8.248 417.158 7.968C416.318 7.66 415.464 7.422 414.596 7.254C413.756 7.086 412.972 7.002 412.244 7.002C410.48 7.002 408.898 7.254 407.498 7.758C406.126 8.234 404.95 8.948 403.97 9.9C402.99 10.852 402.234 12.014 401.702 13.386C401.198 14.73 400.946 16.27 400.946 18.006C400.946 19.574 401.212 21.002 401.744 22.29C402.304 23.578 403.074 24.684 404.054 25.608C405.062 26.532 406.238 27.246 407.582 27.75C408.954 28.226 410.466 28.464 412.118 28.464C413.07 28.464 413.994 28.38 414.89 28.212C415.786 28.044 416.542 27.778 417.158 27.414V22.332H411.446V17.628H422.114V30.186ZM436.052 33.462C434.372 33.462 432.846 33.112 431.474 32.412C430.13 31.712 429.066 30.676 428.282 29.304C427.498 27.904 427.106 26.182 427.106 24.138C427.106 22.122 427.512 20.4 428.324 18.972C429.164 17.516 430.256 16.396 431.6 15.612C432.972 14.828 434.456 14.436 436.052 14.436C437.76 14.436 439.132 14.772 440.168 15.444C441.232 16.116 442.058 16.914 442.646 17.838L442.394 18.51L442.856 15.234H447.182V33H442.478V28.674L442.94 29.808C442.828 29.976 442.604 30.256 442.268 30.648C441.932 31.012 441.47 31.418 440.882 31.866C440.294 32.314 439.594 32.692 438.782 33C437.998 33.308 437.088 33.462 436.052 33.462ZM437.354 29.598C438.194 29.598 438.95 29.444 439.622 29.136C440.322 28.828 440.91 28.394 441.386 27.834C441.89 27.274 442.254 26.602 442.478 25.818V21.954C442.254 21.226 441.89 20.596 441.386 20.064C440.882 19.504 440.266 19.07 439.538 18.762C438.838 18.454 438.054 18.3 437.186 18.3C436.234 18.3 435.352 18.538 434.54 19.014C433.728 19.49 433.07 20.148 432.566 20.988C432.09 21.828 431.852 22.794 431.852 23.886C431.852 24.95 432.104 25.916 432.608 26.784C433.112 27.652 433.784 28.338 434.624 28.842C435.464 29.346 436.374 29.598 437.354 29.598ZM464.471 33.462C463.239 33.462 462.049 33.196 460.901 32.664C459.753 32.132 458.829 31.404 458.129 30.48L458.381 29.052V41.526H453.677V14.898H457.751L458.381 19.014L457.961 17.754C458.829 16.802 459.879 16.018 461.111 15.402C462.371 14.758 463.785 14.436 465.353 14.436C467.033 14.436 468.531 14.828 469.847 15.612C471.163 16.396 472.199 17.516 472.955 18.972C473.739 20.4 474.131 22.094 474.131 24.054C474.131 26.014 473.711 27.694 472.871 29.094C472.031 30.494 470.883 31.572 469.427 32.328C467.971 33.084 466.319 33.462 464.471 33.462ZM463.547 29.724C464.583 29.724 465.535 29.486 466.403 29.01C467.299 28.534 468.013 27.876 468.545 27.036C469.077 26.168 469.343 25.202 469.343 24.138C469.343 23.018 469.091 22.038 468.587 21.198C468.111 20.33 467.453 19.658 466.613 19.182C465.801 18.678 464.891 18.426 463.883 18.426C462.959 18.426 462.133 18.58 461.405 18.888C460.677 19.196 460.061 19.644 459.557 20.232C459.053 20.792 458.661 21.464 458.381 22.248V25.818C458.577 26.574 458.913 27.246 459.389 27.834C459.865 28.422 460.467 28.884 461.195 29.22C461.923 29.556 462.707 29.724 463.547 29.724ZM492.56 15.234H497.264V33H492.56V15.234ZM492.35 8.892C492.35 8.164 492.63 7.562 493.19 7.086C493.778 6.61 494.408 6.372 495.08 6.372C495.752 6.372 496.354 6.61 496.886 7.086C497.446 7.562 497.726 8.164 497.726 8.892C497.726 9.62 497.446 10.222 496.886 10.698C496.354 11.146 495.752 11.37 495.08 11.37C494.408 11.37 493.778 11.132 493.19 10.656C492.63 10.18 492.35 9.592 492.35 8.892ZM507.958 15.234L508.378 19.056L508.21 18.552C508.826 17.32 509.736 16.34 510.94 15.612C512.172 14.856 513.628 14.478 515.308 14.478C516.988 14.478 518.374 14.968 519.466 15.948C520.558 16.928 521.118 18.216 521.146 19.812V33H516.442V21.492C516.414 20.596 516.162 19.882 515.686 19.35C515.21 18.79 514.454 18.496 513.418 18.468C512.466 18.468 511.612 18.762 510.856 19.35C510.1 19.91 509.498 20.694 509.05 21.702C508.63 22.682 508.42 23.816 508.42 25.104V33H503.716V15.234H507.958ZM0.016 57.424H20.47V62.128H12.574V88H7.702V62.128H0.016V57.424ZM29.8157 88.462C27.7157 88.462 25.9237 88.056 24.4397 87.244C22.9557 86.432 21.8217 85.312 21.0377 83.884C20.2537 82.428 19.8617 80.79 19.8617 78.97C19.8617 77.178 20.3097 75.568 21.2057 74.14C22.1017 72.712 23.3057 71.578 24.8177 70.738C26.3577 69.87 28.0517 69.436 29.8997 69.436C32.3357 69.436 34.3377 70.15 35.9057 71.578C37.5017 72.978 38.5657 74.966 39.0977 77.542L24.7757 82.372L23.6837 79.726L34.8557 75.736L33.8897 76.282C33.5817 75.442 33.0777 74.714 32.3777 74.098C31.7057 73.482 30.7537 73.174 29.5217 73.174C28.5417 73.174 27.6737 73.412 26.9177 73.888C26.1617 74.336 25.5597 74.98 25.1117 75.82C24.6917 76.632 24.4817 77.598 24.4817 78.718C24.4817 79.866 24.7197 80.874 25.1957 81.742C25.6717 82.61 26.3157 83.282 27.1277 83.758C27.9397 84.206 28.8637 84.43 29.8997 84.43C30.6277 84.43 31.3277 84.304 31.9997 84.052C32.6717 83.8 33.3017 83.464 33.8897 83.044L36.0317 86.53C35.1077 87.118 34.0857 87.594 32.9657 87.958C31.8737 88.294 30.8237 88.462 29.8157 88.462ZM58.4262 86.362C57.6422 87.006 56.6762 87.524 55.5282 87.916C54.4082 88.28 53.2742 88.462 52.1262 88.462C50.1662 88.462 48.4442 88.084 46.9602 87.328C45.4762 86.544 44.3142 85.466 43.4742 84.094C42.6622 82.694 42.2562 81.028 42.2562 79.096C42.2562 77.164 42.6902 75.498 43.5582 74.098C44.4542 72.698 45.6162 71.634 47.0442 70.906C48.5002 70.15 50.0402 69.772 51.6642 69.772C53.1482 69.772 54.4642 69.982 55.6122 70.402C56.7602 70.794 57.7542 71.34 58.5942 72.04L56.2422 75.106C55.7942 74.742 55.2062 74.406 54.4782 74.098C53.7782 73.762 52.9802 73.594 52.0842 73.594C51.1322 73.594 50.2642 73.832 49.4802 74.308C48.7242 74.784 48.1082 75.442 47.6322 76.282C47.1842 77.094 46.9602 78.032 46.9602 79.096C46.9602 80.104 47.1982 81.028 47.6742 81.868C48.1502 82.708 48.8082 83.38 49.6482 83.884C50.4882 84.36 51.4542 84.598 52.5462 84.598C53.2462 84.598 53.8902 84.5 54.4782 84.304C55.0942 84.08 55.6262 83.786 56.0742 83.422L58.4262 86.362ZM63.2496 88V55.24H67.8696V74.14L67.7856 73.426C68.4016 72.278 69.3116 71.34 70.5156 70.612C71.7196 69.856 73.1616 69.478 74.8416 69.478C76.5216 69.478 77.9076 69.968 78.9996 70.948C80.0916 71.928 80.6516 73.216 80.6796 74.812V88H75.9756V76.492C75.9476 75.596 75.6956 74.882 75.2196 74.35C74.7436 73.79 73.9876 73.496 72.9516 73.468C71.9996 73.468 71.1456 73.762 70.3896 74.35C69.6336 74.938 69.0316 75.736 68.5836 76.744C68.1636 77.724 67.9536 78.844 67.9536 80.104V88H63.2496ZM91.4037 70.234L91.8237 74.056L91.6557 73.552C92.2717 72.32 93.1817 71.34 94.3857 70.612C95.6177 69.856 97.0737 69.478 98.7537 69.478C100.434 69.478 101.82 69.968 102.912 70.948C104.004 71.928 104.564 73.216 104.592 74.812V88H99.8877V76.492C99.8597 75.596 99.6077 74.882 99.1317 74.35C98.6557 73.79 97.8997 73.496 96.8637 73.468C95.9117 73.468 95.0577 73.762 94.3017 74.35C93.5457 74.91 92.9437 75.694 92.4957 76.702C92.0757 77.682 91.8657 78.816 91.8657 80.104V88H87.1617V70.234H91.4037ZM109.604 78.928C109.604 77.136 110.024 75.526 110.864 74.098C111.704 72.642 112.88 71.508 114.392 70.696C115.932 69.856 117.668 69.436 119.6 69.436C121.588 69.436 123.31 69.856 124.766 70.696C126.25 71.508 127.398 72.642 128.21 74.098C129.022 75.526 129.428 77.136 129.428 78.928C129.428 80.72 129.022 82.344 128.21 83.8C127.398 85.228 126.25 86.362 124.766 87.202C123.31 88.042 121.574 88.462 119.558 88.462C117.654 88.462 115.946 88.084 114.434 87.328C112.922 86.544 111.732 85.438 110.864 84.01C110.024 82.582 109.604 80.888 109.604 78.928ZM114.35 78.97C114.35 80.006 114.574 80.958 115.022 81.826C115.47 82.666 116.086 83.338 116.87 83.842C117.654 84.346 118.522 84.598 119.474 84.598C120.51 84.598 121.406 84.346 122.162 83.842C122.946 83.338 123.548 82.666 123.968 81.826C124.416 80.958 124.64 80.006 124.64 78.97C124.64 77.906 124.416 76.954 123.968 76.114C123.548 75.246 122.946 74.56 122.162 74.056C121.406 73.552 120.51 73.3 119.474 73.3C118.494 73.3 117.612 73.566 116.828 74.098C116.072 74.602 115.47 75.274 115.022 76.114C114.574 76.954 114.35 77.906 114.35 78.97ZM134.371 55.24H139.075V88H134.371V55.24ZM144.057 78.928C144.057 77.136 144.477 75.526 145.317 74.098C146.157 72.642 147.333 71.508 148.845 70.696C150.385 69.856 152.121 69.436 154.053 69.436C156.041 69.436 157.763 69.856 159.219 70.696C160.703 71.508 161.851 72.642 162.663 74.098C163.475 75.526 163.881 77.136 163.881 78.928C163.881 80.72 163.475 82.344 162.663 83.8C161.851 85.228 160.703 86.362 159.219 87.202C157.763 88.042 156.027 88.462 154.011 88.462C152.107 88.462 150.399 88.084 148.887 87.328C147.375 86.544 146.185 85.438 145.317 84.01C144.477 82.582 144.057 80.888 144.057 78.928ZM148.803 78.97C148.803 80.006 149.027 80.958 149.475 81.826C149.923 82.666 150.539 83.338 151.323 83.842C152.107 84.346 152.975 84.598 153.927 84.598C154.963 84.598 155.859 84.346 156.615 83.842C157.399 83.338 158.001 82.666 158.421 81.826C158.869 80.958 159.093 80.006 159.093 78.97C159.093 77.906 158.869 76.954 158.421 76.114C158.001 75.246 157.399 74.56 156.615 74.056C155.859 73.552 154.963 73.3 153.927 73.3C152.947 73.3 152.065 73.566 151.281 74.098C150.525 74.602 149.923 75.274 149.475 76.114C149.027 76.954 148.803 77.906 148.803 78.97ZM177.686 96.862C176.23 96.862 174.984 96.694 173.948 96.358C172.912 96.022 171.988 95.574 171.176 95.014C170.392 94.482 169.65 93.922 168.95 93.334L171.722 90.1C172.534 90.856 173.388 91.486 174.284 91.99C175.208 92.494 176.314 92.746 177.602 92.746C178.75 92.746 179.744 92.55 180.584 92.158C181.452 91.766 182.124 91.22 182.6 90.52C183.076 89.82 183.328 88.98 183.356 88V83.59L183.65 84.472C183.174 85.564 182.306 86.502 181.046 87.286C179.786 88.07 178.218 88.462 176.342 88.462C174.718 88.462 173.22 88.056 171.848 87.244C170.476 86.404 169.384 85.27 168.572 83.842C167.76 82.414 167.354 80.804 167.354 79.012C167.354 77.164 167.774 75.526 168.614 74.098C169.482 72.642 170.616 71.508 172.016 70.696C173.444 69.856 174.956 69.436 176.552 69.436C178.12 69.436 179.506 69.716 180.71 70.276C181.942 70.836 182.866 71.536 183.482 72.376L183.23 73.048L183.734 70.234H188.06V88.084C188.06 89.736 187.612 91.22 186.716 92.536C185.848 93.88 184.63 94.93 183.062 95.686C181.522 96.47 179.73 96.862 177.686 96.862ZM172.1 78.886C172.1 79.95 172.338 80.916 172.814 81.784C173.318 82.652 173.99 83.338 174.83 83.842C175.698 84.346 176.664 84.598 177.728 84.598C178.652 84.598 179.478 84.444 180.206 84.136C180.962 83.828 181.606 83.394 182.138 82.834C182.698 82.274 183.104 81.616 183.356 80.86V76.996C183.104 76.24 182.698 75.596 182.138 75.064C181.606 74.504 180.962 74.07 180.206 73.762C179.478 73.454 178.652 73.3 177.728 73.3C176.664 73.3 175.698 73.538 174.83 74.014C173.99 74.49 173.318 75.148 172.814 75.988C172.338 76.828 172.1 77.794 172.1 78.886ZM196.011 96.526L207.813 70.234H212.097L200.631 96.526H196.011ZM200.589 88.126L191.937 70.234H197.229L204.201 85.732L200.589 88.126Z" fill="#1A78C2"/>
</svg>
