<svg width="464" height="164" viewBox="0 0 464 164" fill="none" xmlns="http://www.w3.org/2000/svg">
<path d="M9 31.5V27H4.5V22.5H0V9H4.5V4.5H9V0H27V4.5H31.5V9H22.5V4.5H13.5V9H9V22.5H13.5V27H22.5V22.5H31.5V27H27V31.5H9ZM40.5 31.5V27H49.5V4.5H45V0H58.5V27H67.5V31.5H40.5ZM76.5 31.5V27H72V13.5H76.5V9H99V13.5H103.5V27H99V31.5H76.5ZM81 27H94.5V13.5H81V27ZM108 31.5V27H130.5V22.5H112.5V18H108V13.5H112.5V9H135V13.5H117V18H135V22.5H139.5V27H135V31.5H108ZM157.5 4.5V0H166.5V4.5H157.5ZM148.5 31.5V27H157.5V13.5H153V9H166.5V27H175.5V31.5H148.5ZM180 31.5V9H207V13.5H211.5V31.5H202.5V13.5H189V31.5H180ZM220.5 36V31.5H238.5V27H220.5V22.5H216V13.5H220.5V9H247.5V31.5H243V36H220.5ZM225 22.5H238.5V13.5H225V22.5ZM301.5 31.5V4.5H292.5V0H319.5V4.5H310.5V31.5H301.5ZM324 31.5V0H333V9H351V13.5H355.5V31.5H346.5V13.5H333V31.5H324ZM364.5 31.5V27H360V13.5H364.5V9H387V13.5H391.5V22.5H369V27H387V31.5H364.5ZM369 18H382.5V13.5H369V18ZM9 95.5V91H4.5V86.5H0V73H4.5V68.5H9V64H31.5V68.5H13.5V73H9V86.5H13.5V91H22.5V82H18V77.5H31.5V95.5H9ZM40.5 95.5V91H36V77.5H40.5V73H63V77.5H67.5V86.5H45V91H63V95.5H40.5ZM45 82H58.5V77.5H45V82ZM72 95.5V73H99V77.5H103.5V95.5H94.5V77.5H81V95.5H72ZM112.5 95.5V91H108V77.5H112.5V73H130.5V64H139.5V95.5H112.5ZM117 91H130.5V77.5H117V91ZM148.5 95.5V91H144V77.5H148.5V73H171V77.5H175.5V86.5H153V91H171V95.5H148.5ZM153 82H166.5V77.5H153V82ZM193.5 77.5H198V82H193.5V95.5H184.5V73H193.5V77.5ZM211.5 73V77.5H198V73H211.5ZM261 95.5V91H256.5V86.5H252V73H256.5V68.5H261V64H283.5V68.5H265.5V73H261V86.5H265.5V91H274.5V82H270V77.5H283.5V95.5H261ZM292.5 95.5V91H288V86.5H292.5V82H310.5V77.5H292.5V73H315V77.5H319.5V95.5H292.5ZM297 91H310.5V86.5H297V91ZM324 100V73H351V77.5H355.5V86.5H351V91H333V100H324ZM333 86.5H346.5V77.5H333V86.5ZM409.5 68.5V64H418.5V68.5H409.5ZM400.5 95.5V91H409.5V77.5H405V73H418.5V91H427.5V95.5H400.5ZM432 95.5V73H459V77.5H463.5V95.5H454.5V77.5H441V95.5H432ZM13.5 159.5V132.5H4.5V128H31.5V132.5H22.5V159.5H13.5ZM40.5 159.5V155H36V141.5H40.5V137H63V141.5H67.5V150.5H45V155H63V159.5H40.5ZM45 146H58.5V141.5H45V146ZM76.5 159.5V155H72V141.5H76.5V137H103.5V141.5H81V155H103.5V159.5H76.5ZM108 159.5V128H117V137H135V141.5H139.5V159.5H130.5V141.5H117V159.5H108ZM144 159.5V137H171V141.5H175.5V159.5H166.5V141.5H153V159.5H144ZM184.5 159.5V155H180V141.5H184.5V137H207V141.5H211.5V155H207V159.5H184.5ZM189 155H202.5V141.5H189V155ZM220.5 159.5V155H229.5V132.5H225V128H238.5V155H247.5V159.5H220.5ZM256.5 159.5V155H252V141.5H256.5V137H279V141.5H283.5V155H279V159.5H256.5ZM261 155H274.5V141.5H261V155ZM292.5 164V159.5H310.5V155H292.5V150.5H288V141.5H292.5V137H319.5V159.5H315V164H292.5ZM297 150.5H310.5V141.5H297V150.5ZM328.5 164V159.5H346.5V155H328.5V150.5H324V137H333V150.5H346.5V137H355.5V159.5H351V164H328.5Z" fill="#1A78C2"/>
</svg>
