<svg width="23" height="21" viewBox="0 0 23 21" fill="none" xmlns="http://www.w3.org/2000/svg">
<path d="M22.5 10.5L20.06 7.71L20.4 4.02L16.79 3.2L14.9 0L11.5 1.46L8.1 0L6.21 3.19L2.6 4L2.94 7.7L0.5 10.5L2.94 13.29L2.6 16.99L6.21 17.81L8.1 21L11.5 19.53L14.9 20.99L16.79 17.8L20.4 16.98L20.06 13.29L22.5 10.5ZM8.88 14.51L6.5 12.11C6.11 11.72 6.11 11.09 6.5 10.7L6.57 10.63C6.96 10.24 7.6 10.24 7.99 10.63L9.6 12.25L14.75 7.09C15.14 6.7 15.78 6.7 16.17 7.09L16.24 7.16C16.63 7.55 16.63 8.18 16.24 8.57L10.32 14.51C9.91 14.9 9.28 14.9 8.88 14.51Z" fill="#48A145"/>
</svg>
