<?xml version="1.0" standalone="no"?>
<!DOCTYPE svg PUBLIC "-//W3C//DTD SVG 20010904//EN"
 "http://www.w3.org/TR/2001/REC-SVG-20010904/DTD/svg10.dtd">
<svg version="1.0" xmlns="http://www.w3.org/2000/svg"
 width="40" height="40" viewBox="0 0 400.000000 300.000000"
 preserveAspectRatio="xMidYMid meet">

<g transform="translate(0.000000,300.000000) scale(0.100000,-0.100000)"
fill="#000000" stroke="none">
<path d="M1360 2600 c-63 -11 -100 -42 -100 -84 0 -25 62 -21 78 4 15 25 77
28 86 4 16 -41 8 -50 -56 -62 -81 -15 -118 -51 -118 -115 0 -61 29 -87 97 -87
37 0 54 5 68 20 l18 20 23 -21 c17 -16 26 -18 41 -10 38 20 45 36 28 67 -10
20 -15 59 -15 120 0 83 -2 92 -24 113 -29 27 -78 39 -126 31z m70 -200 c0 -60
-34 -99 -74 -84 -42 16 -22 98 26 107 45 9 48 7 48 -23z"/>
<path d="M474 2566 c-45 -45 -45 -66 1 -66 23 0 38 6 42 16 3 8 17 20 30 25
35 13 63 -5 63 -40 0 -27 -4 -29 -47 -36 -58 -8 -97 -27 -117 -57 -23 -32 -20
-90 5 -122 17 -22 28 -26 70 -26 29 0 60 7 75 16 23 15 26 15 43 0 24 -22 33
-20 60 8 21 23 22 25 7 54 -11 22 -16 59 -16 122 0 83 -2 93 -25 115 -21 22
-33 25 -91 25 -62 0 -68 -2 -100 -34z m136 -176 c0 -58 -41 -95 -78 -71 -14 9
-19 61 -8 79 6 10 52 28 79 31 4 1 7 -17 7 -39z"/>
<path d="M777 2594 c-4 -4 -7 -81 -7 -171 l0 -163 40 0 40 0 0 108 c0 114 11
154 45 160 35 7 45 -24 45 -150 l0 -118 40 0 40 0 0 118 c0 105 2 121 19 136
24 22 57 13 65 -17 3 -12 6 -70 6 -129 l0 -108 40 0 40 0 0 129 c0 135 -10
185 -40 201 -38 21 -104 6 -123 -27 -7 -11 -13 -9 -32 11 -32 35 -86 35 -120
2 -24 -24 -24 -24 -27 -2 -2 15 -11 22 -33 24 -17 2 -34 0 -38 -4z"/>
<path d="M1594 2586 c-15 -38 -1 -51 59 -54 l57 -3 -65 -96 c-49 -72 -65 -104
-65 -130 0 -34 1 -35 28 -27 35 11 160 12 190 1 20 -8 22 -5 22 28 0 29 -5 37
-26 45 -14 6 -38 10 -54 10 -16 0 -31 4 -34 8 -2 4 22 48 55 96 36 54 59 98
57 110 -3 20 -10 21 -111 24 -87 2 -108 0 -113 -12z"/>
<path d="M1923 2578 c-41 -29 -63 -83 -63 -156 1 -189 213 -236 265 -58 17 59
8 137 -21 181 -37 57 -125 72 -181 33z m114 -68 c16 -31 17 -131 1 -164 -14
-32 -45 -43 -65 -23 -32 32 -39 147 -11 200 14 26 59 18 75 -13z"/>
<path d="M2190 2430 l0 -170 40 0 40 0 0 114 c0 95 3 117 18 136 22 27 57 20
66 -13 3 -12 6 -70 6 -129 l0 -108 40 0 40 0 0 129 c0 135 -10 185 -40 201
-34 18 -79 11 -106 -15 -14 -14 -27 -25 -29 -25 -3 0 -5 11 -5 25 0 22 -4 25
-35 25 l-35 0 0 -170z"/>
<path d="M1615 2221 l-40 -19 73 -1 c94 -1 94 -2 56 -131 -7 -23 -6 -24 10
-11 23 20 52 78 60 123 6 31 3 39 -13 47 -31 17 -102 12 -146 -8z"/>
<path d="M715 2212 c-10 -10 113 -95 190 -132 44 -21 114 -45 155 -55 101 -22
264 -23 360 0 115 27 279 110 258 130 -3 3 -45 -8 -94 -24 -139 -45 -214 -54
-375 -49 -165 6 -274 32 -410 97 -43 20 -81 35 -84 33z"/>
<path d="M523 1742 c-75 -6 -123 -74 -123 -178 0 -38 -2 -41 -37 -50 -31 -7
-38 -13 -38 -34 0 -22 5 -25 37 -28 l38 -3 2 -187 3 -187 47 -3 48 -3 2 188 3
188 68 3 67 3 0 33 c0 39 -6 42 -77 41 -49 0 -53 2 -59 28 -16 74 26 124 95
112 37 -6 41 -5 47 19 12 48 -25 65 -123 58z"/>
<path d="M1277 1644 c-3 -4 -9 -32 -13 -64 l-6 -57 -42 -9 c-35 -8 -41 -13
-41 -34 0 -22 5 -25 38 -28 l37 -3 0 -140 c0 -203 21 -239 137 -240 88 -2 105
6 101 44 -3 31 -4 32 -55 32 -29 0 -58 6 -65 13 -9 9 -13 52 -13 150 l0 137
63 3 62 3 0 33 c0 29 -4 34 -31 40 -17 3 -47 6 -65 6 l-34 0 0 60 0 60 -33 0
c-19 0 -37 -3 -40 -6z"/>
<path d="M2550 1529 c-51 -15 -97 -54 -122 -102 -32 -60 -32 -203 0 -264 39
-75 111 -107 225 -101 94 5 132 23 132 63 0 24 -4 29 -20 27 -82 -12 -168 -13
-195 -2 -37 15 -68 56 -72 96 l-3 29 145 3 c79 2 147 6 150 8 3 3 5 33 4 67
-1 75 -24 129 -68 157 -39 23 -128 33 -176 19z m107 -74 c23 -6 53 -60 53 -94
0 -21 -4 -22 -107 -19 l-108 3 4 25 c5 38 39 79 74 89 32 9 41 8 84 -4z"/>
<path d="M1020 1522 c-6 -2 -10 -70 -10 -176 l0 -172 -35 -17 c-36 -17 -111
-23 -131 -9 -28 18 -34 56 -34 211 l0 161 -50 0 -50 0 0 -180 c0 -202 8 -238
59 -264 55 -29 151 -17 213 26 l28 19 10 -26 c9 -23 15 -26 47 -23 l38 3 3
223 c1 122 -1 222 -5 223 -32 3 -75 3 -83 1z"/>
<path d="M1608 1522 l-38 -3 0 -184 c0 -101 4 -195 10 -209 26 -69 135 -86
232 -37 l56 29 6 -24 c5 -20 13 -24 46 -24 l40 0 0 225 0 225 -50 0 -50 0 0
-174 0 -174 -34 -16 c-19 -9 -54 -16 -79 -16 -72 0 -77 13 -77 211 0 182 2
177 -62 171z"/>
<path d="M2102 1522 c-9 -3 -12 -67 -12 -228 l0 -225 48 3 47 3 3 162 c2 160
3 163 27 179 13 9 51 18 85 21 l60 6 0 38 c0 21 -5 41 -10 44 -21 13 -92 -8
-125 -36 -18 -16 -35 -29 -38 -29 -2 0 -7 13 -10 29 -5 22 -13 30 -35 33 -16
2 -34 2 -40 0z"/>
<path d="M3035 1456 c-21 -31 -14 -44 59 -116 31 -30 56 -59 56 -65 0 -6 -29
-40 -65 -74 -36 -35 -65 -71 -65 -81 0 -18 34 -50 54 -50 18 0 196 184 196
203 0 25 -177 207 -202 207 -9 0 -25 -11 -33 -24z"/>
<path d="M3340 1461 c-17 -34 -12 -45 55 -111 36 -35 65 -69 65 -75 0 -6 -29
-37 -65 -70 -51 -46 -65 -65 -65 -87 0 -33 33 -52 63 -36 33 17 187 173 187
190 0 9 -41 59 -91 112 -95 100 -127 117 -149 77z"/>
<path d="M480 925 c-46 -21 -77 -51 -103 -100 -18 -32 -22 -57 -22 -130 0
-108 22 -160 87 -202 38 -26 50 -28 137 -28 105 0 152 15 157 50 6 37 -10 49
-46 36 -49 -17 -140 -14 -180 7 -21 10 -42 32 -53 55 -32 64 -26 67 138 67
l145 0 0 74 c0 79 -18 119 -71 159 -36 26 -142 33 -189 12z m114 -65 c30 -11
53 -44 62 -88 l7 -32 -112 0 c-70 0 -111 4 -111 10 0 29 33 82 62 100 37 22
55 24 92 10z"/>
<path d="M1016 920 c-27 -11 -54 -24 -60 -30 -14 -14 -26 -12 -26 5 0 18 -31
35 -64 35 l-26 0 0 -231 0 -230 48 3 47 3 3 172 c3 196 3 195 89 209 52 8 88
0 99 -23 5 -10 11 -94 14 -188 l5 -170 45 0 45 0 3 188 c2 155 0 192 -13 218
-30 58 -118 74 -209 39z"/>
<path d="M1462 933 c-12 -3 -40 -21 -61 -41 -117 -111 -79 -362 60 -402 51
-15 85 -12 131 10 23 11 45 20 50 20 16 0 8 -75 -12 -107 -29 -48 -52 -56
-139 -50 -42 3 -86 9 -99 13 -22 6 -23 4 -20 -31 3 -34 7 -40 38 -51 50 -18
173 -17 217 1 48 20 70 41 97 90 19 37 21 57 24 284 4 264 5 261 -51 261 -21
0 -30 -6 -34 -20 -3 -11 -6 -20 -7 -20 0 0 -23 11 -50 25 -47 24 -88 29 -144
18z m158 -88 l30 -16 0 -117 0 -118 -29 -17 c-32 -19 -102 -23 -132 -7 -70 38
-71 238 -2 279 27 15 100 13 133 -4z"/>
<path d="M2284 926 c-23 -7 -52 -21 -65 -30 -31 -21 -37 -20 -41 7 -3 19 -9
22 -43 22 l-40 0 0 -225 0 -225 45 0 45 0 3 173 2 173 43 19 c53 24 108 25
136 3 20 -17 21 -29 23 -193 l3 -175 45 0 45 0 3 194 c3 217 -1 231 -63 257
-42 17 -86 17 -141 0z"/>
<path d="M2734 930 c-88 -21 -144 -107 -144 -225 0 -95 15 -143 59 -186 46
-47 104 -63 196 -56 104 8 125 18 125 63 0 33 -2 36 -22 29 -53 -16 -163 -17
-199 -2 -37 15 -69 65 -69 106 0 20 6 21 148 23 l147 3 3 55 c9 149 -91 227
-244 190z m134 -95 c13 -16 22 -39 22 -61 l0 -34 -106 0 -106 0 6 30 c18 93
126 130 184 65z"/>
<path d="M3182 927 c-39 -15 -87 -58 -110 -101 -27 -49 -24 -208 4 -261 12
-22 30 -48 41 -57 49 -44 180 -61 268 -34 37 11 40 15 43 50 l3 38 -33 -9
c-18 -4 -68 -8 -110 -8 -67 0 -80 3 -102 24 -27 26 -51 84 -41 101 4 6 64 10
152 10 l145 0 -3 79 c-4 85 -18 114 -71 154 -32 24 -139 32 -186 14z m146 -92
c13 -16 22 -39 22 -61 l0 -34 -106 0 -106 0 6 28 c9 36 37 74 67 90 35 18 90
7 117 -23z"/>
<path d="M1875 918 c-3 -7 -4 -110 -3 -228 l3 -215 45 0 45 0 0 225 0 225 -43
3 c-28 2 -44 -1 -47 -10z"/>
<path d="M3544 919 c-10 -17 -18 -326 -10 -392 l7 -57 45 0 44 0 1 143 c2 183
5 197 49 213 19 7 56 13 83 13 51 1 52 3 41 61 -7 31 -8 32 -47 27 -22 -3 -60
-19 -84 -36 l-43 -30 -6 27 c-4 15 -12 30 -18 34 -17 12 -54 9 -62 -3z"/>
</g>
</svg>
