<svg width="40" height="40" viewBox="0 0 40 40" fill="none" xmlns="http://www.w3.org/2000/svg">
<path d="M20.0002 36.6668C10.8099 36.6668 3.3335 29.1904 3.3335 20.0002C3.3335 10.8099 10.8099 3.3335 20.0002 3.3335C29.1904 3.3335 36.6668 10.8099 36.6668 20.0002C36.6668 29.1904 29.1904 36.6668 20.0002 36.6668ZM20.0002 6.66683C12.6483 6.66683 6.66683 12.6483 6.66683 20.0002C6.66683 27.3521 12.6483 33.3335 20.0002 33.3335C27.3521 33.3335 33.3335 27.3521 33.3335 20.0002C33.3335 12.6483 27.3521 6.66683 20.0002 6.66683Z" fill="#DAE0FF"/>
<path d="M20.0001 36.6668C15.2491 36.6668 11.6667 29.5021 11.6667 20.0002C11.6667 10.4982 15.2491 3.3335 20.0001 3.3335C24.7511 3.3335 28.3334 10.4982 28.3334 20.0002C28.3334 29.5021 24.7511 36.6668 20.0001 36.6668ZM20.0001 6.66683C17.9615 6.66683 15.0001 11.8613 15.0001 20.0002C15.0001 28.139 17.9615 33.3335 20.0001 33.3335C22.0387 33.3335 25.0001 28.139 25.0001 20.0002C25.0001 11.8613 22.0387 6.66683 20.0001 6.66683Z" fill="#DAE0FF"/>
<path d="M15.8335 10C17.2142 10 18.3335 8.88071 18.3335 7.5C18.3335 6.11929 17.2142 5 15.8335 5C14.4528 5 13.3335 6.11929 13.3335 7.5C13.3335 8.88071 14.4528 10 15.8335 10Z" fill="#B8C2FF"/>
<path d="M13.3334 20.0002C14.2539 20.0002 15.0001 19.254 15.0001 18.3335C15.0001 17.4131 14.2539 16.6669 13.3334 16.6669C12.4129 16.6669 11.6667 17.4131 11.6667 18.3335C11.6667 19.254 12.4129 20.0002 13.3334 20.0002Z" fill="#B8C2FF"/>
<path d="M26.6667 23.3333C27.5871 23.3333 28.3333 22.5871 28.3333 21.6667C28.3333 20.7462 27.5871 20 26.6667 20C25.7462 20 25 20.7462 25 21.6667C25 22.5871 25.7462 23.3333 26.6667 23.3333Z" fill="#B8C2FF"/>
<path d="M23.3334 35.0002C24.2539 35.0002 25.0001 34.254 25.0001 33.3335C25.0001 32.4131 24.2539 31.6669 23.3334 31.6669C22.4129 31.6669 21.6667 32.4131 21.6667 33.3335C21.6667 34.254 22.4129 35.0002 23.3334 35.0002Z" fill="#B8C2FF"/>
<path d="M20.0002 28.3334C10.4982 28.3334 3.3335 24.7511 3.3335 20.0001C3.3335 15.2491 10.4982 11.6667 20.0002 11.6667C29.5021 11.6667 36.6668 15.2491 36.6668 20.0001C36.6668 24.7511 29.5021 28.3334 20.0002 28.3334ZM20.0002 15.0001C11.8613 15.0001 6.66683 17.9615 6.66683 20.0001C6.66683 22.0387 11.8613 25.0001 20.0002 25.0001C28.139 25.0001 33.3335 22.0387 33.3335 20.0001C33.3335 17.9615 28.139 15.0001 20.0002 15.0001Z" fill="#DAE0FF"/>
<path d="M32.5 26.6669C33.8807 26.6669 35 25.5476 35 24.1669C35 22.7862 33.8807 21.6669 32.5 21.6669C31.1193 21.6669 30 22.7862 30 24.1669C30 25.5476 31.1193 26.6669 32.5 26.6669Z" fill="#B8C2FF"/>
<path d="M17.291 13.9576C17.9658 12.7471 18.3243 11.3859 18.3334 10.0001C18.3334 8.35191 17.8447 6.74074 16.929 5.37033C16.0133 3.99992 14.7118 2.93182 13.1891 2.30109C11.6664 1.67036 9.99084 1.50533 8.37433 1.82687C6.75782 2.14842 5.27297 2.94209 4.10753 4.10753C2.94209 5.27297 2.14842 6.75782 1.82687 8.37433C1.50533 9.99084 1.67036 11.6664 2.30109 13.1891C2.93182 14.7118 3.99992 16.0133 5.37033 16.929C6.74074 17.8447 8.35191 18.3334 10.0001 18.3334C11.386 18.3243 12.7471 17.9657 13.9577 17.2909L14.3098 17.643C14.5286 17.8619 14.7885 18.0355 15.0744 18.154C15.3604 18.2724 15.6669 18.3334 15.9764 18.3334C16.2859 18.3334 16.5924 18.2724 16.8784 18.154C17.1643 18.0355 17.4242 17.8619 17.643 17.643H17.6431C18.0851 17.201 18.3334 16.6015 18.3334 15.9763C18.3334 15.3512 18.0851 14.7517 17.6431 14.3097L17.291 13.9576Z" fill="#079CFF"/>
<path d="M10.0002 3.3334C8.23268 3.33542 6.53816 4.03845 5.28835 5.28825C4.03854 6.53806 3.33552 8.23258 3.3335 10.0001L3.3335 10.0094V10.0102L3.33352 10.019L3.33353 10.0202L3.33356 10.0289L3.33356 10.0303L3.33361 10.0389L3.33361 10.0401L3.33367 10.049L3.33368 10.0496L3.33375 10.0587L3.33375 10.0591L3.33384 10.0682L3.33385 10.0692L3.33394 10.0778L3.33396 10.0793L3.33407 10.0879L3.33408 10.0891L3.3342 10.0979L3.33422 10.0989L3.33435 10.108V10.1082L3.33451 10.1175L3.33452 10.118L3.33468 10.127L3.3347 10.128L3.33487 10.1366L3.3349 10.1382L3.33508 10.1466L3.33511 10.148L3.3353 10.1565L3.33533 10.158L3.33555 10.1668V10.1669L3.33578 10.1761L3.3358 10.1768L3.33603 10.1856L3.33607 10.1869L3.33631 10.1953L3.33635 10.1969L3.3366 10.2052L3.33665 10.2068L3.33691 10.2153L3.33695 10.2165L3.33723 10.2251L3.33726 10.226L3.33754 10.2342L3.33759 10.2356L3.33788 10.2438L3.33795 10.2457L3.33826 10.2539L3.33831 10.2554L3.33864 10.2639L3.33869 10.2653L3.33903 10.2738L3.33908 10.275L3.33943 10.2835L3.33946 10.2841L3.33983 10.2929L3.33989 10.294L3.34026 10.3026L3.34033 10.304L3.34071 10.3123L3.34078 10.314L3.34117 10.3223L3.34125 10.3238L3.34167 10.3324L3.3417 10.333C3.342 10.3391 3.3423 10.3451 3.34262 10.3512L3.34269 10.3524L3.34314 10.3609L3.34321 10.3623L3.34367 10.3707L3.34376 10.3722L3.34423 10.3807L3.34429 10.3818L3.3448 10.3906L3.34484 10.3913L3.34535 10.4L3.34539 10.4007L3.34592 10.4095L3.34599 10.4106L3.34652 10.4192L3.3466 10.4205L3.34714 10.429L3.34722 10.4303L3.34778 10.4389L3.34784 10.4399L3.34843 10.4489L3.34845 10.4491L3.34904 10.4578L3.34911 10.459L3.34968 10.4672L3.3498 10.469L3.35038 10.4771L3.3505 10.4788L3.35109 10.487L3.35119 10.4884L3.35182 10.497L3.35188 10.4978L3.35255 10.5067L3.35257 10.507L3.35326 10.516L3.35332 10.5169L3.35397 10.5253L3.3541 10.5269L3.35476 10.5352L3.35488 10.5367L3.35554 10.5449L3.35567 10.5465L3.35637 10.555L3.35641 10.5555L3.35715 10.5644L3.3572 10.5649L3.35793 10.5735L3.35804 10.5749L3.35875 10.583L3.3589 10.5848L3.35962 10.593L3.35975 10.5944L3.36049 10.6027L3.36063 10.6042L3.36139 10.6126L3.36148 10.6136L3.36221 10.6215L3.36233 10.6229L3.36312 10.6312L3.36325 10.6326L3.36403 10.6408L3.36419 10.6424L3.36498 10.6506L3.36512 10.6521L3.36594 10.6604L3.36606 10.6617L3.36694 10.6705V10.6705L3.36787 10.6798L3.36791 10.6802L3.36883 10.6891L3.36892 10.69L3.3698 10.6985L3.36995 10.6999L3.37083 10.7082L3.37097 10.7096L3.37187 10.718L3.37199 10.7191L3.37293 10.7277L3.37298 10.7282L3.3739 10.7366L3.37404 10.7379L3.37497 10.7462L3.37513 10.7476L3.37605 10.7559L3.37622 10.7573L3.37718 10.7657L3.37731 10.7669L3.37828 10.7753L3.37844 10.7766L3.37941 10.7849L3.37946 10.7853L3.38046 10.7938L3.38064 10.7953L3.38162 10.8035L3.3818 10.8049L3.38278 10.813L3.38299 10.8147L3.38399 10.8228L3.38415 10.8242L3.3852 10.8326L3.38532 10.8336L3.38638 10.8419L3.38646 10.8426L3.38754 10.8511L3.38771 10.8524L3.38877 10.8606L3.38896 10.8621L3.39002 10.8702L3.39022 10.8718L3.39131 10.88L3.39146 10.8812L3.39261 10.8898L3.39269 10.8904L3.39381 10.8987L3.39394 10.8997L3.39506 10.9079L3.39527 10.9095L3.3964 10.9176L3.3966 10.9191L3.39772 10.9271L3.39795 10.9288L3.39911 10.937L3.39924 10.938L3.40048 10.9467L3.40054 10.9471L3.40175 10.9555L3.40191 10.9566L3.4031 10.9648L3.40333 10.9664L3.40452 10.9746L3.40472 10.9759L3.40592 10.984L3.40616 10.9856L3.40738 10.9938L3.40752 10.9948L3.4088 11.0032L3.40887 11.0037L3.41023 11.0126L3.41031 11.0131L3.41164 11.0218L3.41181 11.0229L3.4131 11.0312L3.41332 11.0326L3.41458 11.0407L3.41484 11.0423L3.41612 11.0504L3.41629 11.0515L3.41759 11.0596L3.41771 11.0603L3.41905 11.0686L3.41928 11.0701L3.42056 11.078L3.42087 11.0798L3.42215 11.0877L3.42241 11.0892L3.42376 11.0974L3.42396 11.0985L3.42536 11.1069L3.42551 11.1078L3.42685 11.1158L3.42703 11.1168L3.42842 11.125L3.42867 11.1265L3.43004 11.1345L3.43031 11.136L3.4317 11.144L3.43196 11.1456L3.43336 11.1536L3.43361 11.155L3.43507 11.1633L3.43519 11.164L3.43661 11.172L3.43682 11.1732L3.43832 11.1815L3.43851 11.1826L3.43998 11.1907L3.44026 11.1923L3.44171 11.2003L3.44198 11.2018L3.44346 11.2098L3.44371 11.2111L3.44522 11.2193L3.44531 11.2198L3.44682 11.2279L3.4471 11.2294L3.44858 11.2373L3.44889 11.2389L3.45035 11.2467L3.45071 11.2485L3.45218 11.2563L3.45248 11.2578L3.45402 11.2658L3.45428 11.2672L3.45577 11.2749L3.45597 11.2759L3.45751 11.2838L3.45784 11.2854L3.45937 11.2932L3.4597 11.2949L3.46123 11.3026L3.4616 11.3045L3.46315 11.3122L3.46344 11.3137L3.46509 11.3219L3.46523 11.3225L3.46692 11.3309L3.46705 11.3315L3.46877 11.34L3.46898 11.341L3.47065 11.3491L3.47096 11.3506L3.47259 11.3585L3.47293 11.3601L3.47455 11.3679L3.47489 11.3695L3.47656 11.3774L3.47679 11.3785L3.4784 11.3862L3.47866 11.3873L3.48035 11.3953L3.48068 11.3968L3.48237 11.4047L3.4827 11.4063L3.4844 11.4141L3.48473 11.4156L3.48649 11.4237L3.48669 11.4246L3.48856 11.4331L3.48863 11.4335L3.49046 11.4418L3.49068 11.4428L3.49243 11.4506L3.49283 11.4524L3.49455 11.4601L3.4949 11.4617L3.49667 11.4695L3.497 11.471L3.49882 11.4791L3.49903 11.48L3.50089 11.4881L3.50104 11.4888L3.50295 11.4971L3.50318 11.4981L3.50503 11.5061L3.5054 11.5077L3.50717 11.5153L3.5076 11.5171L3.50936 11.5246L3.5098 11.5265L3.51162 11.5342L3.51187 11.5353L3.51372 11.5431L3.51392 11.5439L3.51585 11.552L3.51617 11.5533L3.51802 11.5611L3.51846 11.5629L3.52029 11.5704L3.52069 11.5721L3.52258 11.5799L3.52291 11.5812L3.5249 11.5893L3.52508 11.5901L3.52697 11.5978L3.52729 11.5991L3.52926 11.607L3.52959 11.6083L3.53153 11.6161L3.53194 11.6178L3.53388 11.6255L3.53425 11.627L3.53623 11.6348L3.53656 11.6361L3.53865 11.6443L3.53869 11.6445L3.54082 11.6528L3.54106 11.6538L3.54317 11.662L3.54343 11.663L3.54547 11.6709L3.5459 11.6725L3.54789 11.6802L3.54827 11.6817L3.55032 11.6895L3.55067 11.6908L3.55274 11.6987L3.55288 11.6992L3.55497 11.7071L3.55536 11.7086L3.5574 11.7163L3.55782 11.7179L3.55985 11.7254L3.56032 11.7272L3.56234 11.7347L3.56279 11.7364L3.56488 11.7441L3.5652 11.7453L3.56722 11.7527L3.56754 11.7539L3.56964 11.7615L3.57006 11.7631L3.57211 11.7705L3.57265 11.7725L3.57465 11.7797L3.57521 11.7817L3.57723 11.789L3.57776 11.7909L3.57984 11.7983L3.58026 11.7998L3.58221 11.8067L3.58262 11.8082L3.58471 11.8156L3.58527 11.8176L3.58734 11.8248L3.58788 11.8267L3.58994 11.8339L3.59054 11.836L3.59265 11.8434L3.59308 11.8448L3.59534 11.8527L3.59559 11.8535L3.59783 11.8612L3.59808 11.8621L3.60037 11.87L3.60081 11.8715L3.60301 11.879L3.60353 11.8807L3.60569 11.888L3.60627 11.89L3.60848 11.8974L3.60883 11.8986L3.61115 11.9064L3.61143 11.9073L3.61374 11.915L3.61408 11.9162L3.61641 11.9239L3.61686 11.9254L3.61916 11.933L3.61962 11.9345L3.62198 11.9422L3.62233 11.9434L3.62478 11.9514L3.62504 11.9523L3.62747 11.9602L3.62764 11.9607L3.63019 11.969L3.63045 11.9698L3.63295 11.9778L3.63328 11.9789L3.63576 11.9869L3.63611 11.988L3.63859 11.9959L3.63896 11.997L3.64148 12.005L3.64169 12.0057L3.64422 12.0137L3.64442 12.0143L3.64697 12.0223L3.64734 12.0235L3.64975 12.031L3.65031 12.0328L3.65273 12.0403L3.65314 12.0416L3.65568 12.0494L3.65598 12.0504C3.65778 12.0559 3.6596 12.0615 3.66142 12.0671L3.66163 12.0677L3.66425 12.0757L3.66461 12.0768L3.6671 12.0844L3.66767 12.0861L3.6701 12.0934L3.67063 12.095L3.67309 12.1024L3.67363 12.1041L3.67608 12.1114L3.67645 12.1125L3.67891 12.1198L3.67935 12.1211L3.68189 12.1287L3.68239 12.1302L3.68493 12.1377L3.68545 12.1392L3.68801 12.1467L3.68847 12.1481L3.69109 12.1557L3.69147 12.1568L3.69418 12.1647L3.69425 12.1649L3.69698 12.1728L3.69742 12.1741L3.70005 12.1817L3.70054 12.1831L3.70313 12.1905L3.70367 12.1921L3.70628 12.1995L3.70677 12.2009L3.70947 12.2086L3.70977 12.2095L3.71263 12.2176L3.71269 12.2177L3.7155 12.2257L3.71595 12.2269L3.71862 12.2344L3.71916 12.236L3.72172 12.2431L3.72244 12.2451L3.72505 12.2524L3.72547 12.2536L3.72827 12.2613L3.72859 12.2622L3.73137 12.2698L3.73159 12.2705L3.73442 12.2782L3.73488 12.2795L3.7377 12.2872L3.73808 12.2882L3.74091 12.296L3.74139 12.2973L3.7442 12.3049L3.7446 12.306L3.74747 12.3137L3.74781 12.3146L3.7506 12.3221L3.75091 12.323L3.75377 12.3306L3.75429 12.332L3.75706 12.3394L3.75763 12.3409L3.7604 12.3483L3.76095 12.3497L3.76378 12.3572L3.76421 12.3583L3.76711 12.3659L3.76734 12.3665L3.77017 12.3739L3.7707 12.3753L3.77341 12.3824L3.77417 12.3844L3.77687 12.3914L3.77752 12.3931L3.7803 12.4003L3.7809 12.4018L3.7838 12.4093L3.78416 12.4102L3.78706 12.4177L3.78739 12.4185L3.79041 12.4262L3.79082 12.4273L3.79381 12.4349L3.79428 12.4361L3.7973 12.4437L3.79771 12.4448L3.80072 12.4524L3.80123 12.4537L3.80426 12.4613L3.80455 12.462L3.80758 12.4696L3.80785 12.4703L3.81098 12.4781L3.81139 12.4791L3.81435 12.4864L3.815 12.488L3.81793 12.4953L3.8185 12.4967L3.82152 12.5041L3.82198 12.5052L3.82511 12.5129L3.82538 12.5136L3.82838 12.5209L3.82884 12.522L3.83189 12.5295L3.83244 12.5308L3.83547 12.5381L3.83605 12.5395L3.83914 12.547L3.83955 12.548L3.84279 12.5558L3.84307 12.5564C3.84537 12.562 3.84762 12.5673 3.84994 12.5729L3.85007 12.5732L3.85338 12.581L3.8538 12.582L3.85699 12.5896L3.85746 12.5907L3.86075 12.5985L3.86101 12.5991L3.86441 12.6071L3.86465 12.6076C3.86692 12.6129 3.86924 12.6184 3.87152 12.6237L3.8719 12.6246L3.8752 12.6322L3.87563 12.6332L3.87885 12.6407L3.87942 12.642L3.88263 12.6494L3.88309 12.6504L3.88637 12.658L3.88681 12.659C3.88912 12.6643 3.89133 12.6693 3.89366 12.6746L3.89409 12.6756L3.89737 12.683L3.89791 12.6843L3.90113 12.6915L3.90173 12.6929L3.90505 12.7003L3.90537 12.7011L3.90889 12.709L3.90905 12.7093L3.91256 12.7172L3.91277 12.7177L3.91613 12.7251L3.91673 12.7265L3.92006 12.7339L3.92052 12.7349L3.92393 12.7424L3.92438 12.7434L3.92784 12.751L3.92815 12.7517L3.93176 12.7596L3.93184 12.7598L3.93545 12.7677L3.9357 12.7682L3.93915 12.7758L3.9397 12.777L3.94303 12.7842L3.94365 12.7855L3.94691 12.7926L3.94766 12.7942L3.95096 12.8013L3.95146 12.8024L3.95496 12.8099L3.95505 12.8101L3.95875 12.818L3.95903 12.8186L3.96253 12.8261L3.96312 12.8273L3.96656 12.8346L3.96706 12.8357L3.97057 12.8431L3.97105 12.8441L3.97467 12.8518L3.97481 12.852L3.97852 12.8598L3.97874 12.8603L3.98244 12.868L3.98278 12.8688L3.98635 12.8762L3.9869 12.8774L3.99049 12.8848L3.99085 12.8856L3.99453 12.8932L3.99494 12.894L3.99866 12.9017L3.99882 12.902L4.0026 12.9098L4.00279 12.9102L4.00647 12.9177L4.00699 12.9188L4.01045 12.9259L4.01123 12.9275L4.01458 12.9343L4.01537 12.9359L4.01879 12.9428L4.01943 12.9441L4.02305 12.9514L4.02326 12.9518L4.02696 12.9593L4.02731 12.96L4.03101 12.9674L4.03152 12.9684L4.03515 12.9757L4.03573 12.9768L4.03936 12.9841L4.03992 12.9852L4.04354 12.9924L4.0441 12.9935C4.04669 12.9986 4.0492 13.0036 4.05181 13.0087L4.0522 13.0095L4.056 13.017L4.05644 13.0178L4.06019 13.0252L4.06071 13.0262L4.06455 13.0337L4.06481 13.0342L4.06879 13.0419L4.06905 13.0424C4.07169 13.0476 4.07431 13.0526 4.07696 13.0577L4.07752 13.0588L4.08131 13.0661L4.08178 13.067L4.08557 13.0743L4.08613 13.0754L4.0899 13.0826L4.09043 13.0836L4.09432 13.091L4.09456 13.0915L4.09853 13.099L4.09874 13.0994L4.10272 13.1069L4.10314 13.1077L4.10695 13.1149L4.1076 13.1161L4.11134 13.1232L4.11198 13.1244L4.1158 13.1315L4.11624 13.1324L4.12461 13.148L4.12468 13.1481L4.1288 13.1557L4.12916 13.1564L4.1332 13.1639L4.13359 13.1646L4.13763 13.1721L4.138 13.1727L4.14212 13.1803L4.14237 13.1808L4.1466 13.1885L4.14665 13.1886L4.15086 13.1963L4.15112 13.1968L4.15515 13.2041L4.1557 13.2051L4.15969 13.2123L4.16016 13.2132L4.16412 13.2203L4.16474 13.2215L4.16876 13.2287L4.16901 13.2291C4.1719 13.2343 4.1748 13.2395 4.1777 13.2447L4.17784 13.245L4.18197 13.2523L4.18253 13.2534L4.18657 13.2605L4.18704 13.2614L4.19113 13.2686L4.19162 13.2695L4.19581 13.2769L4.19595 13.2771L4.20028 13.2848L4.20044 13.285L4.20472 13.2925L4.20508 13.2932L4.20924 13.3005L4.20974 13.3013L4.21387 13.3085L4.21436 13.3094L4.21851 13.3166L4.21897 13.3174C4.22337 13.3251 4.22783 13.3328 4.23226 13.3404L4.23261 13.341L4.23679 13.3481L4.23738 13.3492L4.24149 13.3562L4.24206 13.3572L4.24624 13.3643L4.24667 13.365C4.24957 13.37 4.25253 13.375 4.25545 13.38L4.25585 13.3806L4.26015 13.3879L4.26058 13.3886L4.26482 13.3958L4.26537 13.3967L4.26958 13.4038L4.27012 13.4047L4.27435 13.4118L4.27483 13.4126C4.27778 13.4175 4.28065 13.4223 4.28361 13.4272L4.28412 13.428L4.28831 13.435L4.28896 13.4361L4.29303 13.4428L4.29386 13.4442L4.29799 13.451L4.29852 13.4519L4.30293 13.4591L4.30312 13.4594L4.30777 13.467L4.30778 13.467L4.31222 13.4743L4.31276 13.4752L4.31711 13.4823L4.31758 13.483L4.32193 13.4901L4.32254 13.4911L4.32682 13.498L4.32736 13.4989L4.3318 13.506L4.33202 13.5064L4.3367 13.5139L4.33671 13.5139L4.34141 13.5215L4.34165 13.5218L4.34619 13.5291L4.34664 13.5298L4.35106 13.5369L4.35162 13.5377L4.35611 13.5449L4.35638 13.5453C4.36107 13.5527 4.36588 13.5604 4.3706 13.5678L4.37115 13.5686L4.37566 13.5757L4.37605 13.5763L4.38063 13.5835L4.38105 13.5841C4.38744 13.5941 4.39402 13.6043 4.40046 13.6143L4.40082 13.6148L4.40548 13.622L4.40584 13.6226L4.41042 13.6296L4.41104 13.6306L4.41562 13.6376L4.41581 13.6379C4.41915 13.643 4.42229 13.6478 4.42565 13.6529L4.42578 13.6531L4.43056 13.6603L4.43095 13.6609L4.43564 13.6681L4.43605 13.6687L4.4408 13.6758L4.44107 13.6762L4.44597 13.6836L4.44598 13.6836L4.45594 13.6986L4.45627 13.699L4.46105 13.7062L4.46141 13.7067L4.46621 13.7139L4.46656 13.7144L4.47149 13.7217H4.4715C4.47663 13.7293 4.48172 13.7368 4.48688 13.7444L4.48697 13.7445L4.49192 13.7518L4.49226 13.7523L4.49725 13.7595L4.49731 13.7596C4.50595 13.7722 4.51445 13.7846 4.52317 13.7971L4.52344 13.7975L4.52842 13.8046L4.52872 13.8051L4.5337 13.8122L4.53398 13.8126L4.5443 13.8273L4.54432 13.8273L4.54947 13.8346L4.54968 13.8349L4.55474 13.8421L4.55503 13.8425C4.56208 13.8525 4.56889 13.862 4.57599 13.872L4.57619 13.8722L4.58132 13.8794L4.58157 13.8797L4.58672 13.8869L4.58691 13.8872C4.59405 13.8971 4.60099 13.9066 4.60818 13.9165L4.60837 13.9168L4.61356 13.9239L4.61382 13.9243L4.61883 13.9311L4.61944 13.9319L4.62445 13.9388L4.62464 13.939C4.63006 13.9464 4.63522 13.9534 4.64067 13.9608L4.64092 13.9611L4.64617 13.9682L4.64637 13.9684L4.65165 13.9755L4.65188 13.9758C4.65917 13.9856 4.66625 13.9951 4.6736 14.0048L4.67378 14.0051L4.67914 14.0121L4.6793 14.0124L4.68469 14.0195L4.68482 14.0197C4.69219 14.0294 4.6994 14.0388 4.70682 14.0485L4.70701 14.0488L4.71247 14.0559L4.71255 14.056L4.71809 14.0632L4.71809 14.0632C4.72554 14.0728 4.73291 14.0823 4.74041 14.092L4.74061 14.0922L4.74613 14.0993L4.74617 14.0993L4.75177 14.1065L4.75182 14.1065C4.75746 14.1137 4.76308 14.1209 4.76875 14.1281L4.76877 14.1281L4.77428 14.135L4.77459 14.1354L4.78013 14.1424V14.1424C4.78583 14.1496 4.79144 14.1566 4.79716 14.1637L4.79729 14.1639L4.80284 14.1708L4.80308 14.1711L4.80861 14.178L4.80884 14.1782L4.81443 14.1852L4.81452 14.1853C4.82219 14.1948 4.8298 14.2041 4.83752 14.2136L4.83756 14.2136L4.84323 14.2205L4.84345 14.2208C4.85504 14.2349 4.86657 14.2489 4.87828 14.2629L4.87832 14.263C4.88613 14.2724 4.89386 14.2816 4.90172 14.2909L4.90184 14.291L4.90764 14.2979L4.90773 14.298L4.9135 14.3048L4.91372 14.3051C4.9216 14.3144 4.92928 14.3234 4.93721 14.3326L4.9374 14.3329L4.94323 14.3397L4.94331 14.3398C4.95324 14.3513 4.96309 14.3627 4.9731 14.3742L4.97323 14.3743L4.97903 14.381L4.97934 14.3814L4.98506 14.3879L4.98539 14.3883C4.9933 14.3973 5.00137 14.4065 5.00933 14.4154L5.0094 14.4155C6.05757 15.6025 7.49428 16.3772 9.06191 16.6009C9.27862 16.6316 9.49925 16.6192 9.7112 16.5646C9.92315 16.51 10.1223 16.4142 10.2972 16.2826C10.4721 16.1511 10.6194 15.9864 10.7306 15.7979C10.8419 15.6094 10.9149 15.4008 10.9456 15.1841C10.9763 14.9674 10.9639 14.7468 10.9093 14.5348C10.8547 14.3229 10.7589 14.1238 10.6273 13.9489C10.4958 13.7739 10.331 13.6267 10.1426 13.5154C9.95408 13.4041 9.74552 13.3311 9.52881 13.3004C8.69412 13.1811 7.93564 12.75 7.40614 12.0938C6.87665 11.4376 6.61548 10.6051 6.67524 9.76409C6.735 8.92303 7.11125 8.13586 7.72821 7.56113C8.34517 6.9864 9.15699 6.66681 10.0002 6.66673C10.1962 6.66665 10.3918 6.68371 10.5848 6.71774C11.02 6.79465 11.4679 6.69558 11.8301 6.44233C12.1922 6.18907 12.4389 5.80236 12.516 5.36722C12.5931 4.93208 12.4942 4.48414 12.2411 4.12189C11.988 3.75965 11.6014 3.51275 11.1663 3.43549C11.1101 3.42554 11.0536 3.41629 10.9969 3.40776L10.9968 3.40773C10.991 3.40686 10.9852 3.40599 10.9794 3.40513L10.9788 3.40505L10.9706 3.40384L10.9694 3.40366L10.9615 3.40252L10.9601 3.4023L10.953 3.4013L10.9514 3.40106L10.9444 3.40007L10.9424 3.39977L10.9353 3.39877L10.9329 3.39843L10.9259 3.39745L10.9235 3.39712L10.9181 3.39637L10.9144 3.39586L10.9091 3.39513L10.9057 3.39466L10.8998 3.39386L10.8959 3.39334L10.8919 3.39279L10.8864 3.39206L10.8831 3.39162L10.8766 3.39076L10.8735 3.39036L10.8692 3.38979L10.8662 3.3894L10.8594 3.38853L10.8567 3.38818L10.8497 3.38728L10.8471 3.38695L10.838 3.38579L10.8376 3.38574L10.8324 3.38509H10.8324L10.8225 3.38386L10.8214 3.38372L10.812 3.38257L10.8114 3.3825C10.8027 3.38143 10.7944 3.38044 10.7857 3.37941L10.7853 3.37937C10.6739 3.36623 10.562 3.3559 10.449 3.34834L10.4487 3.34833C10.4399 3.34773 10.4313 3.34718 10.4225 3.34663L10.422 3.3466L10.4123 3.346L10.4112 3.34592L10.4014 3.34534L10.4011 3.34531C10.396 3.34501 10.3908 3.3447 10.3857 3.34442L10.3842 3.34433L10.3755 3.34384L10.374 3.34376L10.3646 3.34324L10.3639 3.3432L10.3588 3.34293L10.3576 3.34286L10.349 3.34241L10.3465 3.34228L10.3395 3.34193L10.3364 3.34177L10.3316 3.34153L10.3266 3.34127L10.3222 3.34107L10.3188 3.34091L10.3124 3.34061L10.3091 3.34046L10.3028 3.34016L10.2993 3.34001L10.2949 3.33982L10.2894 3.33958L10.2851 3.3394L10.2818 3.33926L10.2755 3.33899L10.2718 3.33884L10.2674 3.33867L10.2619 3.33846L10.2582 3.33832L10.2521 3.33808L10.2484 3.33794L10.2443 3.3378L10.2389 3.33761L10.2344 3.33744L10.231 3.33733L10.2248 3.33712L10.2211 3.337L10.2147 3.33679L10.2118 3.3367L10.2065 3.33654L10.2028 3.33642L10.197 3.33625L10.1941 3.33617L10.1873 3.33598L10.1843 3.33589L10.1775 3.33571L10.1752 3.33565L10.169 3.33549L10.1668 3.33543L10.1596 3.33526L10.157 3.3352L10.15 3.33503L10.1473 3.33498L10.1407 3.33484L10.1384 3.33479L10.1317 3.33466L10.1297 3.33463L10.1221 3.33447L10.1201 3.33444L10.1124 3.3343L10.1107 3.33428L10.1031 3.33416L10.1023 3.33415L10.0942 3.33402L10.0926 3.33401L10.0846 3.3339L10.083 3.33389L10.0751 3.3338L10.0736 3.33377L10.0661 3.33369L10.0651 3.33368L10.0571 3.33362L10.0553 3.3336L10.0473 3.33354L10.046 3.33353L10.0376 3.33348H10.0369L10.0289 3.33344L10.0277 3.33342L10.0196 3.3334H10.0181L10.01 3.33339L10.0087 3.33337L10.0002 3.3334Z" fill="#5CBEFF"/>
<path d="M10.0001 1.66687H9.99339L9.98915 1.66688H9.98675L9.98041 1.6669H9.98013L9.97618 1.66691H9.9733L9.9706 1.66692L9.96657 1.66693L9.96452 1.66695L9.9598 1.66697H9.9578L9.95322 1.667L9.95051 1.66702L9.94652 1.66704L9.94369 1.66706L9.93983 1.66709L9.93726 1.6671L9.9331 1.66714L9.93018 1.66716L9.92656 1.66719L9.92339 1.66721L9.91981 1.66725L9.91684 1.66728L9.91306 1.66732L9.91051 1.66734L9.90636 1.66739L9.9037 1.66742L9.89967 1.66747L9.8971 1.66749L9.89306 1.66754L9.89008 1.66758L9.88638 1.66763L9.88352 1.66767L9.87972 1.66772L9.87668 1.66777L9.87307 1.66782L9.8701 1.66786L9.86639 1.66793L9.86329 1.66798L9.85972 1.66803L9.85688 1.66808L9.8529 1.66814L9.85026 1.66819L9.84624 1.66827L9.84367 1.66831L9.83965 1.66839L9.83653 1.66845L9.83316 1.66851L9.82996 1.66858L9.82635 1.66866L9.82338 1.66872L9.81964 1.6688L9.81688 1.66885L9.81294 1.66894L9.81013 1.669L9.80622 1.66909L9.80365 1.66915L9.79956 1.66924L9.79685 1.66931L9.79291 1.66941L9.79029 1.66947L9.78631 1.66957L9.78338 1.66964L9.77964 1.66974L9.77697 1.6698L9.77287 1.66992L9.77026 1.66999L9.76624 1.6701L9.76365 1.67017L9.75966 1.67029L9.75678 1.67037L9.753 1.67048L9.75032 1.67056L9.74634 1.67067L9.74348 1.67076L9.73969 1.67088L9.73706 1.67095L9.73282 1.67109L9.73041 1.67117L9.72608 1.67131L9.72386 1.67138L9.71932 1.67153L9.71727 1.6716L9.71242 1.67176L9.71075 1.67182L9.70604 1.67198L9.70381 1.67207L9.69931 1.67223L9.69736 1.67229L9.69271 1.67247L9.69056 1.67255L9.6859 1.67271L9.68408 1.67279L9.67941 1.67295L9.67725 1.67304L9.67286 1.67321L9.67062 1.6733L9.66642 1.67346L9.66388 1.67356L9.65936 1.67374L9.65748 1.67382L9.65277 1.67401L9.6507 1.6741L9.64624 1.67428L9.64407 1.67437L9.63966 1.67456L9.6374 1.67466L9.63234 1.67488L9.63098 1.67493L9.62596 1.67516L9.62418 1.67523L9.61914 1.67546L9.61763 1.67553L9.61256 1.67576L9.61095 1.67583L9.60481 1.67611L9.6045 1.67613L9.59896 1.67639L9.59769 1.67646L9.58484 1.67707L9.58451 1.67709L9.57211 1.6777L9.57113 1.67775C9.5445 1.6791 9.51801 1.68058 9.49145 1.68218H9.4914C9.48254 1.68271 9.47393 1.68325 9.46508 1.68381L9.46404 1.68387L9.45843 1.68423L9.45751 1.68429L9.45191 1.68465L9.45059 1.68473L9.44523 1.68509L9.44408 1.68517L9.43876 1.68551L9.43717 1.68563L9.43202 1.68597L9.43087 1.68605L9.42549 1.68642L9.42414 1.68651L9.41877 1.68687L9.41756 1.68695L9.41252 1.68731L9.41037 1.68746L9.40573 1.68778L9.40406 1.68791L9.39929 1.68824L9.39734 1.68838L9.39241 1.68874L9.39113 1.68883L9.386 1.68919L9.38419 1.68933L9.37941 1.68968L9.37759 1.68982L9.37292 1.69016L9.37094 1.69032L9.36621 1.69067L9.36433 1.69081L9.36001 1.69113L9.35737 1.69133L9.35326 1.69165L9.35094 1.69183L9.34685 1.69215L9.3443 1.69235L9.34 1.69268L9.33795 1.69285L9.33363 1.69318L9.3311 1.69338L9.32706 1.6937L9.32456 1.6939L9.32054 1.69423L9.31806 1.69442L9.31372 1.69478L9.31156 1.69496L9.30749 1.69529L9.30473 1.69552L9.30081 1.69585L9.29835 1.69605L9.29409 1.69641L9.29196 1.69659L9.28723 1.69698L9.28547 1.69714L9.28098 1.69752L9.27871 1.69771L9.2743 1.69809L9.27223 1.69827L9.26777 1.69866L9.26567 1.69884L9.26132 1.69922L9.25891 1.69943L9.25513 1.69977L9.25229 1.70002L9.24838 1.70036L9.24582 1.70059L9.24185 1.70095L9.23928 1.70119L9.23533 1.70155L9.23261 1.70179L9.22929 1.70209L9.22593 1.70241L9.22257 1.70272L9.21952 1.703L9.21594 1.70333L9.213 1.70361L9.20947 1.70394L9.20633 1.70423L9.20347 1.70451L9.19967 1.70486L9.19704 1.70512L9.19318 1.70549L9.1904 1.70575L9.18676 1.70611L9.18355 1.70642L9.18021 1.70675L9.17751 1.70701L9.17354 1.7074L9.1713 1.70762L9.16706 1.70804L9.16454 1.70828L9.16064 1.70868L9.15792 1.70895L9.15398 1.70934L9.15255 1.70949L9.14085 1.71068L9.14042 1.71073L9.13436 1.71135L9.13422 1.71136C9.07389 1.71759 9.01377 1.72446 8.95387 1.73196L8.95382 1.73198C8.74819 1.75773 8.54499 1.79088 8.34422 1.83144C8.23688 1.853 8.13485 1.89551 8.04395 1.95652C7.95305 2.01754 7.87506 2.09587 7.81444 2.18704C7.75383 2.2782 7.71177 2.38042 7.69067 2.48785C7.66957 2.59528 7.66985 2.70581 7.69148 2.81313C7.71312 2.92045 7.75569 3.02246 7.81677 3.11332C7.87784 3.20418 7.95622 3.28211 8.04743 3.34267C8.13863 3.40323 8.24088 3.44522 8.34832 3.46625C8.45576 3.48728 8.5663 3.48693 8.6736 3.46522C9.11031 3.37752 9.55464 3.33341 10.0001 3.33354C11.7676 3.33553 13.4621 4.03855 14.7119 5.28836C15.9617 6.53817 16.6647 8.23271 16.6667 10.0002C16.6667 11.0741 16.3843 12.1375 15.8272 13.1609C15.6552 13.4768 15.5901 13.8399 15.6415 14.196C15.6929 14.552 15.8581 14.8819 16.1125 15.1362L16.4645 15.4882C16.5288 15.5523 16.5799 15.6284 16.6147 15.7122C16.6496 15.796 16.6676 15.8859 16.6677 15.9767C16.6678 16.0674 16.65 16.1573 16.6153 16.2412C16.5806 16.3251 16.5297 16.4013 16.4655 16.4655C16.4014 16.5297 16.3251 16.5806 16.2413 16.6153C16.1574 16.65 16.0675 16.6678 15.9767 16.6677C15.8859 16.6677 15.7961 16.6497 15.7123 16.6148C15.6285 16.58 15.5523 16.5289 15.4883 16.4646L15.1362 16.1125C14.8819 15.8582 14.552 15.6929 14.196 15.6415C13.84 15.59 13.4768 15.6552 13.1609 15.8272C12.306 16.3041 11.3566 16.5868 10.3801 16.6551C10.1641 16.6685 9.96172 16.7655 9.81591 16.9255C9.67009 17.0855 9.59226 17.2959 9.59887 17.5123C9.60549 17.7286 9.69603 17.9339 9.85134 18.0847C10.0067 18.2355 10.2145 18.3199 10.431 18.3202C10.4484 18.3202 10.4659 18.3196 10.4835 18.3185C11.6276 18.2413 12.7432 17.9271 13.7594 17.3959L13.7597 17.3958L13.772 17.3894L13.7722 17.3893C13.7845 17.383 13.7968 17.3766 13.8091 17.3702L13.8095 17.37L13.8155 17.3669L13.8157 17.3668L13.8215 17.3637L13.8222 17.3634L13.8278 17.3604L13.8284 17.3601C13.8383 17.3549 13.8484 17.3496 13.8583 17.3444L13.8592 17.3439L13.8641 17.3413L13.8656 17.3405L13.8701 17.3381L13.8722 17.337L13.8766 17.3347L13.8788 17.3335L13.8828 17.3314L13.8855 17.3299L13.8895 17.3278L13.8915 17.3267L13.896 17.3243L13.897 17.3238L13.9064 17.3187L13.9086 17.3176L13.9124 17.3155L13.915 17.3141L13.9187 17.3122L13.9217 17.3105L13.9252 17.3087L13.9282 17.307L13.9316 17.3052L13.935 17.3034L13.9382 17.3016L13.9414 17.2999L13.9447 17.2981L13.9485 17.296L13.9512 17.2946L13.9577 17.2911L14.3098 17.6431C14.5286 17.862 14.7885 18.0356 15.0744 18.1541C15.3604 18.2725 15.6669 18.3335 15.9764 18.3335C16.2859 18.3335 16.5924 18.2725 16.8784 18.1541C17.1644 18.0356 17.4242 17.862 17.6431 17.6431C17.862 17.4243 18.0356 17.1644 18.154 16.8785C18.2725 16.5925 18.3334 16.286 18.3334 15.9765C18.3334 15.6669 18.2725 15.3604 18.154 15.0745C18.0356 14.7885 17.862 14.5287 17.6431 14.3098L17.291 13.9577C17.9658 12.7472 18.3243 11.386 18.3334 10.0002C18.3334 7.79007 17.4554 5.67046 15.8926 4.10766C14.3298 2.54486 12.2102 1.66688 10.0001 1.66687Z" fill="#0784FF"/>
<path d="M30.0001 21.6669C28.6142 21.676 27.253 22.0345 26.0425 22.7092L25.6904 22.3572C25.2484 21.9152 24.6489 21.6669 24.0238 21.6669C23.3987 21.6669 22.7992 21.9152 22.3572 22.3572H22.3571C21.9151 22.7992 21.6667 23.3987 21.6667 24.0238C21.6667 24.649 21.9151 25.2485 22.3571 25.6905L22.7091 26.0426C22.0344 27.2531 21.6759 28.6143 21.6667 30.0002C21.6667 31.6484 22.1555 33.2595 23.0712 34.63C23.9868 36.0004 25.2883 37.0685 26.8111 37.6992C28.3338 38.3299 30.0093 38.495 31.6258 38.1734C33.2423 37.8519 34.7272 37.0582 35.8926 35.8928C37.0581 34.7273 37.8517 33.2425 38.1733 31.626C38.4948 30.0094 38.3298 28.3339 37.6991 26.8112C37.0683 25.2885 36.0002 23.987 34.6298 23.0713C33.2594 22.1556 31.6483 21.6669 30.0001 21.6669Z" fill="#FFBE00"/>
<path d="M29.8831 33.3314C29.022 33.2948 28.2079 32.9286 27.6092 32.3085C27.0105 31.6884 26.6731 30.862 26.6667 30.0001C26.6667 29.4821 26.8086 28.9696 27.101 28.4327L27.5703 27.5704L28.4333 27.1007C28.9695 26.8087 29.482 26.6668 30 26.6668C30.442 26.6668 30.8659 26.4912 31.1785 26.1786C31.4911 25.8661 31.6667 25.4421 31.6667 25.0001C31.6667 24.5581 31.4911 24.1342 31.1785 23.8216C30.8659 23.509 30.442 23.3334 30 23.3334C28.9258 23.3334 27.8629 23.6158 26.8392 24.1733L25.7446 24.769L24.5117 23.5353C24.3822 23.406 24.2067 23.3333 24.0236 23.3334C23.8406 23.3334 23.6651 23.4061 23.5357 23.5355C23.4062 23.6648 23.3334 23.8403 23.3333 24.0233C23.3331 24.2063 23.4056 24.3819 23.5348 24.5115L23.5351 24.5118L24.7689 25.7447L24.1732 26.8393C23.6157 27.8631 23.3333 28.9259 23.3333 30.0001V30.0214C23.3333 30.0246 23.3334 30.0279 23.3334 30.0312V30.0425C23.3335 30.0458 23.3335 30.0489 23.3335 30.0522V30.0531C23.3335 30.0564 23.3336 30.0593 23.3336 30.0626V30.0637C23.3336 30.0667 23.3337 30.07 23.3337 30.0731V30.0743C23.3337 30.0773 23.3338 30.0805 23.3338 30.0836V30.0849C23.3339 30.0879 23.3339 30.0912 23.3339 30.0942L23.334 30.0953C23.334 30.0984 23.334 30.1015 23.3341 30.1046V30.1059C23.3342 30.109 23.3342 30.112 23.3343 30.1151V30.1165C23.3343 30.1196 23.3344 30.1225 23.3344 30.1255L23.3345 30.1271C23.3345 30.1301 23.3346 30.1331 23.3346 30.1361L23.3348 30.1376C23.3348 30.1407 23.3349 30.1435 23.335 30.1466V30.1482C23.3351 30.1513 23.3351 30.1541 23.3352 30.1572V30.1586C23.3353 30.1618 23.3354 30.1646 23.3354 30.1677L23.3355 30.1692C23.3356 30.1722 23.3356 30.1752 23.3357 30.1782V30.1796L23.336 30.1887V30.1901L23.3363 30.1993V30.2004L23.3366 30.2099V30.2109L23.3369 30.2203L23.337 30.2213L23.3373 30.2309V30.2316L23.3376 30.2413L23.3377 30.2421L23.338 30.2516V30.2524C23.3381 30.2554 23.3383 30.259 23.3384 30.2621V30.2627C23.3385 30.2659 23.3387 30.269 23.3388 30.2722V30.2732C23.339 30.2765 23.3391 30.2793 23.3392 30.2826L23.3393 30.2837L23.3396 30.2929L23.3397 30.2942C23.3398 30.2973 23.34 30.3005 23.3401 30.3036L23.3402 30.3046C23.3403 30.3076 23.3404 30.3108 23.3407 30.3138V30.3152C23.3409 30.3182 23.341 30.3213 23.3412 30.3243V30.3255C23.3414 30.3286 23.3415 30.3316 23.3417 30.3347V30.336C23.3419 30.3391 23.342 30.3422 23.3422 30.3453V30.3464C23.3424 30.3494 23.3425 30.3525 23.3427 30.3554L23.3428 30.3571C23.3429 30.3601 23.3431 30.3629 23.3432 30.3659C23.3433 30.3665 23.3433 30.367 23.3433 30.3675C23.3435 30.3706 23.3436 30.3732 23.3438 30.3763L23.3439 30.378C23.3441 30.3811 23.3442 30.3838 23.3444 30.3868L23.3445 30.3883C23.3447 30.3913 23.3448 30.3942 23.345 30.3972L23.3451 30.3988C23.3453 30.4018 23.3454 30.4046 23.3456 30.4076L23.3457 30.4092C23.3459 30.4122 23.3461 30.415 23.3462 30.4181L23.3463 30.4195L23.347 30.4286L23.3471 30.4299C23.3473 30.4329 23.3475 30.4359 23.3476 30.439L23.3477 30.4403L23.3483 30.4494L23.3484 30.4504L23.349 30.4598L23.3491 30.461L23.3497 30.4704L23.3498 30.471C23.35 30.4743 23.3502 30.4775 23.3505 30.4807V30.4814C23.3507 30.4846 23.351 30.488 23.3512 30.4912V30.4914C23.3515 30.4948 23.3517 30.4979 23.3519 30.5013L23.352 30.5017C23.3522 30.5052 23.3526 30.5084 23.3528 30.5119V30.512C23.3531 30.5152 23.3533 30.5184 23.3536 30.5217V30.5226C23.3539 30.5258 23.3541 30.5289 23.3544 30.532V30.5328C23.3547 30.5361 23.3549 30.5388 23.3552 30.5421L23.3553 30.5434C23.3555 30.5464 23.3558 30.5496 23.356 30.5527L23.3561 30.5536C23.3563 30.5567 23.3566 30.5598 23.3568 30.5628L23.3569 30.5642C23.3572 30.5671 23.3574 30.57 23.3577 30.573L23.3578 30.5746C23.3581 30.5775 23.3584 30.5804 23.3587 30.5833L23.3588 30.5849C23.359 30.5879 23.3593 30.5908 23.3596 30.5938L23.3597 30.5952C23.3599 30.5982 23.3602 30.601 23.3605 30.6041L23.3606 30.6056C23.3609 30.6086 23.3611 30.6115 23.3614 30.6144L23.3615 30.6159C23.3618 30.6188 23.362 30.6217 23.3623 30.6247L23.3625 30.6262C23.3627 30.6293 23.363 30.6321 23.3633 30.6352L23.3634 30.6364L23.3644 30.6455L23.3645 30.6469C23.3648 30.6498 23.3651 30.6528 23.3653 30.6557L23.3655 30.6572C23.3658 30.6601 23.366 30.6631 23.3663 30.666L23.3665 30.6675L23.3674 30.6765L23.3675 30.6776C23.3678 30.6806 23.3681 30.6838 23.3684 30.6869L23.3685 30.6878C23.3688 30.691 23.3691 30.694 23.3695 30.6971V30.6979C23.3699 30.701 23.3703 30.7044 23.3706 30.7073L23.3707 30.7085C23.3711 30.7117 23.3714 30.7144 23.3717 30.7177L23.3718 30.7186C23.3721 30.7219 23.3725 30.7248 23.3728 30.728L23.3729 30.7288C23.3732 30.7319 23.3736 30.735 23.3739 30.7382L23.374 30.7388C23.3743 30.7419 23.3747 30.7451 23.375 30.7481L23.3751 30.7491C23.3754 30.7521 23.3758 30.7555 23.3761 30.7586L23.3762 30.7591C23.3767 30.7622 23.377 30.7655 23.3774 30.7687L23.3775 30.7694C23.3778 30.7726 23.3782 30.7755 23.3785 30.7787L23.3787 30.7797C23.379 30.7827 23.3794 30.7858 23.3797 30.7888L23.3798 30.7901C23.3802 30.7931 23.3806 30.7962 23.3809 30.7992L23.381 30.8003C23.3814 30.8032 23.3818 30.8064 23.3821 30.8094L23.3823 30.8106C23.3826 30.8135 23.3831 30.8166 23.3834 30.8195L23.3836 30.8208C23.384 30.8238 23.3843 30.8265 23.3847 30.8296L23.3849 30.8312C23.3852 30.8343 23.3856 30.8369 23.3859 30.8399L23.3861 30.8414C23.3865 30.8443 23.3868 30.8472 23.3872 30.8501L23.3874 30.8516C23.3878 30.8545 23.3881 30.8574 23.3885 30.8604L23.3887 30.8618C23.3892 30.8648 23.3895 30.8675 23.3899 30.8705L23.3901 30.8721L23.3913 30.8809L23.3914 30.8821L23.3926 30.891L23.3928 30.8924C23.3932 30.8954 23.3935 30.8982 23.3939 30.9012L23.3941 30.9027L23.3954 30.9114L23.3956 30.9129L23.3968 30.9217L23.397 30.9228C23.3974 30.9257 23.3978 30.929 23.3982 30.9319L23.3983 30.9329C23.3988 30.9361 23.3992 30.939 23.3996 30.9422L23.3997 30.9429L23.4011 30.9523L23.4013 30.9534C23.4017 30.9565 23.4021 30.9593 23.4026 30.9625L23.4027 30.9634C23.4032 30.9665 23.4036 30.9696 23.4041 30.9727V30.9732C23.4046 30.9762 23.4051 30.9796 23.4055 30.9826L23.4056 30.9835C23.4061 30.9864 23.4066 30.9895 23.407 30.9924L23.4072 30.9935C23.4077 30.9966 23.4081 30.9996 23.4086 31.0028L23.4087 31.0034C23.4091 31.0066 23.4096 31.0097 23.4101 31.0129L23.4102 31.0136C23.4107 31.0168 23.4111 31.0198 23.4116 31.023L23.4117 31.0238L23.4132 31.0328L23.4134 31.034C23.4139 31.037 23.4143 31.0398 23.4148 31.0428L23.415 31.0442C23.4154 31.0472 23.4159 31.0499 23.4163 31.0529L23.4166 31.0543C23.417 31.0572 23.4175 31.0601 23.4179 31.063L23.4183 31.0645C23.4187 31.0674 23.4191 31.0701 23.4196 31.073L23.4199 31.0746C23.4203 31.0776 23.4208 31.0803 23.4213 31.0833L23.4215 31.0847C23.422 31.0877 23.4224 31.0905 23.4229 31.0935L23.4231 31.0948C23.4236 31.0977 23.4241 31.1005 23.4246 31.1034L23.4249 31.105L23.4263 31.1134L23.4266 31.1152L23.428 31.1236L23.4283 31.1252C23.4288 31.1281 23.4292 31.1308 23.4297 31.1336L23.4301 31.1353C23.4306 31.1382 23.431 31.1409 23.4315 31.1438L23.4318 31.1454C23.4322 31.1482 23.4328 31.1511 23.4332 31.1539L23.4335 31.1555C23.434 31.1583 23.4345 31.1613 23.435 31.1641L23.4352 31.1654C23.4357 31.1683 23.4363 31.1712 23.4369 31.1741L23.4371 31.1755C23.4376 31.1785 23.4381 31.1813 23.4387 31.1844L23.4388 31.1852C23.4394 31.1883 23.4399 31.1912 23.4404 31.1944L23.4406 31.1953C23.4412 31.1984 23.4417 31.2014 23.4424 31.2045L23.4425 31.2052C23.443 31.2083 23.4436 31.2115 23.4442 31.2145L23.4443 31.2151C23.4448 31.2182 23.4455 31.2216 23.446 31.2247L23.4479 31.2341L23.448 31.235C23.4486 31.2381 23.4491 31.241 23.4497 31.2441L23.4499 31.245C23.4505 31.2481 23.4509 31.2507 23.4515 31.2539L23.4518 31.2551C23.4523 31.2581 23.4529 31.2611 23.4534 31.264L23.4538 31.2651C23.4543 31.2678 23.4549 31.271 23.4554 31.2736L23.4557 31.2753C23.4562 31.2781 23.4568 31.281 23.4573 31.2837L23.4576 31.2853C23.4581 31.288 23.4587 31.2909 23.4592 31.2937L23.4597 31.2954C23.4602 31.2982 23.4607 31.3008 23.4613 31.3037L23.4616 31.3054C23.4621 31.308 23.4627 31.3107 23.4632 31.3135L23.4636 31.3155C23.4641 31.3182 23.4647 31.3209 23.4652 31.3236L23.4657 31.3254C23.4662 31.3282 23.4667 31.3308 23.4673 31.3336L23.4676 31.3353C23.4682 31.3382 23.4688 31.341 23.4694 31.3438L23.4696 31.3452C23.4702 31.3481 23.4708 31.3507 23.4715 31.3537L23.4718 31.3553C23.4724 31.3581 23.4729 31.3608 23.4735 31.3636L23.4738 31.3653C23.4744 31.3681 23.4749 31.3707 23.4755 31.3736L23.4759 31.3752C23.4765 31.3781 23.477 31.3807 23.4777 31.3837L23.478 31.385C23.4786 31.388 23.4792 31.3906 23.4798 31.3935L23.4801 31.3952C23.4807 31.3978 23.4813 31.4009 23.4819 31.4035L23.4822 31.4049L23.4841 31.4136L23.4844 31.4146C23.485 31.4178 23.4856 31.4206 23.4863 31.4237L23.4864 31.4244C23.4871 31.4274 23.4877 31.4304 23.4884 31.4334L23.4886 31.4344L23.4907 31.4435L23.4908 31.4442C23.4915 31.4473 23.4922 31.4502 23.4928 31.4534L23.493 31.4541C23.4937 31.4571 23.4944 31.4603 23.4951 31.4634C23.4958 31.4666 23.4965 31.4696 23.4972 31.4727L23.4974 31.4735L23.4995 31.4829L23.4996 31.4834L23.5018 31.4926L23.5019 31.4932L23.504 31.5026L23.5042 31.5031L23.5062 31.512L23.5065 31.5133C23.5071 31.5161 23.5079 31.5191 23.5086 31.522L23.5088 31.523C23.5095 31.5259 23.5102 31.5288 23.5108 31.5317L23.5111 31.533C23.5118 31.5359 23.5125 31.5388 23.5132 31.5418L23.5134 31.5428C23.5142 31.5456 23.5148 31.5485 23.5155 31.5513L23.5159 31.5528C23.5165 31.5557 23.5172 31.5584 23.5179 31.5613L23.5182 31.5626C23.5188 31.5655 23.5195 31.5681 23.5203 31.5711L23.5206 31.5726C23.5213 31.5754 23.522 31.5781 23.5226 31.581L23.523 31.5822C23.5236 31.5851 23.5243 31.5878 23.525 31.5907L23.5254 31.5923L23.5275 31.6006L23.5278 31.6021C23.5285 31.6049 23.5292 31.6075 23.5299 31.6103L23.5303 31.6119C23.5309 31.6146 23.5317 31.6176 23.5323 31.6203L23.5326 31.6216C23.5334 31.6245 23.5341 31.6271 23.5348 31.63L23.5352 31.6317C23.5359 31.6343 23.5366 31.6373 23.5373 31.6399L23.5376 31.6412L23.5398 31.6498L23.5401 31.651L23.5424 31.6598L23.5425 31.6605C23.5433 31.6635 23.5441 31.6665 23.5449 31.6695L23.5451 31.6703C23.5459 31.6734 23.5467 31.6763 23.5474 31.6794L23.5476 31.6798C23.5483 31.6829 23.5492 31.686 23.5499 31.6891L23.5501 31.6897C23.551 31.6927 23.5518 31.6958 23.5525 31.6987L23.5526 31.6991C23.5534 31.7021 23.5542 31.705 23.555 31.7081L23.5552 31.709L23.5576 31.7176L23.5579 31.7189C23.5586 31.7217 23.5594 31.7246 23.5601 31.7274L23.5605 31.7286C23.5612 31.7315 23.5621 31.7344 23.5628 31.7373L23.5631 31.7383C23.5639 31.7411 23.5646 31.744 23.5654 31.7468L23.5657 31.7482C23.5665 31.751 23.5672 31.7537 23.5681 31.7565L23.5685 31.7579L23.5707 31.7662C23.5709 31.7667 23.571 31.7672 23.5711 31.7678C23.5718 31.7703 23.5726 31.7732 23.5733 31.7758L23.5739 31.7776C23.5746 31.7801 23.5753 31.7828 23.576 31.7855L23.5766 31.7873C23.5773 31.7902 23.578 31.7925 23.5787 31.7953L23.5793 31.797C23.5801 31.7998 23.5807 31.8022 23.5815 31.805L23.582 31.8067C23.5829 31.8095 23.5836 31.812 23.5843 31.8148L23.5848 31.8163C23.5855 31.8192 23.5863 31.8217 23.587 31.8246L23.5875 31.8261C23.5884 31.8289 23.5891 31.8314 23.5899 31.8341L23.5903 31.8358C23.5911 31.8384 23.5919 31.8412 23.5926 31.8439L23.5931 31.8455C23.5938 31.8482 23.5947 31.851 23.5955 31.8535L23.5959 31.8552C23.5967 31.8578 23.5975 31.8606 23.5982 31.8632L23.5987 31.8649C23.5995 31.8676 23.6004 31.8704 23.6011 31.873L23.6015 31.8744C23.6023 31.877 23.6032 31.88 23.6039 31.8826L23.6044 31.8842C23.6051 31.8868 23.6061 31.8898 23.6068 31.8923L23.6072 31.8937L23.6097 31.9021L23.61 31.9032C23.6108 31.906 23.6118 31.9089 23.6126 31.9117L23.6129 31.9129C23.6138 31.9156 23.6146 31.9183 23.6154 31.9212L23.6157 31.9222C23.6165 31.925 23.6174 31.9278 23.6183 31.9306L23.6186 31.9317C23.6195 31.9345 23.6203 31.9372 23.6211 31.94L23.6215 31.9411C23.6223 31.944 23.6232 31.9469 23.6241 31.9497L23.6244 31.9507C23.6253 31.9537 23.6261 31.9562 23.627 31.9592L23.6274 31.9604C23.6282 31.9632 23.6291 31.9661 23.63 31.9689L23.6304 31.9699C23.6312 31.9728 23.6321 31.9756 23.6329 31.9784L23.6333 31.9796C23.6342 31.9824 23.635 31.9852 23.636 31.9879L23.6364 31.9892C23.6372 31.992 23.6381 31.9947 23.6389 31.9975L23.6393 31.9988C23.6402 32.0017 23.6411 32.0043 23.642 32.007L23.6424 32.0085C23.6433 32.0112 23.6441 32.0138 23.6449 32.0165L23.6454 32.0181C23.6463 32.0209 23.6472 32.0233 23.6481 32.0262L23.6485 32.0277L23.6511 32.0357L23.6516 32.0373C23.6524 32.04 23.6533 32.0426 23.6542 32.0454L23.6547 32.0467C23.6556 32.0496 23.6564 32.0521 23.6573 32.0549L23.6577 32.0564C23.6586 32.0591 23.6596 32.0618 23.6604 32.0645L23.6609 32.0658C23.6617 32.0686 23.6626 32.0712 23.6635 32.0741L23.6639 32.0754L23.6667 32.0835L23.6672 32.0851C23.668 32.0876 23.6689 32.0905 23.6698 32.093L23.6702 32.0945C23.6712 32.0973 23.6721 32.0999 23.673 32.1028L23.6734 32.1038C23.6743 32.1065 23.6752 32.1095 23.6761 32.1122L23.6766 32.1133L23.6794 32.1218L23.6797 32.1228L23.6827 32.1314L23.6829 32.1321L23.6859 32.141L23.686 32.1412C23.687 32.1444 23.6879 32.1471 23.6891 32.1503L23.6893 32.1508C23.6902 32.1536 23.6913 32.1569 23.6922 32.1596L23.6924 32.1601L23.6954 32.1688L23.6958 32.1697L23.6987 32.1784L23.699 32.1791C23.7 32.182 23.7009 32.1846 23.7019 32.1875L23.7023 32.1887C23.7033 32.1915 23.7042 32.1942 23.7052 32.197L23.7056 32.1982C23.7066 32.2009 23.7076 32.2036 23.7085 32.2063L23.709 32.2076C23.7099 32.2104 23.7109 32.2132 23.712 32.216L23.7123 32.217C23.7133 32.2198 23.7142 32.2225 23.7152 32.2252L23.7156 32.2266C23.7166 32.2293 23.7175 32.2319 23.7185 32.2346L23.7191 32.2361L23.7218 32.2439L23.7224 32.2457C23.7234 32.2484 23.7243 32.2508 23.7253 32.2535L23.7258 32.255C23.7268 32.2576 23.7277 32.2601 23.7286 32.2629L23.7292 32.2643C23.7302 32.2671 23.7312 32.2697 23.7321 32.2724L23.7326 32.2736C23.7335 32.2763 23.7345 32.2791 23.7356 32.2818L23.7361 32.2831C23.737 32.2858 23.7381 32.2886 23.739 32.2914L23.7394 32.2922C23.7403 32.2949 23.7414 32.2979 23.7425 32.3006L23.7429 32.3017L23.7459 32.3101L23.7463 32.311L23.7494 32.3193L23.7499 32.3206C23.7509 32.3233 23.7519 32.3262 23.7529 32.3288L23.7533 32.3297C23.7543 32.3325 23.7554 32.3353 23.7564 32.3381L23.7569 32.3393C23.7579 32.3422 23.7588 32.3446 23.76 32.3475L23.7603 32.3484C23.7614 32.3513 23.7624 32.3539 23.7635 32.3569L23.7638 32.3578C23.765 32.3606 23.766 32.3634 23.7671 32.3663L23.7673 32.3667C23.7683 32.3695 23.7695 32.3726 23.7705 32.3754L23.7709 32.3761C23.7719 32.3788 23.7731 32.3819 23.7741 32.3847L23.7743 32.3852C23.7754 32.3881 23.7764 32.3907 23.7776 32.3936L23.778 32.3946C23.779 32.3974 23.7801 32.4002 23.7811 32.403L23.7815 32.4039C23.7827 32.4068 23.7837 32.4093 23.7848 32.4122L23.7852 32.4132C23.7862 32.416 23.7873 32.4188 23.7885 32.4216L23.7888 32.4225C23.7899 32.4252 23.7909 32.428 23.792 32.4306L23.7925 32.4319C23.7935 32.4346 23.7947 32.4374 23.7958 32.4402L23.7961 32.4411C23.7971 32.4437 23.7983 32.4466 23.7993 32.4492L23.7998 32.4505C23.8009 32.4532 23.802 32.4559 23.803 32.4586L23.8035 32.4597C23.8045 32.4625 23.8055 32.4649 23.8067 32.4677L23.8073 32.4692C23.8083 32.4718 23.8093 32.4744 23.8104 32.477L23.8109 32.4783C23.8119 32.481 23.813 32.4834 23.8141 32.4862L23.8147 32.4877C23.8158 32.4904 23.8167 32.4928 23.8178 32.4954L23.8185 32.497C23.8195 32.4996 23.8205 32.502 23.8216 32.5047L23.8222 32.5062C23.8233 32.5089 23.8243 32.5113 23.8254 32.5139L23.8259 32.5153L23.8291 32.5232L23.8297 32.5247C23.8308 32.5272 23.8319 32.53 23.833 32.5325L23.8335 32.5338C23.8346 32.5365 23.8357 32.5389 23.8367 32.5415L23.8374 32.5433L23.8406 32.551L23.841 32.552C23.8423 32.5548 23.8433 32.5574 23.8445 32.5602L23.8448 32.5611C23.846 32.5639 23.8471 32.5668 23.8484 32.5696L23.8486 32.57C23.8498 32.5731 23.8509 32.5757 23.8522 32.5788L23.8524 32.5793C23.8562 32.5882 23.8601 32.5973 23.8638 32.6061L23.8639 32.6063C23.8651 32.6093 23.8665 32.6122 23.8677 32.6151L23.8679 32.6156L23.8717 32.6243L23.8718 32.6247C23.873 32.6276 23.8743 32.6304 23.8755 32.6333L23.8757 32.6339C23.877 32.6367 23.8782 32.6395 23.8794 32.6423L23.8797 32.643C23.8809 32.6459 23.882 32.6485 23.8834 32.6514L23.8837 32.6523C23.8849 32.655 23.8861 32.6578 23.8872 32.6604L23.8877 32.6614C23.8889 32.664 23.8902 32.667 23.8913 32.6696L23.8917 32.6704C23.8928 32.6732 23.894 32.6759 23.8953 32.6786L23.8957 32.6797C23.8969 32.6823 23.898 32.6849 23.8992 32.6875L23.8998 32.6889C23.901 32.6916 23.9021 32.6941 23.9033 32.6968L23.9038 32.6979C23.9049 32.7005 23.9061 32.7033 23.9074 32.7059L23.9078 32.7069C23.909 32.7096 23.9102 32.7123 23.9114 32.715L23.9118 32.716C23.9131 32.7186 23.9143 32.7214 23.9154 32.724L23.9159 32.7251C23.9171 32.7278 23.9185 32.7306 23.9196 32.7333L23.9199 32.734C23.9211 32.7366 23.9225 32.7397 23.9236 32.7422L23.924 32.743L23.9278 32.7513L23.9281 32.7521L23.9319 32.7603L23.9323 32.7613C23.9336 32.764 23.9348 32.7666 23.9361 32.7695L23.9364 32.77C23.9376 32.7728 23.9389 32.7757 23.9402 32.7785L23.9404 32.779C23.9418 32.7817 23.9432 32.7847 23.9444 32.7876L23.9445 32.7878C23.9459 32.7908 23.9472 32.7936 23.9486 32.7966L23.9487 32.7969C23.9528 32.8058 23.9569 32.8146 23.9612 32.8235V32.8236C23.9625 32.8264 23.9638 32.8292 23.9651 32.832L23.9656 32.8328C23.9669 32.8355 23.9681 32.8384 23.9694 32.8411L23.9697 32.8416C23.971 32.8445 23.9724 32.8473 23.9737 32.8501L23.974 32.8506C23.9753 32.8534 23.9766 32.8562 23.978 32.859L23.9783 32.8596C23.9796 32.8624 23.9808 32.865 23.9821 32.8679L23.9825 32.8686C23.9838 32.8712 23.9852 32.8742 23.9864 32.8768L23.9868 32.8775C23.988 32.8802 23.9896 32.8832 23.9908 32.8859L23.9911 32.8864L23.9951 32.8946L23.9955 32.8954C23.9967 32.8981 23.998 32.9007 23.9993 32.9034L23.9998 32.9045C24.0012 32.9071 24.0024 32.9098 24.0037 32.9123L24.0042 32.9134C24.0054 32.916 24.0068 32.9187 24.0081 32.9213L24.0085 32.9223C24.0098 32.9248 24.0111 32.9276 24.0123 32.9301L24.0129 32.9312C24.0142 32.9338 24.0155 32.9364 24.0167 32.9391L24.0173 32.9401C24.0186 32.9427 24.0199 32.9455 24.0212 32.948L24.0216 32.9488C24.0229 32.9515 24.0242 32.9543 24.0256 32.9569L24.0261 32.9578C24.0273 32.9603 24.0287 32.9632 24.03 32.9657L24.0305 32.9666C24.0318 32.9693 24.0331 32.972 24.0344 32.9746L24.0349 32.9756C24.0363 32.9783 24.0376 32.9808 24.0389 32.9835L24.0393 32.9842C24.0406 32.9871 24.0419 32.9896 24.0434 32.9924L24.0437 32.993C24.0451 32.9958 24.0465 32.9986 24.0479 33.0013L24.0481 33.0016C24.0495 33.0046 24.0509 33.0072 24.0523 33.0102L24.0525 33.0105C24.0584 33.022 24.0643 33.0336 24.0702 33.0451L24.0705 33.0456C24.0721 33.0485 24.0733 33.0511 24.0748 33.054L24.075 33.0543L24.0793 33.0626L24.0796 33.0632L24.0839 33.0714L24.0842 33.072C24.0856 33.0747 24.0869 33.0771 24.0883 33.0799L24.0888 33.081C24.0902 33.0835 24.0917 33.0863 24.093 33.0888L24.0934 33.0896C24.0947 33.0922 24.0962 33.0948 24.0975 33.0974L24.0981 33.0985C24.0994 33.101 24.1008 33.1037 24.1022 33.1062L24.1027 33.1072C24.104 33.1098 24.1053 33.1121 24.1066 33.1146L24.1075 33.1162C24.1088 33.1187 24.1101 33.1212 24.1114 33.1237L24.1119 33.1247C24.1134 33.1273 24.1147 33.1298 24.116 33.1323L24.1167 33.1336C24.118 33.1361 24.1195 33.1388 24.1209 33.1413L24.1212 33.142C24.1226 33.1446 24.1241 33.1474 24.1255 33.1499L24.126 33.1508C24.1274 33.1535 24.1288 33.156 24.1302 33.1588L24.1306 33.1593C24.132 33.1621 24.1335 33.1647 24.1349 33.1674L24.1352 33.168C24.1368 33.1707 24.1383 33.1735 24.1397 33.1763L24.1398 33.1764C24.1413 33.1792 24.1429 33.1819 24.1444 33.1848L24.1447 33.1853C24.1462 33.1881 24.1477 33.1909 24.1492 33.1936L24.1493 33.1937C24.1509 33.1966 24.1523 33.1994 24.1539 33.2022L24.1541 33.2024L24.1635 33.2195L24.1636 33.2197C24.1668 33.2254 24.1698 33.231 24.1731 33.2367V33.2368C24.1762 33.2424 24.1794 33.2481 24.1825 33.2537L24.1828 33.2542C24.1845 33.2571 24.1859 33.2596 24.1874 33.2625L24.1876 33.2627C24.1891 33.2654 24.1908 33.2683 24.1923 33.2709L24.1925 33.2713C24.1941 33.2743 24.1956 33.2768 24.1972 33.2796L24.1973 33.2798C24.1988 33.2826 24.2003 33.2852 24.2019 33.288L24.2023 33.2886C24.2038 33.2913 24.2053 33.2939 24.2068 33.2966L24.2072 33.2971L24.2117 33.3051L24.212 33.3058C24.2137 33.3084 24.2152 33.3112 24.2167 33.3138L24.2169 33.3142C24.2184 33.3169 24.22 33.3194 24.2215 33.3222L24.222 33.323C24.2234 33.3254 24.2251 33.3284 24.2265 33.3308L24.2269 33.3313C24.2284 33.334 24.2299 33.3366 24.2315 33.3394L24.2318 33.34C24.2334 33.3426 24.2349 33.3453 24.2364 33.3479L24.2368 33.3484L24.2413 33.3562L24.2418 33.3572C24.2433 33.3596 24.2449 33.3623 24.2464 33.3649L24.2467 33.3655C24.2482 33.368 24.2499 33.3709 24.2514 33.3733L24.2518 33.3741C24.2533 33.3767 24.2549 33.3793 24.2565 33.382L24.2567 33.3824C24.2582 33.385 24.2598 33.3877 24.2614 33.3903L24.2619 33.391C24.2634 33.3937 24.2649 33.3963 24.2666 33.399L24.2667 33.3993C24.2684 33.402 24.2699 33.4046 24.2715 33.4074L24.2717 33.4077C24.2835 33.4275 24.2952 33.4469 24.3072 33.4665C24.309 33.4693 24.3106 33.472 24.3123 33.4749L24.3124 33.475C24.3142 33.4777 24.3157 33.4803 24.3174 33.4831L24.3176 33.4834L24.3225 33.4913L24.3229 33.4919C24.3244 33.4944 24.3262 33.4972 24.3277 33.4997L24.328 33.5003C24.3296 33.5029 24.3313 33.5055 24.3329 33.508L24.3333 33.5087C24.3349 33.5113 24.3365 33.5139 24.3382 33.5166L24.3384 33.517C24.34 33.5195 24.3416 33.5222 24.3433 33.5247L24.3438 33.5254C24.3452 33.5279 24.347 33.5307 24.3486 33.5332L24.3489 33.5338C24.3505 33.5363 24.3522 33.539 24.3538 33.5416L24.3541 33.542C24.3559 33.5448 24.3573 33.5471 24.3591 33.5499L24.3593 33.5504C24.3611 33.5531 24.3626 33.5555 24.3644 33.5583L24.3646 33.5586L24.3697 33.5666L24.3698 33.5668C24.3715 33.5696 24.3732 33.5722 24.375 33.575L24.3751 33.5752C24.3768 33.5779 24.3786 33.5805 24.3803 33.5832L24.3804 33.5834C24.3821 33.5862 24.3838 33.5888 24.3856 33.5916L24.3857 33.5917C24.3998 33.6137 24.414 33.6355 24.4284 33.6574L24.4285 33.6576L24.4339 33.6657C24.4357 33.6685 24.4375 33.6712 24.4393 33.6738L24.4394 33.6739C24.4411 33.6767 24.4429 33.6793 24.4448 33.6821V33.6822C24.4466 33.6848 24.4483 33.6875 24.4502 33.6901L24.4503 33.6903C24.4521 33.6931 24.4538 33.6956 24.4556 33.6984L24.4558 33.6986C24.4575 33.7012 24.4593 33.7039 24.4612 33.7066V33.7067C24.463 33.7093 24.4647 33.712 24.4665 33.7147L24.4666 33.7148C24.4721 33.723 24.4776 33.731 24.4831 33.7392V33.7393C24.485 33.7419 24.4868 33.7445 24.4886 33.7473L24.4887 33.7474C24.4906 33.75 24.4924 33.7527 24.4942 33.7554C24.5275 33.8041 24.5614 33.8522 24.5959 33.8999V33.9C24.5979 33.9026 24.5997 33.9053 24.6016 33.9079H24.6017C24.6037 33.9106 24.6054 33.913 24.6073 33.9157L24.6076 33.9161C24.6115 33.9214 24.6152 33.9264 24.619 33.9316V33.9317C24.6229 33.937 24.6268 33.9422 24.6306 33.9475L24.6307 33.9476C24.6618 33.9897 24.6933 34.0314 24.7252 34.0727C24.7293 34.0779 24.7333 34.083 24.7372 34.0882L24.7373 34.0883C24.7413 34.0935 24.7453 34.0986 24.7493 34.1036V34.1037C24.7575 34.114 24.7655 34.1242 24.7737 34.1345V34.1346C24.7818 34.1447 24.7899 34.1549 24.7981 34.1652C24.8288 34.2034 24.8599 34.2413 24.8913 34.2788L24.8976 34.2862L24.8978 34.2864C24.9987 34.4064 25.1036 34.5226 25.2127 34.6352V34.6353C25.6318 35.0681 26.1073 35.4426 26.6264 35.7485L26.6268 35.7487C26.6295 35.7505 26.6322 35.7519 26.6349 35.7536L26.6352 35.7537C26.6381 35.7554 26.6405 35.7569 26.6434 35.7585L26.6438 35.7587C26.6466 35.7604 26.6492 35.762 26.652 35.7636L26.6522 35.7637L26.6603 35.7684L26.6609 35.7687C26.6637 35.7704 26.6661 35.7718 26.669 35.7735L26.6693 35.7736C26.6721 35.7753 26.6746 35.7767 26.6774 35.7783L26.6779 35.7787C26.6808 35.7803 26.6832 35.7816 26.6861 35.7833L26.6864 35.7835C26.6891 35.7851 26.6918 35.7866 26.6944 35.7881L26.6951 35.7885L26.7031 35.7931L26.7036 35.7934C26.7063 35.7949 26.709 35.7965 26.7117 35.798L26.7122 35.7983C26.7149 35.7998 26.7177 35.8014 26.7205 35.803C26.7233 35.8046 26.7261 35.8061 26.7289 35.8077L26.7293 35.8079L26.7376 35.8126H26.7377L26.7462 35.8175C26.752 35.8207 26.7577 35.8239 26.7634 35.8271L26.7635 35.8272C26.7863 35.8399 26.8094 35.8525 26.8323 35.865L26.8328 35.8652C26.8355 35.8667 26.8383 35.8682 26.841 35.8697L26.8414 35.8699C26.8442 35.8714 26.8469 35.8728 26.8497 35.8744L26.8502 35.8747C26.8531 35.8762 26.8556 35.8775 26.8584 35.8791L26.8588 35.8793C26.8616 35.8808 26.8642 35.8822 26.867 35.8836L26.8678 35.884C26.8703 35.8855 26.8733 35.887 26.8758 35.8883L26.8763 35.8886C26.8789 35.89 26.8819 35.8916 26.8844 35.893L26.8852 35.8933C26.8879 35.8948 26.8906 35.8961 26.8933 35.8977L26.8938 35.8979C26.8963 35.8993 26.8992 35.9008 26.9017 35.9021L26.9028 35.9027C26.9054 35.904 26.9081 35.9055 26.9107 35.9068L26.9114 35.9072C26.9139 35.9086 26.9168 35.91 26.9193 35.9113L26.9204 35.9119C26.923 35.9133 26.9255 35.9146 26.9283 35.916L26.9288 35.9163C26.9315 35.9177 26.9342 35.9191 26.9369 35.9206L26.9377 35.921L26.9458 35.9251L26.9464 35.9254L26.9546 35.9297L26.9551 35.93C26.9579 35.9313 26.9607 35.9329 26.9635 35.9343L26.9637 35.9344C26.9666 35.9358 26.9693 35.9372 26.9722 35.9388L26.9727 35.9391C26.9756 35.9404 26.9783 35.9419 26.9811 35.9432L26.9813 35.9433C26.984 35.9448 26.9869 35.9462 26.9896 35.9476L26.9901 35.9479C26.9931 35.9493 26.9956 35.9507 26.9986 35.9521L26.9989 35.9523C27.0016 35.9537 27.0043 35.955 27.0071 35.9565L27.0078 35.9569C27.0107 35.9582 27.0132 35.9595 27.0161 35.9609L27.0167 35.9613C27.0194 35.9627 27.022 35.9639 27.0247 35.9653L27.0256 35.9657C27.0282 35.967 27.0308 35.9684 27.0335 35.9697L27.0346 35.9702C27.0369 35.9714 27.0398 35.9728 27.0421 35.974L27.0435 35.9747L27.0511 35.9784L27.0524 35.9792C27.0548 35.9803 27.0575 35.9816 27.0599 35.9828L27.0613 35.9835C27.064 35.9848 27.0662 35.986 27.0689 35.9872L27.0702 35.9879C27.0728 35.9891 27.0752 35.9903 27.0777 35.9916L27.0792 35.9923C27.0818 35.9936 27.0839 35.9946 27.0866 35.9958L27.0881 35.9967C27.0907 35.9979 27.093 35.999 27.0955 36.0002L27.097 36.001C27.0997 36.0022 27.1018 36.0034 27.1045 36.0046C27.105 36.0049 27.1055 36.0051 27.106 36.0053C27.1085 36.0066 27.1108 36.0076 27.1134 36.009C27.114 36.0091 27.1145 36.0094 27.115 36.0097C27.1174 36.0108 27.1198 36.012 27.1223 36.0132C27.1229 36.0135 27.1235 36.0137 27.124 36.014C27.1264 36.0152 27.1288 36.0163 27.1312 36.0175L27.133 36.0183C27.1354 36.0194 27.1378 36.0207 27.1402 36.0218L27.1419 36.0226C27.1444 36.0237 27.1468 36.0249 27.1492 36.026L27.1509 36.0269C27.1533 36.028 27.1558 36.0292 27.1582 36.0303C27.1587 36.0306 27.1593 36.0308 27.1598 36.031C27.1623 36.0323 27.1648 36.0335 27.1672 36.0346L27.1687 36.0353C27.1711 36.0364 27.1739 36.0376 27.1763 36.0389L27.1777 36.0395L27.1849 36.0429C27.1855 36.0431 27.1861 36.0434 27.1867 36.0437L27.1938 36.047L27.1955 36.0478C27.1978 36.0489 27.2003 36.0501 27.2026 36.0511L27.2045 36.052L27.2116 36.0552C27.2121 36.0555 27.2126 36.0558 27.2131 36.056L27.2204 36.0593L27.2221 36.0601L27.2294 36.0635L27.2312 36.0643C27.2336 36.0654 27.2359 36.0664 27.2383 36.0676C27.239 36.0679 27.2396 36.0682 27.2403 36.0685C27.2427 36.0696 27.2449 36.0705 27.2473 36.0716C27.2478 36.0719 27.2488 36.0723 27.2494 36.0726L27.2561 36.0757C27.257 36.076 27.2578 36.0764 27.2586 36.0768L27.2653 36.0799L27.2676 36.0809C27.2697 36.0818 27.2722 36.0829 27.2744 36.0839C27.2752 36.0843 27.276 36.0846 27.2768 36.0851C27.279 36.0861 27.2812 36.087 27.2835 36.088C27.2843 36.0883 27.2851 36.0887 27.2859 36.0891C27.2881 36.09 27.2903 36.0911 27.2926 36.0921C27.2934 36.0924 27.2942 36.0928 27.295 36.0932C27.2972 36.0941 27.2995 36.0951 27.3018 36.0961C27.3025 36.0965 27.3032 36.0969 27.304 36.0972L27.3109 36.1002L27.3132 36.1012C27.3155 36.1022 27.3177 36.1033 27.3199 36.1042C27.3207 36.1046 27.3215 36.105 27.3224 36.1053C27.3246 36.1063 27.3269 36.1072 27.3291 36.1082L27.3314 36.1093C27.3338 36.1103 27.336 36.1113 27.3382 36.1122C27.3391 36.1126 27.3399 36.1129 27.3406 36.1132C27.3429 36.1142 27.3452 36.1153 27.3474 36.1163C27.3482 36.1166 27.349 36.1169 27.3497 36.1173C27.352 36.1182 27.3543 36.1192 27.3566 36.1202L27.3589 36.1212C27.3613 36.1223 27.3633 36.1231 27.3658 36.1242L27.3679 36.1251C27.3704 36.1261 27.3725 36.1272 27.375 36.1282L27.377 36.129C27.3794 36.1301 27.3818 36.131 27.3842 36.1321L27.3862 36.133C27.3884 36.1339 27.3905 36.1348 27.3929 36.1358L27.3954 36.1369C27.3975 36.1378 27.3997 36.1388 27.4017 36.1396L27.4046 36.1408C27.4066 36.1417 27.4087 36.1425 27.4108 36.1434L27.4138 36.1447C27.4157 36.1455 27.4178 36.1464 27.4197 36.1472L27.4229 36.1485L27.4291 36.1512L27.4317 36.1523C27.4339 36.1531 27.4359 36.154 27.4379 36.1548L27.4411 36.1561C27.4431 36.1571 27.4453 36.1579 27.4474 36.1588L27.4496 36.1597C27.452 36.1607 27.454 36.1615 27.4563 36.1625L27.4592 36.1637C27.4613 36.1646 27.4635 36.1655 27.4656 36.1663L27.4682 36.1674C27.4704 36.1683 27.4725 36.1692 27.4746 36.1701C27.4756 36.1705 27.4767 36.1709 27.4777 36.1713C27.4797 36.1721 27.482 36.173 27.4841 36.174L27.4869 36.1751C27.489 36.1759 27.491 36.1768 27.4932 36.1776C27.4941 36.178 27.4952 36.1784 27.4962 36.1788C27.4983 36.1798 27.5003 36.1806 27.5024 36.1814L27.5056 36.1827C27.5075 36.1834 27.5096 36.1843 27.5116 36.1851C27.5128 36.1855 27.5137 36.186 27.5149 36.1865C27.5169 36.1872 27.519 36.1881 27.5209 36.1889C27.5222 36.1893 27.523 36.1897 27.5241 36.1901C27.526 36.1909 27.5283 36.1918 27.5302 36.1926C27.5313 36.1931 27.5324 36.1935 27.5335 36.1939L27.5394 36.1963C27.5407 36.1967 27.5417 36.1971 27.5429 36.1977C27.5448 36.1984 27.5468 36.1992 27.5487 36.2C27.5499 36.2004 27.5511 36.2009 27.5523 36.2014C27.5542 36.2021 27.5562 36.2029 27.5582 36.2038C27.5594 36.2042 27.5603 36.2046 27.5614 36.205C27.5636 36.2059 27.5653 36.2065 27.5674 36.2073C27.5686 36.2078 27.5698 36.2083 27.571 36.2087L27.5766 36.211C27.5778 36.2114 27.5791 36.212 27.5803 36.2124L27.5849 36.2142L27.5898 36.2162C27.5914 36.2168 27.5924 36.2172 27.594 36.2177C27.5958 36.2184 27.5974 36.219 27.5992 36.2197C27.6005 36.2202 27.6017 36.2207 27.6031 36.2213C27.6049 36.222 27.6068 36.2227 27.6085 36.2234C27.6097 36.2238 27.6112 36.2244 27.6124 36.2248C27.6141 36.2255 27.6161 36.2263 27.618 36.2269C27.6191 36.2275 27.6203 36.2279 27.6214 36.2284C27.6235 36.2291 27.6255 36.2299 27.6274 36.2306C27.6287 36.2311 27.6298 36.2315 27.6309 36.2319C27.6329 36.2327 27.6346 36.2334 27.6365 36.2341C27.6376 36.2345 27.6391 36.2351 27.6404 36.2355C27.6423 36.2363 27.644 36.2369 27.6461 36.2377C27.6472 36.2381 27.6485 36.2386 27.6497 36.2391C27.6517 36.2399 27.6536 36.2406 27.6556 36.2413C27.6567 36.2418 27.6576 36.2421 27.6588 36.2425C27.661 36.2433 27.6629 36.244 27.6651 36.2449L27.6683 36.2461C27.6703 36.2468 27.672 36.2475 27.674 36.2482L27.6778 36.2496C27.6796 36.2503 27.6817 36.2511 27.6835 36.2518L27.6873 36.2532C27.6891 36.2538 27.6911 36.2546 27.693 36.2552L27.6964 36.2565L27.7027 36.2589L27.706 36.26C27.7076 36.2606 27.7092 36.2612 27.7108 36.2618C27.7124 36.2625 27.7138 36.263 27.7153 36.2635L27.7205 36.2654L27.7249 36.267C27.7263 36.2675 27.7278 36.268 27.7292 36.2686C27.731 36.2692 27.7324 36.2698 27.7343 36.2704C27.7358 36.271 27.7372 36.2714 27.7388 36.272C27.7404 36.2726 27.7423 36.2732 27.7438 36.2738L27.7481 36.2754L27.7525 36.277C27.7543 36.2776 27.7561 36.2782 27.7579 36.2789C27.7588 36.2792 27.7596 36.2795 27.7605 36.2799C27.7626 36.2806 27.7651 36.2815 27.7673 36.2823C27.7681 36.2826 27.7689 36.2829 27.7698 36.2831C27.7721 36.284 27.7745 36.2848 27.777 36.2857L27.7791 36.2865C27.7816 36.2874 27.7839 36.2882 27.7863 36.289C27.787 36.2893 27.7881 36.2896 27.7889 36.2899C27.7912 36.2907 27.7937 36.2916 27.7961 36.2925L27.7978 36.2931C27.8004 36.294 27.8031 36.2949 27.8057 36.2958L27.8072 36.2963C27.8098 36.2972 27.8129 36.2984 27.8154 36.2993L27.8165 36.2996C27.8193 36.3006 27.822 36.3015 27.8248 36.3024L27.8264 36.303C27.8291 36.304 27.8319 36.3049 27.8345 36.3058L27.836 36.3063C27.8387 36.3073 27.8415 36.3082 27.8443 36.3091L27.8453 36.3096C27.8481 36.3105 27.851 36.3115 27.8539 36.3124L27.855 36.3128C27.8578 36.3138 27.8605 36.3147 27.8632 36.3157L27.8648 36.3162C27.8676 36.3171 27.8704 36.3181 27.8732 36.319L27.8741 36.3193C27.877 36.3203 27.8801 36.3214 27.883 36.3223L27.8838 36.3226C27.8866 36.3235 27.8897 36.3245 27.8924 36.3255L27.8936 36.3258C27.8962 36.3267 27.8993 36.3278 27.9019 36.3286L27.9033 36.3291L27.9122 36.332L27.9127 36.3321C27.9157 36.3332 27.9189 36.3343 27.9219 36.3353L27.9223 36.3354C28.5212 36.5321 29.145 36.6424 29.775 36.663C29.7925 36.6636 29.8098 36.6639 29.8271 36.6639C30.2641 36.6636 30.6835 36.4917 30.995 36.1852C31.3065 35.8787 31.4852 35.4621 31.4925 35.0251C31.4998 34.5882 31.3353 34.1659 31.0343 33.8491C30.7332 33.5323 30.3198 33.3464 29.8831 33.3314L29.8831 33.3314Z" fill="#FFEA21"/>
<path d="M30.0001 21.6668C28.6142 21.6759 27.253 22.0344 26.0424 22.7091L25.6904 22.3571C25.4718 22.1379 25.212 21.9641 24.926 21.8456C24.6399 21.7271 24.3333 21.6663 24.0238 21.6668C23.8027 21.6668 23.5908 21.7545 23.4345 21.9108C23.2782 22.0671 23.1904 22.2791 23.1904 22.5001C23.1904 22.7211 23.2782 22.9331 23.4345 23.0893C23.5908 23.2456 23.8027 23.3334 24.0238 23.3334C24.1144 23.3333 24.2042 23.351 24.288 23.3857C24.3718 23.4204 24.4479 23.4714 24.5119 23.5356L24.8639 23.8877C25.1183 24.142 25.4481 24.3073 25.8041 24.3587C26.1602 24.4102 26.5233 24.345 26.8392 24.173C27.8627 23.6159 28.9262 23.3334 30.0001 23.3334C31.2943 23.3334 32.5605 23.7101 33.6443 24.4176C34.728 25.1251 35.5824 26.1327 36.1032 27.3175C36.624 28.5023 36.7886 29.8131 36.577 31.0899C36.3655 32.3667 35.7868 33.5544 34.9117 34.5079C34.8376 34.5885 34.7801 34.6829 34.7425 34.7857C34.7048 34.8885 34.6878 34.9977 34.6925 35.1071C34.6971 35.2165 34.7232 35.3239 34.7693 35.4232C34.8155 35.5225 34.8807 35.6118 34.9614 35.6858C35.042 35.7599 35.1365 35.8173 35.2393 35.8549C35.3422 35.8924 35.4514 35.9093 35.5608 35.9046C35.6702 35.8999 35.7776 35.8737 35.8768 35.8275C35.9761 35.7813 36.0653 35.7159 36.1393 35.6352C37.2048 34.4773 37.9195 33.0405 38.2002 31.4921L38.2002 31.492C38.2053 31.4639 38.2103 31.4356 38.2151 31.4074L38.2151 31.407L38.2161 31.4011L38.2161 31.4011L38.2171 31.3953L38.2172 31.3948L38.2182 31.389L38.2182 31.3889L38.2192 31.3829L38.2192 31.3828C38.2239 31.3545 38.2285 31.3263 38.2329 31.2979L38.233 31.2975L38.2339 31.2916L38.2339 31.2915C38.2386 31.2613 38.2432 31.2309 38.2476 31.2005L38.2477 31.1996L38.2485 31.1942L38.2486 31.1936L38.2493 31.1882L38.2495 31.1872L38.2502 31.1819L38.2503 31.1812L38.2511 31.1758L38.2512 31.1749L38.252 31.1694L38.252 31.1691L38.2529 31.1632L38.2529 31.163L38.2537 31.157L38.2537 31.1569L38.2546 31.151L38.2546 31.1506C38.2568 31.1345 38.259 31.1184 38.2611 31.1023L38.2612 31.1016L38.262 31.096L38.262 31.0955L38.2628 31.0898L38.2628 31.0894L38.2636 31.0837L38.2637 31.0831L38.2644 31.0777L38.2645 31.0768L38.2652 31.0714L38.2653 31.0707L38.266 31.0653L38.2661 31.0645L38.2668 31.059L38.2668 31.0583L38.2675 31.053L38.2677 31.0517L38.2683 31.0467L38.2684 31.0457L38.2691 31.0404L38.2692 31.0397C38.2712 31.0234 38.2732 31.0073 38.2751 30.9909V30.9909L38.2758 30.9849L38.2758 30.9847L38.2764 30.9795L38.2766 30.9781L38.2772 30.9733L38.2773 30.972L38.2779 30.9668L38.278 30.9658L38.2786 30.9605L38.2787 30.9597L38.2793 30.9545L38.2795 30.9531L38.28 30.9482L38.2802 30.947L38.2807 30.942L38.2809 30.9405L38.2814 30.9358L38.2816 30.9342L38.2821 30.9296L38.2823 30.9277L38.2828 30.9233L38.283 30.9218L38.2835 30.9168L38.2836 30.9165C38.2849 30.9045 38.2862 30.8924 38.2874 30.8804L38.2875 30.8795L38.2881 30.8742L38.2882 30.8732L38.2887 30.8683L38.2889 30.8668L38.2894 30.862L38.2895 30.8606L38.29 30.8559L38.2902 30.8542L38.2906 30.8495L38.2908 30.8479L38.2912 30.8434L38.2914 30.8415L38.2919 30.837L38.2921 30.8352L38.2925 30.8308L38.2927 30.8288L38.2931 30.8244L38.2933 30.8223L38.2937 30.8183L38.294 30.8157L38.2943 30.8119L38.2946 30.8092L38.295 30.8056L38.2952 30.8031C38.2958 30.7964 38.2965 30.7895 38.2971 30.7828L38.2974 30.7802L38.2977 30.776L38.2979 30.774L38.2983 30.77L38.2985 30.7674L38.2988 30.7639L38.2991 30.7611L38.2994 30.7576L38.2997 30.7546L38.3 30.7508L38.3002 30.7485L38.3006 30.7444L38.3008 30.7421L38.3011 30.7382L38.3014 30.7355L38.3017 30.732L38.3019 30.729L38.3022 30.7256L38.3025 30.7227L38.3028 30.7192L38.3031 30.716L38.3033 30.7129L38.3036 30.7096L38.3039 30.7065L38.3041 30.7032L38.3044 30.7L38.3046 30.6974L38.3049 30.6934L38.3051 30.6915L38.3055 30.687L38.3055 30.6867L38.3068 30.6701L38.307 30.6682L38.3073 30.6644L38.3075 30.6617L38.3078 30.658L38.308 30.6554L38.3083 30.6515L38.3085 30.6489L38.3088 30.6451L38.309 30.6426L38.3093 30.6386L38.3095 30.6361L38.3097 30.6325L38.31 30.6297L38.3102 30.6259L38.3104 30.6233L38.3107 30.6197L38.3109 30.6168L38.3112 30.6134L38.3114 30.6099L38.3116 30.6073L38.3119 30.6034L38.3121 30.6006L38.3123 30.597L38.3125 30.5942L38.3128 30.5909L38.313 30.5876L38.3133 30.5839L38.3134 30.5814L38.3137 30.5772L38.3139 30.5747L38.3147 30.562L38.3149 30.56L38.3152 30.5554L38.3153 30.553L38.3156 30.5491L38.3158 30.5457L38.316 30.5427L38.3162 30.5393L38.3164 30.5363L38.3166 30.533L38.3168 30.5296L38.317 30.5269L38.3172 30.5231L38.3174 30.5204L38.3176 30.5165L38.3178 30.5139L38.318 30.5101L38.3182 30.5074L38.3184 30.5034L38.3186 30.501L38.3188 30.497L38.319 30.4944L38.3192 30.4907L38.3193 30.4879L38.3195 30.4843L38.3197 30.4814L38.3199 30.4775L38.3201 30.475L38.3203 30.471L38.3204 30.4684L38.3207 30.464L38.3208 30.462L38.321 30.4572L38.3212 30.4547L38.3215 30.4491L38.3217 30.4457L38.3218 30.4427L38.322 30.4388L38.3222 30.4363L38.3224 30.4323L38.3225 30.4299L38.3227 30.426L38.3228 30.4233L38.323 30.4201L38.3231 30.4166L38.3233 30.4138L38.3235 30.41L38.3236 30.4075L38.3238 30.4035L38.3239 30.4007L38.3241 30.397L38.3242 30.3944L38.3244 30.3905L38.3245 30.3877L38.3247 30.3841L38.3248 30.3812L38.325 30.3777L38.3251 30.3745L38.3253 30.3712L38.3254 30.3682L38.3256 30.3643L38.3257 30.3617L38.3258 30.3575L38.3259 30.3553L38.3261 30.3507L38.3262 30.3487L38.3267 30.3358L38.3268 30.3331L38.327 30.3292L38.3271 30.3262L38.3272 30.3229L38.3274 30.3197L38.3275 30.3161L38.3276 30.3135L38.3277 30.3097L38.3278 30.3071L38.328 30.303L38.3281 30.3005L38.3282 30.2967L38.3283 30.2937L38.3284 30.29L38.3285 30.2873L38.3286 30.2835L38.3287 30.2808L38.3289 30.2771L38.329 30.2741L38.3291 30.2708L38.3292 30.2675L38.3293 30.2642L38.3294 30.2611L38.3295 30.2575L38.3296 30.2546L38.3297 30.251L38.3298 30.248L38.3298 30.2451L38.3299 30.2414L38.33 30.2383L38.3301 30.235L38.3305 30.2221L38.3306 30.2187L38.3306 30.2156L38.3307 30.2122L38.3308 30.2091L38.3309 30.2064L38.331 30.2023L38.331 30.2L38.3311 30.1958L38.3312 30.1933L38.3313 30.1894L38.3313 30.1865L38.3314 30.1828L38.3315 30.1801L38.3315 30.1763L38.3316 30.1731L38.3317 30.1701L38.3317 30.1666L38.3318 30.1636L38.3319 30.16L38.3319 30.1568L38.332 30.1539L38.3321 30.1499L38.3321 30.1472L38.3322 30.1435L38.3322 30.1406L38.3323 30.1372L38.3323 30.134L38.3324 30.13L38.3324 30.1277L38.3325 30.1236L38.3325 30.1209L38.3326 30.1158L38.3326 30.1136L38.3327 30.1081L38.3327 30.1053L38.3328 30.1013L38.3328 30.0991L38.3328 30.095L38.3329 30.092L38.3329 30.0883L38.3329 30.0854L38.333 30.0819L38.333 30.0788L38.333 30.0752L38.3331 30.0721L38.3331 30.0688L38.3331 30.0656L38.3331 30.0621L38.3332 30.0591L38.3332 30.0557L38.3332 30.0526L38.3332 30.0489L38.3333 30.046L38.3333 30.0423L38.3333 30.0396L38.3333 30.0355L38.3333 30.033L38.3333 30.029L38.3333 30.0264L38.3333 30.0224L38.3333 30.0198L38.3334 30.0157V30.0132L38.3334 30.009V30.0066V30.0001C38.3334 27.79 37.4554 25.6703 35.8926 24.1075C34.3298 22.5447 32.2102 21.6668 30.0001 21.6668Z" fill="#FFA300"/>
<path d="M14.8745 12.8646L12.1983 4.91296C12.0434 4.45267 11.7479 4.05262 11.3535 3.76922C10.9591 3.48582 10.4857 3.33337 10.0001 3.33337C9.5144 3.33337 9.04099 3.48582 8.64659 3.76922C8.25219 4.05262 7.95669 4.45267 7.80178 4.91296L5.12559 12.8646C5.02572 13.0976 4.98524 13.3518 5.00777 13.6043C5.0303 13.8568 5.11515 14.0997 5.25469 14.3114C5.39424 14.523 5.58412 14.6967 5.80732 14.8169C6.03052 14.9371 6.28006 15 6.53357 15H6.53367C6.83346 15 7.12666 14.9121 7.37694 14.747C7.62721 14.582 7.82356 14.3471 7.94165 14.0716L8.16351 13.3334H11.8366L12.0585 14.0716C12.1766 14.3471 12.3729 14.582 12.6232 14.747C12.8735 14.9121 13.1667 15 13.4664 15H13.4665C13.72 15 13.9696 14.9371 14.1928 14.8169C14.416 14.6967 14.6059 14.523 14.7454 14.3114C14.885 14.0997 14.9698 13.8568 14.9923 13.6043C15.0149 13.3518 14.9744 13.0976 14.8745 12.8646ZM9.1653 10L10.0001 7.22222L10.8348 10H9.1653Z" fill="white"/>
<path d="M10 3.3335L9.99467 3.33351H9.99389L9.98885 3.33352L9.98781 3.33353L9.98274 3.33356H9.98206L9.97706 3.33361H9.97656L9.97135 3.33367L9.97052 3.33369L9.96545 3.33375L9.9645 3.33376L9.95932 3.33385H9.95897L9.95393 3.33395L9.95319 3.33397L9.94808 3.33407L9.94722 3.33409L9.9421 3.33421L9.94129 3.33423L9.93603 3.33437H9.93583L9.93069 3.33453L9.9299 3.33456L9.92484 3.33471L9.9239 3.33475L9.91883 3.33491L9.91806 3.33494L9.91308 3.33512L9.91269 3.33513L9.90765 3.33533L9.90658 3.33537L9.90166 3.33558L9.90066 3.33561L9.8956 3.33584L9.89499 3.33587L9.88997 3.3361L9.88949 3.33612L9.88444 3.33636L9.88337 3.33642L9.87844 3.33667L9.8775 3.33672L9.87241 3.33699L9.87192 3.33701L9.86697 3.33729L9.86631 3.33733L9.86141 3.33762L9.86015 3.3377L9.85537 3.33799L9.85434 3.33806L9.84956 3.33836L9.84886 3.3384L9.84407 3.33872L9.84308 3.33878L9.83822 3.33911L9.83708 3.3392L9.83221 3.33955L9.83135 3.33961L9.82664 3.33995L9.82604 3.34L9.82118 3.34037L9.81992 3.34046L9.81531 3.34083L9.81396 3.34093L9.80914 3.34132L9.80847 3.34137L9.8038 3.34176L9.80296 3.34184L9.79802 3.34226L9.79703 3.34235L9.79214 3.34278L9.79113 3.34287L9.78603 3.34333L9.78598 3.34334L9.78074 3.34383L9.78005 3.34389L9.7751 3.34437L9.77403 3.34447L9.76927 3.34494L9.76809 3.34506L9.76342 3.34553L9.76305 3.34556L9.75808 3.34609L9.757 3.3462L9.75226 3.3467L9.75105 3.34682L9.74629 3.34734L9.74537 3.34745L9.7408 3.34796L9.74012 3.34803L9.73521 3.34859L9.73416 3.34871L9.72938 3.34927L9.72824 3.34939L9.72346 3.34997L9.72255 3.35007L9.71825 3.35059L9.71719 3.35072L9.71255 3.3513L9.71122 3.35147L9.70653 3.35205L9.70554 3.35218L9.70087 3.35278L9.7001 3.35288L9.69548 3.35349L9.69446 3.35362L9.68971 3.35425L9.68856 3.35441L9.68376 3.35507L9.68293 3.35518L9.6785 3.35579L9.67754 3.35593L9.67285 3.3566L9.67171 3.35676L9.66704 3.35742L9.66582 3.3576L9.66105 3.3583L9.66034 3.3584L9.65589 3.35907L9.65492 3.35922L9.65027 3.35992L9.64899 3.36011L9.64443 3.36081L9.64313 3.36102L9.63886 3.36169L9.6375 3.36191L9.63359 3.36252L9.63217 3.36274L9.62771 3.36347L9.62635 3.36369L9.62183 3.36442L9.62058 3.36464L9.61645 3.36533L9.6153 3.36552L9.61106 3.36623L9.60963 3.36647L9.60515 3.36725L9.60387 3.36746L9.59928 3.36826L9.59816 3.36845L9.59406 3.36918L9.59307 3.36936L9.58848 3.37018L9.58714 3.37042L9.5826 3.37125L9.58148 3.37145L9.57669 3.37233L9.57609 3.37245L9.57163 3.37327L9.57064 3.37346L9.56609 3.37433L9.56474 3.37458L9.56026 3.37544L9.55901 3.37568L9.55475 3.3765L9.55368 3.37672L9.54942 3.37756L9.54816 3.37781L9.54381 3.37868L9.54227 3.37898L9.53785 3.37987L9.53674 3.3801L9.5327 3.38093L9.53166 3.38114L9.5271 3.38208L9.52592 3.38232L9.52144 3.38326L9.52006 3.38356L9.51556 3.38451L9.51462 3.38471L9.51052 3.38559L9.50941 3.38583L9.505 3.38679L9.50355 3.38712L9.49922 3.38806L9.49778 3.38838L9.49363 3.3893L9.49242 3.38957L9.4885 3.39046L9.48719 3.39075L9.48281 3.39175L9.4814 3.39208L9.47703 3.39308L9.47579 3.39337L9.47171 3.39431L9.47056 3.39458L9.46645 3.39554L9.46497 3.3959L9.46072 3.39692L9.45921 3.39727L9.45502 3.39828L9.45352 3.39865L9.44987 3.39954L9.44879 3.39979L9.44438 3.40087L9.44298 3.40123L9.43864 3.40229L9.43734 3.40262L9.43306 3.40369L9.43178 3.40402L9.42796 3.40499L9.42672 3.40531L9.42237 3.40641L9.42096 3.40678L9.41667 3.40789L9.41529 3.40825L9.41149 3.40924L9.40993 3.40966L9.4062 3.41064L9.40476 3.41102L9.40053 3.41215L9.3991 3.41253L9.39477 3.41369L9.39352 3.41403L9.38975 3.41506L9.38847 3.4154L9.38419 3.41659L9.38297 3.41692L9.37865 3.41811L9.37725 3.4185L9.37286 3.41972L9.37187 3.42L9.36816 3.42105L9.36679 3.42144L9.36254 3.42264L9.36116 3.42304L9.35698 3.42424L9.35543 3.42469L9.3514 3.42586L9.35029 3.42618L9.34641 3.42732L9.34504 3.42771L9.34087 3.42895L9.33942 3.42938L9.33518 3.43065L9.33391 3.43103L9.33013 3.43216L9.32869 3.4326L9.32488 3.43375L9.32345 3.43419L9.31922 3.43548L9.31786 3.4359L9.31357 3.43722L9.3124 3.43759L9.30863 3.43876L9.30753 3.43911L9.30329 3.44044L9.30187 3.44089L9.29762 3.44224L9.2964 3.44263L9.29199 3.44402L9.29108 3.44432L9.28718 3.44558L9.28605 3.44595L9.28187 3.44729L9.28035 3.4478L9.27616 3.44917L9.27504 3.44953L9.27092 3.4509L9.2698 3.45127L9.26582 3.4526L9.26462 3.45299L9.26044 3.4544L9.25895 3.45489L9.2548 3.4563L9.25361 3.4567L9.24976 3.45802L9.2489 3.45831L9.24452 3.45981L9.24329 3.46024L9.23914 3.46168L9.23769 3.46217L9.23345 3.46366L9.23255 3.46397L9.22853 3.46539L9.22764 3.4657L9.22316 3.46729L9.22213 3.46766L9.2178 3.46921L9.21659 3.46964L9.21217 3.47123L9.21163 3.47143L9.20757 3.47289L9.20638 3.47333L9.20218 3.47487L9.20087 3.47535L9.19671 3.47687L9.19544 3.47734L9.19153 3.47881L9.1907 3.47911L9.18645 3.4807L9.18531 3.48112L9.18102 3.48274L9.17992 3.48315L9.17551 3.48483L9.1747 3.48514L9.17058 3.48671L9.16984 3.48699L9.1655 3.48866L9.16432 3.48912L9.1601 3.49076L9.15888 3.49123L9.15461 3.49289L9.15375 3.49324L9.14983 3.49477L9.14883 3.49517L9.14465 3.49682L9.14335 3.49734L9.13914 3.49902L9.1381 3.49943L9.13392 3.50111L9.13319 3.50141L9.12897 3.50312L9.12806 3.50348L9.12379 3.50523L9.12258 3.50572L9.11841 3.50743L9.11724 3.50791L9.11366 3.50938L9.11237 3.50992L9.10836 3.51158L9.10724 3.51205L9.10304 3.51381L9.10187 3.5143L9.09763 3.5161L9.09674 3.51647L9.09293 3.51809L9.09197 3.51849L9.08766 3.52034L9.08665 3.52077L9.08234 3.52262L9.08141 3.52302L9.07696 3.52495L9.07643 3.52518L9.07246 3.52691L9.07132 3.5274L9.06718 3.52922L9.06599 3.52974L9.06187 3.53156L9.06077 3.53206L9.05669 3.53386L9.0563 3.53404L9.05203 3.53595L9.05083 3.53648L9.04677 3.53831L9.04554 3.53886L9.0414 3.54074L9.04045 3.54117L9.03663 3.54292L9.03578 3.5433L9.03164 3.5452L9.0304 3.54578L9.02632 3.54766L9.02524 3.54815L9.02098 3.55014L9.0203 3.55046L9.01637 3.55229L9.01548 3.55271L9.01136 3.55464L9.01016 3.55521L9.00602 3.55717L9.00508 3.55761L9.00091 3.5596L9.0003 3.55989L8.99614 3.56189L8.99526 3.56231L8.99111 3.56432L8.98997 3.56486L8.98574 3.56691L8.98511 3.56722L8.98099 3.56924L8.98038 3.56953L8.97613 3.57161L8.97513 3.57211L8.97107 3.57412L8.96988 3.5747L8.96577 3.57675L8.965 3.57713L8.96114 3.57907L8.96028 3.5795L8.95622 3.58153L8.95501 3.58214L8.95111 3.58412L8.94974 3.58481L8.94603 3.58671L8.94503 3.58721L8.9413 3.58913L8.94035 3.58962L8.93633 3.59169L8.93511 3.59231L8.93118 3.59435L8.93 3.59497L8.92639 3.59685L8.92539 3.59737L8.92155 3.59938L8.92047 3.59996L8.91645 3.60208L8.91534 3.60266L8.91138 3.60476L8.91024 3.60537L8.90672 3.60725L8.90591 3.60769L8.90182 3.60987L8.90077 3.61045L8.89671 3.61263L8.89578 3.61314L8.8916 3.61541L8.89088 3.6158L8.88707 3.61788L8.88627 3.61832L8.88225 3.62053L8.88107 3.62118L8.87716 3.62334L8.87607 3.62394L8.87241 3.62597L8.87134 3.62657L8.86779 3.62855L8.86661 3.62921L8.86279 3.63135L8.86154 3.63206L8.8577 3.63422L8.85659 3.63486L8.85319 3.63679L8.85212 3.63739L8.84828 3.63959L8.84721 3.6402L8.84339 3.6424L8.84211 3.64313L8.83824 3.64537L8.83737 3.64587L8.834 3.64783L8.83286 3.64849L8.82905 3.65071L8.82787 3.6514L8.82406 3.65364L8.82288 3.65434L8.81915 3.65654L8.8182 3.65711L8.81475 3.65914L8.81362 3.65982L8.80983 3.66209L8.80866 3.66279L8.8048 3.66511L8.80375 3.66574L8.80035 3.66779L8.79913 3.66853L8.79585 3.67052L8.7944 3.6714L8.79087 3.67355L8.78943 3.67443L8.78583 3.67664L8.78465 3.67736L8.7815 3.67931L8.78025 3.68007L8.77681 3.68221L8.77534 3.68312L8.77179 3.68534L8.77048 3.68615L8.76696 3.68836L8.76574 3.68913L8.76264 3.69108L8.76148 3.69181L8.75798 3.69403L8.7564 3.69503L8.75301 3.69719L8.75155 3.69812L8.7487 3.69995L8.74676 3.7012L8.74404 3.70295L8.74252 3.70392L8.73917 3.70609L8.73754 3.70715L8.73423 3.7093L8.73267 3.71031L8.73021 3.71193L8.72816 3.71326L8.72539 3.71508L8.72381 3.71612L8.72057 3.71827L8.71888 3.71938L8.71594 3.72134L8.71411 3.72256L8.71169 3.72417L8.70945 3.72566L8.70686 3.7274L8.70512 3.72857L8.70206 3.73063L8.70015 3.73193L8.69782 3.73351L8.6955 3.73508L8.69337 3.73653L8.69087 3.73824L8.68853 3.73984L8.68654 3.7412L8.68453 3.7426L8.68154 3.74466L8.67995 3.74575L8.67686 3.74789L8.67502 3.74917L8.67229 3.75108L8.67023 3.75252L8.66808 3.75402L8.66643 3.75519L8.66312 3.75752L8.66179 3.75846L8.65821 3.76099L8.65694 3.76189L8.65466 3.76351L8.65387 3.76408L8.64973 3.76703L8.64864 3.76782L8.64481 3.77058L8.64365 3.7714L8.63983 3.77416L8.63877 3.77492L8.63646 3.7766L8.63507 3.77762L8.63159 3.78015L8.63051 3.78094L8.62655 3.78385L8.62566 3.7845L8.61828 3.78995L8.61809 3.79009L8.61341 3.79358L8.61272 3.79408L8.60822 3.79745L8.60782 3.79776C8.60364 3.80088 8.59944 3.80407 8.59528 3.80723L8.59499 3.80745C8.55329 3.8392 8.51267 3.87235 8.47313 3.90691C8.39074 3.97893 8.32333 4.06648 8.27477 4.16455C8.22621 4.26262 8.19744 4.3693 8.19011 4.47849C8.18277 4.58768 8.19702 4.69724 8.23202 4.80093C8.26703 4.90461 8.32212 5.00038 8.39414 5.08278C8.46617 5.16517 8.55371 5.23258 8.65178 5.28114C8.74985 5.3297 8.85653 5.35847 8.96572 5.3658C9.07491 5.37314 9.18447 5.35889 9.28816 5.32388C9.39184 5.28888 9.48762 5.23379 9.57001 5.16177C9.68905 5.05761 9.84184 5.00019 10 5.00016C10.1367 5.00008 10.27 5.04296 10.381 5.12273C10.492 5.20249 10.5752 5.31513 10.6187 5.44471L13.1217 12.8817C13.1921 13.091 13.3428 13.2638 13.5406 13.362C13.7383 13.4603 13.967 13.4761 14.1764 13.4059C14.3858 13.3357 14.5587 13.1852 14.6572 12.9876C14.7558 12.7899 14.7718 12.5613 14.7019 12.3518L12.4628 5.69887L12.4624 5.69782L12.4607 5.69267L12.4598 5.6902L12.4419 5.637L12.4394 5.62938L12.4373 5.62318L12.4366 5.62123L12.4357 5.61852L12.4345 5.6149L12.4327 5.60951L12.4326 5.60928L12.426 5.58976L12.4259 5.58925L12.4241 5.58394L12.4231 5.58115L12.4217 5.57683L12.4214 5.57605L12.4194 5.57007L12.4186 5.56752L12.4182 5.56635L12.4166 5.56161L12.4157 5.55898L12.4139 5.5537L12.4138 5.55346L12.4123 5.54892L12.4112 5.54561L12.4038 5.52361L12.4022 5.5189L12.3994 5.51049L12.3972 5.50418L12.3957 5.49964L12.392 5.48851L12.3868 5.47328L12.3856 5.4695L12.3825 5.46033L12.3821 5.45923L12.379 5.45014L12.3777 5.44628L12.3708 5.42568L12.37 5.42334L12.3669 5.414L12.3658 5.41071L12.365 5.40855L12.3616 5.39825L12.3614 5.39768L12.3602 5.39424L12.3592 5.3911L12.3584 5.38882L12.3554 5.38L12.3543 5.37669L12.3477 5.35697L12.3469 5.35464L12.3332 5.31403L12.3324 5.31154L12.3259 5.29221L12.3258 5.29194L12.3192 5.27248L12.3188 5.27104L12.3124 5.25228L12.3122 5.25158L12.3065 5.23457L12.3037 5.22639L12.303 5.22425L12.3025 5.22271C12.2362 5.02558 12.1983 4.91307 12.1983 4.91307C12.0434 4.45278 11.7479 4.05273 11.3535 3.76933C10.9591 3.48594 10.4857 3.33349 10 3.3335Z" fill="#EFF2FF"/>
<path d="M25 26.6667C25 26.8855 25.0431 27.1023 25.1269 27.3045C25.2106 27.5067 25.3334 27.6904 25.4882 27.8452C25.6429 27.9999 25.8267 28.1227 26.0289 28.2065C26.2311 28.2902 26.4478 28.3333 26.6667 28.3333H29.4445L25.8889 31C25.6129 31.207 25.3889 31.4754 25.2346 31.784C25.0803 32.0925 25 32.4328 25 32.7778C25 33.0696 25.0575 33.3586 25.1692 33.6282C25.2808 33.8978 25.4445 34.1428 25.6509 34.3491C25.8572 34.5555 26.1022 34.7192 26.3718 34.8308C26.6414 34.9425 26.9304 35 27.2222 35H33.3333C33.7754 35 34.1993 34.8244 34.5118 34.5118C34.8244 34.1993 35 33.7754 35 33.3333C35 33.1145 34.9569 32.8977 34.8731 32.6955C34.7894 32.4933 34.6666 32.3096 34.5118 32.1548C34.3571 32.0001 34.1733 31.8773 33.9711 31.7935C33.7689 31.7098 33.5522 31.6667 33.3333 31.6667H30.8333L34.1551 29.0093C34.4187 28.7984 34.6315 28.5308 34.7778 28.2265C34.9241 27.9222 35 27.5889 35 27.2513V27.2513C35 26.6542 34.7628 26.0816 34.3406 25.6594C33.9184 25.2372 33.3458 25 32.7487 25H26.6667C26.2246 25 25.8007 25.1756 25.4882 25.4882C25.1756 25.8007 25 26.2246 25 26.6667Z" fill="white"/>
<path d="M32.7488 25H26.6668C26.4459 25.0002 26.2341 25.0881 26.078 25.2444C25.9219 25.4006 25.8342 25.6125 25.8342 25.8333C25.8342 26.0542 25.9219 26.266 26.078 26.4223C26.2341 26.5786 26.4459 26.6665 26.6668 26.6667H32.7488C32.8699 26.6667 32.9881 26.7043 33.0869 26.7744C33.1858 26.8444 33.2604 26.9435 33.3005 27.0578C33.3406 27.1721 33.3442 27.296 33.3108 27.4125C33.2774 27.5289 33.2086 27.6321 33.114 27.7078L29.7923 30.3652C29.5226 30.581 29.3266 30.8752 29.2314 31.2071C29.1361 31.5391 29.1464 31.8925 29.2607 32.2183C29.375 32.5442 29.5878 32.8266 29.8695 33.0263C30.1512 33.2261 30.4881 33.3333 30.8334 33.3333H32.1071C32.3281 33.3333 32.5401 33.2455 32.6964 33.0893C32.8526 32.933 32.9404 32.721 32.9404 32.5C32.9404 32.279 32.8526 32.067 32.6964 31.9107C32.5401 31.7545 32.3281 31.6667 32.1071 31.6667H30.8334C30.8334 31.6667 32.0112 30.7244 32.9642 29.9621L32.9665 29.9602L32.9683 29.9588L32.9714 29.9563L32.9739 29.9543L32.9752 29.9533L32.9881 29.9429L32.9893 29.942C32.9963 29.9364 33.0033 29.9308 33.0103 29.9252L33.0306 29.9089L33.0395 29.9018L33.041 29.9006L33.0429 29.8991L33.0456 29.8969L33.0624 29.8835L33.0636 29.8826L33.0764 29.8723L33.0779 29.8711L33.0802 29.8693L33.0818 29.868L33.0849 29.8655L33.087 29.8638L33.0943 29.858L33.0966 29.8562L33.0979 29.8551L33.1042 29.8501L33.1087 29.8464L33.1171 29.8398L33.1228 29.8352L33.1289 29.8303L33.1324 29.8275L33.1382 29.8228L33.1535 29.8106L33.1574 29.8075L33.178 29.791L33.1877 29.7832L33.2222 29.7557L33.2356 29.7449L33.238 29.743L33.2391 29.7421L33.2472 29.7356L33.2478 29.7352L33.2554 29.7291L33.2574 29.7275L33.2596 29.7258L33.2657 29.7208L33.2868 29.704L33.2889 29.7023L33.3405 29.661L33.3827 29.6273L33.3848 29.6256L33.3898 29.6216L33.3973 29.6156L33.5068 29.5279L33.5097 29.5257L33.5124 29.5235L33.5245 29.5138L33.545 29.4975L33.5508 29.4928L33.5556 29.489L33.5594 29.4859L33.5632 29.4828L33.5724 29.4755L33.5756 29.4729L33.5771 29.4718L33.5842 29.4661L33.587 29.4638L33.5964 29.4563L33.6067 29.4481L33.6122 29.4436L33.6252 29.4333L33.6279 29.4311L33.6362 29.4245L33.6398 29.4216L33.6457 29.4168L33.6495 29.4138L33.6651 29.4014L33.6819 29.3879L33.6835 29.3866L33.6863 29.3844L33.6929 29.3791L33.6938 29.3784L33.6968 29.376L33.7081 29.367L33.7101 29.3654L33.7124 29.3635L33.7445 29.3378L33.7479 29.3351L33.7501 29.3333L33.7517 29.3321L33.7718 29.316L33.7749 29.3135L33.7774 29.3115L33.7815 29.3082L33.7829 29.3071L33.806 29.2886L33.8171 29.2797L33.8516 29.2521L33.8545 29.2498L33.8631 29.243L33.8636 29.2426L33.8657 29.2409L33.8673 29.2396L33.8679 29.2391L33.8701 29.2374L33.872 29.2358L33.8752 29.2333L33.8829 29.2271L33.8838 29.2264L33.8969 29.2159L33.8976 29.2153L33.9 29.2134L33.9028 29.2112L33.9117 29.204L33.9127 29.2032L33.9227 29.1952L33.9233 29.1948L33.9252 29.1932L33.926 29.1926L33.9297 29.1897L33.9319 29.1879L33.9334 29.1867L33.9436 29.1785L33.9469 29.1759L33.9561 29.1685L33.9586 29.1666L33.9628 29.1632L33.9651 29.1613L33.9668 29.16L33.9673 29.1596L33.9695 29.1578L33.973 29.155L33.9766 29.1522L33.9847 29.1456L33.9859 29.1447L34.006 29.1286L34.0124 29.1235L34.0153 29.1212L34.0208 29.1167L34.037 29.1039L34.0428 29.0992L34.064 29.0822L34.0663 29.0803L34.0695 29.0779L34.0763 29.0723L34.0775 29.0714L34.0798 29.0696L34.0809 29.0687L34.0814 29.0683L34.0881 29.063L34.0965 29.0562L34.0975 29.0554L34.0987 29.0545L34.0991 29.0541L34.1116 29.0441L34.1132 29.0429L34.1142 29.042L34.1146 29.0418L34.1223 29.0356L34.1251 29.0333L34.1258 29.0328L34.1265 29.0322L34.1299 29.0295L34.1333 29.0268L34.1338 29.0264L34.139 29.0222L34.1399 29.0215L34.1404 29.0211L34.1411 29.0205L34.1416 29.0201L34.1425 29.0194L34.143 29.019L34.1481 29.015L34.1482 29.0148L34.1485 29.0147L34.1492 29.014L34.1495 29.0139L34.1498 29.0136L34.1503 29.0131L34.1515 29.0122L34.1527 29.0113L34.1531 29.0109L34.1538 29.0104L34.1538 29.0104L34.154 29.0102L34.1542 29.01L34.1546 29.0098L34.1547 29.0097L34.1552 29.0093C34.5195 28.7179 34.7842 28.3205 34.9128 27.872C35.0415 27.4236 35.0276 26.9463 34.8732 26.5061C34.7188 26.0659 34.4314 25.6845 34.0509 25.4147C33.6703 25.1449 33.2153 25 32.7488 25Z" fill="#EFF2FF"/>
<path d="M10.8335 10H9.16683C8.70659 10 8.3335 10.3731 8.3335 10.8333V10.8333C8.3335 11.2936 8.70659 11.6667 9.16683 11.6667H10.8335C11.2937 11.6667 11.6668 11.2936 11.6668 10.8333C11.6668 10.3731 11.2937 10 10.8335 10Z" fill="#EFF2FF"/>
</svg>
