<?xml version="1.0" encoding="UTF-8"?>
<!DOCTYPE svg PUBLIC "-//W3C//DTD SVG 1.1//EN" "http://www.w3.org/Graphics/SVG/1.1/DTD/svg11.dtd">
<svg xmlns="http://www.w3.org/2000/svg" version="1.1" width="70px" height="35px" style="shape-rendering:geometricPrecision; text-rendering:geometricPrecision; image-rendering:optimizeQuality; fill-rule:evenodd; clip-rule:evenodd" xmlns:xlink="http://www.w3.org/1999/xlink">
<g><path style="opacity:0.245" fill="#98623b" d="M 16.5,8.5 C 15.5,8.5 14.5,8.5 13.5,8.5C 13.8542,4.14148 15.1875,3.64148 17.5,7C 17.4301,7.7648 17.0967,8.2648 16.5,8.5 Z"/></g>
<g><path style="opacity:0.277" fill="#9a623a" d="M 11.5,8.5 C 10.1667,8.83333 8.83333,9.16667 7.5,9.5C 7.5,8.16667 7.5,6.83333 7.5,5.5C 8.83333,5.5 10.1667,5.5 11.5,5.5C 11.5,6.5 11.5,7.5 11.5,8.5 Z"/></g>
<g><path style="opacity:0.26" fill="#98623b" d="M 23.5,12.5 C 22.8333,12.1667 22.1667,11.8333 21.5,11.5C 22.4917,7.82919 23.8251,7.66252 25.5,11C 25.1639,12.0299 24.4972,12.5299 23.5,12.5 Z"/></g>
<g><path style="opacity:0.372" fill="#1390b5" d="M 11.5,8.5 C 12.1667,9.83333 12.8333,9.83333 13.5,8.5C 14.5,8.5 15.5,8.5 16.5,8.5C 17.1847,10.4144 17.6847,12.4144 18,14.5C 18.4224,12.5743 19.5891,11.5743 21.5,11.5C 22.1667,11.8333 22.8333,12.1667 23.5,12.5C 23.7035,14.3904 23.0368,15.8904 21.5,17C 22.0944,17.4643 22.7611,17.631 23.5,17.5C 23.5,18.5 23.5,19.5 23.5,20.5C 22.0003,22.1786 20.167,23.5119 18,24.5C 17.5065,26.1341 17.3398,27.8008 17.5,29.5C 34.8333,29.5 52.1667,29.5 69.5,29.5C 69.5,30.1667 69.5,30.8333 69.5,31.5C 51.5,31.5 33.5,31.5 15.5,31.5C 13.9665,27.5954 14.6332,24.0954 17.5,21C 15.1667,19 12.8333,19 10.5,21C 11.8333,24.3333 11.8333,27.6667 10.5,31C 6.84841,31.4986 3.18174,31.6653 -0.5,31.5C -0.5,30.8333 -0.5,30.1667 -0.5,29.5C 2.83333,29.5 6.16667,29.5 9.5,29.5C 9.61986,27.2655 9.28652,25.0989 8.5,23C 6.98184,21.6494 5.64851,20.1494 4.5,18.5C 5.10978,17.609 5.44312,16.609 5.5,15.5C 6.4959,15.4142 7.32924,15.7476 8,16.5C 8.01779,14.2028 7.85112,11.8695 7.5,9.5C 8.83333,9.16667 10.1667,8.83333 11.5,8.5 Z"/></g>
<g><path style="opacity:0.248" fill="#9c613b" d="M 5.5,15.5 C 5.44312,16.609 5.10978,17.609 4.5,18.5C 1.11055,17.2899 0.777218,15.6232 3.5,13.5C 4.5223,13.8555 5.18897,14.5222 5.5,15.5 Z"/></g>
<g><path style="opacity:0.459" fill="#2e2a6f" d="M 62.5,15.5 C 63.5,15.5 64.5,15.5 65.5,15.5C 65.7839,18.7766 65.4505,21.9433 64.5,25C 62.5069,24.7679 60.6736,24.9346 59,25.5C 58,24.8333 57,24.1667 56,23.5C 54.9887,24.3366 53.8221,24.67 52.5,24.5C 52.5,25.5 52.5,26.5 52.5,27.5C 51.5,27.5 50.5,27.5 49.5,27.5C 50.0547,23.4159 49.0547,22.7492 46.5,25.5C 44.2464,23.0267 42.0797,23.0267 40,25.5C 38,22.8333 36,22.8333 34,25.5C 33.6667,25.1667 33.3333,24.8333 33,24.5C 32.5172,25.448 32.3505,26.448 32.5,27.5C 31.5,27.5 30.5,27.5 29.5,27.5C 29.5,24.1667 29.5,20.8333 29.5,17.5C 32.3646,17.0548 34.8646,17.7215 37,19.5C 39,16.8333 41,16.8333 43,19.5C 45,16.8333 47,16.8333 49,19.5C 49.6739,18.4216 50.6739,17.7549 52,17.5C 53.9108,18.4069 55.7441,18.4069 57.5,17.5C 58.7955,24.0414 59.4622,24.0414 59.5,17.5C 61.1788,17.7148 62.1788,17.0481 62.5,15.5 Z"/></g>
<g><path style="opacity:0.255" fill="#95643e" d="M 23.5,20.5 C 23.5,19.5 23.5,18.5 23.5,17.5C 25.0927,16.1328 26.4261,16.4661 27.5,18.5C 26.6798,20.1112 25.3464,20.7778 23.5,20.5 Z"/></g>
</svg>
