<svg width="40" height="40" viewBox="0 0 40 40" fill="none" xmlns="http://www.w3.org/2000/svg">
<path d="M20 38.6562C30.3036 38.6562 38.6562 30.3036 38.6562 20C38.6562 9.69644 30.3036 1.34375 20 1.34375C9.69644 1.34375 1.34375 9.69644 1.34375 20C1.34375 30.3036 9.69644 38.6562 20 38.6562Z" fill="#382B73"/>
<path d="M23.0379 29.1159C23.0379 27.4407 21.6749 26.0779 19.9999 26.0779C18.3249 26.0779 16.9619 27.4408 16.9619 29.1159C16.9619 30.7909 18.3249 32.1538 19.9999 32.1538C21.6749 32.1538 23.0379 30.791 23.0379 29.1159ZM17.7432 29.1159C17.7432 27.8715 18.7555 26.8591 19.9999 26.8591C21.2443 26.8591 22.2566 27.8715 22.2566 29.1159C22.2566 30.3602 21.2443 31.3726 19.9999 31.3726C18.7555 31.3726 17.7432 30.3602 17.7432 29.1159Z" fill="#291B4A"/>
<path d="M20 28.7847C20.2158 28.7847 20.3906 28.6098 20.3906 28.394C20.3906 28.1783 20.2158 28.0034 20 28.0034H19.0256C18.8099 28.0034 18.635 28.1783 18.635 28.394C18.635 28.6098 18.8099 28.7847 19.0256 28.7847H20Z" fill="#291B4A"/>
<path d="M20.9743 30.1743C21.1901 30.1743 21.3649 29.9995 21.3649 29.7837C21.3649 29.5679 21.1901 29.3931 20.9743 29.3931H19.0254C18.8096 29.3931 18.6348 29.5679 18.6348 29.7837C18.6348 29.9995 18.8096 30.1743 19.0254 30.1743H20.9743Z" fill="#291B4A"/>
<path d="M31.4123 32.1539C31.9079 32.1539 32.3112 31.7506 32.3112 31.2549V26.9767C32.3112 26.481 31.9079 26.0778 31.4123 26.0778H27.1342C26.6384 26.0778 26.2351 26.481 26.2351 26.9767V31.2549C26.2351 31.7506 26.6384 32.1539 27.1342 32.1539H31.4123ZM27.0164 31.2549V26.9767C27.0164 26.9118 27.0692 26.859 27.1342 26.859H31.4123C31.4771 26.859 31.5299 26.9118 31.5299 26.9767V31.2549C31.5299 31.3198 31.4771 31.3726 31.4123 31.3726H27.1342C27.0692 31.3726 27.0164 31.3198 27.0164 31.2549Z" fill="#291B4A"/>
<path d="M29.2732 28.7847C29.489 28.7847 29.6638 28.6098 29.6638 28.394C29.6638 28.1783 29.489 28.0034 29.2732 28.0034H28.2988C28.083 28.0034 27.9082 28.1783 27.9082 28.394C27.9082 28.6098 28.083 28.7847 28.2988 28.7847H29.2732Z" fill="#291B4A"/>
<path d="M30.2475 30.1743C30.4633 30.1743 30.6381 29.9995 30.6381 29.7837C30.6381 29.5679 30.4633 29.3931 30.2475 29.3931H28.2986C28.0828 29.3931 27.908 29.5679 27.908 29.7837C27.908 29.9995 28.0828 30.1743 28.2986 30.1743H30.2475Z" fill="#291B4A"/>
<path d="M12.8658 32.1539C13.3615 32.1539 13.7648 31.7506 13.7648 31.2549V26.9767C13.7648 26.481 13.3615 26.0778 12.8658 26.0778H8.58763C8.092 26.0778 7.68872 26.481 7.68872 26.9767V31.2549C7.68872 31.7506 8.092 32.1539 8.58763 32.1539H12.8658ZM8.46997 31.2549V26.9767C8.46997 26.9118 8.52278 26.859 8.58763 26.859H12.8658C12.9308 26.859 12.9836 26.9118 12.9836 26.9767V31.2549C12.9836 31.3198 12.9308 31.3726 12.8658 31.3726H8.58763C8.52278 31.3726 8.46997 31.3198 8.46997 31.2549Z" fill="#291B4A"/>
<path d="M10.7266 28.7847C10.9424 28.7847 11.1172 28.6098 11.1172 28.394C11.1172 28.1783 10.9424 28.0034 10.7266 28.0034H9.7522C9.53642 28.0034 9.36157 28.1783 9.36157 28.394C9.36157 28.6098 9.53642 28.7847 9.7522 28.7847H10.7266Z" fill="#291B4A"/>
<path d="M11.7011 30.1743C11.9169 30.1743 12.0917 29.9995 12.0917 29.7837C12.0917 29.5679 11.9169 29.3931 11.7011 29.3931H9.7522C9.53642 29.3931 9.36157 29.5679 9.36157 29.7837C9.36157 29.9995 9.53642 30.1743 9.7522 30.1743H11.7011Z" fill="#291B4A"/>
<path d="M22.1389 24.0882C22.6346 24.0882 23.0379 23.6849 23.0379 23.1893V18.911C23.0379 18.4154 22.6346 18.0121 22.1389 18.0121H17.8608C17.3652 18.0121 16.9619 18.4154 16.9619 18.911V23.1893C16.9619 23.6849 17.3652 24.0882 17.8608 24.0882H22.1389ZM17.7432 23.1893V18.911C17.7432 18.8461 17.796 18.7933 17.8608 18.7933H22.1391C22.2039 18.7933 22.2568 18.8461 22.2568 18.911V23.1893C22.2568 23.2541 22.2039 23.3069 22.1391 23.3069H17.8608C17.796 23.3069 17.7432 23.2541 17.7432 23.1893Z" fill="#291B4A"/>
<path d="M20 20.7191C20.2158 20.7191 20.3906 20.5443 20.3906 20.3285C20.3906 20.1127 20.2158 19.9379 20 19.9379H19.0256C18.8099 19.9379 18.635 20.1127 18.635 20.3285C18.635 20.5443 18.8099 20.7191 19.0256 20.7191H20Z" fill="#291B4A"/>
<path d="M20.9743 22.1086C21.1901 22.1086 21.3649 21.9338 21.3649 21.718C21.3649 21.5022 21.1901 21.3274 20.9743 21.3274H19.0254C18.8096 21.3274 18.6348 21.5022 18.6348 21.718C18.6348 21.9338 18.8096 22.1086 19.0254 22.1086H20.9743Z" fill="#291B4A"/>
<path d="M32.3113 21.0503C32.3113 19.3751 30.9483 18.0123 29.2733 18.0123C27.5983 18.0123 26.2354 19.3753 26.2354 21.0503C26.2354 22.7253 27.5983 24.0883 29.2733 24.0883C30.9483 24.0883 32.3113 22.7253 32.3113 21.0503ZM27.0164 21.0503C27.0164 19.8059 28.0288 18.7936 29.2732 18.7936C30.5175 18.7936 31.5299 19.8059 31.5299 21.0503C31.5299 22.2947 30.5175 23.307 29.2732 23.307C28.0288 23.307 27.0164 22.2947 27.0164 21.0503Z" fill="#291B4A"/>
<path d="M29.2732 20.7191C29.489 20.7191 29.6638 20.5443 29.6638 20.3285C29.6638 20.1127 29.489 19.9379 29.2732 19.9379H28.2988C28.083 19.9379 27.9082 20.1127 27.9082 20.3285C27.9082 20.5443 28.083 20.7191 28.2988 20.7191H29.2732Z" fill="#291B4A"/>
<path d="M30.2475 22.1086C30.4633 22.1086 30.6381 21.9338 30.6381 21.718C30.6381 21.5022 30.4633 21.3274 30.2475 21.3274H28.2986C28.0828 21.3274 27.908 21.5022 27.908 21.718C27.908 21.9338 28.0828 22.1086 28.2986 22.1086H30.2475Z" fill="#291B4A"/>
<path d="M13.7659 21.0503C13.7659 19.3751 12.4029 18.0123 10.7279 18.0123C9.05291 18.0123 7.68994 19.3753 7.68994 21.0503C7.68994 22.7253 9.05291 24.0883 10.7279 24.0883C12.4029 24.0883 13.7659 22.7253 13.7659 21.0503ZM8.47104 21.0503C8.47104 19.8059 9.48338 18.7936 10.7278 18.7936C11.9721 18.7936 12.9845 19.8059 12.9845 21.0503C12.9845 22.2947 11.9721 23.307 10.7278 23.307C9.48338 23.307 8.47104 22.2947 8.47104 21.0503Z" fill="#291B4A"/>
<path d="M10.7266 20.7191C10.9424 20.7191 11.1172 20.5443 11.1172 20.3285C11.1172 20.1127 10.9424 19.9379 10.7266 19.9379H9.7522C9.53642 19.9379 9.36157 20.1127 9.36157 20.3285C9.36157 20.5443 9.53642 20.7191 9.7522 20.7191H10.7266Z" fill="#291B4A"/>
<path d="M11.7011 22.1086C11.9169 22.1086 12.0917 21.9338 12.0917 21.718C12.0917 21.5022 11.9169 21.3274 11.7011 21.3274H9.7522C9.53642 21.3274 9.36157 21.5022 9.36157 21.718C9.36157 21.9338 9.53642 22.1086 9.7522 22.1086H11.7011Z" fill="#291B4A"/>
<path d="M14.9695 9.5482V10.5249C14.9695 10.8993 15.2226 11.2263 15.5853 11.3201L16.3964 11.5291L15.9701 12.2512C15.7803 12.5738 15.8328 12.984 16.0973 13.2484L16.7878 13.9388C17.0523 14.2037 17.4628 14.256 17.7857 14.0659L18.5071 13.6399L18.7164 14.4515C18.8101 14.8138 19.137 15.067 19.5115 15.067H19.6092V16.1246H17.1003C15.9432 16.1246 15.0018 17.0659 15.0018 18.2229V23.6974C15.0018 23.9132 15.1767 24.0881 15.3925 24.0881C15.6082 24.0881 15.7831 23.9132 15.7831 23.6974V18.2229C15.7831 17.4968 16.3739 16.9059 17.1003 16.9059H22.8992C23.6254 16.9059 24.2164 17.4966 24.2164 18.2229V23.6974C24.2164 23.9132 24.3912 24.0881 24.607 24.0881C24.8228 24.0881 24.9976 23.9132 24.9976 23.6974V18.2229C24.9976 17.066 24.0564 16.1246 22.8992 16.1246H20.3906V15.067H20.4882C20.8624 15.067 21.1893 14.814 21.2835 14.4512L21.4926 13.6399L22.2143 14.066C22.537 14.2559 22.9471 14.2038 23.2118 13.939L23.9023 13.2485C24.1671 12.984 24.2195 12.5738 24.0293 12.2505L23.6034 11.5291L24.4149 11.3199C24.7773 11.2262 25.0304 10.8995 25.0304 10.5249V9.5482C25.0304 9.17399 24.7774 8.84711 24.4146 8.75289L23.6034 8.54383L24.0293 7.82227C24.2195 7.49977 24.1674 7.08945 23.9024 6.82461L23.2117 6.13383C22.9471 5.86945 22.5368 5.81727 22.214 6.00711L21.4926 6.43305L21.2834 5.62117C21.1893 5.25898 20.8624 5.00586 20.4882 5.00586H19.5117C19.1373 5.00586 18.8103 5.25898 18.7165 5.62133C18.7164 5.62148 18.7164 5.62148 18.7164 5.62164L18.5073 6.43289L17.7856 6.0068C17.4632 5.8168 17.0529 5.86898 16.7881 6.13383L16.0975 6.82445C15.8328 7.08898 15.7806 7.49914 15.9704 7.82227L16.3964 8.54367L15.5848 8.75289C15.2225 8.84695 14.9695 9.17399 14.9695 9.5482ZM15.7507 9.5482C15.7507 9.52992 15.7631 9.51383 15.7803 9.50945L17.0943 9.17086C17.2132 9.14024 17.3107 9.05555 17.3578 8.94211C17.4048 8.82852 17.3957 8.69977 17.3334 8.59399L16.6437 7.4257C16.6345 7.40977 16.637 7.38992 16.65 7.3768L17.3406 6.68617C17.3535 6.6732 17.3732 6.67055 17.389 6.67992L18.5576 7.36961C18.6632 7.43164 18.7921 7.44117 18.9057 7.39398C19.0192 7.34695 19.1039 7.24945 19.1345 7.13055L19.4732 5.81664C19.4778 5.79914 19.4937 5.78695 19.512 5.78695H20.4885C20.5068 5.78695 20.5229 5.7993 20.5273 5.81649L20.8659 7.13055C20.8965 7.24945 20.9812 7.34695 21.0946 7.39398C21.2082 7.44102 21.3371 7.4318 21.4428 7.36961L22.6112 6.68008C22.6268 6.67102 22.6471 6.67336 22.6599 6.68617L23.3506 7.3768C23.3634 7.38977 23.366 7.40961 23.3568 7.42524L22.6671 8.59383C22.6048 8.69961 22.5957 8.82836 22.6428 8.94195C22.6898 9.05539 22.7873 9.14008 22.9062 9.1707L24.2196 9.50914C24.2374 9.51367 24.2498 9.52977 24.2498 9.54805V10.5248C24.2498 10.5429 24.2374 10.559 24.2203 10.5634L22.9062 10.902C22.7873 10.9326 22.6898 11.0173 22.6428 11.1307C22.5957 11.2443 22.6048 11.373 22.6671 11.4788L23.3567 12.6473C23.366 12.663 23.3635 12.683 23.3506 12.696L22.6599 13.3866C22.647 13.3995 22.627 13.4023 22.6115 13.393L21.4429 12.7032C21.3371 12.641 21.2082 12.6318 21.0948 12.6788C20.9814 12.7259 20.8967 12.8234 20.866 12.9423L20.5276 14.2559C20.5231 14.2737 20.507 14.286 20.4887 14.286H19.5121C19.4939 14.286 19.4778 14.2737 19.4734 14.2565L19.1346 12.9423C19.104 12.8234 19.0193 12.7259 18.9057 12.6788C18.8578 12.6588 18.807 12.6491 18.7564 12.6491C18.6874 12.6491 18.6187 12.6674 18.5578 12.7034L17.3895 13.393C17.374 13.4024 17.3537 13.3999 17.3407 13.3868L16.65 12.696C16.6371 12.6832 16.6346 12.663 16.6437 12.6477L17.3335 11.4791C17.3959 11.3734 17.405 11.2446 17.3579 11.131C17.3109 11.0176 17.2134 10.9329 17.0945 10.9023L15.7807 10.5637C15.7631 10.5593 15.7509 10.5432 15.7509 10.5251V9.5482H15.7507Z" fill="#291B4A"/>
<path d="M21.9701 10.0364C21.9701 8.95003 21.0864 8.06628 19.9999 8.06628C18.9135 8.06628 18.0298 8.95003 18.0298 10.0364C18.0298 11.1228 18.9135 12.0068 19.9999 12.0068C21.0864 12.0068 21.9701 11.123 21.9701 10.0364ZM18.811 10.0364C18.811 9.38082 19.3443 8.84753 19.9999 8.84753C20.6556 8.84753 21.1888 9.38082 21.1888 10.0364C21.1888 10.6921 20.6556 11.2253 19.9999 11.2253C19.3443 11.2253 18.811 10.6922 18.811 10.0364Z" fill="#291B4A"/>
<path d="M24.6071 23.4633C24.8229 23.4633 24.9977 23.2885 24.9977 23.0727V17.5982C24.9977 16.4413 24.0565 15.4999 22.8993 15.4999H17.1004C15.9434 15.4999 15.002 16.4411 15.002 17.5982V23.0727C15.002 23.2885 15.1768 23.4633 15.3926 23.4633C15.6084 23.4633 15.7832 23.2885 15.7832 23.0727V17.5982C15.7832 16.8721 16.374 16.2811 17.1004 16.2811H22.8993C23.6255 16.2811 24.2165 16.8719 24.2165 17.5982V23.0727C24.2165 23.2885 24.3913 23.4633 24.6071 23.4633Z" fill="#ED9ABC"/>
<path d="M20.3906 15.8905V14.0518C20.3906 13.836 20.2158 13.6611 20 13.6611C19.7842 13.6611 19.6094 13.836 19.6094 14.0518V15.8907C19.6094 16.1064 19.7842 16.2813 20 16.2813C20.2158 16.2813 20.3906 16.1063 20.3906 15.8905Z" fill="#ED9ABC"/>
<path d="M23.0379 28.4921C23.0379 26.8169 21.6749 25.4541 19.9999 25.4541C18.3249 25.4541 16.9619 26.8171 16.9619 28.4921C16.9619 30.1671 18.3249 31.53 19.9999 31.53C21.6749 31.53 23.0379 30.1672 23.0379 28.4921ZM17.7432 28.4921C17.7432 27.2477 18.7555 26.2354 19.9999 26.2354C21.2443 26.2354 22.2566 27.2477 22.2566 28.4921C22.2566 29.7364 21.2443 30.7488 19.9999 30.7488C18.7555 30.7488 17.7432 29.7364 17.7432 28.4921Z" fill="#65C1D6"/>
<path d="M19.9998 28.1599C20.2156 28.1599 20.3904 27.9851 20.3904 27.7693C20.3904 27.5535 20.2156 27.3787 19.9998 27.3787H19.0254C18.8096 27.3787 18.6348 27.5535 18.6348 27.7693C18.6348 27.9851 18.8096 28.1599 19.0254 28.1599H19.9998Z" fill="#65C1D6"/>
<path d="M20.9743 29.5494C21.1901 29.5494 21.3649 29.3746 21.3649 29.1588C21.3649 28.943 21.1901 28.7682 20.9743 28.7682H19.0254C18.8096 28.7682 18.6348 28.943 18.6348 29.1588C18.6348 29.3746 18.8096 29.5494 19.0254 29.5494H20.9743Z" fill="#65C1D6"/>
<path d="M31.4123 31.529C31.9079 31.529 32.3112 31.1257 32.3112 30.6301V26.3518C32.3112 25.8562 31.9079 25.4529 31.4123 25.4529H27.1342C26.6384 25.4529 26.2351 25.8562 26.2351 26.3518V30.6301C26.2351 31.1257 26.6384 31.529 27.1342 31.529H31.4123ZM27.0164 30.6301V26.3518C27.0164 26.2869 27.0692 26.2341 27.1342 26.2341H31.4123C31.4771 26.2341 31.5299 26.2869 31.5299 26.3518V30.6301C31.5299 30.6949 31.4771 30.7477 31.4123 30.7477H27.1342C27.0692 30.7477 27.0164 30.6949 27.0164 30.6301Z" fill="#65C1D6"/>
<path d="M29.2732 28.1599C29.489 28.1599 29.6638 27.9851 29.6638 27.7693C29.6638 27.5535 29.489 27.3787 29.2732 27.3787H28.2988C28.083 27.3787 27.9082 27.5535 27.9082 27.7693C27.9082 27.9851 28.083 28.1599 28.2988 28.1599H29.2732Z" fill="#65C1D6"/>
<path d="M30.2475 29.5494C30.4633 29.5494 30.6381 29.3746 30.6381 29.1588C30.6381 28.943 30.4633 28.7682 30.2475 28.7682H28.2986C28.0828 28.7682 27.908 28.943 27.908 29.1588C27.908 29.3746 28.0828 29.5494 28.2986 29.5494H30.2475Z" fill="#65C1D6"/>
<path d="M12.8658 31.529C13.3615 31.529 13.7648 31.1257 13.7648 30.6301V26.3518C13.7648 25.8562 13.3615 25.4529 12.8658 25.4529H8.58763C8.092 25.4529 7.68872 25.8562 7.68872 26.3518V30.6301C7.68872 31.1257 8.092 31.529 8.58763 31.529H12.8658ZM8.46997 30.6301V26.3518C8.46997 26.2869 8.52278 26.2341 8.58763 26.2341H12.8658C12.9308 26.2341 12.9836 26.2869 12.9836 26.3518V30.6301C12.9836 30.6949 12.9308 30.7477 12.8658 30.7477H8.58763C8.52278 30.7477 8.46997 30.6949 8.46997 30.6301Z" fill="#65C1D6"/>
<path d="M10.7266 28.1599C10.9424 28.1599 11.1172 27.9851 11.1172 27.7693C11.1172 27.5535 10.9424 27.3787 10.7266 27.3787H9.7522C9.53642 27.3787 9.36157 27.5535 9.36157 27.7693C9.36157 27.9851 9.53642 28.1599 9.7522 28.1599H10.7266Z" fill="#65C1D6"/>
<path d="M11.7011 29.5494C11.9169 29.5494 12.0917 29.3746 12.0917 29.1588C12.0917 28.943 11.9169 28.7682 11.7011 28.7682H9.7522C9.53642 28.7682 9.36157 28.943 9.36157 29.1588C9.36157 29.3746 9.53642 29.5494 9.7522 29.5494H11.7011Z" fill="#65C1D6"/>
<path d="M22.1389 23.4633C22.6346 23.4633 23.0379 23.06 23.0379 22.5644V18.2861C23.0379 17.7905 22.6346 17.3872 22.1389 17.3872H17.8608C17.3652 17.3872 16.9619 17.7905 16.9619 18.2861V22.5644C16.9619 23.06 17.3652 23.4633 17.8608 23.4633H22.1389ZM17.7432 22.5644V18.2861C17.7432 18.2213 17.796 18.1685 17.8608 18.1685H22.1391C22.2039 18.1685 22.2568 18.2213 22.2568 18.2861V22.5644C22.2568 22.6292 22.2039 22.6821 22.1391 22.6821H17.8608C17.796 22.6821 17.7432 22.6292 17.7432 22.5644Z" fill="#65C1D6"/>
<path d="M19.9998 20.0942C20.2156 20.0942 20.3904 19.9194 20.3904 19.7036C20.3904 19.4878 20.2156 19.313 19.9998 19.313H19.0254C18.8096 19.313 18.6348 19.4878 18.6348 19.7036C18.6348 19.9194 18.8096 20.0942 19.0254 20.0942H19.9998Z" fill="#65C1D6"/>
<path d="M20.9743 21.4838C21.1901 21.4838 21.3649 21.3089 21.3649 21.0931C21.3649 20.8774 21.1901 20.7025 20.9743 20.7025H19.0254C18.8096 20.7025 18.6348 20.8774 18.6348 21.0931C18.6348 21.3089 18.8096 21.4838 19.0254 21.4838H20.9743Z" fill="#65C1D6"/>
<path d="M32.3113 20.4254C32.3113 18.7503 30.9483 17.3875 29.2733 17.3875C27.5983 17.3875 26.2354 18.7504 26.2354 20.4254C26.2354 22.1004 27.5983 23.4634 29.2733 23.4634C30.9483 23.4634 32.3113 22.1004 32.3113 20.4254ZM27.0164 20.4254C27.0164 19.181 28.0288 18.1687 29.2732 18.1687C30.5175 18.1687 31.5299 19.181 31.5299 20.4254C31.5299 21.6698 30.5175 22.6821 29.2732 22.6821C28.0288 22.6821 27.0164 21.6698 27.0164 20.4254Z" fill="#65C1D6"/>
<path d="M29.2732 20.0944C29.489 20.0944 29.6638 19.9195 29.6638 19.7037C29.6638 19.488 29.489 19.3131 29.2732 19.3131H28.2988C28.083 19.3131 27.9082 19.488 27.9082 19.7037C27.9082 19.9195 28.083 20.0944 28.2988 20.0944H29.2732Z" fill="#65C1D6"/>
<path d="M30.2477 21.4839C30.4635 21.4839 30.6384 21.309 30.6384 21.0933C30.6384 20.8775 30.4635 20.7026 30.2477 20.7026H28.2988C28.083 20.7026 27.9082 20.8775 27.9082 21.0933C27.9082 21.309 28.083 21.4839 28.2988 21.4839H30.2477Z" fill="#65C1D6"/>
<path d="M13.7659 20.4254C13.7659 18.7503 12.4029 17.3875 10.7279 17.3875C9.05291 17.3875 7.68994 18.7504 7.68994 20.4254C7.68994 22.1004 9.05291 23.4634 10.7279 23.4634C12.4029 23.4634 13.7659 22.1004 13.7659 20.4254ZM8.47104 20.4254C8.47104 19.181 9.48338 18.1687 10.7278 18.1687C11.9721 18.1687 12.9845 19.181 12.9845 20.4254C12.9845 21.6698 11.9721 22.6821 10.7278 22.6821C9.48338 22.6821 8.47104 21.6698 8.47104 20.4254Z" fill="#65C1D6"/>
<path d="M10.7266 20.0944C10.9424 20.0944 11.1172 19.9195 11.1172 19.7037C11.1172 19.488 10.9424 19.3131 10.7266 19.3131H9.7522C9.53642 19.3131 9.36157 19.488 9.36157 19.7037C9.36157 19.9195 9.53642 20.0944 9.7522 20.0944H10.7266Z" fill="#65C1D6"/>
<path d="M11.7011 21.4839C11.9169 21.4839 12.0917 21.309 12.0917 21.0933C12.0917 20.8775 11.9169 20.7026 11.7011 20.7026H9.7522C9.53642 20.7026 9.36157 20.8775 9.36157 21.0933C9.36157 21.309 9.53642 21.4839 9.7522 21.4839H11.7011Z" fill="#65C1D6"/>
<path d="M14.9695 8.92333V9.90004C14.9695 10.2744 15.2226 10.6014 15.5853 10.6952L16.3964 10.9043L15.9701 11.6263C15.7803 11.9489 15.8328 12.3591 16.0973 12.6235L16.7878 13.3139C17.0523 13.5788 17.4628 13.6311 17.7857 13.441L18.5071 13.015L18.7164 13.8266C18.8101 14.1889 19.137 14.4421 19.5115 14.4421H20.4881C20.8623 14.4421 21.1892 14.1891 21.2834 13.8263L21.4924 13.015L22.2142 13.4411C22.5368 13.631 22.947 13.5789 23.2117 13.3141L23.9021 12.6236C24.167 12.3591 24.2193 11.9489 24.0292 11.6257L23.6032 10.9043L24.4148 10.695C24.7771 10.6013 25.0303 10.2746 25.0303 9.90004V8.92333C25.0303 8.54911 24.7773 8.22223 24.4145 8.12801L23.6032 7.91895L24.0292 7.19739C24.2193 6.87489 24.1673 6.46458 23.9023 6.19973L23.2115 5.50895C22.947 5.24458 22.5367 5.19239 22.2139 5.38223L21.4924 5.80817L21.2832 4.99629C21.1892 4.63411 20.8623 4.38098 20.4881 4.38098H19.5115C19.1371 4.38098 18.8101 4.63411 18.7164 4.99645C18.7162 4.99661 18.7162 4.99661 18.7162 4.99676L18.5071 5.80801L17.7854 5.38192C17.4631 5.19192 17.0528 5.24395 16.7879 5.50895L16.0973 6.19957C15.8326 6.46411 15.7804 6.87426 15.9703 7.19739L16.3962 7.91879L15.5846 8.12801C15.2225 8.22208 14.9695 8.54911 14.9695 8.92333ZM15.7507 8.92333C15.7507 8.90504 15.7631 8.88895 15.7803 8.88458L17.0943 8.54598C17.2132 8.51536 17.3107 8.43067 17.3578 8.31723C17.4048 8.20364 17.3957 8.07489 17.3334 7.96911L16.6437 6.80083C16.6345 6.78489 16.637 6.76504 16.6499 6.75192L17.3406 6.06129C17.3535 6.04833 17.3732 6.04583 17.389 6.05504L18.5576 6.74473C18.6632 6.80676 18.7921 6.81629 18.9057 6.76911C19.0192 6.72207 19.1039 6.62458 19.1345 6.50567L19.4732 5.19176C19.4778 5.17426 19.4937 5.16207 19.512 5.16207H20.4885C20.5068 5.16207 20.5229 5.17442 20.5273 5.19161L20.8659 6.50567C20.8965 6.62458 20.9812 6.72207 21.0946 6.76911C21.2082 6.81614 21.3371 6.80692 21.4428 6.74473L22.6112 6.0552C22.6268 6.04629 22.6471 6.04848 22.6599 6.06129L23.3506 6.75192C23.3634 6.76489 23.366 6.78473 23.3568 6.80036L22.6671 7.96895C22.6048 8.07473 22.5957 8.20348 22.6428 8.31708C22.6898 8.43051 22.7873 8.5152 22.9062 8.54583L24.2196 8.88426C24.2374 8.88879 24.2498 8.90489 24.2498 8.92317V9.89989C24.2498 9.91801 24.2374 9.93411 24.2203 9.93848L22.9062 10.2771C22.7873 10.3077 22.6898 10.3924 22.6428 10.5058C22.5957 10.6194 22.6048 10.7482 22.6671 10.8539L23.3567 12.0224C23.366 12.0382 23.3635 12.0582 23.3506 12.0711L22.6599 12.7618C22.647 12.7746 22.627 12.7774 22.6115 12.7682L21.4429 12.0783C21.3371 12.0161 21.2082 12.0069 21.0948 12.0539C20.9814 12.101 20.8967 12.1985 20.866 12.3174L20.5276 13.631C20.5231 13.6488 20.507 13.6611 20.4887 13.6611H19.5121C19.4939 13.6611 19.4778 13.6488 19.4734 13.6316L19.1346 12.3174C19.104 12.1985 19.0193 12.101 18.9057 12.0539C18.8578 12.0339 18.807 12.0243 18.7564 12.0243C18.6874 12.0243 18.6187 12.0425 18.5578 12.0785L17.3895 12.7682C17.374 12.7774 17.3537 12.7749 17.3407 12.7619L16.6499 12.0711C16.6371 12.0583 16.6346 12.0382 16.6437 12.0229L17.3335 10.8543C17.3959 10.7485 17.405 10.6197 17.3579 10.5061C17.3109 10.3927 17.2134 10.308 17.0945 10.2774L15.7807 9.93879C15.7631 9.93442 15.7509 9.91832 15.7509 9.9002V8.92333H15.7507Z" fill="#ED9ABC"/>
<path d="M15.7221 10.1657L17.0358 10.5043C17.0831 10.5165 17.1225 10.5507 17.1411 10.5957C17.1599 10.6409 17.1563 10.693 17.1314 10.7349L16.4416 11.9037C16.3781 12.0113 16.3955 12.1482 16.4839 12.2366L17.1747 12.9274C17.2266 12.9793 17.2955 13.0079 17.3689 13.0079C17.4181 13.0079 17.4666 12.9946 17.5083 12.9699L18.6763 12.2804C18.7005 12.2662 18.728 12.2587 18.7558 12.2587C18.7764 12.2587 18.7964 12.2626 18.8155 12.2705C18.8606 12.2893 18.8949 12.3287 18.907 12.3759L19.2458 13.6898C19.2769 13.8109 19.3861 13.8955 19.5116 13.8955H20.4881C20.6136 13.8955 20.723 13.8107 20.7541 13.6895L21.0925 12.3759C21.1047 12.3285 21.1389 12.2891 21.1841 12.2704C21.2031 12.2624 21.2231 12.2585 21.2438 12.2585C21.2717 12.2585 21.2994 12.266 21.3233 12.2801L22.4914 12.9696C22.5336 12.9946 22.5817 13.0079 22.631 13.0079C22.7038 13.0079 22.7725 12.9796 22.8253 12.9274L23.516 12.2368C23.6046 12.1482 23.6219 12.0109 23.5581 11.9032L22.8686 10.7348C22.8438 10.6927 22.8402 10.6407 22.8589 10.5955C22.8777 10.5504 22.917 10.5162 22.9642 10.504L24.2781 10.1654C24.3992 10.1343 24.4839 10.0251 24.4839 9.89977V8.92305C24.4839 8.79758 24.3991 8.6882 24.2778 8.65711L22.9644 8.31867C22.9171 8.30648 22.8777 8.27227 22.8591 8.22727C22.8403 8.18211 22.8439 8.12992 22.8688 8.08805L23.5586 6.91914C23.6216 6.81211 23.6044 6.67555 23.5161 6.58617L22.8266 5.89664C22.7756 5.84508 22.7046 5.81539 22.6316 5.81539C22.5838 5.81539 22.5367 5.82789 22.492 5.85336L21.3238 6.54289C21.2997 6.55711 21.2722 6.56461 21.2442 6.56461C21.2236 6.56461 21.2035 6.56055 21.1844 6.55273C21.1392 6.53398 21.105 6.49461 21.0928 6.44742L20.7542 5.13352C20.7231 5.01242 20.6139 4.92773 20.4885 4.92773H19.5119C19.3871 4.92773 19.2778 5.01195 19.2461 5.13336L18.9074 6.44727C18.8952 6.49461 18.861 6.53398 18.8156 6.55273C18.7967 6.56055 18.7767 6.56461 18.7563 6.56461C18.7283 6.56461 18.7006 6.55711 18.6766 6.54305L17.5069 5.85273C17.465 5.82836 17.4172 5.81539 17.3686 5.81539C17.2955 5.81539 17.2266 5.84398 17.1747 5.89586L16.4841 6.58648C16.3964 6.67414 16.3785 6.81055 16.4417 6.92023L17.1314 8.08836C17.1563 8.13039 17.1599 8.18242 17.1411 8.22758C17.1224 8.27273 17.083 8.30695 17.0358 8.31914L15.7219 8.65774C15.6008 8.68883 15.5161 8.79805 15.5161 8.92352V9.90024C15.5163 10.0262 15.6016 10.1355 15.7221 10.1657ZM15.7506 8.92336C15.7506 8.90508 15.763 8.88898 15.7802 8.88461L17.0942 8.54602C17.2131 8.51539 17.3106 8.4307 17.3577 8.31727C17.4047 8.20367 17.3956 8.07492 17.3333 7.96914L16.6436 6.80086C16.6344 6.78492 16.6369 6.76508 16.6499 6.75195L17.3405 6.06133C17.3483 6.05352 17.3585 6.04961 17.3686 6.04961C17.3755 6.04961 17.3825 6.05133 17.3888 6.05508L18.5574 6.74477C18.6183 6.78055 18.6871 6.79898 18.7561 6.79898C18.8067 6.79898 18.8574 6.78914 18.9055 6.7693C19.0189 6.72227 19.1036 6.62477 19.1342 6.50586L19.473 5.19195C19.4775 5.17445 19.4935 5.16227 19.5117 5.16227H20.4883C20.5066 5.16227 20.5227 5.17461 20.527 5.1918L20.8656 6.50586C20.8963 6.62477 20.981 6.72227 21.0944 6.7693C21.1425 6.78914 21.1933 6.79898 21.2439 6.79898C21.3128 6.79898 21.3816 6.7807 21.4425 6.74492L22.611 6.05539C22.6172 6.0518 22.6244 6.05008 22.6314 6.05008C22.6417 6.05008 22.6521 6.05398 22.6596 6.06148L23.3502 6.75211C23.363 6.76508 23.3656 6.78492 23.3564 6.80055L22.6667 7.96914C22.6044 8.07492 22.5953 8.20367 22.6424 8.31727C22.6894 8.4307 22.7869 8.51539 22.9058 8.54602L24.2192 8.88445C24.237 8.88899 24.2494 8.90508 24.2494 8.92336V9.90008C24.2494 9.9182 24.237 9.9343 24.2199 9.93867L22.9058 10.2773C22.7869 10.3079 22.6894 10.3926 22.6424 10.506C22.5953 10.6196 22.6044 10.7484 22.6667 10.8541L23.3563 12.0226C23.3656 12.0384 23.3631 12.0584 23.3502 12.0713L22.6596 12.762C22.6517 12.7698 22.6414 12.7737 22.631 12.7737C22.6241 12.7737 22.6174 12.772 22.6111 12.7684L21.4425 12.0785C21.3816 12.0426 21.3128 12.0245 21.2439 12.0245C21.1933 12.0245 21.1425 12.0343 21.0945 12.0541C20.9811 12.1012 20.8964 12.1987 20.8658 12.3176L20.5274 13.6312C20.5228 13.649 20.5067 13.6613 20.4885 13.6613H19.5119C19.4936 13.6613 19.4775 13.649 19.4731 13.6318L19.1344 12.3176C19.1038 12.1987 19.0191 12.1012 18.9055 12.0541C18.8575 12.0341 18.8067 12.0245 18.7561 12.0245C18.6872 12.0245 18.6185 12.0427 18.5575 12.0787L17.3892 12.7684C17.383 12.7721 17.3761 12.7738 17.3691 12.7738C17.3588 12.7738 17.3483 12.7698 17.3406 12.7621L16.6499 12.0713C16.6371 12.0585 16.6345 12.0384 16.6436 12.023L17.3335 10.8545C17.3958 10.7487 17.4049 10.6199 17.3578 10.5063C17.3108 10.3929 17.2133 10.3082 17.0944 10.2776L15.7806 9.93899C15.763 9.93461 15.7508 9.91852 15.7508 9.90039V8.92336H15.7506Z" fill="#E54890"/>
<path d="M14.9695 8.92332V9.90004C14.9695 10.2744 15.2226 10.6014 15.5853 10.6952L16.3964 10.9043L15.9701 11.6263C15.7803 11.9489 15.8328 12.3591 16.0973 12.6235L16.7878 13.3139C16.946 13.4724 17.1564 13.5547 17.369 13.5547C17.512 13.5547 17.6559 13.5175 17.7857 13.441L18.5071 13.015L18.7164 13.8266C18.8101 14.1889 19.137 14.4421 19.5115 14.4421H19.6092V15.4997H17.1003C15.9432 15.4997 15.0018 16.441 15.0018 17.598V23.0725C15.0018 23.2883 15.1767 23.4632 15.3925 23.4632C15.6082 23.4632 15.7831 23.2883 15.7831 23.0725V17.598C15.7831 16.8719 16.3739 16.281 17.1003 16.281H22.8992C23.6254 16.281 24.2164 16.8718 24.2164 17.598V23.0725C24.2164 23.2883 24.3912 23.4632 24.607 23.4632C24.8228 23.4632 24.9976 23.2883 24.9976 23.0725V17.598C24.9976 16.4411 24.0564 15.4997 22.8992 15.4997H20.3906V14.4421H20.4882C20.8624 14.4421 21.1893 14.1891 21.2835 13.8263L21.4926 13.015L22.2143 13.4411C22.3442 13.5175 22.4881 13.5547 22.6309 13.5547C22.8434 13.5547 23.0535 13.4724 23.2118 13.3141L23.9023 12.6236C24.1671 12.3591 24.2195 11.9489 24.0293 11.6257L23.6034 10.9043L24.4149 10.695C24.7773 10.6013 25.0304 10.2746 25.0304 9.90004V8.92332C25.0304 8.54911 24.7774 8.22223 24.4146 8.12801L23.6034 7.91895L24.0293 7.19739C24.2195 6.87489 24.1674 6.46457 23.9024 6.19973L23.2117 5.50895C23.0535 5.35098 22.8432 5.26864 22.6309 5.26864C22.4879 5.26864 22.344 5.30582 22.2142 5.38223L21.4928 5.80817L21.2835 4.99629C21.1895 4.63411 20.8626 4.38098 20.4884 4.38098H19.5118C19.1374 4.38098 18.8104 4.63411 18.7167 4.99645C18.7165 4.99661 18.7165 4.99661 18.7165 4.99676L18.5074 5.80801L17.7857 5.38192C17.656 5.30551 17.5121 5.26817 17.3692 5.26817C17.1568 5.26817 16.9465 5.35051 16.7882 5.50879L16.0976 6.19942C15.8329 6.46395 15.7807 6.87411 15.9706 7.19723L16.3965 7.91864L15.585 8.12786C15.2225 8.22207 14.9695 8.54911 14.9695 8.92332ZM16.4549 8.14598C16.5262 8.1277 16.5848 8.07676 16.6129 8.00879C16.641 7.94082 16.6357 7.86332 16.5982 7.80004L16.1726 7.07895C16.0368 6.84801 16.074 6.55489 16.2632 6.36567L16.9539 5.67504C17.0646 5.56426 17.2121 5.50317 17.369 5.50317C17.4735 5.50317 17.5764 5.53129 17.6664 5.58426L18.3881 6.01036C18.4246 6.03192 18.4659 6.04286 18.5073 6.04286C18.5376 6.04286 18.5682 6.03692 18.597 6.02504C18.665 5.99692 18.7159 5.93832 18.7343 5.86707L18.942 5.06098C18.9424 5.05926 18.9429 5.05739 18.9434 5.05567C19.0103 4.79676 19.244 4.61583 19.5117 4.61583H20.4882C20.7556 4.61583 20.9893 4.79661 21.0564 5.0552L21.2656 5.86707C21.284 5.93848 21.3348 5.99692 21.4029 6.02504C21.4317 6.03692 21.4621 6.04286 21.4926 6.04286C21.534 6.04286 21.5753 6.03192 21.6118 6.01036L22.3329 5.58457C22.4232 5.53145 22.5262 5.50332 22.6307 5.50332C22.7876 5.50332 22.9351 5.56426 23.0459 5.67489L23.7367 6.36567C23.9259 6.55473 23.9631 6.84786 23.8273 7.07832L23.4015 7.79989C23.364 7.86332 23.3585 7.94067 23.3868 8.00864C23.4151 8.07661 23.4735 8.12754 23.5449 8.14598L24.3559 8.35489C24.6151 8.42207 24.7962 8.65598 24.7962 8.92332V9.90004C24.7962 10.1675 24.6153 10.4011 24.3565 10.468L23.5449 10.6772C23.4735 10.6957 23.4151 10.7464 23.387 10.8146C23.3589 10.8827 23.3642 10.96 23.4017 11.0233L23.8274 11.7446C23.9634 11.9755 23.926 12.2686 23.7367 12.4579L23.046 13.1483C22.9353 13.2591 22.7879 13.3202 22.631 13.3202C22.5265 13.3202 22.4235 13.2921 22.3335 13.2391L21.6118 12.813C21.5753 12.7914 21.534 12.7805 21.4926 12.7805C21.4623 12.7805 21.4317 12.7864 21.4029 12.7983C21.3348 12.8264 21.284 12.885 21.2656 12.9563L21.0567 13.7672C20.9893 14.0264 20.7556 14.2075 20.4882 14.2075H20.3906C20.2612 14.2075 20.1562 14.3125 20.1562 14.4419V15.4996C20.1562 15.6289 20.2612 15.7339 20.3906 15.7339H22.8995C23.9273 15.7339 24.7635 16.57 24.7635 17.5979V23.0724C24.7635 23.1586 24.6934 23.2286 24.6073 23.2286C24.5212 23.2286 24.451 23.1586 24.451 23.0724V17.5979C24.451 16.7424 23.7551 16.0464 22.8995 16.0464H17.1006C16.2451 16.0464 15.549 16.7424 15.549 17.5979V23.0724C15.549 23.1586 15.4789 23.2286 15.3928 23.2286C15.3067 23.2286 15.2365 23.1586 15.2365 23.0724V17.5979C15.2365 16.57 16.0728 15.7339 17.1006 15.7339H19.6093C19.7387 15.7339 19.8437 15.6289 19.8437 15.4996V14.4419C19.8437 14.3125 19.7387 14.2075 19.6093 14.2075H19.5117C19.244 14.2075 19.0104 14.0268 18.9435 13.7679L18.7343 12.9563C18.7159 12.885 18.6651 12.8264 18.597 12.7983C18.5682 12.7864 18.5378 12.7805 18.5073 12.7805C18.4659 12.7805 18.4246 12.7914 18.3881 12.813L17.6668 13.2388C17.5765 13.2919 17.4735 13.32 17.369 13.32C17.212 13.32 17.0645 13.2589 16.9535 13.1479L16.2629 12.4572C16.0739 12.2683 16.0364 11.9754 16.1718 11.745L16.5981 11.023C16.6356 10.9596 16.6409 10.8822 16.6128 10.8143C16.5846 10.7461 16.526 10.6954 16.4546 10.6769L15.6435 10.4679C15.3845 10.401 15.2034 10.1672 15.2034 9.89973V8.92301C15.2034 8.65551 15.3842 8.42176 15.6429 8.35489L16.4549 8.14598Z" fill="#E54890"/>
<path d="M21.9701 9.41156C21.9701 8.32516 21.0864 7.44141 19.9999 7.44141C18.9135 7.44141 18.0298 8.32516 18.0298 9.41156C18.0298 10.498 18.9135 11.3819 19.9999 11.3819C21.0864 11.3819 21.9701 10.4981 21.9701 9.41156ZM18.811 9.41156C18.811 8.75594 19.3443 8.22266 19.9999 8.22266C20.6556 8.22266 21.1888 8.75594 21.1888 9.41156C21.1888 10.0672 20.6556 10.6005 19.9999 10.6005C19.3443 10.6005 18.811 10.0673 18.811 9.41156Z" fill="#D3D3D3"/>
<path d="M21.9701 9.41156C21.9701 8.32516 21.0864 7.44141 19.9999 7.44141C18.9135 7.44141 18.0298 8.32516 18.0298 9.41156C18.0298 10.498 18.9135 11.3819 19.9999 11.3819C21.0864 11.3819 21.9701 10.4981 21.9701 9.41156ZM18.2642 9.41156C18.2642 8.45438 19.0429 7.67578 19.9999 7.67578C20.957 7.67578 21.7357 8.45453 21.7357 9.41156C21.7357 10.3686 20.9571 11.1475 19.9999 11.1475C19.0428 11.1475 18.2642 10.3687 18.2642 9.41156Z" fill="#EBE7F2"/>
<path d="M21.4232 9.41156C21.4232 8.62672 20.7848 7.98828 19.9999 7.98828C19.2151 7.98828 18.5767 8.62672 18.5767 9.41156C18.5767 10.1964 19.2151 10.8348 19.9999 10.8348C20.7848 10.8348 21.4232 10.1964 21.4232 9.41156ZM18.811 9.41156C18.811 8.75594 19.3443 8.22266 19.9999 8.22266C20.6556 8.22266 21.1889 8.75594 21.1889 9.41156C21.1889 10.0672 20.6556 10.6005 19.9999 10.6005C19.3443 10.6005 18.811 10.0673 18.811 9.41156Z" fill="#EBE7F2"/>
<path d="M23.0379 28.491C23.0379 26.8158 21.6749 25.453 19.9999 25.453C18.3249 25.453 16.9619 26.816 16.9619 28.491C16.9619 30.166 18.3249 31.5289 19.9999 31.5289C21.6749 31.5289 23.0379 30.1661 23.0379 28.491ZM17.1963 28.491C17.1963 26.945 18.4539 25.6874 19.9999 25.6874C21.5458 25.6874 22.8035 26.945 22.8035 28.491C22.8035 30.0369 21.5458 31.2946 19.9999 31.2946C18.4539 31.2946 17.1963 30.0369 17.1963 28.491Z" fill="#149CB2"/>
<path d="M22.491 28.491C22.491 27.1174 21.3735 25.9999 19.9999 25.9999C18.6263 25.9999 17.5088 27.1174 17.5088 28.491C17.5088 29.8646 18.6263 30.9821 19.9999 30.9821C21.3735 30.9821 22.491 29.8646 22.491 28.491ZM17.7432 28.491C17.7432 27.2466 18.7555 26.2343 19.9999 26.2343C21.2443 26.2343 22.2566 27.2466 22.2566 28.491C22.2566 29.7353 21.2443 30.7477 19.9999 30.7477C18.7555 30.7477 17.7432 29.7353 17.7432 28.491Z" fill="#149CB2"/>
<path d="M20 28.1599C20.2158 28.1599 20.3906 27.9851 20.3906 27.7693C20.3906 27.5535 20.2158 27.3787 20 27.3787H19.0256C18.8099 27.3787 18.635 27.5535 18.635 27.7693C18.635 27.9851 18.8099 28.1599 19.0256 28.1599H20ZM18.8694 27.7693C18.8694 27.683 18.9395 27.613 19.0256 27.613H20C20.0861 27.613 20.1563 27.683 20.1563 27.7693C20.1563 27.8555 20.0861 27.9255 20 27.9255H19.0256C18.9394 27.9255 18.8694 27.8554 18.8694 27.7693Z" fill="#149CB2"/>
<path d="M20.9743 29.5494C21.1901 29.5494 21.3649 29.3746 21.3649 29.1588C21.3649 28.943 21.1901 28.7682 20.9743 28.7682H19.0254C18.8096 28.7682 18.6348 28.943 18.6348 29.1588C18.6348 29.3746 18.8096 29.5494 19.0254 29.5494H20.9743ZM18.8693 29.1588C18.8693 29.0726 18.9395 29.0026 19.0255 29.0026H20.9745C21.0605 29.0026 21.1307 29.0726 21.1307 29.1588C21.1307 29.2451 21.0605 29.3151 20.9745 29.3151H19.0255C18.9393 29.3151 18.8693 29.2451 18.8693 29.1588Z" fill="#149CB2"/>
<path d="M31.4123 31.529C31.9079 31.529 32.3112 31.1257 32.3112 30.6301V26.3518C32.3112 25.8562 31.9079 25.4529 31.4123 25.4529H27.1342C26.6384 25.4529 26.2351 25.8562 26.2351 26.3518V30.6301C26.2351 31.1257 26.6384 31.529 27.1342 31.529H31.4123ZM26.4695 30.6301V26.3518C26.4695 25.9854 26.7676 25.6873 27.1342 25.6873H31.4123C31.7787 25.6873 32.0768 25.9854 32.0768 26.3518V30.6301C32.0768 30.9965 31.7787 31.2946 31.4123 31.2946H27.1342C26.7678 31.2946 26.4695 30.9965 26.4695 30.6301Z" fill="#149CB2"/>
<path d="M31.4123 30.9821C31.6064 30.9821 31.7643 30.8241 31.7643 30.6301V26.3518C31.7643 26.1577 31.6064 25.9998 31.4123 25.9998H27.1342C26.94 25.9998 26.782 26.1577 26.782 26.3518V30.6301C26.782 30.8241 26.94 30.9821 27.1342 30.9821H31.4123ZM27.0164 30.6301V26.3518C27.0164 26.2869 27.0692 26.2341 27.1342 26.2341H31.4123C31.4771 26.2341 31.5299 26.2869 31.5299 26.3518V30.6301C31.5299 30.6949 31.4771 30.7477 31.4123 30.7477H27.1342C27.0692 30.7477 27.0164 30.6949 27.0164 30.6301Z" fill="#149CB2"/>
<path d="M29.2732 28.1599C29.489 28.1599 29.6638 27.9851 29.6638 27.7693C29.6638 27.5535 29.489 27.3787 29.2732 27.3787H28.2988C28.083 27.3787 27.9082 27.5535 27.9082 27.7693C27.9082 27.9851 28.083 28.1599 28.2988 28.1599H29.2732ZM28.1424 27.7693C28.1424 27.683 28.2126 27.613 28.2987 27.613H29.273C29.3591 27.613 29.4293 27.683 29.4293 27.7693C29.4293 27.8555 29.3591 27.9255 29.273 27.9255H28.2987C28.2126 27.9255 28.1424 27.8554 28.1424 27.7693Z" fill="#149CB2"/>
<path d="M30.2475 29.5494C30.4633 29.5494 30.6381 29.3746 30.6381 29.1588C30.6381 28.943 30.4633 28.7682 30.2475 28.7682H28.2986C28.0828 28.7682 27.908 28.943 27.908 29.1588C27.908 29.3746 28.0828 29.5494 28.2986 29.5494H30.2475ZM28.1423 29.1588C28.1423 29.0726 28.2125 29.0026 28.2986 29.0026H30.2475C30.3336 29.0026 30.4037 29.0726 30.4037 29.1588C30.4037 29.2451 30.3336 29.3151 30.2475 29.3151H28.2986C28.2125 29.3151 28.1423 29.2451 28.1423 29.1588Z" fill="#149CB2"/>
<path d="M12.8658 31.529C13.3615 31.529 13.7648 31.1257 13.7648 30.6301V26.3518C13.7648 25.8562 13.3615 25.4529 12.8658 25.4529H8.58763C8.092 25.4529 7.68872 25.8562 7.68872 26.3518V30.6301C7.68872 31.1257 8.092 31.529 8.58763 31.529H12.8658ZM7.9231 30.6301V26.3518C7.9231 25.9854 8.22122 25.6873 8.58763 25.6873H12.8658C13.2323 25.6873 13.5304 25.9854 13.5304 26.3518V30.6301C13.5304 30.9965 13.2323 31.2946 12.8658 31.2946H8.58763C8.22122 31.2946 7.9231 30.9965 7.9231 30.6301Z" fill="#149CB2"/>
<path d="M12.8658 30.9821C13.06 30.9821 13.2179 30.8241 13.2179 30.6301V26.3518C13.2179 26.1577 13.06 25.9998 12.8658 25.9998H8.58763C8.39356 25.9998 8.2356 26.1577 8.2356 26.3518V30.6301C8.2356 30.8241 8.39356 30.9821 8.58763 30.9821H12.8658ZM8.46997 30.6301V26.3518C8.46997 26.2869 8.52278 26.2341 8.58763 26.2341H12.8658C12.9308 26.2341 12.9836 26.2869 12.9836 26.3518V30.6301C12.9836 30.6949 12.9308 30.7477 12.8658 30.7477H8.58763C8.52278 30.7477 8.46997 30.6949 8.46997 30.6301Z" fill="#149CB2"/>
<path d="M10.7266 28.1599C10.9424 28.1599 11.1172 27.9851 11.1172 27.7693C11.1172 27.5535 10.9424 27.3787 10.7266 27.3787H9.7522C9.53642 27.3787 9.36157 27.5535 9.36157 27.7693C9.36157 27.9851 9.53642 28.1599 9.7522 28.1599H10.7266ZM9.59595 27.7693C9.59595 27.683 9.6661 27.613 9.7522 27.613H10.7266C10.8127 27.613 10.8828 27.683 10.8828 27.7693C10.8828 27.8555 10.8127 27.9255 10.7266 27.9255H9.7522C9.6661 27.9255 9.59595 27.8554 9.59595 27.7693Z" fill="#149CB2"/>
<path d="M11.7011 29.5494C11.9169 29.5494 12.0917 29.3746 12.0917 29.1588C12.0917 28.943 11.9169 28.7682 11.7011 28.7682H9.7522C9.53642 28.7682 9.36157 28.943 9.36157 29.1588C9.36157 29.3746 9.53642 29.5494 9.7522 29.5494H11.7011ZM9.59595 29.1588C9.59595 29.0726 9.6661 29.0026 9.7522 29.0026H11.7011C11.7872 29.0026 11.8574 29.0726 11.8574 29.1588C11.8574 29.2451 11.7872 29.3151 11.7011 29.3151H9.7522C9.6661 29.3151 9.59595 29.2451 9.59595 29.1588Z" fill="#149CB2"/>
<path d="M22.1389 23.4633C22.6346 23.4633 23.0379 23.06 23.0379 22.5644V18.2861C23.0379 17.7905 22.6346 17.3872 22.1389 17.3872H17.8608C17.3652 17.3872 16.9619 17.7905 16.9619 18.2861V22.5644C16.9619 23.06 17.3652 23.4633 17.8608 23.4633H22.1389ZM17.1963 22.5644V18.2861C17.1963 17.9197 17.4944 17.6216 17.8608 17.6216H22.1391C22.5055 17.6216 22.8036 17.9197 22.8036 18.2861V22.5644C22.8036 22.9308 22.5055 23.2289 22.1391 23.2289H17.8608C17.4943 23.2289 17.1963 22.9308 17.1963 22.5644Z" fill="#149CB2"/>
<path d="M22.139 22.9164C22.333 22.9164 22.491 22.7585 22.491 22.5644V18.2861C22.491 18.0921 22.333 17.9341 22.139 17.9341H17.8608C17.6668 17.9341 17.5088 18.0921 17.5088 18.2861V22.5644C17.5088 22.7585 17.6668 22.9164 17.8608 22.9164H22.139ZM17.7432 22.5644V18.2861C17.7432 18.2213 17.796 18.1685 17.8608 18.1685H22.1391C22.2039 18.1685 22.2568 18.2213 22.2568 18.2861V22.5644C22.2568 22.6292 22.2039 22.682 22.1391 22.682H17.8608C17.796 22.682 17.7432 22.6292 17.7432 22.5644Z" fill="#149CB2"/>
<path d="M20 20.0942C20.2158 20.0942 20.3906 19.9194 20.3906 19.7036C20.3906 19.4878 20.2158 19.313 20 19.313H19.0256C18.8099 19.313 18.635 19.4878 18.635 19.7036C18.635 19.9194 18.8099 20.0942 19.0256 20.0942H20ZM18.8694 19.7036C18.8694 19.6174 18.9395 19.5474 19.0256 19.5474H20C20.0861 19.5474 20.1563 19.6174 20.1563 19.7036C20.1563 19.7899 20.0861 19.8599 20 19.8599H19.0256C18.9394 19.8599 18.8694 19.7897 18.8694 19.7036Z" fill="#149CB2"/>
<path d="M20.9743 21.4838C21.1901 21.4838 21.3649 21.3089 21.3649 21.0931C21.3649 20.8774 21.1901 20.7025 20.9743 20.7025H19.0254C18.8096 20.7025 18.6348 20.8774 18.6348 21.0931C18.6348 21.3089 18.8096 21.4838 19.0254 21.4838H20.9743ZM18.8693 21.0931C18.8693 21.0069 18.9395 20.9369 19.0255 20.9369H20.9745C21.0605 20.9369 21.1307 21.0069 21.1307 21.0931C21.1307 21.1794 21.0605 21.2494 20.9745 21.2494H19.0255C18.9393 21.2494 18.8693 21.1794 18.8693 21.0931Z" fill="#149CB2"/>
<path d="M31.7644 20.4253C31.7644 19.0517 30.6469 17.9342 29.2733 17.9342C27.8997 17.9342 26.7822 19.0517 26.7822 20.4253C26.7822 21.7989 27.8997 22.9164 29.2733 22.9164C30.6469 22.9164 31.7644 21.7989 31.7644 20.4253ZM27.0164 20.4253C27.0164 19.1809 28.0288 18.1686 29.2732 18.1686C30.5175 18.1686 31.5299 19.1809 31.5299 20.4253C31.5299 21.6697 30.5175 22.682 29.2732 22.682C28.0288 22.682 27.0164 21.6697 27.0164 20.4253Z" fill="#149CB2"/>
<path d="M32.3113 20.4264C32.3113 18.7512 30.9483 17.3884 29.2733 17.3884C27.5983 17.3884 26.2354 18.7514 26.2354 20.4264C26.2354 22.1014 27.5983 23.4644 29.2733 23.4644C30.9483 23.4644 32.3113 22.1014 32.3113 20.4264ZM26.4696 20.4264C26.4696 18.8805 27.7272 17.6228 29.2732 17.6228C30.8191 17.6228 32.0768 18.8805 32.0768 20.4264C32.0768 21.9723 30.8191 23.23 29.2732 23.23C27.7272 23.23 26.4696 21.9723 26.4696 20.4264Z" fill="#149CB2"/>
<path d="M29.2732 20.0942C29.489 20.0942 29.6638 19.9194 29.6638 19.7036C29.6638 19.4878 29.489 19.313 29.2732 19.313H28.2988C28.083 19.313 27.9082 19.4878 27.9082 19.7036C27.9082 19.9194 28.083 20.0942 28.2988 20.0942H29.2732ZM28.1424 19.7036C28.1424 19.6174 28.2126 19.5474 28.2987 19.5474H29.273C29.3591 19.5474 29.4293 19.6174 29.4293 19.7036C29.4293 19.7899 29.3591 19.8599 29.273 19.8599H28.2987C28.2126 19.8599 28.1424 19.7897 28.1424 19.7036Z" fill="#149CB2"/>
<path d="M30.2475 21.4838C30.4633 21.4838 30.6381 21.3089 30.6381 21.0931C30.6381 20.8774 30.4633 20.7025 30.2475 20.7025H28.2986C28.0828 20.7025 27.908 20.8774 27.908 21.0931C27.908 21.3089 28.0828 21.4838 28.2986 21.4838H30.2475ZM28.1423 21.0931C28.1423 21.0069 28.2125 20.9369 28.2986 20.9369H30.2475C30.3336 20.9369 30.4037 21.0069 30.4037 21.0931C30.4037 21.1794 30.3336 21.2494 30.2475 21.2494H28.2986C28.2125 21.2494 28.1423 21.1794 28.1423 21.0931Z" fill="#149CB2"/>
<path d="M13.7656 20.4262C13.7656 18.751 12.4027 17.3882 10.7277 17.3882C9.05267 17.3882 7.6897 18.7512 7.6897 20.4262C7.6897 22.1012 9.05267 23.4641 10.7277 23.4641C12.4027 23.4641 13.7656 22.1012 13.7656 20.4262ZM7.92392 20.4262C7.92392 18.8802 9.18157 17.6226 10.7275 17.6226C12.2734 17.6226 13.5311 18.8802 13.5311 20.4262C13.5311 21.9721 12.2734 23.2297 10.7275 23.2297C9.18157 23.2297 7.92392 21.9721 7.92392 20.4262Z" fill="#149CB2"/>
<path d="M13.218 20.4253C13.218 19.0517 12.1005 17.9342 10.7269 17.9342C9.35334 17.9342 8.23584 19.0517 8.23584 20.4253C8.23584 21.7989 9.35334 22.9164 10.7269 22.9164C12.1005 22.9164 13.218 21.7989 13.218 20.4253ZM8.47006 20.4253C8.47006 19.1809 9.4824 18.1686 10.7268 18.1686C11.9712 18.1686 12.9835 19.1809 12.9835 20.4253C12.9835 21.6697 11.9712 22.682 10.7268 22.682C9.4824 22.682 8.47006 21.6697 8.47006 20.4253Z" fill="#149CB2"/>
<path d="M10.7266 20.0942C10.9424 20.0942 11.1172 19.9194 11.1172 19.7036C11.1172 19.4878 10.9424 19.313 10.7266 19.313H9.7522C9.53642 19.313 9.36157 19.4878 9.36157 19.7036C9.36157 19.9194 9.53642 20.0942 9.7522 20.0942H10.7266ZM9.59595 19.7036C9.59595 19.6174 9.6661 19.5474 9.7522 19.5474H10.7266C10.8127 19.5474 10.8828 19.6174 10.8828 19.7036C10.8828 19.7899 10.8127 19.8599 10.7266 19.8599H9.7522C9.6661 19.8599 9.59595 19.7897 9.59595 19.7036Z" fill="#149CB2"/>
<path d="M11.7011 21.4838C11.9169 21.4838 12.0917 21.3089 12.0917 21.0931C12.0917 20.8774 11.9169 20.7025 11.7011 20.7025H9.7522C9.53642 20.7025 9.36157 20.8774 9.36157 21.0931C9.36157 21.3089 9.53642 21.4838 9.7522 21.4838H11.7011ZM9.59595 21.0931C9.59595 21.0069 9.6661 20.9369 9.7522 20.9369H11.7011C11.7872 20.9369 11.8574 21.0069 11.8574 21.0931C11.8574 21.1794 11.7872 21.2494 11.7011 21.2494H9.7522C9.6661 21.2494 9.59595 21.1794 9.59595 21.0931Z" fill="#149CB2"/>
</svg>
