<svg width="40" height="40" viewBox="0 0 40 40" fill="none" xmlns="http://www.w3.org/2000/svg">
<path d="M20 38.6562C30.3036 38.6562 38.6562 30.3036 38.6562 20C38.6562 9.69644 30.3036 1.34375 20 1.34375C9.69643 1.34375 1.34375 9.69644 1.34375 20C1.34375 30.3036 9.69643 38.6562 20 38.6562Z" fill="#382B73"/>
<path d="M20.0001 36.1406C28.9142 36.1406 36.1405 28.9142 36.1405 20.0001C36.1405 11.086 28.9142 3.85962 20.0001 3.85962C11.086 3.85962 3.85962 11.086 3.85962 20.0001C3.85962 28.9142 11.086 36.1406 20.0001 36.1406Z" fill="#473080"/>
<path d="M30.8516 23.8705C30.8516 23.7388 30.8477 23.6078 30.8408 23.4778C30.8406 23.4753 30.8403 23.4728 30.8402 23.4703C30.6323 19.6295 27.4527 16.5789 23.5598 16.5789C23.3 16.5789 23.0436 16.5931 22.7908 16.6195C22.7892 16.5334 22.788 16.4474 22.7834 16.362C22.7833 16.3595 22.783 16.357 22.7828 16.3545C22.7759 16.2266 22.7655 16.0997 22.752 15.9736C22.362 12.3141 19.2656 9.46313 15.5025 9.46313C11.7394 9.46313 8.64297 12.3138 8.25313 15.9733C8.23969 16.0994 8.22922 16.2264 8.22234 16.3542C8.22219 16.3567 8.22188 16.3592 8.22172 16.3617C8.21484 16.4917 8.21094 16.6225 8.21094 16.7542C8.21094 16.7542 8.21094 16.7542 8.21094 16.7544C8.21094 16.8802 8.21406 17.0053 8.22047 17.1295C8.22672 17.2538 8.23625 17.3774 8.24859 17.4999C8.29844 17.9902 8.39672 18.4659 8.53875 18.9227C8.60984 19.1511 8.69172 19.3745 8.78391 19.5927C8.87609 19.8108 8.97875 20.0234 9.09094 20.23C9.20234 20.435 9.32328 20.6339 9.45313 20.8264L8.36719 23.8702L11.4055 22.7861C11.4123 22.7908 11.4189 22.7959 11.4258 22.8006C12.5895 23.5869 13.9925 24.0459 15.5027 24.0459C15.7625 24.0459 16.0189 24.0319 16.2717 24.0053C16.2731 24.0855 16.2738 24.1658 16.2778 24.2453C16.2841 24.3695 16.2936 24.4931 16.3059 24.6156C16.3558 25.1059 16.4541 25.5817 16.5961 26.0384C16.8092 26.7234 17.1205 27.365 17.5136 27.947C17.6447 28.1409 17.7847 28.3283 17.9333 28.5084C18.0077 28.5984 18.0841 28.6867 18.1625 28.773C18.7902 29.4636 19.5486 30.0333 20.3988 30.4428C21.355 30.9036 22.4273 31.1619 23.56 31.1619C24.6927 31.1619 25.7648 30.9036 26.7213 30.4428C27.0477 30.2856 27.3602 30.1042 27.6572 29.902L30.6955 30.9861L29.6095 27.9424C30.0011 27.3617 30.3116 26.7217 30.5239 26.0386C30.6659 25.5819 30.7642 25.1061 30.8141 24.6158C30.8266 24.4933 30.8359 24.3697 30.8422 24.2455C30.8484 24.1214 30.8516 23.9963 30.8516 23.8705Z" fill="#382B73"/>
<path d="M15.5027 8.36926C11.4756 8.36926 8.21094 11.6339 8.21094 15.661C8.21094 17.1691 8.66891 18.5702 9.45313 19.733L8.36719 22.7768L11.4055 21.6927C12.5733 22.4875 13.9836 22.9525 15.5027 22.9525C19.5297 22.9525 22.7944 19.688 22.7944 15.6608C22.7942 11.6338 19.5297 8.36926 15.5027 8.36926Z" fill="white"/>
<path d="M22.752 14.8795C22.362 18.5392 19.2656 21.39 15.5025 21.39C11.7394 21.39 8.64297 18.5392 8.25313 14.8795C8.22578 15.1362 8.21094 15.3967 8.21094 15.6608C8.21094 17.7559 9.09594 19.6434 10.5109 20.9734L8.36719 22.7767L11.4053 21.6928L11.4052 21.6926C12.573 22.4875 13.9834 22.9527 15.5027 22.9527C19.5297 22.9527 22.7944 19.6881 22.7944 15.6609C22.7942 15.3969 22.7794 15.1364 22.752 14.8795Z" fill="#E6E7E8"/>
<path d="M15.402 18.2566C15.092 18.2566 14.9018 18.3941 14.797 18.5096C14.657 18.6633 14.5828 18.8583 14.5828 19.0735C14.5828 19.2889 14.659 19.4832 14.8031 19.6346C14.9078 19.7447 15.0965 19.8761 15.4018 19.8761C15.6985 19.8761 15.8876 19.7486 15.9939 19.6416C16.1456 19.4889 16.2257 19.2925 16.2257 19.0733C16.2257 18.8547 16.1479 18.6574 16.0006 18.5024C15.8475 18.3417 15.6404 18.2566 15.402 18.2566Z" fill="#E6E7E8"/>
<path d="M17.1204 12.5122C16.727 12.1153 16.1961 11.9141 15.5422 11.9141C14.91 11.9141 14.3762 12.1067 13.9554 12.4869C13.5237 12.8772 13.3009 13.3969 13.2932 14.0317V14.0319C13.2903 14.2747 13.4864 14.473 13.7292 14.473H14.2853C14.5231 14.473 14.717 14.2823 14.7211 14.0445C14.7253 13.8013 14.7954 13.6195 14.9353 13.4891C15.0818 13.3525 15.2803 13.2861 15.542 13.2861C15.7882 13.2861 15.9675 13.3498 16.0895 13.4809C16.22 13.6211 16.2834 13.8239 16.2834 14.1009C16.2834 14.2475 16.2659 14.3766 16.2315 14.4842C16.197 14.592 16.1478 14.6919 16.085 14.7811C16.0345 14.8527 15.899 15.0122 15.5398 15.3656C15.1864 15.7131 14.9576 16.0186 14.8404 16.2997C14.7245 16.5773 14.6645 16.92 14.6573 17.3469V17.347C14.6531 17.5906 14.8495 17.7905 15.0931 17.7905H15.6495C15.8903 17.7905 16.0854 17.5953 16.0854 17.3545V17.3544C16.0854 16.9167 16.2076 16.61 16.4723 16.387C16.9411 15.9564 17.2554 15.5803 17.4334 15.2375C17.6178 14.882 17.7114 14.4964 17.7114 14.0914C17.7117 13.4395 17.5128 12.9083 17.1204 12.5122Z" fill="#E6E7E8"/>
<path d="M15.402 17.9441C15.092 17.9441 14.9018 18.0816 14.797 18.1971C14.657 18.3508 14.5828 18.5458 14.5828 18.761C14.5828 18.9764 14.659 19.1707 14.8031 19.3221C14.9078 19.4322 15.0965 19.5636 15.4018 19.5636C15.6985 19.5636 15.8876 19.4361 15.9939 19.3291C16.1456 19.1764 16.2257 18.98 16.2257 18.7608C16.2257 18.5422 16.1479 18.3449 16.0006 18.1899C15.8475 18.0292 15.6404 17.9441 15.402 17.9441Z" fill="#EF5A9D"/>
<path d="M17.1204 12.1997C16.727 11.8028 16.1961 11.6016 15.5422 11.6016C14.91 11.6016 14.3762 11.7942 13.9554 12.1744C13.5237 12.5647 13.3009 13.0844 13.2932 13.7192V13.7194C13.2903 13.9622 13.4864 14.1605 13.7292 14.1605H14.2853C14.5231 14.1605 14.717 13.9698 14.7211 13.732C14.7253 13.4888 14.7954 13.307 14.9353 13.1766C15.0818 13.04 15.2803 12.9736 15.542 12.9736C15.7882 12.9736 15.9675 13.0373 16.0895 13.1684C16.22 13.3086 16.2834 13.5114 16.2834 13.7884C16.2834 13.935 16.2659 14.0641 16.2315 14.1717C16.197 14.2795 16.1478 14.3794 16.085 14.4686C16.0345 14.5402 15.899 14.6997 15.5398 15.0531C15.1864 15.4006 14.9576 15.7061 14.8404 15.9872C14.7245 16.2648 14.6645 16.6075 14.6573 17.0344V17.0345C14.6531 17.2781 14.8495 17.478 15.0931 17.478H15.6495C15.8903 17.478 16.0854 17.2828 16.0854 17.042V17.0419C16.0854 16.6042 16.2076 16.2975 16.4723 16.0745C16.9411 15.6439 17.2554 15.2678 17.4334 14.925C17.6178 14.5695 17.7114 14.1839 17.7114 13.7789C17.7117 13.127 17.5128 12.5958 17.1204 12.1997Z" fill="#EF5A9D"/>
<path d="M29.6093 26.8487C30.3937 25.6859 30.8515 24.2848 30.8515 22.7767C30.8515 18.7497 27.587 15.485 23.5598 15.485C19.5326 15.485 16.2681 18.7495 16.2681 22.7767C16.2681 26.8037 19.5326 30.0684 23.5598 30.0684C25.0788 30.0684 26.4892 29.6034 27.657 28.8086L30.6953 29.8926L29.6093 26.8487Z" fill="#1CAEE4"/>
<path d="M30.8515 22.7767C30.8515 22.5127 30.8367 22.2522 30.8093 21.9955C30.4193 25.655 27.3229 28.506 23.5598 28.506C19.7967 28.506 16.7003 25.6552 16.3103 21.9955C16.2829 22.2522 16.2681 22.5127 16.2681 22.7767C16.2681 26.8038 19.5326 30.0685 23.5598 30.0685C25.079 30.0685 26.4893 29.6035 27.6573 28.8085L27.6571 28.8086L30.6953 29.8925L28.5515 28.0892C29.9665 26.7592 30.8515 24.8719 30.8515 22.7767Z" fill="#009ADD"/>
<path d="M20.0051 23.9877C20.5013 23.9877 20.9036 23.5854 20.9036 23.0892C20.9036 22.593 20.5013 22.1908 20.0051 22.1908C19.5089 22.1908 19.1067 22.593 19.1067 23.0892C19.1067 23.5854 19.5089 23.9877 20.0051 23.9877Z" fill="#009ADD"/>
<path d="M23.5598 23.9877C24.056 23.9877 24.4583 23.5854 24.4583 23.0892C24.4583 22.593 24.056 22.1908 23.5598 22.1908C23.0636 22.1908 22.6614 22.593 22.6614 23.0892C22.6614 23.5854 23.0636 23.9877 23.5598 23.9877Z" fill="#009ADD"/>
<path d="M27.1145 23.9877C27.6107 23.9877 28.0129 23.5854 28.0129 23.0892C28.0129 22.593 27.6107 22.1908 27.1145 22.1908C26.6183 22.1908 26.2161 22.593 26.2161 23.0892C26.2161 23.5854 26.6183 23.9877 27.1145 23.9877Z" fill="#009ADD"/>
<path d="M20.0051 23.6752C20.5013 23.6752 20.9036 23.2729 20.9036 22.7767C20.9036 22.2805 20.5013 21.8783 20.0051 21.8783C19.5089 21.8783 19.1067 22.2805 19.1067 22.7767C19.1067 23.2729 19.5089 23.6752 20.0051 23.6752Z" fill="white"/>
<path d="M23.5598 23.6752C24.056 23.6752 24.4583 23.2729 24.4583 22.7767C24.4583 22.2805 24.056 21.8783 23.5598 21.8783C23.0636 21.8783 22.6614 22.2805 22.6614 22.7767C22.6614 23.2729 23.0636 23.6752 23.5598 23.6752Z" fill="white"/>
<path d="M27.1145 23.6752C27.6107 23.6752 28.0129 23.2729 28.0129 22.7767C28.0129 22.2805 27.6107 21.8783 27.1145 21.8783C26.6183 21.8783 26.2161 22.2805 26.2161 22.7767C26.2161 23.2729 26.6183 23.6752 27.1145 23.6752Z" fill="white"/>
</svg>
