<svg width="40" height="40" viewBox="0 0 40 40" fill="none" xmlns="http://www.w3.org/2000/svg">
<path d="M14.774 13.9921C14.1715 13.9921 13.759 13.936 13.7223 13.9311C13.2664 13.8671 12.949 13.4459 13.0125 12.9899C13.0765 12.5346 13.4971 12.2172 13.9524 12.2807C13.9768 12.2838 15.5393 12.4864 16.8784 11.9993C18.2425 11.5026 19.4875 10.2562 19.5004 10.2434C19.824 9.91682 20.3512 9.91377 20.6784 10.2367C21.0056 10.5602 21.0092 11.0869 20.6864 11.414C20.6254 11.4763 19.1709 12.9386 17.4486 13.5654C16.4975 13.9115 15.4985 13.9921 14.774 13.9921Z" fill="#967ADC"/>
<path d="M8.72685 7.86499C8.29169 7.86499 7.92552 7.52749 7.89622 7.08679C7.86513 6.6278 8.21294 6.23046 8.67192 6.19991C8.71771 6.19687 11.5863 5.99116 14.3279 4.99273C17.0861 3.98929 19.583 2.23335 19.608 2.21562C19.9839 1.95015 20.5039 2.03921 20.7694 2.4146C21.0355 2.78999 20.947 3.30999 20.5717 3.57609C20.4625 3.65296 17.8722 5.47671 14.898 6.55882C11.9177 7.64405 8.90935 7.8546 8.78302 7.86312C8.76403 7.86437 8.74513 7.86499 8.72685 7.86499Z" fill="#967ADC"/>
<path d="M23.4506 30.5902C23.3468 30.5902 23.2406 30.5706 23.1393 30.5291C22.712 30.3558 22.5058 29.8699 22.6779 29.4428C22.7096 29.3684 23.4384 27.591 24.8581 26.3997C26.2618 25.2217 28.2563 24.6931 28.3394 24.6712C28.7862 24.5552 29.2402 24.8213 29.3574 25.2681C29.4722 25.7125 29.206 26.1678 28.7593 26.2838C28.7446 26.2886 27.0406 26.7427 25.9298 27.6765C24.8422 28.5884 24.2294 30.0531 24.2233 30.0677C24.0914 30.3924 23.7802 30.5902 23.4506 30.5902Z" fill="#967ADC"/>
<path d="M26.1555 38.0522C25.9955 38.0522 25.8345 38.0071 25.6929 37.9118C25.3096 37.6555 25.207 37.1379 25.4634 36.7546C25.5341 36.6496 27.2211 34.1497 29.6502 32.1111C32.0745 30.0775 34.9505 28.7445 35.0701 28.6896C35.4887 28.4979 35.9832 28.681 36.176 29.0985C36.3689 29.5171 36.1845 30.0115 35.7659 30.2043C35.739 30.2165 32.9705 31.5007 30.7219 33.3879C28.471 35.2751 26.8646 37.6591 26.8475 37.6823C26.6876 37.9228 26.424 38.0522 26.1555 38.0522Z" fill="#967ADC"/>
<path d="M10.4904 19.714C10.2127 19.714 9.94113 19.5749 9.78301 19.3221C9.53949 18.9321 9.6573 18.4188 10.0467 18.1747C10.0601 18.1662 11.3931 17.316 12.1072 16.0781C12.8335 14.8215 12.9861 13.0655 12.9873 13.0478C13.0251 12.5895 13.4268 12.2483 13.8857 12.2855C14.3441 12.3233 14.6853 12.7243 14.6487 13.1827C14.6414 13.2693 14.4675 15.3237 13.5507 16.9118C12.6242 18.5163 11.0001 19.5436 10.9318 19.5869C10.7944 19.6725 10.6412 19.714 10.4904 19.714Z" fill="#967ADC"/>
<path d="M2.67031 18.3456C2.45117 18.3456 2.23265 18.2595 2.06913 18.0893C1.75054 17.7573 1.76148 17.2293 2.09351 16.9107C2.12828 16.8771 4.19187 14.8765 5.65054 12.3509C7.11781 9.80884 7.9021 6.85907 7.90999 6.82915C8.02718 6.38423 8.48249 6.11806 8.92742 6.2347C9.37234 6.35189 9.63843 6.80657 9.52187 7.25212C9.48828 7.38087 8.67593 10.443 7.0939 13.184C5.50765 15.9305 3.33851 18.0259 3.24695 18.1138C3.08593 18.2687 2.87781 18.3456 2.67031 18.3456Z" fill="#967ADC"/>
<path d="M28.5553 26.2886C28.205 26.2886 27.8778 26.0653 27.763 25.7125C27.7386 25.6368 27.1552 23.8057 27.4774 21.9808C27.7947 20.1749 28.9825 18.4891 29.0325 18.4182C29.2999 18.0429 29.8199 17.955 30.1947 18.2217C30.5706 18.4884 30.6586 19.0084 30.3912 19.3838C30.3827 19.3972 29.3695 20.8401 29.118 22.27C28.8702 23.6775 29.3451 25.185 29.35 25.1996C29.4891 25.6378 29.2499 26.1078 28.8116 26.2482C28.7274 26.2764 28.6395 26.2886 28.5553 26.2886Z" fill="#967ADC"/>
<path d="M35.424 30.2679C35.0041 30.2679 34.6428 29.9506 34.5976 29.5234C34.5842 29.3989 34.2692 26.3985 34.8198 23.276C35.3691 20.1584 36.7156 17.2904 36.7717 17.1702C36.9694 16.7539 37.4663 16.5763 37.8824 16.7735C38.2974 16.97 38.4757 17.4668 38.2779 17.8831C38.2657 17.9106 36.9707 20.6742 36.4616 23.564C35.9525 26.4473 36.2516 29.3159 36.2541 29.3452C36.3029 29.8017 35.9733 30.213 35.5143 30.2631C35.485 30.2654 35.4545 30.2679 35.424 30.2679Z" fill="#967ADC"/>
<path d="M11.6375 26.2898C11.5521 26.2898 11.4654 26.2764 11.38 26.2495C10.943 26.1067 10.7031 25.6367 10.8441 25.1996C10.8489 25.1849 11.3238 23.6774 11.0754 22.27C10.8649 21.075 10.0848 19.7811 9.80222 19.3838C9.5355 19.0084 9.62339 18.4884 9.99816 18.2217C10.3735 17.955 10.8935 18.0429 11.1603 18.4182C11.2109 18.489 12.3981 20.1748 12.7166 21.9808C13.0382 23.8057 12.4548 25.6367 12.4298 25.7124C12.3157 26.0664 11.9885 26.2898 11.6375 26.2898Z" fill="#967ADC"/>
<path d="M4.76882 30.2679C4.7389 30.2679 4.70843 30.2655 4.67788 30.2631C4.22069 30.213 3.88991 29.8016 3.93936 29.3452C3.94241 29.3159 4.24085 26.4473 3.73249 23.564C3.22163 20.6662 1.92773 17.9105 1.91491 17.883C1.7178 17.4668 1.89538 16.9699 2.31163 16.7734C2.72788 16.5763 3.22476 16.7539 3.42132 17.1702C3.47866 17.2904 4.82444 20.1584 5.37374 23.2759C5.92491 26.3984 5.60991 29.3976 5.59655 29.5234C5.55007 29.9505 5.18874 30.2679 4.76882 30.2679Z" fill="#967ADC"/>
<path d="M29.7028 19.7139C29.5514 19.7139 29.3988 19.673 29.2621 19.5869C29.1937 19.5436 27.569 18.5164 26.6425 16.9119C25.7259 15.3237 25.5513 13.2694 25.544 13.1827C25.5073 12.7237 25.8491 12.3221 26.308 12.2849C26.767 12.2483 27.1698 12.5901 27.2064 13.0491C27.2064 13.0655 27.3603 14.8216 28.0853 16.0787C28.7957 17.3074 30.1312 18.1655 30.1458 18.1741C30.5352 18.4175 30.6536 18.932 30.4095 19.322C30.2522 19.5748 29.9799 19.7139 29.7028 19.7139Z" fill="#967ADC"/>
<path d="M37.5227 18.3455C37.3163 18.3455 37.1077 18.2686 36.9465 18.1136C36.8549 18.0257 34.6857 15.9304 33.1002 13.1838C31.5181 10.4428 30.7052 7.3808 30.6709 7.25197C30.555 6.80642 30.8211 6.35111 31.2666 6.23455C31.711 6.11799 32.1675 6.38408 32.2835 6.82963C32.292 6.8583 33.0758 9.80869 34.543 12.3507C36.0066 14.8855 38.0805 16.891 38.1 16.9112C38.432 17.2298 38.443 17.7571 38.1244 18.0892C37.9608 18.2595 37.7412 18.3455 37.5227 18.3455Z" fill="#967ADC"/>
<path d="M16.7431 30.5902C16.4141 30.5902 16.1022 30.3925 15.9703 30.0702C15.9575 30.0385 15.3527 28.5908 14.2645 27.6765C13.3349 26.8966 11.9061 26.407 11.4337 26.2838C10.9881 26.1678 10.7214 25.7125 10.8374 25.2681C10.9534 24.8213 11.4081 24.5552 11.8536 24.6712C11.9378 24.6931 13.9312 25.2217 15.3356 26.3997C16.7552 27.591 17.4846 29.3684 17.5151 29.4428C17.6878 29.87 17.4815 30.3559 17.0549 30.5292C16.9531 30.5707 16.8468 30.5902 16.7431 30.5902Z" fill="#967ADC"/>
<path d="M14.038 38.0536C13.7694 38.0536 13.5064 37.9229 13.3453 37.6825C13.3294 37.6593 11.7139 35.2704 9.47207 33.3881C7.21684 31.496 4.4545 30.2167 4.427 30.2045C4.00887 30.0116 3.8252 29.5173 4.01746 29.0986C4.20973 28.6811 4.70473 28.498 5.12278 28.6897C5.24356 28.7446 8.11833 30.0776 10.5432 32.1113C12.9723 34.1499 14.6593 36.6498 14.7301 36.7548C14.9858 37.1381 14.8833 37.6557 14.5012 37.912C14.359 38.0071 14.1979 38.0536 14.038 38.0536Z" fill="#967ADC"/>
<path d="M25.4194 13.992C24.6944 13.992 23.6958 13.9115 22.7461 13.5654C21.0225 12.9379 19.5681 11.4762 19.5071 11.4139C19.1842 11.0862 19.1879 10.5589 19.5156 10.2354C19.8433 9.91246 20.3707 9.91613 20.6941 10.2439C20.7057 10.2554 21.9514 11.5024 23.3149 11.9992C24.6491 12.4844 26.225 12.2824 26.2397 12.2806C26.6962 12.2165 27.1161 12.5345 27.1808 12.9904C27.2443 13.4457 26.9269 13.8675 26.4716 13.931C26.435 13.9365 26.0224 13.992 25.4194 13.992Z" fill="#967ADC"/>
<path d="M31.466 7.86485C31.4477 7.86485 31.4293 7.86422 31.4098 7.86305C31.2828 7.85454 28.275 7.64391 25.2942 6.5593C22.3206 5.47665 19.7304 3.6529 19.6211 3.57594C19.2457 3.30985 19.1572 2.78985 19.4234 2.41383C19.6895 2.03844 20.2095 1.94993 20.5849 2.2161C20.6099 2.23321 23.1067 3.98915 25.8656 4.99321C28.6242 5.99719 31.4928 6.19797 31.521 6.19977C31.98 6.23032 32.3278 6.62766 32.2961 7.08665C32.2667 7.52735 31.9006 7.86485 31.466 7.86485Z" fill="#967ADC"/>
<path d="M16.7619 30.6024C16.45 30.6024 16.151 30.4266 16.0087 30.1263C15.811 29.7089 15.9879 29.2132 16.4036 29.0155C16.4824 28.9789 18.3488 28.1012 20.1822 28.1012C22.0358 28.1012 23.7374 28.9935 23.8082 29.0326C24.2147 29.2474 24.3698 29.7528 24.1537 30.158C23.9376 30.5657 23.4347 30.7196 23.027 30.5047C23.005 30.4925 21.606 29.7674 20.1822 29.7674C18.9695 29.7674 17.5596 30.3118 17.1189 30.5206C17.0036 30.5755 16.8815 30.6024 16.7619 30.6024Z" fill="#967ADC"/>
<path d="M26.1421 38.0584C26.0664 38.0584 25.9883 38.0462 25.9103 38.0242C25.8639 38.0107 23.099 37.2234 20.1822 37.2234C17.2477 37.2234 14.3004 38.0193 14.2711 38.0278C13.8274 38.1487 13.3684 37.8875 13.2475 37.4432C13.1261 37 13.3873 36.5423 13.8311 36.4202C13.9593 36.386 17.0171 35.5585 20.1822 35.5585C23.3542 35.5572 26.252 36.3885 26.3741 36.4239C26.816 36.5521 27.0711 37.0146 26.9429 37.4566C26.8368 37.8216 26.5035 38.0584 26.1421 38.0584Z" fill="#967ADC"/>
<path d="M22.4875 7.93999C22.5669 8.39288 22.2653 8.82491 21.8113 8.90491C21.3572 8.98484 20.9257 8.68273 20.8458 8.22937C20.7659 7.77585 21.0686 7.34374 21.522 7.26382C21.9748 7.18374 22.407 7.48648 22.4875 7.93999Z" fill="#434A54"/>
<path d="M13.3335 8.08459C13.3335 8.54482 12.96 8.91764 12.4999 8.91764C12.0396 8.91764 11.6667 8.54482 11.6667 8.08459C11.6667 7.62436 12.0396 7.25146 12.4999 7.25146C12.96 7.25146 13.3335 7.62443 13.3335 8.08459Z" fill="#434A54"/>
<path d="M34.9995 26.4179C34.9995 26.8769 34.6259 27.2503 34.167 27.2503C33.7055 27.2503 33.332 26.8769 33.332 26.4179C33.332 25.9565 33.7055 25.5829 34.167 25.5829C34.6259 25.583 34.9995 25.9565 34.9995 26.4179Z" fill="#434A54"/>
<path d="M31.6206 14.7508C31.6206 15.2111 31.2471 15.5845 30.7881 15.5845C30.3267 15.5845 29.9543 15.2111 29.9543 14.7508C29.9543 14.2906 30.3267 13.9177 30.7881 13.9177C31.2471 13.9176 31.6206 14.2906 31.6206 14.7508Z" fill="#434A54"/>
<path d="M11.4732 29.7625C11.5531 30.2166 11.2504 30.6487 10.7969 30.7293C10.3434 30.8087 9.91132 30.5059 9.8314 30.053C9.75148 29.599 10.0542 29.1669 10.5077 29.0876C10.9611 29.0083 11.3932 29.3109 11.4732 29.7625Z" fill="#434A54"/>
<path d="M24.1538 32.9386C24.2332 33.3927 23.9304 33.8249 23.4787 33.9042C23.0246 33.9836 22.5925 33.6808 22.5119 33.2291C22.4325 32.775 22.7353 32.3429 23.1882 32.2624C23.6423 32.183 24.0744 32.4858 24.1538 32.9386Z" fill="#434A54"/>
<path d="M16.6537 17.9397C16.7337 18.3926 16.4309 18.8247 15.9781 18.9047C15.5247 18.9846 15.0926 18.6819 15.0126 18.2291C14.9326 17.7756 15.2354 17.3435 15.6888 17.2636C16.1417 17.1835 16.5738 17.4862 16.6537 17.9397Z" fill="#434A54"/>
<path d="M8.31046 19.5692C8.39039 20.0221 8.08773 20.4543 7.63484 20.5343C7.18132 20.6142 6.74921 20.3114 6.66929 19.8586C6.58937 19.4051 6.8921 18.973 7.34554 18.8931C7.79843 18.8131 8.23054 19.1158 8.31046 19.5692Z" fill="#434A54"/>
<path d="M36.8537 31.1504C36.7122 31.1504 36.5693 31.115 36.4375 31.0393L19.583 21.308C19.1844 21.078 19.0483 20.5684 19.2784 20.1698C19.5086 19.7713 20.0181 19.6345 20.4167 19.8647L37.2712 29.5953C37.6704 29.8259 37.8059 30.335 37.5752 30.7341C37.4213 31.0002 37.1405 31.1504 36.8537 31.1504Z" fill="#AC92EB"/>
<path d="M20.001 21.4204C19.9528 21.4204 19.904 21.4156 19.8552 21.407L0.689314 18.0276C0.235798 17.9477 -0.0669363 17.5155 0.0130637 17.0621C0.0929856 16.6092 0.52572 16.3065 0.978611 16.3865L20.1445 19.7659C20.598 19.8458 20.9007 20.278 20.8207 20.7315C20.7493 21.1355 20.3978 21.4204 20.001 21.4204Z" fill="#AC92EB"/>
<path d="M19.9992 21.4205C19.6019 21.4205 19.2503 21.1356 19.1789 20.7309C19.0995 20.278 19.4017 19.8459 19.8552 19.7659L39.0204 16.3865C39.4745 16.3065 39.9066 16.6093 39.9871 17.0621C40.0665 17.5156 39.7638 17.9477 39.3109 18.0276L20.1445 21.407C20.0956 21.4156 20.0468 21.4205 19.9992 21.4205Z" fill="#AC92EB"/>
<path d="M3.14639 31.1505C2.85826 31.1505 2.57818 31.0003 2.42373 30.7342C2.19365 30.3351 2.33037 29.826 2.72889 29.5954L19.5828 19.8648C19.9819 19.6347 20.4915 19.7714 20.7217 20.1699C20.9519 20.5684 20.8151 21.0781 20.4165 21.3081L3.56209 31.0394C3.43092 31.115 3.28748 31.1505 3.14639 31.1505Z" fill="#AC92EB"/>
<path d="M19.999 21.4205C19.8104 21.4205 19.62 21.3558 19.4644 21.2246C19.1115 20.9293 19.0652 20.4031 19.3612 20.051L31.8719 5.14224C32.1673 4.78943 32.6922 4.74365 33.0451 5.03974C33.3978 5.33513 33.4441 5.86123 33.1488 6.21334L20.638 21.1221C20.4733 21.3179 20.237 21.4205 19.999 21.4205Z" fill="#AC92EB"/>
<path d="M13.3433 39.7086C13.2487 39.7086 13.1522 39.6915 13.0583 39.6573C12.6262 39.4998 12.4028 39.0226 12.5602 38.5893L19.2166 20.3017C19.3741 19.869 19.8526 19.6462 20.2846 19.803C20.7173 19.9605 20.9401 20.439 20.7826 20.8712L14.1263 39.1593C14.003 39.4987 13.6838 39.7086 13.3433 39.7086Z" fill="#AC92EB"/>
<path d="M19.9996 21.4205C19.5395 21.4205 19.1665 21.0464 19.1665 20.5862V1.12431C19.1665 0.664072 19.5394 0.29126 19.9996 0.29126C20.4599 0.29126 20.8328 0.664072 20.8328 1.12431V20.5862C20.8328 21.0464 20.4599 21.4205 19.9996 21.4205Z" fill="#AC92EB"/>
<path d="M26.6561 39.7086C26.3156 39.7086 25.9957 39.4974 25.8737 39.1593L19.2167 20.8712C19.0592 20.439 19.2827 19.9605 19.7148 19.803C20.1475 19.6462 20.6254 19.869 20.7828 20.3017L27.4385 38.5893C27.5971 39.0226 27.3738 39.4998 26.9405 39.6573C26.8478 39.6916 26.7501 39.7086 26.6561 39.7086Z" fill="#AC92EB"/>
<path d="M20.0002 21.4205C19.7622 21.4205 19.526 21.318 19.3612 21.1221L6.8517 6.21328C6.55568 5.86109 6.60146 5.33508 6.9542 5.03968C7.30701 4.74367 7.83248 4.78945 8.12849 5.14218L20.6379 20.0509C20.934 20.403 20.8875 20.9291 20.5354 21.2245C20.3792 21.3557 20.1888 21.4205 20.0002 21.4205Z" fill="#AC92EB"/>
</svg>
