<svg width="48" height="48" viewBox="0 0 48 48" fill="none" xmlns="http://www.w3.org/2000/svg">
<path d="M23.7584 6.35785C26.3161 4.80612 29.6874 4.501 32.324 5.91436C33.4695 6.52839 34.441 7.42988 35.2716 8.4295C36.4118 9.80166 37.3393 11.5101 37.1598 13.2851C37.0758 14.1159 36.7538 14.9037 36.3898 15.6551C35.6196 17.2446 34.6435 18.7341 33.4935 20.0745C35.0892 20.2194 35.9839 21.9018 37.0175 23.1261C37.5902 23.8044 38.2857 24.399 38.6845 25.1921C39.5528 26.9194 38.6567 29.1779 37.0254 30.2155C35.3942 31.2531 33.2624 31.2339 31.4324 30.6104C29.5052 29.9539 27.8117 28.6906 25.8424 28.1736C26.2179 29.3448 26.5981 30.5668 26.4186 31.7835C26.2624 32.8428 25.6949 33.7932 25.0926 34.6787C24.1302 36.0937 23.0475 37.4267 21.86 38.6587C21.1164 39.4302 20.265 40.1966 19.2082 40.3733C17.4989 40.659 15.8814 39.226 15.3408 37.5794C14.8003 35.9327 15.0641 34.1437 15.3333 32.4316C12.966 33.52 10.1852 34.6094 7.8612 33.4316C6.22408 32.6019 5.28139 30.8329 4.73533 29.0806C3.57605 25.3601 3.82174 21.1092 5.89509 17.8098C6.41672 16.9796 7.05671 16.2071 7.86934 15.6587C9.16175 14.7866 10.7994 14.5488 12.352 14.6924C13.9045 14.8359 15.3999 15.3309 16.8796 15.8225C16.5612 15.7167 18.2523 13.4936 18.4062 13.2941C18.952 12.5866 19.1905 11.7187 19.6012 10.9299C20.563 9.08248 21.9683 7.44391 23.7584 6.35785Z" fill="#F68F8D"/>
<path d="M14.7543 4.48194C14.5578 4.94019 14.5654 5.49439 14.8249 5.92013C15.1864 6.51328 15.9409 6.74954 16.6354 6.75631C17.0403 6.76026 17.4588 6.69777 17.8016 6.4824C20.0797 5.05057 16.1757 1.16779 14.7543 4.48194Z" fill="#F6C11E"/>
<path d="M7.38481 8.98019C7.28418 9.57189 7.69622 10.1747 8.24986 10.4064C8.80358 10.6381 9.45276 10.5466 9.99188 10.2828C10.4417 10.0626 10.8706 9.64583 10.8319 9.14654C10.8131 8.9052 10.6872 8.68717 10.5643 8.47857C10.1596 7.79132 9.89415 6.95046 8.98645 7.26381C8.34581 7.48499 7.50093 8.29762 7.38481 8.98019Z" fill="#F6C11E"/>
<path d="M19.8334 21.7948C21.2682 24.3058 23.2324 26.4662 25.1799 28.6041C25.4514 28.9022 25.9185 29.213 26.2052 28.9295C26.4031 28.7338 26.329 28.4044 26.241 28.1404C25.545 26.0502 24.8489 23.96 24.1529 21.8698C23.4048 19.6235 22.6357 17.3356 21.2295 15.4309C20.7391 14.7665 19.7127 13.4425 18.8014 13.3761C17.8233 13.3049 17.8091 14.585 17.8288 15.2772C17.8942 17.5714 18.7038 19.8179 19.8334 21.7948Z" fill="#4E3B31"/>
<path d="M41.6076 13.5308C41.4 13.8501 41.4542 14.2876 41.652 14.613C41.8498 14.9385 42.1672 15.1719 42.4894 15.3748C43.7512 16.169 45.2227 16.6268 46.7123 16.6884C45.2692 17.3231 43.9296 18.1922 42.7619 19.2512C42.4599 19.5252 42.1658 19.816 41.9572 20.1665C41.444 21.0286 41.52 22.1044 41.6121 23.1035C41.0331 22.3881 40.7106 21.5054 40.2805 20.6917C39.8957 19.9636 39.3758 19.236 38.6114 18.8742C37.7657 18.4738 37.4636 18.4009 38.3315 17.5965C38.992 16.9844 39.6856 16.4793 40.2588 15.7689C40.8242 15.068 41.1275 14.2691 41.6076 13.5308Z" fill="#F6C11E"/>
<path d="M30.3196 33.056C31.0263 34.1731 32.1291 35.0337 33.3843 35.448C34.004 35.6525 34.7224 35.7393 35.2792 35.3989C34.2805 35.6049 33.3886 36.2779 32.9164 37.1816C32.4442 38.0854 32.4012 39.2019 32.8025 40.1393C32.0596 38.404 30.6627 37.5501 28.9424 37.0039C27.9093 36.6759 28.3653 36.2984 29.0054 35.6999C29.7629 34.9915 30.1191 34.0573 30.3196 33.056Z" fill="#F6C11E"/>
<path d="M38.491 40.5132C39.2159 40.0972 39.8583 39.4812 40.1405 38.6945C40.4588 37.8075 40.2914 36.8081 40.5745 35.9092C40.5652 37.0025 40.7578 38.0972 41.1398 39.1217C41.4226 39.8803 41.824 40.6194 42.4493 41.1336C43.0746 41.6478 43.9568 41.9013 44.7179 41.6251C43.4226 41.5678 42.1123 42.0763 41.1947 42.9922C40.2771 43.9081 39.7663 45.2175 39.8213 46.5128C39.9445 45.3675 40.0223 44.0705 39.2548 43.2114C38.9414 42.8606 38.519 42.6277 38.0952 42.4235C36.7269 41.7644 35.1627 41.3305 33.6906 41.7043C35.251 41.5556 37.1156 41.3026 38.491 40.5132Z" fill="#F6C11E"/>
<path d="M16.6765 6.69168C16.3147 6.69168 15.9642 6.63306 15.6218 6.57589L15.5656 6.56646C15.3414 6.52912 15.1671 6.42212 15.0473 6.24868C14.7534 5.82293 14.8969 5.10593 14.9657 4.76138C15.1301 3.93995 15.6622 3.41156 16.4259 3.31157C17.247 3.20376 18.1397 3.62637 18.4583 4.27297C18.603 4.56664 18.7478 5.15737 18.0914 5.81381C18.0164 5.8888 17.9465 5.98347 17.8725 6.0837C17.695 6.32423 17.4938 6.59677 17.1552 6.65346C16.9934 6.68055 16.8338 6.69168 16.6765 6.69168ZM16.6855 3.69797C16.616 3.69797 16.5467 3.70232 16.4783 3.71128C16.1365 3.75603 15.5368 3.96229 15.3612 4.8404C15.3076 5.10794 15.1823 5.73439 15.3791 6.01959C15.4361 6.10208 15.5164 6.1495 15.6318 6.16877L15.6883 6.1782C16.1681 6.25835 16.6212 6.33415 17.0887 6.25577C17.2663 6.2261 17.4032 6.04064 17.5481 5.84421C17.6276 5.73641 17.71 5.62497 17.8062 5.52869C18.1662 5.16866 18.2666 4.79605 18.0967 4.45109C17.8794 4.01011 17.2754 3.69797 16.6855 3.69797Z" fill="#231F20"/>
<path d="M32.4612 40.6137C32.4314 40.6137 32.4014 40.6078 32.3724 40.5958C32.2473 40.544 32.1618 40.4115 32.0424 39.8313C32.0352 39.7963 32.0279 39.7601 32.0209 39.7236C31.6151 39.1735 30.9223 38.4407 30.719 38.3053C30.5231 38.1746 30.3534 37.978 30.1894 37.7879C29.9686 37.5321 29.7403 37.2676 29.4763 37.2016C29.2896 37.1549 29.0234 37.1261 28.7416 37.0956C28.0788 37.0237 27.3934 36.9495 27.1422 36.6018C27.0373 36.4566 27.0566 36.3408 27.0913 36.2692C27.1874 36.071 27.4498 36.0598 27.847 36.0429C28.1764 36.0289 28.5863 36.0114 28.8123 35.8757C29.3372 35.5608 30.0705 34.1205 30.3836 33.5054C30.5689 33.1415 30.58 33.1197 30.6538 33.0829C30.8972 32.9615 31.0302 33.1566 31.8469 34.5675C32.082 34.9738 32.3747 35.4794 32.4531 35.5579C32.6901 35.7948 33.3421 35.8578 33.7956 35.803C33.9678 35.6373 34.1364 35.513 34.2939 35.4477C34.5554 35.3396 34.7981 35.3786 34.9773 35.558C35.0286 35.6092 35.0485 35.6847 35.0293 35.7546C34.9971 35.8715 34.9621 35.8829 34.5324 36.0227C34.3639 36.0776 34.1502 36.1447 34.1006 36.1572C34.0636 36.1664 34.0221 36.1751 33.977 36.1828C33.2217 36.9733 32.3465 38.7012 32.3382 39.1754C32.3443 39.238 32.3689 39.3932 32.4016 39.5681C32.5801 39.826 32.7065 40.0653 32.7239 40.2406C32.7392 40.3955 32.6798 40.4906 32.6273 40.5431C32.5808 40.5894 32.5217 40.6137 32.4612 40.6137ZM27.591 36.4608C27.8468 36.5931 28.3779 36.6506 28.785 36.6947C29.0809 36.7268 29.3606 36.757 29.5741 36.8105C29.9621 36.9074 30.245 37.2352 30.4946 37.5244C30.6477 37.7019 30.7925 37.8696 30.9427 37.9697C31.042 38.0359 31.5203 38.4909 31.9564 38.9994C32.0814 38.3793 32.7313 37.08 33.4173 36.223C32.9631 36.2173 32.4468 36.1217 32.168 35.8428C32.0575 35.7324 31.8519 35.3809 31.4978 34.7693C31.2788 34.3907 30.9734 33.8631 30.7899 33.5959C30.7746 33.626 30.7586 33.6572 30.7429 33.6882C30.3861 34.3888 29.6439 35.8468 29.0197 36.2213C28.7058 36.4097 28.2392 36.4296 27.8641 36.4456C27.7788 36.4493 27.6772 36.4536 27.591 36.4608Z" fill="#231F20"/>
<path d="M41.4845 23.6539C41.4719 23.6539 41.4593 23.653 41.4465 23.6512C41.2635 23.6257 41.1531 23.4278 41.0556 23.2531C41.0412 23.2272 41.0278 23.2031 41.0158 23.1831C40.6832 22.6286 40.4884 22.0036 40.3001 21.3992C40.1104 20.7902 39.9313 20.2151 39.6231 19.7014C39.22 19.0294 37.8227 18.4759 36.9564 18.5793C36.1279 18.9349 36.0481 18.8856 35.9572 18.8295C35.8911 18.7887 35.8517 18.7179 35.8517 18.6403C35.8517 18.334 36.1776 18.3115 36.3343 18.3008C36.3945 18.2967 36.4693 18.2915 36.5007 18.279C36.604 18.2376 36.7185 18.2084 36.841 18.1903C37.3233 17.9816 37.9239 17.6973 38.3132 17.5025C39.8838 16.7172 40.3123 15.7244 40.9056 14.3503C40.9926 14.149 41.0823 13.9411 41.179 13.7266V13.7265C41.2603 13.5462 41.3823 13.5401 41.4477 13.5527C41.6409 13.5895 41.6493 13.7692 41.668 14.1628C41.6773 14.3613 41.6901 14.633 41.7281 14.7467C41.9089 15.2893 42.3088 15.8297 42.8844 16.3094C43.2985 16.6544 44.1186 16.7687 44.7173 16.8521L44.8729 16.874C45.013 16.8939 45.1938 16.8865 45.3686 16.8792C45.459 16.8755 45.5469 16.872 45.6277 16.872C45.6512 16.872 45.7128 16.8627 45.7577 16.856C45.9298 16.8302 46.0921 16.8057 46.1683 16.9567C46.2023 17.024 46.2069 17.1275 46.1183 17.2161C45.6134 17.7211 44.9436 17.9509 44.296 18.173C43.5241 18.4378 42.7949 18.6879 42.31 19.3666C41.7254 20.1852 41.4389 21.2299 41.5622 22.0934C41.5658 22.1183 41.5769 22.1815 41.5919 22.2671C41.7993 23.4501 41.7691 23.4804 41.6793 23.5701C41.6246 23.6249 41.5565 23.6539 41.4845 23.6539ZM37.745 18.2232C38.6396 18.3856 39.6052 18.8878 39.9689 19.494C40.3019 20.049 40.4967 20.6744 40.6852 21.2793C40.857 21.8309 41.0201 22.3547 41.2784 22.83C41.247 22.6343 41.2128 22.4388 41.1949 22.3368C41.1787 22.2449 41.167 22.1771 41.1631 22.1504C41.0257 21.1884 41.3395 20.032 41.982 19.1324C42.5419 18.3485 43.3672 18.0654 44.1653 17.7918C44.5992 17.6429 45.0166 17.4997 45.3777 17.2826C45.187 17.2905 44.9903 17.2981 44.816 17.2733L44.6617 17.2516C44.0149 17.1615 43.1289 17.0381 42.6263 16.6193C41.993 16.0915 41.5501 15.4881 41.3457 14.8743C41.3126 14.7752 41.2947 14.6405 41.2831 14.4931C41.2807 14.4988 41.2782 14.5046 41.2757 14.5102C40.6723 15.9081 40.1956 17.0122 38.4936 17.8631C38.4897 17.8651 38.1625 18.0275 37.745 18.2232Z" fill="#231F20"/>
<path d="M17.6878 13.3585C17.6138 13.3585 17.5426 13.3176 17.5073 13.247C16.8472 11.9269 16.7027 8.02191 16.7027 6.62871C16.7027 6.51735 16.7929 6.42712 16.9043 6.42712C17.0156 6.42712 17.1058 6.51735 17.1058 6.62871C17.1058 7.90354 17.2458 11.8226 17.8679 13.0667C17.9177 13.1663 17.8773 13.2874 17.7778 13.3372C17.7488 13.3516 17.718 13.3585 17.6878 13.3585Z" fill="#231F20"/>
<path d="M9.14233 10.7831C8.71207 10.7831 8.28801 10.6671 8.03619 10.3146C7.55368 9.63914 7.56521 8.57485 8.06183 7.94219C8.45904 7.43621 9.07605 7.30164 9.75483 7.57313C10.1027 7.71231 10.3587 8.25618 10.6062 8.78216C10.699 8.97915 10.8313 9.26024 10.9188 9.37958C10.9773 9.33757 11.0565 9.30427 11.1477 9.34346C11.2253 9.37668 11.2747 9.4536 11.2737 9.53932C11.2711 9.75082 10.7322 10.3767 10.2771 10.5587C10.0004 10.6693 9.5684 10.7831 9.14233 10.7831ZM9.09097 7.83713C8.74481 7.83713 8.51895 8.01275 8.37889 8.19119C7.99176 8.68435 7.98499 9.54948 8.36413 10.0803C8.69175 10.5388 9.61945 10.3875 10.1273 10.1844C10.3377 10.1002 10.552 9.9004 10.6984 9.73244C10.5541 9.60713 10.4276 9.34942 10.2414 8.95391C10.0678 8.58509 9.80547 8.02775 9.60501 7.9476C9.4098 7.86938 9.23934 7.83713 9.09097 7.83713Z" fill="#231F20"/>
<path d="M17.4661 41.6418C16.8389 41.6418 16.2707 41.4545 15.8765 40.9618C14.457 39.1873 14.6853 36.0026 14.7891 35.0688C14.8066 34.9114 14.8453 34.7223 14.8903 34.5033C15.0063 33.9382 15.1638 33.1708 14.9386 32.8091C14.9071 32.814 14.8613 32.8267 14.8333 32.8344C14.8137 32.8398 14.7948 32.845 14.7771 32.8495C14.593 32.8955 14.4098 32.946 14.2326 32.9948C13.4338 33.2148 12.6793 33.4227 11.7404 33.2887C9.97559 33.0365 8.12141 32.1342 6.6533 30.8131C5.07916 29.3965 4.10453 27.647 3.90891 25.887C3.64104 23.4763 3.99793 21.1439 4.91377 19.3198C5.95194 17.252 7.6734 15.866 9.89206 15.3113C10.447 15.1726 12.1521 14.8612 13.8806 14.7847C16.0178 14.6898 17.2799 14.9981 17.6309 15.7C17.6808 15.7996 17.6404 15.9207 17.5408 15.9704C17.4414 16.0203 17.3202 15.98 17.2703 15.8803C16.6493 14.6384 11.5307 15.3171 9.98979 15.7024C5.10133 16.9245 3.87464 21.9286 4.30958 25.8424C4.71324 29.4756 8.50716 32.4194 11.7974 32.8895C12.6532 33.0119 13.3682 32.8147 14.1254 32.606C14.3049 32.5566 14.4905 32.5054 14.6794 32.4582C14.6941 32.4546 14.7096 32.4502 14.7256 32.4458C14.8549 32.41 15.0954 32.3433 15.2375 32.5327C15.6055 33.0234 15.4279 33.8888 15.2852 34.5842C15.2441 34.7848 15.2051 34.9742 15.1897 35.1132C15.0902 36.0081 14.8686 39.0564 16.1912 40.7098C17.2017 41.9728 19.7952 40.6679 20.7092 40.0587C21.081 39.8108 21.4846 39.584 21.9119 39.3439C22.9132 38.7812 23.9486 38.1993 24.5739 37.3239C25.6239 35.854 25.5836 32.4902 25.5569 30.2644C25.553 29.9425 25.5495 29.6438 25.5495 29.3772C25.5495 29.2658 25.6397 29.1756 25.7511 29.1756C25.8624 29.1756 25.9526 29.2658 25.9526 29.3772C25.9526 29.6425 25.9562 29.9395 25.9601 30.2596C25.9873 32.538 26.0286 35.9811 24.902 37.5583C24.2246 38.5068 23.1493 39.111 22.1094 39.6954C21.689 39.9317 21.2919 40.1548 20.9329 40.3942C20.1135 40.9406 18.6795 41.6417 17.4661 41.6418Z" fill="#231F20"/>
<path d="M26.2591 29.6556C26.2112 29.6556 26.1697 29.6456 26.1471 29.6401C26.1396 29.6383 26.1321 29.6362 26.125 29.635C25.0751 29.6304 23.7288 28.3446 22.7453 27.4053C22.4531 27.1263 22.2008 26.8853 21.9977 26.716C21.4721 26.278 21.2303 25.7054 20.9965 25.1517C20.8902 24.9 20.7803 24.6397 20.6448 24.3959C19.128 21.6657 16.8359 17.5396 17.3136 13.9571C17.3827 13.4394 17.641 13.263 17.8455 13.2062C19.0187 12.8802 21.3906 15.7003 21.4137 15.7291C24.2048 19.2181 25.767 22.6787 26.3301 26.6198C26.3436 26.7143 26.3715 26.8601 26.4038 27.0289C26.6009 28.0585 26.7685 29.101 26.4723 29.5453C26.4133 29.6341 26.3293 29.6556 26.2591 29.6556ZM26.1303 29.635C26.1304 29.635 26.1305 29.635 26.1306 29.635C26.1305 29.635 26.1304 29.635 26.1303 29.635ZM26.2665 29.2538H26.2673H26.2665ZM17.7134 14.0104C17.2532 17.4605 19.5063 21.5163 20.9973 24.2002C21.1433 24.4629 21.2575 24.7333 21.3679 24.9949C21.593 25.5277 21.8055 26.031 22.2558 26.4062C22.4694 26.5843 22.7263 26.8297 23.0238 27.1137C23.9597 28.0076 25.2415 29.2318 26.1306 29.2318C26.1475 29.2318 26.1636 29.2332 26.1787 29.2353C26.3328 28.8014 26.1161 27.6694 26.008 27.1045C25.9747 26.9308 25.946 26.7806 25.931 26.6766C25.3786 22.8099 23.8432 19.4112 21.0989 15.9809C20.3465 15.0405 18.5806 13.4198 17.9536 13.5946C17.9062 13.6079 17.7617 13.648 17.7134 14.0104Z" fill="#231F20"/>
<path d="M39.5348 45.9988C39.5054 45.9988 39.4757 45.9923 39.4475 45.9789C39.3533 45.9336 39.3094 45.8239 39.3463 45.7261C39.3637 45.6799 39.4554 45.4433 39.5515 45.3231C39.5767 45.2917 39.5998 45.2596 39.6211 45.2267C39.6527 45.1669 39.6852 45.1038 39.7178 45.039C39.8149 44.7937 39.8291 44.4946 39.7706 44.0848C39.5403 42.4735 38.2133 41.2114 36.7496 41.2114C36.5325 41.2114 36.5036 41.075 36.5011 41.0163C36.4932 40.8206 36.6691 40.8063 36.8244 40.7936C36.9837 40.7806 37.2802 40.7564 37.3972 40.7272C38.0142 40.573 38.5429 40.218 38.9788 39.8911C39.4338 39.5499 39.4978 38.9687 39.5655 38.3533C39.6222 37.8383 39.6808 37.3057 39.9806 36.8884C40.0498 36.792 40.197 36.6304 40.4055 36.6304C40.5338 36.6304 40.6035 36.6976 40.6337 36.7377C40.7312 36.8674 40.685 37.0277 40.6361 37.1974C40.6154 37.2689 40.5771 37.402 40.5879 37.4432C40.9043 38.0749 41.2789 38.7978 41.6946 39.3172C42.334 40.1167 42.9307 40.5656 43.6898 40.8187C43.9911 40.9191 44.4694 41.2421 44.523 41.2786C44.6052 41.3347 44.6342 41.4424 44.5913 41.5322C44.5484 41.622 44.4464 41.6671 44.351 41.6382C44.2433 41.6056 44.0553 41.5597 43.9743 41.5597C43.4539 41.5597 42.4268 41.8656 42.0144 42.2093C41.2198 42.8714 40.6458 43.4916 40.4271 44.3664C40.3665 44.6087 40.2249 44.9268 40.0832 45.2103C40.0531 45.2828 40.0166 45.3544 39.9729 45.4248C39.8351 45.6859 39.719 45.8824 39.7085 45.9001C39.6709 45.9631 39.604 45.9988 39.5348 45.9988ZM37.8376 41.0129C38.9894 41.4535 39.9136 42.5617 40.15 43.9039C40.4708 43.058 41.1059 42.4413 41.756 41.8996C42.1484 41.5725 42.9381 41.2961 43.5475 41.1963C42.7161 40.9161 42.067 40.4286 41.3795 39.5691C40.9393 39.019 40.5528 38.2738 40.2251 37.6185C40.1795 37.5274 40.1763 37.4271 40.1908 37.3266C40.0505 37.6309 40.0094 38.0053 39.9662 38.3975C39.8921 39.0711 39.8154 39.7678 39.2206 40.2138C38.8328 40.5047 38.374 40.8169 37.8376 41.0129ZM40.1442 37.006H40.145H40.1442Z" fill="#231F20"/>
<path d="M33.6399 32.3525C32.3405 32.3525 31.0334 32.0123 30.1826 31.3316C29.7832 31.0122 26.8924 29.0756 26.4634 28.9786C26.3788 28.9914 26.2923 28.9499 26.252 28.8694C26.2023 28.7698 26.2427 28.6487 26.3423 28.5989C26.4691 28.5356 26.6005 28.4698 28.4435 29.6615C29.3419 30.2425 30.2563 30.8743 30.4345 31.0168C31.9819 32.2547 35.3107 32.256 36.7947 31.0193L36.8768 30.951C37.6325 30.322 39.0392 29.1514 39.3437 28.2382C39.8371 26.7578 38.7283 24.4088 37.5083 23.5954C37.1905 23.3836 36.9018 23.1064 36.6227 22.8383C36.1305 22.3657 35.6655 21.9193 35.0563 21.7974C35.0283 21.7918 34.9974 21.7877 34.9655 21.7833C34.7994 21.7604 34.5483 21.7259 34.4695 21.4893C34.4366 21.3907 34.4297 21.3701 35.3612 18.5434C35.5634 17.93 35.7379 17.4003 35.7725 17.2794C36.3603 15.2223 36.1579 12.4377 35.257 10.1852C34.9406 9.3941 34.3736 8.80507 33.7735 8.18144C33.5222 7.92027 33.2623 7.65022 33.0262 7.36695C32.0091 6.14647 30.5249 5.49479 28.7343 5.48237C28.7176 5.48229 28.7007 5.48221 28.6841 5.48221C26.0971 5.48221 23.1129 6.86154 21.4095 8.84885C20.2288 10.2263 19.3568 11.9908 19.017 13.6901C18.9952 13.7993 18.8891 13.8698 18.7798 13.8483C18.6706 13.8264 18.5998 13.7202 18.6217 13.611C18.9746 11.8461 19.8792 10.0147 21.1035 8.58647C22.9179 6.46957 25.9843 5.05888 28.7371 5.0792C30.6502 5.0925 32.2404 5.79434 33.3359 7.10884C33.5628 7.38098 33.8176 7.64579 34.064 7.9018C34.6645 8.52591 35.2856 9.17123 35.6313 10.0354C36.5634 12.3656 36.771 15.2525 36.1601 17.39C36.1235 17.5186 35.9561 18.0265 35.7442 18.6695C35.4525 19.5545 34.9822 20.9817 34.8799 21.359C34.9218 21.3701 34.9826 21.3785 35.0205 21.3838C35.0609 21.3893 35.1001 21.3949 35.1355 21.402C35.86 21.5469 36.3898 22.0555 36.9021 22.5475C37.1808 22.8151 37.444 23.0679 37.732 23.2599C39.0932 24.1674 40.2809 26.7017 39.7263 28.3656C39.3855 29.3877 37.9767 30.5602 37.1349 31.2608L37.0529 31.329C36.2342 32.0112 34.941 32.3524 33.6399 32.3525ZM26.5225 28.9597C26.5223 28.9598 26.5222 28.9599 26.522 28.9599C26.5221 28.9599 26.5223 28.9598 26.5225 28.9597Z" fill="#231F20"/>
<path d="M17.4507 14.685C17.3394 14.685 17.2491 14.5948 17.2491 14.4835C17.2491 14.0061 16.4415 12.8016 11.0328 10.0986L10.9818 10.0732C10.8822 10.0233 10.8419 9.90229 10.8917 9.80271C10.9414 9.70313 11.0624 9.66289 11.1621 9.71256L11.213 9.73796C15.546 11.9034 17.6522 13.4557 17.6522 14.4835C17.6523 14.5948 17.5621 14.685 17.4507 14.685Z" fill="#231F20"/>
</svg>
