<svg width="48" height="34" viewBox="0 0 48 34" fill="none" xmlns="http://www.w3.org/2000/svg">
<path d="M5 9C5 13.28 4.16 16.78 3.1 16.99C3.06735 16.9983 3.03364 17.0016 3 17C1.9 17 1 13.42 1 9C1 4.58 1.9 1 3 1L3.1 1.01C4.16 1.22 5 4.72 5 9Z" fill="#C7CCF0"/>
<path d="M45 1.0004C46.1 1.0004 47 4.5804 47 9.0004C47 13.4204 46.1 17.0004 45 17.0004C44.9664 17.002 44.9327 16.9987 44.9 16.9904C43.84 16.7804 43 13.2804 43 9.0004C43 4.7204 43.84 1.2204 44.9 1.0104C44.9327 1.00213 44.9664 0.998764 45 1.0004Z" fill="#C7CCF0"/>
<path d="M19 10.54V3C18.9996 2.84469 19.0198 2.69001 19.06 2.54C19.1634 2.10269 19.411 1.71292 19.7629 1.43354C20.1149 1.15415 20.5506 1.00143 21 1H27C27.4494 1.00143 27.8851 1.15415 28.2371 1.43354C28.589 1.71292 28.8367 2.10269 28.94 2.54C28.9802 2.69001 29.0004 2.84469 29 3V10.54C28.2881 10.1409 27.4734 9.96332 26.66 10.03C25.9326 9.36736 24.984 9.00009 24 9.00009C23.016 9.00009 22.0674 9.36736 21.34 10.03C20.5266 9.96332 19.7119 10.1409 19 10.54Z" fill="#FFB37D"/>
<path d="M29 2.51977L44.9 1.00977C43.84 1.21977 43 4.71976 43 8.99976C43 13.2798 43.84 16.7798 44.9 16.9898L32 15.7598L31.82 15.8198C31.6408 15.2735 31.3515 14.7698 30.97 14.3398C31.022 13.7603 30.9469 13.1764 30.75 12.6289C30.5531 12.0814 30.2391 11.5834 29.83 11.1698C29.583 10.9233 29.3038 10.7114 29 10.5398V2.99977C29.0004 2.84446 28.9802 2.68978 28.94 2.53977L29 2.51977Z" fill="#F7F7FF"/>
<path d="M19 2.99977V10.5398C18.6962 10.7114 18.417 10.9233 18.17 11.1698C17.7608 11.5834 17.4469 12.0814 17.25 12.6289C17.0531 13.1764 16.978 13.7603 17.03 14.3398C16.6485 14.7698 16.3592 15.2735 16.18 15.8198L16 15.7598L3.09998 16.9898C4.15998 16.7798 4.99998 13.2798 4.99998 8.99976C4.99998 4.71976 4.15998 1.21977 3.09998 1.00977L19 2.51977L19.06 2.53977C19.0198 2.68978 18.9996 2.84446 19 2.99977Z" fill="#F7F7FF"/>
<path d="M24 25.0002L20 33.0002L18 29.0002L14 31.0002L17.82 22.4102C17.9226 22.5613 18.0398 22.702 18.17 22.8302C18.5837 23.2393 19.0816 23.5533 19.6291 23.7501C20.1766 23.947 20.7605 24.0221 21.34 23.9702C22.0694 24.6297 23.0167 24.9965 24 25.0002Z" fill="#FFB37D"/>
<path d="M30.18 22.4102L34 31.0002L30 29.0002L28 33.0002L24 25.0002C24.9833 24.9965 25.9306 24.6297 26.66 23.9702C27.2395 24.0221 27.8234 23.947 28.3709 23.7501C28.9184 23.5533 29.4163 23.2393 29.83 22.8302C29.9602 22.702 30.0774 22.5613 30.18 22.4102Z" fill="#FFB37D"/>
<path d="M24 21C26.2091 21 28 19.2091 28 17C28 14.7909 26.2091 13 24 13C21.7909 13 20 14.7909 20 17C20 19.2091 21.7909 21 24 21Z" fill="#B079FF"/>
<path d="M31.45 14.9999C31.81 15.6049 32.0001 16.2959 32.0001 16.9999C32.0001 17.7039 31.81 18.3949 31.45 18.9999C31.313 19.2358 31.1522 19.4569 30.97 19.6599C31.0592 20.6431 30.7774 21.624 30.18 22.4099C30.0774 22.5611 29.9602 22.7017 29.83 22.8299C29.4163 23.239 28.9184 23.553 28.3709 23.7499C27.8234 23.9468 27.2395 24.0219 26.66 23.9699C25.9326 24.6326 24.984 24.9998 24 24.9998C23.016 24.9998 22.0674 24.6326 21.34 23.9699C20.7605 24.0219 20.1766 23.9468 19.6291 23.7499C19.0816 23.553 18.5837 23.239 18.17 22.8299C18.0398 22.7017 17.9226 22.5611 17.82 22.4099C17.2226 21.624 16.9408 20.6431 17.03 19.6599C16.8478 19.4569 16.687 19.2358 16.55 18.9999C16.19 18.3949 15.9999 17.7039 15.9999 16.9999C15.9999 16.2959 16.19 15.6049 16.55 14.9999C16.687 14.7641 16.8478 14.5429 17.03 14.3399C16.9748 13.7602 17.0483 13.1754 17.2454 12.6274C17.4425 12.0794 17.7582 11.5817 18.17 11.1699C18.5818 10.7581 19.0795 10.4424 19.6275 10.2453C20.1755 10.0483 20.7603 9.9747 21.34 10.0299C22.0674 9.36727 23.016 9 24 9C24.984 9 25.9326 9.36727 26.66 10.0299C27.2397 9.9747 27.8245 10.0483 28.3725 10.2453C28.9205 10.4424 29.4182 10.7581 29.83 11.1699C30.2418 11.5817 30.5575 12.0794 30.7546 12.6274C30.9517 13.1754 31.0252 13.7602 30.97 14.3399C31.1522 14.5429 31.313 14.7641 31.45 14.9999ZM28 16.9999C28 16.2088 27.7654 15.4354 27.3259 14.7776C26.8864 14.1198 26.2616 13.6071 25.5307 13.3044C24.7998 13.0016 23.9956 12.9224 23.2196 13.0768C22.4437 13.2311 21.731 13.6121 21.1716 14.1715C20.6122 14.7309 20.2312 15.4436 20.0769 16.2196C19.9225 16.9955 20.0017 17.7997 20.3045 18.5306C20.6072 19.2616 21.1199 19.8863 21.7777 20.3258C22.4355 20.7653 23.2089 20.9999 24 20.9999C25.0609 20.9999 26.0783 20.5785 26.8284 19.8283C27.5786 19.0782 28 18.0608 28 16.9999Z" fill="#FFF978"/>
<path d="M29 10.5396C29.3038 10.7112 29.583 10.9231 29.83 11.1696C30.2391 11.5833 30.5531 12.0812 30.75 12.6287C30.9469 13.1762 31.022 13.7601 30.97 14.3396C31.3515 14.7697 31.6408 15.2734 31.82 15.8196L32 15.7596L44.9 16.9896C43.995 16.8106 43.252 14.2286 43.054 10.8136L29 9.47559V10.5396Z" fill="#E1E7F7"/>
<path d="M4.94598 10.8136C4.74598 14.2286 4.00498 16.8136 3.09998 16.9896L16 15.7596L16.18 15.8196C16.3592 15.2734 16.6485 14.7697 17.03 14.3396C16.978 13.7601 17.0531 13.1762 17.25 12.6287C17.4469 12.0812 17.7608 11.5833 18.17 11.1696C18.417 10.9231 18.6962 10.7112 19 10.5396V9.47559L4.94598 10.8136Z" fill="#E1E7F7"/>
<path d="M43.918 2.28223C43.2419 4.45524 42.9317 6.7255 43 9.00023C42.9317 11.275 43.2419 13.5452 43.918 15.7182C44.541 14.8722 45 12.1882 45 9.00023C45 5.81223 44.541 3.12823 43.918 2.28223Z" fill="#999DC2"/>
<path d="M4.082 2.28223C4.75805 4.45524 5.06828 6.7255 5 9.00023C5.06828 11.275 4.75805 13.5452 4.082 15.7182C3.459 14.8722 3 12.1882 3 9.00023C3 5.81223 3.459 3.12823 4.082 2.28223Z" fill="#999DC2"/>
<path d="M28.94 2.54C28.8367 2.10269 28.589 1.71292 28.2371 1.43354C27.8851 1.15415 27.4494 1.00143 27 1H21C20.5506 1.00143 20.1149 1.15415 19.7629 1.43354C19.411 1.71292 19.1634 2.10269 19.06 2.54C19.0198 2.69001 18.9996 2.84469 19 3V6C18.9996 5.84469 19.0198 5.69001 19.06 5.54C19.1634 5.10269 19.411 4.71292 19.7629 4.43354C20.1149 4.15415 20.5506 4.00143 21 4H27C27.4494 4.00143 27.8851 4.15415 28.2371 4.43354C28.589 4.71292 28.8367 5.10269 28.94 5.54C28.9802 5.69001 29.0004 5.84469 29 6V3C29.0004 2.84469 28.9802 2.69001 28.94 2.54Z" fill="#FFC69E"/>
<path d="M24 19C23.1151 18.9988 22.2558 18.7034 21.5572 18.1603C20.8586 17.6172 20.3604 16.8572 20.141 16C19.9791 16.5934 19.9563 17.2161 20.0742 17.8198C20.1922 18.4234 20.4478 18.9918 20.8211 19.4806C21.1944 19.9694 21.6755 20.3655 22.2268 20.6382C22.7781 20.9108 23.3849 21.0527 24 21.0527C24.6151 21.0527 25.2219 20.9108 25.7732 20.6382C26.3245 20.3655 26.8056 19.9694 27.1789 19.4806C27.5522 18.9918 27.8078 18.4234 27.9258 17.8198C28.0437 17.2161 28.0209 16.5934 27.859 16C27.6396 16.8572 27.1414 17.6172 26.4428 18.1603C25.7442 18.7034 24.8849 18.9988 24 19Z" fill="#976EFA"/>
<path d="M19.627 25.7461L18 29.0001L20 33.0001L23.064 26.8731C22.425 26.7169 21.8335 26.408 21.34 25.9731C20.7594 26.0183 20.1758 25.941 19.627 25.7461Z" fill="#FB9881"/>
<path d="M26.66 25.9701C26.1665 26.405 25.5749 26.7139 24.936 26.8701L28 33.0001L30 29.0001L28.373 25.7461C27.824 25.94 27.2404 26.0163 26.66 25.9701Z" fill="#FB9881"/>
<path d="M21.34 23.9701C21.0681 23.991 20.7948 23.9853 20.524 23.9531L19.624 25.7461C20.173 25.94 20.7566 26.0163 21.337 25.9701C21.8305 26.4051 22.4221 26.7139 23.061 26.8701L24 25.0001C23.0167 24.9965 22.0694 24.6297 21.34 23.9701Z" fill="#FF8488"/>
<path d="M18.17 24.8302C18.5812 25.2404 19.0791 25.5534 19.627 25.7462L20.527 23.9532C19.6365 23.8578 18.8051 23.4617 18.17 22.8302C18.0399 22.702 17.9226 22.5613 17.82 22.4102L17.327 23.5202C17.4509 23.8375 17.6167 24.1368 17.82 24.4102C17.9226 24.5613 18.0399 24.702 18.17 24.8302Z" fill="#FB9881"/>
<path d="M28.373 25.7461L27.473 23.9531C27.2022 23.9853 26.9289 23.991 26.657 23.9701C25.9284 24.629 24.9823 24.9957 24 25.0001L24.936 26.8731C25.575 26.7169 26.1665 26.4081 26.66 25.9731C27.2406 26.0183 27.8242 25.941 28.373 25.7461Z" fill="#FF8488"/>
<path d="M29.83 22.8302C29.1957 23.4611 28.3655 23.8572 27.476 23.9532L28.376 25.7462C28.924 25.5534 29.4218 25.2404 29.833 24.8302C29.9632 24.702 30.0804 24.5613 30.183 24.4102C30.3863 24.1368 30.5521 23.8375 30.676 23.5202L30.183 22.4102C30.0795 22.5614 29.9612 22.7021 29.83 22.8302Z" fill="#FB9881"/>
<path d="M19 8.42676C18.1451 8.6365 17.3628 9.07361 16.736 9.69176L19 9.47576V8.42676Z" fill="#E1E7F7"/>
<path d="M31.264 9.69176C30.6372 9.07361 29.8549 8.6365 29 8.42676V9.47576L31.264 9.69176Z" fill="#E1E7F7"/>
<path d="M29 9.47586V8.42686C28.4528 8.29066 27.8872 8.24339 27.325 8.28687C26.4156 7.45888 25.2299 7 24 7C22.7701 7 21.5844 7.45888 20.675 8.28687C20.1128 8.24339 19.5472 8.29066 19 8.42686V10.5399C19.1935 10.4312 19.3959 10.3392 19.605 10.2649C19.674 10.2399 19.744 10.2249 19.814 10.2039C19.9903 10.1502 20.17 10.1087 20.352 10.0799C20.436 10.0669 20.518 10.0529 20.602 10.0449C20.8465 10.0194 21.0927 10.0144 21.338 10.0299C21.6949 9.71149 22.1043 9.45739 22.548 9.27886C23.4789 8.90682 24.5171 8.90682 25.448 9.27886C25.8916 9.45762 26.3009 9.7117 26.658 10.0299C26.9033 10.0144 27.1495 10.0194 27.394 10.0449C27.478 10.0539 27.56 10.0659 27.644 10.0799C27.8261 10.1083 28.0059 10.1497 28.182 10.2039C28.252 10.2249 28.322 10.2399 28.391 10.2649C28.6015 10.339 28.8052 10.431 29 10.5399V9.47586Z" fill="#FF8488"/>
<path d="M32 15.7596L33.871 15.9376C33.8033 15.6155 33.7027 15.3012 33.571 14.9996C33.4953 14.8282 33.4098 14.6612 33.315 14.4996C33.1438 14.2048 32.9427 13.9283 32.715 13.6746C32.7799 12.9501 32.6859 12.2201 32.4396 11.5356C32.1933 10.8511 31.8007 10.2287 31.289 9.71159L31.266 9.69159L29 9.47559V10.5396C29.023 10.5526 29.044 10.5696 29.066 10.5836C29.115 10.6116 29.16 10.6446 29.207 10.6756C29.4313 10.8181 29.6401 10.9837 29.83 11.1696C30.2391 11.5833 30.5531 12.0812 30.75 12.6287C30.9469 13.1762 31.022 13.7601 30.97 14.3396C31.1522 14.5426 31.313 14.7637 31.45 14.9996L31.462 15.0236C31.472 15.0406 31.479 15.0596 31.489 15.0766C31.5628 15.2083 31.6295 15.3438 31.689 15.4826C31.718 15.5506 31.736 15.6236 31.761 15.6936C31.776 15.7356 31.801 15.7726 31.815 15.8156L32 15.7596Z" fill="#C7CCF0"/>
<path d="M19 9.47559L16.736 9.69159L16.713 9.71159C16.2014 10.2287 15.8087 10.8511 15.5624 11.5356C15.3161 12.2201 15.2221 12.9501 15.287 13.6746C15.0593 13.9283 14.8582 14.2048 14.687 14.4996C14.5929 14.6615 14.5078 14.8284 14.432 14.9996C14.3003 15.3012 14.1998 15.6155 14.132 15.9376L16 15.7596L16.18 15.8196C16.194 15.7766 16.219 15.7396 16.234 15.6976C16.259 15.6276 16.277 15.5546 16.306 15.4866C16.3655 15.3478 16.4322 15.2123 16.506 15.0806C16.516 15.0636 16.523 15.0446 16.533 15.0276L16.55 14.9996C16.687 14.7637 16.8478 14.5426 17.03 14.3396C16.9781 13.7601 17.0531 13.1762 17.25 12.6287C17.4469 12.0812 17.7609 11.5833 18.17 11.1696C18.3599 10.9837 18.5687 10.8181 18.793 10.6756C18.84 10.6446 18.885 10.6116 18.934 10.5836C18.956 10.5696 18.977 10.5526 19 10.5396V9.47559Z" fill="#C7CCF0"/>
<path d="M26.4936 16.5189C26.8157 16.1966 26.7132 15.572 26.2647 15.1238C25.8163 14.6757 25.1916 14.5736 24.8695 14.8959C24.5475 15.2182 24.6499 15.8428 25.0984 16.291C25.5469 16.7391 26.1716 16.8412 26.4936 16.5189Z" fill="#F6FAFD"/>
<path d="M22.8328 17.6141C22.994 17.4527 22.9429 17.1403 22.7187 16.9162C22.4945 16.6921 22.182 16.6412 22.0208 16.8026C21.8595 16.9639 21.9106 17.2764 22.1348 17.5005C22.3591 17.7245 22.6716 17.7754 22.8328 17.6141Z" fill="#F6FAFD"/>
<path d="M27.4942 4.51888C27.8163 4.19658 27.7138 3.572 27.2653 3.12383C26.8169 2.67567 26.1922 2.57363 25.8701 2.89593C25.5481 3.21822 25.6506 3.8428 26.099 4.29097C26.5475 4.73913 27.1722 4.84117 27.4942 4.51888Z" fill="#F6FAFD"/>
<path d="M23.8327 3.61406C23.994 3.45272 23.9429 3.14027 23.7186 2.91619C23.4944 2.69211 23.1819 2.64125 23.0207 2.80259C22.8595 2.96393 22.9105 3.27638 23.1348 3.50046C23.359 3.72455 23.6715 3.77541 23.8327 3.61406Z" fill="#F6FAFD"/>
<path d="M24 22C24.9889 22 25.9556 21.7068 26.7779 21.1574C27.6001 20.6079 28.241 19.8271 28.6194 18.9134C28.9978 17.9998 29.0969 16.9945 28.9039 16.0245C28.711 15.0546 28.2348 14.1637 27.5355 13.4645C26.8363 12.7652 25.9454 12.289 24.9755 12.0961C24.0055 11.9031 23.0002 12.0022 22.0866 12.3806C21.173 12.759 20.3921 13.3999 19.8427 14.2222C19.2932 15.0444 19 16.0111 19 17C19.0016 18.3256 19.5289 19.5964 20.4662 20.5338C21.4036 21.4711 22.6744 21.9984 24 22ZM24 14C24.5933 14 25.1734 14.1759 25.6667 14.5056C26.1601 14.8352 26.5446 15.3038 26.7716 15.852C26.9987 16.4001 27.0581 17.0033 26.9424 17.5853C26.8266 18.1672 26.5409 18.7018 26.1213 19.1213C25.7018 19.5409 25.1672 19.8266 24.5853 19.9424C24.0033 20.0581 23.4001 19.9987 22.8519 19.7716C22.3038 19.5446 21.8352 19.1601 21.5056 18.6667C21.1759 18.1734 21 17.5933 21 17C21 16.2044 21.3161 15.4413 21.8787 14.8787C22.4413 14.3161 23.2043 14 24 14Z" fill="black"/>
<path d="M31.31 22.4857C31.7475 21.73 31.9792 20.8729 31.982 19.9997C32.6423 19.139 33.0001 18.0845 33.0001 16.9997C33.0001 15.9149 32.6423 14.8604 31.982 13.9997C31.988 13.3449 31.8636 12.6954 31.6162 12.0891C31.3688 11.4828 31.0032 10.9318 30.5408 10.4682C30.0783 10.0045 29.5283 9.63751 28.9226 9.38849C28.317 9.13947 27.6678 9.01343 27.013 9.0177H27C26.1315 8.37574 25.08 8.0293 24 8.0293C22.92 8.0293 21.8685 8.37574 21 9.0177H20.988C20.3331 9.0133 19.6839 9.13924 19.0781 9.3882C18.4723 9.63716 17.9222 10.0042 17.4596 10.4678C16.9971 10.9315 16.6314 11.4825 16.3839 12.0889C16.1364 12.6953 16.012 13.3448 16.018 13.9997C15.3578 14.8604 14.9999 15.9149 14.9999 16.9997C14.9999 18.0845 15.3578 19.139 16.018 19.9997C16.0211 20.8728 16.2528 21.7299 16.69 22.4857L13.09 30.5937C13.0065 30.7819 12.9832 30.9913 13.0232 31.1933C13.0632 31.3953 13.1645 31.58 13.3134 31.7222C13.4623 31.8644 13.6515 31.9572 13.8551 31.9879C14.0587 32.0186 14.2668 31.9857 14.451 31.8937L17.557 30.3407L19.109 33.4457C19.1919 33.6121 19.3196 33.7521 19.4777 33.8499C19.6358 33.9478 19.8181 33.9996 20.004 33.9996C20.1899 33.9996 20.3722 33.9478 20.5303 33.8499C20.6884 33.7521 20.8161 33.6121 20.899 33.4457L24 27.2357L27.105 33.4467C27.1879 33.6131 27.3156 33.7531 27.4737 33.8509C27.6318 33.9488 27.8141 34.0006 28 34.0006C28.1859 34.0006 28.3682 33.9488 28.5263 33.8509C28.6844 33.7531 28.8121 33.6131 28.895 33.4467L30.447 30.3417L33.553 31.8997C33.7372 31.9917 33.9453 32.0246 34.1489 31.9939C34.3525 31.9632 34.5417 31.8704 34.6906 31.7282C34.8395 31.586 34.9408 31.4013 34.9808 31.1993C35.0208 30.9973 34.9975 30.7879 34.914 30.5997L31.31 22.4857ZM17.777 15.0077C17.8682 14.906 17.9376 14.7868 17.981 14.6573C18.0243 14.5278 18.0406 14.3908 18.029 14.2547C17.9859 13.8204 18.0397 13.3819 18.1866 12.9709C18.3334 12.5599 18.5697 12.1866 18.8783 11.878C19.1869 11.5694 19.5602 11.3331 19.9712 11.1862C20.3822 11.0394 20.8207 10.9856 21.255 11.0287C21.3911 11.0408 21.5282 11.0247 21.6578 10.9813C21.7874 10.938 21.9066 10.8683 22.008 10.7767C22.5586 10.2921 23.267 10.0248 24.0005 10.0248C24.734 10.0248 25.4424 10.2921 25.993 10.7767C26.094 10.8685 26.2131 10.9383 26.3425 10.9817C26.472 11.0251 26.609 11.0411 26.745 11.0287C27.1793 10.9856 27.6178 11.0394 28.0288 11.1862C28.4398 11.3331 28.8131 11.5694 29.1217 11.878C29.4303 12.1866 29.6666 12.5599 29.8135 12.9709C29.9603 13.3819 30.0141 13.8204 29.971 14.2547C29.9594 14.3908 29.9757 14.5278 30.0191 14.6573C30.0624 14.7868 30.1318 14.906 30.223 15.0077C30.7227 15.5508 31 16.2618 31 16.9997C31 17.7376 30.7227 18.4486 30.223 18.9917C30.1318 19.0934 30.0624 19.2126 30.0191 19.3421C29.9757 19.4716 29.9594 19.6086 29.971 19.7447C30.0141 20.179 29.9603 20.6175 29.8135 21.0285C29.6666 21.4395 29.4303 21.8128 29.1217 22.1214C28.8131 22.43 28.4398 22.6663 28.0288 22.8132C27.6178 22.96 27.1793 23.0138 26.745 22.9707C26.6089 22.9591 26.4719 22.9754 26.3424 23.0188C26.2129 23.0621 26.0937 23.1315 25.992 23.2227C25.4414 23.7073 24.733 23.9746 23.9995 23.9746C23.266 23.9746 22.5576 23.7073 22.007 23.2227C21.8238 23.0581 21.5863 22.967 21.34 22.9667C21.3117 22.9652 21.2833 22.9652 21.255 22.9667C20.8207 23.0098 20.3822 22.956 19.9712 22.8092C19.5602 22.6623 19.1869 22.426 18.8783 22.1174C18.5697 21.8088 18.3334 21.4355 18.1866 21.0245C18.0397 20.6135 17.9859 20.175 18.029 19.7407C18.0406 19.6046 18.0243 19.4676 17.981 19.3381C17.9376 19.2086 17.8682 19.0894 17.777 18.9877C17.2774 18.4446 17 17.7336 17 16.9957C17 16.2578 17.2774 15.5468 17.777 15.0037V15.0077ZM20 30.7637L18.9 28.5527C18.8414 28.4351 18.7601 28.3303 18.6609 28.2441C18.5617 28.158 18.4465 28.0922 18.3218 28.0506C18.1972 28.009 18.0656 27.9924 17.9345 28.0016C17.8035 28.0109 17.6755 28.0459 17.558 28.1047L16.051 28.8587L18.159 24.0997C18.991 24.6721 19.9772 24.9783 20.987 24.9777H21C21.4526 25.3195 21.9597 25.5822 22.5 25.7547L20 30.7637ZM30.447 28.0997C30.3295 28.0409 30.2015 28.0059 30.0705 27.9966C29.9394 27.9874 29.8078 28.004 29.6832 28.0456C29.5585 28.0872 29.4433 28.153 29.3441 28.2391C29.2449 28.3253 29.1637 28.4301 29.105 28.5477L28 30.7637L25.5 25.7587C26.0404 25.5864 26.5476 25.3237 27 24.9817H27.013C28.0229 24.9823 29.0091 24.6761 29.841 24.1037L31.954 28.8587L30.447 28.0997Z" fill="black"/>
<path d="M34.0889 14.9798L33.8988 16.9707L35.8987 17.1616L36.0888 15.1707L34.0889 14.9798Z" fill="black"/>
<path d="M45 0C44.967 0 44.939 0.0139998 44.906 0.0159998V0L29.564 1.466C29.3 1.02064 28.925 0.651414 28.4756 0.394445C28.0261 0.137477 27.5177 0.00156347 27 0H21C20.4823 0.00156347 19.9739 0.137477 19.5244 0.394445C19.075 0.651414 18.7 1.02064 18.436 1.466L3.1 0V0.0120001C3.061 0.0140001 3.033 0 3 0C0.145 0 0 7.5 0 9C0 10.5 0.145 18 3 18C3.033 18 3.061 17.986 3.094 17.984V18L14.094 16.952L13.904 14.961L5.114 15.798C5.73177 13.5858 6.03012 11.2966 6 9C6.03006 6.70474 5.73205 4.41696 5.115 2.206L18 3.433V8H20V3C20 2.73478 20.1054 2.48043 20.2929 2.29289C20.4804 2.10536 20.7348 2 21 2H27C27.2652 2 27.5196 2.10536 27.7071 2.29289C27.8946 2.48043 28 2.73478 28 3V8H30V3.433L42.885 2.206C42.268 4.41696 41.9699 6.70474 42 9C41.9699 11.2953 42.268 13.583 42.885 15.794L38.094 15.338L37.905 17.329L44.905 17.996V17.984C44.938 17.984 44.966 18 44.999 18C47.854 18 47.999 10.5 47.999 9C47.999 7.5 47.855 0 45 0ZM2 9C1.88944 6.71348 2.22921 4.42752 3 2.272C3.77079 4.42752 4.11056 6.71348 4 9C4.11056 11.2865 3.77079 13.5725 3 15.728C2.22921 13.5725 1.88944 11.2865 2 9ZM45 15.728C44.2292 13.5725 43.8894 11.2865 44 9C43.8894 6.71348 44.2292 4.42752 45 2.272C45.7708 4.42752 46.1106 6.71348 46 9C46.1106 11.2865 45.7708 13.5725 45 15.728Z" fill="black"/>
</svg>
