<svg width="34" height="24" viewBox="0 0 34 24" fill="none" xmlns="http://www.w3.org/2000/svg">
<path fill-rule="evenodd" clip-rule="evenodd" d="M11.3826 0.458531C8.30643 -0.692732 4.92258 0.458544 3.23066 2.41569C-0.306994 3.91233 -0.306991 7.82661 2.3078 10.2443C3.69209 11.6258 5.38402 11.5107 6.92212 10.935C7.07594 10.935 7.22974 10.935 7.38355 10.935C7.69117 14.8493 5.07639 18.0729 2.4616 21.5266C2.30779 21.4115 1.84636 21.2964 1.69255 21.5266C1.38493 21.9871 0.923497 22.4477 0.769686 23.0233C0.769686 23.1384 0.769683 23.3687 0.923494 23.4838C0.923494 23.8292 1.53873 24.0594 2.00017 23.714C2.15398 23.5989 2.15398 23.4838 2.3078 23.3687C5.2302 21.7569 7.84499 19.6846 9.84454 17.267C12.3055 15.6552 13.9974 13.5829 14.4589 11.1653C15.2279 9.89889 15.5355 8.51737 15.6894 7.36611C16.1508 4.48795 15.0741 1.84005 11.3826 0.458531ZM2.92304 5.86948C2.92304 5.75435 3.23066 5.52409 3.38447 5.40896C3.38447 5.86947 3.69209 6.4451 3.99971 6.90561C3.99971 7.13586 3.84591 7.48124 3.84591 7.71149C3.38447 7.13586 2.92304 6.56024 2.92304 5.86948C2.92304 5.9846 2.92304 5.9846 2.92304 5.86948ZM3.53828 9.8989C2.00017 8.97789 1.53874 7.02073 1.69255 5.63921C1.69255 5.29383 1.84636 4.94846 2.00017 4.60308C2.00017 4.71821 2.00017 4.71821 2.00017 4.83333C1.53873 5.75434 1.53873 6.67536 2.00017 7.59637C2.00017 7.7115 2.00017 7.82661 2.00017 7.94174C2.00017 8.17199 2.15398 8.40225 2.3078 8.6325C2.46161 8.97788 2.61542 9.20814 2.92304 9.55351C3.23066 9.89889 3.99972 10.1291 4.61496 10.2443C4.76877 10.3594 4.92258 10.3594 5.07639 10.4745C4.61495 10.3594 3.99971 10.2443 3.53828 9.8989ZM8.92166 1.72493C7.99879 1.6098 6.92213 1.60981 6.15307 1.84006C5.99926 1.84006 5.69164 1.84006 5.53782 1.84006H5.38402C6.15307 1.37955 7.07593 1.03416 8.15261 1.03416C7.99879 1.14929 7.9988 1.26443 8.30643 1.26443C8.92167 1.26443 9.5369 1.37955 9.99833 1.49468C9.5369 1.6098 9.22928 1.72493 8.92166 1.72493ZM10.306 11.5107C10.306 11.1653 10.306 10.5897 10.1522 10.1291C10.1522 10.1291 10.306 10.1291 10.306 10.014C10.4598 10.4745 10.4598 11.0502 10.306 11.5107ZM14.1512 5.17871C13.9974 5.06359 13.6898 5.17871 13.6898 5.40896C13.9974 6.32997 13.9974 7.25099 13.6898 8.172C13.6898 7.94175 13.6898 7.71149 13.6898 7.48124C13.6898 7.36611 13.6898 7.36612 13.6898 7.25099C13.8436 6.79048 13.8436 6.4451 13.6898 5.98459C13.536 4.71821 13.2284 3.3367 12.4593 2.41569C13.6898 3.10645 14.1512 4.14258 14.1512 5.17871C14.1512 5.29384 14.1512 5.17871 14.1512 5.17871Z" fill="#2E2E2E"/>
<path fill-rule="evenodd" clip-rule="evenodd" d="M29.5317 0.573768C26.4555 -0.577494 23.0716 0.573764 21.3797 2.53091C17.8421 4.02755 17.8421 7.94184 20.4568 10.3595C21.8411 11.741 23.5331 11.6259 25.0712 11.0503C25.225 11.0503 25.3788 11.0503 25.5326 11.0503C25.8402 14.9645 23.2255 18.1881 20.6107 21.6419C20.4568 21.5267 19.9954 21.4116 19.8416 21.6419C19.534 22.1024 19.0725 22.5629 18.9187 23.1385C18.9187 23.2536 18.9187 23.4839 19.0725 23.599C19.0725 23.9444 19.6878 24.1746 20.1492 23.8292C20.303 23.7141 20.303 23.599 20.4568 23.4839C23.3793 21.8721 25.9941 19.7998 27.9936 17.3822C30.4546 15.7704 32.1465 13.6982 32.6079 11.2805C33.377 10.0141 33.6846 8.6326 33.8384 7.48134C34.4537 4.60318 33.377 1.95528 29.5317 0.573768ZM21.3797 6.09983C21.3797 5.9847 21.5335 5.75444 21.6873 5.63931C21.6873 6.09982 21.9949 6.67545 22.3026 7.13596C22.3026 7.36621 22.1488 7.71158 22.1488 7.94183C21.8412 7.3662 21.3797 6.67546 21.3797 6.09983ZM21.8412 10.0141C20.303 9.0931 19.8416 7.13596 19.9954 5.75444C19.9954 5.40907 20.1492 5.06369 20.303 4.71832C20.303 4.83344 20.303 4.83344 20.303 4.94857C19.8416 5.86957 19.8416 6.79058 20.303 7.71159C20.303 7.82671 20.303 7.94184 20.303 8.05697C20.303 8.28722 20.4568 8.51748 20.6107 8.74773C20.7645 9.09311 20.9183 9.32335 21.2259 9.66873C21.5335 10.0141 22.3026 10.2444 22.9178 10.3595C23.0716 10.4746 23.2255 10.4746 23.3793 10.5897C22.9178 10.4746 22.3026 10.3595 21.8412 10.0141ZM27.2245 1.95528C26.3017 1.84015 25.225 1.84016 24.4559 2.07041C24.3021 2.07041 23.9945 2.07041 23.8407 2.07041H23.6869C24.4559 1.60991 25.3788 1.26453 26.4555 1.26453C26.3017 1.37966 26.3017 1.49478 26.6093 1.49478C27.2245 1.49478 27.8398 1.6099 28.3012 1.72503C27.8398 1.84016 27.5322 1.84015 27.2245 1.95528ZM28.6088 11.6259C28.6088 11.6259 28.6088 11.741 28.6088 11.6259C28.6088 11.2805 28.6088 10.7049 28.455 10.2444C28.455 10.2444 28.6088 10.2444 28.6088 10.1292C28.7627 10.7049 28.7627 11.1654 28.6088 11.6259ZM32.4541 5.29395C32.3003 5.17882 31.9927 5.29394 31.9927 5.5242C32.3003 6.44521 32.3003 7.36621 31.9927 8.28722C31.9927 8.05696 31.9927 7.82672 31.9927 7.59647C31.9927 7.48134 31.9927 7.48133 31.9927 7.3662C32.1465 6.9057 32.1465 6.56033 31.9927 6.09983C31.8389 4.83344 31.5312 3.45192 30.7622 2.53091C31.8389 3.33679 32.3003 4.37294 32.4541 5.29395C32.4541 5.40907 32.4541 5.40907 32.4541 5.29395Z" fill="#2E2E2E"/>
</svg>
