<svg width="33" height="32" viewBox="0 0 33 32" fill="none" xmlns="http://www.w3.org/2000/svg">
<path d="M4.76667 8V12.6667L2.10001 10.6667L4.76667 8Z" fill="#FFE45C"/>
<path d="M28.2333 8.00011V12.6668L19.636 19.1148L18.1 20.2668C17.6517 20.6376 17.0811 20.8278 16.5 20.8001C15.9189 20.8278 15.3483 20.6376 14.9 20.2668L13.364 19.1148L4.76666 12.6668V3.20011C4.76666 2.49287 5.04761 1.81459 5.54771 1.3145C6.04781 0.814399 6.72609 0.533447 7.43333 0.533447H25.5667C25.9169 0.533447 26.2636 0.602423 26.5872 0.736435C26.9107 0.870448 27.2047 1.06687 27.4523 1.3145C27.6999 1.56212 27.8963 1.85609 28.0303 2.17962C28.1644 2.50316 28.2333 2.84992 28.2333 3.20011V8.00011Z" fill="white"/>
<path d="M30.9 10.6667L28.2333 12.6667V8L30.9 10.6667Z" fill="#FFE45C"/>
<path d="M30.9 10.6667C31.5684 11.3961 31.9477 12.3443 31.9667 13.3334V28.2667C31.9679 28.6871 31.8856 29.1035 31.7244 29.4917C31.5633 29.8799 31.3266 30.2322 31.028 30.5281L30.9 30.4001L19.7 19.2001L19.636 19.1147L28.2333 12.6667L30.9 10.6667Z" fill="#FFC247"/>
<path d="M30.9 30.4001L31.028 30.5281C30.7321 30.8266 30.3798 31.0634 29.9916 31.2245C29.6034 31.3857 29.187 31.468 28.7667 31.4667H4.23332C3.81298 31.468 3.39659 31.3857 3.00837 31.2245C2.62015 31.0634 2.26786 30.8266 1.97198 30.5281L2.09998 30.4001L13.3 19.2001L13.364 19.1147L14.9 20.2667C15.3483 20.6376 15.9188 20.8278 16.5 20.8001C17.0811 20.8278 17.6517 20.6376 18.1 20.2667L19.636 19.1147L19.7 19.2001L30.9 30.4001Z" fill="#FFE45C"/>
<path d="M4.76667 12.6667L13.364 19.1147L13.3 19.2001L2.10001 30.4001L1.97201 30.5281C1.67344 30.2322 1.4367 29.8799 1.27555 29.4917C1.1144 29.1035 1.03207 28.6871 1.03334 28.2667V13.3334C1.05228 12.3443 1.43157 11.3961 2.10001 10.6667L4.76667 12.6667Z" fill="#FFC247"/>
<path d="M14.9 22.3999C15.3483 22.7707 15.9189 22.9609 16.5 22.9332C17.0811 22.9609 17.6517 22.7707 18.1 22.3999L19.668 21.2906L20.9107 20.4106L19.7 19.1999L19.668 19.1572L18.1 20.2666C17.6517 20.6374 17.0811 20.8276 16.5 20.7999C15.9189 20.8276 15.3483 20.6374 14.9 20.2666L13.332 19.1572L13.3 19.1999L12.0893 20.4106L13.332 21.2906L14.9 22.3999Z" fill="#FFC247"/>
<path d="M29.8333 29.3333H3.16665L2.09998 30.3999L1.97198 30.5279C2.26786 30.8265 2.62015 31.0632 3.00837 31.2244C3.39659 31.3855 3.81298 31.4679 4.23332 31.4666H28.7667C29.187 31.4679 29.6034 31.3855 29.9916 31.2244C30.3798 31.0632 30.7321 30.8265 31.028 30.5279L30.9 30.3999L29.8333 29.3333Z" fill="#FFDA45"/>
<path d="M31.2797 10.2933L31.2771 10.2891L28.7667 7.7792V3.2C28.7658 2.35157 28.4284 1.53813 27.8285 0.938194C27.2285 0.338261 26.4151 0.000847163 25.5667 0L7.43333 0C6.5849 0.000847163 5.77146 0.338261 5.17153 0.938194C4.57159 1.53813 4.23418 2.35157 4.23333 3.2V7.7792L1.72293 10.2896L1.72027 10.2939C0.951005 11.1209 0.516156 12.204 0.5 13.3333L0.5 28.2667C0.501129 29.2565 0.894824 30.2054 1.59472 30.9053C2.29461 31.6052 3.24354 31.9989 4.23333 32H28.7667C29.7565 31.9989 30.7054 31.6052 31.4053 30.9053C32.1052 30.2054 32.4989 29.2565 32.5 28.2667V13.3333C32.484 12.2038 32.0491 11.1205 31.2797 10.2933ZM30.0883 10.6085L28.7667 11.6V9.28747L30.0883 10.6085ZM5.3 3.2C5.3 2.6342 5.52476 2.09158 5.92484 1.69151C6.32492 1.29143 6.86754 1.06667 7.43333 1.06667H25.5667C26.1325 1.06667 26.6751 1.29143 27.0752 1.69151C27.4752 2.09158 27.7 2.6342 27.7 3.2V12.4L17.78 19.84C17.7645 19.8517 17.7432 19.8704 17.7267 19.8837C17.3768 20.1542 16.9416 20.2901 16.5 20.2667C16.0605 20.29 15.6271 20.1564 15.2771 19.8896C15.2593 19.8717 15.2402 19.8551 15.22 19.84L5.3 12.4V3.2ZM4.23333 11.6L2.91173 10.6091L4.23333 9.28747V11.6ZM1.56667 13.3333C1.59015 12.643 1.80287 11.9723 2.1816 11.3947L12.564 19.1813L2.0088 29.7371C1.71891 29.3016 1.56501 28.7898 1.56667 28.2667V13.3333ZM4.23333 30.9333C3.71028 30.9351 3.19857 30.781 2.76347 30.4907L13.4259 19.8283L14.5565 20.6763C15.1024 21.1252 15.7937 21.3589 16.5 21.3333C17.2063 21.3589 17.8976 21.1252 18.4435 20.6763L19.5741 19.8283L30.2371 30.4912C29.8016 30.7811 29.2898 30.935 28.7667 30.9333H4.23333ZM31.4333 28.2667C31.4351 28.7897 31.281 29.3014 30.9907 29.7365L20.436 19.1819L30.8184 11.3952C31.197 11.9727 31.4098 12.6432 31.4333 13.3333V28.2667Z" fill="#2B1505"/>
<path d="M19.1667 5.86663C19.1667 6.29098 19.3352 6.69795 19.6353 6.99801C19.9354 7.29806 20.3423 7.46663 20.7667 7.46663C21.191 7.46663 21.598 7.29806 21.898 6.99801C22.1981 6.69795 22.3667 6.29098 22.3667 5.86663C22.3667 2.17597 19.7267 2.1333 19.7 2.1333C19.5601 2.13344 19.426 2.18884 19.3268 2.28744C19.2276 2.38604 19.1714 2.51984 19.1704 2.6597C19.1694 2.80027 19.2236 2.93563 19.3213 3.03667C19.419 3.1377 19.5525 3.19634 19.6931 3.19997C19.9996 3.23053 20.2903 3.35052 20.5292 3.545C20.768 3.73949 20.9445 3.99989 21.0365 4.29383C20.8067 4.25049 20.5702 4.25877 20.344 4.31808C20.1178 4.3774 19.9076 4.48626 19.7286 4.63679C19.5496 4.78732 19.4064 4.97576 19.3092 5.18846C19.212 5.40116 19.1633 5.63281 19.1667 5.86663ZM20.7667 6.39997C20.6612 6.39997 20.5581 6.36869 20.4704 6.31008C20.3827 6.25148 20.3143 6.16819 20.2739 6.07073C20.2336 5.97328 20.223 5.86604 20.2436 5.76259C20.2642 5.65913 20.315 5.5641 20.3895 5.48951C20.4641 5.41492 20.5592 5.36413 20.6626 5.34355C20.7661 5.32297 20.8733 5.33353 20.9708 5.3739C21.0682 5.41427 21.1515 5.48262 21.2101 5.57033C21.2687 5.65804 21.3 5.76115 21.3 5.86663C21.3 6.00808 21.2438 6.14374 21.1438 6.24376C21.0438 6.34378 20.9081 6.39997 20.7667 6.39997Z" fill="#2B1505"/>
<path d="M23.4333 5.86663C23.4333 6.29098 23.6019 6.69795 23.902 6.99801C24.202 7.29806 24.609 7.46663 25.0333 7.46663C25.4577 7.46663 25.8646 7.29806 26.1647 6.99801C26.4648 6.69795 26.6333 6.29098 26.6333 5.86663C26.6333 2.17597 23.9933 2.1333 23.9667 2.1333C23.8268 2.13344 23.6927 2.18884 23.5935 2.28744C23.4943 2.38604 23.438 2.51984 23.4371 2.6597C23.436 2.80027 23.4902 2.93563 23.588 3.03667C23.6857 3.1377 23.8192 3.19634 23.9597 3.19997C24.2662 3.23053 24.557 3.35052 24.7958 3.545C25.0347 3.73949 25.2111 3.99989 25.3032 4.29383C25.0734 4.25049 24.8368 4.25877 24.6106 4.31808C24.3844 4.3774 24.1742 4.48626 23.9953 4.63679C23.8163 4.78732 23.673 4.97576 23.5759 5.18846C23.4787 5.40116 23.43 5.63281 23.4333 5.86663ZM25.0333 6.39997C24.9278 6.39997 24.8247 6.36869 24.737 6.31008C24.6493 6.25148 24.581 6.16819 24.5406 6.07073C24.5002 5.97328 24.4897 5.86604 24.5102 5.76259C24.5308 5.65913 24.5816 5.5641 24.6562 5.48951C24.7308 5.41492 24.8258 5.36413 24.9293 5.34355C25.0327 5.32297 25.14 5.33353 25.2374 5.3739C25.3349 5.41427 25.4182 5.48262 25.4768 5.57033C25.5354 5.65804 25.5667 5.76115 25.5667 5.86663C25.5667 6.00808 25.5105 6.14374 25.4105 6.24376C25.3104 6.34378 25.1748 6.39997 25.0333 6.39997Z" fill="#2B1505"/>
<path d="M20.2333 15.4666H12.7667C12.6252 15.4666 12.4896 15.5227 12.3895 15.6228C12.2895 15.7228 12.2333 15.8584 12.2333 15.9999C12.2333 16.1413 12.2895 16.277 12.3895 16.377C12.4896 16.477 12.6252 16.5332 12.7667 16.5332H20.2333C20.3748 16.5332 20.5104 16.477 20.6105 16.377C20.7105 16.277 20.7667 16.1413 20.7667 15.9999C20.7667 15.8584 20.7105 15.7228 20.6105 15.6228C20.5104 15.5227 20.3748 15.4666 20.2333 15.4666Z" fill="#2B1505"/>
<path d="M22.3667 13.3333H10.6333C10.4919 13.3333 10.3562 13.3894 10.2562 13.4895C10.1562 13.5895 10.1 13.7251 10.1 13.8666C10.1 14.008 10.1562 14.1437 10.2562 14.2437C10.3562 14.3437 10.4919 14.3999 10.6333 14.3999H22.3667C22.5081 14.3999 22.6438 14.3437 22.7438 14.2437C22.8438 14.1437 22.9 14.008 22.9 13.8666C22.9 13.7251 22.8438 13.5895 22.7438 13.4895C22.6438 13.3894 22.5081 13.3333 22.3667 13.3333Z" fill="#2B1505"/>
<path d="M7.43333 12.2666H25.5667C25.7081 12.2666 25.8438 12.2104 25.9438 12.1104C26.0438 12.0104 26.1 11.8747 26.1 11.7333C26.1 11.5918 26.0438 11.4562 25.9438 11.3562C25.8438 11.2561 25.7081 11.2 25.5667 11.2H7.43333C7.29188 11.2 7.15622 11.2561 7.0562 11.3562C6.95618 11.4562 6.89999 11.5918 6.89999 11.7333C6.89999 11.8747 6.95618 12.0104 7.0562 12.1104C7.15622 12.2104 7.29188 12.2666 7.43333 12.2666Z" fill="#2B1505"/>
<path d="M20.2333 9.06665C20.0919 9.06665 19.9562 9.12284 19.8562 9.22286C19.7562 9.32288 19.7 9.45853 19.7 9.59998C19.7 9.74143 19.7562 9.87709 19.8562 9.97711C19.9562 10.0771 20.0919 10.1333 20.2333 10.1333H24.5C24.6415 10.1333 24.7771 10.0771 24.8771 9.97711C24.9772 9.87709 25.0333 9.74143 25.0333 9.59998C25.0333 9.45853 24.9772 9.32288 24.8771 9.22286C24.7771 9.12284 24.6415 9.06665 24.5 9.06665H20.2333Z" fill="#2B1505"/>
<path d="M15.9667 10.1333C16.2612 10.1333 16.5 9.89454 16.5 9.59998C16.5 9.30543 16.2612 9.06665 15.9667 9.06665C15.6721 9.06665 15.4333 9.30543 15.4333 9.59998C15.4333 9.89454 15.6721 10.1333 15.9667 10.1333Z" fill="#BEC3D2"/>
<path d="M18.1 10.1333C18.3946 10.1333 18.6333 9.89454 18.6333 9.59998C18.6333 9.30543 18.3946 9.06665 18.1 9.06665C17.8055 9.06665 17.5667 9.30543 17.5667 9.59998C17.5667 9.89454 17.8055 10.1333 18.1 10.1333Z" fill="#BEC3D2"/>
</svg>
