<svg width="40" height="48" viewBox="0 0 40 48" fill="none" xmlns="http://www.w3.org/2000/svg">
<path d="M8.888 23.4553L5.13988 21.5779C4.76582 21.3905 4.32538 21.6624 4.32538 22.0807V25.7561C4.32538 26.1154 4.65744 26.3825 5.00825 26.3055L8.88782 25.4552V23.4553H8.888Z" fill="#F9A7A7"/>
<path d="M8.38551 25.1436L5.11438 27.7528C4.92726 27.9021 4.92594 28.1863 5.11194 28.3371L7.14857 29.9897C7.36007 30.1612 7.67826 30.0574 7.74763 29.7937L8.88801 25.4554L8.38551 25.1436Z" fill="#F9A7A7"/>
<path d="M31.112 23.4553L34.8601 21.5779C35.2342 21.3905 35.6746 21.6624 35.6746 22.0807V25.7561C35.6746 26.1154 35.3426 26.3825 34.9917 26.3055L31.1122 25.4552V23.4553H31.112Z" fill="#F9A7A7"/>
<path d="M31.6145 25.1436L34.8856 27.753C35.0727 27.9022 35.0741 28.1865 34.8881 28.3372L32.8514 29.9899C32.6399 30.1614 32.3217 30.0576 32.2524 29.7939L31.112 25.4556L31.6145 25.1436Z" fill="#F9A7A7"/>
<path d="M30.1869 22.8281H20.256H20.2531H10.3222C10.3222 22.8281 1.68896 34.2105 13.1265 38.0334C14.598 38.0334 25.9076 38.0334 27.3828 38.0334C38.8201 34.2105 30.1869 22.8281 30.1869 22.8281Z" fill="#4671C6"/>
<path d="M27.3826 38.4076H13.1265C13.0859 38.4076 13.0458 38.4011 13.0076 38.3883C9.84182 37.3303 7.86707 35.597 7.1377 33.237C5.65495 28.4377 9.84426 22.8367 10.0233 22.6006C10.0942 22.5071 10.2048 22.4521 10.3222 22.4521H30.1869C30.3043 22.4521 30.4149 22.5071 30.4858 22.6006C30.6648 22.8367 34.8541 28.4377 33.3714 33.237C32.642 35.597 30.6673 37.3303 27.5015 38.3883C27.4633 38.4011 27.4231 38.4076 27.3826 38.4076ZM13.1878 37.6576H27.3213C30.2109 36.6793 32.0051 35.1176 32.6546 33.0155C33.8986 28.9893 30.6386 24.1093 29.9955 23.2023H10.5134C9.87051 24.1104 6.61101 28.9963 7.85489 33.0176C8.50495 35.1185 10.2991 36.6795 13.1878 37.6576Z" fill="#3762CC"/>
<path d="M9.46869 16.5188C6.31363 14.7225 6.02169 12.0178 6.152 10.4873L6.12707 10.4814C6.12707 10.4814 3.85588 22.4646 10.9201 26.1293V16.6292C10.4478 16.6033 9.96463 16.5673 9.46869 16.5188Z" fill="#4671C6"/>
<path d="M27.0832 32.53C25.208 32.53 25.2706 32.5293 25.2706 32.5293L25.2701 32.53H13.4233C10.2935 32.53 7.75644 35.0671 7.75644 38.1969C7.75644 40.1137 7.75644 41.4207 7.75644 43.3417H32.7498C32.7498 41.4232 32.7498 40.1142 32.7498 38.1969C32.7498 35.0671 30.2127 32.53 27.0832 32.53Z" fill="#E0EBFC"/>
<path d="M20.2556 32.5303H20.2518V32.533L20.2556 32.5303Z" fill="#A4C9FF"/>
<path d="M26.285 32.5305L21.6828 39.8886C21.0217 40.9455 19.4821 40.9453 18.8212 39.8882L14.2213 32.5305C13.2909 32.5305 11.8036 32.4169 10.1819 33.55L10.8509 37.9354V43.3412H30.2413V37.9354L30.8474 33.9626C29.1031 32.4113 27.2945 32.5309 26.285 32.5305Z" fill="#4671C6"/>
<path d="M21.4381 37.6074H19.0683L18.4648 39.3184L18.8212 39.8885C19.4821 40.9457 21.0217 40.9459 21.6828 39.8889L22.0409 39.3165L21.4381 37.6074Z" fill="#F9A7A7"/>
<path d="M20.2531 33.0322L18.3849 36.2404L19.0681 37.607C19.9254 37.607 20.5803 37.607 21.4406 37.607L22.1227 36.243L20.2531 33.0322Z" fill="#F9A7A7"/>
<path d="M14.5651 31.4391L14.2207 32.5296L17.4873 37.7546L20.2531 33.0321L15.2973 31.0892C14.9981 30.972 14.6621 31.1327 14.5651 31.4391Z" fill="#E0EBFC"/>
<path d="M25.9398 31.4391L26.2843 32.5296L23.0176 37.7546L20.2518 33.0321L25.2076 31.0892C25.5069 30.972 25.8429 31.1327 25.9398 31.4391Z" fill="#E0EBFC"/>
<path d="M17.4875 38.1302C17.3585 38.1302 17.2381 38.0639 17.1695 37.954L13.9029 32.7289C13.8448 32.6357 13.8303 32.5219 13.8633 32.4171L14.2078 31.3268C14.2848 31.0821 14.462 30.8781 14.6936 30.7675C14.9255 30.6567 15.1953 30.6469 15.4342 30.7407L20.3902 32.6835C20.4924 32.7235 20.5719 32.8062 20.6077 32.9099C20.6435 33.0135 20.6324 33.1277 20.5769 33.2222L17.8111 37.9448C17.7448 38.058 17.6242 38.1284 17.4931 38.1302C17.4911 38.1302 17.4892 38.1302 17.4875 38.1302ZM14.6306 32.4781L17.477 37.0311L19.7079 33.2219L15.1605 31.4391C15.0967 31.4144 15.0431 31.4318 15.0168 31.4444C14.9904 31.4569 14.9431 31.4877 14.9227 31.5525C14.9227 31.5525 14.9227 31.5526 14.9227 31.5527L14.6306 32.4781ZM14.5653 31.4395H14.5672H14.5653Z" fill="#3762CC"/>
<path d="M23.0176 38.1303C23.0158 38.1303 23.0139 38.1303 23.0122 38.1303C22.8811 38.1284 22.7604 38.0581 22.6942 37.9448L19.9284 33.2223C19.8729 33.1278 19.8618 33.0136 19.8976 32.9099C19.9335 32.8064 20.013 32.7237 20.115 32.6836L25.071 30.7407C25.3096 30.6469 25.5796 30.6567 25.8114 30.7673C26.043 30.8779 26.2201 31.0818 26.2976 31.3264L26.642 32.4169C26.675 32.5218 26.6606 32.6356 26.6025 32.7288L23.3358 37.9538C23.267 38.0637 23.1466 38.1303 23.0176 38.1303ZM20.7971 33.2217L23.028 37.0309L25.8744 32.4779L25.5821 31.5524C25.5616 31.4873 25.5144 31.4566 25.488 31.444C25.4613 31.4314 25.4079 31.414 25.3441 31.4389L20.7971 33.2217Z" fill="#3762CC"/>
<path d="M25.238 38.0334C25.1444 38.0334 25.0685 38.1094 25.0685 38.2029V40.0824C25.0685 41.2776 25.0108 41.4293 25.265 41.547C26.4828 42.111 26.6006 42.2183 26.9068 42.0765C28.0951 41.526 28.2464 41.5198 28.2464 41.2395C28.2464 40.1601 28.2464 39.3649 28.2464 38.2029C28.2463 37.9693 28.2251 38.0334 25.238 38.0334Z" fill="#E0EBFC"/>
<path d="M26.9068 42.0763C28.0961 41.5254 28.2463 41.5207 28.2463 41.2393C28.2463 38.0321 28.3102 38.0332 28.0768 38.0332H26.6574V42.1306C26.744 42.1305 26.828 42.1126 26.9068 42.0763Z" fill="#6BDDDD"/>
<path d="M32.7498 43.7169H7.75644C7.54944 43.7169 7.38144 43.5489 7.38144 43.3419V38.1971C7.38144 34.8656 10.0918 32.1553 13.4233 32.1553H14.2209C14.3501 32.1553 14.4703 32.2218 14.5389 32.3315L19.1392 39.6901C19.3805 40.0764 19.7968 40.3068 20.2522 40.3068C20.7074 40.3068 21.1233 40.0764 21.365 39.6903L25.9678 32.3313C26.0362 32.2218 26.1564 32.1553 26.2856 32.1553H27.0832C30.4147 32.1553 33.125 34.8656 33.125 38.1971V43.3419C33.1248 43.5491 32.957 43.7169 32.7498 43.7169ZM8.13144 42.9669H32.3748V38.1971C32.3748 35.2792 30.0011 32.9053 27.083 32.9053H26.4931L22.0006 40.0882C21.6215 40.6948 20.9675 41.057 20.2522 41.057C19.5365 41.057 18.8827 40.6948 18.5034 40.088L14.0131 32.9055H13.4233C10.5052 32.9055 8.13144 35.2794 8.13144 38.1973V42.9669Z" fill="#3762CC"/>
<path d="M15.2973 31.0892L20.2524 33.0317L25.2074 31.0892C25.2354 31.0781 25.2639 31.0721 25.2922 31.0657V30.1671C22.1418 31.8067 18.3629 31.8069 15.2109 30.1641V31.0654C15.2399 31.0717 15.269 31.0781 15.2973 31.0892Z" fill="#F9CFCF"/>
<path d="M20.2526 33.4067C20.2061 33.4067 20.1598 33.398 20.1159 33.3808L15.1621 31.4388C15.152 31.4358 15.1421 31.4342 15.1321 31.4319C14.9595 31.3946 14.8365 31.242 14.8365 31.0653V30.164C14.8365 30.033 14.9049 29.9113 15.017 29.8434C15.1291 29.7755 15.2683 29.7708 15.3849 29.8316C18.4321 31.4199 22.0711 31.4208 25.1195 29.8344C25.2358 29.7738 25.3753 29.7785 25.4874 29.8464C25.5993 29.9145 25.6678 30.036 25.6678 30.167V31.0657C25.6678 31.242 25.545 31.3946 25.3726 31.4321C25.3616 31.4345 25.3515 31.4362 25.3415 31.4394L20.3898 33.3808C20.3454 33.3982 20.2991 33.4067 20.2526 33.4067ZM15.5863 30.7997L20.2526 32.6289L24.9176 30.8V30.7663C21.9553 32.1101 18.5478 32.1092 15.5863 30.7638V30.7997Z" fill="#3762CC"/>
<path d="M31.1135 16.5452L29.2976 15.2377C28.0569 14.3445 27.2139 13.0511 26.8666 11.6201C25.2991 12.9401 23.0688 13.7782 20.9604 14.2331L20.9606 14.2333C20.7393 14.2755 19.3102 14.6083 17.6347 14.6209L17.6356 14.6188C15.0303 14.7247 11.9981 14.2594 9.69313 13.0314C9.69295 13.0314 9.69276 13.0312 9.69276 13.0312C9.35413 14.4426 9.39557 15.3675 9.39557 16.5452C7.50538 16.5071 6.01401 18.0137 6.01401 19.8247C6.01401 21.7637 7.70657 23.2972 9.68245 23.0884C10.8029 27.8492 15.1093 31.3965 20.2546 31.3965C25.4 31.3965 29.7063 27.849 30.8268 23.0884C32.7999 23.2971 34.4953 21.7663 34.4953 19.8247C34.4951 17.9752 32.9551 16.5 31.1135 16.5452Z" fill="#F9CFCF"/>
<path d="M20.2567 26.698C20.2565 26.698 20.2567 26.698 20.2567 26.698C19.511 26.698 18.8176 26.43 18.3543 25.963C18.0048 25.6105 17.8121 25.1665 17.8121 24.7129C17.8121 24.5059 17.9801 24.3379 18.1871 24.3379C18.3941 24.3379 18.5621 24.5059 18.5621 24.7129C18.5621 24.9709 18.6744 25.2206 18.8866 25.4348C19.2103 25.761 19.7096 25.9481 20.2565 25.9481C20.7991 25.9481 21.296 25.761 21.6196 25.4348C21.8321 25.2206 21.9442 24.9711 21.9442 24.7129C21.9442 24.5059 22.1122 24.3379 22.3192 24.3379C22.5262 24.3379 22.6942 24.5059 22.6942 24.7129C22.6942 25.1665 22.5016 25.6105 22.1519 25.963C21.6886 26.43 20.9977 26.698 20.2567 26.698Z" fill="#3762CC"/>
<path d="M14.8827 22.8279C14.1599 22.8279 13.5717 22.2399 13.5717 21.517V19.3323C13.5717 18.6095 14.1597 18.0215 14.8827 18.0215C15.6054 18.0215 16.1936 18.6095 16.1936 19.3323V21.517C16.1936 22.2399 15.6056 22.8279 14.8827 22.8279Z" fill="#3762CC"/>
<path d="M25.6237 22.8279C24.9009 22.8279 24.3127 22.2399 24.3127 21.517V19.3323C24.3127 18.6095 24.9007 18.0215 25.6237 18.0215C26.3463 18.0215 26.9345 18.6095 26.9345 19.3323V21.517C26.9345 22.2399 26.3465 22.8279 25.6237 22.8279Z" fill="#3762CC"/>
<path d="M20.2544 31.7712C15.113 31.7712 10.6919 28.3785 9.39407 23.481C8.46444 23.4977 7.54607 23.1608 6.84951 22.5342C6.08019 21.8419 5.63901 20.8544 5.63901 19.8244C5.63901 18.8387 6.02863 17.9142 6.73626 17.2208C7.35726 16.6122 8.15695 16.2505 9.01963 16.1813C9.01588 15.1469 9.01476 14.2497 9.32807 12.9434C9.35488 12.8322 9.43082 12.7392 9.53451 12.691C9.62282 12.6499 9.72257 12.6449 9.81332 12.6758C9.83263 12.6824 9.85157 12.6904 9.86976 12.7002C11.9 13.7819 14.7974 14.3595 17.6206 14.2439C17.6383 14.2433 17.6553 14.2437 17.672 14.2454C19.1306 14.2298 20.3754 13.9714 20.7869 13.8859L20.8906 13.8647C23.2533 13.3547 25.2929 12.4551 26.6253 11.3333C26.7243 11.2495 26.8604 11.2234 26.9834 11.2637C27.1068 11.3042 27.2006 11.4055 27.2311 11.5317C27.5639 12.9038 28.3756 14.1119 29.5169 14.9335L31.2333 16.1693C32.1862 16.1781 33.0819 16.5477 33.7685 17.2172C34.4788 17.9104 34.8701 18.8363 34.8701 19.8246C34.8701 20.8545 34.4289 21.8421 33.6598 22.5342C32.9634 23.161 32.0499 23.4975 31.115 23.4812C29.8171 28.3785 25.3961 31.7712 20.2544 31.7712ZM9.68282 22.713C9.85476 22.713 10.0072 22.8312 10.0475 23.0022C11.1588 27.7238 15.3562 31.0214 20.2546 31.0214C25.1533 31.0214 29.3506 27.7238 30.4618 23.0024C30.5051 22.8184 30.6794 22.6939 30.8662 22.7153C31.7019 22.8038 32.5381 22.5345 33.1584 21.9767C33.7696 21.4266 34.1203 20.6423 34.1203 19.8246C34.1203 19.0401 33.8094 18.3047 33.245 17.754C32.6735 17.1966 31.9239 16.899 31.1231 16.92C31.0432 16.9208 30.9613 16.8972 30.8947 16.8495L29.0788 15.5421C27.9476 14.7278 27.1036 13.5767 26.6613 12.2594C24.8924 13.5653 22.6604 14.25 21.0397 14.5997L20.9416 14.6198C19.7799 14.8617 18.6682 14.988 17.6379 14.9959C17.6287 14.9965 17.6195 14.9959 17.6105 14.9952C14.8685 15.1007 12.0538 14.577 9.95676 13.5831C9.76438 14.5727 9.76701 15.3344 9.7702 16.1982L9.77094 16.5452C9.77094 16.6461 9.73045 16.7425 9.65826 16.813C9.58626 16.8835 9.48988 16.9238 9.38844 16.92C8.57957 16.9082 7.82863 17.2011 7.26163 17.7567C6.69913 18.3077 6.38957 19.0422 6.38957 19.8246C6.38957 20.6421 6.74019 21.4266 7.35182 21.9769C7.97151 22.5345 8.80607 22.8036 9.64363 22.7153C9.65619 22.7138 9.66951 22.713 9.68282 22.713ZM9.69257 13.0309H9.69445H9.69257Z" fill="#3762CC"/>
<path d="M20.2522 41.0565C20.252 41.0565 20.252 41.0565 20.2518 41.0565C19.5363 41.0565 18.8825 40.694 18.5032 40.0873L18.1468 39.5171C18.0864 39.4204 18.0731 39.3013 18.1113 39.1935L18.7151 37.4825C18.768 37.3325 18.9097 37.2324 19.0687 37.2324H21.4385C21.5975 37.2324 21.7393 37.3327 21.7921 37.4827L22.395 39.1916C22.433 39.2992 22.4199 39.4183 22.3595 39.5152L22.0016 40.0879C21.6213 40.6942 20.9677 41.0565 20.2522 41.0565ZM18.8786 39.2726L19.1394 39.6896C19.3807 40.0759 19.7968 40.3063 20.2522 40.3065H20.2524C20.7078 40.3065 21.1237 40.076 21.3654 39.69L21.6273 39.2707L21.173 37.9824H19.3338L18.8786 39.2726Z" fill="#3762CC"/>
<path d="M21.4409 37.982H19.0685C18.9264 37.982 18.7966 37.9018 18.7331 37.7748L18.0496 36.4082C17.993 36.2949 17.9975 36.161 18.0611 36.0517L19.9293 32.8436C19.9964 32.7283 20.12 32.6572 20.2535 32.6572C20.387 32.6572 20.5104 32.7281 20.5777 32.8436L22.4472 36.0544C22.5108 36.1637 22.5151 36.2975 22.4587 36.4106L21.7767 37.7747C21.7128 37.9018 21.5829 37.982 21.4409 37.982ZM19.3002 37.232H21.2092L21.6969 36.2565L20.2535 33.7775L18.8114 36.254L19.3002 37.232Z" fill="#3762CC"/>
<path d="M20 44.0676V44.9811H1.95407V42.4967C5.39676 41.1233 9.17713 40.8355 12.788 41.6717L19.2929 43.1781C19.7069 43.2739 20 43.6427 20 44.0676Z" fill="#E0EBFC"/>
<path d="M20 44.0676V44.9811H38.0459V42.4967C34.6032 41.1233 30.8229 40.8355 27.212 41.6717L20.7071 43.1781C20.2931 43.2739 20 43.6427 20 44.0676Z" fill="#E0EBFC"/>
<path d="M20 46.8555H1.57907C1.06138 46.8555 0.641571 46.4357 0.641571 45.918C0.641571 45.4003 1.06138 44.9805 1.57907 44.9805H20V46.8555Z" fill="#4671C6"/>
<path d="M20 46.8555H38.4209C38.9386 46.8555 39.3584 46.4357 39.3584 45.918C39.3584 45.4003 38.9386 44.9805 38.4209 44.9805H20V46.8555Z" fill="#4671C6"/>
<path d="M20.2544 31.7712C15.113 31.7712 10.6919 28.3785 9.39407 23.481C8.46444 23.4977 7.54607 23.1608 6.84951 22.5342C6.08019 21.8419 5.63901 20.8544 5.63901 19.8244C5.63901 18.8387 6.02863 17.9142 6.73626 17.2208C7.35726 16.6122 8.15695 16.2505 9.01963 16.1813C9.01588 15.1469 9.01476 14.2497 9.32807 12.9434C9.35488 12.8322 9.43082 12.7392 9.53451 12.691C9.62282 12.6499 9.72257 12.6449 9.81332 12.6758C9.83263 12.6824 9.85157 12.6904 9.86976 12.7002C11.9 13.7819 14.7974 14.3595 17.6206 14.2439C17.6383 14.2433 17.6553 14.2437 17.672 14.2454C19.1306 14.2298 20.3754 13.9714 20.7869 13.8859L20.8906 13.8647C23.2533 13.3547 25.2929 12.4551 26.6253 11.3333C26.7243 11.2495 26.8604 11.2234 26.9834 11.2637C27.1068 11.3042 27.2006 11.4055 27.2311 11.5317C27.5639 12.9038 28.3756 14.1119 29.5169 14.9335L31.2333 16.1693C32.1862 16.1781 33.0819 16.5477 33.7685 17.2172C34.4788 17.9104 34.8701 18.8363 34.8701 19.8246C34.8701 20.8545 34.4289 21.8421 33.6598 22.5342C32.9634 23.161 32.0499 23.4975 31.115 23.4812C29.8171 28.3785 25.3961 31.7712 20.2544 31.7712ZM9.68282 22.713C9.85476 22.713 10.0072 22.8312 10.0475 23.0022C11.1588 27.7238 15.3562 31.0214 20.2546 31.0214C25.1533 31.0214 29.3506 27.7238 30.4618 23.0024C30.5051 22.8184 30.6794 22.6939 30.8662 22.7153C31.7019 22.8038 32.5381 22.5345 33.1584 21.9767C33.7696 21.4266 34.1203 20.6423 34.1203 19.8246C34.1203 19.0401 33.8094 18.3047 33.245 17.754C32.6735 17.1966 31.9239 16.899 31.1231 16.92C31.0432 16.9208 30.9613 16.8972 30.8947 16.8495L29.0788 15.5421C27.9476 14.7278 27.1036 13.5767 26.6613 12.2594C24.8924 13.5653 22.6604 14.25 21.0397 14.5997L20.9416 14.6198C19.7799 14.8617 18.6682 14.988 17.6379 14.9959C17.6287 14.9965 17.6195 14.9959 17.6105 14.9952C14.8685 15.1007 12.0538 14.577 9.95676 13.5831C9.76438 14.5727 9.76701 15.3344 9.7702 16.1982L9.77094 16.5452C9.77094 16.6461 9.73045 16.7425 9.65826 16.813C9.58626 16.8835 9.48988 16.9238 9.38844 16.92C8.57957 16.9082 7.82863 17.2011 7.26163 17.7567C6.69913 18.3077 6.38957 19.0422 6.38957 19.8246C6.38957 20.6421 6.74019 21.4266 7.35182 21.9769C7.97151 22.5345 8.80607 22.8036 9.64363 22.7153C9.65619 22.7138 9.66951 22.713 9.68282 22.713ZM9.69257 13.0309H9.69445H9.69257Z" fill="#3762CC"/>
<path d="M30.8268 23.0882C30.5731 24.1663 30.1544 25.181 29.6013 26.1077C31.2202 25.2566 32.3452 23.9668 33.1179 22.4854C32.471 22.9481 31.6704 23.1774 30.8268 23.0882Z" fill="#4671C6"/>
<path d="M29.6013 26.4821C29.5006 26.4821 29.4016 26.4418 29.3289 26.3649C29.2134 26.2428 29.1929 26.0589 29.2792 25.9147C29.8233 25.0033 30.2212 24.0232 30.4616 23.0017C30.5049 22.8178 30.6766 22.6933 30.866 22.7147C31.5886 22.7908 32.3107 22.601 32.8994 22.1795C33.0404 22.0785 33.2324 22.0873 33.3637 22.2015C33.4948 22.3153 33.5306 22.5041 33.4503 22.658C32.5685 24.3485 31.3321 25.6207 29.7757 26.439C29.7206 26.468 29.6606 26.4821 29.6013 26.4821ZM31.1146 23.4806C30.9738 24.0099 30.7933 24.5278 30.5743 25.0312C31.1698 24.5629 31.6978 24.0017 32.1549 23.3508C31.8178 23.4427 31.4677 23.4858 31.1146 23.4806Z" fill="#3762CC"/>
<path d="M6.15219 19.265C6.14619 19.265 6.14 19.2649 6.13381 19.2647C5.9615 19.2564 5.81731 19.1315 5.78394 18.9624C4.95612 14.7452 5.72562 10.5859 5.75881 10.4107C5.77794 10.3102 5.83719 10.2219 5.92287 10.166C6.00875 10.1104 6.11375 10.092 6.21312 10.1154L6.23806 10.1212C6.41919 10.1638 6.54162 10.3327 6.52587 10.518C6.40906 11.8884 6.65131 14.4425 9.58437 16.1501C9.69969 16.2172 9.77075 16.3408 9.77075 16.4743V16.5444C9.77075 16.6453 9.73006 16.7419 9.65806 16.8124C9.58606 16.8829 9.49662 16.9232 9.38787 16.9194C8.07556 16.8877 6.8855 17.7467 6.51125 18.9977C6.46362 19.1569 6.31681 19.265 6.15219 19.265ZM6.19062 13.4402C6.1295 14.6593 6.13587 16.1516 6.33612 17.687C6.84106 16.9946 7.58037 16.4938 8.41962 16.2814C7.24756 15.413 6.56937 14.4088 6.19062 13.4402Z" fill="#3762CC"/>
<path d="M10.9194 26.5034C10.8605 26.5034 10.8014 26.4895 10.7474 26.4614C9.16344 25.6396 7.90832 24.3507 7.0175 22.6304C6.93725 22.4755 6.97457 22.2857 7.10732 22.1727C7.24007 22.0596 7.43338 22.0527 7.57344 22.1564C8.16744 22.5949 8.90282 22.7933 9.64288 22.7151C9.83113 22.6949 10.004 22.8182 10.0473 23.002C10.2894 24.0308 10.6914 25.0174 11.2415 25.9347C11.2766 25.993 11.2949 26.0597 11.2949 26.1276C11.2949 26.2585 11.2267 26.3806 11.1148 26.4484C11.0551 26.4848 10.9874 26.5034 10.9194 26.5034ZM8.32232 23.3438C8.79126 24.013 9.33463 24.5879 9.94926 25.0643C9.72388 24.5507 9.53863 24.0216 9.39444 23.4811C9.02825 23.4857 8.66826 23.4411 8.32232 23.3438Z" fill="#3762CC"/>
<path d="M20 45.3557H1.95407C1.74707 45.3557 1.57907 45.1877 1.57907 44.9807V42.4963C1.57907 42.343 1.67263 42.205 1.81513 42.1481C5.34576 40.7398 9.16907 40.4483 12.8728 41.3061L19.3775 42.8123C19.9649 42.9484 20.375 43.4644 20.375 44.0672V44.9809C20.375 45.1877 20.207 45.3557 20 45.3557ZM2.32907 44.6057H19.625V44.067C19.625 43.8152 19.4536 43.5996 19.2082 43.5428L12.7034 42.0366C9.23282 41.233 5.65138 41.4808 2.32907 42.7525V44.6057Z" fill="#3762CC"/>
<path d="M38.0459 45.3558H20C19.793 45.3558 19.625 45.1878 19.625 44.9808V44.0671C19.625 43.4643 20.0353 42.9483 20.6225 42.8122L27.1272 41.306C30.8309 40.4484 34.6544 40.7398 38.1849 42.1481C38.3274 42.2049 38.4209 42.3429 38.4209 42.4963V44.9806C38.4209 45.1878 38.2531 45.3558 38.0459 45.3558ZM20.375 44.6058H37.6709V42.7526C34.3492 41.4809 30.7676 41.2331 27.2966 42.0367L20.7918 43.5429C20.5464 43.5997 20.375 43.8153 20.375 44.0671V44.6058Z" fill="#3762CC"/>
<path d="M20 47.2305H1.57907C0.855509 47.2305 0.266571 46.6417 0.266571 45.918C0.266571 45.1942 0.855509 44.6055 1.57907 44.6055H20C20.207 44.6055 20.375 44.7735 20.375 44.9805V46.8555C20.375 47.0625 20.207 47.2305 20 47.2305ZM1.57907 45.3555C1.26895 45.3555 1.01657 45.6078 1.01657 45.918C1.01657 46.2281 1.26895 46.4805 1.57907 46.4805H19.625V45.3555H1.57907Z" fill="#3762CC"/>
<path d="M38.4209 47.2305H20C19.793 47.2305 19.625 47.0625 19.625 46.8555V44.9805C19.625 44.7735 19.793 44.6055 20 44.6055H38.4209C39.1445 44.6055 39.7334 45.1942 39.7334 45.918C39.7334 46.6417 39.1445 47.2305 38.4209 47.2305ZM20.375 46.4805H38.4209C38.7311 46.4805 38.9834 46.2281 38.9834 45.918C38.9834 45.6078 38.7311 45.3555 38.4209 45.3555H20.375V46.4805Z" fill="#3762CC"/>
<path d="M28.6844 9.07753H28.6828C28.8841 8.40309 28.8913 7.79034 28.8419 7.33678C28.8089 5.14659 27.3429 3.68859 25.9228 2.78653H25.9229C23.1866 0.794905 18.4863 0.864092 15.2111 1.68534L15.2137 1.68553C6.5917 3.41465 6.12708 10.4808 6.12708 10.4808C6.12708 10.4808 6.1372 10.4813 6.1522 10.4819C6.02095 12.0115 6.31045 14.7202 9.46851 16.5181C13.3378 16.8972 17.372 16.636 21.0616 15.2647L21.0618 15.265C23.7851 14.2321 27.9513 11.8801 28.6844 9.07753Z" fill="#4671C6"/>
<path d="M34.3556 10.4809C34.3556 10.4809 32.7549 4.36299 28.2539 5.13118C28.9621 6.41218 29.0279 8.14393 28.6087 9.30793C28.3104 10.213 27.6826 11.0412 26.9075 11.7734C27.2765 13.1431 28.1017 14.3764 29.2978 15.2374L31.1137 16.5449C32.6109 16.5081 33.9086 17.4764 34.3417 18.8337C35.1466 14.6577 34.3556 10.4809 34.3556 10.4809Z" fill="#4671C6"/>
<path d="M34.3413 19.2085C34.1791 19.2085 34.034 19.1037 33.9843 18.9475C33.5932 17.7219 32.4224 16.8837 31.1227 16.9197C31.0428 16.9205 30.9609 16.8969 30.8943 16.8492L29.0784 15.5418C27.8431 14.6525 26.9435 13.3488 26.5452 11.8709C26.5092 11.7378 26.5494 11.5955 26.6497 11.5008C27.4601 10.7352 27.9993 9.95786 28.2524 9.19042C28.6102 8.19667 28.6107 6.55174 27.9258 5.31236C27.8671 5.20605 27.8634 5.07799 27.9159 4.96849C27.9686 4.85917 28.0709 4.78192 28.1907 4.76149C32.9746 3.94605 34.7015 10.3216 34.7182 10.3861C34.7204 10.3944 34.7221 10.4028 34.7238 10.4112C34.7568 10.5847 35.5188 14.7067 34.7096 18.9046C34.6771 19.073 34.5346 19.1979 34.3634 19.208C34.3561 19.2084 34.3488 19.2085 34.3413 19.2085ZM31.2335 16.169C32.3982 16.1815 33.4754 16.751 34.1504 17.6549C34.6076 14.1074 34.0327 10.8025 33.9897 10.5639C33.9129 10.286 32.5139 5.44099 29.0032 5.44099C28.9421 5.44099 28.8807 5.44249 28.8185 5.44549C29.3221 6.68055 29.3898 8.24636 28.9617 9.43474C28.6906 10.2573 28.1414 11.0836 27.3307 11.8859C27.71 13.1107 28.4804 14.1865 29.5171 14.933L31.2335 16.169Z" fill="#3762CC"/>
<path d="M12.6365 17.0524C11.5955 17.0524 10.5273 16.9988 9.43232 16.8916C9.38 16.8865 9.32919 16.8704 9.28344 16.8443C6.0185 14.9856 5.663 12.1844 5.76838 10.5895C5.75544 10.5468 5.75 10.5018 5.753 10.4564C5.75788 10.3829 6.3365 3.09757 15.1139 1.32344C15.116 1.32288 15.1179 1.32232 15.1201 1.32175C18.6061 0.447629 23.3613 0.466192 26.1343 2.47638C28.1161 3.73882 29.1815 5.41094 29.2166 7.31369C29.2618 7.74588 29.2678 8.40757 29.0523 9.15007C29.0508 9.15757 29.0491 9.16507 29.0473 9.17238C28.3044 12.0113 24.353 14.4179 21.1949 15.6158C21.1888 15.6183 21.1824 15.6203 21.1758 15.6226C18.6093 16.5739 15.7469 17.0523 12.6365 17.0524ZM9.58569 16.1528C13.8138 16.5571 17.6304 16.1401 20.9311 14.9133C20.9358 14.9116 20.9405 14.9099 20.9452 14.9084C23.3471 13.9943 27.5729 11.7349 28.3132 9.0145C28.3158 8.9995 28.3192 8.98469 28.3237 8.97007C28.5166 8.32338 28.5093 7.747 28.4692 7.37707C28.4679 7.36544 28.4671 7.35382 28.4669 7.34219C28.4416 5.67025 27.518 4.24394 25.7216 3.10282C25.7148 3.09869 25.7084 3.09419 25.7021 3.0895C23.1339 1.22013 18.6478 1.21582 15.3298 2.04213C15.3161 2.04644 15.302 2.05019 15.2876 2.05319C7.65856 3.58319 6.629 9.46 6.51425 10.3834C6.52588 10.4256 6.52982 10.4697 6.52607 10.5139C6.40794 11.8913 6.65132 14.4454 9.58569 16.1528Z" fill="#3762CC"/>
</svg>
