<svg width="48" height="48" viewBox="0 0 48 48" fill="none" xmlns="http://www.w3.org/2000/svg">
<path d="M23.9999 3.83691C12.8645 3.83691 3.83701 12.8645 3.83701 24.0001C3.83701 35.1354 12.8644 44.1627 23.9999 44.1627C35.1354 44.1627 44.1628 35.1354 44.1628 24.0001C44.1628 12.8645 35.1353 3.83691 23.9999 3.83691Z" fill="#FFFEDF"/>
<path d="M23.9999 0.09375C10.8179 0.09375 0.09375 10.818 0.09375 24.0002C0.09375 37.1821 10.8179 47.9062 23.9999 47.9062C37.1819 47.9062 47.9062 37.1821 47.9062 24.0002C47.9062 10.818 37.1819 0.09375 23.9999 0.09375ZM23.9999 47.1405C11.2402 47.1405 0.859594 36.7598 0.859594 24.0002C0.859594 11.2404 11.2402 0.859594 23.9999 0.859594C36.7595 0.859594 47.1404 11.2404 47.1404 24.0002C47.1404 36.7598 36.7595 47.1405 23.9999 47.1405Z" fill="#FFFEDF"/>
<path d="M33.0605 24.8618C33.0437 24.809 33.0243 24.7571 33.0023 24.7062C33.002 24.7052 33.0015 24.7042 33.0011 24.7033C32.9799 24.6543 32.9562 24.6064 32.9302 24.5596C32.9285 24.5564 32.9268 24.5533 32.925 24.5501C32.9004 24.5063 32.8734 24.4638 32.8448 24.4224C32.841 24.4168 32.8373 24.411 32.8334 24.4055C32.8064 24.3674 32.7772 24.3307 32.7469 24.2949C32.7403 24.2871 32.7341 24.2791 32.7274 24.2715C32.6986 24.2388 32.6678 24.2077 32.6362 24.1772C32.6268 24.1681 32.6178 24.1585 32.608 24.1496C32.5777 24.1215 32.5452 24.0954 32.5123 24.0695C32.5002 24.0599 32.4889 24.0498 32.4764 24.0405C32.4429 24.0157 32.4074 23.993 32.3717 23.9706C32.3587 23.9624 32.3466 23.9534 32.3332 23.9456C32.2837 23.9164 32.2325 23.8895 32.179 23.8652C32.179 23.8652 29.977 22.5398 27.7782 21.5852C26.1064 20.8594 23.9274 20.1114 22.8841 20.0271C22.4342 19.9907 21.6738 19.9392 21.2073 20.341C20.9299 20.5799 20.6175 21.7305 20.2278 22.0928C19.4422 22.8231 18.5148 22.9784 18.0094 22.9006C17.6142 22.8399 17.8057 21.6986 17.8057 21.6986C17.8057 21.6986 18.4181 19.0665 18.9562 17.8918C18.3547 18.0211 17.7705 18.1197 17.4546 18.0953C17.1102 18.0688 16.3395 17.7421 15.5754 17.3799L12.6088 25.0475C13.0396 25.262 13.4416 25.4781 13.7032 25.6547C14.5527 26.2282 14.8424 27.1645 15.4004 28.1722C15.4645 28.288 15.5939 28.4364 15.7764 28.6094L16.5759 27.1813C16.9052 26.5934 17.7049 26.4152 18.3622 26.7831C18.8667 27.0655 19.1395 27.5867 19.0919 28.0799C19.4957 27.4938 20.2751 27.2944 20.8943 27.6416C21.5307 27.9978 21.7624 28.7993 21.4352 29.461C21.8317 29.0427 22.5057 28.9428 23.0696 29.2578C23.7276 29.6266 23.9839 30.4194 23.6425 31.0289L23.634 31.044C23.9849 30.7968 24.5161 30.7798 24.981 31.0402C25.5899 31.3815 25.8541 32.0672 25.5712 32.5716L24.8995 33.7722L26.002 34.3943C26.7263 34.7684 27.6156 34.4858 27.9905 33.7617C28.2508 33.2583 28.1924 32.6748 27.8894 32.2399C28.6289 32.5304 29.4835 32.2209 29.8566 31.4997C30.1702 30.8939 30.0496 30.1793 29.6095 29.7073C30.4002 30.083 31.3419 29.7744 31.724 29.0064C32.097 28.2552 31.7966 27.3431 31.0569 26.9249C31.8226 27.1432 32.6532 26.776 32.9924 26.0291C33.1658 25.6469 33.1779 25.2331 33.0605 24.8618Z" fill="#FDB813"/>
<path d="M24.9809 31.0405C24.516 30.78 23.9848 30.797 23.6339 31.0442L23.6424 31.029C23.9838 30.4196 23.7275 29.6267 23.0695 29.258C22.5055 28.943 21.8317 29.0428 21.4351 29.4612C21.7623 28.7995 21.5305 27.9979 20.8942 27.6417C20.275 27.2946 19.4956 27.494 19.0918 28.08C19.1394 27.5869 18.8666 27.0657 18.3621 26.7833C17.7047 26.4153 16.9051 26.5936 16.5758 27.1814L15.5001 29.1032C15.1703 29.6919 15.4367 30.4667 16.0945 30.8349C16.6321 31.1361 17.2643 31.0712 17.6575 30.7168C17.4925 31.3182 17.7391 31.9703 18.2959 32.2817C18.8922 32.6159 19.6373 32.4422 20.0519 31.9039C19.8688 32.4738 20.1359 33.1331 20.7178 33.4586C21.2782 33.772 21.9472 33.6753 22.3446 33.2637C22.2623 33.7201 22.5295 34.2382 23.0325 34.5203C23.6416 34.8612 24.3648 34.7276 24.6472 34.2232L25.5711 32.572C25.854 32.0675 25.5898 31.3818 24.9809 31.0405Z" fill="#FFE37B"/>
<path d="M32.3435 16.2374L30.2546 16.9368L29.8032 17.004C29.8003 17.0036 25.3121 16.2334 24.172 16.2334C23.0315 16.2334 19.8465 16.8938 19.2696 17.3901C18.6926 17.8865 17.8057 21.6988 17.8057 21.6988C17.8057 21.6988 17.6141 22.8401 18.0093 22.9009C18.5148 22.9787 19.4421 22.8233 20.2277 22.0931C20.6174 21.7308 20.9299 20.5801 21.2072 20.3412C21.6738 19.9394 22.4341 19.991 22.884 20.0274C23.9273 20.1116 26.1062 20.8597 27.7781 21.5855C29.9769 22.5401 32.1789 23.8655 32.1789 23.8655C32.6184 24.0649 32.9252 24.4352 33.0603 24.8619C33.0603 24.8619 33.2474 24.3331 33.5455 24.1128C33.6702 24.0206 34.3882 23.7986 35.1809 23.5714L32.3435 16.2374Z" fill="#FFE37B"/>
<path d="M24.9809 31.0405C24.516 30.78 23.9848 30.797 23.6339 31.0442L23.6424 31.029C23.9838 30.4196 23.7275 29.6267 23.0695 29.258C22.5055 28.943 21.8317 29.0428 21.4351 29.4612C21.7623 28.7995 21.5305 27.9979 20.8942 27.6417C20.275 27.2946 19.4956 27.494 19.0918 28.08C19.1394 27.5869 18.8666 27.0657 18.3621 26.7833C17.7047 26.4153 16.9051 26.5936 16.5758 27.1814L15.5001 29.1032C15.1703 29.6919 15.4367 30.4667 16.0945 30.8349C16.6321 31.1361 17.2643 31.0712 17.6575 30.7168C17.4925 31.3182 17.7391 31.9703 18.2959 32.2817C18.8922 32.6159 19.6373 32.4422 20.0519 31.9039C19.8688 32.4738 20.1359 33.1331 20.7178 33.4586C21.2782 33.772 21.9472 33.6753 22.3446 33.2637C22.2623 33.7201 22.5295 34.2382 23.0325 34.5203C23.6416 34.8612 24.3648 34.7276 24.6472 34.2232L25.5711 32.572C25.854 32.0675 25.5898 31.3818 24.9809 31.0405Z" fill="#FFE37B"/>
<path d="M32.1128 15.6419L35.7054 24.9275C35.893 25.4125 36.4388 25.6528 36.9227 25.4656L39.6884 24.3956C40.1735 24.2079 40.4141 23.6633 40.2265 23.1783L36.6339 13.8928C36.4467 13.4088 35.9017 13.1669 35.4167 13.3546L32.651 14.4247C32.167 14.6118 31.9256 15.158 32.1128 15.6419Z" fill="#5932AE"/>
<path d="M34.3208 16.4928C34.6918 16.3492 34.8762 15.9321 34.7326 15.5612C34.5891 15.1902 34.172 15.0058 33.801 15.1493C33.43 15.2928 33.2456 15.7099 33.3892 16.0809C33.5327 16.4519 33.9498 16.6363 34.3208 16.4928Z" fill="white"/>
<path d="M15.8871 16.5746L12.2946 25.8601C12.107 26.3451 11.5612 26.5855 11.0773 26.3982L8.31159 25.3282C7.82652 25.1405 7.58587 24.5959 7.77346 24.1109L11.3661 14.8254C11.5533 14.3414 12.0983 14.0996 12.5833 14.2872L15.349 15.3573C15.833 15.5445 16.0744 16.0906 15.8871 16.5746Z" fill="#330D84"/>
<path d="M14.6083 17.014C14.7519 16.643 14.5675 16.2259 14.1965 16.0824C13.8255 15.9389 13.4084 16.1233 13.2649 16.4943C13.1213 16.8653 13.3057 17.2824 13.6767 17.4259C14.0477 17.5694 14.4648 17.385 14.6083 17.014Z" fill="white"/>
<path d="M31.8346 12.7309L32.0495 12.7847L31.8346 12.8385C30.5768 13.1537 29.5951 14.1357 29.28 15.3935L29.2259 15.6081L29.172 15.3935C28.8569 14.1357 27.8751 13.1536 26.6168 12.8385L26.4028 12.7847L26.6168 12.7309C27.8751 12.4157 28.8569 11.4335 29.172 10.1763L29.2259 9.96191L29.28 10.1763C29.5951 11.4335 30.5768 12.4157 31.8346 12.7309Z" fill="#8AC9F9"/>
<path d="M12.9291 30.7007L13.1355 30.7524L12.9291 30.8042C11.7204 31.107 10.7771 32.0506 10.4744 33.2593L10.4225 33.4654L10.3707 33.2593C10.068 32.0507 9.1245 31.1071 7.9155 30.8042L7.70981 30.7524L7.9155 30.7007C9.1245 30.3979 10.068 29.454 10.3707 28.246L10.4225 28.04L10.4744 28.246C10.7772 29.454 11.7204 30.3979 12.9291 30.7007Z" fill="#330D84"/>
<path d="M14.9689 11.7208L15.1068 11.7554L14.9689 11.79C14.1615 11.9923 13.5313 12.6226 13.3291 13.43L13.2944 13.5677L13.2598 13.43C13.0576 12.6225 12.4273 11.9923 11.6197 11.79L11.4822 11.7554L11.6197 11.7208C12.4273 11.5185 13.0576 10.888 13.2598 10.081L13.2944 9.94336L13.3291 10.081C13.5314 10.888 14.1615 11.5185 14.9689 11.7208Z" fill="#330D84"/>
<path d="M31.2223 35.5222L31.3754 35.5605L31.2223 35.5989C30.3259 35.8235 29.6263 36.5232 29.4018 37.4197L29.3632 37.5726L29.3248 37.4197C29.1003 36.5232 28.4005 35.8235 27.5039 35.5989L27.3514 35.5605L27.5039 35.5222C28.4005 35.2975 29.1003 34.5976 29.3248 33.7016L29.3632 33.5488L29.4018 33.7016C29.6264 34.5976 30.326 35.2976 31.2223 35.5222Z" fill="#FDB813"/>
<path d="M33.7383 32.2826L33.8318 32.3061L33.7383 32.3295C33.1912 32.4666 32.7641 32.8938 32.6271 33.4409L32.6035 33.5343L32.5801 33.4409C32.443 32.8937 32.0159 32.4666 31.4686 32.3295L31.3755 32.3061L31.4686 32.2826C32.0159 32.1456 32.443 31.7182 32.5801 31.1714L32.6035 31.0781L32.6271 31.1714C32.7641 31.7182 33.1912 32.1456 33.7383 32.2826Z" fill="#FDB813"/>
</svg>
