<svg width="34" height="24" viewBox="0 0 34 24" fill="none" xmlns="http://www.w3.org/2000/svg">
<path fill-rule="evenodd" clip-rule="evenodd" d="M22.6176 23.5416C25.6938 24.6928 29.0776 23.5416 30.7696 21.5844C34.3072 20.0878 34.3072 16.1735 31.6924 13.7558C30.3081 12.3743 28.6162 12.4895 27.0781 13.0651C26.9243 13.0651 26.7705 13.0651 26.6167 13.0651C26.3091 9.1508 28.9238 5.92727 31.5386 2.47348C31.6924 2.58861 32.1539 2.70373 32.3077 2.47348C32.6153 2.01298 33.0767 1.55247 33.2305 0.976841C33.2305 0.861715 33.2305 0.631463 33.0767 0.516336C33.0767 0.170958 32.4615 -0.0592945 32.0001 0.286084C31.8462 0.40121 31.8462 0.516336 31.6924 0.631463C28.77 2.24323 26.1552 4.3155 24.1557 6.61802C21.6947 8.22979 20.0028 10.3021 19.5414 12.7197C18.7723 13.9861 18.4647 15.3676 18.3109 16.5189C17.8495 19.5122 18.9261 22.1601 22.6176 23.5416ZM31.5386 18.1306C31.5386 18.2458 30.9234 18.476 30.7696 18.5912C30.7696 18.1306 30.3081 17.555 30.0005 17.0945C30.0005 16.8643 30.4619 16.5189 30.4619 16.2886C30.9234 16.8643 31.5386 17.4399 31.5386 18.1306C31.5386 18.0155 31.5386 18.0155 31.5386 18.1306ZM30.4619 14.1012C32.0001 15.0222 32.4615 16.9794 32.3077 18.3609C32.3077 18.7063 32.1539 19.0517 32.0001 19.397C32.0001 19.2819 32.0001 19.2819 32.0001 19.1668C32.4615 18.2458 32.4615 17.3248 32.0001 16.4038C32.0001 16.2886 32.0001 16.1735 32.0001 16.0584C32.0001 15.8281 31.8462 15.5979 31.6924 15.3676C31.5386 15.0222 31.3848 14.792 31.0772 14.4466C30.7696 14.1012 30.0005 13.871 29.3853 13.7558C29.0776 13.871 28.9238 13.7558 28.77 13.7558C29.3853 13.6407 29.8467 13.7558 30.4619 14.1012ZM24.9248 22.2752C25.8476 22.3903 26.9243 22.3903 27.6934 22.1601C27.8472 22.1601 28.1548 22.1601 28.3086 22.1601H28.4624C27.6934 22.6206 26.7705 22.9659 25.6938 22.9659C25.8476 22.8508 25.8476 22.7357 25.54 22.7357C24.9248 22.7357 24.3095 22.6206 23.8481 22.5054C24.4633 22.3903 24.7709 22.2752 24.9248 22.2752ZM23.5405 12.4895C23.5405 12.8348 23.5405 13.4105 23.6943 13.871C23.6943 13.871 23.5405 13.871 23.5405 13.9861C23.5405 13.5256 23.5405 12.95 23.5405 12.4895ZM19.849 18.8214C20.0028 18.9365 20.3104 18.8214 20.3104 18.5912C20.0028 17.6701 20.0028 16.7491 20.3104 15.8281C20.3104 16.0584 20.3104 16.2886 20.3104 16.5189C20.3104 16.634 20.3104 16.634 20.3104 16.7491C20.1566 17.2096 20.1566 17.555 20.3104 18.0155C20.4642 19.2819 20.7719 20.6634 21.5409 21.5844C20.3104 20.8937 19.849 19.8575 19.849 18.8214C19.849 18.7063 19.849 18.8214 19.849 18.8214Z" fill="#2E2E2E"/>
<path fill-rule="evenodd" clip-rule="evenodd" d="M4.46853 23.4263C7.54474 24.5776 10.9286 23.4263 12.6205 21.4692C16.1581 19.9726 16.1581 16.0583 13.5434 13.6406C12.1591 12.2591 10.4671 12.3742 8.92904 12.9499C8.77523 12.9499 8.62142 12.9499 8.4676 12.9499C8.15998 9.03557 10.7748 5.81203 13.3895 2.35825C13.5434 2.47337 14.0048 2.5885 14.1586 2.35825C14.4662 1.89774 14.9277 1.43724 15.0815 0.861607C15.0815 0.746481 15.0815 0.516228 14.9277 0.401102C14.9277 0.0557235 14.3124 -0.174529 13.851 0.17085C13.6972 0.285976 13.6972 0.401102 13.5434 0.516228C10.621 2.128 8.00617 4.20027 6.00663 6.61792C3.54566 8.22968 1.85374 10.302 1.39231 12.7196C0.623258 13.986 0.315637 15.3675 0.161826 16.5188C-0.453416 19.3969 0.623258 22.0448 4.46853 23.4263ZM13.0819 17.9003C13.0819 18.0154 12.6205 18.2457 12.4667 18.3608C12.4667 17.9003 12.0052 17.3247 11.6976 16.8641C11.6976 16.6339 12.0053 16.2885 12.0053 16.0583C12.4667 16.6339 13.0819 17.3247 13.0819 17.9003ZM12.1591 13.986C13.6972 14.907 14.1586 16.8641 14.0048 18.2457C14.0048 18.591 13.851 18.9364 13.6972 19.2818C13.6972 19.1667 13.6972 19.1667 13.6972 19.0515C14.1586 18.1305 14.1586 17.2095 13.6972 16.2885C13.6972 16.1734 13.6972 16.0583 13.6972 15.9431C13.6972 15.7129 13.5434 15.4826 13.3895 15.2524C13.2357 14.907 13.0819 14.6768 12.7743 14.3314C12.4667 13.986 11.6976 13.7557 11.0824 13.6406C10.9286 13.5255 10.7748 13.5255 10.621 13.4104C11.0824 13.5255 11.6976 13.6406 12.1591 13.986ZM6.77569 22.0448C7.69855 22.16 8.77523 22.16 9.54428 21.9297C9.69809 21.9297 10.0057 21.9297 10.1595 21.9297H10.3133C9.54428 22.3902 8.62141 22.7356 7.54474 22.7356C7.69855 22.6205 7.69855 22.5053 7.39093 22.5053C6.77569 22.5053 6.16044 22.3902 5.69901 22.2751C6.16044 22.16 6.46806 22.16 6.77569 22.0448ZM5.39139 12.3742C5.39139 12.3742 5.39139 12.2591 5.39139 12.3742C5.39139 12.7196 5.39139 13.2952 5.5452 13.7557C5.5452 13.7557 5.39139 13.7557 5.39139 13.8709C5.23758 13.2952 5.23758 12.8347 5.39139 12.3742ZM1.54612 18.7062C1.69993 18.8213 2.00755 18.7062 2.00755 18.4759C1.69993 17.5549 1.69993 16.6339 2.00755 15.7129C2.00755 15.9431 2.00755 16.1734 2.00755 16.4036C2.00755 16.5188 2.00755 16.5188 2.00755 16.6339C1.85374 17.0944 1.85374 17.4398 2.00755 17.9003C2.16137 19.1667 2.46899 20.5482 3.23804 21.4692C2.00755 20.6633 1.54612 19.6272 1.54612 18.7062C1.54612 18.591 1.54612 18.591 1.54612 18.7062Z" fill="#2E2E2E"/>
</svg>
