<svg width="64" height="64" viewBox="0 0 64 64" fill="none" xmlns="http://www.w3.org/2000/svg">
<path d="M32.0001 58.6668C17.2957 58.6668 5.33344 46.7046 5.33344 32.0002C5.33344 17.2957 17.2957 5.3335 32.0001 5.3335C46.7045 5.3335 58.6668 17.2957 58.6668 32.0002C58.6668 46.7046 46.7045 58.6668 32.0001 58.6668ZM32.0001 10.6668C20.2371 10.6668 10.6668 20.2371 10.6668 32.0002C10.6668 43.7632 20.2371 53.3335 32.0001 53.3335C43.7631 53.3335 53.3334 43.7632 53.3334 32.0002C53.3334 20.2371 43.7631 10.6668 32.0001 10.6668Z" fill="#DAE0FF"/>
<path d="M32.0001 58.6668C24.3985 58.6668 18.6667 47.2033 18.6667 32.0002C18.6667 16.797 24.3985 5.3335 32.0001 5.3335C39.6016 5.3335 45.3334 16.797 45.3334 32.0002C45.3334 47.2033 39.6016 58.6668 32.0001 58.6668ZM32.0001 10.6668C28.7383 10.6668 24.0001 18.978 24.0001 32.0002C24.0001 45.0223 28.7383 53.3335 32.0001 53.3335C35.2618 53.3335 40.0001 45.0223 40.0001 32.0002C40.0001 18.978 35.2618 10.6668 32.0001 10.6668Z" fill="#DAE0FF"/>
<path d="M25.3334 16C27.5426 16 29.3334 14.2091 29.3334 12C29.3334 9.79086 27.5426 8 25.3334 8C23.1243 8 21.3334 9.79086 21.3334 12C21.3334 14.2091 23.1243 16 25.3334 16Z" fill="#B8C2FF"/>
<path d="M21.3334 32.0003C22.8061 32.0003 24 30.8064 24 29.3337C24 27.8609 22.8061 26.667 21.3334 26.667C19.8606 26.667 18.6667 27.8609 18.6667 29.3337C18.6667 30.8064 19.8606 32.0003 21.3334 32.0003Z" fill="#B8C2FF"/>
<path d="M42.6667 37.3333C44.1394 37.3333 45.3333 36.1394 45.3333 34.6667C45.3333 33.1939 44.1394 32 42.6667 32C41.1939 32 40 33.1939 40 34.6667C40 36.1394 41.1939 37.3333 42.6667 37.3333Z" fill="#B8C2FF"/>
<path d="M37.3334 56.0001C38.8061 56.0001 40 54.8062 40 53.3334C40 51.8607 38.8061 50.6667 37.3334 50.6667C35.8606 50.6667 34.6667 51.8607 34.6667 53.3334C34.6667 54.8062 35.8606 56.0001 37.3334 56.0001Z" fill="#B8C2FF"/>
<path d="M32.0001 45.3334C16.797 45.3334 5.33344 39.6017 5.33344 32.0001C5.33344 24.3985 16.797 18.6667 32.0001 18.6667C47.2032 18.6667 58.6668 24.3985 58.6668 32.0001C58.6668 39.6017 47.2032 45.3334 32.0001 45.3334ZM32.0001 24.0001C18.978 24.0001 10.6668 28.7384 10.6668 32.0001C10.6668 35.2618 18.978 40.0001 32.0001 40.0001C45.0222 40.0001 53.3334 35.2618 53.3334 32.0001C53.3334 28.7384 45.0222 24.0001 32.0001 24.0001Z" fill="#DAE0FF"/>
<path d="M52 42.6667C54.2091 42.6667 56 40.8759 56 38.6667C56 36.4576 54.2091 34.6667 52 34.6667C49.7909 34.6667 48 36.4576 48 38.6667C48 40.8759 49.7909 42.6667 52 42.6667Z" fill="#B8C2FF"/>
<path d="M27.6656 22.3321C28.7452 20.3953 29.3188 18.2174 29.3334 16.0001C29.3334 13.363 28.5514 10.7851 27.0863 8.59248C25.6212 6.39983 23.5388 4.69086 21.1025 3.68169C18.6662 2.67253 15.9853 2.40848 13.3989 2.92295C10.8124 3.43742 8.43667 4.7073 6.57197 6.572C4.70727 8.4367 3.43739 10.8125 2.92292 13.3989C2.40845 15.9853 2.67249 18.6662 3.68166 21.1025C4.69083 23.5389 6.3998 25.6213 8.59245 27.0864C10.7851 28.5514 13.363 29.3334 16.0001 29.3334C18.2175 29.3188 20.3954 28.7451 22.3322 27.6655L22.8956 28.2288C23.2457 28.579 23.6615 28.8568 24.119 29.0463C24.5765 29.2358 25.0669 29.3334 25.5621 29.3334C26.0574 29.3334 26.5478 29.2358 27.0053 29.0463C27.4628 28.8568 27.8786 28.579 28.2287 28.2288H28.2289C28.9361 27.5215 29.3334 26.5623 29.3334 25.5621C29.3334 24.5619 28.9361 23.6027 28.2289 22.8954L27.6656 22.3321Z" fill="#079CFF"/>
<path d="M16.0001 5.33354C13.1721 5.33677 10.4609 6.46162 8.4612 8.4613C6.46151 10.461 5.33667 13.1722 5.33344 16.0002L5.33345 16.0151V16.0164L5.33347 16.0305L5.33348 16.0325L5.33353 16.0463L5.33354 16.0485L5.33361 16.0624L5.33362 16.0642L5.33372 16.0786L5.33372 16.0794L5.33384 16.094L5.33384 16.0947L5.33398 16.1093L5.334 16.1108L5.33415 16.1245L5.33417 16.127L5.33435 16.1408L5.33437 16.1426L5.33456 16.1567L5.33459 16.1584L5.33481 16.1729V16.1733L5.33506 16.1881L5.33507 16.1889L5.33533 16.2033L5.33536 16.2049L5.33563 16.2186L5.33568 16.2212L5.33597 16.2347L5.33602 16.2369L5.33632 16.2505L5.33638 16.2528L5.33671 16.267V16.2671L5.33709 16.2819L5.33712 16.283L5.33749 16.297L5.33755 16.2991L5.33793 16.3126L5.33801 16.3152L5.3384 16.3284L5.33848 16.331L5.3389 16.3446L5.33896 16.3465L5.33941 16.3602L5.33946 16.3617L5.33991 16.3748L5.33999 16.3771L5.34046 16.3902L5.34056 16.3932L5.34105 16.4064L5.34114 16.4088L5.34166 16.4223L5.34175 16.4245L5.3423 16.4382L5.34237 16.4401L5.34293 16.4536L5.34298 16.4547L5.34358 16.4687L5.34366 16.4706L5.34426 16.4842L5.34437 16.4865L5.34497 16.4997L5.3451 16.5026L5.34572 16.5157L5.34584 16.5181L5.34651 16.5319L5.34656 16.5329C5.34704 16.5426 5.34753 16.5523 5.34803 16.562L5.34814 16.564L5.34886 16.5776L5.34898 16.5798L5.34971 16.5932L5.34985 16.5957L5.35061 16.6092L5.35071 16.611L5.35151 16.6251L5.35158 16.6262L5.3524 16.64L5.35247 16.6413L5.35331 16.6553L5.35342 16.6571L5.35427 16.6708L5.3544 16.673L5.35526 16.6865L5.35539 16.6887L5.35628 16.7024L5.35638 16.7039L5.35733 16.7183L5.35736 16.7187L5.3583 16.7326L5.35842 16.7344L5.35933 16.7477L5.35953 16.7504L5.36044 16.7634L5.36063 16.7661L5.36159 16.7793L5.36174 16.7815L5.36275 16.7953L5.36285 16.7966L5.36392 16.8109L5.36395 16.8113L5.36505 16.8257L5.36515 16.8271L5.3662 16.8405L5.36641 16.8432L5.36745 16.8564L5.36764 16.8588L5.3687 16.8719L5.36891 16.8744L5.37003 16.8881L5.3701 16.8889L5.37128 16.9031L5.37136 16.904L5.37252 16.9177L5.37271 16.9199L5.37384 16.933L5.37408 16.9357L5.37524 16.9489L5.37543 16.9511L5.37663 16.9644L5.37684 16.9668L5.37806 16.9802L5.37821 16.9819L5.37939 16.9946L5.37958 16.9967L5.38083 17.01L5.38104 17.0123L5.3823 17.0255L5.38254 17.028L5.38381 17.0411L5.38404 17.0435L5.38535 17.0568L5.38554 17.0588L5.38694 17.0728V17.0729L5.38844 17.0878L5.3885 17.0884L5.38996 17.1026L5.39011 17.1041L5.39153 17.1177L5.39176 17.1199L5.39317 17.1332L5.39339 17.1354L5.39484 17.1489L5.39502 17.1506L5.39652 17.1645L5.3966 17.1652L5.39808 17.1786L5.39831 17.1808L5.39979 17.1941L5.40004 17.1963L5.40153 17.2095L5.4018 17.2118L5.40332 17.2252L5.40354 17.2271L5.40509 17.2405L5.40535 17.2427L5.4069 17.256L5.40697 17.2566L5.40858 17.2702L5.40886 17.2725L5.41043 17.2856L5.41071 17.2879L5.41229 17.301L5.41262 17.3036L5.41422 17.3166L5.41449 17.3188L5.41616 17.3322L5.41636 17.3338L5.41805 17.3472L5.41817 17.3482L5.41991 17.3619L5.42018 17.3639L5.42187 17.377L5.42218 17.3795L5.42387 17.3925L5.4242 17.3949L5.42594 17.4081L5.42618 17.41L5.42801 17.4237L5.42814 17.4247L5.42994 17.438L5.43015 17.4396L5.43194 17.4528L5.43228 17.4552L5.43407 17.4683L5.43439 17.4706L5.43619 17.4835L5.43656 17.4862L5.43841 17.4993L5.43863 17.5009L5.44062 17.5148L5.44071 17.5155L5.44265 17.529L5.4429 17.5307L5.44479 17.5438L5.44517 17.5463L5.44708 17.5594L5.44739 17.5615L5.44932 17.5745L5.44969 17.5771L5.45165 17.5902L5.45188 17.5917L5.45392 17.6053L5.45403 17.606L5.45622 17.6203L5.45634 17.6211L5.45847 17.6349L5.45874 17.6367L5.46081 17.65L5.46115 17.6522L5.46317 17.6651L5.46358 17.6677L5.46564 17.6807L5.46591 17.6824L5.46799 17.6954L5.46818 17.6966L5.47032 17.7099L5.47069 17.7122L5.47275 17.7248L5.47323 17.7278L5.47529 17.7403L5.4757 17.7428L5.47786 17.7559L5.47817 17.7578L5.48042 17.7712L5.48065 17.7726L5.4828 17.7853L5.48309 17.7871L5.48531 17.8001L5.48572 17.8025L5.48791 17.8153L5.48834 17.8177L5.49055 17.8305L5.49098 17.833L5.49321 17.8458L5.49362 17.8481L5.49595 17.8613L5.49614 17.8624L5.49843 17.8753L5.49876 17.8772L5.50115 17.8905L5.50146 17.8923L5.50381 17.9053L5.50426 17.9078L5.50658 17.9205L5.50701 17.9229L5.50938 17.9358L5.50978 17.9379L5.5122 17.951L5.51234 17.9518L5.51475 17.9647L5.5152 17.9671L5.51757 17.9798L5.51806 17.9824L5.52041 17.9948L5.52098 17.9978L5.52334 18.0101L5.52381 18.0126L5.52627 18.0254L5.52669 18.0276L5.52908 18.0399L5.52939 18.0415L5.53186 18.0541L5.53238 18.0568L5.53483 18.0692L5.53537 18.072L5.53781 18.0843L5.5384 18.0873L5.54088 18.0997L5.54135 18.102L5.54398 18.1151L5.5442 18.1162L5.54691 18.1295L5.54711 18.1305L5.54987 18.144L5.55021 18.1457L5.55288 18.1587L5.55337 18.161L5.55598 18.1736L5.55652 18.1763L5.55913 18.1887L5.55966 18.1913L5.56233 18.204L5.5627 18.2057L5.56528 18.2179L5.56569 18.2199L5.5684 18.2326L5.56894 18.2351L5.57163 18.2476L5.57217 18.2501L5.57488 18.2627L5.5754 18.2651L5.57822 18.278L5.57854 18.2794L5.58154 18.2931L5.58165 18.2936L5.58457 18.3069L5.58493 18.3085L5.58773 18.3211L5.58836 18.324L5.59111 18.3363L5.59168 18.3388L5.59451 18.3514L5.59504 18.3537L5.59796 18.3666L5.59829 18.368L5.60127 18.3811L5.6015 18.3821L5.60456 18.3954L5.60493 18.397L5.60789 18.4098L5.60848 18.4124L5.61131 18.4245L5.612 18.4275L5.61481 18.4395L5.61552 18.4425L5.61843 18.4548L5.61884 18.4566L5.6218 18.4691L5.62211 18.4704L5.6252 18.4833L5.62571 18.4854L5.62867 18.4978L5.62937 18.5007L5.63231 18.5128L5.63295 18.5155L5.63597 18.5279L5.6365 18.5301L5.63968 18.543L5.63998 18.5442L5.643 18.5565L5.64351 18.5586L5.64665 18.5713L5.64719 18.5734L5.65029 18.5859L5.65094 18.5885L5.65405 18.6009L5.65464 18.6032L5.65781 18.6158L5.65833 18.6178L5.66168 18.631L5.66175 18.6313L5.66515 18.6446L5.66554 18.6461L5.66892 18.6593L5.66933 18.6609L5.67259 18.6735L5.67328 18.6762L5.67647 18.6884L5.67707 18.6908L5.68035 18.7033L5.68091 18.7054L5.68422 18.718L5.68446 18.7189L5.68779 18.7315L5.68842 18.7339L5.69168 18.7461L5.69236 18.7487L5.6956 18.7608L5.69635 18.7636L5.69959 18.7756L5.7003 18.7783L5.70365 18.7906L5.70417 18.7925L5.70739 18.8044L5.70791 18.8063L5.71126 18.8186L5.71194 18.821L5.71522 18.8329L5.71608 18.8361L5.71928 18.8476L5.72018 18.8509L5.72341 18.8625L5.72426 18.8655L5.72759 18.8774L5.72825 18.8798L5.73138 18.8909L5.73203 18.8932L5.73537 18.905L5.73627 18.9082L5.73959 18.9198L5.74045 18.9229L5.74374 18.9344L5.74471 18.9378L5.74809 18.9495L5.74877 18.9518L5.75238 18.9644L5.75279 18.9658L5.75637 18.9781L5.75678 18.9795L5.76044 18.992L5.76114 18.9944L5.76466 19.0064L5.76549 19.0092L5.76894 19.0209L5.76987 19.0241L5.77341 19.036L5.77398 19.0379L5.77769 19.0503L5.77813 19.0518L5.78183 19.0641L5.78237 19.066L5.78609 19.0783L5.78682 19.0807L5.7905 19.0929L5.79123 19.0953L5.795 19.1077L5.79557 19.1095L5.79948 19.1223L5.7999 19.1237L5.8038 19.1364L5.80407 19.1372L5.80814 19.1504L5.80856 19.1518L5.81256 19.1647L5.81309 19.1663L5.81706 19.1791L5.81762 19.1809L5.82158 19.1935L5.82217 19.1954L5.82621 19.2082L5.82655 19.2093L5.83059 19.222L5.83092 19.223L5.835 19.2358L5.83559 19.2377L5.83945 19.2498L5.84033 19.2525L5.84421 19.2646L5.84487 19.2666L5.84893 19.2792L5.84941 19.2807C5.85229 19.2896 5.8552 19.2985 5.85811 19.3074L5.85845 19.3084L5.86264 19.3212L5.86322 19.323L5.8672 19.3351L5.86811 19.3378L5.872 19.3496L5.87285 19.3522L5.87679 19.364L5.87764 19.3666L5.88156 19.3783L5.88217 19.3801L5.88609 19.3918L5.8868 19.3939L5.89086 19.406L5.89167 19.4084L5.89573 19.4203L5.89656 19.4228L5.90065 19.4348L5.90139 19.437L5.90559 19.4492L5.90619 19.451L5.91053 19.4637L5.91064 19.464L5.915 19.4766L5.91571 19.4787L5.91991 19.4908L5.9207 19.493L5.92485 19.505L5.92572 19.5075L5.92989 19.5194L5.93068 19.5216L5.935 19.5339L5.93547 19.5353L5.94004 19.5482L5.94014 19.5485L5.94464 19.5612L5.94536 19.5632L5.94963 19.5752L5.95051 19.5776L5.9546 19.5891L5.95574 19.5923L5.95992 19.6039L5.9606 19.6058L5.96508 19.6182L5.96559 19.6196L5.97003 19.6318L5.97038 19.6328L5.97491 19.6453L5.97566 19.6473L5.98016 19.6596L5.98076 19.6613L5.9853 19.6736L5.98606 19.6757L5.99056 19.6879L5.9912 19.6896L5.9958 19.7021L5.99633 19.7035L6.0008 19.7155L6.00129 19.7168L6.00587 19.7291L6.0067 19.7313L6.01114 19.7431L6.01205 19.7455L6.01648 19.7573L6.01736 19.7596L6.02189 19.7716L6.02257 19.7734L6.02721 19.7856L6.02759 19.7866L6.03211 19.7984L6.03296 19.8007L6.03729 19.812L6.03851 19.8151L6.04283 19.8263L6.04387 19.8291L6.04832 19.8406L6.04928 19.8431L6.05393 19.855L6.05449 19.8565L6.05914 19.8684L6.05967 19.8697L6.06449 19.8821L6.06516 19.8838L6.06994 19.8959L6.07069 19.8978L6.07552 19.9101L6.07619 19.9118L6.08099 19.9239L6.08181 19.926L6.08665 19.9381L6.08712 19.9393L6.09197 19.9514L6.09241 19.9525L6.09741 19.965L6.09806 19.9666L6.10281 19.9784L6.10385 19.981L6.10853 19.9925L6.10944 19.9948L6.11427 20.0067L6.11501 20.0085L6.12002 20.0208L6.12045 20.0218L6.12525 20.0336L6.12599 20.0354L6.13086 20.0472L6.13174 20.0493L6.13659 20.0611L6.13752 20.0633L6.14246 20.0753L6.14312 20.0769L6.1483 20.0893L6.14875 20.0904C6.15243 20.0992 6.15604 20.1078 6.15975 20.1167L6.15996 20.1172L6.16524 20.1298L6.16592 20.1314L6.17103 20.1434L6.17178 20.1452L6.17704 20.1576L6.17745 20.1586L6.18289 20.1714L6.18328 20.1723C6.18691 20.1808 6.19063 20.1895 6.19428 20.198L6.19489 20.1994L6.20016 20.2116L6.20085 20.2133L6.206 20.2252L6.20692 20.2273L6.21206 20.2391L6.21278 20.2408L6.21804 20.2528L6.21873 20.2544C6.22244 20.2629 6.22597 20.271 6.2297 20.2795L6.23039 20.281L6.23563 20.2929L6.2365 20.2949L6.24166 20.3066L6.24261 20.3087L6.24792 20.3207L6.24844 20.3218L6.25406 20.3345L6.25432 20.335L6.25993 20.3476L6.26028 20.3484L6.26565 20.3603L6.26662 20.3625L6.27193 20.3743L6.27267 20.3759L6.27813 20.388L6.27885 20.3896L6.28439 20.4018L6.28488 20.4028L6.29065 20.4155L6.29078 20.4158L6.29656 20.4284L6.29695 20.4293L6.30248 20.4413L6.30336 20.4432L6.30869 20.4548L6.30969 20.457L6.3149 20.4682L6.3161 20.4708L6.32137 20.4822L6.32218 20.4839L6.32778 20.4959L6.32792 20.4963L6.33385 20.5089L6.33429 20.5099L6.33989 20.5218L6.34083 20.5238L6.34634 20.5355L6.34713 20.5372L6.35275 20.5491L6.35352 20.5507L6.35932 20.5629L6.35954 20.5634L6.36547 20.5758L6.36582 20.5766L6.37174 20.589L6.37228 20.5901L6.378 20.602L6.37888 20.6039L6.38462 20.6158L6.3852 20.617L6.39108 20.6292L6.39175 20.6306L6.39769 20.6428L6.39795 20.6434L6.404 20.6558L6.40431 20.6564L6.41019 20.6685L6.41102 20.6702L6.41656 20.6815L6.41781 20.684L6.42318 20.6949L6.42444 20.6975L6.42991 20.7086L6.43093 20.7107L6.43673 20.7224L6.43706 20.723L6.44298 20.7349L6.44353 20.7361L6.44945 20.7479L6.45028 20.7496L6.45608 20.7612L6.457 20.763L6.46281 20.7746L6.46372 20.7764L6.46951 20.7879L6.4704 20.7897C6.47455 20.7979 6.47855 20.8058 6.48273 20.814L6.48336 20.8153L6.48943 20.8272L6.49014 20.8286L6.49614 20.8404L6.49698 20.842L6.50312 20.854L6.50353 20.8548L6.5099 20.8672L6.51033 20.868C6.51455 20.8762 6.51874 20.8843 6.52298 20.8925L6.52387 20.8942L6.52993 20.9059L6.53068 20.9073L6.53675 20.919L6.53765 20.9207L6.54368 20.9322L6.54453 20.9338L6.55075 20.9457L6.55114 20.9464L6.5575 20.9585L6.55782 20.9591L6.56419 20.9712L6.56486 20.9725L6.57096 20.984L6.57201 20.9859L6.57799 20.9972L6.57901 20.9991L6.58512 21.0105L6.58583 21.0119L6.59922 21.0369L6.59933 21.0371L6.60592 21.0493L6.6065 21.0504L6.61296 21.0623L6.61359 21.0635L6.62005 21.0754L6.62065 21.0765L6.62723 21.0886L6.62764 21.0893L6.6344 21.1017L6.63448 21.1019L6.64122 21.1142L6.64163 21.1149L6.64808 21.1266L6.64895 21.1282L6.65534 21.1398L6.65609 21.1412L6.66244 21.1526L6.66342 21.1544L6.66985 21.166L6.67026 21.1667C6.67488 21.1751 6.67952 21.1834 6.68416 21.1917L6.68439 21.1921L6.69099 21.2038L6.6919 21.2055L6.69835 21.2169L6.69911 21.2183L6.70565 21.2299L6.70643 21.2313L6.71314 21.2431L6.71336 21.2435L6.72029 21.2557L6.72055 21.2562L6.72739 21.2682L6.72797 21.2692L6.73462 21.2808L6.73542 21.2822L6.74203 21.2938L6.74281 21.2951L6.74945 21.3067L6.7502 21.308C6.75723 21.3202 6.76437 21.3325 6.77145 21.3447L6.77202 21.3457L6.7787 21.3571L6.77965 21.3588L6.78623 21.37L6.78713 21.3716L6.79382 21.383L6.79451 21.3842C6.79916 21.3921 6.80389 21.4001 6.80856 21.408L6.8092 21.4091L6.81608 21.4207L6.81677 21.4219L6.82355 21.4333L6.82443 21.4348L6.83116 21.4461L6.83204 21.4476L6.8388 21.4589L6.83957 21.4602C6.84429 21.4681 6.84888 21.4757 6.85362 21.4836L6.85443 21.485L6.86114 21.4961L6.86218 21.4978L6.8687 21.5086L6.87002 21.5108L6.87663 21.5217L6.87748 21.5231L6.88453 21.5346L6.88484 21.5351L6.89227 21.5473L6.89228 21.5474L6.8994 21.559L6.90025 21.5604L6.90722 21.5717L6.90797 21.5729L6.91492 21.5842L6.9159 21.5858L6.92276 21.5969L6.92361 21.5983L6.93072 21.6097L6.93108 21.6103L6.93856 21.6223L6.93857 21.6224L6.9461 21.6344L6.94648 21.635L6.95375 21.6467L6.95446 21.6478L6.96154 21.6591L6.96243 21.6605L6.96961 21.6719L6.97005 21.6726C6.97755 21.6845 6.98526 21.6967 6.99281 21.7085L6.99367 21.7099L7.0009 21.7212L7.00153 21.7222L7.00884 21.7337L7.00952 21.7347C7.01974 21.7507 7.03027 21.767 7.04058 21.783L7.04116 21.7838L7.04862 21.7953L7.04919 21.7962L7.05652 21.8075L7.05751 21.809L7.06484 21.8202L7.06513 21.8207C7.07048 21.8289 7.07551 21.8365 7.08088 21.8447L7.0811 21.845L7.08874 21.8566L7.08936 21.8576L7.09687 21.869L7.09751 21.8699L7.10512 21.8814L7.10555 21.8821L7.11339 21.8939L7.11341 21.8939L7.12934 21.9178L7.12987 21.9186L7.13753 21.93L7.1381 21.9308L7.14577 21.9423L7.14634 21.9431L7.15423 21.9548H7.15424C7.16245 21.967 7.17059 21.979 7.17885 21.9911L7.17899 21.9913L7.18691 22.0029L7.18747 22.0037L7.19544 22.0154L7.19554 22.0155C7.20936 22.0357 7.22296 22.0554 7.23692 22.0755L7.23735 22.0761L7.24531 22.0875L7.24579 22.0882L7.25377 22.0996L7.2542 22.1002L7.27072 22.1238L7.27076 22.1238L7.27899 22.1355L7.27933 22.136L7.28743 22.1474L7.28789 22.1481C7.29917 22.1641 7.31006 22.1793 7.32143 22.1952L7.32175 22.1957L7.32996 22.2071L7.33035 22.2077L7.3386 22.2191L7.3389 22.2195C7.35031 22.2354 7.36142 22.2507 7.37292 22.2665L7.37323 22.2669L7.38154 22.2783L7.38195 22.2789L7.38997 22.2899L7.39095 22.2912L7.39897 22.3021L7.39926 22.3025C7.40794 22.3143 7.41619 22.3255 7.42491 22.3373L7.42531 22.3378L7.43371 22.3492L7.43403 22.3496L7.44247 22.3609L7.44285 22.3614C7.45452 22.3771 7.46585 22.3922 7.4776 22.4078L7.47789 22.4082L7.48646 22.4195L7.48673 22.4199L7.49534 22.4313L7.49555 22.4315C7.50735 22.4471 7.51887 22.4622 7.53075 22.4777L7.53106 22.4781L7.53979 22.4895L7.53992 22.4896L7.54878 22.5012L7.54879 22.5012C7.56071 22.5166 7.57249 22.5318 7.58449 22.5472L7.58481 22.5476L7.59365 22.5589L7.59371 22.559L7.60268 22.5705L7.60275 22.5706C7.61178 22.5821 7.62077 22.5935 7.62985 22.605L7.62988 22.605L7.63868 22.6161L7.63919 22.6168L7.64805 22.6279V22.6279C7.65716 22.6394 7.66615 22.6507 7.6753 22.6621L7.67551 22.6623L7.68439 22.6734L7.68476 22.6738L7.69362 22.6848L7.69398 22.6853L7.70293 22.6964L7.70307 22.6965C7.71534 22.7117 7.72752 22.7267 7.73987 22.7418L7.73994 22.7419L7.74902 22.753L7.74935 22.7534C7.76791 22.776 7.78635 22.7983 7.80509 22.8208L7.80516 22.8209C7.81765 22.8359 7.83002 22.8506 7.84259 22.8655L7.84278 22.8657L7.85207 22.8767L7.85221 22.8769L7.86143 22.8878L7.8618 22.8882C7.87441 22.9031 7.88668 22.9175 7.89937 22.9323L7.89967 22.9327L7.90901 22.9436L7.90914 22.9437C7.92503 22.9622 7.94079 22.9804 7.9568 22.9988L7.95701 22.9991L7.96629 23.0097L7.96679 23.0103L7.97594 23.0207L7.97647 23.0213C7.98912 23.0358 8.00204 23.0504 8.01477 23.0648L8.01488 23.0649C9.69196 24.964 11.9907 26.2037 14.4989 26.5616C14.8456 26.6106 15.1986 26.5909 15.5378 26.5035C15.8769 26.4161 16.1955 26.2628 16.4753 26.0523C16.7552 25.8418 16.9909 25.5783 17.1689 25.2767C17.3469 24.9751 17.4637 24.6414 17.5128 24.2947C17.5618 23.948 17.5421 23.595 17.4547 23.2558C17.3674 22.9167 17.2141 22.5981 17.0036 22.3183C16.7931 22.0384 16.5295 21.8027 16.2279 21.6247C15.9264 21.4467 15.5927 21.3299 15.2459 21.2808C13.9104 21.0899 12.6969 20.4001 11.8497 19.3502C11.0025 18.3003 10.5846 16.9683 10.6802 15.6226C10.7758 14.2769 11.3778 13.0175 12.365 12.0979C13.3521 11.1783 14.651 10.667 16.0001 10.6669C16.3137 10.6667 16.6267 10.694 16.9356 10.7485C17.6318 10.8715 18.3485 10.713 18.9279 10.3078C19.5074 9.90261 19.9021 9.28387 20.0255 8.58764C20.1488 7.89142 19.9906 7.17472 19.5856 6.59512C19.1806 6.01553 18.562 5.6205 17.8659 5.49689C17.776 5.48096 17.6856 5.46617 17.5949 5.45251L17.5948 5.45247C17.5855 5.45107 17.5761 5.44968 17.5668 5.4483L17.5659 5.44818L17.5529 5.44625L17.5508 5.44596L17.5383 5.44413L17.5359 5.44378L17.5247 5.44218L17.5221 5.44179L17.5109 5.4402L17.5076 5.43973L17.4963 5.43813L17.4924 5.43758L17.4813 5.43601L17.4774 5.43548L17.4688 5.43428L17.4629 5.43347L17.4544 5.43231L17.4489 5.43156L17.4395 5.43028L17.4333 5.42944L17.4269 5.42857L17.418 5.42739L17.4128 5.4267L17.4024 5.42531L17.3975 5.42468L17.3906 5.42377L17.3857 5.42314L17.3749 5.42174L17.3706 5.42119L17.3594 5.41974L17.3552 5.41922L17.3406 5.41736L17.34 5.41728L17.3318 5.41624H17.3317L17.3158 5.41427L17.314 5.41405L17.2991 5.41222L17.2981 5.41209C17.2842 5.41038 17.2709 5.4088 17.257 5.40715L17.2563 5.40709C17.078 5.38607 16.899 5.36953 16.7183 5.35745L16.7177 5.35743C16.7036 5.35647 16.6899 5.35559 16.6758 5.3547L16.6751 5.35466L16.6596 5.3537L16.6578 5.35358L16.6421 5.35264L16.6416 5.3526C16.6334 5.35211 16.6252 5.35162 16.617 5.35117L16.6146 5.35103L16.6006 5.35024L16.5983 5.35011L16.5833 5.34928L16.582 5.34922L16.574 5.34879L16.5719 5.34867L16.5582 5.34795L16.5542 5.34775L16.543 5.34718L16.5381 5.34693L16.5305 5.34654L16.5223 5.34614L16.5153 5.34581L16.5099 5.34555L16.4996 5.34508L16.4943 5.34483L16.4843 5.34436L16.4787 5.34411L16.4717 5.34381L16.4629 5.34342L16.456 5.34313L16.4506 5.34291L16.4406 5.34248L16.4347 5.34224L16.4277 5.34198L16.4189 5.34163L16.413 5.34141L16.4031 5.34102L16.3972 5.3408L16.3907 5.34057L16.3821 5.34027L16.3749 5.34L16.3694 5.33982L16.3595 5.33949L16.3535 5.33929L16.3433 5.33896L16.3387 5.33882L16.3303 5.33856L16.3243 5.33838L16.315 5.33809L16.3103 5.33797L16.2996 5.33766L16.2947 5.33752L16.2839 5.33723L16.2801 5.33713L16.2703 5.33688L16.2667 5.33678L16.2552 5.33652L16.2511 5.33641L16.2398 5.33615L16.2355 5.33607L16.225 5.33584L16.2212 5.33576L16.2105 5.33556L16.2074 5.3355L16.1952 5.33525L16.192 5.33521L16.1797 5.33499L16.177 5.33494L16.1648 5.33476L16.1636 5.33474L16.1505 5.33454L16.1481 5.33452L16.1353 5.33433L16.1327 5.33431L16.12 5.33417L16.1176 5.33413L16.1056 5.334L16.104 5.33398L16.0912 5.33388L16.0883 5.33386L16.0755 5.33376L16.0734 5.33374L16.06 5.33366H16.0589L16.0461 5.3336L16.0442 5.33358L16.0311 5.33354H16.0288L16.0158 5.33352L16.0137 5.3335L16.0001 5.33354Z" fill="#5CBEFF"/>
<path d="M16.0001 2.66675H15.9894L15.9826 2.66677H15.9787L15.9686 2.66679H15.9682L15.9618 2.66681H15.9572L15.9529 2.66683L15.9465 2.66685L15.9432 2.66687L15.9356 2.66691H15.9324L15.9251 2.66695L15.9208 2.66699L15.9144 2.66701L15.9099 2.66705L15.9037 2.66709L15.8996 2.66711L15.8929 2.66718L15.8882 2.66722L15.8824 2.66726L15.8774 2.6673L15.8716 2.66736L15.8669 2.6674L15.8609 2.66746L15.8568 2.6675L15.8501 2.66758L15.8459 2.66762L15.8394 2.6677L15.8353 2.66775L15.8288 2.66783L15.8241 2.66789L15.8182 2.66797L15.8136 2.66803L15.8075 2.66811L15.8026 2.66819L15.7969 2.66827L15.7921 2.66834L15.7862 2.66844L15.7812 2.66852L15.7755 2.6686L15.771 2.66868L15.7646 2.66878L15.7604 2.66886L15.7539 2.66899L15.7498 2.66905L15.7434 2.66918L15.7384 2.66928L15.733 2.66938L15.7279 2.66948L15.7221 2.66961L15.7174 2.66971L15.7114 2.66983L15.707 2.66991L15.7007 2.67006L15.6962 2.67016L15.6899 2.6703L15.6858 2.6704L15.6793 2.67054L15.6749 2.67065L15.6686 2.67081L15.6644 2.67091L15.6581 2.67107L15.6534 2.67117L15.6474 2.67134L15.6431 2.67144L15.6365 2.67162L15.6324 2.67175L15.6259 2.67191L15.6218 2.67203L15.6154 2.67222L15.6108 2.67234L15.6047 2.67252L15.6005 2.67265L15.5941 2.67283L15.5895 2.67298L15.5835 2.67316L15.5792 2.67328L15.5725 2.67351L15.5686 2.67363L15.5617 2.67386L15.5581 2.67396L15.5509 2.67421L15.5476 2.67431L15.5398 2.67457L15.5371 2.67468L15.5296 2.67493L15.526 2.67507L15.5189 2.67532L15.5157 2.67542L15.5083 2.6757L15.5049 2.67583L15.4974 2.67609L15.4945 2.67622L15.487 2.67648L15.4835 2.67663L15.4765 2.67689L15.4729 2.67703L15.4662 2.6773L15.4622 2.67746L15.4549 2.67774L15.4519 2.67787L15.4444 2.67818L15.4411 2.67832L15.4339 2.6786L15.4305 2.67874L15.4234 2.67905L15.4198 2.67921L15.4117 2.67956L15.4095 2.67964L15.4015 2.68001L15.3986 2.68013L15.3906 2.6805L15.3882 2.6806L15.3801 2.68096L15.3775 2.68109L15.3676 2.68154L15.3672 2.68156L15.3583 2.68198L15.3563 2.68209L15.3357 2.68306L15.3352 2.6831L15.3153 2.68408L15.3138 2.68416C15.2711 2.68632 15.2288 2.68868 15.1863 2.69124H15.1862C15.172 2.6921 15.1582 2.69295 15.1441 2.69385L15.1424 2.69395L15.1334 2.69452L15.132 2.69462L15.123 2.69519L15.1209 2.69533L15.1123 2.6959L15.1105 2.69603L15.102 2.69657L15.0994 2.69676L15.0912 2.69731L15.0893 2.69743L15.0807 2.69802L15.0786 2.69816L15.07 2.69875L15.068 2.69888L15.06 2.69945L15.0565 2.6997L15.0491 2.70021L15.0464 2.70041L15.0388 2.70094L15.0357 2.70116L15.0278 2.70173L15.0258 2.70188L15.0176 2.70247L15.0147 2.70269L15.007 2.70324L15.0041 2.70346L14.9966 2.70401L14.9935 2.70426L14.9859 2.70483L14.9829 2.70506L14.976 2.70557L14.9717 2.70589L14.9652 2.7064L14.9615 2.70668L14.9549 2.70719L14.9508 2.70752L14.9439 2.70805L14.9407 2.70831L14.9338 2.70884L14.9297 2.70917L14.9233 2.70968L14.9193 2.71L14.9128 2.71053L14.9088 2.71083L14.9019 2.7114L14.8984 2.71169L14.8919 2.71222L14.8875 2.71258L14.8812 2.71311L14.8773 2.71344L14.8705 2.71401L14.8671 2.71429L14.8595 2.71492L14.8567 2.71517L14.8495 2.71578L14.8459 2.71609L14.8388 2.7167L14.8355 2.71699L14.8284 2.71761L14.825 2.7179L14.8181 2.71851L14.8142 2.71885L14.8082 2.71938L14.8036 2.71979L14.7974 2.72034L14.7933 2.7207L14.7869 2.72127L14.7828 2.72166L14.7765 2.72223L14.7721 2.72262L14.7668 2.7231L14.7614 2.72361L14.7561 2.7241L14.7512 2.72455L14.7455 2.72508L14.7407 2.72553L14.7351 2.72605L14.7301 2.72652L14.7255 2.72697L14.7194 2.72754L14.7152 2.72795L14.709 2.72854L14.7046 2.72896L14.6988 2.72953L14.6936 2.73002L14.6883 2.73055L14.684 2.73098L14.6776 2.73159L14.674 2.73195L14.6672 2.73263L14.6632 2.73301L14.657 2.73364L14.6526 2.73407L14.6463 2.7347L14.644 2.73495L14.6253 2.73684L14.6246 2.73692L14.6149 2.73792L14.6147 2.73794C14.5182 2.74791 14.422 2.75889 14.3261 2.7709L14.3261 2.77092C13.9971 2.81212 13.6719 2.86516 13.3507 2.93006C13.179 2.96456 13.0157 3.03257 12.8703 3.1302C12.7248 3.22782 12.6 3.35315 12.5031 3.49901C12.4061 3.64488 12.3388 3.80843 12.305 3.98031C12.2713 4.1522 12.2717 4.32905 12.3063 4.50076C12.3409 4.67248 12.4091 4.83568 12.5068 4.98106C12.6045 5.12644 12.7299 5.25114 12.8758 5.34803C13.0218 5.44492 13.1854 5.51211 13.3573 5.54576C13.5292 5.5794 13.706 5.57884 13.8777 5.54411C14.5764 5.40378 15.2874 5.33321 16.0001 5.33342C18.8281 5.33661 21.5393 6.46144 23.539 8.46114C25.5387 10.4608 26.6635 13.1721 26.6667 16.0001C26.6667 17.7183 26.2148 19.4198 25.3234 21.0572C25.0483 21.5627 24.944 22.1437 25.0263 22.7133C25.1086 23.283 25.373 23.8107 25.78 24.2177L26.3432 24.7809C26.4461 24.8834 26.5278 25.0052 26.5835 25.1393C26.6393 25.2734 26.6681 25.4172 26.6683 25.5624C26.6684 25.7077 26.6399 25.8515 26.5844 25.9857C26.5289 26.1199 26.4475 26.2419 26.3448 26.3446C26.2421 26.4473 26.1202 26.5287 25.986 26.5843C25.8518 26.6398 25.7079 26.6683 25.5627 26.6681C25.4175 26.668 25.2737 26.6392 25.1396 26.5835C25.0055 26.5277 24.8837 26.446 24.7812 26.3431L24.2179 25.7798C23.8109 25.3728 23.2832 25.1084 22.7135 25.0261C22.1439 24.9438 21.5629 25.0481 21.0574 25.3233C19.6896 26.0863 18.1705 26.5386 16.6081 26.6479C16.2624 26.6694 15.9387 26.8245 15.7054 27.0805C15.4721 27.3365 15.3476 27.6732 15.3581 28.0194C15.3687 28.3656 15.5136 28.6941 15.7621 28.9353C16.0106 29.1766 16.3432 29.3117 16.6896 29.312C16.7174 29.312 16.7455 29.3111 16.7736 29.3094C18.6042 29.1858 20.389 28.6831 22.0151 27.8332L22.0155 27.833L22.0352 27.8229L22.0355 27.8227C22.0552 27.8126 22.0749 27.8024 22.0946 27.7921L22.0952 27.7918L22.1047 27.7868L22.1051 27.7866L22.1144 27.7817L22.1154 27.7812L22.1245 27.7764L22.1253 27.776C22.1413 27.7676 22.1574 27.7592 22.1732 27.7508L22.1746 27.75L22.1825 27.7458L22.1849 27.7446L22.1922 27.7407L22.1955 27.7389L22.2025 27.7352L22.206 27.7334L22.2125 27.7299L22.2167 27.7277L22.2231 27.7242L22.2264 27.7225L22.2336 27.7187L22.2351 27.7179L22.2503 27.7097L22.2537 27.7079L22.2598 27.7046L22.264 27.7024L22.2699 27.6992L22.2747 27.6966L22.2802 27.6936L22.285 27.691L22.2906 27.6881L22.2959 27.6852L22.3011 27.6824L22.3062 27.6796L22.3115 27.6767L22.3176 27.6734L22.3218 27.6711L22.3322 27.6654L22.8956 28.2288C23.2457 28.579 23.6615 28.8567 24.119 29.0463C24.5766 29.2358 25.067 29.3333 25.5622 29.3333C26.0575 29.3333 26.5479 29.2358 27.0054 29.0463C27.463 28.8567 27.8787 28.579 28.2289 28.2288C28.5791 27.8786 28.8569 27.4628 29.0464 27.0053C29.2359 26.5477 29.3335 26.0573 29.3335 25.5621C29.3335 25.0668 29.2359 24.5765 29.0464 24.1189C28.8569 23.6614 28.5791 23.2456 28.2289 22.8954L27.6656 22.3321C28.7452 20.3953 29.3188 18.2174 29.3334 16.0001C29.3334 12.4639 27.9286 9.07249 25.4281 6.57201C22.9277 4.07152 19.5363 2.66676 16.0001 2.66675Z" fill="#0784FF"/>
<path d="M48.0001 34.6667C45.7827 34.6814 43.6048 35.255 41.6679 36.3346L41.1045 35.7712C40.3973 35.064 39.4381 34.6667 38.438 34.6667C37.4378 34.6667 36.4786 35.064 35.7714 35.7712H35.7712C35.064 36.4785 34.6667 37.4377 34.6667 38.4379C34.6667 39.4381 35.064 40.3973 35.7712 41.1046L36.3345 41.6679C35.255 43.6048 34.6813 45.7827 34.6667 48.0001C34.6667 50.6372 35.4487 53.215 36.9138 55.4077C38.3789 57.6003 40.4613 59.3093 42.8976 60.3185C45.334 61.3276 48.0148 61.5917 50.6013 61.0772C53.1877 60.5627 55.5634 59.2929 57.4281 57.4282C59.2928 55.5635 60.5627 53.1877 61.0772 50.6013C61.5917 48.0149 61.3276 45.334 60.3184 42.8976C59.3093 40.4613 57.6003 38.3789 55.4077 36.9138C53.215 35.4487 50.6371 34.6667 48.0001 34.6667Z" fill="#FFBE00"/>
<path d="M47.813 53.3301C46.4352 53.2715 45.1326 52.6855 44.1747 51.6935C43.2169 50.7014 42.6769 49.3791 42.6667 48C42.6667 47.1713 42.8937 46.3513 43.3617 45.4922L44.1125 44.1125L45.4933 43.361C46.3512 42.8938 47.1712 42.6667 48 42.6667C48.7072 42.6667 49.3855 42.3858 49.8856 41.8857C50.3857 41.3856 50.6667 40.7073 50.6667 40C50.6667 39.2928 50.3857 38.6145 49.8856 38.1144C49.3855 37.6143 48.7072 37.3334 48 37.3334C46.2813 37.3334 44.5807 37.7852 42.9427 38.6771L41.1914 39.6302L39.2188 37.6563C39.0115 37.4494 38.7307 37.3332 38.4378 37.3333C38.145 37.3333 37.8642 37.4496 37.6571 37.6566C37.4499 37.8636 37.3335 38.1444 37.3332 38.4372C37.333 38.73 37.449 39.011 37.6558 39.2183L37.6563 39.2188L39.6302 41.1914L38.6771 42.9427C37.7852 44.5808 37.3333 46.2813 37.3333 48V48.0341C37.3333 48.0393 37.3335 48.0445 37.3335 48.0498V48.0679C37.3337 48.0731 37.3337 48.0782 37.3337 48.0834V48.0848C37.3337 48.09 37.3338 48.0948 37.3338 48.1V48.1018C37.3338 48.1066 37.334 48.1119 37.334 48.1167V48.1187C37.334 48.1236 37.3342 48.1286 37.3342 48.1337V48.1356C37.3343 48.1405 37.3343 48.1457 37.3343 48.1506L37.3345 48.1524C37.3345 48.1573 37.3345 48.1623 37.3346 48.1672V48.1693C37.3348 48.1742 37.3348 48.1791 37.335 48.184V48.1862C37.335 48.1913 37.3351 48.1958 37.3351 48.2007L37.3353 48.2032C37.3353 48.208 37.3355 48.2128 37.3355 48.2176L37.3356 48.2201C37.3356 48.225 37.3358 48.2295 37.3359 48.2344V48.237C37.3361 48.2419 37.3361 48.2465 37.3363 48.2513V48.2536C37.3364 48.2587 37.3366 48.2632 37.3366 48.2681L37.3368 48.2705C37.3369 48.2754 37.3369 48.2801 37.3371 48.285V48.2871L37.3376 48.3018V48.3041L37.3381 48.3187V48.3205L37.3386 48.3357V48.3373L37.339 48.3524L37.3392 48.3539L37.3397 48.3693V48.3705L37.3402 48.3859L37.3403 48.3872L37.3408 48.4024V48.4037C37.341 48.4086 37.3413 48.4143 37.3415 48.4191V48.4201C37.3416 48.4253 37.342 48.4302 37.3421 48.4354V48.437C37.3425 48.4423 37.3426 48.4468 37.3428 48.452L37.3429 48.4538L37.3434 48.4685L37.3436 48.4706C37.3438 48.4755 37.3441 48.4807 37.3442 48.4855L37.3444 48.4872C37.3446 48.4921 37.3447 48.4971 37.3451 48.502V48.5041C37.3454 48.509 37.3455 48.5139 37.3459 48.5187V48.5207C37.3462 48.5256 37.3464 48.5305 37.3467 48.5353V48.5375C37.347 48.5423 37.3472 48.5474 37.3475 48.5523V48.5541C37.3478 48.5589 37.348 48.5638 37.3483 48.5686L37.3485 48.5712C37.3486 48.576 37.349 48.5804 37.3491 48.5853C37.3493 48.5862 37.3493 48.5871 37.3493 48.5879C37.3496 48.5928 37.3498 48.597 37.3501 48.6019L37.3503 48.6047C37.3506 48.6096 37.3508 48.614 37.3511 48.6187L37.3512 48.6211C37.3516 48.626 37.3517 48.6306 37.3521 48.6355L37.3522 48.6379C37.3525 48.6428 37.3527 48.6472 37.353 48.6521L37.3532 48.6545C37.3535 48.6594 37.3538 48.6639 37.354 48.6688L37.3542 48.6711L37.3552 48.6856L37.3553 48.6877C37.3556 48.6924 37.356 48.6973 37.3561 48.7022L37.3563 48.7043L37.3573 48.7189L37.3574 48.7206L37.3584 48.7355L37.3586 48.7375L37.3595 48.7525L37.3597 48.7534C37.36 48.7587 37.3604 48.7639 37.3608 48.7689V48.7701C37.3612 48.7753 37.3617 48.7806 37.362 48.7858V48.7862C37.3625 48.7915 37.3628 48.7964 37.3631 48.802L37.3633 48.8026C37.3636 48.8081 37.3641 48.8133 37.3644 48.8189V48.819C37.3649 48.8243 37.3652 48.8293 37.3657 48.8345V48.836C37.3662 48.8412 37.3665 48.8461 37.367 48.8511V48.8524C37.3675 48.8576 37.3678 48.862 37.3683 48.8672L37.3685 48.8693C37.3688 48.8741 37.3693 48.8793 37.3696 48.8841L37.3698 48.8856C37.3701 48.8905 37.3706 48.8955 37.3709 48.9003L37.3711 48.9025C37.3716 48.9073 37.3719 48.9118 37.3724 48.9167L37.3726 48.9191C37.3731 48.9239 37.3734 48.9284 37.3739 48.9331L37.374 48.9357C37.3744 48.9405 37.3748 48.9452 37.3753 48.9499L37.3755 48.9522C37.3758 48.9569 37.3763 48.9615 37.3768 48.9663L37.377 48.9688C37.3774 48.9737 37.3778 48.9782 37.3783 48.9829L37.3784 48.9852C37.3789 48.9899 37.3792 48.9945 37.3797 48.9994L37.3801 49.0018C37.3804 49.0067 37.3809 49.0113 37.3814 49.0161L37.3815 49.0181L37.383 49.0326L37.3831 49.0349C37.3836 49.0396 37.3841 49.0443 37.3844 49.049L37.3848 49.0513C37.3853 49.056 37.3856 49.0607 37.3861 49.0655L37.3864 49.0679L37.3879 49.0822L37.388 49.084C37.3885 49.0887 37.389 49.0939 37.3895 49.0988L37.3897 49.1003C37.3901 49.1055 37.3906 49.1102 37.3913 49.1153V49.1166C37.3919 49.1215 37.3924 49.1268 37.3929 49.1315L37.3931 49.1335C37.3937 49.1385 37.3942 49.1429 37.3947 49.1481L37.3949 49.1496C37.3953 49.1548 37.396 49.1595 37.3965 49.1646L37.3966 49.1659C37.3971 49.1709 37.3978 49.1758 37.3983 49.181L37.3984 49.182C37.3989 49.1869 37.3996 49.1921 37.4001 49.1968L37.4002 49.1984C37.4007 49.2032 37.4014 49.2087 37.4018 49.2136L37.402 49.2144C37.4027 49.2194 37.4031 49.2246 37.4038 49.2299L37.404 49.2308C37.4045 49.236 37.4051 49.2406 37.4056 49.2458L37.4059 49.2474C37.4064 49.2521 37.407 49.2572 37.4075 49.2619L37.4077 49.264C37.4084 49.2687 37.409 49.2738 37.4095 49.2785L37.4097 49.2803C37.4103 49.285 37.411 49.2901 37.4114 49.295L37.4118 49.2967C37.4123 49.3015 37.4129 49.3063 37.4134 49.3111L37.4137 49.3132C37.4144 49.3179 37.4149 49.3223 37.4155 49.3272L37.4158 49.3298C37.4163 49.3347 37.417 49.3389 37.4175 49.3436L37.4178 49.3461C37.4184 49.3508 37.4189 49.3553 37.4196 49.3601L37.4199 49.3623C37.4206 49.3671 37.421 49.3716 37.4217 49.3765L37.422 49.3788C37.4227 49.3835 37.4232 49.3879 37.4238 49.3926L37.4241 49.3952L37.4261 49.4092L37.4263 49.4112L37.4282 49.4255L37.4285 49.4278C37.4292 49.4325 37.4297 49.437 37.4303 49.4418L37.4306 49.4442L37.4326 49.458L37.4329 49.4605L37.4349 49.4747L37.4352 49.4763C37.4359 49.481 37.4365 49.4862 37.4372 49.4909L37.4373 49.4925C37.4381 49.4976 37.4388 49.5023 37.4394 49.5074L37.4396 49.5085L37.4417 49.5235L37.442 49.5253C37.4427 49.5303 37.4433 49.5347 37.4442 49.5399L37.4443 49.5412C37.4451 49.5463 37.4458 49.5511 37.4466 49.5562V49.557C37.4474 49.5617 37.4482 49.5673 37.4489 49.572L37.449 49.5734C37.4498 49.5782 37.4505 49.583 37.4512 49.5878L37.4515 49.5894C37.4523 49.5944 37.4529 49.5992 37.4538 49.6044L37.4539 49.6053C37.4546 49.6104 37.4554 49.6154 37.4562 49.6205L37.4564 49.6216C37.4572 49.6267 37.4578 49.6315 37.4586 49.6366L37.4588 49.6379L37.4611 49.6524L37.4614 49.6543C37.4622 49.6591 37.4629 49.6636 37.4637 49.6683L37.464 49.6706C37.4647 49.6753 37.4655 49.6797 37.4661 49.6844L37.4666 49.6867C37.4673 49.6914 37.4681 49.696 37.4687 49.7007L37.4692 49.703C37.4699 49.7077 37.4705 49.712 37.4713 49.7167L37.4718 49.7193C37.4725 49.724 37.4733 49.7284 37.4741 49.7331L37.4744 49.7354C37.4752 49.7401 37.4759 49.7447 37.4767 49.7494L37.477 49.7515C37.4778 49.7562 37.4787 49.7606 37.4793 49.7653L37.4798 49.7678L37.4821 49.7813L37.4826 49.7842L37.4848 49.7976L37.4853 49.8002C37.4861 49.8049 37.4868 49.8091 37.4876 49.8137L37.4881 49.8163C37.4889 49.821 37.4896 49.8252 37.4904 49.83L37.4909 49.8326C37.4915 49.837 37.4925 49.8417 37.4931 49.8461L37.4936 49.8487C37.4944 49.8531 37.4953 49.858 37.4961 49.8623L37.4964 49.8645C37.4972 49.8692 37.498 49.8737 37.499 49.8785L37.4993 49.8806C37.5001 49.8855 37.501 49.8899 37.5019 49.8949L37.5021 49.8962C37.5031 49.9011 37.5039 49.9058 37.5047 49.9109L37.505 49.9123C37.506 49.9174 37.5068 49.9221 37.5078 49.9271L37.508 49.9281C37.5088 49.9331 37.5097 49.9382 37.5107 49.9431L37.5109 49.9441C37.5117 49.9489 37.5128 49.9545 37.5137 49.9594L37.5166 49.9745L37.5167 49.9758C37.5177 49.9808 37.5185 49.9854 37.5195 49.9904L37.5198 49.9919C37.5208 49.9968 37.5215 50.001 37.5224 50.0061L37.5229 50.008C37.5237 50.0127 37.5247 50.0176 37.5255 50.0222L37.526 50.024C37.5268 50.0284 37.5278 50.0334 37.5286 50.0376L37.5291 50.0404C37.5299 50.0448 37.5309 50.0495 37.5317 50.0538L37.5322 50.0564C37.533 50.0606 37.534 50.0653 37.5348 50.0697L37.5355 50.0725C37.5363 50.077 37.5371 50.0811 37.5381 50.0858L37.5386 50.0884C37.5394 50.0927 37.5403 50.097 37.5412 50.1014L37.5418 50.1047C37.5426 50.1089 37.5436 50.1133 37.5444 50.1176L37.5451 50.1205C37.5459 50.125 37.5467 50.1291 37.5477 50.1337L37.5482 50.1363C37.5491 50.141 37.5501 50.1454 37.5511 50.1499L37.5514 50.1522C37.5524 50.1568 37.5534 50.161 37.5543 50.1657L37.5548 50.1683C37.5558 50.1729 37.5566 50.1771 37.5576 50.1817L37.5581 50.1843C37.5591 50.1888 37.5599 50.1929 37.5609 50.1976L37.5615 50.2002C37.5625 50.2048 37.5633 50.209 37.5643 50.2137L37.5648 50.2159C37.5657 50.2206 37.5667 50.2248 37.5677 50.2295L37.5682 50.2321C37.5692 50.2364 37.5701 50.2413 37.5711 50.2455L37.5716 50.2478L37.5745 50.2616L37.575 50.2632C37.576 50.2683 37.577 50.2728 37.5781 50.2777L37.5783 50.2788C37.5794 50.2837 37.5804 50.2884 37.5815 50.2933L37.5818 50.295L37.5851 50.3094L37.5853 50.3106C37.5864 50.3155 37.5875 50.3202 37.5885 50.3252L37.5888 50.3264C37.59 50.3312 37.5911 50.3363 37.5922 50.3413C37.5932 50.3464 37.5944 50.3513 37.5955 50.3562L37.5958 50.3575L37.5992 50.3724L37.5994 50.3732L37.6028 50.3881L37.603 50.389L37.6064 50.404L37.6067 50.4048L37.61 50.419L37.6105 50.4211C37.6114 50.4257 37.6126 50.4304 37.6137 50.4351L37.614 50.4367C37.6152 50.4413 37.6163 50.446 37.6173 50.4506L37.6178 50.4527C37.6189 50.4572 37.6201 50.4619 37.6212 50.4667L37.6215 50.4683C37.6227 50.4729 37.6236 50.4774 37.6248 50.482L37.6254 50.4844C37.6264 50.489 37.6275 50.4934 37.6287 50.4979L37.6292 50.5C37.6301 50.5046 37.6313 50.5088 37.6324 50.5135L37.6329 50.516C37.634 50.5205 37.6352 50.5248 37.6362 50.5295L37.6368 50.5314C37.6378 50.536 37.6389 50.5404 37.6401 50.545L37.6407 50.5476L37.644 50.5607L37.6444 50.5632C37.6456 50.5677 37.6467 50.5718 37.6479 50.5764L37.6485 50.579C37.6495 50.5832 37.6508 50.5881 37.6518 50.5923L37.6523 50.5944C37.6534 50.599 37.6545 50.6032 37.6557 50.6078L37.6563 50.6105C37.6575 50.6148 37.6586 50.6195 37.6597 50.6237L37.6602 50.6258L37.6637 50.6395L37.6641 50.6415L37.6679 50.6555L37.668 50.6566C37.6693 50.6615 37.6706 50.6662 37.6718 50.6711L37.6721 50.6724C37.6734 50.6773 37.6747 50.682 37.6759 50.6869L37.6762 50.6875C37.6773 50.6924 37.6788 50.6975 37.6799 50.7023L37.6803 50.7033C37.6816 50.7082 37.6829 50.7131 37.684 50.7178L37.6842 50.7185C37.6855 50.7232 37.6868 50.7279 37.6881 50.7328L37.6884 50.7342L37.6921 50.7481L37.6926 50.75C37.6938 50.7546 37.6951 50.7592 37.6962 50.7637L37.6969 50.7657C37.698 50.7702 37.6993 50.7749 37.7004 50.7795L37.7009 50.7811C37.7022 50.7857 37.7034 50.7902 37.7047 50.7948L37.7052 50.7969C37.7065 50.8015 37.7076 50.8057 37.7089 50.8103L37.7096 50.8125L37.7131 50.8257C37.7135 50.8266 37.7137 50.8274 37.7138 50.8283C37.7149 50.8324 37.7162 50.8369 37.7174 50.8412L37.7182 50.8439C37.7193 50.848 37.7205 50.8524 37.7216 50.8566L37.7226 50.8596C37.7237 50.8641 37.7249 50.8679 37.726 50.8723L37.7269 50.875C37.7282 50.8796 37.7292 50.8833 37.7305 50.8879L37.7313 50.8905C37.7326 50.8951 37.7337 50.8991 37.7349 50.9035L37.7357 50.906C37.7368 50.9105 37.7381 50.9146 37.7393 50.9191L37.7401 50.9216C37.7414 50.9261 37.7425 50.93 37.7438 50.9344L37.7445 50.9372C37.7458 50.9413 37.7471 50.9458 37.7482 50.9501L37.749 50.9527C37.7502 50.9569 37.7515 50.9615 37.7528 50.9655L37.7534 50.9681C37.7547 50.9724 37.756 50.9768 37.7572 50.981L37.758 50.9838C37.7593 50.988 37.7606 50.9925 37.7617 50.9966L37.7624 50.9989C37.7637 51.0031 37.7651 51.0078 37.7663 51.0121L37.7671 51.0145C37.7682 51.0188 37.7697 51.0235 37.7708 51.0275L37.7715 51.0298L37.7756 51.0432L37.7761 51.045C37.7774 51.0495 37.7788 51.0541 37.7801 51.0586L37.7806 51.0604C37.7821 51.0648 37.7834 51.0692 37.7847 51.0738L37.7852 51.0754C37.7865 51.0798 37.7879 51.0843 37.7892 51.0887L37.7897 51.0905C37.7912 51.0951 37.7925 51.0993 37.7938 51.1039L37.7944 51.1057C37.7958 51.1102 37.7972 51.1149 37.7985 51.1193L37.799 51.121C37.8005 51.1258 37.8018 51.1298 37.8032 51.1346L37.8039 51.1364C37.8052 51.141 37.8067 51.1455 37.808 51.1501L37.8086 51.1517C37.8099 51.1563 37.8114 51.1608 37.8127 51.1652L37.8133 51.1672C37.8148 51.1717 37.8161 51.1761 37.8176 51.1805L37.8182 51.1826C37.8195 51.187 37.821 51.1914 37.8223 51.1958L37.8229 51.1979C37.8244 51.2025 37.8257 51.2067 37.8272 51.2111L37.8278 51.2134C37.8293 51.2178 37.8306 51.2219 37.8319 51.2263L37.8327 51.2289C37.8342 51.2333 37.8355 51.2372 37.8369 51.2417L37.8376 51.2442L37.8418 51.257L37.8426 51.2595C37.8439 51.2639 37.8452 51.2679 37.8467 51.2725L37.8475 51.2746C37.849 51.2792 37.8503 51.2832 37.8517 51.2876L37.8524 51.2901C37.8539 51.2945 37.8553 51.2987 37.8566 51.3031L37.8574 51.3052C37.8587 51.3096 37.8602 51.3138 37.8617 51.3184L37.8623 51.3205L37.8667 51.3335L37.8675 51.336C37.8688 51.34 37.8703 51.3446 37.8718 51.3487L37.8724 51.3511C37.8739 51.3555 37.8753 51.3597 37.8768 51.3643L37.8775 51.3659C37.8789 51.3703 37.8804 51.375 37.8819 51.3794L37.8825 51.3812L37.8871 51.3947L37.8875 51.3963L37.8923 51.41L37.8926 51.4112L37.8975 51.4255L37.8976 51.4258C37.8993 51.4309 37.9007 51.4352 37.9025 51.4403L37.9028 51.4411C37.9043 51.4457 37.9061 51.4509 37.9076 51.4553L37.9079 51.4561L37.9126 51.4699L37.9133 51.4714L37.918 51.4852L37.9185 51.4864C37.9201 51.4911 37.9214 51.4951 37.923 51.4999L37.9237 51.5018C37.9253 51.5062 37.9268 51.5106 37.9284 51.515L37.9291 51.517C37.9305 51.5213 37.9321 51.5256 37.9336 51.53L37.9344 51.5321C37.9359 51.5365 37.9375 51.541 37.9391 51.5454L37.9396 51.5471C37.9413 51.5515 37.9427 51.5559 37.9444 51.5602L37.945 51.5624C37.9466 51.5668 37.9481 51.5708 37.9496 51.5752L37.9505 51.5777L37.9549 51.59L37.9559 51.593C37.9575 51.5974 37.9588 51.6011 37.9605 51.6055L37.9613 51.6078C37.9629 51.612 37.9644 51.6161 37.9658 51.6205L37.9668 51.6227C37.9683 51.6271 37.9699 51.6314 37.9714 51.6358L37.9722 51.6376C37.9736 51.642 37.9753 51.6464 37.9769 51.6507L37.9777 51.6529C37.9792 51.6571 37.981 51.6616 37.9824 51.666L37.9831 51.6673C37.9846 51.6717 37.9863 51.6765 37.988 51.6809L37.9886 51.6826L37.9935 51.696L37.9942 51.6975L37.999 51.7108L37.9999 51.7128C38.0015 51.7172 38.0031 51.7217 38.0047 51.7259L38.0052 51.7274C38.0068 51.7318 38.0086 51.7364 38.0103 51.7407L38.0111 51.7427C38.0127 51.7474 38.0142 51.7512 38.016 51.7559L38.0165 51.7574C38.0182 51.7619 38.0199 51.7661 38.0217 51.7709L38.0221 51.7723C38.0239 51.7769 38.0256 51.7813 38.0274 51.786L38.0277 51.7866C38.0293 51.791 38.0313 51.7961 38.0329 51.8005L38.0334 51.8016C38.035 51.8059 38.037 51.8109 38.0386 51.8153L38.0389 51.8161C38.0407 51.8208 38.0423 51.8249 38.0441 51.8296L38.0448 51.8312C38.0464 51.8356 38.0482 51.8402 38.0498 51.8446L38.0505 51.8461C38.0523 51.8508 38.0539 51.8547 38.0557 51.8594L38.0563 51.861C38.058 51.8654 38.0597 51.87 38.0615 51.8744L38.062 51.8758C38.0638 51.8802 38.0654 51.8846 38.0672 51.8889L38.068 51.891C38.0697 51.8952 38.0715 51.8998 38.0733 51.9042L38.0737 51.9056C38.0754 51.9099 38.0773 51.9144 38.079 51.9186L38.0798 51.9206C38.0814 51.925 38.0832 51.9292 38.0848 51.9336L38.0856 51.9354C38.0872 51.9398 38.0889 51.9437 38.0907 51.9481L38.0916 51.9505C38.0933 51.9548 38.0949 51.9588 38.0967 51.9631L38.0975 51.9652C38.0991 51.9694 38.1008 51.9733 38.1026 51.9777L38.1035 51.9802C38.1053 51.9846 38.1068 51.9883 38.1086 51.9925L38.1096 51.995C38.1112 51.9992 38.1128 52.0031 38.1146 52.0074L38.1156 52.0098C38.1174 52.014 38.1188 52.0179 38.1206 52.0222L38.1214 52.0243L38.1266 52.037L38.1276 52.0394C38.1292 52.0433 38.131 52.0479 38.1328 52.0518L38.1336 52.0539C38.1354 52.0583 38.1371 52.0621 38.1387 52.0663L38.1398 52.0691L38.145 52.0814L38.1457 52.0831C38.1476 52.0876 38.1493 52.0917 38.1512 52.0962L38.1517 52.0975C38.1537 52.1021 38.1554 52.1067 38.1574 52.1112L38.1577 52.1119C38.1597 52.1167 38.1615 52.121 38.1636 52.1259L38.1639 52.1267C38.1699 52.141 38.1761 52.1555 38.1821 52.1696L38.1823 52.17C38.1843 52.1747 38.1864 52.1794 38.1883 52.184L38.1887 52.1848L38.1947 52.1988L38.1948 52.1994C38.1968 52.204 38.1989 52.2086 38.2009 52.2131L38.2012 52.2141C38.2031 52.2186 38.2051 52.223 38.207 52.2276L38.2075 52.2287C38.2095 52.2333 38.2113 52.2375 38.2134 52.2421L38.2139 52.2435C38.2158 52.2478 38.2178 52.2523 38.2196 52.2566L38.2204 52.258C38.2222 52.2623 38.2243 52.267 38.2261 52.2712L38.2267 52.2725C38.2285 52.2769 38.2305 52.2813 38.2324 52.2855L38.2331 52.2873C38.235 52.2916 38.2368 52.2956 38.2388 52.2999L38.2398 52.3021C38.2416 52.3064 38.2433 52.3104 38.2453 52.3147L38.2461 52.3165C38.2479 52.3207 38.2499 52.3251 38.2518 52.3293L38.2525 52.3309C38.2544 52.3352 38.2564 52.3396 38.2583 52.3438L38.259 52.3454C38.2609 52.3497 38.2629 52.3541 38.2647 52.3583L38.2655 52.3601C38.2674 52.3643 38.2695 52.3689 38.2713 52.3731L38.2718 52.3742C38.2738 52.3785 38.2761 52.3834 38.2778 52.3874L38.2785 52.3887L38.2845 52.4019L38.285 52.4032L38.291 52.4164L38.2917 52.4179C38.2938 52.4222 38.2958 52.4265 38.2977 52.431L38.2982 52.4319C38.3001 52.4364 38.3023 52.441 38.3044 52.4455L38.3047 52.4462C38.3068 52.4506 38.3091 52.4555 38.3111 52.46L38.3112 52.4603C38.3135 52.4651 38.3156 52.4696 38.3177 52.4743L38.3179 52.4748C38.3246 52.4891 38.3311 52.5031 38.3379 52.5175V52.5176C38.34 52.522 38.3421 52.5266 38.3443 52.531L38.3449 52.5323C38.347 52.5367 38.349 52.5412 38.3511 52.5456L38.3516 52.5464C38.3537 52.551 38.3558 52.5556 38.3579 52.5599L38.3584 52.5608C38.3605 52.5653 38.3626 52.5697 38.3648 52.5743L38.3652 52.5752C38.3674 52.5796 38.3693 52.5839 38.3714 52.5884L38.3721 52.5896C38.374 52.5938 38.3763 52.5985 38.3783 52.6028L38.3789 52.6039C38.3809 52.6081 38.3833 52.613 38.3853 52.6172L38.3858 52.6181L38.3921 52.6312L38.3928 52.6325C38.3947 52.6368 38.3968 52.641 38.3989 52.6452L38.3998 52.647C38.4019 52.6513 38.4038 52.6555 38.4059 52.6596L38.4068 52.6613C38.4087 52.6654 38.4108 52.6698 38.4129 52.6739L38.4136 52.6755C38.4157 52.6796 38.4178 52.684 38.4198 52.688L38.4206 52.6898C38.4227 52.6939 38.4248 52.6981 38.4268 52.7024L38.4277 52.704C38.4297 52.7082 38.4318 52.7126 38.4339 52.7167L38.4346 52.718C38.4367 52.7222 38.4388 52.7268 38.4409 52.7308L38.4417 52.7323C38.4437 52.7364 38.446 52.7409 38.4481 52.745L38.4487 52.7465C38.4509 52.7507 38.453 52.7551 38.4551 52.7592L38.4559 52.7608C38.458 52.7652 38.4601 52.7691 38.4623 52.7735L38.4629 52.7746C38.465 52.7792 38.4671 52.7832 38.4694 52.7876L38.4699 52.7886C38.4722 52.7932 38.4745 52.7976 38.4767 52.802L38.4769 52.8025C38.4792 52.8072 38.4815 52.8114 38.4837 52.8161L38.4841 52.8166C38.4935 52.835 38.5029 52.8536 38.5124 52.872L38.5129 52.8728C38.5153 52.8775 38.5173 52.8816 38.5197 52.8863L38.52 52.8868L38.5269 52.8999L38.5274 52.9009L38.5342 52.9141L38.5347 52.9151C38.537 52.9193 38.5391 52.9232 38.5414 52.9276L38.5422 52.9294C38.5443 52.9335 38.5467 52.9379 38.5488 52.9419L38.5495 52.9432C38.5516 52.9473 38.5539 52.9515 38.556 52.9556L38.557 52.9574C38.5591 52.9615 38.5614 52.9657 38.5635 52.9698L38.5643 52.9714C38.5664 52.9755 38.5685 52.9792 38.5707 52.9833L38.572 52.9857C38.5741 52.9898 38.5762 52.9937 38.5783 52.9978L38.5791 52.9994C38.5814 53.0035 38.5835 53.0075 38.5856 53.0116L38.5868 53.0136C38.5889 53.0176 38.5912 53.0219 38.5934 53.0259L38.5939 53.0271C38.5962 53.0311 38.5986 53.0357 38.6008 53.0398L38.6016 53.0411C38.6039 53.0455 38.6061 53.0495 38.6084 53.0539L38.6089 53.0547C38.6112 53.0591 38.6136 53.0634 38.6159 53.0678L38.6164 53.0686C38.6188 53.073 38.6213 53.0775 38.6236 53.0819L38.6237 53.0821C38.6262 53.0866 38.6286 53.0909 38.631 53.0956L38.6315 53.0964C38.634 53.1008 38.6364 53.1054 38.6387 53.1096L38.6389 53.1098C38.6415 53.1145 38.6437 53.1189 38.6463 53.1234L38.6465 53.1237L38.6616 53.1511L38.6618 53.1514C38.6668 53.1605 38.6717 53.1695 38.6769 53.1786V53.1788C38.682 53.1877 38.687 53.1968 38.6921 53.2058L38.6926 53.2066C38.6952 53.2112 38.6974 53.2152 38.6999 53.2198L38.7002 53.2201C38.7027 53.2245 38.7053 53.2291 38.7077 53.2333L38.708 53.2339C38.7106 53.2387 38.7129 53.2427 38.7155 53.2473L38.7157 53.2476C38.7181 53.252 38.7206 53.2562 38.723 53.2606L38.7236 53.2616C38.7261 53.266 38.7285 53.2701 38.731 53.2745L38.7315 53.2753L38.7388 53.288L38.7393 53.2891C38.7419 53.2933 38.7443 53.2977 38.7468 53.302L38.7471 53.3026C38.7495 53.3069 38.752 53.3109 38.7544 53.3153L38.7552 53.3166C38.7575 53.3205 38.7601 53.3252 38.7624 53.3292L38.763 53.33C38.7655 53.3342 38.7679 53.3384 38.7704 53.3428L38.7708 53.3438C38.7735 53.348 38.7759 53.3523 38.7783 53.3565L38.7788 53.3573L38.7861 53.3698L38.787 53.3713C38.7892 53.3752 38.7918 53.3796 38.7943 53.3837L38.7948 53.3847C38.7972 53.3887 38.7998 53.3933 38.8023 53.3972L38.8029 53.3983C38.8054 53.4026 38.8078 53.4068 38.8104 53.411L38.8107 53.4117C38.8132 53.4159 38.8158 53.4201 38.8182 53.4244L38.819 53.4255C38.8215 53.4297 38.8239 53.434 38.8265 53.4382L38.8267 53.4387C38.8294 53.4431 38.8319 53.4472 38.8345 53.4517L38.8348 53.4522C38.8537 53.4838 38.8724 53.5149 38.8916 53.5463C38.8944 53.5507 38.897 53.5551 38.8998 53.5596L38.8999 53.5598C38.9027 53.5642 38.9051 53.5683 38.9079 53.5728L38.9082 53.5733L38.916 53.586L38.9167 53.587C38.9191 53.5909 38.9219 53.5954 38.9243 53.5993L38.9248 53.6003C38.9274 53.6046 38.93 53.6086 38.9326 53.6127L38.9333 53.6138C38.9359 53.6179 38.9385 53.6221 38.9411 53.6264L38.9414 53.627C38.944 53.6311 38.9466 53.6353 38.9492 53.6394L38.95 53.6405C38.9523 53.6444 38.9553 53.649 38.9577 53.6529L38.9582 53.6539C38.9608 53.658 38.9636 53.6622 38.9662 53.6664L38.9666 53.6671C38.9694 53.6715 38.9717 53.6752 38.9746 53.6798L38.9749 53.6804C38.9777 53.6848 38.9802 53.6887 38.9831 53.6931L38.9834 53.6936L38.9916 53.7065L38.9917 53.7068C38.9945 53.7112 38.9971 53.7154 39 53.7198L39.0002 53.7201C39.0029 53.7245 39.0057 53.7286 39.0085 53.733L39.0086 53.7333C39.0114 53.7377 39.0142 53.7419 39.0169 53.7463L39.0171 53.7465C39.0397 53.7818 39.0624 53.8166 39.0855 53.8516L39.0856 53.852L39.0943 53.865C39.0972 53.8694 39.0999 53.8738 39.1029 53.878L39.103 53.8782C39.1058 53.8826 39.1087 53.8868 39.1117 53.8912V53.8914C39.1146 53.8956 39.1174 53.8998 39.1203 53.904L39.1205 53.9044C39.1234 53.9088 39.1262 53.9128 39.1289 53.9172L39.1292 53.9176C39.132 53.9218 39.1349 53.926 39.1379 53.9304V53.9306C39.1408 53.9348 39.1436 53.939 39.1465 53.9434L39.1467 53.9436C39.1554 53.9566 39.1642 53.9695 39.173 53.9825V53.9827C39.1759 53.9869 39.1789 53.9911 39.1818 53.9955L39.182 53.9957C39.1849 53.9999 39.1878 54.0041 39.1908 54.0085C39.244 54.0863 39.2982 54.1634 39.3535 54.2397V54.2398C39.3566 54.2441 39.3595 54.2483 39.3626 54.2525H39.3628C39.3659 54.2568 39.3687 54.2607 39.3717 54.2649L39.3722 54.2656C39.3784 54.274 39.3843 54.2822 39.3905 54.2905V54.2906C39.3967 54.2991 39.4028 54.3074 39.409 54.3158L39.4092 54.316C39.4588 54.3834 39.5092 54.4501 39.5604 54.5162C39.5669 54.5245 39.5732 54.5326 39.5796 54.5409L39.5798 54.5411C39.5861 54.5494 39.5925 54.5575 39.599 54.5657V54.5658C39.612 54.5823 39.6248 54.5986 39.6379 54.615V54.6152C39.6509 54.6314 39.6639 54.6477 39.6769 54.6642C39.7261 54.7253 39.7758 54.7859 39.8262 54.846L39.8361 54.8578L39.8364 54.8582C39.9979 55.0501 40.1659 55.236 40.3403 55.4161V55.4163C41.0109 56.1089 41.7717 56.708 42.6022 57.1975L42.6029 57.1978C42.6073 57.2006 42.6115 57.2029 42.6159 57.2057L42.6164 57.2058C42.6209 57.2084 42.6248 57.2109 42.6294 57.2135L42.63 57.2138C42.6346 57.2166 42.6387 57.219 42.6432 57.2216L42.6435 57.2218L42.6566 57.2293L42.6574 57.2297C42.6619 57.2325 42.6658 57.2348 42.6704 57.2374L42.6709 57.2376C42.6755 57.2403 42.6794 57.2426 42.6839 57.2452L42.6847 57.2457C42.6893 57.2483 42.6932 57.2504 42.6977 57.2532L42.6982 57.2535C42.7026 57.2559 42.7069 57.2584 42.7111 57.2608L42.7122 57.2615L42.7249 57.2688L42.7257 57.2693C42.7301 57.2717 42.7344 57.2742 42.7388 57.2766L42.7396 57.2771C42.7438 57.2795 42.7484 57.2822 42.7528 57.2846C42.7573 57.2872 42.7617 57.2896 42.7663 57.2922L42.7669 57.2926L42.7801 57.3001H42.7803L42.7939 57.3079C42.8032 57.3129 42.8123 57.3181 42.8214 57.3232L42.8216 57.3233C42.8581 57.3437 42.895 57.3639 42.9316 57.3839L42.9325 57.3842C42.9368 57.3866 42.9412 57.3889 42.9456 57.3914L42.9463 57.3917C42.9507 57.3941 42.9551 57.3964 42.9595 57.3988L42.9603 57.3993C42.965 57.4018 42.9689 57.4039 42.9735 57.4063L42.9741 57.4067C42.9785 57.4091 42.9827 57.4114 42.9871 57.4137L42.9884 57.4143C42.9925 57.4166 42.9972 57.419 43.0013 57.4212L43.0021 57.4216C43.0062 57.4239 43.0111 57.4264 43.0151 57.4286L43.0163 57.4291C43.0207 57.4316 43.0249 57.4337 43.0293 57.4361L43.0301 57.4365C43.0342 57.4387 43.0387 57.4412 43.0428 57.4433L43.0444 57.4441C43.0487 57.4462 43.0531 57.4487 43.0571 57.4508L43.0583 57.4514C43.0623 57.4535 43.0669 57.4558 43.071 57.4579L43.0726 57.4589C43.0768 57.4612 43.0809 57.4631 43.0853 57.4654L43.0861 57.4659C43.0905 57.4682 43.0947 57.4705 43.0991 57.4727L43.1004 57.4734L43.1133 57.4801L43.1142 57.4806L43.1274 57.4874L43.1282 57.4879C43.1326 57.49 43.1372 57.4924 43.1416 57.4947L43.1419 57.4949C43.1466 57.4972 43.1509 57.4994 43.1556 57.5019L43.1564 57.5024C43.161 57.5045 43.1654 57.5069 43.1697 57.509L43.1701 57.5092C43.1745 57.5115 43.179 57.5138 43.1834 57.516L43.1842 57.5165C43.189 57.5188 43.193 57.5209 43.1977 57.5232L43.1982 57.5235C43.2026 57.5258 43.2069 57.5279 43.2114 57.5302L43.2126 57.5309C43.2171 57.533 43.2212 57.5351 43.2257 57.5374L43.2267 57.5379C43.2311 57.5401 43.2352 57.5421 43.2396 57.5444L43.241 57.545C43.2451 57.5471 43.2493 57.5492 43.2536 57.5514L43.2554 57.5522C43.2591 57.5541 43.2637 57.5564 43.2674 57.5582L43.2697 57.5593L43.2817 57.5654L43.2838 57.5665C43.2878 57.5683 43.292 57.5704 43.2959 57.5724L43.2982 57.5735C43.3024 57.5756 43.306 57.5774 43.3102 57.5794L43.3123 57.5805C43.3166 57.5825 43.3203 57.5844 43.3244 57.5864L43.3268 57.5875C43.3309 57.5896 43.3343 57.5912 43.3385 57.5932L43.341 57.5945C43.3452 57.5964 43.3488 57.5982 43.3529 57.6002L43.3553 57.6015C43.3595 57.6034 43.3629 57.6052 43.3672 57.6072C43.3679 57.6077 43.3688 57.608 43.3696 57.6083C43.3737 57.6104 43.3773 57.6121 43.3815 57.6142C43.3824 57.6145 43.3832 57.6149 43.3839 57.6153C43.3879 57.6171 43.3918 57.6191 43.3957 57.621C43.3966 57.6214 43.3975 57.6218 43.3984 57.6223C43.4023 57.6241 43.4061 57.6259 43.41 57.6279L43.4128 57.6292C43.4167 57.631 43.4206 57.6329 43.4243 57.6347L43.4271 57.636C43.431 57.6378 43.4349 57.6397 43.4388 57.6415L43.4414 57.6428C43.4453 57.6446 43.4494 57.6466 43.4531 57.6484C43.454 57.6488 43.4548 57.6492 43.4557 57.6495C43.4596 57.6515 43.4637 57.6534 43.4676 57.6552L43.4699 57.6563C43.4738 57.6581 43.4782 57.6601 43.4821 57.662L43.4844 57.663L43.4959 57.6686C43.4969 57.6689 43.4978 57.6693 43.4987 57.6699L43.5101 57.6751L43.5129 57.6764C43.5164 57.6782 43.5205 57.6799 43.5242 57.6816L43.5272 57.683L43.5386 57.6882C43.5393 57.6887 43.5402 57.6891 43.541 57.6894L43.5527 57.6948L43.5553 57.6961L43.567 57.7014L43.57 57.7027C43.5737 57.7045 43.5775 57.7062 43.5814 57.7079C43.5824 57.7085 43.5834 57.709 43.5845 57.7094C43.5884 57.7112 43.5918 57.7127 43.5957 57.7145C43.5965 57.7149 43.5981 57.7156 43.5991 57.7161L43.6099 57.721C43.6112 57.7215 43.6125 57.7221 43.6138 57.7228L43.6245 57.7276L43.6283 57.7293C43.6315 57.7307 43.6356 57.7325 43.639 57.7341C43.6403 57.7347 43.6416 57.7353 43.6429 57.7359C43.6465 57.7376 43.6499 57.739 43.6536 57.7407C43.6549 57.7412 43.6562 57.7418 43.6574 57.7424C43.661 57.7439 43.6645 57.7455 43.6681 57.7472C43.6695 57.7477 43.6708 57.7483 43.672 57.749C43.6756 57.7504 43.6792 57.752 43.6829 57.7537C43.684 57.7543 43.6852 57.7548 43.6864 57.7553L43.6974 57.7602L43.7012 57.7618C43.7048 57.7634 43.7083 57.7651 43.7119 57.7665C43.7132 57.7672 43.7145 57.7678 43.7158 57.7683C43.7194 57.7699 43.723 57.7714 43.7266 57.773L43.7303 57.7747C43.7341 57.7763 43.7376 57.7779 43.7412 57.7794C43.7425 57.78 43.7438 57.7805 43.745 57.781C43.7487 57.7826 43.7523 57.7843 43.7559 57.7859C43.7571 57.7864 43.7584 57.7869 43.7596 57.7875C43.7632 57.789 43.7669 57.7906 43.7705 57.7922L43.7742 57.7937C43.7782 57.7955 43.7812 57.7968 43.7853 57.7986L43.7887 57.8001C43.7926 57.8017 43.7961 57.8033 43.8 57.8049L43.8032 57.8062C43.8071 57.808 43.8109 57.8095 43.8148 57.8113L43.8179 57.8126C43.8214 57.814 43.8249 57.8155 43.8286 57.8171L43.8327 57.8189C43.8361 57.8204 43.8395 57.8219 43.8428 57.8232L43.8473 57.8251C43.8506 57.8266 43.854 57.8279 43.8573 57.8293L43.8621 57.8313C43.8651 57.8326 43.8685 57.8341 43.8716 57.8354L43.8766 57.8375L43.8865 57.8417L43.8908 57.8435C43.8942 57.8448 43.8975 57.8463 43.9007 57.8476L43.9058 57.8497C43.909 57.8512 43.9124 57.8525 43.9158 57.8539L43.9194 57.8554C43.9232 57.857 43.9264 57.8583 43.9302 57.8598L43.9347 57.8617C43.9381 57.8632 43.9416 57.8647 43.945 57.866L43.9492 57.8678C43.9526 57.8691 43.956 57.8705 43.9595 57.872C43.9609 57.8726 43.9627 57.8733 43.9643 57.8739C43.9676 57.8752 43.9712 57.8767 43.9746 57.8782L43.979 57.88C43.9824 57.8813 43.9857 57.8827 43.9891 57.884C43.9905 57.8847 43.9923 57.8853 43.994 57.886C43.9974 57.8875 44.0005 57.8888 44.0039 57.8901L44.0089 57.8922C44.012 57.8933 44.0154 57.8948 44.0185 57.8961C44.0205 57.8967 44.022 57.8974 44.0239 57.8982C44.027 57.8993 44.0304 57.9008 44.0335 57.9021C44.0355 57.9028 44.0368 57.9034 44.0386 57.9041C44.0416 57.9054 44.0452 57.9067 44.0483 57.908C44.0501 57.9088 44.0519 57.9095 44.0537 57.9101L44.0631 57.914C44.0651 57.9146 44.0667 57.9153 44.0687 57.9161C44.0718 57.9172 44.0749 57.9185 44.0779 57.9198C44.0799 57.9205 44.0818 57.9213 44.0836 57.9221C44.0867 57.9233 44.09 57.9246 44.0931 57.9259C44.095 57.9265 44.0965 57.9272 44.0983 57.9278C44.1017 57.9293 44.1045 57.9303 44.1079 57.9316C44.1099 57.9324 44.1116 57.9332 44.1136 57.9338L44.1225 57.9374C44.1245 57.9381 44.1266 57.939 44.1286 57.9397L44.1359 57.9426L44.1437 57.9457C44.1463 57.9467 44.1479 57.9473 44.1504 57.9482C44.1533 57.9493 44.1559 57.9503 44.1587 57.9514C44.1608 57.9522 44.1627 57.953 44.165 57.9539C44.1678 57.955 44.1709 57.9561 44.1737 57.9573C44.1756 57.9579 44.1779 57.9589 44.1798 57.9596C44.1826 57.9607 44.1859 57.962 44.1888 57.963C44.1906 57.9638 44.1925 57.9644 44.1943 57.9652C44.1976 57.9664 44.2008 57.9677 44.2039 57.9688C44.2059 57.9696 44.2077 57.9703 44.2095 57.9709C44.2127 57.9722 44.2153 57.9732 44.2184 57.9744C44.2202 57.975 44.2226 57.976 44.2246 57.9766C44.2277 57.9779 44.2305 57.9789 44.2337 57.9802C44.2355 57.9809 44.2376 57.9817 44.2396 57.9823C44.2427 57.9836 44.2458 57.9848 44.249 57.9859C44.2508 57.9867 44.2523 57.9872 44.2541 57.9879C44.2576 57.9892 44.2607 57.9903 44.2641 57.9916L44.2694 57.9936C44.2724 57.9947 44.2752 57.9959 44.2785 57.997L44.2845 57.9993C44.2874 58.0004 44.2907 58.0016 44.2936 58.0027L44.2996 58.005C44.3026 58.0059 44.3058 58.0072 44.3087 58.0082L44.3143 58.0103L44.3244 58.0141L44.3296 58.0159C44.3322 58.0168 44.3348 58.0178 44.3372 58.0188C44.3398 58.0198 44.3421 58.0206 44.3445 58.0214L44.3529 58.0245L44.3599 58.0271C44.3621 58.0279 44.3646 58.0287 44.3667 58.0295C44.3696 58.0305 44.3719 58.0315 44.3748 58.0325C44.3773 58.0335 44.3795 58.0341 44.3821 58.0351C44.3846 58.0361 44.3877 58.037 44.3901 58.038L44.397 58.0405L44.404 58.0431C44.4069 58.044 44.4098 58.045 44.4126 58.0461C44.414 58.0466 44.4154 58.0471 44.4168 58.0476C44.4202 58.0488 44.4241 58.0502 44.4277 58.0515C44.429 58.052 44.4303 58.0525 44.4316 58.0528C44.4354 58.0543 44.4393 58.0556 44.4432 58.0571L44.4466 58.0582C44.4505 58.0597 44.4542 58.061 44.4582 58.0623C44.4593 58.0628 44.4609 58.0632 44.4622 58.0637C44.466 58.065 44.4699 58.0665 44.4738 58.0678L44.4765 58.0688C44.4806 58.0702 44.485 58.0717 44.4891 58.0732L44.4915 58.074C44.4958 58.0754 44.5006 58.0772 44.5047 58.0787L44.5065 58.0792C44.5109 58.0808 44.5153 58.0823 44.5197 58.0837L44.5223 58.0847C44.5265 58.0862 44.5311 58.0877 44.5351 58.0891L44.5376 58.0899C44.542 58.0916 44.5464 58.093 44.5509 58.0945L44.5526 58.0951C44.5569 58.0966 44.5617 58.0982 44.5662 58.0997L44.568 58.1003C44.5726 58.102 44.5768 58.1034 44.5812 58.1049L44.5836 58.1057C44.5882 58.1072 44.5926 58.1088 44.5972 58.1103L44.5986 58.1108C44.6032 58.1124 44.6082 58.114 44.6128 58.1155L44.6141 58.116C44.6186 58.1174 44.6235 58.1191 44.6279 58.1207L44.6297 58.1212C44.6339 58.1226 44.6388 58.1243 44.643 58.1256L44.6453 58.1264L44.6595 58.1311L44.6603 58.1313C44.6652 58.1329 44.6702 58.1347 44.6751 58.1363L44.6758 58.1365C45.6339 58.4512 46.632 58.6277 47.64 58.6607C47.668 58.6615 47.6956 58.662 47.7235 58.662C48.4227 58.6616 49.0937 58.3865 49.5921 57.8961C50.0904 57.4057 50.3763 56.7392 50.388 56.0401C50.3998 55.341 50.1365 54.6652 49.6548 54.1584C49.1732 53.6515 48.5118 53.3541 47.813 53.3302L47.813 53.3301Z" fill="#FFEA21"/>
<path d="M48 34.6668C45.7826 34.6814 43.6047 35.255 41.6678 36.3346L41.1045 35.7713C40.7547 35.4206 40.3391 35.1424 39.8815 34.9529C39.4238 34.7633 38.9333 34.6661 38.4379 34.6668C38.0843 34.6668 37.7452 34.8072 37.4951 35.0573C37.2451 35.3073 37.1046 35.6465 37.1046 36.0001C37.1046 36.3537 37.2451 36.6928 37.4951 36.9429C37.7452 37.1929 38.0843 37.3334 38.4379 37.3334C38.583 37.3332 38.7267 37.3616 38.8607 37.4171C38.9948 37.4726 39.1165 37.5541 39.2189 37.6569L39.7822 38.2202C40.1892 38.6272 40.7169 38.8916 41.2866 38.9739C41.8562 39.0562 42.4372 38.9519 42.9427 38.6767C44.5803 37.7854 46.2818 37.3334 48 37.3334C50.0708 37.3334 52.0968 37.9362 53.8308 39.0681C55.5648 40.2001 56.9318 41.8123 57.765 43.708C58.5983 45.6037 58.8617 47.7009 58.5232 49.7438C58.1847 51.7867 57.2589 53.6869 55.8587 55.2126C55.7401 55.3415 55.6481 55.4926 55.5879 55.6571C55.5277 55.8216 55.5005 55.9964 55.5079 56.1714C55.5152 56.3464 55.557 56.5183 55.6309 56.6771C55.7047 56.836 55.8091 56.9788 55.9381 57.0973C56.0672 57.2158 56.2183 57.3077 56.3828 57.3677C56.5474 57.4278 56.7222 57.4549 56.8972 57.4473C57.0722 57.4398 57.2441 57.3979 57.4029 57.3239C57.5617 57.25 57.7044 57.1455 57.8228 57.0163C59.5276 55.1636 60.6711 52.8647 61.1203 50.3873L61.1203 50.3871C61.1284 50.3421 61.1363 50.2969 61.144 50.2518L61.1441 50.2512L61.1457 50.2418L61.1457 50.2417L61.1473 50.2324L61.1474 50.2316L61.149 50.2223L61.149 50.2222L61.1506 50.2127L61.1507 50.2124C61.1582 50.1672 61.1655 50.122 61.1726 50.0767L61.1727 50.0759L61.1742 50.0665L61.1742 50.0664C61.1817 50.018 61.189 49.9694 61.196 49.9208L61.1963 49.9193L61.1975 49.9106L61.1976 49.9097L61.1989 49.9011L61.1991 49.8995L61.2003 49.891L61.2005 49.8898L61.2017 49.8813L61.2019 49.8798L61.2031 49.871L61.2032 49.8705L61.2045 49.8611L61.2046 49.8608L61.2059 49.8512L61.2059 49.851L61.2072 49.8415L61.2073 49.8409C61.2109 49.8151 61.2144 49.7894 61.2178 49.7636L61.2179 49.7626L61.2191 49.7536L61.2192 49.7528L61.2204 49.7436L61.2205 49.7429L61.2217 49.7338L61.2218 49.733L61.2229 49.7243L61.2231 49.7228L61.2242 49.7142L61.2243 49.7131L61.2255 49.7044L61.2256 49.7031L61.2267 49.6943L61.2269 49.6932L61.2279 49.6847L61.2282 49.6828L61.2292 49.6747L61.2294 49.6731L61.2305 49.6646L61.2306 49.6635C61.2338 49.6375 61.237 49.6116 61.2401 49.5855V49.5854L61.2412 49.5758L61.2413 49.5755L61.2422 49.5672L61.2425 49.565L61.2434 49.5573L61.2436 49.5551L61.2446 49.5469L61.2448 49.5453L61.2458 49.5367L61.2459 49.5354L61.2469 49.5272L61.2471 49.5249L61.248 49.5171L61.2482 49.5151L61.2491 49.5072L61.2494 49.5048L61.2502 49.4973L61.2505 49.4946L61.2513 49.4873L61.2517 49.4843L61.2525 49.4772L61.2527 49.4748L61.2536 49.4669L61.2537 49.4663C61.2558 49.4471 61.2578 49.4278 61.2598 49.4086L61.26 49.4072L61.2609 49.3987L61.261 49.3971L61.2618 49.3893L61.2621 49.3869L61.2629 49.3791L61.2631 49.3768L61.2639 49.3694L61.2642 49.3667L61.2649 49.3591L61.2652 49.3566L61.2659 49.3493L61.2662 49.3463L61.2669 49.3391L61.2672 49.3363L61.2679 49.3292L61.2682 49.326L61.2689 49.319L61.2693 49.3156L61.2699 49.3092L61.2703 49.305L61.2709 49.2989L61.2713 49.2947L61.2718 49.2889L61.2722 49.2849C61.2733 49.2741 61.2743 49.2632 61.2753 49.2525L61.2757 49.2482L61.2763 49.2416L61.2766 49.2383L61.2772 49.232L61.2776 49.2278L61.2781 49.2222L61.2785 49.2177L61.279 49.2122L61.2794 49.2073L61.28 49.2013L61.2803 49.1976L61.2809 49.1909L61.2812 49.1873L61.2817 49.1811L61.2821 49.1768L61.2826 49.1711L61.283 49.1663L61.2835 49.1609L61.2839 49.1563L61.2844 49.1507L61.2848 49.1455L61.2852 49.1406L61.2857 49.1353L61.2861 49.1303L61.2866 49.125L61.287 49.1199L61.2873 49.1157L61.2878 49.1095L61.2881 49.1064L61.2887 49.0992L61.2887 49.0987L61.2909 49.0721L61.2911 49.069L61.2916 49.0629L61.2919 49.0586L61.2924 49.0528L61.2927 49.0486L61.2932 49.0423L61.2935 49.0382L61.294 49.0321L61.2943 49.0282L61.2948 49.0217L61.2951 49.0177L61.2955 49.0119L61.2958 49.0075L61.2963 49.0015L61.2966 48.9972L61.297 48.9914L61.2974 48.9868L61.2978 48.9813L61.2982 48.9757L61.2985 48.9716L61.2989 48.9654L61.2993 48.9609L61.2997 48.9552L61.3 48.9506L61.3003 48.9454L61.3007 48.94L61.3011 48.9341L61.3014 48.9301L61.3019 48.9234L61.3021 48.9196L61.3035 48.8991L61.3037 48.896L61.3042 48.8886L61.3045 48.8848L61.3049 48.8786L61.3052 48.873L61.3055 48.8683L61.3059 48.8628L61.3062 48.858L61.3065 48.8528L61.3069 48.8472L61.3071 48.8429L61.3075 48.8369L61.3078 48.8325L61.3082 48.8264L61.3084 48.8222L61.3088 48.8161L61.309 48.8119L61.3094 48.8054L61.3096 48.8016L61.31 48.7952L61.3103 48.791L61.3106 48.7851L61.3109 48.7805L61.3112 48.7748L61.3115 48.7701L61.3118 48.7639L61.312 48.7599L61.3124 48.7535L61.3126 48.7494L61.313 48.7423L61.3132 48.7392L61.3136 48.7315L61.3138 48.7274L61.3143 48.7184L61.3146 48.7131L61.3148 48.7083L61.3152 48.702L61.3154 48.698L61.3157 48.6917L61.3159 48.6877L61.3162 48.6816L61.3164 48.6772L61.3167 48.6721L61.3169 48.6666L61.3172 48.662L61.3175 48.6559L61.3177 48.6519L61.318 48.6456L61.3182 48.6412L61.3185 48.6351L61.3187 48.6309L61.3189 48.6248L61.3191 48.6202L61.3194 48.6145L61.3196 48.6099L61.3199 48.6043L61.3201 48.5991L61.3203 48.5939L61.3205 48.5891L61.3208 48.5829L61.321 48.5787L61.3213 48.5719L61.3214 48.5684L61.3217 48.5611L61.3219 48.5579L61.3227 48.5372L61.3229 48.533L61.3231 48.5267L61.3233 48.5218L61.3235 48.5166L61.3237 48.5114L61.3239 48.5058L61.3241 48.5016L61.3243 48.4954L61.3244 48.4913L61.3247 48.4847L61.3248 48.4807L61.325 48.4748L61.3252 48.4699L61.3254 48.464L61.3256 48.4597L61.3258 48.4536L61.3259 48.4492L61.3261 48.4432L61.3263 48.4385L61.3264 48.4333L61.3266 48.428L61.3268 48.4226L61.3269 48.4177L61.3271 48.4119L61.3272 48.4074L61.3274 48.4015L61.3275 48.3967L61.3277 48.3921L61.3278 48.3862L61.328 48.3813L61.3281 48.3759L61.3287 48.3553L61.3288 48.3498L61.329 48.345L61.3291 48.3395L61.3292 48.3344L61.3293 48.3302L61.3295 48.3237L61.3296 48.32L61.3297 48.3132L61.3298 48.3093L61.33 48.3029L61.3301 48.2984L61.3302 48.2924L61.3303 48.2881L61.3304 48.282L61.3305 48.277L61.3306 48.2721L61.3307 48.2664L61.3308 48.2617L61.3309 48.2559L61.331 48.2508L61.3311 48.2461L61.3312 48.2397L61.3313 48.2355L61.3314 48.2296L61.3315 48.2249L61.3316 48.2194L61.3316 48.2144L61.3317 48.208L61.3318 48.2042L61.3319 48.1977L61.332 48.1934L61.3321 48.1852L61.3321 48.1818L61.3322 48.173L61.3323 48.1684L61.3324 48.162L61.3324 48.1586L61.3325 48.1519L61.3325 48.1472L61.3326 48.1412L61.3326 48.1366L61.3327 48.131L61.3327 48.126L61.3328 48.1203L61.3328 48.1154L61.3329 48.1101L61.3329 48.1049L61.333 48.0993L61.333 48.0944L61.333 48.089L61.3331 48.084L61.3331 48.0782L61.3331 48.0735L61.3332 48.0677L61.3332 48.0633L61.3332 48.0567L61.3332 48.0527L61.3332 48.0463L61.3333 48.0422L61.3333 48.0357L61.3333 48.0316L61.3333 48.0251V48.0211L61.3333 48.0143V48.0105V48.0001C61.3333 44.4639 59.9286 41.0725 57.4281 38.572C54.9276 36.0715 51.5362 34.6668 48 34.6668Z" fill="#FFA300"/>
<path d="M23.7992 20.5832L19.5173 7.86059C19.2694 7.12412 18.7966 6.48404 18.1656 6.03061C17.5346 5.57717 16.7771 5.33325 16 5.33325C15.223 5.33325 14.4655 5.57717 13.8345 6.03061C13.2034 6.48404 12.7307 7.12412 12.4828 7.86059L8.20089 20.5832C8.04111 20.9561 7.97634 21.3627 8.01239 21.7667C8.04844 22.1707 8.18419 22.5594 8.40746 22.8981C8.63073 23.2367 8.93454 23.5146 9.29167 23.7069C9.64879 23.8992 10.0481 23.9999 10.4537 23.9999H10.4538C10.9335 23.9999 11.4026 23.8592 11.8031 23.5951C12.2035 23.331 12.5176 22.9553 12.7066 22.5144L13.0616 21.3332H18.9385L19.2935 22.5144C19.4824 22.9553 19.7966 23.331 20.197 23.5951C20.5975 23.8592 21.0666 23.9999 21.5463 23.9999H21.5464C21.952 23.9999 22.3513 23.8992 22.7084 23.7069C23.0655 23.5146 23.3694 23.2367 23.5926 22.8981C23.8159 22.5594 23.9516 22.1707 23.9877 21.7667C24.0237 21.3627 23.959 20.9561 23.7992 20.5832ZM14.6644 15.9999L16 11.5554L17.3357 15.9999H14.6644Z" fill="white"/>
<path d="M16 5.3335L15.9915 5.33352H15.9902L15.9822 5.33354L15.9805 5.33356L15.9724 5.3336H15.9713L15.9633 5.33368H15.9625L15.9542 5.33378L15.9528 5.3338L15.9447 5.3339L15.9432 5.33392L15.9349 5.33406H15.9343L15.9263 5.33423L15.9251 5.33425L15.9169 5.33441L15.9156 5.33445L15.9074 5.33463L15.9061 5.33468L15.8976 5.3349H15.8973L15.8891 5.33515L15.8878 5.33519L15.8797 5.33544L15.8782 5.3355L15.8701 5.33577L15.8689 5.33581L15.8609 5.33609L15.8603 5.33611L15.8522 5.33644L15.8505 5.3365L15.8427 5.33682L15.8411 5.33688L15.833 5.33725L15.832 5.33729L15.8239 5.33766L15.8232 5.3377L15.8151 5.33809L15.8134 5.33817L15.8055 5.33857L15.804 5.33866L15.7958 5.33908L15.7951 5.33912L15.7871 5.33957L15.7861 5.33963L15.7782 5.3401L15.7762 5.34022L15.7686 5.34069L15.7669 5.34079L15.7593 5.34128L15.7582 5.34134L15.7505 5.34185L15.7489 5.34195L15.7412 5.34248L15.7393 5.34262L15.7315 5.34317L15.7301 5.34328L15.7226 5.34383L15.7217 5.34391L15.7139 5.3445L15.7119 5.34464L15.7045 5.34523L15.7023 5.34539L15.6946 5.34602L15.6936 5.3461L15.6861 5.34672L15.6847 5.34685L15.6768 5.34752L15.6752 5.34766L15.6674 5.34835L15.6658 5.3485L15.6576 5.34923L15.6576 5.34925L15.6492 5.35002L15.6481 5.35012L15.6402 5.3509L15.6384 5.35106L15.6308 5.35181L15.6289 5.35199L15.6215 5.35274L15.6209 5.35281L15.6129 5.35364L15.6112 5.35382L15.6036 5.35462L15.6017 5.35482L15.5941 5.35565L15.5926 5.35582L15.5853 5.35663L15.5842 5.35676L15.5763 5.35765L15.5746 5.35783L15.567 5.35873L15.5652 5.35893L15.5575 5.35985L15.5561 5.36001L15.5492 5.36085L15.5475 5.36105L15.5401 5.36198L15.5379 5.36225L15.5304 5.36318L15.5289 5.36339L15.5214 5.36434L15.5202 5.36451L15.5128 5.36548L15.5111 5.36569L15.5035 5.3667L15.5017 5.36695L15.494 5.36801L15.4927 5.3682L15.4856 5.36917L15.4841 5.3694L15.4765 5.37045L15.4747 5.37072L15.4673 5.37178L15.4653 5.37206L15.4577 5.37319L15.4565 5.37335L15.4494 5.37441L15.4479 5.37466L15.4404 5.37578L15.4384 5.37608L15.4311 5.3772L15.429 5.37753L15.4222 5.3786L15.42 5.37895L15.4137 5.37993L15.4115 5.38029L15.4043 5.38145L15.4021 5.3818L15.3949 5.38298L15.3929 5.38332L15.3863 5.38442L15.3845 5.38473L15.3777 5.38587L15.3754 5.38625L15.3682 5.3875L15.3662 5.38784L15.3588 5.38912L15.3571 5.38943L15.3505 5.39059L15.3489 5.39087L15.3416 5.3922L15.3394 5.39258L15.3322 5.3939L15.3304 5.39423L15.3227 5.39563L15.3217 5.39582L15.3146 5.39714L15.313 5.39744L15.3057 5.39883L15.3036 5.39923L15.2964 5.4006L15.2944 5.40098L15.2876 5.40231L15.2859 5.40265L15.2791 5.404L15.277 5.4044L15.2701 5.40579L15.2676 5.40627L15.2606 5.4077L15.2588 5.40806L15.2523 5.40939L15.2507 5.40973L15.2434 5.41123L15.2415 5.41162L15.2343 5.41313L15.2321 5.41359L15.2249 5.41512L15.2234 5.41544L15.2168 5.41685L15.215 5.41724L15.208 5.41876L15.2057 5.41929L15.1988 5.4208L15.1964 5.4213L15.1898 5.42279L15.1879 5.42322L15.1816 5.42464L15.1795 5.42511L15.1725 5.4267L15.1702 5.42722L15.1632 5.42883L15.1613 5.4293L15.1547 5.4308L15.1529 5.43123L15.1463 5.43277L15.144 5.43334L15.1371 5.43497L15.1347 5.43554L15.128 5.43714L15.1256 5.43773L15.1198 5.43916L15.1181 5.43957L15.111 5.44129L15.1088 5.44186L15.1018 5.44357L15.0997 5.4441L15.0929 5.44581L15.0908 5.44634L15.0847 5.44789L15.0827 5.44839L15.0758 5.45016L15.0735 5.45075L15.0667 5.45253L15.0645 5.45309L15.0584 5.45468L15.0559 5.45535L15.0499 5.45692L15.0476 5.45753L15.0408 5.45934L15.0386 5.45995L15.0316 5.4618L15.0296 5.46235L15.0236 5.464L15.0215 5.46455L15.0147 5.46644L15.0128 5.46697L15.0058 5.46888L15.0036 5.46951L14.9966 5.47146L14.995 5.47191L14.9891 5.47358L14.9869 5.4742L14.9801 5.47613L14.9779 5.47676L14.9712 5.47869L14.9687 5.4794L14.9622 5.48128L14.9605 5.48179L14.9542 5.48362L14.9521 5.48424L14.9454 5.48622L14.9431 5.48691L14.9363 5.48894L14.9342 5.48955L14.9282 5.49136L14.9259 5.49205L14.9198 5.49391L14.9175 5.4946L14.9107 5.49667L14.9086 5.49734L14.9017 5.49946L14.8998 5.50005L14.8938 5.50193L14.892 5.50247L14.8853 5.50461L14.883 5.50532L14.8762 5.50748L14.8742 5.5081L14.8672 5.51034L14.8657 5.51081L14.8595 5.51282L14.8577 5.51341L14.851 5.51557L14.8486 5.51638L14.8418 5.51858L14.8401 5.51915L14.8335 5.52135L14.8317 5.52194L14.8253 5.52405L14.8234 5.52468L14.8167 5.52694L14.8143 5.52773L14.8077 5.52999L14.8058 5.53061L14.7996 5.53273L14.7982 5.5332L14.7912 5.5356L14.7893 5.53629L14.7826 5.53859L14.7803 5.53938L14.7735 5.54176L14.7721 5.54225L14.7656 5.54453L14.7642 5.54502L14.7571 5.54756L14.7554 5.54815L14.7485 5.55063L14.7465 5.55133L14.7395 5.55387L14.7386 5.55419L14.7321 5.55653L14.7302 5.55723L14.7235 5.55969L14.7214 5.56046L14.7147 5.5629L14.7127 5.56365L14.7064 5.56599L14.7051 5.56648L14.6983 5.56902L14.6965 5.56969L14.6896 5.57228L14.6879 5.57295L14.6808 5.57563L14.6795 5.57612L14.6729 5.57865L14.6717 5.57909L14.6648 5.58176L14.6629 5.58249L14.6561 5.58512L14.6542 5.58587L14.6474 5.58853L14.646 5.58908L14.6397 5.59154L14.6381 5.59217L14.6314 5.59482L14.6293 5.59565L14.6226 5.59834L14.621 5.59899L14.6143 5.60167L14.6131 5.60216L14.6064 5.60489L14.6049 5.60548L14.5981 5.60827L14.5961 5.60906L14.5895 5.61179L14.5876 5.61256L14.5819 5.61492L14.5798 5.61577L14.5734 5.61844L14.5716 5.61919L14.5649 5.622L14.563 5.62279L14.5562 5.62566L14.5548 5.62625L14.5487 5.62884L14.5471 5.62949L14.5403 5.63244L14.5386 5.63313L14.5317 5.6361L14.5303 5.63673L14.5231 5.63982L14.5223 5.64019L14.5159 5.64295L14.5141 5.64375L14.5075 5.64666L14.5056 5.64749L14.499 5.6504L14.4972 5.65119L14.4907 5.65408L14.4901 5.65437L14.4832 5.65742L14.4813 5.65827L14.4748 5.6612L14.4729 5.66208L14.4662 5.66509L14.4647 5.66578L14.4586 5.66857L14.4572 5.66918L14.4506 5.67223L14.4486 5.67314L14.4421 5.67616L14.4404 5.67695L14.4336 5.68012L14.4325 5.68063L14.4262 5.68356L14.4248 5.68423L14.4182 5.68733L14.4163 5.68824L14.4096 5.69137L14.4081 5.69209L14.4014 5.69526L14.4005 5.69573L14.3938 5.69892L14.3924 5.69959L14.3858 5.70281L14.384 5.70368L14.3772 5.70696L14.3762 5.70745L14.3696 5.71068L14.3686 5.71115L14.3618 5.71449L14.3602 5.71528L14.3537 5.71849L14.3518 5.71943L14.3452 5.72271L14.344 5.72332L14.3378 5.72641L14.3364 5.7271L14.33 5.73035L14.328 5.73133L14.3218 5.7345L14.3196 5.7356L14.3136 5.73863L14.312 5.73944L14.3061 5.74252L14.3046 5.74329L14.2981 5.74661L14.2962 5.74761L14.2899 5.75086L14.288 5.75186L14.2822 5.75487L14.2806 5.7557L14.2745 5.75892L14.2727 5.75983L14.2663 5.76323L14.2645 5.76416L14.2582 5.76752L14.2564 5.7685L14.2507 5.77151L14.2494 5.7722L14.2429 5.7757L14.2412 5.77662L14.2347 5.78012L14.2332 5.78093L14.2266 5.78456L14.2254 5.78518L14.2193 5.78852L14.218 5.78921L14.2116 5.79275L14.2097 5.79379L14.2035 5.79724L14.2017 5.7982L14.1959 5.80145L14.1941 5.80241L14.1885 5.80558L14.1866 5.80664L14.1805 5.81006L14.1785 5.8112L14.1723 5.81466L14.1705 5.81567L14.1651 5.81876L14.1634 5.81972L14.1572 5.82324L14.1555 5.82422L14.1494 5.82774L14.1474 5.82892L14.1412 5.8325L14.1398 5.83329L14.1344 5.83642L14.1326 5.83748L14.1265 5.84104L14.1246 5.84214L14.1185 5.84572L14.1166 5.84685L14.1106 5.85037L14.1091 5.85128L14.1036 5.85453L14.1018 5.85561L14.0957 5.85925L14.0938 5.86037L14.0877 5.86407L14.086 5.86509L14.0806 5.86837L14.0786 5.86955L14.0733 5.87274L14.071 5.87414L14.0654 5.87758L14.0631 5.87899L14.0573 5.88253L14.0554 5.88369L14.0504 5.8868L14.0484 5.88802L14.0429 5.89144L14.0405 5.8929L14.0349 5.89644L14.0328 5.89774L14.0271 5.90128L14.0252 5.90251L14.0202 5.90564L14.0184 5.9068L14.0128 5.91036L14.0102 5.91195L14.0048 5.9154L14.0025 5.91689L13.9979 5.91982L13.9948 5.92182L13.9905 5.92463L13.988 5.92617L13.9827 5.92965L13.9801 5.93134L13.9748 5.93478L13.9723 5.9364L13.9683 5.93899L13.965 5.94112L13.9606 5.94403L13.9581 5.9457L13.9529 5.94914L13.9502 5.95091L13.9455 5.95404L13.9426 5.95599L13.9387 5.95858L13.9351 5.96096L13.931 5.96375L13.9282 5.96562L13.9233 5.96892L13.9202 5.97099L13.9165 5.97351L13.9128 5.97604L13.9094 5.97836L13.9054 5.98108L13.9016 5.98365L13.8985 5.98582L13.8952 5.98806L13.8905 5.99136L13.8879 5.99311L13.883 5.99652L13.88 5.99858L13.8757 6.00163L13.8724 6.00393L13.8689 6.00633L13.8663 6.00821L13.861 6.01193L13.8589 6.01343L13.8531 6.01748L13.8511 6.01893L13.8475 6.02151L13.8462 6.02243L13.8396 6.02715L13.8378 6.02841L13.8317 6.03282L13.8298 6.03415L13.8237 6.03856L13.822 6.03978L13.8183 6.04247L13.8161 6.04409L13.8105 6.04814L13.8088 6.0494L13.8025 6.05406L13.8011 6.0551L13.7892 6.06382L13.7889 6.06405L13.7815 6.06962L13.7803 6.07044L13.7731 6.07583L13.7725 6.07632C13.7658 6.08132 13.7591 6.08641 13.7524 6.09147L13.752 6.09182C13.6853 6.14262 13.6203 6.19567 13.557 6.25096C13.4252 6.36619 13.3173 6.50627 13.2396 6.66318C13.1619 6.8201 13.1159 6.99078 13.1042 7.16548C13.0924 7.34018 13.1152 7.51549 13.1712 7.68138C13.2272 7.84728 13.3154 8.00052 13.4306 8.13235C13.5459 8.26418 13.6859 8.37202 13.8428 8.44972C13.9998 8.52742 14.1704 8.57345 14.3451 8.58519C14.5198 8.59692 14.6952 8.57413 14.861 8.51812C15.0269 8.4621 15.1802 8.37396 15.312 8.25873C15.5025 8.09208 15.7469 8.00021 16 8.00016C16.2187 8.00003 16.432 8.06863 16.6096 8.19626C16.7872 8.32389 16.9203 8.50411 16.9899 8.71145L20.9947 20.6107C21.1074 20.9455 21.3485 21.2219 21.6649 21.3792C21.9813 21.5364 22.3472 21.5616 22.6822 21.4493C23.0172 21.337 23.2939 21.0962 23.4516 20.78C23.6092 20.4638 23.6349 20.098 23.523 19.7628L19.9404 9.1181L19.9398 9.11641L19.9371 9.10817L19.9357 9.10423L19.9071 9.0191L19.903 9.00692L19.8997 8.99699L19.8986 8.99387L19.8971 8.98954L19.8952 8.98374L19.8923 8.97511L19.8922 8.97475L19.8816 8.94352L19.8814 8.9427L19.8785 8.9342L19.877 8.92975L19.8747 8.92283L19.8743 8.92159L19.871 8.91201L19.8697 8.90794L19.869 8.90606L19.8665 8.89847L19.8651 8.89426L19.8622 8.88582L19.8621 8.88543L19.8597 8.87817L19.8579 8.87288L19.846 8.83768L19.8435 8.83014L19.839 8.81669L19.8356 8.8066L19.8331 8.79933L19.8271 8.78151L19.8189 8.75716L19.8169 8.7511L19.812 8.73643L19.8114 8.73468L19.8065 8.72013L19.8044 8.71395L19.7933 8.68098L19.792 8.67724L19.787 8.66231L19.7852 8.65704L19.7841 8.65358L19.7785 8.6371L19.7782 8.63619L19.7764 8.63069L19.7747 8.62566L19.7734 8.62202L19.7687 8.6079L19.7669 8.60261L19.7563 8.57105L19.755 8.56733L19.7332 8.50235L19.7318 8.49836L19.7214 8.46744L19.7213 8.46701L19.7108 8.43586L19.71 8.43356L19.6999 8.40355L19.6995 8.40244L19.6904 8.37521L19.686 8.36213L19.6848 8.35869L19.684 8.35623C19.5778 8.04082 19.5173 7.86081 19.5173 7.86081C19.2694 7.12435 18.7966 6.48427 18.1656 6.03083C17.5345 5.5774 16.7771 5.33349 16 5.3335Z" fill="#EFF2FF"/>
<path d="M40 42.6667C40 43.0169 40.069 43.3636 40.203 43.6872C40.337 44.0107 40.5334 44.3047 40.781 44.5523C41.0287 44.7999 41.3226 44.9963 41.6462 45.1303C41.9697 45.2644 42.3165 45.3333 42.6667 45.3333H47.1112L41.4222 49.6C40.9806 49.9312 40.6222 50.3606 40.3754 50.8544C40.1285 51.3481 40 51.8925 40 52.4444C40 52.9114 40.092 53.3737 40.2706 53.8051C40.4493 54.2365 40.7112 54.6284 41.0414 54.9586C41.3716 55.2888 41.7635 55.5507 42.1949 55.7294C42.6263 55.908 43.0886 56 43.5555 56H53.3333C54.0406 56 54.7189 55.719 55.219 55.219C55.719 54.7189 56 54.0406 56 53.3333C56 52.9831 55.931 52.6364 55.797 52.3128C55.663 51.9893 55.4666 51.6953 55.219 51.4477C54.9713 51.2001 54.6774 51.0037 54.3538 50.8697C54.0303 50.7356 53.6835 50.6667 53.3333 50.6667H49.3333L54.6481 46.4148C55.07 46.0774 55.4105 45.6494 55.6445 45.1625C55.8785 44.6756 56 44.1423 56 43.6021V43.6021C56 42.6467 55.6205 41.7305 54.945 41.055C54.2695 40.3795 53.3533 40 52.3979 40H42.6667C41.9594 40 41.2811 40.281 40.781 40.781C40.281 41.2811 40 41.9594 40 42.6667Z" fill="white"/>
<path d="M52.398 40H42.6667C42.3133 40.0003 41.9745 40.141 41.7248 40.391C41.475 40.641 41.3347 40.9799 41.3347 41.3333C41.3347 41.6867 41.475 42.0257 41.7248 42.2757C41.9745 42.5257 42.3133 42.6663 42.6667 42.6667H52.398C52.5918 42.6667 52.7809 42.7269 52.939 42.839C53.0971 42.9511 53.2165 43.1095 53.2807 43.2924C53.3448 43.4753 53.3506 43.6737 53.2971 43.86C53.2437 44.0463 53.1337 44.2114 52.9823 44.3325L47.6675 48.5844C47.236 48.9295 46.9224 49.4003 46.7701 49.9314C46.6177 50.4626 46.6341 51.0279 46.8171 51.5494C47 52.0708 47.3403 52.5225 47.7911 52.8421C48.2419 53.1617 48.7808 53.3333 49.3334 53.3333H51.3713C51.7249 53.3333 52.064 53.1929 52.3141 52.9428C52.5641 52.6928 52.7046 52.3536 52.7046 52C52.7046 51.6464 52.5641 51.3072 52.3141 51.0572C52.064 50.8071 51.7249 50.6667 51.3713 50.6667H49.3334C49.3334 50.6667 51.2179 49.1591 52.7426 47.9393L52.7463 47.9363L52.7491 47.9341L52.7542 47.93L52.7582 47.9268L52.7602 47.9252L52.781 47.9086L52.7828 47.9071C52.794 47.8982 52.8052 47.8892 52.8164 47.8803L52.8489 47.8543L52.8631 47.843L52.8655 47.841L52.8686 47.8385L52.8729 47.8351L52.8998 47.8136L52.9016 47.8121L52.9221 47.7957L52.9245 47.7938L52.9282 47.7909L52.9307 47.7888L52.9358 47.7848L52.9392 47.7821L52.9508 47.7728L52.9544 47.7699L52.9565 47.7682L52.9666 47.7601L52.9739 47.7543L52.9872 47.7436L52.9964 47.7362L53.0061 47.7285L53.0117 47.7241L53.0211 47.7165L53.0455 47.697L53.0518 47.692L53.0847 47.6656L53.1002 47.6532L53.1554 47.6091L53.1769 47.5919L53.1807 47.5888L53.1826 47.5874L53.1955 47.577L53.1964 47.5763L53.2086 47.5666L53.2117 47.564L53.2152 47.5612L53.2251 47.5533L53.2588 47.5264L53.2622 47.5236L53.3447 47.4577L53.4122 47.4037L53.4155 47.401L53.4236 47.3946L53.4356 47.385L53.6109 47.2447L53.6154 47.2411L53.6197 47.2377L53.6392 47.2221L53.6719 47.1959L53.6811 47.1885L53.6888 47.1823L53.695 47.1774L53.7011 47.1725L53.7158 47.1608L53.7209 47.1567L53.7232 47.1548L53.7346 47.1458L53.7391 47.1421L53.7541 47.1301L53.7706 47.1169L53.7795 47.1098L53.8002 47.0932L53.8046 47.0897L53.8178 47.0792L53.8236 47.0745L53.8331 47.067L53.8391 47.0621L53.864 47.0422L53.891 47.0206L53.8935 47.0186L53.898 47.015L53.9085 47.0066L53.91 47.0054L53.9148 47.0016L53.9328 46.9871L53.936 46.9846L53.9397 46.9816L53.9912 46.9405L53.9965 46.9362L54.0001 46.9334L54.0026 46.9313L54.0348 46.9055L54.0398 46.9015L54.0437 46.8984L54.0503 46.8931L54.0525 46.8914L54.0895 46.8618L54.1073 46.8476L54.1625 46.8034L54.1672 46.7997L54.1808 46.7887L54.1816 46.7881L54.185 46.7854L54.1876 46.7833L54.1886 46.7825L54.192 46.7798L54.1951 46.7774L54.2002 46.7732L54.2125 46.7634L54.2139 46.7623L54.235 46.7454L54.2361 46.7445L54.24 46.7414L54.2444 46.7379L54.2587 46.7265L54.2603 46.7252L54.2763 46.7124L54.2771 46.7117L54.2803 46.7092L54.2815 46.7082L54.2874 46.7035L54.2909 46.7007L54.2933 46.6988L54.3097 46.6857L54.3149 46.6814L54.3297 46.6697L54.3336 46.6665L54.3405 46.661L54.3441 46.6581L54.3467 46.656L54.3476 46.6553L54.3511 46.6525L54.3568 46.648L54.3625 46.6434L54.3755 46.633L54.3773 46.6315L54.4095 46.6058L54.4198 46.5975L54.4244 46.5939L54.4333 46.5868L54.459 46.5662L54.4683 46.5588L54.5024 46.5315L54.5061 46.5286L54.511 46.5246L54.5221 46.5157L54.5239 46.5143L54.5276 46.5113L54.5293 46.5099L54.5302 46.5093L54.5408 46.5007L54.5543 46.49L54.556 46.4886L54.5578 46.4872L54.5585 46.4866L54.5785 46.4706L54.581 46.4686L54.5827 46.4673L54.5832 46.4668L54.5956 46.4569L54.6001 46.4533L54.6013 46.4524L54.6023 46.4516L54.6077 46.4472L54.6133 46.4428L54.6139 46.4423L54.6223 46.4356L54.6237 46.4344L54.6245 46.4338L54.6257 46.4329L54.6265 46.4322L54.6279 46.4311L54.6287 46.4305L54.6368 46.424L54.6371 46.4237L54.6374 46.4235L54.6387 46.4224L54.639 46.4222L54.6396 46.4218L54.6405 46.421L54.6423 46.4196L54.6442 46.418L54.6449 46.4175L54.646 46.4166L54.6461 46.4166L54.6464 46.4163L54.6467 46.416L54.6472 46.4156L54.6474 46.4155L54.6482 46.4148C55.2311 45.9486 55.6547 45.3127 55.8605 44.5953C56.0663 43.8778 56.0441 43.1141 55.797 42.4098C55.55 41.7054 55.0902 41.0952 54.4813 40.6636C53.8724 40.2319 53.1444 40 52.398 40Z" fill="#EFF2FF"/>
<path d="M17.3334 16H14.6668C13.9304 16 13.3334 16.597 13.3334 17.3333V17.3333C13.3334 18.0697 13.9304 18.6667 14.6668 18.6667H17.3334C18.0698 18.6667 18.6668 18.0697 18.6668 17.3333C18.6668 16.597 18.0698 16 17.3334 16Z" fill="#EFF2FF"/>
</svg>
