<svg width="48" height="48" viewBox="0 0 48 48" fill="none" xmlns="http://www.w3.org/2000/svg">
<path d="M41.6096 21.6702C43.5711 19.7009 44.7626 17.1235 44.7626 14.3C44.7626 8.11717 39.0625 3.1051 32.0306 3.1051C28.8486 3.1051 25.9414 4.13392 23.7094 5.83098L21.6516 7.82017C20.1718 9.64923 19.2986 11.8844 19.2986 14.3C19.2986 20.4828 24.999 25.4949 32.0306 25.4949C33.1958 25.4949 34.323 25.3544 35.3951 25.0968L42.8556 27.5527C43.3523 27.7162 43.8143 27.2259 43.6213 26.7397L41.6096 21.6702Z" fill="#87796F"/>
<path d="M41.9385 21.7364C43.9425 19.6617 45.0439 17.0277 45.0439 14.2997C45.0439 7.9718 39.2063 2.82361 32.0308 2.82361C28.9155 2.82361 25.8999 3.81192 23.5393 5.60686C23.4156 5.7008 23.3916 5.87723 23.4857 6.00098C23.5798 6.12455 23.7561 6.14873 23.8798 6.05461C26.1431 4.33392 29.0378 3.3863 32.0308 3.3863C38.8961 3.3863 44.4814 8.28211 44.4814 14.2999C44.4814 16.9364 43.3909 19.4834 41.4105 21.4718C41.3314 21.5511 41.307 21.67 41.3483 21.774L43.36 26.8435C43.4093 26.9676 43.3839 27.0998 43.2924 27.1971C43.2009 27.2944 43.0704 27.3276 42.9437 27.2856L35.4833 24.8297C35.4338 24.8136 35.3803 24.8112 35.3297 24.8234C34.2525 25.0823 33.1425 25.2137 32.031 25.2137C25.1657 25.2137 19.5803 20.3179 19.5803 14.3001C19.5803 12.0287 20.3723 9.84923 21.8706 7.99711C21.9683 7.87636 21.9495 7.69936 21.8288 7.60167C21.708 7.50398 21.531 7.52273 21.4333 7.64348C19.8531 9.59667 19.0178 11.8986 19.0178 14.3001C19.0178 20.628 24.8554 25.7762 32.031 25.7762C33.1599 25.7762 34.2872 25.6459 35.3829 25.389L42.768 27.82C42.8619 27.8509 42.9579 27.8661 43.0524 27.8661C43.2945 27.8661 43.5283 27.7673 43.7021 27.583C43.9436 27.3265 44.013 26.9639 43.8833 26.6363L41.9385 21.7364Z" fill="#3A312A"/>
<path d="M15.9694 20.4156C11.6379 20.4156 7.81405 22.3191 5.51417 25.2248L4.04192 27.6903C3.52292 28.9105 3.23755 30.2311 3.23755 31.6105C3.23755 34.4341 4.42892 37.0115 6.39055 38.9808L4.37886 44.0502C4.18592 44.5364 4.64792 45.0267 5.14461 44.8632L12.605 42.4073C13.6772 42.6651 14.8044 42.8054 15.9695 42.8054C23.0012 42.8054 28.7015 37.7933 28.7015 31.6105C28.7014 25.4277 23.001 20.4156 15.9694 20.4156Z" fill="#F16C7A"/>
<path d="M15.9694 20.1344C11.7208 20.1344 7.73006 21.9721 5.2935 25.0501C5.19712 25.172 5.21774 25.3488 5.33943 25.4451C5.46131 25.5415 5.63812 25.5211 5.73449 25.3992C8.06512 22.4547 11.8912 20.6967 15.9692 20.6967C22.8345 20.6967 28.4197 25.5925 28.4197 31.6103C28.4197 37.6281 22.8345 42.524 15.9692 42.524C14.8577 42.524 13.7477 42.3927 12.6703 42.1336C12.6197 42.1216 12.5664 42.1238 12.5166 42.14L5.05631 44.5958C4.92956 44.6376 4.79906 44.6045 4.70737 44.5072C4.61587 44.4098 4.59056 44.2778 4.63987 44.1537L6.65156 39.0843C6.69299 38.9802 6.66843 38.8615 6.5895 38.782C4.60912 36.7938 3.51843 34.2468 3.51843 31.6101C3.51843 30.302 3.7815 29.02 4.3005 27.8C4.36125 27.6571 4.29468 27.4919 4.15162 27.4311C4.00893 27.3704 3.84356 27.437 3.78281 27.5798C3.23418 28.8698 2.95593 30.2258 2.95593 31.6101C2.95593 34.3383 4.05731 36.9721 6.06131 39.0468L4.11712 43.9461C3.98718 44.2737 4.05637 44.6363 4.29806 44.8928C4.47168 45.0773 4.70568 45.1761 4.94775 45.1761C5.04225 45.1761 5.13825 45.161 5.23218 45.13L12.6169 42.6991C13.7128 42.9561 14.8401 43.0863 15.969 43.0863C23.1444 43.0863 28.9821 37.9381 28.9821 31.6101C28.9821 25.2822 23.1448 20.1344 15.9694 20.1344Z" fill="#3A312A"/>
<path d="M37.6654 18.9381C37.6468 18.8089 37.6007 18.6332 37.5268 18.4114L33.8312 7.81391C33.7942 7.69691 33.7494 7.60466 33.6971 7.5366C33.6448 7.46891 33.5586 7.4181 33.4384 7.38416C33.3182 7.35041 33.1504 7.32885 32.9349 7.31947C32.7193 7.31029 32.4298 7.30579 32.0664 7.30579C31.7522 7.30579 31.4998 7.31029 31.3087 7.31947C31.1179 7.32885 30.9684 7.35041 30.8606 7.38416C30.7528 7.41829 30.6742 7.46741 30.6249 7.5321C30.5756 7.59679 30.5327 7.68154 30.4957 7.78597L26.8093 18.3927C26.7352 18.6083 26.6891 18.7806 26.6707 18.9102C26.6522 19.0393 26.6737 19.1397 26.7354 19.2105C26.7969 19.2814 26.9079 19.3258 27.0681 19.3444C27.2282 19.363 27.4498 19.3722 27.7333 19.3722C27.9981 19.3722 28.2122 19.366 28.3755 19.3536C28.5386 19.3412 28.6648 19.3182 28.7541 19.2842C28.8435 19.2505 28.908 19.2043 28.9481 19.1458C28.9881 19.0872 29.0205 19.015 29.0452 18.9287L29.8027 16.5912H34.293L35.0968 18.9934C35.1214 19.0737 35.1523 19.1382 35.1892 19.1875C35.2262 19.2368 35.2909 19.2752 35.3833 19.3028C35.4756 19.3305 35.6096 19.3491 35.7851 19.3583C35.9606 19.3677 36.2053 19.3722 36.5196 19.3722C36.8212 19.3722 37.0584 19.3643 37.2309 19.3491C37.4034 19.3335 37.5234 19.2936 37.5913 19.2289C37.6592 19.1644 37.6839 19.0675 37.6654 18.9381ZM30.3386 14.725L32.0295 9.64335H32.0389L33.7296 14.725H30.3386Z" fill="#FCE8CB"/>
<path d="M32.3057 9.55466C32.2676 9.43972 32.1506 9.36229 32.0295 9.36229C31.9085 9.36229 31.8007 9.43991 31.7627 9.55466L30.0718 14.6363C30.0433 14.7222 30.0575 14.8163 30.1104 14.8896C30.1633 14.9629 30.248 15.0064 30.3386 15.0064H33.7294C33.8197 15.0064 33.9047 14.9631 33.9575 14.8896C34.0104 14.8163 34.0247 14.722 33.9962 14.6363L32.3057 9.55466ZM30.7288 14.4437L32.0342 10.5203L33.3395 14.4437H30.7288ZM37.944 18.8983C37.9228 18.7504 37.8737 18.5622 37.7936 18.3225C37.7932 18.3214 37.7929 18.3201 37.7923 18.3188L34.0995 7.72916C34.0522 7.57991 33.9937 7.46085 33.9197 7.36466C33.83 7.24879 33.6941 7.16422 33.5145 7.11341C33.3718 7.07347 33.1864 7.04891 32.9469 7.0386C32.7283 7.02922 32.432 7.02454 32.0666 7.02454C31.7495 7.02454 31.49 7.02922 31.2952 7.0386C31.0785 7.0491 30.909 7.07441 30.7762 7.11604C30.6125 7.16779 30.4864 7.25029 30.4016 7.36166C30.3343 7.45035 30.2784 7.55835 30.2304 7.69372L26.5436 18.3015C26.4632 18.5359 26.4139 18.7221 26.3925 18.8704C26.3546 19.1361 26.4427 19.3026 26.5232 19.3948C26.6334 19.5218 26.801 19.5966 27.036 19.6238C27.2089 19.6437 27.437 19.6534 27.7335 19.6534C28.0033 19.6534 28.2264 19.6468 28.397 19.6341C28.5889 19.6195 28.7385 19.5912 28.8536 19.5475C28.9974 19.4933 29.1075 19.4115 29.1808 19.3043C29.2376 19.221 29.283 19.1207 29.313 19.0153L30.0075 16.8724H34.0907L34.8281 19.0755C34.862 19.1862 34.908 19.2807 34.9646 19.3562C35.0383 19.4543 35.1521 19.527 35.3023 19.5718C35.4174 19.6065 35.5708 19.6285 35.7705 19.639C35.9514 19.6485 36.1965 19.6532 36.5199 19.6532C36.8265 19.6532 37.074 19.6452 37.2566 19.629C37.4966 19.6073 37.6697 19.543 37.7861 19.432C37.8799 19.3425 37.9837 19.1768 37.944 18.8983ZM37.2065 19.0692C37.041 19.0838 36.81 19.0911 36.5199 19.0911C36.2111 19.0911 35.969 19.0866 35.8001 19.0776C35.6104 19.0677 35.513 19.0483 35.4641 19.0335C35.4319 19.0238 35.4154 19.0152 35.4125 19.0152C35.4122 19.0152 35.4122 19.0152 35.412 19.0153C35.4017 19.0007 35.3839 18.969 35.3638 18.9042L34.56 16.5019C34.5215 16.3872 34.4141 16.3099 34.2932 16.3099H29.8029C29.681 16.3099 29.5729 16.3885 29.5354 16.5045L28.7749 18.8513C28.7587 18.9079 28.7389 18.9538 28.7162 18.987C28.716 18.9872 28.7036 19.0028 28.6545 19.0213C28.6108 19.038 28.523 19.0603 28.3543 19.0733C28.1979 19.0851 27.989 19.0909 27.7331 19.0909C27.4624 19.0909 27.2494 19.0823 27.1001 19.0648C26.9889 19.0521 26.9516 19.0283 26.9492 19.0283C26.9477 19.0243 26.9415 19.0022 26.949 18.9499C26.9647 18.8385 27.0071 18.6818 27.0748 18.4851L30.7607 7.87972C30.7946 7.78391 30.827 7.73047 30.8486 7.70235C30.8507 7.69972 30.8704 7.67572 30.9446 7.65229C31.0027 7.6341 31.1154 7.61029 31.3222 7.60016C31.5077 7.59135 31.7582 7.58685 32.0664 7.58685C32.424 7.58685 32.7122 7.59135 32.9227 7.60035C33.1627 7.61085 33.2942 7.6356 33.3617 7.65454C33.4519 7.68022 33.4738 7.70741 33.4742 7.70779C33.4963 7.73666 33.5299 7.79329 33.5657 7.90635L37.2605 18.502C37.3284 18.7054 37.371 18.8655 37.3869 18.9775C37.391 19.0062 37.3905 19.0234 37.3922 19.0279C37.3757 19.0371 37.3243 19.0587 37.2065 19.0692Z" fill="#3A312A"/>
<path d="M21.1119 27.8306C21.1119 27.2625 20.6514 26.8018 20.0833 26.8018H17.0068V25.8559C17.0068 25.2878 16.5463 24.8273 15.9782 24.8273C15.4101 24.8273 14.9496 25.2878 14.9496 25.8559V26.8018H11.8729C11.3047 26.8018 10.8442 27.2625 10.8442 27.8306C10.8442 28.3988 11.3049 28.8593 11.8729 28.8593H12.4663C12.3926 30.8828 13.107 32.8046 14.3681 34.2765C13.8512 34.555 13.2838 34.7599 12.6765 34.8733C12.1179 34.9776 11.7497 35.515 11.8539 36.0733C11.9464 36.5681 12.3784 36.9135 12.864 36.9135C12.9266 36.9135 12.99 36.9077 13.0539 36.8959C14.1324 36.6947 15.1187 36.2809 15.9782 35.707C16.8377 36.2809 17.8237 36.6947 18.9022 36.8959C18.966 36.9077 19.0296 36.9135 19.0922 36.9135C19.5778 36.9135 20.0098 36.5681 20.1022 36.0733C20.2063 35.515 19.8382 34.9776 19.2797 34.8733C18.6724 34.7601 18.105 34.555 17.5881 34.2765C18.8492 32.8046 19.5636 30.8828 19.4899 28.8593H20.0833C20.6514 28.8595 21.1119 28.3988 21.1119 27.8306ZM15.9782 32.9942C14.9996 31.8816 14.4508 30.4084 14.5269 28.8595H17.4296C17.5056 30.4084 16.9566 31.8816 15.9782 32.9942Z" fill="#FCE8CB"/>
<path d="M17.4294 28.5782H14.5267C14.3767 28.5782 14.2532 28.6958 14.2459 28.8456C14.1677 30.4365 14.7079 31.9759 15.7669 33.18C15.8203 33.2408 15.8972 33.2754 15.9782 33.2754C16.059 33.2754 16.1361 33.2406 16.1893 33.18C17.2483 31.9757 17.7885 30.4365 17.7103 28.8456C17.703 28.6958 17.5794 28.5782 17.4294 28.5782ZM15.9782 32.5539C15.2111 31.5726 14.7994 30.3797 14.8011 29.1407H17.1553C17.1568 30.3795 16.7451 31.5724 15.9782 32.5539ZM20.0833 29.1407C20.8056 29.1407 21.3932 28.5531 21.3932 27.8308C21.3932 27.1086 20.8056 26.521 20.0833 26.521H17.2881V25.8563C17.2881 25.134 16.7004 24.5464 15.9782 24.5464C15.2557 24.5464 14.6681 25.134 14.6681 25.8563V26.521H11.8729C11.1506 26.521 10.563 27.1086 10.563 27.8308C10.563 28.5531 11.1506 29.1407 11.8729 29.1407H12.1798C12.1785 30.9679 12.7918 32.7362 13.9271 34.1828C13.5126 34.374 13.0759 34.5129 12.6247 34.5971C11.9149 34.7299 11.445 35.4152 11.5774 36.1253C11.6931 36.7451 12.2342 37.1951 12.864 37.1951C12.9448 37.1951 13.026 37.1876 13.1055 37.1728C14.1349 36.9808 15.1005 36.6009 15.9782 36.0431C16.8559 36.6009 17.8213 36.9808 18.8507 37.1728C18.9302 37.1876 19.0114 37.1951 19.0922 37.1951C19.722 37.1951 20.2631 36.7453 20.3788 36.1253C20.5112 35.4154 20.0413 34.7299 19.3314 34.5973C18.8803 34.5131 18.4438 34.3742 18.0291 34.183C19.1644 32.7364 19.7777 30.9681 19.7764 29.1409H20.0833V29.1407ZM19.2874 28.6641C19.2343 28.719 19.206 28.7931 19.2088 28.8696C19.2784 30.7766 18.6268 32.6319 17.3745 34.0935C17.3192 34.1582 17.2961 34.2444 17.3117 34.3279C17.3272 34.4115 17.3799 34.4837 17.4547 34.524C18.0101 34.8233 18.6067 35.0338 19.2279 35.1497C19.6331 35.2254 19.9012 35.6166 19.8257 36.0216C19.7597 36.3754 19.4511 36.6321 19.092 36.6321C19.0457 36.6321 18.9992 36.6278 18.9536 36.6193C17.9381 36.4298 16.9894 36.0443 16.1342 35.4729C16.0869 35.4414 16.0324 35.4257 15.978 35.4257C15.9234 35.4257 15.8691 35.4414 15.8218 35.4729C14.9664 36.0441 14.0179 36.4298 13.0022 36.6193C12.9566 36.6278 12.9101 36.6321 12.8638 36.6321C12.5047 36.6321 12.1963 36.3752 12.1301 36.0216C12.0546 35.6164 12.3227 35.2253 12.7279 35.1497C13.3491 35.0336 13.9459 34.8233 14.5012 34.524C14.5761 34.4837 14.6287 34.4115 14.6443 34.3279C14.6599 34.2443 14.6368 34.158 14.5813 34.0935C13.329 32.6319 12.6776 30.7766 12.747 28.8696C12.7498 28.7933 12.7213 28.719 12.6684 28.6641C12.6154 28.6091 12.5424 28.578 12.4659 28.578H11.8725C11.4604 28.578 11.1251 28.2428 11.1251 27.8306C11.1251 27.4185 11.4604 27.0833 11.8725 27.0833H14.9494C15.1048 27.0833 15.2306 26.9574 15.2306 26.802V25.8561C15.2306 25.4439 15.5661 25.1087 15.9782 25.1087C16.3903 25.1087 16.7256 25.4439 16.7256 25.8561V26.802C16.7256 26.9574 16.8514 27.0833 17.0068 27.0833H20.0833C20.4954 27.0833 20.8307 27.4185 20.8307 27.8306C20.8307 28.2428 20.4954 28.578 20.0833 28.578H19.4899C19.4136 28.5782 19.3404 28.6091 19.2874 28.6641Z" fill="#3A312A"/>
<path d="M41.3479 21.7731C41.3066 21.67 41.331 21.5518 41.4097 21.4712C43.3897 19.4837 44.481 16.9375 44.481 14.2993C44.481 8.28247 38.8954 3.38684 32.031 3.38684C31.5604 3.38684 31.0916 3.40934 30.6285 3.45809C36.831 4.07309 41.6685 8.70059 41.6685 14.2993C41.6685 16.9375 40.5772 19.4837 38.5972 21.4712C38.5185 21.5518 38.4941 21.67 38.5354 21.7731L40.3897 26.4437L42.9435 27.2856C43.071 27.3268 43.2004 27.295 43.2922 27.1975C43.3841 27.1 43.4085 26.9668 43.3597 26.8431L41.3479 21.7731Z" fill="#695B51"/>
<path d="M15.9698 20.6967C15.4973 20.6967 15.0304 20.721 14.5673 20.7679C20.7698 21.3829 25.6073 26.0104 25.6073 31.611C25.6073 37.2098 20.7698 41.8373 14.5673 42.4523C15.0323 42.501 15.501 42.5235 15.9698 42.5235C22.8341 42.5235 28.4198 37.6279 28.4198 31.611C28.4198 25.5925 22.8341 20.6967 15.9698 20.6967Z" fill="#D34E5C"/>
<path d="M14.2427 9.45911C14.0454 11.8012 11.6047 12.1709 11.6047 12.1709C13.7002 12.2695 14.2226 15.0185 14.2226 15.0185C14.2674 13.0585 16.9207 12.142 16.9207 12.142C14.9329 12.0232 14.2427 9.45911 14.2427 9.45911Z" fill="#D6DF58"/>
<path d="M16.9372 11.8611C15.1781 11.7559 14.5206 9.40931 14.514 9.38549C14.4784 9.25387 14.3552 9.16743 14.2172 9.17887C14.0812 9.19124 13.9738 9.29924 13.9624 9.43518C13.7865 11.5222 11.6527 11.8785 11.5626 11.8926C11.4195 11.9141 11.3164 12.0407 11.3239 12.1852C11.3314 12.3296 11.4471 12.4447 11.5916 12.4517C13.4381 12.5385 13.9416 15.0456 13.9464 15.0711C13.9721 15.2044 14.0887 15.2992 14.2224 15.2992C14.2303 15.2992 14.238 15.2991 14.2461 15.2983C14.3893 15.2863 14.5005 15.1684 14.5039 15.0246C14.5436 13.2853 16.9881 12.4159 17.0128 12.4074C17.1394 12.3634 17.2176 12.2361 17.1992 12.1031C17.1806 11.9706 17.0711 11.8691 16.9372 11.8611ZM14.1896 13.9879C13.9151 13.338 13.4263 12.5347 12.6028 12.1359C13.2111 11.8526 13.9502 11.3325 14.3134 10.4059C14.6274 11.0421 15.1787 11.8534 16.0551 12.2252C15.4329 12.5584 14.5997 13.1362 14.1896 13.9879Z" fill="#3A312A"/>
<path d="M9.84769 12.8983C9.70819 14.5549 7.98187 14.8164 7.98187 14.8164C9.46406 14.8862 9.83344 16.8306 9.83344 16.8306C9.86512 15.4442 11.7418 14.796 11.7418 14.796C10.3361 14.7118 9.84769 12.8983 9.84769 12.8983Z" fill="#D6DF58"/>
<path d="M11.7587 14.5152C10.5752 14.4445 10.1243 12.8435 10.1192 12.8249C10.0836 12.6931 9.9585 12.6057 9.82256 12.6183C9.68644 12.6305 9.579 12.7388 9.56756 12.8748C9.44888 14.2846 8.00063 14.5289 7.93988 14.5385C7.79681 14.56 7.69369 14.6866 7.70119 14.8311C7.70869 14.9755 7.82438 15.0906 7.96894 15.0976C9.20925 15.1559 9.55425 16.8665 9.55744 16.8831C9.58275 17.0168 9.69975 17.1119 9.83344 17.1119C9.84131 17.1119 9.849 17.1117 9.85688 17.111C10.0003 17.0991 10.1115 16.9808 10.1149 16.837C10.1417 15.6648 11.8174 15.0676 11.8343 15.0618C11.9608 15.0177 12.0388 14.8902 12.0204 14.7575C12.0021 14.6247 11.8926 14.5233 11.7587 14.5152ZM9.81656 15.916C9.627 15.5176 9.32831 15.0734 8.87344 14.7987C9.26719 14.5846 9.66225 14.249 9.90338 13.7558C10.1205 14.1511 10.458 14.6003 10.9509 14.861C10.5617 15.0878 10.1001 15.4355 9.81656 15.916Z" fill="#3A312A"/>
<path d="M9.84769 7.49915C9.70819 9.15571 7.98187 9.41727 7.98187 9.41727C9.46406 9.48702 9.83344 11.4314 9.83344 11.4314C9.86512 10.045 11.7418 9.39683 11.7418 9.39683C10.3361 9.31265 9.84769 7.49915 9.84769 7.49915Z" fill="#D6DF58"/>
<path d="M11.7587 9.11588C10.5752 9.04519 10.1243 7.44413 10.1192 7.42557C10.0836 7.29375 9.9585 7.20732 9.82256 7.21894C9.68644 7.23113 9.579 7.3395 9.56756 7.47544C9.44888 8.88525 8.00063 9.12957 7.93988 9.13913C7.79681 9.16069 7.69369 9.28725 7.70119 9.43182C7.70869 9.57619 7.82438 9.69132 7.96894 9.69825C9.20925 9.75657 9.55425 11.4671 9.55744 11.4838C9.58275 11.6175 9.69975 11.7126 9.83344 11.7126C9.84131 11.7126 9.849 11.7124 9.85688 11.7116C10.0003 11.6998 10.1115 11.5815 10.1149 11.4377C10.1417 10.2654 11.8174 9.66825 11.8343 9.66244C11.9608 9.61838 12.0388 9.49088 12.0204 9.35813C12.0021 9.22538 11.8926 9.12394 11.7587 9.11588ZM9.81656 10.5167C9.627 10.1183 9.32831 9.67407 8.87344 9.39938C9.26719 9.18525 9.66225 8.84963 9.90338 8.3565C10.1205 8.75175 10.458 9.201 10.9509 9.46163C10.5617 9.6885 10.1001 10.0361 9.81656 10.5167Z" fill="#3A312A"/>
</svg>
