<svg width="48" height="48" viewBox="0 0 48 48" fill="none" xmlns="http://www.w3.org/2000/svg">
<path d="M44.9768 3.98535C44.7411 3.98539 44.5147 4.07804 44.3466 4.24334C44.1785 4.40864 44.082 4.63337 44.078 4.86912L43.7544 23.9562H46.1994L45.8757 4.86912C45.8717 4.63335 45.7753 4.40858 45.6072 4.24326C45.439 4.07794 45.2126 3.98532 44.9768 3.98535Z" fill="#DDE5F4"/>
<path d="M40.5922 27.1469C41.2394 25.9604 41.9693 24.821 42.7764 23.737C42.9787 23.4703 43.2354 23.2497 43.5296 23.09C43.8238 22.9303 44.1486 22.8352 44.4824 22.8109C44.8163 22.7866 45.1515 22.8338 45.4656 22.9493C45.7798 23.0647 46.0658 23.2458 46.3044 23.4805C46.4835 23.6566 46.6643 23.8455 46.8409 24.0464C47.1887 24.4367 47.3975 24.9312 47.4349 25.4527C47.4723 25.9741 47.3361 26.4933 47.0476 26.9293L44.4964 30.761C44.4964 30.761 41.76 29.4192 40.5922 27.1469Z" fill="#FFD4CA"/>
<path d="M18.4471 46.5888H21.5424C23.0129 46.2131 24.5542 46.2131 26.0247 46.5888H29.1202L29.924 42.7051H17.6884L18.4471 46.5888Z" fill="#464659"/>
<path d="M26.0246 43.3369H21.5424V46.5882H26.0246V43.3369Z" fill="#FFC676"/>
<path d="M19.208 20.5664H28.3591C28.3591 20.5664 29.7708 29.8869 29.7252 43.437C29.7252 43.437 24.6234 44.5431 17.7488 43.437C17.7488 43.4376 16.7106 33.4153 19.208 20.5664Z" fill="white"/>
<path d="M29.7252 43.4376C29.7264 43.1232 29.7264 42.812 29.7252 42.5023C27.1253 42.6011 25.2961 42.3674 24.1049 42.1022C23.6034 41.9906 23.1596 41.7004 22.8563 41.2857C22.553 40.871 22.4109 40.3602 22.4565 39.8484L23.9106 23.4787L22.1589 20.5664H19.208C16.7106 33.4153 17.7488 43.437 17.7488 43.437C24.6234 44.5437 29.7252 43.4376 29.7252 43.4376Z" fill="#DDE5F4"/>
<path d="M28.3591 20.5664H19.208C19.0721 21.266 18.9466 21.9566 18.8315 22.6382C18.9744 22.9003 20.0052 24.7344 21.4106 25.7441L23.757 24.0002L25.9735 25.7438C25.9735 25.7438 27.412 25.0359 28.6773 23.0774C28.4935 21.4538 28.3591 20.5664 28.3591 20.5664Z" fill="#DDE5F4"/>
<path d="M21.9671 33.0184L21.5417 38.1665L23.7829 40.3682L26.024 38.1665L25.1675 27.8008C23.8831 29.1245 22.8274 30.8848 21.9671 33.0184Z" fill="#7BA7EC"/>
<path d="M25.1682 27.8002L24.6417 21.4258H22.9257L21.9678 33.0178L25.1682 27.8002Z" fill="#6C83D6"/>
<path d="M26.287 19.1045H21.2802L19.208 20.5668C19.7897 21.8142 20.56 22.9645 21.492 23.9773L23.7835 21.8308L26.0753 23.9773C27.0072 22.9645 27.7775 21.8142 28.3592 20.5668L26.287 19.1045Z" fill="white"/>
<path d="M21.2802 17.6758V19.1043L23.7836 21.8306L26.2869 19.1043V17.7723L21.2802 17.6758Z" fill="#FFD4CA"/>
<path d="M21.2802 17.6757C23.0034 18.469 25.2182 18.4829 26.2869 17.7723V15.9229H21.2802V17.6757Z" fill="#F99C9C"/>
<path d="M19.208 20.5664C19.208 20.5664 19.0748 24.2511 18.9152 29.229C18.3347 31.5763 18.3364 34.1738 18.6824 36.919C18.5883 40.248 18.5026 43.6325 18.4471 46.5885L12.9519 46.5859C12.9519 46.5859 11.9778 38.453 12.9313 30.8969C13.0866 29.662 13.2293 28.4426 13.3496 27.2767C13.4428 26.3705 13.7296 25.4949 14.1907 24.7093C14.6517 23.9236 15.2762 23.2462 16.0218 22.7229C17.0606 21.9943 18.2571 21.1722 19.208 20.5664Z" fill="#E0898D"/>
<path d="M18.6824 36.9186C18.7248 35.408 18.7697 33.9086 18.8139 32.4658L13.3879 31.8545L12.7906 31.9882C11.8416 39.215 10.5222 46.5844 10.5222 46.5844L13.0571 46.5857C13.2945 46.5858 13.5296 46.5392 13.749 46.4484C13.9683 46.3577 14.1676 46.2246 14.3355 46.0568C14.5034 45.889 14.6366 45.6897 14.7275 45.4704C14.8184 45.2511 14.8652 45.016 14.8652 44.7786V38.9198C15.8877 38.0163 15.8482 36.6411 15.8482 36.6411C16.8076 36.4965 18.0072 36.7437 18.6824 36.9186Z" fill="#B45F6D"/>
<path d="M40.5922 27.1475L37.7675 31.3702L32.912 24.4414C32.178 23.3929 31.2578 22.4879 30.1972 21.7713C29.6846 21.4253 29.0657 21.0165 28.3591 20.5664C28.3591 20.5664 28.9252 36.2164 29.1202 46.5885H33.2123C33.2123 46.5885 33.0449 40.9468 32.71 34.6457L37.0414 38.1343C37.251 38.303 37.4934 38.4263 37.7533 38.4962C38.0131 38.5662 38.2847 38.5812 38.5507 38.5404C38.8166 38.4995 39.0712 38.4037 39.2981 38.2591C39.525 38.1145 39.7193 37.9242 39.8686 37.7003L44.4967 30.761L40.5922 27.1475Z" fill="#E0898D"/>
<path d="M0.559631 29.2481C0.559631 29.2481 7.64867 26.3804 10.5222 32.8258L2.68984 31.9518C2.68984 31.9518 2.08942 30.0401 0.559631 29.2481Z" fill="white"/>
<path d="M20.4847 29.2481C20.4847 29.2481 13.3957 26.3804 10.5222 32.8258L18.8826 32.2481C18.8826 32.2481 18.9552 30.0401 20.4847 29.2481Z" fill="white"/>
<path d="M10.5222 32.8259C10.5222 32.8259 6.89309 29.5728 1.14354 32.0464C1.01075 32.1038 0.897689 32.1989 0.818291 32.3199C0.738893 32.4409 0.696631 32.5824 0.696717 32.7271V35.0366C0.696579 35.1048 0.713939 35.1719 0.747138 35.2315C0.780336 35.2911 0.828263 35.3411 0.886335 35.3769C0.944407 35.4127 1.01068 35.4329 1.07883 35.4358C1.14697 35.4386 1.2147 35.4239 1.27554 35.3931C2.64171 34.6957 6.27403 33.2706 10.5226 35.0927C14.772 33.2706 18.4038 34.6957 19.7697 35.3931C19.8305 35.4239 19.8982 35.4386 19.9664 35.4358C20.0345 35.4329 20.1008 35.4127 20.1589 35.3769C20.2169 35.3411 20.2649 35.2911 20.2981 35.2315C20.3313 35.1719 20.3486 35.1048 20.3485 35.0366V32.7271C20.3486 32.5824 20.3063 32.4409 20.2269 32.3199C20.1475 32.1989 20.0344 32.1038 19.9017 32.0464C14.1511 29.5728 10.5222 32.8259 10.5222 32.8259Z" fill="#FFC676"/>
<path d="M8.10352 37.301V44.0351C8.1035 44.3704 8.16954 44.7025 8.29786 45.0123C8.42619 45.3221 8.61429 45.6036 8.85141 45.8407C9.08854 46.0779 9.37006 46.2659 9.67988 46.3942C9.98971 46.5225 10.3218 46.5886 10.6571 46.5885C11.3343 46.5885 11.9837 46.3195 12.4626 45.8407C12.9414 45.3618 13.2104 44.7124 13.2104 44.0352V36.4355L8.10352 37.301Z" fill="#E0898D"/>
<path d="M8.81489 34.1465H12.2294C12.7903 34.1465 13.3283 34.3693 13.725 34.766C14.1217 35.1626 14.3445 35.7006 14.3445 36.2616C14.3445 36.9668 14.0643 37.6432 13.5657 38.1418C13.067 38.6405 12.3907 38.9206 11.6854 38.9206H9.3587C8.65348 38.9206 7.97714 38.6405 7.47847 38.1418C6.9798 37.6432 6.69965 36.9668 6.69965 36.2616C6.69965 35.7006 6.92249 35.1626 7.31915 34.766C7.71581 34.3693 8.25379 34.1465 8.81475 34.1465H8.81489Z" fill="#FFD4CA"/>
<path d="M17.8343 10.1123H19.2792V13.9702H17.8343C17.4057 13.9702 16.9948 13.8 16.6918 13.497C16.3887 13.194 16.2185 12.783 16.2185 12.3545V11.7281C16.2185 11.2995 16.3887 10.8886 16.6918 10.5856C16.9948 10.2825 17.4057 10.1123 17.8343 10.1123Z" fill="#F99C9C"/>
<path d="M29.2332 13.9707H27.7883V10.1128H29.2332C29.6618 10.1128 30.0727 10.283 30.3758 10.586C30.6788 10.889 30.849 11.3 30.849 11.7285V12.3549C30.849 12.7835 30.6788 13.1944 30.3758 13.4975C30.0727 13.8005 29.6618 13.9707 29.2332 13.9707Z" fill="#F99C9C"/>
<path d="M19.8192 3.59399C19.2387 3.51102 18.6465 3.5843 18.1038 3.80626C17.561 4.02822 17.0872 4.39086 16.7311 4.85682C15.5236 6.37122 15.0827 9.80689 19.2905 11.5909L28.4318 10.2167C28.9567 10.2958 29.4876 10.3288 30.0182 10.3155C30.8663 10.2947 31.6724 9.35555 31.669 8.50707C31.6522 7.98507 31.519 7.47342 31.2792 7.00947C30.9954 6.41772 30.7987 5.78806 30.695 5.14002C30.4746 3.76693 29.487 1.41211 25.3048 1.41211C21.0089 1.41211 19.8192 3.59399 19.8192 3.59399Z" fill="#595975"/>
<path d="M19.6313 14.7925C20.1635 15.5522 21.0713 16.3543 22.6184 16.8125C23.2371 17.0017 23.89 17.0517 24.5303 16.9589C25.1706 16.8662 25.7824 16.633 26.322 16.276C27.2234 15.6594 27.9189 14.7864 28.3186 13.7701C28.528 13.2519 28.6343 12.6978 28.6314 12.1388V10.4064C28.6312 10.2307 28.5824 10.0585 28.4905 9.90877C28.3986 9.75902 28.2672 9.63757 28.1106 9.55783C27.4092 9.19839 26.1329 8.33877 25.1239 6.5118C24.9261 6.14257 24.6178 5.84442 24.2422 5.6591C24.2018 5.63971 24.1594 5.62041 24.1152 5.60121C21.6408 4.52827 18.8829 6.40211 18.8829 9.09914V12.336C18.8746 13.2122 19.1359 14.0698 19.6313 14.7925Z" fill="#FFD4CA"/>
<path d="M22.3094 11.1849C22.1783 11.1849 22.0526 11.1329 21.96 11.0402C21.8673 10.9475 21.8152 10.8218 21.8152 10.6908V10.2324C21.8152 10.1014 21.8673 9.97567 21.96 9.88301C22.0526 9.79034 22.1783 9.73828 22.3094 9.73828C22.4404 9.73828 22.5661 9.79034 22.6588 9.88301C22.7514 9.97567 22.8035 10.1014 22.8035 10.2324V10.6908C22.8035 10.8218 22.7514 10.9475 22.6588 11.0402C22.5661 11.1329 22.4404 11.1849 22.3094 11.1849Z" fill="#F99C9C"/>
<path d="M25.5268 11.1849C25.3958 11.1849 25.2701 11.1329 25.1774 11.0402C25.0848 10.9475 25.0327 10.8218 25.0327 10.6908V10.2324C25.0327 10.1014 25.0848 9.97567 25.1774 9.88301C25.2701 9.79034 25.3958 9.73828 25.5268 9.73828C25.6579 9.73828 25.7836 9.79034 25.8762 9.88301C25.9689 9.97567 26.021 10.1014 26.021 10.2324V10.6908C26.021 10.8218 25.9689 10.9475 25.8762 11.0402C25.7836 11.1329 25.6579 11.1849 25.5268 11.1849Z" fill="#F99C9C"/>
<path d="M23.9115 14.3444C22.7233 14.3444 22.1528 13.8112 21.9632 13.5821C21.8796 13.4812 21.8394 13.3512 21.8516 13.2207C21.8637 13.0902 21.9272 12.9699 22.0281 12.8863C22.129 12.8026 22.2589 12.7624 22.3894 12.7746C22.5199 12.7868 22.6402 12.8503 22.7239 12.9511C22.7804 13.0188 23.101 13.3562 23.912 13.3562C24.7231 13.3562 25.0441 13.0188 25.1002 12.9511C25.1416 12.9012 25.1925 12.8599 25.2499 12.8296C25.3073 12.7993 25.3701 12.7806 25.4347 12.7746C25.4993 12.7686 25.5645 12.7754 25.6265 12.7945C25.6885 12.8137 25.7461 12.8449 25.796 12.8863C25.846 12.9278 25.8873 12.9786 25.9176 13.036C25.9478 13.0934 25.9665 13.1562 25.9725 13.2208C25.9786 13.2855 25.9718 13.3506 25.9526 13.4126C25.9335 13.4746 25.9023 13.5322 25.8608 13.5822C25.6701 13.8113 25.0996 14.3444 23.9115 14.3444Z" fill="#F99C9C"/>
<path d="M46.68 23.1583L46.3694 4.86046C46.363 4.49524 46.2135 4.14714 45.9529 3.89111C45.6924 3.63508 45.3417 3.49162 44.9765 3.49162C44.6112 3.49162 44.2605 3.63508 44 3.89111C43.7395 4.14714 43.5899 4.49524 43.5836 4.86046L43.2817 22.6615C42.933 22.8525 42.6284 23.1148 42.3878 23.4314L42.3864 23.4327L42.3855 23.4341C42.3841 23.4359 42.3826 23.4376 42.3813 23.4394C41.563 24.5371 40.8231 25.6911 40.1672 26.8929L37.758 30.4959L33.3166 24.1579C32.5485 23.0593 31.5848 22.1115 30.4736 21.3619C29.8807 20.9618 26.7812 18.8481 26.7812 18.8481V16.5519C27.5237 16.0044 28.1264 15.2893 28.5401 14.4647H29.2331C29.7925 14.4641 30.3288 14.2416 30.7243 13.846C31.1199 13.4505 31.3424 12.9142 31.343 12.3548V11.7284C31.3432 11.2449 31.1764 10.7761 30.8709 10.4014C31.2532 10.2539 31.5815 9.9936 31.8123 9.65507C32.0431 9.31653 32.1655 8.91578 32.1631 8.50606C32.1453 7.91079 31.9956 7.32689 31.7246 6.79656C31.4614 6.24772 31.2789 5.6637 31.1829 5.06263C30.9829 3.81618 30.01 0.917969 25.3049 0.917969C21.6658 0.917969 20.0911 2.42319 19.5823 3.07035C18.9629 3.03339 18.344 3.1488 17.7795 3.40648C17.2151 3.66417 16.7225 4.05627 16.3447 4.54846C15.7255 5.35636 15.3973 6.34969 15.4132 7.36746C15.4292 8.38522 15.7884 9.36777 16.4326 10.1559C16.2101 10.353 16.0319 10.5951 15.9098 10.8662C15.7878 11.1372 15.7245 11.4311 15.7244 11.7284V12.3548C15.725 12.9142 15.9475 13.4505 16.343 13.846C16.7386 14.2416 17.2749 14.4641 17.8342 14.4647H18.8671C18.9706 14.6775 19.0908 14.8818 19.2265 15.0757C19.6416 15.6646 20.1723 16.1628 20.7861 16.54V18.8481C20.7861 18.8481 17.0449 21.4014 15.7381 22.3183C14.9343 22.8822 14.2612 23.6122 13.7643 24.459C13.2673 25.3057 12.9583 26.2494 12.8581 27.2261C12.7875 27.9098 12.706 28.6415 12.6162 29.401C11.7555 30.0178 11.0407 30.8159 10.522 31.7391C8.89043 28.9195 6.38285 28.205 4.48375 28.1259C3.08384 28.0791 1.68814 28.3044 0.3741 28.7895C0.286499 28.8249 0.210885 28.8846 0.15622 28.9617C0.101556 29.0388 0.0701323 29.1299 0.0656748 29.2243C0.0612174 29.3186 0.0839128 29.4123 0.131071 29.4942C0.178229 29.5761 0.247873 29.6427 0.331747 29.6862C1.04342 30.0548 1.53259 30.7215 1.82991 31.249C1.37185 31.4089 0.92265 31.5931 0.484218 31.8009C0.399698 31.841 0.328295 31.9042 0.278312 31.9833C0.228329 32.0624 0.201819 32.154 0.201865 32.2476V35.7205C0.20451 35.8094 0.229945 35.896 0.275729 35.9722C0.321514 36.0484 0.386111 36.1116 0.463324 36.1556C0.544174 36.1905 0.631959 36.2064 0.719923 36.2021C0.807886 36.1978 0.893683 36.1733 0.970712 36.1306C2.71029 35.1093 4.70893 34.6148 6.72408 34.7071C6.38772 35.1556 6.20583 35.701 6.20568 36.2615C6.20585 36.7803 6.33405 37.2911 6.57892 37.7485C6.82378 38.2059 7.17774 38.5958 7.60939 38.8836V44.0352C7.61033 44.8432 7.93174 45.6179 8.5031 46.1892C9.07446 46.7605 9.84912 47.0818 10.6571 47.0827L33.2204 46.9927C33.2856 46.9913 33.3499 46.977 33.4096 46.9506C33.4692 46.9242 33.5231 46.8862 33.568 46.8389C33.6129 46.7915 33.648 46.7358 33.6713 46.6748C33.6945 46.6139 33.7055 46.5489 33.7035 46.4837C33.6865 45.928 33.5376 41.1754 33.2607 35.7238L36.7316 38.5191C36.9946 38.7309 37.2988 38.8856 37.625 38.9733C37.9511 39.0611 38.2919 39.0799 38.6257 39.0287C38.9595 38.9775 39.279 38.8572 39.5637 38.6757C39.8485 38.4942 40.0924 38.2554 40.2797 37.9744L44.9082 31.0353L47.4594 27.2036C47.8075 26.6766 47.9719 26.0495 47.9272 25.4195C47.8824 24.7895 47.6309 24.192 47.2118 23.7195C47.0453 23.5312 46.8662 23.3429 46.68 23.1583ZM27.7328 20.7294C27.2684 21.6381 26.7015 22.4908 26.0432 23.2706L24.4784 21.8049L26.3576 19.7584L27.7328 20.7294ZM23.7836 22.5082L24.273 22.9666L25.5133 37.9767L23.7836 39.6751L22.0539 37.9759L23.2941 22.9659L23.7836 22.5082ZM21.7743 18.9125V17.0403C21.9992 17.1317 23.004 17.498 23.9219 17.498C24.5646 17.4982 25.2008 17.3695 25.7929 17.1195V18.9125L23.7836 21.1007L21.7743 18.9125ZM30.3548 12.3555C30.3544 12.6529 30.2361 12.938 30.0259 13.1483C29.8156 13.3586 29.5305 13.4768 29.2331 13.4772H28.9412C29.0643 13.0419 29.1261 12.5916 29.1247 12.1392V10.6068H29.2321C29.5295 10.6071 29.8146 10.7254 30.0249 10.9357C30.2352 11.1459 30.3534 11.431 30.3538 11.7284L30.3548 12.3555ZM17.8342 13.4772C17.5369 13.4768 17.2518 13.3586 17.0415 13.1483C16.8312 12.938 16.7129 12.6529 16.7126 12.3555V11.7284C16.7129 11.431 16.8312 11.1459 17.0415 10.9357C17.2518 10.7254 17.5369 10.6071 17.8342 10.6068H18.3885V12.3358C18.3882 12.7197 18.4319 13.1024 18.5187 13.4765L17.8342 13.4772ZM18.3885 9.09957V9.61924H17.8342C17.6633 9.61994 17.4931 9.64151 17.3274 9.68347C16.7622 9.07778 16.4307 8.29082 16.3922 7.46323C16.3538 6.63564 16.6108 5.82134 17.1175 5.16583C17.4159 4.77024 17.8142 4.46111 18.2714 4.27009C18.7287 4.07908 19.2285 4.01305 19.7197 4.07877C19.8233 4.10009 19.9311 4.08755 20.0272 4.043C20.1232 3.99844 20.2023 3.92423 20.253 3.83129C20.2635 3.81209 21.348 1.90705 25.3049 1.90705C28.9174 1.90705 29.9645 3.70846 30.2071 5.21962C30.3183 5.91457 30.5293 6.58979 30.8338 7.22432C31.0406 7.6226 31.1571 8.06159 31.1749 8.51002C31.1734 8.78861 31.0619 9.05534 30.8647 9.25212C30.6675 9.4489 30.4005 9.5598 30.122 9.56065C29.6839 9.57458 29.2478 9.49767 28.8409 9.33477C28.8336 9.33138 28.8258 9.32997 28.8185 9.327C28.8044 9.32049 28.79 9.31469 28.7753 9.30964C28.7566 9.30385 26.8997 8.70555 25.5564 6.27336C25.2729 5.77455 24.8365 5.38013 24.3117 5.14832C23.6733 4.86578 22.9736 4.74984 22.2782 4.81137C21.5828 4.8729 20.9143 5.10988 20.3355 5.50013C19.7372 5.89069 19.2458 6.42434 18.9059 7.05273C18.5659 7.68112 18.3881 8.3844 18.3885 9.09886V9.09957ZM20.036 14.5095C19.5976 13.8704 19.3674 13.1114 19.3769 12.3365V9.09886C19.3765 8.54815 19.5135 8.00605 19.7756 7.52169C20.0376 7.03733 20.4164 6.62601 20.8776 6.32503C21.401 5.97596 22.0155 5.78847 22.6447 5.78587C23.085 5.76767 23.5229 5.85988 23.9185 6.05411C24.2347 6.21162 24.5019 6.45228 24.6916 6.75025C25.8882 8.91703 27.4472 9.81096 28.1377 10.1183V12.1385C28.141 12.6332 28.0473 13.1238 27.8617 13.5823C27.4986 14.5084 26.8659 15.3043 26.0455 15.8669C25.5669 16.1841 25.0237 16.391 24.4554 16.4726C23.887 16.5542 23.3076 16.5084 22.759 16.3385C21.5523 15.9815 20.6362 15.3654 20.036 14.5087V14.5095ZM21.2101 19.7591L23.0888 21.805L21.5236 23.2704C20.865 22.4909 20.2981 21.6382 19.8341 20.7293L21.2101 19.7591ZM13.8406 27.3281C13.9264 26.4923 14.1908 25.6847 14.616 24.9601C15.0412 24.2354 15.6172 23.6107 16.305 23.1281C17.2153 22.4897 18.0103 21.9451 18.6799 21.5007C18.635 22.7745 18.55 25.2263 18.4526 28.2298C17.8262 28.1369 17.1926 28.1024 16.5598 28.1266C15.5665 28.1597 14.5891 28.3851 13.6815 28.7902C13.7394 28.2847 13.7929 27.7943 13.8412 27.3274L13.8406 27.3281ZM19.3976 29.4185C18.9307 29.8621 18.5428 30.3819 18.2504 30.9557C15.5034 30.2465 13.3465 30.7671 11.9572 31.3829C14.2306 28.5113 17.748 28.987 19.3976 29.4185ZM1.65344 29.4239C2.56383 29.1878 3.50334 29.0832 4.44337 29.1133C6.41518 29.1955 7.97405 29.9587 9.09782 31.3871C7.70822 30.7695 5.54822 30.2451 2.79528 30.9557C2.50361 30.3842 2.11731 29.8663 1.65274 29.4239H1.65344ZM7.19462 36.2615C7.19507 35.8317 7.36597 35.4197 7.66984 35.1158C7.97371 34.8119 8.38571 34.641 8.81546 34.6405H12.2293C12.659 34.6411 13.0709 34.8121 13.3748 35.116C13.6787 35.4198 13.8497 35.8318 13.8504 36.2615C13.8497 36.8355 13.6215 37.3858 13.2156 37.7916C12.8097 38.1975 12.2594 38.4258 11.6854 38.4264H9.35871C8.78475 38.4258 8.2345 38.1975 7.82866 37.7916C7.42282 37.3857 7.19455 36.8355 7.19391 36.2615H7.19462ZM12.717 44.0352C12.717 44.5814 12.5001 45.1051 12.1139 45.4913C11.7277 45.8775 11.2039 46.0944 10.6578 46.0944C10.1117 46.0944 9.58792 45.8775 9.20174 45.4913C8.81557 45.1051 8.59862 44.5814 8.59862 44.0352V39.3214C8.84748 39.3833 9.10296 39.4146 9.35942 39.4147H11.6854C12.0363 39.4147 12.3846 39.3559 12.716 39.2407L12.717 44.0352ZM17.9623 46.0944H12.897C13.4159 45.5342 13.7043 44.7988 13.7045 44.0352V38.6811C14.0595 38.3857 14.345 38.0158 14.541 37.5976C14.737 37.1795 14.8386 36.7233 14.8386 36.2615C14.8383 35.7015 14.6566 35.1567 14.3208 34.7086C15.6502 34.6532 16.9782 34.8489 18.2352 35.2853C18.1119 39.5015 18.0203 43.1347 17.9623 46.0944ZM11.0798 33.0185C11.9456 32.4007 15.1896 30.4903 19.8539 32.5647V34.8799C17.7885 33.8689 15.4672 33.5009 13.1904 33.8235C13.1823 33.8247 13.175 33.8278 13.1671 33.8293C12.8681 33.7127 12.55 33.6526 12.2291 33.6521H8.81476C8.49529 33.6526 8.17866 33.7122 7.88088 33.8279C5.59562 33.4981 3.264 33.8647 1.19024 34.8799V32.5647C5.83495 30.4968 9.09796 32.4074 9.96549 33.0209C10.1281 33.1353 10.3221 33.1964 10.5209 33.1957C10.7211 33.1963 10.9165 33.1344 11.0798 33.0185ZM21.0483 46.0944H18.9508C18.963 45.4639 18.9769 44.8034 18.9923 44.1132C19.701 44.2022 20.3863 44.27 21.0483 44.3166V46.0944ZM25.5306 46.0944H22.0365V44.377C22.6889 44.4078 23.3113 44.4209 23.8988 44.4209C24.4787 44.4209 25.0237 44.4079 25.5306 44.3865V46.0944ZM19.015 43.1211C19.0669 40.9085 19.1328 38.4187 19.2127 35.6751C19.5096 35.8077 19.7973 35.9601 20.0739 36.1312C20.1483 36.1809 20.2347 36.2095 20.3241 36.2139C20.4135 36.2183 20.5024 36.1984 20.5813 36.1562C20.6602 36.1141 20.7262 36.0513 20.7722 35.9745C20.8182 35.8978 20.8425 35.81 20.8426 35.7205V32.2476C20.8426 32.154 20.8161 32.0624 20.7661 31.9833C20.7161 31.9042 20.6447 31.841 20.5602 31.8009C20.1217 31.5931 19.6725 31.4089 19.2144 31.2489C19.5133 30.7185 20.0019 30.0543 20.7125 29.6862C20.7964 29.6427 20.8661 29.5761 20.9132 29.4942C20.9604 29.4123 20.9831 29.3186 20.9786 29.2243C20.9742 29.1299 20.9427 29.0388 20.8881 28.9617C20.8334 28.8846 20.7578 28.8249 20.6702 28.7895C20.2681 28.6362 19.8558 28.5114 19.4362 28.4159C19.5172 25.912 19.59 23.7807 19.6389 22.3764C20.0775 23.0697 20.5795 23.7209 21.1383 24.3216C21.2286 24.4143 21.3516 24.4679 21.481 24.4708C21.6103 24.4738 21.7357 24.4259 21.8301 24.3375L22.2197 23.9725L21.0494 38.1255C21.0434 38.1977 21.0534 38.2704 21.0787 38.3383C21.104 38.4063 21.1439 38.4678 21.1957 38.5186L23.4368 40.7203C23.5292 40.811 23.6536 40.8619 23.7831 40.8619C23.9126 40.8619 24.0369 40.811 24.1293 40.7203L26.3703 38.5186C26.4221 38.4678 26.462 38.4063 26.4873 38.3383C26.5125 38.2704 26.5226 38.1977 26.5166 38.1255L25.3478 23.9721C25.3478 23.9721 25.7929 24.4545 26.0751 24.4706C26.1414 24.4723 26.2072 24.4599 26.2683 24.4342C26.3293 24.4084 26.3842 24.37 26.4292 24.3214C26.9879 23.7207 27.4898 23.0695 27.9285 22.3762C28.0612 26.1942 28.3714 35.4095 28.5522 43.1317C25.386 43.5395 22.1803 43.536 19.015 43.1211ZM26.5189 46.0944V44.3316C27.3608 44.2734 28.0565 44.196 28.5749 44.1264C28.5901 44.7982 28.6032 45.4558 28.6165 46.0944H26.5189ZM44.5721 4.87726C44.5741 4.77121 44.6176 4.67016 44.6933 4.59586C44.769 4.52156 44.8708 4.47993 44.9769 4.47993C45.083 4.47993 45.1848 4.52156 45.2605 4.59586C45.3362 4.67016 45.3797 4.77121 45.3817 4.87726L45.6806 22.5039C45.2306 22.3446 44.7509 22.2874 44.276 22.3361L44.5721 4.87726ZM39.4575 37.4262C39.3463 37.593 39.2016 37.7348 39.0326 37.8425C38.8635 37.9503 38.6739 38.0216 38.4757 38.052C38.2776 38.0825 38.0753 38.0713 37.8817 38.0192C37.6882 37.9671 37.5076 37.8752 37.3515 37.7495L33.1924 34.3998L32.9086 28.6963C32.9021 28.5654 32.8439 28.4424 32.7468 28.3545C32.6496 28.2665 32.5215 28.2207 32.3906 28.2272C32.2597 28.2337 32.1367 28.2919 32.0488 28.3891C31.9608 28.4862 31.915 28.6144 31.9215 28.7453L32.2164 34.6703V34.6719C32.4867 39.758 32.6489 44.4487 32.6997 46.0157L29.6045 46.0837C29.4325 37.3096 29.0088 24.9744 28.8864 21.4944C29.2375 21.7237 29.5832 21.9533 29.9205 22.181C30.9315 22.8631 31.8084 23.7256 32.5073 24.7251L37.3628 31.6539C37.4095 31.7191 37.4711 31.7721 37.5424 31.8088C37.6137 31.8454 37.6927 31.8645 37.7729 31.8646C37.8532 31.8637 37.9321 31.8432 38.0027 31.805C38.0733 31.7667 38.1336 31.7118 38.1782 31.645L40.5704 28.068C41.5563 29.503 43.0261 30.4885 43.7867 30.9351L39.4575 37.4262ZM46.6366 26.6557L44.3367 30.1097C43.6115 29.6862 42.0205 28.6378 41.1555 27.1474C41.6783 26.2145 42.2515 25.3106 42.8726 24.4399L44.0761 25.3812C44.1594 25.443 44.2154 25.5348 44.2321 25.6372C44.2488 25.7396 44.225 25.8444 44.1656 25.9295C44.1431 25.9726 44.1121 26.0108 44.0746 26.0418C44.037 26.0728 43.9936 26.0959 43.947 26.1098C43.9003 26.1237 43.8514 26.1281 43.803 26.1227C43.7546 26.1174 43.7078 26.1024 43.6653 26.0786C43.6355 26.064 43.6052 26.0483 43.5745 26.0316C43.4596 25.9687 43.3243 25.954 43.1985 25.9908C43.0728 26.0276 42.9668 26.1129 42.9039 26.2279C42.841 26.3428 42.8263 26.4781 42.8631 26.6039C42.8999 26.7296 42.9852 26.8356 43.1002 26.8985C43.1452 26.9232 43.1897 26.9461 43.2329 26.9671C43.426 27.0629 43.6385 27.1133 43.854 27.1144C44.0864 27.1125 44.3143 27.0506 44.5158 26.9348C44.7172 26.819 44.8854 26.6531 45.0039 26.4533C45.1928 26.1612 45.2649 25.8087 45.2059 25.4659C45.1469 25.1231 44.9611 24.815 44.6854 24.6029L43.5166 23.6887C43.872 23.413 44.3154 23.2756 44.7644 23.3021C45.2134 23.3286 45.6376 23.5172 45.958 23.8329C46.1387 24.0108 46.3109 24.1926 46.4715 24.3737C46.7464 24.6828 46.9116 25.0741 46.9415 25.4867C46.9714 25.8993 46.8642 26.3102 46.6366 26.6557Z" fill="#3C3C4F"/>
</svg>
