<svg width="40" height="40" viewBox="0 0 40 40" fill="none" xmlns="http://www.w3.org/2000/svg">
<path d="M15.0291 27.5011H11.2973V15.8175H15.0291V27.5011ZM13.1612 14.2237C11.9679 14.2237 11 13.2628 11 12.1026C11 11.5454 11.2277 11.0109 11.633 10.6169C12.0383 10.2228 12.588 10.0015 13.1612 10.0015C13.7344 10.0015 14.2841 10.2228 14.6894 10.6169C15.0947 11.0109 15.3224 11.5454 15.3224 12.1026C15.3224 13.2628 14.3541 14.2237 13.1612 14.2237ZM28.996 27.5011H25.2722V21.8136C25.2722 20.4581 25.2441 18.7198 23.332 18.7198C21.3918 18.7198 21.0945 20.1925 21.0945 21.7159V27.5011H17.3667V15.8175H20.9458V17.4112H20.998C21.4963 16.4933 22.7133 15.5245 24.5289 15.5245C28.3057 15.5245 29 17.9425 29 21.0831V27.5011H28.996Z" fill="#48A145"/>
<path d="M20 39C9.50659 39 1 30.4934 1 20H-1C-1 31.598 8.40202 41 20 41V39ZM39 20C39 30.4934 30.4934 39 20 39V41C31.598 41 41 31.598 41 20H39ZM20 1C30.4934 1 39 9.50659 39 20H41C41 8.40202 31.598 -1 20 -1V1ZM20 -1C8.40202 -1 -1 8.40202 -1 20H1C1 9.50659 9.50659 1 20 1V-1Z" fill="#48A145"/>
</svg>
