<svg width="48" height="48" viewBox="0 0 48 48" fill="none" xmlns="http://www.w3.org/2000/svg">
<g clip-path="url(#clip0_12572_87556)">
<path d="M18 12V16.7025C17.7722 16.5701 17.5135 16.5003 17.25 16.5H15.75V15C13.6125 15.105 12.0825 12.075 12 12C9.75 15 5.25 15 5.25 15V16.5H3.75C3.48653 16.5003 3.22781 16.5701 3 16.7025V11.25C2.99978 10.462 3.15483 9.6817 3.45628 8.95365C3.75773 8.22559 4.19968 7.56407 4.75688 7.00688C5.31407 6.44968 5.97559 6.00774 6.70364 5.70628C7.43169 5.40483 8.21201 5.24979 9 5.25H11.25C11.6441 5.24947 12.0345 5.3267 12.3987 5.47728C12.7629 5.62785 13.0938 5.84881 13.3725 6.12749C13.6512 6.40618 13.8721 6.7371 14.0227 7.10132C14.1733 7.46554 14.2505 7.85589 14.25 8.25C15.2445 8.25036 16.1981 8.64556 16.9013 9.34875C17.6044 10.0519 17.9996 11.0056 18 12Z" fill="#343544"/>
<path d="M15 15.75H17.25C17.6478 15.75 18.0294 15.908 18.3107 16.1893C18.592 16.4706 18.75 16.8522 18.75 17.25V18.75C18.75 19.1478 18.592 19.5294 18.3107 19.8107C18.0294 20.092 17.6478 20.25 17.25 20.25H15V15.75Z" fill="#EAC2B9"/>
<path d="M6 20.25H3.75C3.35218 20.25 2.97064 20.092 2.68934 19.8107C2.40804 19.5294 2.25 19.1478 2.25 18.75L2.25 17.25C2.25 16.8522 2.40804 16.4706 2.68934 16.1893C2.97064 15.908 3.35218 15.75 3.75 15.75H6L6 20.25Z" fill="#EAC2B9"/>
<path d="M13.5 23.0551V27.7501L10.5 30.0001L7.5 27.7501V23.0551C8.37947 23.6702 9.42677 24.0001 10.5 24.0001C11.5732 24.0001 12.6205 23.6702 13.5 23.0551Z" fill="#EAC2B9"/>
<path d="M30.63 22.5C30.4309 22.4994 30.2336 22.5381 30.0495 22.6141C29.8655 22.69 29.6982 22.8016 29.5575 22.9425L21.75 30.75L16.5 28.5L13.5 27L10.5 29.25L7.5 27L4.5 28.5L0.75 30.75V39.75H18V35.25L22.5 36.75L31.815 24.9525C31.9904 24.7294 32.0997 24.4614 32.1303 24.1792C32.1609 23.897 32.1117 23.6119 31.9882 23.3563C31.8647 23.1007 31.6719 22.8849 31.4318 22.7336C31.1917 22.5822 30.9139 22.5012 30.63 22.5Z" fill="#F25757"/>
<path d="M12 11.25C9.75 14.25 5.25 14.25 5.25 14.25V19.5C5.25 20.8924 5.80312 22.2277 6.78769 23.2123C7.77226 24.1969 9.10761 24.75 10.5 24.75C11.8924 24.75 13.2277 24.1969 14.2123 23.2123C15.1969 22.2277 15.75 20.8924 15.75 19.5V14.25C13.6092 14.3515 12.0789 11.3234 12 11.25Z" fill="#FFDDD4"/>
<path d="M7.5 27L10.5 29.25L7.5 31.5L4.5 28.5L7.5 27Z" fill="#D63434"/>
<path d="M13.5 27L10.5 29.25L13.5 31.5L16.5 28.5L13.5 27Z" fill="#D63434"/>
<path d="M21.75 42.75H0.75V47.25H21.75V42.75Z" fill="#FFB125"/>
<path d="M47.25 4.5H21.75V25.5H47.25V4.5Z" fill="#48ACFF"/>
<path d="M30.63 22.5C30.4309 22.4994 30.2336 22.5381 30.0496 22.6141C29.8655 22.69 29.6983 22.8016 29.5575 22.9425L25.6863 26.8137L25.7388 26.8572C25.7513 26.8682 25.7645 26.8777 25.7776 26.888L28.6402 28.9739L31.815 24.9525C31.9905 24.7294 32.0997 24.4614 32.1303 24.1792C32.1609 23.897 32.1117 23.6119 31.9882 23.3563C31.8647 23.1007 31.6719 22.8849 31.4318 22.7336C31.1917 22.5822 30.9139 22.5012 30.63 22.5Z" fill="#FFDDD4"/>
<path d="M23.2955 39.75H0.75V42.75H23.2955C23.6846 42.75 24 42.5261 24 42.25V40.25C24 39.9739 23.6846 39.75 23.2955 39.75Z" fill="#FCD354"/>
<path d="M47.25 0.75H18.75V4.5H47.25V0.75Z" fill="#337FEF"/>
<path d="M47.25 24.75H34.89C34.6911 24.75 34.5003 24.829 34.3597 24.9697C34.219 25.1103 34.14 25.3011 34.14 25.5C34.14 25.6989 34.219 25.8897 34.3597 26.0303C34.5003 26.171 34.6911 26.25 34.89 26.25H47.25C47.4489 26.25 47.6397 26.171 47.7803 26.0303C47.921 25.8897 48 25.6989 48 25.5C48 25.3011 47.921 25.1103 47.7803 24.9697C47.6397 24.829 47.4489 24.75 47.25 24.75Z" fill="#231E23"/>
<path d="M47.25 3.75H19.5V1.5H47.25C47.4489 1.5 47.6397 1.42098 47.7804 1.28033C47.921 1.13968 48 0.948912 48 0.75C48 0.551088 47.921 0.360322 47.7804 0.21967C47.6397 0.0790176 47.4489 0 47.25 0L18.75 0C18.5511 0 18.3603 0.0790176 18.2197 0.21967C18.079 0.360322 18 0.551088 18 0.75V4.5C18 4.69891 18.079 4.88968 18.2197 5.03033C18.3603 5.17098 18.5511 5.25 18.75 5.25H21V25.5C21 25.6989 21.079 25.8897 21.2197 26.0303C21.3603 26.171 21.5511 26.25 21.75 26.25H25.1894L21.5786 29.8609L16.8186 27.8209L14.25 26.5364V24.1763C15.2583 23.3661 15.9782 22.2521 16.3025 21H17.25C17.8466 20.9993 18.4185 20.7621 18.8403 20.3403C19.2621 19.9185 19.4994 19.3465 19.5 18.75V17.25C19.4992 16.9353 19.432 16.6244 19.3027 16.3375C19.1735 16.0505 18.9851 15.7941 18.75 15.585V12C18.7486 10.9256 18.3634 9.88695 17.6639 9.0714C16.9644 8.25585 15.9965 7.717 14.9348 7.55197C14.7711 6.69428 14.3137 5.92042 13.6412 5.36343C12.9687 4.80645 12.1232 4.50114 11.25 4.5H9.00002C7.21042 4.50199 5.49468 5.21378 4.22924 6.47922C2.9638 7.74466 2.25201 9.4604 2.25002 11.25V15.585C2.0149 15.7941 1.82656 16.0505 1.69733 16.3375C1.56809 16.6244 1.50085 16.9353 1.50002 17.25V18.75C1.50068 19.3465 1.73794 19.9185 2.15975 20.3403C2.58157 20.7621 3.15349 20.9993 3.75002 21H4.6975C5.02183 22.2521 5.7417 23.3661 6.75002 24.1763V26.5364L4.16455 27.8291C4.15645 27.8332 4.15225 27.8418 4.1443 27.8462C4.13462 27.8515 4.1236 27.8512 4.1143 27.857L0.364296 30.107C0.279092 30.1573 0.204684 30.2239 0.145359 30.3031C0.0860343 30.3823 0.0429656 30.4725 0.0186344 30.5684C-0.00569679 30.6643 -0.0108096 30.764 0.00359063 30.8619C0.0179908 30.9598 0.0516194 31.0539 0.102539 31.1387C0.153458 31.2236 0.220662 31.2975 0.300278 31.3563C0.379894 31.415 0.470349 31.4574 0.56643 31.4811C0.662512 31.5047 0.762322 31.5091 0.860109 31.494C0.957895 31.4789 1.05173 31.4446 1.1362 31.393L4.38407 29.4444L6.96977 32.0303C7.09738 32.158 7.26679 32.2353 7.44687 32.2482C7.62696 32.261 7.80562 32.2084 7.95002 32.1L10.5 30.1875L13.05 32.1C13.1944 32.2084 13.3731 32.2611 13.5532 32.2483C13.7333 32.2355 13.9027 32.1581 14.0303 32.0304L16.6714 29.3894L21.4546 31.4393C21.5923 31.4986 21.7447 31.5151 21.8919 31.4867C22.0391 31.4584 22.1744 31.3865 22.2803 31.2804L26.295 27.2654L28.0325 28.5316L22.2375 35.8718L18.237 34.5388C18.1241 34.5004 18.0033 34.491 17.8858 34.5114C17.7683 34.5318 17.6577 34.5813 17.5643 34.6556C17.4683 34.7224 17.3897 34.8112 17.335 34.9146C17.2803 35.018 17.2512 35.133 17.25 35.25V39H4.50002V35.25C4.50002 35.0511 4.421 34.8603 4.28035 34.7197C4.1397 34.579 3.94893 34.5 3.75002 34.5C3.55111 34.5 3.36034 34.579 3.21969 34.7197C3.07904 34.8603 3.00002 35.0511 3.00002 35.25V39H0.750021C0.551109 39 0.360343 39.079 0.219691 39.2197C0.0790389 39.3603 2.12757e-05 39.5511 2.12757e-05 39.75C2.12757e-05 39.9489 0.0790389 40.1397 0.219691 40.2803C0.360343 40.421 0.551109 40.5 0.750021 40.5H23.25V42H0.750021C0.551109 42 0.360343 42.079 0.219691 42.2197C0.0790389 42.3603 2.12757e-05 42.5511 2.12757e-05 42.75C2.12757e-05 42.9489 0.0790389 43.1397 0.219691 43.2803C0.360343 43.421 0.551109 43.5 0.750021 43.5H21V47.25C21 47.4489 21.079 47.6397 21.2197 47.7803C21.3603 47.921 21.5511 48 21.75 48C21.9489 48 22.1397 47.921 22.2804 47.7803C22.421 47.6397 22.5 47.4489 22.5 47.25V43.5H24C24.1989 43.5 24.3897 43.421 24.5304 43.2803C24.671 43.1397 24.75 42.9489 24.75 42.75V39.75C24.75 39.5511 24.671 39.3603 24.5304 39.2197C24.3897 39.079 24.1989 39 24 39H18.75V36.2903L22.2627 37.4612C22.3392 37.487 22.4193 37.5001 22.5 37.5C22.6133 37.5 22.7251 37.4744 22.827 37.425C22.9289 37.3757 23.0183 37.3039 23.0885 37.215L32.4035 25.4157C32.7612 24.9625 32.9322 24.3897 32.8816 23.8146C32.8309 23.2395 32.5623 22.7055 32.1308 22.3218C31.6994 21.9382 31.1376 21.7339 30.5605 21.7508C29.9834 21.7677 29.4346 22.0045 29.0263 22.4128L26.6894 24.75H22.5V5.25H47.25C47.4489 5.25 47.6397 5.17098 47.7804 5.03033C47.921 4.88968 48 4.69891 48 4.5C48 4.30109 47.921 4.11032 47.7804 3.96967C47.6397 3.82902 47.4489 3.75 47.25 3.75ZM18 18.75C17.9998 18.9489 17.9208 19.1395 17.7802 19.2801C17.6395 19.4207 17.4489 19.4998 17.25 19.5H16.5V16.5H17.25C17.4489 16.5002 17.6395 16.5793 17.7802 16.7199C17.9208 16.8605 17.9998 17.0511 18 17.25V18.75ZM3.75002 11.25C3.75163 9.85811 4.30527 8.52368 5.28949 7.53946C6.2737 6.55525 7.60813 6.00161 9.00002 6H11.25C11.8466 6.00066 12.4185 6.23792 12.8403 6.65973C13.2621 7.08155 13.4994 7.65346 13.5 8.25C13.5 8.44891 13.579 8.63968 13.7197 8.78033C13.8603 8.92098 14.0511 9 14.25 9C15.0454 9.00083 15.808 9.31717 16.3704 9.8796C16.9328 10.442 17.2492 11.2046 17.25 12V15H16.5V14.25C16.5001 14.1485 16.4795 14.0481 16.4395 13.9548C16.3996 13.8615 16.341 13.7773 16.2675 13.7073C16.1945 13.6367 16.1077 13.5819 16.0126 13.5464C15.9174 13.5108 15.816 13.4953 15.7145 13.5007C15.167 13.5157 14.0622 13.2349 12.7241 10.9929C12.6689 10.8848 12.5969 10.7861 12.511 10.7004C12.434 10.6288 12.3427 10.5741 12.2432 10.5401C12.1437 10.506 12.0381 10.4933 11.9333 10.5026C11.8285 10.512 11.7269 10.5434 11.635 10.5946C11.5432 10.6458 11.4631 10.7158 11.4 10.8C9.40795 13.456 5.2903 13.5 5.2489 13.5C5.05028 13.5006 4.86 13.5799 4.71966 13.7204C4.57933 13.861 4.50036 14.0514 4.50002 14.25V15H3.75002V11.25ZM3.75002 19.5C3.55116 19.4998 3.3605 19.4207 3.21989 19.2801C3.07928 19.1395 3.0002 18.9489 3.00002 18.75V17.25C3.0002 17.0511 3.07928 16.8605 3.21989 16.7199C3.3605 16.5793 3.55116 16.5002 3.75002 16.5H4.50002V19.5H3.75002ZM6.00002 19.5V14.9575C8.18462 14.8007 10.2581 13.9342 11.9048 12.4901C13.0291 14.1026 14.1167 14.7379 15 14.9312V19.5C15 20.6935 14.5259 21.8381 13.682 22.682C12.8381 23.5259 11.6935 24 10.5 24C9.30655 24 8.16195 23.5259 7.31804 22.682C6.47413 21.8381 6.00002 20.6935 6.00002 19.5ZM10.5 25.5C11.2715 25.4997 12.0357 25.3497 12.75 25.0582V26.625L10.5 28.3125L8.25002 26.625V25.0582C8.96438 25.3497 9.7285 25.4997 10.5 25.5ZM7.57037 30.51L5.76602 28.7058L7.4209 27.8782L9.25015 29.25L7.57037 30.51ZM13.4297 30.51L11.7499 29.25L13.5791 27.8782L15.234 28.7058L13.4297 30.51ZM30.0868 23.4743C30.1748 23.3923 30.2806 23.3317 30.3958 23.2971C30.5111 23.2625 30.6327 23.2549 30.7514 23.2749C30.87 23.2948 30.9825 23.3419 31.08 23.4123C31.1776 23.4827 31.2577 23.5746 31.314 23.6809C31.3783 23.8094 31.4043 23.9537 31.3888 24.0966C31.3733 24.2394 31.3169 24.3748 31.2265 24.4865L28.9633 27.3532L27.3693 26.1915L30.0868 23.4743Z" fill="#231E23"/>
<path d="M47.25 6.75H39C38.8011 6.75 38.6103 6.82902 38.4697 6.96967C38.329 7.11032 38.25 7.30109 38.25 7.5C38.25 7.69891 38.329 7.88968 38.4697 8.03033C38.6103 8.17098 38.8011 8.25 39 8.25H47.25C47.4489 8.25 47.6397 8.17098 47.7803 8.03033C47.921 7.88968 48 7.69891 48 7.5C48 7.30109 47.921 7.11032 47.7803 6.96967C47.6397 6.82902 47.4489 6.75 47.25 6.75Z" fill="#231E23"/>
<path d="M47.25 9.75H39C38.8011 9.75 38.6103 9.82902 38.4697 9.96967C38.329 10.1103 38.25 10.3011 38.25 10.5C38.25 10.6989 38.329 10.8897 38.4697 11.0303C38.6103 11.171 38.8011 11.25 39 11.25H47.25C47.4489 11.25 47.6397 11.171 47.7803 11.0303C47.921 10.8897 48 10.6989 48 10.5C48 10.3011 47.921 10.1103 47.7803 9.96967C47.6397 9.82902 47.4489 9.75 47.25 9.75Z" fill="#231E23"/>
<path d="M47.25 12.75H39C38.8011 12.75 38.6103 12.829 38.4697 12.9697C38.329 13.1103 38.25 13.3011 38.25 13.5C38.25 13.6989 38.329 13.8897 38.4697 14.0303C38.6103 14.171 38.8011 14.25 39 14.25H47.25C47.4489 14.25 47.6397 14.171 47.7803 14.0303C47.921 13.8897 48 13.6989 48 13.5C48 13.3011 47.921 13.1103 47.7803 12.9697C47.6397 12.829 47.4489 12.75 47.25 12.75Z" fill="#231E23"/>
<path d="M47.25 15.75H25.5C25.3011 15.75 25.1103 15.829 24.9697 15.9697C24.829 16.1103 24.75 16.3011 24.75 16.5C24.75 16.6989 24.829 16.8897 24.9697 17.0303C25.1103 17.171 25.3011 17.25 25.5 17.25H47.25C47.4489 17.25 47.6397 17.171 47.7803 17.0303C47.921 16.8897 48 16.6989 48 16.5C48 16.3011 47.921 16.1103 47.7803 15.9697C47.6397 15.829 47.4489 15.75 47.25 15.75Z" fill="#231E23"/>
<path d="M47.25 18.75H25.5C25.3011 18.75 25.1103 18.829 24.9697 18.9697C24.829 19.1103 24.75 19.3011 24.75 19.5C24.75 19.6989 24.829 19.8897 24.9697 20.0303C25.1103 20.171 25.3011 20.25 25.5 20.25H47.25C47.4489 20.25 47.6397 20.171 47.7803 20.0303C47.921 19.8897 48 19.6989 48 19.5C48 19.3011 47.921 19.1103 47.7803 18.9697C47.6397 18.829 47.4489 18.75 47.25 18.75Z" fill="#231E23"/>
<path d="M47.25 21.75H34.875C34.6761 21.75 34.4853 21.829 34.3447 21.9697C34.204 22.1103 34.125 22.3011 34.125 22.5C34.125 22.6989 34.204 22.8897 34.3447 23.0303C34.4853 23.171 34.6761 23.25 34.875 23.25H47.25C47.4489 23.25 47.6397 23.171 47.7803 23.0303C47.921 22.8897 48 22.6989 48 22.5C48 22.3011 47.921 22.1103 47.7803 21.9697C47.6397 21.829 47.4489 21.75 47.25 21.75Z" fill="#231E23"/>
<path d="M35.7802 9.96978C35.7106 9.9001 35.628 9.84483 35.537 9.80712C35.446 9.76941 35.3485 9.75 35.25 9.75C35.1515 9.75 35.054 9.76941 34.963 9.80712C34.872 9.84483 34.7894 9.9001 34.7197 9.96978L33.75 10.9395L32.7802 9.96978C32.6388 9.83316 32.4493 9.75756 32.2527 9.75927C32.056 9.76098 31.8679 9.83986 31.7289 9.97891C31.5898 10.118 31.511 10.3061 31.5092 10.5027C31.5075 10.6994 31.5831 10.8888 31.7197 11.0303L32.6894 12L31.7197 12.9698C31.6481 13.039 31.591 13.1217 31.5517 13.2132C31.5124 13.3047 31.4917 13.4031 31.4908 13.5027C31.4899 13.6023 31.5089 13.7011 31.5466 13.7932C31.5843 13.8854 31.64 13.9692 31.7105 14.0396C31.7809 14.11 31.8646 14.1657 31.9568 14.2034C32.049 14.2411 32.1477 14.2601 32.2473 14.2592C32.3469 14.2583 32.4453 14.2377 32.5368 14.1984C32.6283 14.159 32.7111 14.1019 32.7802 14.0303L33.75 13.0606L34.7197 14.0303C34.8612 14.1669 35.0507 14.2425 35.2473 14.2408C35.4439 14.2391 35.6321 14.1602 35.7711 14.0211C35.9102 13.8821 35.989 13.694 35.9908 13.4973C35.9925 13.3007 35.9169 13.1112 35.7802 12.9698L34.8106 12L35.7802 11.0303C35.8499 10.9607 35.9052 10.878 35.9429 10.787C35.9806 10.696 36 10.5985 36 10.5C36 10.4015 35.9806 10.304 35.9429 10.213C35.9052 10.122 35.8499 10.0394 35.7802 9.96978Z" fill="#231E23"/>
<path d="M36.75 7.5C36.75 7.30109 36.671 7.11032 36.5303 6.96967C36.3897 6.82902 36.1989 6.75 36 6.75H30.75C30.6107 6.74998 30.4742 6.78876 30.3557 6.86197C30.2372 6.93518 30.1414 7.03995 30.0791 7.16453L27.75 11.8228L26.9209 10.1645C26.8586 10.0399 26.7628 9.93518 26.6443 9.86197C26.5258 9.78876 26.3893 9.74998 26.25 9.75H24.75C24.5511 9.75 24.3603 9.82902 24.2197 9.96967C24.079 10.1103 24 10.3011 24 10.5C24 10.6989 24.079 10.8897 24.2197 11.0303C24.3603 11.171 24.5511 11.25 24.75 11.25H25.7864L27.0791 13.8355C27.1414 13.9601 27.2372 14.0649 27.3557 14.1381C27.4741 14.2114 27.6107 14.2502 27.75 14.2502C27.8893 14.2502 28.0259 14.2114 28.1443 14.1381C28.2628 14.0649 28.3586 13.9601 28.4209 13.8355L31.2136 8.25H36C36.1989 8.25 36.3897 8.17098 36.5303 8.03033C36.671 7.88968 36.75 7.69891 36.75 7.5Z" fill="#231E23"/>
</g>
<defs>
<clipPath id="clip0_12572_87556">
<rect width="48" height="48" fill="white"/>
</clipPath>
</defs>
</svg>
