<svg width="592" height="413" viewBox="0 0 592 413" fill="none" xmlns="http://www.w3.org/2000/svg">
<g clip-path="url(#clip0_11392_91918)">
<path d="M589.766 352.941C589.765 353.468 589.732 353.993 589.669 354.513C585.572 386.96 455.158 413 294.883 413C134.608 413 4.19376 386.96 0.0975283 354.513C0.0334941 353.993 0.00088671 353.468 0 352.941C0 352.793 -1.92562e-06 352.637 0.0114721 352.489C0.0114721 352.407 0.0172104 352.333 0.0172104 352.252C0.0219491 352.222 0.0238773 352.192 0.0229486 352.163C0.0458967 351.829 0.080319 351.51 0.126215 351.184C1.99648 337.919 24.9962 325.729 62.5106 315.964C93.1922 307.978 133.587 301.609 180.079 297.605C215.362 294.565 254.156 292.882 294.883 292.882C327.653 292.882 359.172 293.972 388.615 295.974H388.626C394.788 296.396 400.857 296.859 406.835 297.36C447.757 300.786 484.073 306.028 513.332 312.59C531.329 316.631 546.664 321.176 558.763 326.1H558.769C577.391 333.685 588.372 342.19 589.64 351.184C589.686 351.51 589.72 351.829 589.743 352.163C589.742 352.192 589.744 352.222 589.749 352.252C589.749 352.333 589.755 352.407 589.755 352.489C589.766 352.637 589.766 352.793 589.766 352.941Z" fill="#3F3D56"/>
<path opacity="0.1" d="M176.034 393.162C243.892 393.162 298.902 385.195 298.902 375.367C298.902 365.539 243.892 357.571 176.034 357.571C108.176 357.571 53.1661 365.539 53.1661 375.367C53.1661 385.195 108.176 393.162 176.034 393.162Z" fill="black"/>
<path opacity="0.1" d="M376.546 308.708C372.249 309.932 367.409 311.066 362.1 312.104C340.237 316.39 310.406 319.022 277.559 319.022C240.863 319.022 207.971 315.737 185.684 310.54C167.187 306.224 155.987 300.611 155.987 294.45C155.987 289.037 164.655 284.025 179.347 279.969C232.463 283.394 279.6 288.637 317.577 295.199C340.937 299.24 360.841 303.785 376.546 308.708Z" fill="black"/>
<path opacity="0.1" d="M416.316 309.209C416.316 320.428 345.634 329.526 258.45 329.526C171.266 329.526 100.583 320.428 100.583 309.209C100.602 308.501 100.853 307.819 101.298 307.267C141.122 299.281 193.553 292.912 253.9 288.908C255.412 288.9 256.928 288.898 258.45 288.9C345.634 288.9 416.316 297.991 416.316 309.209Z" fill="black"/>
<path opacity="0.1" d="M355.292 329.868C355.292 366.006 304.704 354.828 242.765 354.828C180.825 354.828 130.99 366.006 130.99 329.868C130.99 293.731 181.57 285.871 243.509 285.871C305.449 285.871 355.292 293.731 355.292 329.868Z" fill="black"/>
<path d="M355.292 320.971C355.292 357.108 304.704 345.931 242.765 345.931C180.825 345.931 130.99 357.108 130.99 320.971C130.99 284.833 181.57 276.974 243.509 276.974C305.449 276.974 355.292 284.833 355.292 320.971Z" fill="#3F3D56"/>
<path d="M344.959 256.097L347.516 266.599C347.544 266.716 347.54 266.839 347.503 266.953L335.905 303.043C335.859 303.186 335.765 303.309 335.639 303.392C335.513 303.474 335.363 303.511 335.213 303.496C335.063 303.482 334.922 303.416 334.815 303.311C334.708 303.205 334.64 303.067 334.623 302.918L333.018 288.858C333.008 288.765 333.017 288.67 333.047 288.581L343.693 256.048C343.737 255.913 343.825 255.795 343.942 255.713C344.06 255.632 344.201 255.591 344.344 255.596C344.488 255.602 344.625 255.654 344.736 255.744C344.847 255.834 344.925 255.958 344.959 256.097Z" fill="#2F2E41"/>
<path d="M344.018 256.983L346.379 265.994L336.149 298.902L333.789 288.716L344.018 256.983Z" fill="#D3EAFD"/>
<path d="M292.478 305.954C292.871 307.129 333.396 305.562 333.789 305.17C334.132 304.679 334.422 304.154 334.655 303.603C335.024 302.82 335.363 302.036 335.363 302.036L333.789 289.351L293.658 287.933C293.658 287.933 292.655 298.683 292.45 303.603C292.38 304.386 292.389 305.173 292.478 305.954Z" fill="#2F2E41"/>
<path opacity="0.1" d="M328.675 291.067L329.461 302.037H311.756V291.067H328.675Z" fill="black"/>
<path opacity="0.1" d="M305.855 294.593L305.96 294.572L305.461 299.294H295.625V294.593H305.855Z" fill="black"/>
<path opacity="0.1" d="M292.478 305.954C292.871 307.129 333.396 305.562 333.789 305.171C334.132 304.68 334.422 304.155 334.655 303.604H292.45C292.38 304.386 292.389 305.173 292.478 305.954Z" fill="black"/>
<path d="M229.92 264.819H240.937L268.084 254.241C268.084 254.241 287.363 246.406 285.789 261.293C284.215 276.18 281.461 296.16 281.461 296.16C281.461 296.16 272.806 292.242 268.084 293.417C263.363 294.593 266.511 269.52 266.511 269.52C266.511 269.52 227.953 287.933 224.412 285.582C220.871 283.231 220.084 266.778 220.084 266.778L229.92 264.819Z" fill="#2F2E41"/>
<path opacity="0.1" d="M229.92 264.819H240.937L268.084 254.241C268.084 254.241 287.363 246.406 285.789 261.293C284.215 276.18 281.461 296.16 281.461 296.16C281.461 296.16 272.806 292.242 268.084 293.417C263.363 294.593 266.511 269.52 266.511 269.52C266.511 269.52 227.953 287.933 224.412 285.582C220.871 283.231 220.084 266.778 220.084 266.778L229.92 264.819Z" fill="black"/>
<path d="M247.277 230.467L260.609 249.54L291.691 275.396C291.691 275.396 320.412 282.056 316.478 286.757C312.543 291.458 288.543 282.056 288.543 282.056C288.543 282.056 252.74 256.2 251.56 254.241C250.379 252.282 237.396 233.87 237.396 233.87L247.277 230.467Z" fill="#A0616A"/>
<path opacity="0.1" d="M247.277 230.467L260.609 249.54L291.691 275.396C291.691 275.396 320.412 282.056 316.478 286.757C312.543 291.458 288.543 282.056 288.543 282.056C288.543 282.056 252.74 256.2 251.56 254.241C250.379 252.282 237.396 233.87 237.396 233.87L247.277 230.467Z" fill="black"/>
<path d="M245.265 209.581C255.043 209.581 262.969 201.688 262.969 191.951C262.969 182.215 255.043 174.322 245.265 174.322C235.486 174.322 227.56 182.215 227.56 191.951C227.56 201.688 235.486 209.581 245.265 209.581Z" fill="#A0616A"/>
<path d="M244.084 207.622C244.084 207.622 238.183 217.807 237.002 223.292C235.822 228.777 219.297 212.323 219.297 212.323L217.133 206.642C217.133 206.642 232.674 199.395 231.494 193.518C230.314 187.642 244.084 207.622 244.084 207.622Z" fill="#A0616A"/>
<path d="M239.363 215.065L248.019 231.911C248.019 231.911 246.052 240.138 242.904 240.922C239.757 241.705 226.38 230.736 226.38 230.736L239.363 215.065Z" fill="#D0CDE1"/>
<path d="M247.232 238.179L263.363 259.334L301.92 287.932C301.92 287.932 329.855 293.809 323.56 298.118C317.264 302.427 299.166 294.201 299.166 294.201C299.166 294.201 260.215 273.437 251.953 264.818C243.691 256.2 228.347 241.705 228.347 241.705L247.232 238.179Z" fill="#A0616A"/>
<path d="M225.593 271.086L230.314 278.53L258.491 269.703C261.543 268.721 264.774 268.41 267.958 268.793C271.143 269.175 274.207 270.242 276.937 271.919C281.855 275.004 285.002 279.901 277.92 287.149C263.756 301.644 254.314 293.809 254.314 293.809C254.314 293.809 206.707 316.139 198.839 305.17C190.97 294.2 190.576 288.716 190.576 288.716C190.576 288.716 220.871 269.911 225.593 271.086Z" fill="#2F2E41"/>
<path d="M284.609 296.944C284.609 296.944 297.199 305.171 282.248 309.088C267.297 313.006 256.281 307.521 256.281 307.521C256.281 307.521 243.297 307.521 243.297 300.861C243.297 294.202 247.625 293.418 247.625 293.418L261.002 295.377C261.002 295.377 277.134 291.067 284.609 296.944Z" fill="#D0CDE1"/>
<path d="M259.789 187.517C260.952 188.14 262.203 188.586 263.499 188.84C264.15 188.956 264.821 188.88 265.429 188.62C266.037 188.361 266.556 187.93 266.921 187.38C267.21 186.729 267.343 186.019 267.31 185.307C267.357 183.156 267.201 180.831 265.832 179.166C264.96 178.106 263.688 177.438 262.786 176.404C262.18 175.63 261.664 174.79 261.247 173.9C259.493 170.62 256.896 167.467 253.287 166.521C251.761 166.195 250.198 166.076 248.64 166.168L239.55 166.295C238.078 166.248 236.606 166.406 235.178 166.764C232.252 167.645 230.122 170.095 228.171 172.437C226.657 174.145 225.311 175.995 224.153 177.959C222.582 180.876 221.788 184.145 221.846 187.454C221.834 188.302 221.944 189.148 222.173 189.966C222.44 190.716 222.772 191.441 223.164 192.135C224.869 195.468 225.881 199.632 223.961 202.848C227.296 201.492 230.595 199.713 232.795 196.873C233.779 195.602 234.551 194.115 235.862 193.183C237.174 192.25 239.311 192.169 240.152 193.538C240.441 194.091 240.59 194.707 240.586 195.331C240.56 196.362 240.728 197.388 241.083 198.357C241.274 198.837 241.622 199.237 242.072 199.493C242.522 199.748 243.046 199.843 243.557 199.763C245.27 199.282 245.106 196.664 246.425 195.475C247.427 194.572 248.973 194.745 250.261 194.335C250.998 194.055 251.67 193.626 252.232 193.075C252.794 192.523 253.235 191.861 253.527 191.131C254.014 190.043 254.007 187.194 254.93 186.605C256.086 185.865 258.717 187.041 259.789 187.517Z" fill="#2F2E41"/>
<path d="M215.728 204.784C216.524 204.573 217.363 204.575 218.158 204.79C220.684 205.465 226.346 207.253 227.56 209.972C229.133 213.498 234.642 218.983 234.642 218.983C234.642 218.983 242.117 226.426 240.543 231.519C238.969 236.612 233.068 242.489 233.068 242.489C233.068 242.489 234.642 266.778 226.773 273.046C218.904 279.314 215.756 275.005 215.756 280.881C215.756 286.758 191.363 305.17 186.642 293.809C186.642 293.809 189.002 272.654 188.215 265.211C187.44 257.875 188.575 212.104 215.728 204.784Z" fill="#D0CDE1"/>
<path d="M228.347 214.674C228.347 214.674 252.347 232.303 248.019 239.746C248.019 239.746 233.461 246.798 230.314 246.406C227.166 246.014 214.97 232.303 211.822 231.128C208.675 229.952 207.101 208.797 228.347 214.674Z" fill="#D0CDE1"/>
<path d="M161.975 230.471C158.242 231.726 154.86 234.662 154.096 238.511C153.742 240.295 153.959 242.149 153.661 243.943C152.969 248.104 149.689 251.282 146.664 254.233C143.638 257.185 140.514 260.615 140.293 264.826C140.051 269.438 143.41 273.759 142.829 278.341C142.154 283.664 136.507 287.113 135.112 292.295C134.18 295.756 135.322 299.483 137.201 302.539C140.781 308.361 146.902 312.313 153.42 314.432C159.938 316.551 166.88 316.997 173.736 317.069C182.084 317.156 191.148 316.442 197.42 310.956C201.003 307.794 203.253 303.401 203.719 298.656C204.315 292.301 201.651 285.735 203.489 279.62C204.645 275.772 207.545 272.258 207.112 268.264C206.689 264.359 203.264 261.592 200.914 258.437C198.72 255.492 197.389 252.013 196.085 248.584L191.62 236.851C190.743 234.545 189.779 232.119 187.824 230.605C184.162 227.771 178.275 228.328 173.994 228.913C170.023 229.455 165.794 229.187 161.975 230.471Z" fill="#2F2E41"/>
<path d="M163.372 264.648C163.372 264.648 165.351 271.052 150.51 278.442C135.668 285.831 151.994 293.712 151.994 293.712L169.309 297.653C169.309 297.653 187.119 295.19 189.098 292.235C191.077 289.279 194.54 279.427 193.551 277.949C192.81 276.897 191.983 275.908 191.077 274.993C191.077 274.993 179.204 273.023 179.698 267.604C180.193 262.185 163.372 264.648 163.372 264.648Z" fill="#FFB9B9"/>
<path opacity="0.1" d="M163.372 264.648C163.372 264.648 165.351 271.052 150.51 278.442C135.668 285.831 151.994 293.712 151.994 293.712L169.309 297.653C169.309 297.653 187.119 295.19 189.098 292.235C191.077 289.279 194.54 279.427 193.551 277.949C192.81 276.897 191.983 275.908 191.077 274.993C191.077 274.993 179.204 273.023 179.698 267.604C180.193 262.185 163.372 264.648 163.372 264.648Z" fill="black"/>
<path d="M173.02 274.747C181.763 274.747 188.851 267.689 188.851 258.983C188.851 250.277 181.763 243.22 173.02 243.22C164.276 243.22 157.189 250.277 157.189 258.983C157.189 267.689 164.276 274.747 173.02 274.747Z" fill="#FFB9B9"/>
<path d="M171.288 292.235C171.288 292.235 152.222 290.847 151.861 277.748C151.861 277.748 145.068 276.964 143.089 278.934C141.11 280.905 134.678 282.383 134.678 287.309C134.678 292.235 145.562 307.013 145.562 307.013C145.562 307.013 151.499 326.718 149.025 330.166C146.552 333.614 146.057 342.481 146.057 342.481C146.057 342.481 170.793 340.511 174.751 342.481C178.709 344.452 194.54 344.452 195.53 342.481C196.519 340.511 194.54 315.88 194.54 315.88C194.54 315.88 198.993 309.969 198.003 303.072L209.877 289.279C209.877 289.279 205.424 275.979 198.498 275.979C198.498 275.979 189.098 273.516 188.851 274.747C188.604 275.979 193.551 289.772 171.288 292.235Z" fill="#FF6584"/>
<path d="M126.763 335.585C126.763 335.585 131.215 342.482 142.594 343.96C153.973 345.437 155.952 341.496 154.962 340.511C153.973 339.526 142.099 335.093 142.099 335.093L135.173 329.674L126.763 335.585Z" fill="#FFB9B9"/>
<path d="M207.898 329.674L195.035 337.063C195.035 337.063 178.214 336.078 184.646 341.004C191.077 345.93 202.951 343.96 202.951 343.96L214.329 338.541L207.898 329.674Z" fill="#FFB9B9"/>
<path d="M143.584 342.481C143.584 342.481 131.71 371.546 146.057 375.979C160.404 380.413 199.982 379.427 208.887 373.516C217.793 367.605 220.266 359.723 218.782 357.26C217.298 354.797 207.403 347.9 200.477 347.408C193.551 346.915 143.584 342.481 143.584 342.481Z" fill="#2F2E41"/>
<path opacity="0.05" d="M143.584 342.481C143.584 342.481 131.71 371.546 146.057 375.979C160.404 380.413 199.982 379.427 208.887 373.516C217.793 367.605 220.266 359.723 218.782 357.26C217.298 354.797 207.403 347.9 200.477 347.408C193.551 346.915 143.584 342.481 143.584 342.481Z" fill="black"/>
<path d="M199.63 344.287C199.63 344.287 241.539 329.181 241.045 347.407C240.55 365.634 214.329 370.56 214.329 370.56L206.414 371.545L162.878 373.023C162.878 373.023 164.362 365.141 160.899 364.156C160.899 364.156 172.278 361.2 172.772 360.708C173.267 360.215 201.467 350.363 203.445 349.87C205.424 349.378 211.361 345.437 215.814 345.929C215.814 345.929 220.761 341.989 226.203 342.974L210.866 343.959L199.63 344.287Z" fill="#2F2E41"/>
<path opacity="0.1" d="M199.63 344.287C199.63 344.287 241.539 329.181 241.045 347.407C240.55 365.634 214.329 370.56 214.329 370.56L206.414 371.545L162.878 373.023C162.878 373.023 164.362 365.141 160.899 364.156C160.899 364.156 172.278 361.2 172.772 360.708C173.267 360.215 201.467 350.363 203.445 349.87C205.424 349.378 211.361 345.437 215.814 345.929C215.814 345.929 220.761 341.989 226.203 342.974L210.866 343.959L199.63 344.287Z" fill="black"/>
<path d="M192.225 346.733L197.509 358.738L229.666 347.407L232.14 341.004L223.729 339.525L206.821 342.482L199.488 344.452L192.225 346.733Z" fill="#2F2E41"/>
<path opacity="0.1" d="M192.225 346.733L197.509 358.738L229.666 347.407L232.14 341.004L223.729 339.525L206.821 342.482L199.488 344.452L192.225 346.733Z" fill="black"/>
<path d="M123.795 361.201C123.795 361.201 133.194 373.024 144.078 375.979C154.962 378.935 160.899 374.994 160.899 374.994L157.436 361.201L155.952 352.334L149.52 347.9L136.657 341.989L121.321 337.063C121.321 337.063 114.89 336.078 114.89 337.063C114.89 338.048 120.826 352.826 120.826 352.826L123.795 361.201Z" fill="#2F2E41"/>
<path d="M135.173 367.605C135.173 367.605 137.152 381.89 139.626 382.876C142.099 383.861 149.52 381.89 151.499 380.905C153.478 379.92 160.205 375.374 160.205 375.374C160.205 375.374 136.657 366.619 135.173 367.605Z" fill="#D3EAFD"/>
<path d="M180.193 369.083L189.593 370.561L188.604 381.89L175.492 378.72L180.193 369.083Z" fill="#FFB9B9"/>
<path d="M186.083 372.236C186.083 372.236 181.678 377.458 186.13 380.413L189.098 382.876C189.098 382.876 198.993 384.847 199.982 385.832C200.972 386.817 204.93 384.354 204.93 384.354C204.93 384.354 205.424 369.576 204.93 368.591C204.435 367.605 198.498 366.62 198.003 367.605C197.509 368.591 191.572 370.068 188.109 369.083L186.083 372.236Z" fill="#D3EAFD"/>
<path d="M146.552 345.931C146.552 345.931 111.921 325.734 106.479 333.123C101.037 340.512 95.1003 350.857 110.932 358.739C126.763 366.62 176.235 382.877 176.235 382.877C176.235 382.877 183.656 371.546 183.656 368.591C183.656 368.591 157.436 356.768 152.983 355.783C148.531 354.798 130.721 343.468 128.247 342.482C125.773 341.497 122.31 338.541 122.31 338.541L146.552 345.931Z" fill="#2F2E41"/>
<path d="M136.657 284.846L134.678 286.324C134.678 286.324 130.226 297.654 129.731 304.058C129.236 310.462 123.3 330.166 123.795 332.629C124.289 335.092 124.784 337.063 127.752 339.526C127.752 339.526 131.71 330.659 138.636 332.136L147.047 301.594L136.657 284.846Z" fill="#FF6584"/>
<path d="M205.919 284.846L209.877 289.279C209.877 289.279 212.351 295.191 212.351 296.668C212.351 298.146 217.298 319.821 217.793 320.806C218.287 321.792 220.266 334.107 217.793 337.063C215.319 340.018 210.866 341.989 210.866 341.989C210.866 341.989 213.835 331.644 204.435 331.151L205.424 327.21L196.519 297.654L205.919 284.846Z" fill="#FF6584"/>
<path d="M137.647 318.762V344.71C137.647 346.348 138.294 347.921 139.449 349.088C140.604 350.255 142.174 350.923 143.819 350.947L198.317 351.751C199.953 351.775 201.533 351.161 202.72 350.041C203.907 348.92 204.607 347.381 204.67 345.753L205.673 319.802C205.705 318.971 205.569 318.142 205.275 317.364C204.981 316.585 204.533 315.873 203.958 315.27C203.383 314.666 202.693 314.183 201.928 313.849C201.163 313.515 200.338 313.337 199.503 313.325L144.003 312.524C143.173 312.512 142.348 312.665 141.578 312.973C140.807 313.281 140.106 313.738 139.514 314.319C138.923 314.899 138.453 315.591 138.133 316.354C137.812 317.116 137.647 317.935 137.647 318.762Z" fill="#3F3D56"/>
<path d="M173.948 258.478C183.359 258.478 190.989 254.388 190.989 249.342C190.989 244.296 183.359 240.205 173.948 240.205C164.537 240.205 156.907 244.296 156.907 249.342C156.907 254.388 164.537 258.478 173.948 258.478Z" fill="#2F2E41"/>
<path d="M171.041 336.323C173.227 336.323 174.999 334.559 174.999 332.382C174.999 330.206 173.227 328.441 171.041 328.441C168.855 328.441 167.083 330.206 167.083 332.382C167.083 334.559 168.855 336.323 171.041 336.323Z" fill="#D3EAFD"/>
<path d="M403.608 58.7842C443.135 58.7842 475.178 90.66 475.178 129.981C475.178 169.302 443.135 201.177 403.608 201.177C364.081 201.177 309.377 162.192 332.038 129.981C354.699 97.7694 364.081 58.7842 403.608 58.7842Z" fill="white"/>
<path d="M499.399 62.1719C498.758 62.1719 498.236 62.6911 498.236 63.3295V100.375C498.236 101.013 498.758 101.533 499.399 101.533C500.041 101.533 500.563 101.013 500.563 100.375V63.3295C500.563 62.6911 500.041 62.1719 499.399 62.1719Z" fill="#3F3D56"/>
<path d="M372.315 125.183H332.038V124.025H372.315C375.814 124.025 378.661 121.193 378.661 117.712V90.6211H379.824V117.712C379.824 121.831 376.456 125.183 372.315 125.183H372.315Z" fill="#C3362B"/>
<path d="M449.168 183.907H357.561V185.065H449.168V183.907Z" fill="#1A78C2"/>
<path d="M507.29 117.441H458.359C455.719 117.441 453.571 115.304 453.571 112.677V64.5958C453.571 61.969 455.719 59.832 458.359 59.832H507.29C509.931 59.832 512.079 61.969 512.079 64.5958V112.677C512.079 115.304 509.931 117.441 507.29 117.441Z" fill="#3A8137"/>
<path d="M467.472 61.251C460.582 61.251 454.997 66.8068 454.997 73.6603V111.657C454.997 114.067 456.962 116.021 459.385 116.021H489.305C501.095 116.021 510.652 106.514 510.652 94.7854V65.6155C510.652 63.205 508.688 61.251 506.265 61.251H467.472V61.251Z" fill="white"/>
<path d="M495.93 75.2243H469.617C469.115 75.2243 468.707 74.818 468.707 74.3186C468.707 73.8192 469.115 73.4131 469.617 73.4131H495.93C496.432 73.4131 496.84 73.8192 496.84 74.3186C496.84 74.818 496.432 75.2243 495.93 75.2243Z" fill="#3A8137"/>
<path d="M495.93 94.5368H469.617C469.115 94.5368 468.707 94.1305 468.707 93.6311C468.707 93.1317 469.115 92.7256 469.617 92.7256H495.93C496.432 92.7256 496.84 93.1317 496.84 93.6311C496.84 94.1305 496.432 94.5368 495.93 94.5368Z" fill="#3A8137"/>
<path d="M506.615 84.8864H458.932C458.43 84.8864 458.022 84.4801 458.022 83.9807C458.022 83.4814 458.43 83.0752 458.932 83.0752H506.615C507.117 83.0752 507.525 83.4813 507.525 83.9807C507.525 84.4801 507.117 84.8864 506.615 84.8864Z" fill="#3A8137"/>
<path d="M507.102 102.388H489.876C489.374 102.388 488.966 101.982 488.966 101.483C488.966 100.983 489.374 100.577 489.876 100.577H507.102C507.604 100.577 508.012 100.983 508.012 101.483C508.012 101.982 507.604 102.388 507.102 102.388Z" fill="#3A8137"/>
<path d="M404.513 213.241H365.659C363.562 213.241 361.856 211.544 361.856 209.458V171.278C361.856 169.192 363.562 167.495 365.659 167.495H404.513C406.61 167.495 408.316 169.192 408.316 171.278V209.458C408.316 211.544 406.61 213.241 404.513 213.241H404.513Z" fill="#2196F3"/>
<path d="M372.895 168.622C367.424 168.622 362.989 173.034 362.989 178.476V208.648C362.989 210.562 364.549 212.113 366.473 212.113H390.231C399.593 212.113 407.183 204.564 407.183 195.251V172.088C407.183 170.174 405.623 168.622 403.699 168.622H372.895L372.895 168.622H372.895Z" fill="white"/>
<path d="M395.492 179.718H374.598C374.2 179.718 373.875 179.395 373.875 178.998C373.875 178.602 374.2 178.279 374.598 178.279H395.492C395.891 178.279 396.215 178.602 396.215 178.998C396.215 179.395 395.891 179.718 395.492 179.718Z" fill="#2196F3"/>
<path d="M395.492 195.052H374.598C374.2 195.052 373.875 194.73 373.875 194.333C373.875 193.937 374.2 193.614 374.598 193.614H395.492C395.891 193.614 396.215 193.937 396.215 194.333C396.215 194.73 395.891 195.052 395.492 195.052Z" fill="#2196F3"/>
<path d="M403.977 187.39H366.113C365.715 187.39 365.39 187.068 365.39 186.671C365.39 186.275 365.715 185.952 366.113 185.952H403.977C404.375 185.952 404.699 186.275 404.699 186.671C404.699 187.068 404.375 187.39 403.977 187.39Z" fill="#2196F3"/>
<path d="M404.364 201.288H390.685C390.287 201.288 389.962 200.965 389.962 200.569C389.962 200.172 390.287 199.85 390.685 199.85H404.364C404.762 199.85 405.086 200.172 405.086 200.569C405.086 200.965 404.762 201.288 404.364 201.288Z" fill="#2196F3"/>
<path d="M377.356 90.3278H348.622C347.071 90.3278 345.81 89.0729 345.81 87.5303V59.2946C345.81 57.752 347.071 56.4971 348.622 56.4971H377.356C378.907 56.4971 380.169 57.752 380.169 59.2946V87.5303C380.169 89.0729 378.907 90.3278 377.356 90.3278Z" fill="#F44336"/>
<path d="M353.973 57.3311C349.928 57.3311 346.648 60.5937 346.648 64.6184V86.9317C346.648 88.3473 347.801 89.4948 349.224 89.4948H366.795C373.718 89.4948 379.331 83.9114 379.331 77.0241V59.8941C379.331 58.4786 378.177 57.3311 376.754 57.3311H353.973V57.3311L353.973 57.3311Z" fill="white"/>
<path d="M370.685 65.5363H355.233C354.939 65.5363 354.699 65.2977 354.699 65.0044C354.699 64.7112 354.939 64.4727 355.233 64.4727H370.685C370.98 64.4727 371.22 64.7112 371.22 65.0044C371.22 65.2977 370.98 65.5363 370.685 65.5363Z" fill="#F44336"/>
<path d="M370.685 76.8771H355.233C354.939 76.8771 354.699 76.6385 354.699 76.3452C354.699 76.052 354.939 75.8135 355.233 75.8135H370.685C370.98 75.8135 371.22 76.052 371.22 76.3452C371.22 76.6385 370.98 76.8771 370.685 76.8771Z" fill="#F44336"/>
<path d="M376.96 71.2101H348.958C348.664 71.2101 348.424 70.9715 348.424 70.6782C348.424 70.385 348.664 70.1465 348.958 70.1465H376.96C377.255 70.1465 377.495 70.385 377.495 70.6782C377.495 70.9715 377.255 71.2101 376.96 71.2101Z" fill="#F44336"/>
<path d="M377.246 81.4894H367.13C366.835 81.4894 366.596 81.2508 366.596 80.9575C366.596 80.6643 366.835 80.4258 367.13 80.4258H377.246C377.541 80.4258 377.78 80.6643 377.78 80.9575C377.78 81.2508 377.541 81.4894 377.246 81.4894Z" fill="#F44336"/>
<path d="M461.213 125.929C464.427 125.929 467.032 123.338 467.032 120.141C467.032 116.944 464.427 114.353 461.213 114.353C457.999 114.353 455.394 116.944 455.394 120.141C455.394 123.338 457.999 125.929 461.213 125.929Z" fill="#3A8137"/>
<path d="M379.169 94.2349C382.383 94.2349 384.988 91.6434 384.988 88.4465C384.988 85.2497 382.383 82.6582 379.169 82.6582C375.956 82.6582 373.351 85.2497 373.351 88.4465C373.351 91.6434 375.956 94.2349 379.169 94.2349Z" fill="#C3362B"/>
<path d="M407.099 175.709C410.312 175.709 412.918 173.117 412.918 169.92C412.918 166.723 410.312 164.132 407.099 164.132C403.885 164.132 401.28 166.723 401.28 169.92C401.28 173.117 403.885 175.709 407.099 175.709Z" fill="#1A78C2"/>
<path d="M419.668 15.2123C423.673 15.2123 426.92 12.0504 426.92 8.15007C426.92 4.24974 423.673 1.08789 419.668 1.08789C415.663 1.08789 412.416 4.24974 412.416 8.15007C412.416 12.0504 415.663 15.2123 419.668 15.2123Z" fill="white"/>
<path d="M477.804 5.73339H438.77C437.43 5.73339 436.341 4.64953 436.341 3.31738C436.341 1.98523 437.43 0.901367 438.77 0.901367H477.804C479.144 0.901367 480.233 1.98523 480.233 3.31738C480.233 4.64953 479.144 5.73339 477.804 5.73339Z" fill="white"/>
<path d="M508.267 13.9101H438.77C437.43 13.9101 436.341 12.8263 436.341 11.4941C436.341 10.162 437.43 9.07812 438.77 9.07812H508.267C509.607 9.07812 510.696 10.162 510.696 11.4941C510.696 12.8263 509.607 13.9101 508.267 13.9101Z" fill="white"/>
<path d="M314.7 44.8921C317.292 44.8921 319.393 42.8458 319.393 40.3215C319.393 37.7973 317.292 35.751 314.7 35.751C312.108 35.751 310.007 37.7973 310.007 40.3215C310.007 42.8458 312.108 44.8921 314.7 44.8921Z" fill="white"/>
<path d="M352.325 38.7581H327.062C326.196 38.7581 325.491 38.0566 325.491 37.1945C325.491 36.3323 326.196 35.6309 327.062 35.6309H352.325C353.192 35.6309 353.897 36.3323 353.897 37.1945C353.897 38.0566 353.192 38.7581 352.325 38.7581H352.325Z" fill="white"/>
<path d="M372.04 44.0501H327.062C326.196 44.0501 325.491 43.3486 325.491 42.4865C325.491 41.6243 326.196 40.9229 327.062 40.9229H372.04C372.907 40.9229 373.612 41.6243 373.612 42.4865C373.612 43.3486 372.907 44.0501 372.04 44.0501Z" fill="white"/>
<path d="M455.513 207.544C458.105 207.544 460.206 205.498 460.206 202.974C460.206 200.45 458.105 198.403 455.513 198.403C452.921 198.403 450.82 200.45 450.82 202.974C450.82 205.498 452.921 207.544 455.513 207.544Z" fill="white"/>
<path d="M493.138 201.41H467.875C467.009 201.41 466.303 200.709 466.303 199.847C466.303 198.985 467.009 198.283 467.875 198.283H493.138C494.005 198.283 494.71 198.985 494.71 199.847C494.71 200.709 494.005 201.41 493.138 201.41Z" fill="white"/>
<path d="M512.853 206.702H467.875C467.009 206.702 466.303 206.001 466.303 205.139C466.303 204.277 467.009 203.575 467.875 203.575H512.853C513.72 203.575 514.425 204.277 514.425 205.139C514.425 206.001 513.72 206.702 512.853 206.702Z" fill="white"/>
<path d="M399.098 59.8496H397.934V114.839H399.098V59.8496Z" fill="#C3362B"/>
<path d="M398.516 118.311C400.444 118.311 402.007 116.756 402.007 114.838C402.007 112.92 400.444 111.365 398.516 111.365C396.588 111.365 395.025 112.92 395.025 114.838C395.025 116.756 396.588 118.311 398.516 118.311Z" fill="#C3362B"/>
<path d="M451.467 158.252C453.395 158.252 454.958 156.697 454.958 154.779C454.958 152.861 453.395 151.306 451.467 151.306C449.538 151.306 447.975 152.861 447.975 154.779C447.975 156.697 449.538 158.252 451.467 158.252Z" fill="#3A8137"/>
<path d="M357.203 110.787C359.132 110.787 360.695 109.232 360.695 107.314C360.695 105.396 359.132 103.841 357.203 103.841C355.275 103.841 353.712 105.396 353.712 107.314C353.712 109.232 355.275 110.787 357.203 110.787Z" fill="#C3362B"/>
<path d="M355.913 107.32L336.82 107.895L336.856 109.052L355.948 108.477L355.913 107.32Z" fill="#C3362B"/>
<path d="M479.868 168.074H450.917V154.778H452.08V166.916H479.868V168.074Z" fill="#3A8137"/>
<path d="M355.77 148.71C357.699 148.71 359.262 147.155 359.262 145.237C359.262 143.319 357.699 141.764 355.77 141.764C353.842 141.764 352.279 143.319 352.279 145.237C352.279 147.155 353.842 148.71 355.77 148.71Z" fill="#1A78C2"/>
<path d="M383.827 158.532H354.876V145.236H356.04V157.374H383.827V158.532Z" fill="#1A78C2"/>
<path d="M472.414 132.021H333.357V133.178H472.414V132.021Z" fill="#3A8137"/>
<path d="M497.4 335.74C498.938 335.836 499.788 333.933 498.624 332.824L498.509 332.366C498.524 332.329 498.539 332.292 498.555 332.255C500.11 328.562 505.383 328.587 506.926 332.286C508.295 335.57 510.038 338.859 510.467 342.33C510.659 343.863 510.573 345.424 510.231 346.928C513.439 339.95 515.128 332.331 515.128 324.668C515.128 322.743 515.022 320.818 514.805 318.897C514.627 317.327 514.382 315.765 514.065 314.219C512.348 305.857 508.63 297.893 503.267 291.241C500.689 289.837 498.539 287.644 497.241 285.015C496.774 284.067 496.408 283.046 496.235 282.007C496.529 282.046 497.342 277.596 497.12 277.324C497.529 276.706 498.261 276.399 498.708 275.796C500.928 272.798 503.988 273.321 505.585 277.395C508.997 279.11 509.031 281.954 506.937 284.689C505.605 286.429 505.422 288.784 504.253 290.647C504.373 290.8 504.498 290.948 504.619 291.102C506.824 293.918 508.731 296.945 510.338 300.124C509.884 296.59 510.555 292.333 511.698 289.588C513 286.461 515.44 283.828 517.589 281.124C520.17 277.877 525.462 279.294 525.917 283.411C525.922 283.45 525.926 283.49 525.93 283.53C525.611 283.709 525.298 283.9 524.993 284.101C523.251 285.248 523.853 287.937 525.917 288.255L525.964 288.262C525.848 289.406 525.651 290.541 525.362 291.657C528.119 302.272 522.168 306.138 513.67 306.312C513.483 306.408 513.3 306.503 513.112 306.594C513.973 309.008 514.661 311.484 515.171 313.993C515.628 316.211 515.945 318.452 516.123 320.703C516.345 323.543 516.325 326.397 516.085 329.232L516.099 329.132C516.71 326.009 518.413 323.093 520.885 321.072C524.568 318.059 529.771 316.95 533.744 314.529C535.656 313.363 538.107 314.869 537.773 317.077L537.757 317.183C537.165 317.422 536.588 317.7 536.03 318.011C535.711 318.191 535.398 318.381 535.093 318.582C533.351 319.73 533.953 322.419 536.017 322.736L536.064 322.743C536.098 322.748 536.126 322.753 536.16 322.757C535.145 325.157 533.731 327.384 531.961 329.304C530.238 338.57 522.835 339.45 514.916 336.751H514.911C514.045 340.506 512.78 344.174 511.155 347.67H497.736C497.688 347.522 497.645 347.368 497.601 347.22C498.842 347.297 500.093 347.225 501.314 347C500.319 345.783 499.323 344.557 498.328 343.341C498.304 343.317 498.284 343.293 498.265 343.269C497.76 342.646 497.25 342.029 496.745 341.406L496.745 341.405C496.713 339.494 496.943 337.589 497.399 335.741L497.4 335.74L497.4 335.74H497.4Z" fill="#48A145"/>
</g>
<defs>
<clipPath id="clip0_11392_91918">
<rect width="592" height="413" fill="white"/>
</clipPath>
</defs>
</svg>
