<svg width="48" height="48" viewBox="0 0 48 48" fill="none" xmlns="http://www.w3.org/2000/svg">
<g clip-path="url(#clip0_12165_23455)">
<g clip-path="url(#clip1_12165_23455)">
<path d="M23.775 39.975C22.65 39.975 21.825 39.075 21.825 38.025V34.575C21.825 33.45 22.725 32.625 23.775 32.625C24.9 32.625 25.725 33.525 25.725 34.575V38.025C25.8 39.075 24.9 39.975 23.775 39.975Z" fill="white"/>
<path d="M23.775 39.975C22.65 39.975 21.825 39.075 21.825 38.025V34.575C21.825 33.45 22.725 32.625 23.775 32.625C24.9 32.625 25.725 33.525 25.725 34.575V38.025C25.8 39.075 24.9 39.975 23.775 39.975Z" stroke="#414042" stroke-miterlimit="10"/>
<path d="M32.0249 25.2749H31.7999V25.8749H32.0249V25.2749Z" fill="#414042"/>
<path d="M32.6861 25.5111L32.4915 25.3982L32.1904 25.9172L32.385 26.0301L32.6861 25.5111Z" fill="#414042"/>
<path d="M33.1645 26.0201L33.0526 25.825L32.5321 26.1234L32.644 26.3186L33.1645 26.0201Z" fill="#414042"/>
<path d="M33.2999 26.5498H32.6999V26.7748H33.2999V26.5498Z" fill="#414042"/>
<path d="M33.1742 27.2463L32.6564 26.9431L32.5427 27.1373L33.0605 27.4405L33.1742 27.2463Z" fill="#414042"/>
<path d="M32.7378 27.8092L32.4417 27.2874L32.246 27.3984L32.5421 27.9202L32.7378 27.8092Z" fill="#414042"/>
<path d="M32.0249 27.45H31.7999V28.05H32.0249V27.45Z" fill="#414042"/>
<path d="M31.6274 27.4123L31.4338 27.2976L31.128 27.8138L31.3216 27.9285L31.6274 27.4123Z" fill="#414042"/>
<path d="M31.3006 27.0926L31.1904 26.8965L30.6673 27.1904L30.7775 27.3866L31.3006 27.0926Z" fill="#414042"/>
<path d="M31.1256 26.5533L30.5257 26.5454L30.5227 26.7704L31.1227 26.7783L31.1256 26.5533Z" fill="#414042"/>
<path d="M31.3112 26.1208L30.7961 25.813L30.6807 26.0061L31.1958 26.3139L31.3112 26.1208Z" fill="#414042"/>
<path d="M31.6309 25.8721L31.3395 25.3477L31.1428 25.4569L31.4342 25.9814L31.6309 25.8721Z" fill="#414042"/>
<path d="M12.0751 12H11.7751V12.675H12.0751V12Z" fill="#414042"/>
<path d="M12.8366 12.2838L12.5771 12.1333L12.2384 12.7172L12.4979 12.8677L12.8366 12.2838Z" fill="#414042"/>
<path d="M13.3654 12.9302L13.2162 12.6699L12.6305 13.0055L12.7797 13.2658L13.3654 12.9302Z" fill="#414042"/>
<path d="M13.4251 13.425H12.7501V13.725H13.4251V13.425Z" fill="#414042"/>
<path d="M13.2896 14.2781L12.7071 13.937L12.5555 14.1959L13.138 14.537L13.2896 14.2781Z" fill="#414042"/>
<path d="M12.7598 14.8937L12.4266 14.3066L12.1657 14.4547L12.4988 15.0418L12.7598 14.8937Z" fill="#414042"/>
<path d="M12.0751 14.4751H11.7751V15.1501H12.0751V14.4751Z" fill="#414042"/>
<path d="M11.5494 14.4456L11.2913 14.2927L10.9473 14.8736L11.2055 15.0264L11.5494 14.4456Z" fill="#414042"/>
<path d="M11.1552 14.1652L11.0083 13.9036L10.4197 14.234L10.5666 14.4956L11.1552 14.1652Z" fill="#414042"/>
<path d="M10.9519 13.4289L10.277 13.4199L10.273 13.7199L10.9479 13.7289L10.9519 13.4289Z" fill="#414042"/>
<path d="M11.1907 13.0245L10.6113 12.6782L10.4574 12.9357L11.0368 13.282L11.1907 13.0245Z" fill="#414042"/>
<path d="M11.5629 12.7407L11.2352 12.1506L10.9729 12.2963L11.3007 12.8864L11.5629 12.7407Z" fill="#414042"/>
<path d="M25.7251 16.6499H35.9251C36.7501 16.6499 37.4251 17.3249 37.4251 18.1499V19.6499C37.4251 20.4749 36.7501 21.1499 35.9251 21.1499H27.9001" stroke="#414042" stroke-miterlimit="10"/>
<path d="M23.9251 21.1499H13.7251C12.9001 21.1499 12.2251 21.8249 12.2251 22.6499V24.1499C12.2251 24.9749 12.9001 25.6499 13.7251 25.6499L23.7751 25.5749V32.5499" stroke="#414042" stroke-miterlimit="10"/>
<path d="M23.625 24.3749C28.1399 24.3749 31.8 20.7148 31.8 16.1999C31.8 11.685 28.1399 8.0249 23.625 8.0249C19.1101 8.0249 15.45 11.685 15.45 16.1999C15.45 20.7148 19.1101 24.3749 23.625 24.3749Z" fill="#E6E7E8"/>
<path d="M31.425 13.725C31.425 13.725 31.5 13.65 31.425 13.725V13.725ZM31.5 13.875C31.425 14.025 31.5 13.875 31.5 13.875V13.875ZM28.125 12.975C28.125 12.975 26.625 11.55 27.75 11.475V11.4C27.75 11.4 27.75 11.4 27.75 11.475C27.75 11.4 27.525 11.475 27.375 11.475C27.3 11.475 27.375 11.4 27.375 11.4V11.325C27.45 11.325 27.45 11.325 27.375 11.25C27.375 11.25 27.6 11.1 27.675 11.175C27.675 11.175 27.6 11.1 27.675 11.1C27.675 11.025 26.925 10.275 26.325 9.82496C26.325 9.82496 26.325 9.82496 26.25 9.82496C26.1 9.74996 25.95 9.67496 25.875 9.59996C25.95 9.59996 25.875 9.52495 25.875 9.52495C26.7 9.74995 27.225 8.69995 27.9 8.99995H27.975C27.975 8.99995 27.975 8.99996 28.05 9.07496C27.975 8.92496 30.3 10.575 30.075 10.95C30.075 10.95 30.075 10.95 30 11.025C30.075 11.025 30.075 11.1 30 11.1C30.15 11.175 30.15 11.1 30.075 11.1C30.375 11.175 30.3 11.4 30.3 11.475C30.3 11.4 29.4 11.55 30.225 11.625C28.8 11.625 28.575 12.525 28.125 12.975ZM27.6 11.175C27.675 11.1 27.675 11.175 27.6 11.175V11.175ZM27.6 11.25C27.6 11.25 27.75 11.25 27.6 11.25V11.25ZM27.45 11.925C27.375 11.925 27.45 11.925 27.45 11.925V11.925ZM27.525 11.7C27.525 11.625 27.525 11.7 27.525 11.7V11.7ZM27.6 11.625C27.45 11.625 27.675 11.625 27.6 11.625V11.625ZM27.6 11.85C27.6 11.85 27.675 11.925 27.6 11.85V11.85ZM27.675 11.775C27.525 11.625 27.75 11.85 27.675 11.775V11.775ZM29.925 11.175C29.925 11.175 30 11.175 29.925 11.175V11.175ZM29.775 11.625C29.7 11.625 29.925 11.55 29.775 11.625V11.625ZM29.85 11.7C29.7 11.625 29.925 11.625 29.85 11.7V11.7ZM29.925 11.175C29.85 11.25 30.075 11.25 29.925 11.175V11.175ZM30.15 11.175C30.075 11.175 30.075 11.175 30.15 11.175C30.075 11.175 30.075 11.175 30.15 11.175ZM30.15 11.175C30.075 11.175 30.15 11.175 30.15 11.175V11.175ZM27.525 11.175C27.525 11.1 27.675 11.1 27.525 11.175V11.175ZM18.675 11.7C18.675 11.7 18.75 11.7 18.675 11.7C18.675 11.7 18.75 11.7 18.675 11.7ZM17.175 12.15C16.875 12.075 17.325 12.15 17.175 12.15V12.15ZM18.825 11.625C18.825 11.7 18.825 11.7 18.825 11.625V11.625ZM23.025 9.67495C22.95 9.59995 23.1 9.74995 23.025 9.67495V9.67495ZM23.1 9.74995C23.175 9.74995 23.175 9.74995 23.1 9.74995C23.025 9.74995 23.1 9.74995 23.1 9.74995C23.025 9.74995 22.95 9.74995 23.1 9.74995ZM23.1 9.74995C23.175 9.74995 23.175 9.74995 23.1 9.74995V9.74995ZM23.1 9.29995C23.1 9.29995 23.175 9.29995 23.1 9.29995V9.29995ZM23.025 9.14995C23.4 9.37495 23.475 9.44995 23.025 9.14995V9.14995ZM23.025 9.14995C22.95 9.14995 23.025 9.22495 23.025 9.14995V9.14995ZM25.875 12.6C25.875 12.6 25.95 12.6 25.875 12.6C25.875 12.6 25.95 12.6 25.875 12.6ZM22.95 9.52495C22.725 9.52495 22.95 9.52495 22.95 9.52495V9.52495ZM23.325 9.44996L23.25 9.37495C23.175 9.44995 23.25 9.44996 23.325 9.44996ZM23.475 9.07496C23.325 8.99996 23.7 9.14996 23.475 9.07496V9.07496ZM25.275 10.05C25.2 10.05 25.275 10.05 25.275 10.05C25.2 10.05 25.275 10.05 25.275 10.05ZM24.45 16.425C24.45 16.425 24.525 16.425 24.45 16.425V16.425ZM23.4 9.67495C23.25 9.67495 23.475 9.74995 23.4 9.67495V9.67495ZM23.4 9.82496C23.325 9.82496 23.4 9.82496 23.4 9.82496V9.82496ZM23.325 9.67495C23.25 9.74995 23.325 9.67495 23.325 9.67495V9.67495ZM23.175 9.67495C22.875 9.82495 24.075 9.44995 23.175 9.67495V9.67495ZM23.4 9.74995C23.25 9.67496 23.475 9.74995 23.4 9.74995V9.74995ZM26.7 9.14995C26.625 9.14995 26.55 9.14995 26.475 9.14995C26.775 9.22495 26.475 9.14995 26.7 9.14995ZM23.775 9.07496C23.625 8.77496 24.75 9.07495 25.125 9.29995C25.125 9.22495 24.9 9.14995 25.05 9.14995C24.975 9.14995 24.975 9.07496 25.05 9.07496C24.975 9.07496 24.975 9.07496 25.125 9.07496C24.675 9.14996 24.525 8.84996 24.375 8.84996C24.375 8.84996 24.45 8.84996 24.375 8.84996C24.375 8.84996 24.375 8.84995 24.3 8.77495C24.45 8.84995 27.15 8.47496 27.075 8.99995C27.075 8.99995 27.075 8.99996 27.075 9.07496C27.075 9.22496 26.475 9.14995 26.4 9.14995C26.475 9.14995 26.475 9.14996 26.55 9.22496C26.1 9.22496 25.95 9.52495 25.5 9.52495C25.425 9.52495 25.65 9.59995 25.575 9.52495C25.875 9.74995 25.05 10.2 24.375 9.89995C24.375 9.89995 24.375 9.82495 24.375 9.74995C24.375 9.52495 24.75 9.74995 24.825 9.67495C24.75 9.67495 24.75 9.67495 24.75 9.67495C24.675 9.67495 24.75 9.67495 24.825 9.67495C24.75 9.67495 24.6 9.59995 24.6 9.52495C24.225 9.52495 24 9.37496 23.775 9.07496ZM25.725 8.77495C25.65 8.77495 25.725 8.77495 25.725 8.77495V8.77495ZM24.825 8.92495C24.6 8.92495 24.75 9.07495 24.825 8.92495V8.92495ZM25.5 9.44996C25.425 9.44996 25.425 9.44996 25.5 9.44996V9.44996ZM25.35 9.07496C25.35 9.07496 25.425 9.14996 25.35 9.07496C25.425 9.07496 25.425 9.07496 25.35 9.07496H25.275C25.125 9.22496 25.275 9.14996 25.35 9.07496ZM25.05 9.74995C25.05 9.74995 25.125 9.74995 25.05 9.74995V9.74995ZM24.825 9.52495C24.825 9.52495 24.825 9.59995 24.825 9.52495V9.52495ZM24.75 9.37495C24.675 9.37495 24.825 9.37495 24.75 9.37495V9.37495ZM24.225 9.67495C24.225 9.67495 24.45 9.59995 24.225 9.67495V9.67495ZM23.175 11.025C23.1 11.025 23.325 11.025 23.175 11.025V11.025ZM24.525 11.625C24.525 11.625 24.525 11.7 24.6 11.7C24.675 11.7 24.525 11.625 24.525 11.625ZM22.125 9.29995C22.05 9.29995 22.2 9.29995 22.125 9.29995V9.29995ZM25.725 12.3C25.725 12.225 25.8 12.3 25.725 12.3C25.65 12.225 25.725 12.3 25.725 12.3ZM22.275 9.37495C21.975 9.29996 22.8 9.52495 22.275 9.37495V9.37495ZM23.025 11.025C23.025 10.95 23.025 11.025 23.025 11.025V11.025ZM25.875 9.89995C25.95 9.89995 25.95 9.89995 25.875 9.89995C25.875 9.89995 25.95 9.89995 25.875 9.89995ZM25.05 11.25C25.05 11.25 25.125 11.25 25.125 11.175C25.125 11.175 25.2 11.175 25.125 11.175C25.125 11.175 25.125 11.175 25.05 11.25C25.125 11.175 25.125 11.175 25.05 11.25C25.125 11.175 25.125 11.175 25.05 11.25ZM24.9 16.8C24.825 16.8 24.9 16.8 24.9 16.8C24.825 16.8 24.9 16.8 24.9 16.8ZM24.45 14.25C24.45 14.25 24.3 14.25 24.375 14.25C24.375 14.175 24.45 14.25 24.45 14.25ZM23.775 23.775C23.775 23.775 23.775 23.85 23.775 23.775V23.775ZM23.925 22.95C23.925 23.025 24 23.025 23.925 22.95V22.95ZM23.85 23.925C23.85 23.925 23.7 23.85 23.775 23.85C23.775 23.925 23.925 24 23.85 23.925ZM25.425 17.175C25.425 17.175 25.725 17.175 25.425 17.175V17.175ZM25.425 17.175C25.35 17.175 25.425 17.175 25.425 17.175V17.175ZM24.675 16.875C23.625 16.35 24.15 16.65 24.675 16.875V16.875ZM24.675 16.875C24.6 16.875 24.675 16.875 24.675 16.875V16.875ZM24 16.5C24.075 16.5 24.225 16.5 24 16.5V16.5ZM30.975 14.4C30.975 14.4 32.025 14.25 30.975 14.4V14.4ZM31.425 13.8C31.425 13.8 31.5 13.8 31.425 13.8C31.425 13.725 31.425 13.8 31.425 13.8ZM31.575 14.325C31.575 14.625 31.65 14.85 31.575 14.325V14.325ZM30.225 11.175C30.225 11.175 30.225 11.25 30.225 11.175V11.175ZM31.725 16.2C31.275 16.575 31.875 15.525 31.8 14.85C31.725 14.925 31.65 14.85 31.65 14.775C31.575 14.775 31.5 14.85 31.5 14.85C31.5 15.375 30.975 16.2 30.15 17.175C29.925 17.4 30 17.85 29.925 18.15C29.1 20.7 32.55 15.45 31.725 16.2ZM18.675 11.7C18.75 11.625 18.75 11.7 18.675 11.7C18.675 11.7 18.75 11.625 18.675 11.7ZM17.475 15.825C17.4 15.825 17.55 15.9 17.475 15.825V15.825ZM18.3 11.85C18.225 11.7 18.375 12 18.3 11.85V11.85ZM17.175 12.075C16.875 12.075 17.325 12.15 17.175 12.075V12.075ZM16.95 12.225C16.95 12.3 16.95 12.375 16.95 12.225V12.225ZM20.1 12.825C20.1 12.825 20.175 12.825 20.1 12.825V12.825ZM20.1 12.825C19.8 12.675 19.95 12.75 20.1 12.825V12.825ZM23.025 9.82496C22.95 9.89996 22.95 9.89996 23.025 9.82496V9.82496ZM25.95 12.525C25.875 12.6 25.95 12.525 25.95 12.525C25.95 12.6 25.95 12.6 25.95 12.525ZM23.25 9.37495C23.25 9.37495 23.25 9.44995 23.325 9.37495H23.25ZM26.25 12.45C26.175 12.675 26.325 12.3 26.25 12.45V12.45ZM25.275 9.97496C25.2 9.97496 25.275 9.97496 25.275 9.97496C25.275 9.97496 25.275 10.05 25.275 9.97496ZM23.625 9.29995C23.925 9.52495 24.075 9.67495 23.625 9.29995V9.29995ZM24.3 9.74995C24.225 9.74995 24.3 9.67496 24.3 9.74995V9.74995ZM23.175 10.95C23.1 10.95 23.25 10.875 23.175 10.95V10.95ZM23.85 9.82496C23.85 9.82496 23.85 9.89996 23.85 9.82496C23.85 9.82496 23.925 9.89996 23.85 9.82496ZM23.175 10.2C22.65 10.35 23.775 10.65 23.625 10.35C23.475 10.125 23.4 10.125 23.175 10.2ZM24.9 12.15C24.825 12.15 25.05 12.225 24.9 12.15V12.15ZM23.925 9.97496C23.625 9.67496 24 10.05 23.925 9.97496V9.97496ZM24.525 11.625C24.525 11.55 24.525 11.625 24.525 11.625V11.625ZM24.675 12.075C24.675 12.15 24.675 12.15 24.6 12.15C24.525 12.225 24.525 12.225 24.6 12.15C24.6 12.225 24.6 12.225 24.6 12.15C24.675 12.15 24.675 12.075 24.75 12C24.75 12 24.6 12.075 24.6 12.15C24.675 12.15 24.675 12.075 24.675 12.075ZM24.225 9.89995C24.375 9.97495 24.525 9.97495 25.05 10.125C24.825 10.05 24.525 9.97495 24.225 9.89995C24.225 9.82495 24.15 9.82495 24.225 9.89995C24.225 9.89995 24.15 9.82495 24.225 9.89995ZM23.7 9.67495C23.925 9.74995 24.075 9.82496 24.15 9.82496C24 9.82496 23.85 9.74995 23.775 9.74995C23.775 9.74995 23.775 9.74995 23.7 9.67495ZM24 9.82496C23.925 9.82496 24.075 9.74996 24 9.82496V9.82496ZM25.05 10.05C25.125 10.05 25.2 10.05 25.2 10.05C25.125 10.125 25.125 10.05 25.05 10.05ZM22.05 9.52495C21.975 9.52495 21.975 9.52495 22.05 9.52495V9.52495ZM22.875 9.67495C22.575 9.44995 22.425 9.59995 22.05 9.52495H21.975L21.375 9.44996C21.825 9.52496 21.975 9.52495 21.975 9.52495C21.075 9.67495 22.95 9.74995 22.875 9.67495ZM25.125 12.075C25.05 12.15 25.125 12.075 25.125 12.075V12.075ZM22.125 9.44996C22.05 9.44996 22.125 9.44996 22.125 9.44996C22.125 9.44996 22.2 9.44996 22.125 9.44996ZM25.95 9.82496C25.875 9.82496 25.95 9.82496 25.95 9.82496V9.82496ZM25.05 11.175C25.05 11.175 25.125 11.175 25.05 11.175V11.175ZM24.9 16.8C24.825 16.725 24.9 16.725 24.9 16.8C24.825 16.8 24.9 16.8 24.9 16.8ZM30.15 12.675C30.15 12.75 30.75 12.825 30.9 12.675C31.2 12.225 30.375 12.45 30.375 12.375C29.925 12.075 30.15 12.6 30.15 12.675ZM31.575 14.175C31.575 14.1 31.575 14.175 31.575 14.175V14.175ZM31.5 13.725C31.5 13.725 31.5 13.8 31.5 13.725V13.725ZM23.925 22.875C23.85 22.875 24.075 22.95 23.925 22.875V22.875ZM20.475 10.5C20.325 10.575 20.55 10.425 20.475 10.5V10.5ZM26.325 14.4C26.25 14.4 26.175 14.325 26.1 14.325C26.175 14.475 26.175 14.475 26.325 14.4ZM24.975 11.1C24.825 11.1 25.125 11.1 24.975 11.1V11.1ZM27.975 19.65C28.5 21.225 24 22.65 24.3 23.925C24 23.925 24 24 23.775 23.775C23.85 23.85 23.775 23.625 23.775 23.55C23.775 23.475 23.775 23.55 23.775 23.55L23.85 23.475C23.85 23.475 23.775 23.4 23.85 23.4C23.85 23.325 23.775 23.4 23.775 23.4C23.775 23.475 23.775 23.475 23.775 23.475C23.775 23.4 23.775 23.4 23.775 23.475C23.775 23.4 23.775 23.4 23.775 23.4C23.625 23.25 24.3 22.875 24.15 22.575C24.75 22.65 23.925 17.7 24.225 17.775C23.775 17.7 21.6 16.575 21.525 15.45C21.525 15.45 21.45 15.15 21.375 15.225C21.375 15.375 21.825 16.05 21.75 16.125C21.825 16.125 20.475 13.2 20.175 12.375V12.45C20.175 12.45 20.175 12.45 20.175 12.525C20.175 12.525 20.1 12.45 20.1 12.525V12.45C20.175 12.45 20.025 12.15 20.1 12.075C20.025 12.15 20.1 12.3 20.025 12.375C20.1 12.3 20.025 12.15 19.95 12V12.075C19.95 12.15 19.95 12.3 19.95 12.3C19.725 11.925 18.675 11.4 18.6 11.475C18.375 11.625 18 12.225 17.625 12.15C17.625 12.15 17.625 12.15 17.55 12.15C17.55 12.15 17.475 12.15 17.475 12.225C17.55 12.225 17.85 12 18 11.85C18 11.85 18 11.85 18 11.775C18 11.775 17.85 11.7 17.925 11.775C17.55 11.625 16.95 11.4 17.775 10.95C17.925 11.1 19.2 10.725 20.4 10.65C20.4 10.65 20.4 10.8 20.4 10.65C21.3 10.575 22.2 10.65 22.575 11.25V11.325C22.575 11.25 22.575 11.325 22.575 11.325C22.5 11.175 22.425 11.025 22.725 11.025C22.65 10.95 21 10.65 22.125 10.725C21.9 10.65 21.3 10.425 21.75 10.275C21.3 10.425 21.45 10.425 21 10.35C21 10.35 21.075 10.275 21 10.275C21.075 10.275 21.225 9.89995 21.15 9.89995C21.15 9.89995 21.15 9.89996 21.15 9.82496C21.525 9.82496 22.725 10.2 22.875 10.2C22.875 10.35 22.8 10.875 23.1 10.875C22.8 10.875 23.25 11.025 22.65 10.95C23.175 11.325 23.25 11.025 23.25 11.025C23.25 11.025 23.25 11.025 23.25 10.95C23.325 10.95 23.325 10.95 23.4 10.875C23.625 10.8 23.55 11.325 23.55 11.25H23.625C23.55 11.175 23.7 11.1 23.775 11.1C23.4 11.25 23.85 10.275 23.775 10.2C23.775 10.125 23.85 10.275 23.775 10.2C23.85 10.2 24.225 10.275 24.15 10.275C24.15 10.275 24.15 10.275 24.15 10.35C24 11.025 23.925 10.875 24.225 11.25C23.775 11.625 24.375 12.6 24.6 13.35C24.675 13.35 24.75 13.35 24.6 13.35C24.6 13.425 24.6 13.425 24.6 13.5C24.6 13.575 24.6 13.575 24.6 13.65C24.675 13.65 24.675 13.65 24.675 13.725C24.75 13.65 24.675 13.725 24.75 13.725C24.675 13.5 24.75 13.35 24.825 13.125C24.75 13.05 24.825 13.125 24.825 13.125C24.975 12.9 25.05 12.675 24.975 12.375C24.975 12.375 26.4 13.275 26.175 12.75C26.325 13.125 27.075 14.325 27 14.4C26.925 14.475 27 14.4 27 14.475L26.925 14.55C26.85 14.55 26.85 14.55 26.775 14.625C26.775 14.625 26.85 14.55 26.775 14.55C26.775 14.55 26.475 14.475 26.4 14.475C26.25 14.25 26.55 14.55 26.4 14.4C26.4 14.4 26.625 14.1 26.7 14.025C26.475 14.1 26.25 14.025 26.1 14.025C26.1 14.025 26.1 14.025 26.175 14.1C26.4 14.25 26.1 14.025 26.1 14.025C25.875 14.025 25.725 14.1 25.575 14.175C25.95 13.875 26.025 14.25 26.1 14.4C25.2 14.175 24.975 15.9 24.3 16.425C24 16.65 23.775 16.65 23.7 16.5C23.7 16.575 23.7 16.65 23.7 16.65C24 18.075 24.375 17.025 24.975 17.625C24.975 17.625 24.825 17.925 24.9 17.925C25.125 17.85 27.6 18.45 27.975 19.65C28.05 19.725 28.05 19.725 27.975 19.65ZM25.575 14.1C25.575 14.1 25.65 14.1 25.575 14.1V14.1ZM24.45 14.55C24 14.7 24.9 14.4 24.45 14.55V14.55ZM24.75 15.375C24.75 15.375 24.825 15.375 24.75 15.375V15.375ZM24.75 15.3C24.75 15.3 24.75 15.375 24.75 15.3V15.3ZM24.9 14.925C24.9 15 24.975 14.925 24.9 14.925V14.925ZM24.825 15.225C24.9 14.925 24.9 15 24.825 15.225V15.225ZM24.675 14.55C24.6 14.55 24.6 14.55 24.675 14.55V14.55ZM24.375 14.175C23.85 14.025 24.975 14.55 24.375 14.175V14.175ZM23.775 11.85C23.775 11.85 23.85 11.85 23.775 11.85V11.85ZM20.025 12.3C19.95 12.3 20.025 12.3 20.025 12.3C19.95 12.3 19.95 12.3 20.025 12.3C19.95 12.3 19.95 12.3 20.025 12.3ZM20.775 13.425C20.475 13.2 21 13.5 20.775 13.425V13.425ZM21.975 11.85C21.3 12.075 21.975 11.85 21.975 11.85V11.85ZM22.5 11.025C22.5 10.95 22.575 11.025 22.5 11.025V11.025ZM23.175 13.2C22.95 12.75 23.25 13.425 23.175 13.2V13.2ZM23.25 13.425C23.175 13.2 23.175 13.575 23.25 13.425V13.425ZM24.15 17.775C24.15 17.775 24.225 17.775 24.15 17.775V17.775ZM23.85 23.625C23.775 23.625 23.85 23.625 23.85 23.625V23.625ZM23.925 23.775C23.925 23.7 23.925 23.85 23.925 23.775V23.775ZM24.075 23.925C24 23.85 24.075 23.925 24.075 23.925V23.925ZM26.55 19.05C26.55 19.05 26.625 19.05 26.55 19.05V19.05ZM26.625 18.975C26.475 18.975 26.775 18.975 26.625 18.975V18.975ZM22.875 10.125C22.95 10.125 22.95 10.125 22.875 10.125V10.125ZM20.4 10.5C20.25 10.5 20.325 10.425 20.4 10.5V10.5ZM25.05 10.575C25.05 10.575 25.125 10.575 25.05 10.575V10.575ZM24.75 11.025C24.675 11.025 24.6 11.025 24.525 11.1C24.225 10.8 24.075 10.575 24.675 10.35C24.525 10.425 24.45 10.5 24.525 10.65C24.975 10.65 26.55 10.875 26.625 11.775V11.85C26.625 11.85 26.475 11.925 26.55 11.925C26.475 11.925 26.55 11.925 26.55 11.925C26.55 11.925 26.4 12 26.475 12C26.4 11.925 26.175 11.7 26.175 11.7V11.775C26.4 11.85 26.325 12.225 26.4 12.225C26.325 12.225 26.325 12.225 26.4 12.3C26.175 12.15 26.025 12.15 26.25 12.375C26.1 12.225 25.275 11.925 25.2 11.85C25.125 11.7 25.35 11.625 25.425 11.475C25.275 11.475 25.35 11.475 25.425 11.475C25.5 11.4 25.575 11.25 25.425 11.175C25.2 11.175 25.05 11.1 24.75 11.025C24.9 11.025 24.75 11.025 24.75 11.025ZM25.8 11.1C25.8 11.1 25.875 11.025 25.8 11.1V11.1ZM25.95 12.15C25.95 12.075 25.95 12.225 25.95 12.15V12.15ZM25.8 11.025C25.875 11.025 25.875 11.025 25.8 11.025V11.025ZM25.725 11.025C25.8 11.025 25.875 10.95 25.725 11.025V11.025ZM24.6 10.95C24.45 10.95 24.675 11.025 24.6 10.95V10.95ZM24.6 10.725C24.525 10.725 24.75 10.8 24.6 10.725V10.725ZM26.4 14.475C26.325 14.475 26.475 14.4 26.4 14.475C26.475 14.4 26.325 14.4 26.4 14.4C26.4 14.4 26.4 14.4 26.4 14.325L26.325 14.4C26.325 14.4 26.325 14.4 26.4 14.475C26.4 14.475 26.325 14.475 26.4 14.475ZM24.6 10.35C24.675 10.35 24.675 10.35 24.6 10.35C24.6 10.35 24.675 10.35 24.6 10.35ZM24.375 11.325C24.375 11.4 24.45 11.1 24.375 11.325C24.45 11.25 24.525 11.175 24.525 11.1L24.45 11.025C24.3 11.025 24.225 11.1 24.15 11.175C24.15 11.25 24.225 11.25 24.225 11.325C24.375 11.325 24.375 11.325 24.375 11.325ZM25.05 10.575C25.125 10.575 25.425 10.875 25.05 10.575V10.575ZM26.1 14.4C26.1 14.325 26.1 14.4 26.1 14.4V14.4ZM25.5 10.8C25.425 10.8 25.5 10.725 25.5 10.8V10.8ZM24.375 14.175C24.3 14.175 24.375 14.175 24.375 14.175V14.175ZM24.075 11.55C24.15 11.55 24.225 11.7 24.075 11.55V11.55ZM25.725 11.025C25.8 11.025 25.8 11.025 25.725 11.025V11.025ZM25.575 17.1C25.5 17.1 25.575 17.175 25.575 17.1V17.1ZM25.575 17.1C25.35 17.025 25.425 17.1 25.575 17.1V17.1ZM25.2 17.025C25.2 17.025 25.275 17.025 25.2 17.025V17.025ZM25.2 17.025C24.525 16.8 24.975 16.95 25.2 17.025V17.025ZM24.525 17.025C24.3 16.8 24.6 17.1 24.525 17.025V17.025ZM27.45 11.175C27.45 11.175 27.525 11.175 27.45 11.175V11.175ZM26.025 9.82496C26.025 9.82496 26.1 9.89996 26.025 9.82496C26.025 9.82496 26.1 9.82496 26.025 9.82496ZM31.5 13.725C31.425 13.725 31.5 13.725 31.5 13.725V13.725Z" fill="#36D7B7"/>
<path d="M23.7749 35.25C24.1891 35.25 24.5249 34.9142 24.5249 34.5C24.5249 34.0858 24.1891 33.75 23.7749 33.75C23.3607 33.75 23.0249 34.0858 23.0249 34.5C23.0249 34.9142 23.3607 35.25 23.7749 35.25Z" fill="#6D6E71"/>
<path d="M36.9751 14.325C37.3893 14.325 37.7251 13.9892 37.7251 13.575C37.7251 13.1607 37.3893 12.825 36.9751 12.825C36.5609 12.825 36.2251 13.1607 36.2251 13.575C36.2251 13.9892 36.5609 14.325 36.9751 14.325Z" stroke="#F5AB35" stroke-miterlimit="10"/>
<path d="M15.3 30.3C15.7143 30.3 16.05 29.9643 16.05 29.55C16.05 29.1358 15.7143 28.8 15.3 28.8C14.8858 28.8 14.55 29.1358 14.55 29.55C14.55 29.9643 14.8858 30.3 15.3 30.3Z" stroke="#F5AB35" stroke-miterlimit="10"/>
<path d="M35.3999 29.55C35.8141 29.55 36.1499 29.2143 36.1499 28.8C36.1499 28.3858 35.8141 28.05 35.3999 28.05C34.9857 28.05 34.6499 28.3858 34.6499 28.8C34.6499 29.2143 34.9857 29.55 35.3999 29.55Z" stroke="#414042" stroke-miterlimit="10"/>
<path d="M12.9751 18.5249C13.3893 18.5249 13.7251 18.1891 13.7251 17.7749C13.7251 17.3607 13.3893 17.0249 12.9751 17.0249C12.5609 17.0249 12.2251 17.3607 12.2251 17.7749C12.2251 18.1891 12.5609 18.5249 12.9751 18.5249Z" stroke="#414042" stroke-miterlimit="10"/>
</g>
</g>
<defs>
<clipPath id="clip0_12165_23455">
<rect width="48" height="48" fill="white"/>
</clipPath>
<clipPath id="clip1_12165_23455">
<rect width="48" height="48" fill="white"/>
</clipPath>
</defs>
</svg>
