<svg width="64" height="64" viewBox="0 0 64 64" fill="none" xmlns="http://www.w3.org/2000/svg">
<path d="M32 61.8499C48.4857 61.8499 61.85 48.4856 61.85 31.9999C61.85 15.5142 48.4857 2.1499 32 2.1499C15.5143 2.1499 2.15002 15.5142 2.15002 31.9999C2.15002 48.4856 15.5143 61.8499 32 61.8499Z" fill="#382B73"/>
<path d="M36.8607 46.5854C36.8607 43.9051 34.6799 41.7246 31.9999 41.7246C29.3199 41.7246 27.1392 43.9054 27.1392 46.5854C27.1392 49.2654 29.3199 51.4461 31.9999 51.4461C34.6799 51.4461 36.8607 49.2656 36.8607 46.5854ZM28.3892 46.5854C28.3892 44.5944 30.0089 42.9746 31.9999 42.9746C33.9909 42.9746 35.6107 44.5944 35.6107 46.5854C35.6107 48.5764 33.9909 50.1961 31.9999 50.1961C30.0089 50.1961 28.3892 48.5764 28.3892 46.5854Z" fill="#291B4A"/>
<path d="M32 46.0554C32.3453 46.0554 32.6251 45.7757 32.6251 45.4304C32.6251 45.0852 32.3453 44.8054 32 44.8054H30.441C30.0958 44.8054 29.816 45.0852 29.816 45.4304C29.816 45.7757 30.0958 46.0554 30.441 46.0554H32Z" fill="#291B4A"/>
<path d="M33.5589 48.2788C33.9042 48.2788 34.1839 47.9991 34.1839 47.6538C34.1839 47.3086 33.9042 47.0288 33.5589 47.0288H30.4407C30.0954 47.0288 29.8157 47.3086 29.8157 47.6538C29.8157 47.9991 30.0954 48.2788 30.4407 48.2788H33.5589Z" fill="#291B4A"/>
<path d="M50.2597 51.4461C51.0527 51.4461 51.6979 50.8009 51.6979 50.0079V43.1626C51.6979 42.3696 51.0527 41.7244 50.2597 41.7244H43.4147C42.6214 41.7244 41.9762 42.3696 41.9762 43.1626V50.0079C41.9762 50.8009 42.6214 51.4461 43.4147 51.4461H50.2597ZM43.2262 50.0079V43.1626C43.2262 43.0589 43.3107 42.9744 43.4147 42.9744H50.2597C50.3634 42.9744 50.4479 43.0589 50.4479 43.1626V50.0079C50.4479 50.1116 50.3634 50.1961 50.2597 50.1961H43.4147C43.3107 50.1961 43.2262 50.1116 43.2262 50.0079Z" fill="#291B4A"/>
<path d="M46.8372 46.0554C47.1824 46.0554 47.4622 45.7757 47.4622 45.4304C47.4622 45.0852 47.1824 44.8054 46.8372 44.8054H45.2782C44.9329 44.8054 44.6532 45.0852 44.6532 45.4304C44.6532 45.7757 44.9329 46.0554 45.2782 46.0554H46.8372Z" fill="#291B4A"/>
<path d="M48.3961 48.2788C48.7413 48.2788 49.0211 47.9991 49.0211 47.6538C49.0211 47.3086 48.7413 47.0288 48.3961 47.0288H45.2778C44.9326 47.0288 44.6528 47.3086 44.6528 47.6538C44.6528 47.9991 44.9326 48.2788 45.2778 48.2788H48.3961Z" fill="#291B4A"/>
<path d="M20.5853 51.4461C21.3785 51.4461 22.0238 50.8009 22.0238 50.0079V43.1626C22.0238 42.3696 21.3785 41.7244 20.5853 41.7244H13.7403C12.9473 41.7244 12.302 42.3696 12.302 43.1626V50.0079C12.302 50.8009 12.9473 51.4461 13.7403 51.4461H20.5853ZM13.552 50.0079V43.1626C13.552 43.0589 13.6365 42.9744 13.7403 42.9744H20.5853C20.6893 42.9744 20.7738 43.0589 20.7738 43.1626V50.0079C20.7738 50.1116 20.6893 50.1961 20.5853 50.1961H13.7403C13.6365 50.1961 13.552 50.1116 13.552 50.0079Z" fill="#291B4A"/>
<path d="M17.1626 46.0554C17.5079 46.0554 17.7876 45.7757 17.7876 45.4304C17.7876 45.0852 17.5079 44.8054 17.1626 44.8054H15.6036C15.2584 44.8054 14.9786 45.0852 14.9786 45.4304C14.9786 45.7757 15.2584 46.0554 15.6036 46.0554H17.1626Z" fill="#291B4A"/>
<path d="M18.7219 48.2788C19.0671 48.2788 19.3469 47.9991 19.3469 47.6538C19.3469 47.3086 19.0671 47.0288 18.7219 47.0288H15.6036C15.2584 47.0288 14.9786 47.3086 14.9786 47.6538C14.9786 47.9991 15.2584 48.2788 15.6036 48.2788H18.7219Z" fill="#291B4A"/>
<path d="M35.4224 38.5411C36.2154 38.5411 36.8607 37.8958 36.8607 37.1028V30.2576C36.8607 29.4646 36.2154 28.8193 35.4224 28.8193H28.5774C27.7844 28.8193 27.1392 29.4646 27.1392 30.2576V37.1028C27.1392 37.8958 27.7844 38.5411 28.5774 38.5411H35.4224ZM28.3892 37.1028V30.2576C28.3892 30.1538 28.4737 30.0693 28.5774 30.0693H35.4227C35.5264 30.0693 35.6109 30.1538 35.6109 30.2576V37.1028C35.6109 37.2066 35.5264 37.2911 35.4227 37.2911H28.5774C28.4737 37.2911 28.3892 37.2066 28.3892 37.1028Z" fill="#291B4A"/>
<path d="M32 33.1504C32.3453 33.1504 32.6251 32.8706 32.6251 32.5254C32.6251 32.1801 32.3453 31.9004 32 31.9004H30.441C30.0958 31.9004 29.816 32.1801 29.816 32.5254C29.816 32.8706 30.0958 33.1504 30.441 33.1504H32Z" fill="#291B4A"/>
<path d="M33.5589 35.3738C33.9042 35.3738 34.1839 35.094 34.1839 34.7488C34.1839 34.4035 33.9042 34.1238 33.5589 34.1238H30.4407C30.0954 34.1238 29.8157 34.4035 29.8157 34.7488C29.8157 35.094 30.0954 35.3738 30.4407 35.3738H33.5589Z" fill="#291B4A"/>
<path d="M51.6981 33.6803C51.6981 31.0001 49.5173 28.8196 46.8373 28.8196C44.1573 28.8196 41.9766 31.0003 41.9766 33.6803C41.9766 36.3603 44.1573 38.5411 46.8373 38.5411C49.5173 38.5411 51.6981 36.3603 51.6981 33.6803ZM43.2263 33.6803C43.2263 31.6893 44.8461 30.0696 46.8371 30.0696C48.8281 30.0696 50.4478 31.6893 50.4478 33.6803C50.4478 35.6713 48.8281 37.2911 46.8371 37.2911C44.8461 37.2911 43.2263 35.6713 43.2263 33.6803Z" fill="#291B4A"/>
<path d="M46.8372 33.1504C47.1824 33.1504 47.4622 32.8706 47.4622 32.5254C47.4622 32.1801 47.1824 31.9004 46.8372 31.9004H45.2782C44.9329 31.9004 44.6532 32.1801 44.6532 32.5254C44.6532 32.8706 44.9329 33.1504 45.2782 33.1504H46.8372Z" fill="#291B4A"/>
<path d="M48.3961 35.3738C48.7413 35.3738 49.0211 35.094 49.0211 34.7488C49.0211 34.4035 48.7413 34.1238 48.3961 34.1238H45.2778C44.9326 34.1238 44.6528 34.4035 44.6528 34.7488C44.6528 35.094 44.9326 35.3738 45.2778 35.3738H48.3961Z" fill="#291B4A"/>
<path d="M22.0255 33.6803C22.0255 31.0001 19.8447 28.8196 17.1647 28.8196C14.4847 28.8196 12.304 31.0003 12.304 33.6803C12.304 36.3603 14.4847 38.5411 17.1647 38.5411C19.8447 38.5411 22.0255 36.3603 22.0255 33.6803ZM13.5537 33.6803C13.5537 31.6893 15.1735 30.0696 17.1645 30.0696C19.1555 30.0696 20.7752 31.6893 20.7752 33.6803C20.7752 35.6713 19.1555 37.2911 17.1645 37.2911C15.1735 37.2911 13.5537 35.6713 13.5537 33.6803Z" fill="#291B4A"/>
<path d="M17.1626 33.1504C17.5079 33.1504 17.7876 32.8706 17.7876 32.5254C17.7876 32.1801 17.5079 31.9004 17.1626 31.9004H15.6036C15.2584 31.9004 14.9786 32.1801 14.9786 32.5254C14.9786 32.8706 15.2584 33.1504 15.6036 33.1504H17.1626Z" fill="#291B4A"/>
<path d="M18.7219 35.3738C19.0671 35.3738 19.3469 35.094 19.3469 34.7488C19.3469 34.4035 19.0671 34.1238 18.7219 34.1238H15.6036C15.2584 34.1238 14.9786 34.4035 14.9786 34.7488C14.9786 35.094 15.2584 35.3738 15.6036 35.3738H18.7219Z" fill="#291B4A"/>
<path d="M23.9512 15.277V16.8398C23.9512 17.4388 24.3562 17.962 24.9364 18.112L26.2342 18.4465L25.5522 19.6018C25.2484 20.118 25.3324 20.7743 25.7557 21.1973L26.8604 22.302C27.2837 22.7258 27.9404 22.8095 28.4572 22.5053L29.6114 21.8238L29.9462 23.1223C30.0962 23.702 30.6192 24.107 31.2184 24.107H31.3747V25.7993H27.3604C25.5092 25.7993 24.0029 27.3053 24.0029 29.1565V37.9158C24.0029 38.261 24.2827 38.5408 24.6279 38.5408C24.9732 38.5408 25.2529 38.261 25.2529 37.9158V29.1565C25.2529 27.9948 26.1982 27.0493 27.3604 27.0493H36.6387C37.8007 27.0493 38.7462 27.9945 38.7462 29.1565V37.9158C38.7462 38.261 39.0259 38.5408 39.3712 38.5408C39.7164 38.5408 39.9962 38.261 39.9962 37.9158V29.1565C39.9962 27.3055 38.4902 25.7993 36.6387 25.7993H32.6249V24.107H32.7812C33.3799 24.107 33.9029 23.7023 34.0537 23.1218L34.3882 21.8238L35.5429 22.5055C36.0592 22.8093 36.7154 22.726 37.1389 22.3023L38.2437 21.1975C38.6674 20.7743 38.7512 20.118 38.4469 19.6008L37.7654 18.4465L39.0639 18.1118C39.6437 17.9618 40.0487 17.439 40.0487 16.8398V15.277C40.0487 14.6783 39.6439 14.1553 39.0634 14.0045L37.7654 13.67L38.4469 12.5155C38.7512 11.9995 38.6679 11.343 38.2439 10.9193L37.1387 9.81403C36.7154 9.39103 36.0589 9.30753 35.5424 9.61128L34.3882 10.2928L34.0534 8.99378C33.9029 8.41428 33.3799 8.00928 32.7812 8.00928H31.2187C30.6197 8.00928 30.0964 8.41428 29.9464 8.99403C29.9462 8.99428 29.9462 8.99428 29.9462 8.99453L29.6117 10.2925L28.4569 9.61078C27.9412 9.30678 27.2847 9.39028 26.8609 9.81403L25.7559 10.919C25.3324 11.3423 25.2489 11.9985 25.5527 12.5155L26.2342 13.6698L24.9357 14.0045C24.3559 14.155 23.9512 14.6783 23.9512 15.277ZM25.2012 15.277C25.2012 15.2478 25.2209 15.222 25.2484 15.215L27.3509 14.6733C27.5412 14.6243 27.6972 14.4888 27.7724 14.3073C27.8477 14.1255 27.8332 13.9195 27.7334 13.7503L26.6299 11.881C26.6152 11.8555 26.6192 11.8238 26.6399 11.8028L27.7449 10.6978C27.7657 10.677 27.7972 10.6728 27.8224 10.6878L29.6922 11.7913C29.8612 11.8905 30.0674 11.9058 30.2492 11.8303C30.4307 11.755 30.5662 11.599 30.6152 11.4088L31.1572 9.30653C31.1644 9.27853 31.1899 9.25903 31.2192 9.25903H32.7817C32.8109 9.25903 32.8367 9.27878 32.8437 9.30628L33.3854 11.4088C33.4344 11.599 33.5699 11.755 33.7514 11.8303C33.9332 11.9055 34.1394 11.8908 34.3084 11.7913L36.1779 10.688C36.2029 10.6735 36.2354 10.6773 36.2559 10.6978L37.3609 11.8028C37.3814 11.8235 37.3857 11.8553 37.3709 11.8803L36.2674 13.75C36.1677 13.9193 36.1532 14.1253 36.2284 14.307C36.3037 14.4885 36.4597 14.624 36.6499 14.673L38.7514 15.2145C38.7799 15.2218 38.7997 15.2475 38.7997 15.2768V16.8395C38.7997 16.8685 38.7799 16.8943 38.7524 16.9013L36.6499 17.443C36.4597 17.492 36.3037 17.6275 36.2284 17.809C36.1532 17.9908 36.1677 18.1968 36.2674 18.366L37.3707 20.2355C37.3857 20.2608 37.3817 20.2928 37.3609 20.3135L36.2559 21.4185C36.2352 21.439 36.2032 21.4435 36.1784 21.4288L34.3087 20.325C34.1394 20.2255 33.9332 20.2108 33.7517 20.286C33.5702 20.3613 33.4347 20.5173 33.3857 20.7075L32.8442 22.8093C32.8369 22.8378 32.8112 22.8575 32.7819 22.8575H31.2194C31.1902 22.8575 31.1644 22.8378 31.1574 22.8103L30.6154 20.7075C30.5664 20.5173 30.4309 20.3613 30.2492 20.286C30.1724 20.254 30.0912 20.2385 30.0102 20.2385C29.8999 20.2385 29.7899 20.2678 29.6924 20.3253L27.8232 21.4288C27.7984 21.4438 27.7659 21.4398 27.7452 21.4188L26.6399 20.3135C26.6194 20.293 26.6154 20.2608 26.6299 20.2363L27.7337 18.3665C27.8334 18.1973 27.8479 17.9913 27.7727 17.8095C27.6974 17.628 27.5414 17.4925 27.3512 17.4435L25.2492 16.9018C25.2209 16.8948 25.2014 16.869 25.2014 16.84V15.277H25.2012Z" fill="#291B4A"/>
<path d="M35.1523 16.0583C35.1523 14.32 33.7383 12.906 32 12.906C30.2618 12.906 28.8478 14.32 28.8478 16.0583C28.8478 17.7965 30.2618 19.2108 32 19.2108C33.7383 19.2108 35.1523 17.7968 35.1523 16.0583ZM30.0978 16.0583C30.0978 15.0093 30.951 14.156 32 14.156C33.049 14.156 33.9023 15.0093 33.9023 16.0583C33.9023 17.1073 33.049 17.9605 32 17.9605C30.951 17.9605 30.0978 17.1075 30.0978 16.0583Z" fill="#291B4A"/>
<path d="M39.3714 37.5413C39.7167 37.5413 39.9964 37.2615 39.9964 36.9163V28.1571C39.9964 26.3061 38.4904 24.7998 36.6389 24.7998H27.3607C25.5094 24.7998 24.0032 26.3058 24.0032 28.1571V36.9163C24.0032 37.2615 24.2829 37.5413 24.6282 37.5413C24.9734 37.5413 25.2532 37.2615 25.2532 36.9163V28.1571C25.2532 26.9953 26.1984 26.0498 27.3607 26.0498H36.6389C37.8009 26.0498 38.7464 26.9951 38.7464 28.1571V36.9163C38.7464 37.2615 39.0262 37.5413 39.3714 37.5413Z" fill="#ED9ABC"/>
<path d="M32.625 25.4249V22.4829C32.625 22.1377 32.3452 21.8579 32 21.8579C31.6547 21.8579 31.375 22.1377 31.375 22.4829V25.4252C31.375 25.7704 31.6547 26.0502 32 26.0502C32.3452 26.0502 32.625 25.7702 32.625 25.4249Z" fill="#ED9ABC"/>
<path d="M36.8607 45.5873C36.8607 42.9071 34.6799 40.7266 31.9999 40.7266C29.3199 40.7266 27.1392 42.9073 27.1392 45.5873C27.1392 48.2673 29.3199 50.4481 31.9999 50.4481C34.6799 50.4481 36.8607 48.2676 36.8607 45.5873ZM28.3892 45.5873C28.3892 43.5963 30.0089 41.9766 31.9999 41.9766C33.9909 41.9766 35.6107 43.5963 35.6107 45.5873C35.6107 47.5783 33.9909 49.1981 31.9999 49.1981C30.0089 49.1981 28.3892 47.5783 28.3892 45.5873Z" fill="#65C1D6"/>
<path d="M31.9998 45.0559C32.3451 45.0559 32.6248 44.7762 32.6248 44.4309C32.6248 44.0857 32.3451 43.8059 31.9998 43.8059H30.4408C30.0955 43.8059 29.8158 44.0857 29.8158 44.4309C29.8158 44.7762 30.0955 45.0559 30.4408 45.0559H31.9998Z" fill="#65C1D6"/>
<path d="M33.5589 47.2791C33.9042 47.2791 34.1839 46.9993 34.1839 46.6541C34.1839 46.3088 33.9042 46.0291 33.5589 46.0291H30.4407C30.0954 46.0291 29.8157 46.3088 29.8157 46.6541C29.8157 46.9993 30.0954 47.2791 30.4407 47.2791H33.5589Z" fill="#65C1D6"/>
<path d="M50.2597 50.4464C51.0527 50.4464 51.6979 49.8011 51.6979 49.0081V42.1629C51.6979 41.3699 51.0527 40.7246 50.2597 40.7246H43.4147C42.6214 40.7246 41.9762 41.3699 41.9762 42.1629V49.0081C41.9762 49.8011 42.6214 50.4464 43.4147 50.4464H50.2597ZM43.2262 49.0081V42.1629C43.2262 42.0591 43.3107 41.9746 43.4147 41.9746H50.2597C50.3634 41.9746 50.4479 42.0591 50.4479 42.1629V49.0081C50.4479 49.1119 50.3634 49.1964 50.2597 49.1964H43.4147C43.3107 49.1964 43.2262 49.1119 43.2262 49.0081Z" fill="#65C1D6"/>
<path d="M46.8372 45.0559C47.1824 45.0559 47.4622 44.7762 47.4622 44.4309C47.4622 44.0857 47.1824 43.8059 46.8372 43.8059H45.2782C44.9329 43.8059 44.6532 44.0857 44.6532 44.4309C44.6532 44.7762 44.9329 45.0559 45.2782 45.0559H46.8372Z" fill="#65C1D6"/>
<path d="M48.3961 47.2791C48.7413 47.2791 49.0211 46.9993 49.0211 46.6541C49.0211 46.3088 48.7413 46.0291 48.3961 46.0291H45.2778C44.9326 46.0291 44.6528 46.3088 44.6528 46.6541C44.6528 46.9993 44.9326 47.2791 45.2778 47.2791H48.3961Z" fill="#65C1D6"/>
<path d="M20.5853 50.4464C21.3785 50.4464 22.0238 49.8011 22.0238 49.0081V42.1629C22.0238 41.3699 21.3785 40.7246 20.5853 40.7246H13.7403C12.9473 40.7246 12.302 41.3699 12.302 42.1629V49.0081C12.302 49.8011 12.9473 50.4464 13.7403 50.4464H20.5853ZM13.552 49.0081V42.1629C13.552 42.0591 13.6365 41.9746 13.7403 41.9746H20.5853C20.6893 41.9746 20.7738 42.0591 20.7738 42.1629V49.0081C20.7738 49.1119 20.6893 49.1964 20.5853 49.1964H13.7403C13.6365 49.1964 13.552 49.1119 13.552 49.0081Z" fill="#65C1D6"/>
<path d="M17.1626 45.0559C17.5079 45.0559 17.7876 44.7762 17.7876 44.4309C17.7876 44.0857 17.5079 43.8059 17.1626 43.8059H15.6036C15.2584 43.8059 14.9786 44.0857 14.9786 44.4309C14.9786 44.7762 15.2584 45.0559 15.6036 45.0559H17.1626Z" fill="#65C1D6"/>
<path d="M18.7219 47.2791C19.0671 47.2791 19.3469 46.9993 19.3469 46.6541C19.3469 46.3088 19.0671 46.0291 18.7219 46.0291H15.6036C15.2584 46.0291 14.9786 46.3088 14.9786 46.6541C14.9786 46.9993 15.2584 47.2791 15.6036 47.2791H18.7219Z" fill="#65C1D6"/>
<path d="M35.4224 37.5413C36.2154 37.5413 36.8607 36.8961 36.8607 36.1031V29.2578C36.8607 28.4648 36.2154 27.8196 35.4224 27.8196H28.5774C27.7844 27.8196 27.1392 28.4648 27.1392 29.2578V36.1031C27.1392 36.8961 27.7844 37.5413 28.5774 37.5413H35.4224ZM28.3892 36.1031V29.2578C28.3892 29.1541 28.4737 29.0696 28.5774 29.0696H35.4227C35.5264 29.0696 35.6109 29.1541 35.6109 29.2578V36.1031C35.6109 36.2068 35.5264 36.2913 35.4227 36.2913H28.5774C28.4737 36.2913 28.3892 36.2068 28.3892 36.1031Z" fill="#65C1D6"/>
<path d="M31.9998 32.1509C32.3451 32.1509 32.6248 31.8711 32.6248 31.5259C32.6248 31.1806 32.3451 30.9009 31.9998 30.9009H30.4408C30.0955 30.9009 29.8158 31.1806 29.8158 31.5259C29.8158 31.8711 30.0955 32.1509 30.4408 32.1509H31.9998Z" fill="#65C1D6"/>
<path d="M33.5589 34.374C33.9042 34.374 34.1839 34.0943 34.1839 33.749C34.1839 33.4038 33.9042 33.124 33.5589 33.124H30.4407C30.0954 33.124 29.8157 33.4038 29.8157 33.749C29.8157 34.0943 30.0954 34.374 30.4407 34.374H33.5589Z" fill="#65C1D6"/>
<path d="M51.6981 32.6806C51.6981 30.0003 49.5173 27.8198 46.8373 27.8198C44.1573 27.8198 41.9766 30.0006 41.9766 32.6806C41.9766 35.3606 44.1573 37.5413 46.8373 37.5413C49.5173 37.5413 51.6981 35.3606 51.6981 32.6806ZM43.2263 32.6806C43.2263 30.6896 44.8461 29.0698 46.8371 29.0698C48.8281 29.0698 50.4478 30.6896 50.4478 32.6806C50.4478 34.6716 48.8281 36.2913 46.8371 36.2913C44.8461 36.2913 43.2263 34.6716 43.2263 32.6806Z" fill="#65C1D6"/>
<path d="M46.8372 32.1509C47.1824 32.1509 47.4622 31.8711 47.4622 31.5259C47.4622 31.1806 47.1824 30.9009 46.8372 30.9009H45.2782C44.9329 30.9009 44.6532 31.1806 44.6532 31.5259C44.6532 31.8711 44.9329 32.1509 45.2782 32.1509H46.8372Z" fill="#65C1D6"/>
<path d="M48.3963 34.374C48.7416 34.374 49.0213 34.0943 49.0213 33.749C49.0213 33.4038 48.7416 33.124 48.3963 33.124H45.2781C44.9328 33.124 44.6531 33.4038 44.6531 33.749C44.6531 34.0943 44.9328 34.374 45.2781 34.374H48.3963Z" fill="#65C1D6"/>
<path d="M22.0255 32.6806C22.0255 30.0003 19.8447 27.8198 17.1647 27.8198C14.4847 27.8198 12.304 30.0006 12.304 32.6806C12.304 35.3606 14.4847 37.5413 17.1647 37.5413C19.8447 37.5413 22.0255 35.3606 22.0255 32.6806ZM13.5537 32.6806C13.5537 30.6896 15.1735 29.0698 17.1645 29.0698C19.1555 29.0698 20.7752 30.6896 20.7752 32.6806C20.7752 34.6716 19.1555 36.2913 17.1645 36.2913C15.1735 36.2913 13.5537 34.6716 13.5537 32.6806Z" fill="#65C1D6"/>
<path d="M17.1626 32.1509C17.5079 32.1509 17.7876 31.8711 17.7876 31.5259C17.7876 31.1806 17.5079 30.9009 17.1626 30.9009H15.6036C15.2584 30.9009 14.9786 31.1806 14.9786 31.5259C14.9786 31.8711 15.2584 32.1509 15.6036 32.1509H17.1626Z" fill="#65C1D6"/>
<path d="M18.7219 34.374C19.0671 34.374 19.3469 34.0943 19.3469 33.749C19.3469 33.4038 19.0671 33.124 18.7219 33.124H15.6036C15.2584 33.124 14.9786 33.4038 14.9786 33.749C14.9786 34.0943 15.2584 34.374 15.6036 34.374H18.7219Z" fill="#65C1D6"/>
<path d="M23.9512 14.2773V15.84C23.9512 16.439 24.3562 16.9623 24.9364 17.1123L26.2342 17.4468L25.5522 18.602C25.2484 19.1183 25.3324 19.7745 25.7557 20.1975L26.8604 21.3023C27.2837 21.726 27.9404 21.8098 28.4572 21.5055L29.6114 20.824L29.9462 22.1225C30.0962 22.7023 30.6192 23.1073 31.2184 23.1073H32.7809C33.3797 23.1073 33.9027 22.7025 34.0534 22.122L34.3879 20.824L35.5427 21.5058C36.0589 21.8095 36.7152 21.7263 37.1387 21.3025L38.2434 20.1978C38.6672 19.7745 38.7509 19.1183 38.4467 18.601L37.7652 17.4468L39.0637 17.112C39.6434 16.962 40.0484 16.4393 40.0484 15.84V14.2773C40.0484 13.6785 39.6437 13.1555 39.0632 13.0048L37.7652 12.6703L38.4467 11.5158C38.7509 10.9998 38.6677 10.3433 38.2437 9.91952L37.1384 8.81427C36.7152 8.39127 36.0587 8.30777 35.5422 8.61152L34.3879 9.29302L34.0532 7.99402C33.9027 7.41452 33.3797 7.00952 32.7809 7.00952H31.2184C30.6194 7.00952 30.0962 7.41452 29.9462 7.99427C29.9459 7.99452 29.9459 7.99452 29.9459 7.99477L29.6114 9.29277L28.4567 8.61102C27.9409 8.30702 27.2844 8.39027 26.8607 8.81427L25.7557 9.91927C25.3322 10.3425 25.2487 10.9988 25.5524 11.5158L26.2339 12.67L24.9354 13.0048C24.3559 13.1553 23.9512 13.6785 23.9512 14.2773ZM25.2012 14.2773C25.2012 14.248 25.2209 14.2223 25.2484 14.2153L27.3509 13.6735C27.5412 13.6245 27.6972 13.489 27.7724 13.3075C27.8477 13.1258 27.8332 12.9198 27.7334 12.7505L26.6299 10.8813C26.6152 10.8558 26.6192 10.824 26.6399 10.803L27.7449 9.69802C27.7657 9.67727 27.7972 9.67327 27.8224 9.68802L29.6922 10.7915C29.8612 10.8908 30.0674 10.906 30.2492 10.8305C30.4307 10.7553 30.5662 10.5993 30.6152 10.409L31.1572 8.30677C31.1644 8.27877 31.1899 8.25927 31.2192 8.25927H32.7817C32.8109 8.25927 32.8367 8.27902 32.8437 8.30652L33.3854 10.409C33.4344 10.5993 33.5699 10.7553 33.7514 10.8305C33.9332 10.9058 34.1394 10.891 34.3084 10.7915L36.1779 9.68827C36.2029 9.67402 36.2354 9.67752 36.2559 9.69802L37.3609 10.803C37.3814 10.8238 37.3857 10.8555 37.3709 10.8805L36.2674 12.7503C36.1677 12.9195 36.1532 13.1255 36.2284 13.3073C36.3037 13.4888 36.4597 13.6243 36.6499 13.6733L38.7514 14.2148C38.7799 14.222 38.7997 14.2478 38.7997 14.277V15.8398C38.7997 15.8688 38.7799 15.8945 38.7524 15.9015L36.6499 16.4433C36.4597 16.4923 36.3037 16.6278 36.2284 16.8093C36.1532 16.991 36.1677 17.197 36.2674 17.3663L37.3707 19.2358C37.3857 19.261 37.3817 19.293 37.3609 19.3138L36.2559 20.4188C36.2352 20.4393 36.2032 20.4438 36.1784 20.429L34.3087 19.3253C34.1394 19.2258 33.9332 19.211 33.7517 19.2863C33.5702 19.3615 33.4347 19.5175 33.3857 19.7078L32.8442 21.8095C32.8369 21.838 32.8112 21.8578 32.7819 21.8578H31.2194C31.1902 21.8578 31.1644 21.838 31.1574 21.8105L30.6154 19.7078C30.5664 19.5175 30.4309 19.3615 30.2492 19.2863C30.1724 19.2543 30.0912 19.2388 30.0102 19.2388C29.8999 19.2388 29.7899 19.268 29.6924 19.3255L27.8232 20.429C27.7984 20.4438 27.7659 20.4398 27.7452 20.419L26.6399 19.3138C26.6194 19.2933 26.6154 19.261 26.6299 19.2365L27.7337 17.3668C27.8334 17.1975 27.8479 16.9915 27.7727 16.8098C27.6974 16.6283 27.5414 16.4928 27.3512 16.4438L25.2492 15.902C25.2209 15.895 25.2014 15.8693 25.2014 15.8403V14.2773H25.2012Z" fill="#ED9ABC"/>
<path d="M25.1553 16.265L27.2573 16.8068C27.3331 16.8263 27.3961 16.881 27.4258 16.953C27.4558 17.0253 27.4501 17.1088 27.4103 17.1758L26.3066 19.0458C26.2051 19.218 26.2328 19.437 26.3743 19.5785L27.4796 20.6838C27.5626 20.7668 27.6728 20.8125 27.7903 20.8125C27.8691 20.8125 27.9466 20.7913 28.0133 20.7518L29.8821 19.6485C29.9208 19.6258 29.9648 19.6138 30.0093 19.6138C30.0423 19.6138 30.0743 19.62 30.1048 19.6328C30.1771 19.6628 30.2318 19.7258 30.2513 19.8013L30.7933 21.9035C30.8431 22.0973 31.0178 22.2328 31.2186 22.2328H32.7811C32.9818 22.2328 33.1568 22.097 33.2066 21.903L33.7481 19.8013C33.7676 19.7255 33.8223 19.6625 33.8946 19.6325C33.9251 19.6198 33.9571 19.6135 33.9901 19.6135C34.0348 19.6135 34.0791 19.6255 34.1173 19.648L35.9863 20.7513C36.0538 20.7913 36.1308 20.8125 36.2096 20.8125C36.3261 20.8125 36.4361 20.7673 36.5206 20.6838L37.6256 19.5788C37.7673 19.437 37.7951 19.2173 37.6931 19.045L36.5898 17.1755C36.5501 17.1083 36.5443 17.025 36.5743 16.9528C36.6043 16.8805 36.6673 16.8258 36.7428 16.8063L38.8451 16.2645C39.0388 16.2148 39.1743 16.04 39.1743 15.8395V14.2768C39.1743 14.076 39.0386 13.901 38.8446 13.8513L36.7431 13.3098C36.6673 13.2903 36.6043 13.2355 36.5746 13.1635C36.5446 13.0913 36.5503 13.0078 36.5901 12.9408L37.6938 11.0705C37.7946 10.8993 37.7671 10.6808 37.6258 10.5378L36.5226 9.43453C36.4411 9.35203 36.3273 9.30453 36.2106 9.30453C36.1341 9.30453 36.0588 9.32453 35.9873 9.36528L34.1181 10.4685C34.0796 10.4913 34.0356 10.5033 33.9908 10.5033C33.9578 10.5033 33.9256 10.4968 33.8951 10.4843C33.8228 10.4543 33.7681 10.3913 33.7486 10.3158L33.2068 8.21353C33.1571 8.01978 32.9823 7.88428 32.7816 7.88428H31.2191C31.0193 7.88428 30.8446 8.01903 30.7938 8.21328L30.2518 10.3155C30.2323 10.3913 30.1776 10.4543 30.1051 10.4843C30.0748 10.4968 30.0428 10.5033 30.0101 10.5033C29.9653 10.5033 29.9211 10.4913 29.8826 10.4688L28.0111 9.36428C27.9441 9.32528 27.8676 9.30453 27.7898 9.30453C27.6728 9.30453 27.5626 9.35028 27.4796 9.43328L26.3746 10.5383C26.2343 10.6785 26.2056 10.8968 26.3068 11.0723L27.4103 12.9413C27.4501 13.0085 27.4558 13.0918 27.4258 13.164C27.3958 13.2363 27.3328 13.291 27.2573 13.3105L25.1551 13.8523C24.9613 13.902 24.8258 14.0768 24.8258 14.2775V15.8403C24.8261 16.0418 24.9626 16.2168 25.1553 16.265ZM25.2011 14.2773C25.2011 14.248 25.2208 14.2223 25.2483 14.2153L27.3508 13.6735C27.5411 13.6245 27.6971 13.489 27.7723 13.3075C27.8476 13.1258 27.8331 12.9198 27.7333 12.7505L26.6298 10.8813C26.6151 10.8558 26.6191 10.824 26.6398 10.803L27.7448 9.69803C27.7573 9.68553 27.7736 9.67928 27.7898 9.67928C27.8008 9.67928 27.8121 9.68203 27.8221 9.68803L29.6918 10.7915C29.7893 10.8488 29.8993 10.8783 30.0098 10.8783C30.0908 10.8783 30.1718 10.8625 30.2488 10.8308C30.4303 10.7555 30.5658 10.5995 30.6148 10.4093L31.1568 8.30703C31.1641 8.27903 31.1896 8.25953 31.2188 8.25953H32.7813C32.8106 8.25953 32.8363 8.27928 32.8433 8.30678L33.3851 10.4093C33.4341 10.5995 33.5696 10.7555 33.7511 10.8308C33.8281 10.8625 33.9093 10.8783 33.9903 10.8783C34.1006 10.8783 34.2106 10.849 34.3081 10.7918L36.1776 9.68853C36.1876 9.68278 36.1991 9.68003 36.2103 9.68003C36.2268 9.68003 36.2433 9.68628 36.2553 9.69828L37.3603 10.8033C37.3808 10.824 37.3851 10.8558 37.3703 10.8808L36.2668 12.7505C36.1671 12.9198 36.1526 13.1258 36.2278 13.3075C36.3031 13.489 36.4591 13.6245 36.6493 13.6735L38.7508 14.215C38.7793 14.2223 38.7991 14.248 38.7991 14.2773V15.84C38.7991 15.869 38.7793 15.8948 38.7518 15.9018L36.6493 16.4435C36.4591 16.4925 36.3031 16.628 36.2278 16.8095C36.1526 16.9913 36.1671 17.1973 36.2668 17.3665L37.3701 19.236C37.3851 19.2613 37.3811 19.2933 37.3603 19.314L36.2553 20.419C36.2428 20.4315 36.2263 20.4378 36.2096 20.4378C36.1986 20.4378 36.1878 20.435 36.1778 20.4293L34.3081 19.3255C34.2106 19.268 34.1006 19.239 33.9903 19.239C33.9093 19.239 33.8281 19.2548 33.7513 19.2865C33.5698 19.3618 33.4343 19.5178 33.3853 19.708L32.8438 21.8098C32.8366 21.8383 32.8108 21.858 32.7816 21.858H31.2191C31.1898 21.858 31.1641 21.8383 31.1571 21.8108L30.6151 19.708C30.5661 19.5178 30.4306 19.3618 30.2488 19.2865C30.1721 19.2545 30.0908 19.239 30.0098 19.239C29.8996 19.239 29.7896 19.2683 29.6921 19.3258L27.8228 20.4293C27.8128 20.4353 27.8018 20.438 27.7906 20.438C27.7741 20.438 27.7573 20.4315 27.7451 20.4193L26.6398 19.314C26.6193 19.2935 26.6153 19.2613 26.6298 19.2368L27.7336 17.367C27.8333 17.1978 27.8478 16.9918 27.7726 16.81C27.6973 16.6285 27.5413 16.493 27.3511 16.444L25.2491 15.9023C25.2208 15.8953 25.2013 15.8695 25.2013 15.8405V14.2773H25.2011Z" fill="#E54890"/>
<path d="M23.9512 14.2773V15.84C23.9512 16.439 24.3562 16.9623 24.9364 17.1123L26.2342 17.4468L25.5522 18.602C25.2484 19.1183 25.3324 19.7745 25.7557 20.1975L26.8604 21.3023C27.1137 21.5558 27.4502 21.6875 27.7904 21.6875C28.0192 21.6875 28.2494 21.628 28.4572 21.5055L29.6114 20.824L29.9462 22.1225C30.0962 22.7023 30.6192 23.1073 31.2184 23.1073H31.3747V24.7995H27.3604C25.5092 24.7995 24.0029 26.3055 24.0029 28.1568V36.916C24.0029 37.2613 24.2827 37.541 24.6279 37.541C24.9732 37.541 25.2529 37.2613 25.2529 36.916V28.1568C25.2529 26.995 26.1982 26.0495 27.3604 26.0495H36.6387C37.8007 26.0495 38.7462 26.9948 38.7462 28.1568V36.916C38.7462 37.2613 39.0259 37.541 39.3712 37.541C39.7164 37.541 39.9962 37.2613 39.9962 36.916V28.1568C39.9962 26.3058 38.4902 24.7995 36.6387 24.7995H32.6249V23.1073H32.7812C33.3799 23.1073 33.9029 22.7025 34.0537 22.122L34.3882 20.824L35.5429 21.5058C35.7507 21.628 35.9809 21.6875 36.2094 21.6875C36.5494 21.6875 36.8857 21.5558 37.1389 21.3025L38.2437 20.1978C38.6674 19.7745 38.7512 19.1183 38.4469 18.601L37.7654 17.4468L39.0639 17.112C39.6437 16.962 40.0487 16.4393 40.0487 15.84V14.2773C40.0487 13.6785 39.6439 13.1555 39.0634 13.0048L37.7654 12.6703L38.4469 11.5158C38.7512 10.9998 38.6679 10.3433 38.2439 9.91952L37.1387 8.81427C36.8857 8.56152 36.5492 8.42977 36.2094 8.42977C35.9807 8.42977 35.7504 8.48927 35.5427 8.61152L34.3884 9.29302L34.0537 7.99402C33.9032 7.41452 33.3802 7.00952 32.7814 7.00952H31.2189C30.6199 7.00952 30.0967 7.41452 29.9467 7.99427C29.9464 7.99452 29.9464 7.99452 29.9464 7.99477L29.6119 9.29277L28.4572 8.61102C28.2497 8.48877 28.0194 8.42902 27.7907 8.42902C27.4509 8.42902 27.1144 8.56077 26.8612 8.81402L25.7562 9.91902C25.3327 10.3423 25.2492 10.9985 25.5529 11.5155L26.2344 12.6698L24.9359 13.0045C24.3559 13.1553 23.9512 13.6785 23.9512 14.2773ZM26.3279 13.0335C26.4419 13.0043 26.5357 12.9228 26.5807 12.814C26.6257 12.7053 26.6172 12.5813 26.5572 12.48L25.8762 11.3263C25.6589 10.9568 25.7184 10.4878 26.0212 10.185L27.1262 9.08002C27.3034 8.90277 27.5394 8.80502 27.7904 8.80502C27.9577 8.80502 28.1222 8.85002 28.2662 8.93477L29.4209 9.61652C29.4794 9.65102 29.5454 9.66852 29.6117 9.66852C29.6602 9.66852 29.7092 9.65902 29.7552 9.64002C29.8639 9.59502 29.9454 9.50127 29.9749 9.38727L30.3072 8.09752C30.3079 8.09477 30.3087 8.09177 30.3094 8.08902C30.4164 7.67477 30.7904 7.38527 31.2187 7.38527H32.7812C33.2089 7.38527 33.5829 7.67452 33.6902 8.08827L34.0249 9.38727C34.0544 9.50152 34.1357 9.59502 34.2447 9.64002C34.2907 9.65902 34.3394 9.66852 34.3882 9.66852C34.4544 9.66852 34.5204 9.65102 34.5789 9.61652L35.7327 8.93527C35.8772 8.85027 36.0419 8.80527 36.2092 8.80527C36.4602 8.80527 36.6962 8.90277 36.8734 9.07977L37.9787 10.185C38.2814 10.4875 38.3409 10.9565 38.1237 11.3253L37.4424 12.4798C37.3824 12.5813 37.3737 12.705 37.4189 12.8138C37.4642 12.9225 37.5577 13.004 37.6719 13.0335L38.9694 13.3678C39.3842 13.4753 39.6739 13.8495 39.6739 14.2773V15.84C39.6739 16.268 39.3844 16.6418 38.9704 16.7488L37.6719 17.0835C37.5577 17.113 37.4642 17.1943 37.4192 17.3033C37.3742 17.4123 37.3827 17.536 37.4427 17.6373L38.1239 18.7913C38.3414 19.1608 38.2817 19.6298 37.9787 19.9325L36.8737 21.0373C36.6964 21.2145 36.4607 21.3123 36.2097 21.3123C36.0424 21.3123 35.8777 21.2673 35.7337 21.1825L34.5789 20.5008C34.5204 20.4663 34.4544 20.4488 34.3882 20.4488C34.3397 20.4488 34.2907 20.4583 34.2447 20.4773C34.1357 20.5223 34.0544 20.616 34.0249 20.73L33.6907 22.0275C33.5829 22.4423 33.2089 22.732 32.7812 22.732H32.6249C32.4179 22.732 32.2499 22.9 32.2499 23.107V24.7993C32.2499 25.0063 32.4179 25.1743 32.6249 25.1743H36.6392C38.2837 25.1743 39.6217 26.512 39.6217 28.1565V36.9158C39.6217 37.0538 39.5094 37.1658 39.3717 37.1658C39.2339 37.1658 39.1217 37.0538 39.1217 36.9158V28.1565C39.1217 26.7878 38.0082 25.6743 36.6392 25.6743H27.3609C25.9922 25.6743 24.8784 26.7878 24.8784 28.1565V36.9158C24.8784 37.0538 24.7662 37.1658 24.6284 37.1658C24.4907 37.1658 24.3784 37.0538 24.3784 36.9158V28.1565C24.3784 26.512 25.7164 25.1743 27.3609 25.1743H31.3749C31.5819 25.1743 31.7499 25.0063 31.7499 24.7993V23.107C31.7499 22.9 31.5819 22.732 31.3749 22.732H31.2187C30.7904 22.732 30.4167 22.4428 30.3097 22.0285L29.9749 20.73C29.9454 20.616 29.8642 20.5223 29.7552 20.4773C29.7092 20.4583 29.6604 20.4488 29.6117 20.4488C29.5454 20.4488 29.4794 20.4663 29.4209 20.5008L28.2669 21.182C28.1224 21.267 27.9577 21.312 27.7904 21.312C27.5392 21.312 27.3032 21.2143 27.1257 21.0365L26.0207 19.9315C25.7182 19.6293 25.6582 19.1605 25.8749 18.792L26.5569 17.6368C26.6169 17.5353 26.6254 17.4115 26.5804 17.3028C26.5354 17.1938 26.4417 17.1125 26.3274 17.083L25.0297 16.7485C24.6152 16.6415 24.3254 16.2675 24.3254 15.8395V14.2768C24.3254 13.8488 24.6147 13.4748 25.0287 13.3678L26.3279 13.0335Z" fill="#E54890"/>
<path d="M35.1523 15.0585C35.1523 13.3203 33.7383 11.9062 32 11.9062C30.2618 11.9062 28.8478 13.3203 28.8478 15.0585C28.8478 16.7968 30.2618 18.211 32 18.211C33.7383 18.211 35.1523 16.797 35.1523 15.0585ZM30.0978 15.0585C30.0978 14.0095 30.951 13.1562 32 13.1562C33.049 13.1562 33.9023 14.0095 33.9023 15.0585C33.9023 16.1075 33.049 16.9608 32 16.9608C30.951 16.9608 30.0978 16.1078 30.0978 15.0585Z" fill="#D3D3D3"/>
<path d="M35.1523 15.0585C35.1523 13.3203 33.7383 11.9062 32 11.9062C30.2618 11.9062 28.8478 13.3203 28.8478 15.0585C28.8478 16.7968 30.2618 18.211 32 18.211C33.7383 18.211 35.1523 16.797 35.1523 15.0585ZM29.2228 15.0585C29.2228 13.527 30.4688 12.2812 32 12.2812C33.5313 12.2812 34.7773 13.5273 34.7773 15.0585C34.7773 16.5898 33.5315 17.836 32 17.836C30.4685 17.836 29.2228 16.59 29.2228 15.0585Z" fill="#EBE7F2"/>
<path d="M34.2773 15.0585C34.2773 13.8028 33.2558 12.7812 32 12.7812C30.7443 12.7812 29.7228 13.8028 29.7228 15.0585C29.7228 16.3143 30.7443 17.3358 32 17.3358C33.2558 17.3358 34.2773 16.3143 34.2773 15.0585ZM30.0978 15.0585C30.0978 14.0095 30.951 13.1562 32 13.1562C33.049 13.1562 33.9023 14.0095 33.9023 15.0585C33.9023 16.1075 33.049 16.9608 32 16.9608C30.951 16.9608 30.0978 16.1078 30.0978 15.0585Z" fill="#EBE7F2"/>
<path d="M36.8607 45.5856C36.8607 42.9054 34.6799 40.7249 31.9999 40.7249C29.3199 40.7249 27.1392 42.9056 27.1392 45.5856C27.1392 48.2656 29.3199 50.4464 31.9999 50.4464C34.6799 50.4464 36.8607 48.2659 36.8607 45.5856ZM27.5142 45.5856C27.5142 43.1121 29.5264 41.0999 31.9999 41.0999C34.4734 41.0999 36.4857 43.1121 36.4857 45.5856C36.4857 48.0591 34.4734 50.0714 31.9999 50.0714C29.5264 50.0714 27.5142 48.0591 27.5142 45.5856Z" fill="#149CB2"/>
<path d="M35.9857 45.5856C35.9857 43.3879 34.1977 41.5999 31.9999 41.5999C29.8022 41.5999 28.0142 43.3879 28.0142 45.5856C28.0142 47.7834 29.8022 49.5714 31.9999 49.5714C34.1977 49.5714 35.9857 47.7834 35.9857 45.5856ZM28.3892 45.5856C28.3892 43.5946 30.0089 41.9749 31.9999 41.9749C33.9909 41.9749 35.6107 43.5946 35.6107 45.5856C35.6107 47.5766 33.9909 49.1964 31.9999 49.1964C30.0089 49.1964 28.3892 47.5766 28.3892 45.5856Z" fill="#149CB2"/>
<path d="M32 45.0559C32.3453 45.0559 32.6251 44.7762 32.6251 44.4309C32.6251 44.0857 32.3453 43.8059 32 43.8059H30.441C30.0958 43.8059 29.816 44.0857 29.816 44.4309C29.816 44.7762 30.0958 45.0559 30.441 45.0559H32ZM30.191 44.4309C30.191 44.2929 30.3033 44.1809 30.441 44.1809H32C32.1378 44.1809 32.25 44.2929 32.25 44.4309C32.25 44.5689 32.1378 44.6809 32 44.6809H30.441C30.303 44.6809 30.191 44.5687 30.191 44.4309Z" fill="#149CB2"/>
<path d="M33.5589 47.2791C33.9042 47.2791 34.1839 46.9993 34.1839 46.6541C34.1839 46.3088 33.9042 46.0291 33.5589 46.0291H30.4407C30.0954 46.0291 29.8157 46.3088 29.8157 46.6541C29.8157 46.9993 30.0954 47.2791 30.4407 47.2791H33.5589ZM30.1909 46.6541C30.1909 46.5161 30.3032 46.4041 30.4409 46.4041H33.5592C33.6969 46.4041 33.8092 46.5161 33.8092 46.6541C33.8092 46.7921 33.6969 46.9041 33.5592 46.9041H30.4409C30.3029 46.9041 30.1909 46.7921 30.1909 46.6541Z" fill="#149CB2"/>
<path d="M50.2597 50.4464C51.0527 50.4464 51.6979 49.8011 51.6979 49.0081V42.1629C51.6979 41.3699 51.0527 40.7246 50.2597 40.7246H43.4147C42.6214 40.7246 41.9762 41.3699 41.9762 42.1629V49.0081C41.9762 49.8011 42.6214 50.4464 43.4147 50.4464H50.2597ZM42.3512 49.0081V42.1629C42.3512 41.5766 42.8282 41.0996 43.4147 41.0996H50.2597C50.8459 41.0996 51.3229 41.5766 51.3229 42.1629V49.0081C51.3229 49.5944 50.8459 50.0714 50.2597 50.0714H43.4147C42.8284 50.0714 42.3512 49.5944 42.3512 49.0081Z" fill="#149CB2"/>
<path d="M50.2597 49.5714C50.5702 49.5714 50.8229 49.3186 50.8229 49.0081V42.1629C50.8229 41.8524 50.5702 41.5996 50.2597 41.5996H43.4147C43.1039 41.5996 42.8512 41.8524 42.8512 42.1629V49.0081C42.8512 49.3186 43.1039 49.5714 43.4147 49.5714H50.2597ZM43.2262 49.0081V42.1629C43.2262 42.0591 43.3107 41.9746 43.4147 41.9746H50.2597C50.3634 41.9746 50.4479 42.0591 50.4479 42.1629V49.0081C50.4479 49.1119 50.3634 49.1964 50.2597 49.1964H43.4147C43.3107 49.1964 43.2262 49.1119 43.2262 49.0081Z" fill="#149CB2"/>
<path d="M46.8372 45.0559C47.1824 45.0559 47.4622 44.7762 47.4622 44.4309C47.4622 44.0857 47.1824 43.8059 46.8372 43.8059H45.2782C44.9329 43.8059 44.6532 44.0857 44.6532 44.4309C44.6532 44.7762 44.9329 45.0559 45.2782 45.0559H46.8372ZM45.0279 44.4309C45.0279 44.2929 45.1402 44.1809 45.2779 44.1809H46.837C46.9747 44.1809 47.087 44.2929 47.087 44.4309C47.087 44.5689 46.9747 44.6809 46.837 44.6809H45.2779C45.1402 44.6809 45.0279 44.5687 45.0279 44.4309Z" fill="#149CB2"/>
<path d="M48.3961 47.2791C48.7413 47.2791 49.0211 46.9993 49.0211 46.6541C49.0211 46.3088 48.7413 46.0291 48.3961 46.0291H45.2778C44.9326 46.0291 44.6528 46.3088 44.6528 46.6541C44.6528 46.9993 44.9326 47.2791 45.2778 47.2791H48.3961ZM45.0278 46.6541C45.0278 46.5161 45.1401 46.4041 45.2778 46.4041H48.3961C48.5338 46.4041 48.6461 46.5161 48.6461 46.6541C48.6461 46.7921 48.5338 46.9041 48.3961 46.9041H45.2778C45.1401 46.9041 45.0278 46.7921 45.0278 46.6541Z" fill="#149CB2"/>
<path d="M20.5853 50.4464C21.3785 50.4464 22.0238 49.8011 22.0238 49.0081V42.1629C22.0238 41.3699 21.3785 40.7246 20.5853 40.7246H13.7403C12.9473 40.7246 12.302 41.3699 12.302 42.1629V49.0081C12.302 49.8011 12.9473 50.4464 13.7403 50.4464H20.5853ZM12.677 49.0081V42.1629C12.677 41.5766 13.154 41.0996 13.7403 41.0996H20.5853C21.1718 41.0996 21.6488 41.5766 21.6488 42.1629V49.0081C21.6488 49.5944 21.1718 50.0714 20.5853 50.0714H13.7403C13.154 50.0714 12.677 49.5944 12.677 49.0081Z" fill="#149CB2"/>
<path d="M20.5853 49.5714C20.896 49.5714 21.1488 49.3186 21.1488 49.0081V42.1629C21.1488 41.8524 20.896 41.5996 20.5853 41.5996H13.7403C13.4298 41.5996 13.177 41.8524 13.177 42.1629V49.0081C13.177 49.3186 13.4298 49.5714 13.7403 49.5714H20.5853ZM13.552 49.0081V42.1629C13.552 42.0591 13.6365 41.9746 13.7403 41.9746H20.5853C20.6893 41.9746 20.7738 42.0591 20.7738 42.1629V49.0081C20.7738 49.1119 20.6893 49.1964 20.5853 49.1964H13.7403C13.6365 49.1964 13.552 49.1119 13.552 49.0081Z" fill="#149CB2"/>
<path d="M17.1626 45.0559C17.5079 45.0559 17.7876 44.7762 17.7876 44.4309C17.7876 44.0857 17.5079 43.8059 17.1626 43.8059H15.6036C15.2584 43.8059 14.9786 44.0857 14.9786 44.4309C14.9786 44.7762 15.2584 45.0559 15.6036 45.0559H17.1626ZM15.3536 44.4309C15.3536 44.2929 15.4659 44.1809 15.6036 44.1809H17.1626C17.3004 44.1809 17.4126 44.2929 17.4126 44.4309C17.4126 44.5689 17.3004 44.6809 17.1626 44.6809H15.6036C15.4659 44.6809 15.3536 44.5687 15.3536 44.4309Z" fill="#149CB2"/>
<path d="M18.7219 47.2791C19.0671 47.2791 19.3469 46.9993 19.3469 46.6541C19.3469 46.3088 19.0671 46.0291 18.7219 46.0291H15.6036C15.2584 46.0291 14.9786 46.3088 14.9786 46.6541C14.9786 46.9993 15.2584 47.2791 15.6036 47.2791H18.7219ZM15.3536 46.6541C15.3536 46.5161 15.4659 46.4041 15.6036 46.4041H18.7219C18.8596 46.4041 18.9719 46.5161 18.9719 46.6541C18.9719 46.7921 18.8596 46.9041 18.7219 46.9041H15.6036C15.4659 46.9041 15.3536 46.7921 15.3536 46.6541Z" fill="#149CB2"/>
<path d="M35.4224 37.5413C36.2154 37.5413 36.8607 36.8961 36.8607 36.1031V29.2578C36.8607 28.4648 36.2154 27.8196 35.4224 27.8196H28.5774C27.7844 27.8196 27.1392 28.4648 27.1392 29.2578V36.1031C27.1392 36.8961 27.7844 37.5413 28.5774 37.5413H35.4224ZM27.5142 36.1031V29.2578C27.5142 28.6716 27.9912 28.1946 28.5774 28.1946H35.4227C36.0089 28.1946 36.4859 28.6716 36.4859 29.2578V36.1031C36.4859 36.6893 36.0089 37.1663 35.4227 37.1663H28.5774C27.9909 37.1663 27.5142 36.6893 27.5142 36.1031Z" fill="#149CB2"/>
<path d="M35.4224 36.6663C35.7329 36.6663 35.9857 36.4136 35.9857 36.1031V29.2578C35.9857 28.9473 35.7329 28.6946 35.4224 28.6946H28.5774C28.2669 28.6946 28.0142 28.9473 28.0142 29.2578V36.1031C28.0142 36.4136 28.2669 36.6663 28.5774 36.6663H35.4224ZM28.3892 36.1031V29.2578C28.3892 29.1541 28.4737 29.0696 28.5774 29.0696H35.4227C35.5264 29.0696 35.6109 29.1541 35.6109 29.2578V36.1031C35.6109 36.2068 35.5264 36.2913 35.4227 36.2913H28.5774C28.4737 36.2913 28.3892 36.2068 28.3892 36.1031Z" fill="#149CB2"/>
<path d="M32 32.1509C32.3453 32.1509 32.6251 31.8711 32.6251 31.5259C32.6251 31.1806 32.3453 30.9009 32 30.9009H30.441C30.0958 30.9009 29.816 31.1806 29.816 31.5259C29.816 31.8711 30.0958 32.1509 30.441 32.1509H32ZM30.191 31.5259C30.191 31.3879 30.3033 31.2759 30.441 31.2759H32C32.1378 31.2759 32.25 31.3879 32.25 31.5259C32.25 31.6639 32.1378 31.7759 32 31.7759H30.441C30.303 31.7759 30.191 31.6636 30.191 31.5259Z" fill="#149CB2"/>
<path d="M33.5589 34.374C33.9042 34.374 34.1839 34.0943 34.1839 33.749C34.1839 33.4038 33.9042 33.124 33.5589 33.124H30.4407C30.0954 33.124 29.8157 33.4038 29.8157 33.749C29.8157 34.0943 30.0954 34.374 30.4407 34.374H33.5589ZM30.1909 33.749C30.1909 33.611 30.3032 33.499 30.4409 33.499H33.5592C33.6969 33.499 33.8092 33.611 33.8092 33.749C33.8092 33.887 33.6969 33.999 33.5592 33.999H30.4409C30.3029 33.999 30.1909 33.887 30.1909 33.749Z" fill="#149CB2"/>
<path d="M50.8231 32.6806C50.8231 30.4828 49.0351 28.6948 46.8373 28.6948C44.6396 28.6948 42.8516 30.4828 42.8516 32.6806C42.8516 34.8783 44.6396 36.6663 46.8373 36.6663C49.0351 36.6663 50.8231 34.8783 50.8231 32.6806ZM43.2263 32.6806C43.2263 30.6896 44.8461 29.0698 46.8371 29.0698C48.8281 29.0698 50.4478 30.6896 50.4478 32.6806C50.4478 34.6716 48.8281 36.2913 46.8371 36.2913C44.8461 36.2913 43.2263 34.6716 43.2263 32.6806Z" fill="#149CB2"/>
<path d="M51.6981 32.6823C51.6981 30.002 49.5173 27.8215 46.8373 27.8215C44.1573 27.8215 41.9766 30.0023 41.9766 32.6823C41.9766 35.3623 44.1573 37.543 46.8373 37.543C49.5173 37.543 51.6981 35.3623 51.6981 32.6823ZM42.3513 32.6823C42.3513 30.2088 44.3636 28.1965 46.8371 28.1965C49.3106 28.1965 51.3228 30.2088 51.3228 32.6823C51.3228 35.1558 49.3106 37.168 46.8371 37.168C44.3636 37.168 42.3513 35.1558 42.3513 32.6823Z" fill="#149CB2"/>
<path d="M46.8372 32.1509C47.1824 32.1509 47.4622 31.8711 47.4622 31.5259C47.4622 31.1806 47.1824 30.9009 46.8372 30.9009H45.2782C44.9329 30.9009 44.6532 31.1806 44.6532 31.5259C44.6532 31.8711 44.9329 32.1509 45.2782 32.1509H46.8372ZM45.0279 31.5259C45.0279 31.3879 45.1402 31.2759 45.2779 31.2759H46.837C46.9747 31.2759 47.087 31.3879 47.087 31.5259C47.087 31.6639 46.9747 31.7759 46.837 31.7759H45.2779C45.1402 31.7759 45.0279 31.6636 45.0279 31.5259Z" fill="#149CB2"/>
<path d="M48.3961 34.374C48.7413 34.374 49.0211 34.0943 49.0211 33.749C49.0211 33.4038 48.7413 33.124 48.3961 33.124H45.2778C44.9326 33.124 44.6528 33.4038 44.6528 33.749C44.6528 34.0943 44.9326 34.374 45.2778 34.374H48.3961ZM45.0278 33.749C45.0278 33.611 45.1401 33.499 45.2778 33.499H48.3961C48.5338 33.499 48.6461 33.611 48.6461 33.749C48.6461 33.887 48.5338 33.999 48.3961 33.999H45.2778C45.1401 33.999 45.0278 33.887 45.0278 33.749Z" fill="#149CB2"/>
<path d="M22.0251 32.682C22.0251 30.0018 19.8443 27.8213 17.1643 27.8213C14.4843 27.8213 12.3036 30.002 12.3036 32.682C12.3036 35.362 14.4843 37.5428 17.1643 37.5428C19.8443 37.5428 22.0251 35.362 22.0251 32.682ZM12.6783 32.682C12.6783 30.2085 14.6906 28.1963 17.1641 28.1963C19.6376 28.1963 21.6498 30.2085 21.6498 32.682C21.6498 35.1555 19.6376 37.1678 17.1641 37.1678C14.6906 37.1678 12.6783 35.1555 12.6783 32.682Z" fill="#149CB2"/>
<path d="M21.1489 32.6806C21.1489 30.4828 19.3609 28.6948 17.1631 28.6948C14.9654 28.6948 13.1774 30.4828 13.1774 32.6806C13.1774 34.8783 14.9654 36.6663 17.1631 36.6663C19.3609 36.6663 21.1489 34.8783 21.1489 32.6806ZM13.5521 32.6806C13.5521 30.6896 15.1719 29.0698 17.1629 29.0698C19.1539 29.0698 20.7736 30.6896 20.7736 32.6806C20.7736 34.6716 19.1539 36.2913 17.1629 36.2913C15.1719 36.2913 13.5521 34.6716 13.5521 32.6806Z" fill="#149CB2"/>
<path d="M17.1626 32.1509C17.5079 32.1509 17.7876 31.8711 17.7876 31.5259C17.7876 31.1806 17.5079 30.9009 17.1626 30.9009H15.6036C15.2584 30.9009 14.9786 31.1806 14.9786 31.5259C14.9786 31.8711 15.2584 32.1509 15.6036 32.1509H17.1626ZM15.3536 31.5259C15.3536 31.3879 15.4659 31.2759 15.6036 31.2759H17.1626C17.3004 31.2759 17.4126 31.3879 17.4126 31.5259C17.4126 31.6639 17.3004 31.7759 17.1626 31.7759H15.6036C15.4659 31.7759 15.3536 31.6636 15.3536 31.5259Z" fill="#149CB2"/>
<path d="M18.7219 34.374C19.0671 34.374 19.3469 34.0943 19.3469 33.749C19.3469 33.4038 19.0671 33.124 18.7219 33.124H15.6036C15.2584 33.124 14.9786 33.4038 14.9786 33.749C14.9786 34.0943 15.2584 34.374 15.6036 34.374H18.7219ZM15.3536 33.749C15.3536 33.611 15.4659 33.499 15.6036 33.499H18.7219C18.8596 33.499 18.9719 33.611 18.9719 33.749C18.9719 33.887 18.8596 33.999 18.7219 33.999H15.6036C15.4659 33.999 15.3536 33.887 15.3536 33.749Z" fill="#149CB2"/>
</svg>
