<svg width="48" height="50" viewBox="0 0 48 50" fill="none" xmlns="http://www.w3.org/2000/svg">
<path d="M48.12 38.6904H0V48.5714H48.12V38.6904Z" fill="#F5AB35"/>
<path d="M48.12 38.6904H0V43.0952H48.12V38.6904Z" fill="#F9CD86"/>
<path d="M7.20001 38.6904V41.7857" stroke="#414042" stroke-miterlimit="10"/>
<path d="M0.600006 38.6904V41.7857" stroke="#414042" stroke-miterlimit="10"/>
<path d="M13.92 38.6904V41.7857" stroke="#414042" stroke-miterlimit="10"/>
<path d="M20.64 38.6904V41.7857" stroke="#414042" stroke-miterlimit="10"/>
<path d="M27.36 38.6904V41.7857" stroke="#414042" stroke-miterlimit="10"/>
<path d="M40.8 38.6904V41.7857" stroke="#414042" stroke-miterlimit="10"/>
<path d="M34.08 38.6904V41.7857" stroke="#414042" stroke-miterlimit="10"/>
<path d="M47.4 38.6904V41.7857" stroke="#414042" stroke-miterlimit="10"/>
<path d="M5.64001 45.7148H43.92V49.7625H5.64001L0.60001 47.8577C0.48001 47.8577 0.48001 47.7387 0.60001 47.6196L5.64001 45.7148Z" fill="white"/>
<path d="M43.92 45.7148H5.64001V49.7625H43.92V45.7148Z" fill="#36D7B7"/>
<path d="M43.92 47.7383H5.64001V49.7621H43.92V47.7383Z" fill="#86E7D4"/>
<path d="M43.92 45.5957H39.12V49.8814H43.92V45.5957Z" fill="white"/>
<path d="M5.64001 45.7148H43.92V49.7625H5.64001L0.60001 47.8577C0.48001 47.8577 0.48001 47.7387 0.60001 47.6196L5.64001 45.7148Z" stroke="#414042" stroke-miterlimit="10"/>
<path d="M39.12 49.7628V46.1914" stroke="#414042" stroke-miterlimit="10"/>
<path d="M5.64001 49.5246V45.9531" stroke="#414042" stroke-miterlimit="10"/>
<path d="M23.76 5.35742V11.3098" stroke="#414042" stroke-miterlimit="10"/>
<path d="M15 37.8569L24.6 12.9759C24.72 12.4997 24.48 12.1426 24 12.1426H21.84C21.36 12.1426 20.88 12.4997 20.76 12.9759L15 37.8569C14.76 38.3331 14.88 38.3331 15 37.8569Z" fill="#D1D3D4"/>
<path d="M33.12 37.8569L23.52 12.9759C23.4 12.4997 23.64 12.1426 24.12 12.1426H26.28C26.76 12.1426 27.24 12.4997 27.36 12.9759L33.12 37.8569C33.36 38.3331 33.24 38.3331 33.12 37.8569Z" fill="#D1D3D4"/>
<path d="M23.76 15.2384C25.8145 15.2384 27.48 13.5861 27.48 11.5479C27.48 9.5097 25.8145 7.85742 23.76 7.85742C21.7055 7.85742 20.04 9.5097 20.04 11.5479C20.04 13.5861 21.7055 15.2384 23.76 15.2384Z" fill="#36D7B7"/>
<path d="M23.76 15.2384C25.8145 15.2384 27.48 13.5861 27.48 11.5479C27.48 9.5097 25.8145 7.85742 23.76 7.85742C21.7055 7.85742 20.04 9.5097 20.04 11.5479C20.04 13.5861 21.7055 15.2384 23.76 15.2384Z" stroke="#414042" stroke-miterlimit="10"/>
<path d="M23.76 13.0952C24.6216 13.0952 25.32 12.4023 25.32 11.5476C25.32 10.6929 24.6216 10 23.76 10C22.8984 10 22.2 10.6929 22.2 11.5476C22.2 12.4023 22.8984 13.0952 23.76 13.0952Z" fill="#414042"/>
<path d="M24.96 0.119141H22.56V6.54771H24.96V0.119141Z" fill="#A7A9AC"/>
<path d="M23.88 0.119141H22.56V6.54771H23.88V0.119141Z" fill="#D1D3D4"/>
<path d="M32.28 23.0957C30.24 25.1195 27.24 26.429 24.12 26.429C20.88 26.429 18 25.1195 15.96 23.0957" stroke="#414042" stroke-miterlimit="10"/>
<path d="M40.32 30.2379C36.36 34.0474 30.48 36.5474 24.12 36.5474C17.4 36.5474 11.28 33.9284 7.32001 29.7617" stroke="#414042" stroke-miterlimit="10" stroke-dasharray="2 2"/>
<path d="M8.51999 17.3806C9.31528 17.3806 9.95999 16.741 9.95999 15.952C9.95999 15.163 9.31528 14.5234 8.51999 14.5234C7.7247 14.5234 7.07999 15.163 7.07999 15.952C7.07999 16.741 7.7247 17.3806 8.51999 17.3806Z" stroke="#414042" stroke-miterlimit="10"/>
<path d="M40.32 23.6902C41.1153 23.6902 41.76 23.0506 41.76 22.2616C41.76 21.4726 41.1153 20.833 40.32 20.833C39.5247 20.833 38.88 21.4726 38.88 22.2616C38.88 23.0506 39.5247 23.6902 40.32 23.6902Z" stroke="#414042" stroke-miterlimit="10"/>
</svg>
