<svg width="32" height="32" viewBox="0 0 32 32" fill="none" xmlns="http://www.w3.org/2000/svg">
<g clip-path="url(#clip0_8651_148677)">
<path fill-rule="evenodd" clip-rule="evenodd" d="M15.186 7.25192C14.2788 7.09133 13.3321 7.01103 12.2277 7.09133C10.3738 7.17162 8.59883 7.85412 8.59883 7.85412L3.82609 4.6825C3.66831 4.60221 3.47109 4.72265 3.51053 4.88324L4.33886 12.0696C4.57553 11.7484 0.15778 17.2084 2.95832 21.7852C5.75885 26.3619 11.7149 28.4094 19.1304 26.924C26.5459 25.4386 28.2815 21.1027 27.8081 18.8143C27.3348 16.5259 24.5343 15.6828 24.5343 15.6828C24.5343 15.6828 24.4948 13.8762 23.2326 11.6681C22.4832 10.3432 19.9587 8.45633 19.9587 8.45633L18.9332 4.16059C18.8938 4 18.6965 3.95985 18.5782 4.04015L15.186 7.25192Z" fill="#FFAB19" stroke="#001026" stroke-width="0.481765"/>
<path fill-rule="evenodd" clip-rule="evenodd" d="M24.4159 15.8434C24.4159 15.8434 27.1376 16.566 27.6109 18.8544C28.0843 21.1428 26.1909 25.2779 18.8543 26.7232C9.30883 28.7306 4.77275 22.9494 7.41551 18.6938C10.0583 14.3981 14.5943 18.0515 17.9077 17.8106C20.7476 17.6098 21.0632 15.0806 24.4159 15.8434Z" fill="white"/>
<path fill-rule="evenodd" clip-rule="evenodd" d="M11.991 20.1391C11.991 19.9785 12.1488 19.8581 12.3066 19.8982C13.056 20.1793 15.186 20.8216 17.5527 20.9822C19.6826 21.1026 20.9449 20.9822 21.5365 20.8618C21.7337 20.8216 21.8915 21.0223 21.8126 21.2231C21.4576 22.307 19.9587 25.3181 15.8171 25.0772C12.2277 24.6757 11.8727 22.1063 11.991 20.1391V20.1391Z" fill="white" stroke="#001026" stroke-width="0.481765" stroke-linecap="round" stroke-linejoin="round"/>
<path d="M27.1376 20.2195C27.1376 20.2195 28.6759 20.9822 31.1609 20.7815M26.9798 17.8508C26.9798 17.8508 29.8198 17.8106 31.6737 16.285L26.9798 17.8508Z" stroke="#001026" stroke-width="0.481765" stroke-linecap="round" stroke-linejoin="round"/>
<path fill-rule="evenodd" clip-rule="evenodd" d="M17.7499 16.7667C18.5782 16.7667 19.446 16.847 19.4854 17.128C19.5249 17.6901 18.9332 18.8142 18.3021 18.8544C17.5921 18.9347 15.9354 17.931 15.9354 17.2886C15.896 16.8069 16.961 16.7667 17.7499 16.7667Z" fill="#001026" stroke="#001026" stroke-width="0.481765" stroke-linecap="round" stroke-linejoin="round"/>
<path d="M0.276109 20.1793C0.276109 20.1793 3.19498 20.6209 4.89108 19.9384M0 16.1646C0 16.1646 3.3922 17.2887 4.77274 18.5332L0 16.1646Z" stroke="#001026" stroke-width="0.481765" stroke-linecap="round" stroke-linejoin="round"/>
<path fill-rule="evenodd" clip-rule="evenodd" d="M22.4043 12.0695C23.5482 13.8762 23.5876 15.9237 22.4832 16.6463C21.3787 17.369 19.5643 16.5259 18.381 14.7193C17.2371 12.9126 17.1977 10.8651 18.3021 10.1425C19.4065 9.37969 21.2604 10.2629 22.4043 12.0695V12.0695Z" fill="white" stroke="#001026" stroke-width="0.481765" stroke-linecap="round" stroke-linejoin="round"/>
<path fill-rule="evenodd" clip-rule="evenodd" d="M22.2465 14.3579C22.2465 14.7996 21.9309 15.1609 21.5365 15.1609C21.1421 15.1609 20.8265 14.7996 20.8265 14.3579C20.8265 13.9163 21.1421 13.555 21.5365 13.555C21.9309 13.555 22.2465 13.9163 22.2465 14.3579Z" fill="#001026"/>
<path fill-rule="evenodd" clip-rule="evenodd" d="M12.6221 13.1937C13.8055 14.9602 13.7266 17.1281 12.6616 17.8909C11.3599 18.6537 9.62438 18.0916 8.44106 16.3252C7.21829 14.5587 7.1394 12.2703 8.36217 11.3871C9.58494 10.4637 11.4388 11.4272 12.6221 13.1937V13.1937Z" fill="white" stroke="#001026" stroke-width="0.481765" stroke-linecap="round" stroke-linejoin="round"/>
<path fill-rule="evenodd" clip-rule="evenodd" d="M12.3855 15.5222C12.3855 15.9638 12.0699 16.3251 11.6755 16.3251C11.281 16.3251 10.9655 15.9638 10.9655 15.5222C10.9655 15.0806 11.281 14.7192 11.6755 14.7192C12.0699 14.7594 12.3855 15.0806 12.3855 15.5222Z" fill="#001026"/>
</g>
<defs>
<clipPath id="clip0_8651_148677">
<rect width="32" height="32" fill="white"/>
</clipPath>
</defs>
</svg>
