<svg width="64" height="64" viewBox="0 0 64 64" fill="none" xmlns="http://www.w3.org/2000/svg">
<path d="M32 61.8499C48.4857 61.8499 61.85 48.4856 61.85 31.9999C61.85 15.5142 48.4857 2.1499 32 2.1499C15.5143 2.1499 2.15002 15.5142 2.15002 31.9999C2.15002 48.4856 15.5143 61.8499 32 61.8499Z" fill="#382B73"/>
<path d="M32.0001 57.8248C46.2627 57.8248 57.8248 46.2627 57.8248 32C57.8248 17.7374 46.2627 6.17529 32.0001 6.17529C17.7375 6.17529 6.17535 17.7374 6.17535 32C6.17535 46.2627 17.7375 57.8248 32.0001 57.8248Z" fill="#473080"/>
<path d="M49.3625 38.1926C49.3625 37.9819 49.3563 37.7724 49.3453 37.5644C49.345 37.5604 49.3445 37.5564 49.3443 37.5524C49.0118 31.4071 43.9243 26.5261 37.6958 26.5261C37.28 26.5261 36.8698 26.5489 36.4653 26.5911C36.4628 26.4534 36.4608 26.3156 36.4535 26.1791C36.4533 26.1751 36.4528 26.1711 36.4525 26.1671C36.4415 25.9624 36.4248 25.7594 36.4033 25.5576C35.7793 19.7024 30.825 15.1409 24.804 15.1409C18.783 15.1409 13.8288 19.7019 13.205 25.5571C13.1835 25.7589 13.1668 25.9621 13.1558 26.1666C13.1555 26.1706 13.155 26.1746 13.1548 26.1786C13.1438 26.3866 13.1375 26.5959 13.1375 26.8066C13.1375 26.8066 13.1375 26.8066 13.1375 26.8069C13.1375 27.0081 13.1425 27.2084 13.1528 27.4071C13.1628 27.6059 13.178 27.8036 13.1978 27.9996C13.2775 28.7841 13.4348 29.5454 13.662 30.2761C13.7758 30.6416 13.9068 30.9991 14.0543 31.3481C14.2018 31.6971 14.366 32.0374 14.5455 32.3679C14.7238 32.6959 14.9173 33.0141 15.125 33.3221L13.3875 38.1921L18.2488 36.4576C18.2598 36.4651 18.2703 36.4734 18.2813 36.4809C20.1433 37.7389 22.388 38.4734 24.8043 38.4734C25.22 38.4734 25.6303 38.4509 26.0348 38.4084C26.037 38.5366 26.038 38.6651 26.0445 38.7924C26.0545 38.9911 26.0698 39.1889 26.0895 39.3849C26.1693 40.1694 26.3265 40.9306 26.5538 41.6614C26.8948 42.7574 27.3928 43.7839 28.0218 44.7151C28.2315 45.0254 28.4555 45.3251 28.6933 45.6134C28.8123 45.7574 28.9345 45.8986 29.06 46.0366C30.0643 47.1416 31.2778 48.0531 32.638 48.7084C34.168 49.4456 35.8838 49.8589 37.696 49.8589C39.5083 49.8589 41.2238 49.4456 42.754 48.7084C43.2763 48.4569 43.7763 48.1666 44.2515 47.8431L49.1128 49.5776L47.3753 44.7076C48.0018 43.7786 48.4985 42.7546 48.8383 41.6616C49.0655 40.9309 49.2228 40.1696 49.3025 39.3851C49.3225 39.1891 49.3375 38.9914 49.3475 38.7926C49.3575 38.5941 49.3625 38.3939 49.3625 38.1926Z" fill="#382B73"/>
<path d="M24.8043 13.3906C18.361 13.3906 13.1375 18.6141 13.1375 25.0574C13.1375 27.4704 13.8703 29.7121 15.125 31.5726L13.3875 36.4426L18.2488 34.7081C20.1173 35.9799 22.3738 36.7239 24.8043 36.7239C31.2475 36.7239 36.471 31.5006 36.471 25.0571C36.4708 18.6139 31.2475 13.3906 24.8043 13.3906Z" fill="white"/>
<path d="M36.4033 23.8071C35.7793 29.6626 30.825 34.2239 24.804 34.2239C18.783 34.2239 13.8288 29.6626 13.205 23.8071C13.1613 24.2179 13.1375 24.6346 13.1375 25.0571C13.1375 28.4094 14.5535 31.4294 16.8175 33.5574L13.3875 36.4426L18.2485 34.7084L18.2483 34.7081C20.1168 35.9799 22.3735 36.7241 24.8043 36.7241C31.2475 36.7241 36.471 31.5009 36.471 25.0574C36.4708 24.6349 36.447 24.2181 36.4033 23.8071Z" fill="#E6E7E8"/>
<path d="M24.6432 29.2104C24.1472 29.2104 23.843 29.4304 23.6752 29.6152C23.4512 29.8612 23.3325 30.1732 23.3325 30.5174C23.3325 30.8622 23.4545 31.173 23.685 31.4152C23.8525 31.5915 24.1545 31.8017 24.643 31.8017C25.1177 31.8017 25.4202 31.5977 25.5902 31.4265C25.833 31.1822 25.9612 30.8679 25.9612 30.5172C25.9612 30.1674 25.8367 29.8517 25.601 29.6037C25.356 29.3467 25.0247 29.2104 24.6432 29.2104Z" fill="#E6E7E8"/>
<path d="M27.3927 20.0195C26.7632 19.3845 25.9137 19.0625 24.8675 19.0625C23.856 19.0625 23.002 19.3708 22.3287 19.979C21.638 20.6035 21.2815 21.435 21.2692 22.4507V22.451C21.2645 22.8395 21.5782 23.1567 21.9667 23.1567H22.8565C23.237 23.1567 23.5472 22.8517 23.5537 22.4712C23.5605 22.082 23.6727 21.7912 23.8965 21.5825C24.131 21.364 24.4485 21.2577 24.8672 21.2577C25.2612 21.2577 25.548 21.3597 25.7432 21.5695C25.952 21.7937 26.0535 22.1182 26.0535 22.5615C26.0535 22.796 26.0255 23.0025 25.9705 23.1747C25.9152 23.3472 25.8365 23.507 25.736 23.6497C25.6552 23.7642 25.4385 24.0195 24.8637 24.585C24.2982 25.141 23.9322 25.6297 23.7447 26.0795C23.5592 26.5237 23.4632 27.072 23.4517 27.755V27.7552C23.445 28.145 23.7592 28.4647 24.149 28.4647H25.0392C25.4245 28.4647 25.7367 28.1525 25.7367 27.7672V27.767C25.7367 27.0667 25.9322 26.576 26.3557 26.2192C27.1057 25.5302 27.6087 24.9285 27.8935 24.38C28.1885 23.8112 28.3382 23.1942 28.3382 22.5462C28.3387 21.5032 28.0205 20.6533 27.3927 20.0195Z" fill="#E6E7E8"/>
<path d="M24.6432 28.7104C24.1472 28.7104 23.843 28.9304 23.6752 29.1152C23.4512 29.3612 23.3325 29.6732 23.3325 30.0174C23.3325 30.3622 23.4545 30.673 23.685 30.9152C23.8525 31.0915 24.1545 31.3017 24.643 31.3017C25.1177 31.3017 25.4202 31.0977 25.5902 30.9265C25.833 30.6822 25.9612 30.3679 25.9612 30.0172C25.9612 29.6674 25.8367 29.3517 25.601 29.1037C25.356 28.8467 25.0247 28.7104 24.6432 28.7104Z" fill="#EF5A9D"/>
<path d="M27.3927 19.5195C26.7632 18.8845 25.9137 18.5625 24.8675 18.5625C23.856 18.5625 23.002 18.8708 22.3287 19.479C21.638 20.1035 21.2815 20.935 21.2692 21.9507V21.951C21.2645 22.3395 21.5782 22.6567 21.9667 22.6567H22.8565C23.237 22.6567 23.5472 22.3517 23.5537 21.9712C23.5605 21.582 23.6727 21.2912 23.8965 21.0825C24.131 20.864 24.4485 20.7577 24.8672 20.7577C25.2612 20.7577 25.548 20.8597 25.7432 21.0695C25.952 21.2937 26.0535 21.6182 26.0535 22.0615C26.0535 22.296 26.0255 22.5025 25.9705 22.6747C25.9152 22.8472 25.8365 23.007 25.736 23.1497C25.6552 23.2642 25.4385 23.5195 24.8637 24.085C24.2982 24.641 23.9322 25.1297 23.7447 25.5795C23.5592 26.0237 23.4632 26.572 23.4517 27.255V27.2552C23.445 27.645 23.7592 27.9647 24.149 27.9647H25.0392C25.4245 27.9647 25.7367 27.6525 25.7367 27.2672V27.267C25.7367 26.5667 25.9322 26.076 26.3557 25.7192C27.1057 25.0302 27.6087 24.4285 27.8935 23.88C28.1885 23.3112 28.3382 22.6942 28.3382 22.0462C28.3387 21.0032 28.0205 20.1533 27.3927 19.5195Z" fill="#EF5A9D"/>
<path d="M47.375 42.9579C48.63 41.0974 49.3625 38.8556 49.3625 36.4426C49.3625 29.9994 44.1392 24.7759 37.6957 24.7759C31.2522 24.7759 26.029 29.9991 26.029 36.4426C26.029 42.8859 31.2522 48.1094 37.6957 48.1094C40.1262 48.1094 42.3827 47.3654 44.2512 46.0936L49.1125 47.8281L47.375 42.9579Z" fill="#1CAEE4"/>
<path d="M49.3625 36.4426C49.3625 36.0201 49.3387 35.6034 49.295 35.1926C48.671 41.0479 43.7167 45.6094 37.6957 45.6094C31.6747 45.6094 26.7205 41.0481 26.0965 35.1926C26.0527 35.6034 26.029 36.0201 26.029 36.4426C26.029 42.8859 31.2522 48.1094 37.6957 48.1094C40.1265 48.1094 42.383 47.3654 44.2517 46.0934L44.2515 46.0936L49.1125 47.8279L45.6825 44.9426C47.9465 42.8146 49.3625 39.7949 49.3625 36.4426Z" fill="#009ADD"/>
<path d="M32.0082 38.3801C32.8022 38.3801 33.4458 37.7365 33.4458 36.9426C33.4458 36.1487 32.8022 35.5051 32.0082 35.5051C31.2143 35.5051 30.5707 36.1487 30.5707 36.9426C30.5707 37.7365 31.2143 38.3801 32.0082 38.3801Z" fill="#009ADD"/>
<path d="M37.6957 38.3801C38.4896 38.3801 39.1332 37.7365 39.1332 36.9426C39.1332 36.1487 38.4896 35.5051 37.6957 35.5051C36.9018 35.5051 36.2582 36.1487 36.2582 36.9426C36.2582 37.7365 36.9018 38.3801 37.6957 38.3801Z" fill="#009ADD"/>
<path d="M43.3832 38.3801C44.1772 38.3801 44.8207 37.7365 44.8207 36.9426C44.8207 36.1487 44.1772 35.5051 43.3832 35.5051C42.5893 35.5051 41.9457 36.1487 41.9457 36.9426C41.9457 37.7365 42.5893 38.3801 43.3832 38.3801Z" fill="#009ADD"/>
<path d="M32.0082 37.8801C32.8022 37.8801 33.4458 37.2365 33.4458 36.4426C33.4458 35.6487 32.8022 35.0051 32.0082 35.0051C31.2143 35.0051 30.5707 35.6487 30.5707 36.4426C30.5707 37.2365 31.2143 37.8801 32.0082 37.8801Z" fill="white"/>
<path d="M37.6957 37.8801C38.4896 37.8801 39.1332 37.2365 39.1332 36.4426C39.1332 35.6487 38.4896 35.0051 37.6957 35.0051C36.9018 35.0051 36.2582 35.6487 36.2582 36.4426C36.2582 37.2365 36.9018 37.8801 37.6957 37.8801Z" fill="white"/>
<path d="M43.3832 37.8801C44.1772 37.8801 44.8207 37.2365 44.8207 36.4426C44.8207 35.6487 44.1772 35.0051 43.3832 35.0051C42.5893 35.0051 41.9457 35.6487 41.9457 36.4426C41.9457 37.2365 42.5893 37.8801 43.3832 37.8801Z" fill="white"/>
</svg>
