<svg width="48" height="48" viewBox="0 0 48 48" fill="none" xmlns="http://www.w3.org/2000/svg">
<g clip-path="url(#clip0_12165_13705)">
<path d="M40.1177 22.1259H7.88238L7.13275 20.6266L7.88238 19.1272H40.1177L40.8673 20.6266L40.1177 22.1259Z" fill="#656D78"/>
<g opacity="0.2">
<path d="M40.4771 19.1272H7.44757V19.8769H40.4771V19.1272Z" fill="black"/>
</g>
<g opacity="0.2">
<path d="M40.4771 21.3762H7.44757V22.1258H40.4771V21.3762Z" fill="black"/>
</g>
<path d="M38.6183 0.385742C37.3759 0.385742 36.3694 1.39234 36.3694 2.63471V3.38443H40.8674V2.63471C40.8673 1.39243 39.8607 0.385742 38.6183 0.385742Z" fill="#F6BB42"/>
<g opacity="0.2">
<path d="M38.6183 0.385742C37.3759 0.385742 36.3694 1.39234 36.3694 2.63471V3.38443C36.3694 2.14205 37.3759 1.13546 38.6183 1.13546C39.8607 1.13546 40.8673 2.14205 40.8673 3.38443V2.63471C40.8673 1.39243 39.8607 0.385742 38.6183 0.385742Z" fill="black"/>
</g>
<path d="M14.6293 0.385742H38.6182C37.3737 0.385742 36.3693 1.39018 36.3693 2.63471V20.6266V22.1258H12.3803V20.6266V2.63471C12.3803 1.39018 13.3848 0.385742 14.6293 0.385742Z" fill="#FFCE54"/>
<path d="M11.6307 25.8742C7.8824 25.8742 7.44759 26.6239 7.44759 26.6239L7.19278 26.5866L7.30556 25.8297C7.62037 23.79 9.56915 22.126 11.6307 22.126H12.3803H36.3693C38.4308 22.126 40.3796 23.79 40.6944 25.8297L40.8072 26.5866L40.5524 26.6239C40.5524 26.6239 39.3679 25.8742 35.6197 25.8742C31.8714 25.8742 28.8728 28.1232 24 28.1232C19.1272 28.1232 15.3789 25.8742 11.6307 25.8742Z" fill="#82878E"/>
<path d="M11.6307 25.8742C7.8824 25.8742 7.44759 26.6239 7.44759 26.6239L7.19278 26.5866L7.30556 25.8297C7.62037 23.79 9.56915 22.126 11.6307 22.126H12.3803H36.3693C38.4308 22.126 40.3796 23.79 40.6944 25.8297L40.8072 26.5866L40.5524 26.6239C40.5524 26.6239 39.3679 25.8742 35.6197 25.8742C31.8714 25.8742 28.8728 28.1232 24 28.1232C19.1272 28.1232 15.3789 25.8742 11.6307 25.8742Z" fill="#82878E"/>
<g opacity="0.2">
<path d="M8.80481 25.8297C9.11963 23.79 11.0685 22.126 13.13 22.126H12.3803H11.6306C9.56906 22.126 7.62028 23.79 7.30547 25.8297L7.19269 26.5866L7.4475 26.6239C7.4475 26.6239 7.63416 26.3134 8.76591 26.0916L8.80481 25.8297Z" fill="white"/>
</g>
<g opacity="0.2">
<path d="M39.2252 25.8297C38.9105 23.79 36.9615 22.126 34.9 22.126H35.6496H36.3993C38.4608 22.126 40.4096 23.79 40.7244 25.8297L40.8372 26.5866L40.5824 26.6239C40.5824 26.6239 40.3957 26.3134 39.264 26.0916L39.2252 25.8297Z" fill="black"/>
</g>
<path d="M8.09979 45.3654H39.9001C41.7216 45.3654 43.0415 44.0682 43.1089 42.3668H43.1162V44.6158C43.0415 46.317 41.7216 47.6144 39.9001 47.6144H8.09979C6.27842 47.6144 4.95842 46.317 4.8837 44.6158V42.3667H4.89101C4.95842 44.0682 6.27842 45.3654 8.09979 45.3654Z" fill="#434A54"/>
<path d="M30.7469 34.1203C30.7469 33.7082 30.2448 33.3707 29.6225 33.3707C29.0002 33.3707 28.498 33.7082 28.498 34.1203C28.498 34.5324 29.0002 34.87 29.6225 34.87C30.2448 34.87 30.7469 34.5325 30.7469 34.1203ZM31.4965 31.8713C32.1189 31.8713 32.6211 31.5338 32.6211 31.1217C32.6211 30.7096 32.1189 30.3721 31.4965 30.3721C30.8743 30.3721 30.3721 30.7096 30.3721 31.1217C30.3721 31.5338 30.8743 31.8713 31.4965 31.8713ZM31.4965 37.8686C32.1189 37.8686 32.6211 37.5311 32.6211 37.119C32.6211 36.7068 32.1189 36.3693 31.4965 36.3693C30.8743 36.3693 30.3721 36.7068 30.3721 37.119C30.3721 37.5311 30.8743 37.8686 31.4965 37.8686ZM34.4952 34.1203C34.4952 33.7082 33.993 33.3707 33.3707 33.3707C32.7484 33.3707 32.2462 33.7082 32.2462 34.1203C32.2462 34.5324 32.7484 34.87 33.3707 34.87C33.993 34.87 34.4952 34.5325 34.4952 34.1203ZM35.2448 36.3692C34.6225 36.3692 34.1204 36.7067 34.1204 37.1189C34.1204 37.531 34.6225 37.8685 35.2448 37.8685C35.8672 37.8685 36.3693 37.531 36.3693 37.1189C36.3693 36.7067 35.8672 36.3692 35.2448 36.3692ZM35.2448 31.8713C35.8672 31.8713 36.3693 31.5338 36.3693 31.1217C36.3693 30.7096 35.8672 30.3721 35.2448 30.3721C34.6225 30.3721 34.1204 30.7096 34.1204 31.1217C34.1204 31.5338 34.6226 31.8713 35.2448 31.8713ZM35.9945 34.1203C35.9945 34.5324 36.4967 34.87 37.1189 34.87C37.7412 34.87 38.2434 34.5324 38.2434 34.1203C38.2434 33.7082 37.7412 33.3707 37.1189 33.3707C36.4968 33.3707 35.9945 33.7082 35.9945 34.1203ZM19.5021 34.1203C19.5021 33.7082 18.9998 33.3707 18.3775 33.3707C17.7552 33.3707 17.2531 33.7082 17.2531 34.1203C17.2531 34.5324 17.7552 34.87 18.3775 34.87C18.9998 34.87 19.5021 34.5325 19.5021 34.1203ZM21.3762 37.119C21.3762 36.7068 20.8741 36.3693 20.2518 36.3693C19.6295 36.3693 19.1272 36.7068 19.1272 37.119C19.1272 37.5311 19.6295 37.8686 20.2518 37.8686C20.8741 37.8686 21.3762 37.5311 21.3762 37.119ZM20.2518 31.8713C20.8741 31.8713 21.3762 31.5338 21.3762 31.1217C21.3762 30.7096 20.8741 30.3721 20.2518 30.3721C19.6295 30.3721 19.1272 30.7096 19.1272 31.1217C19.1272 31.5338 19.6295 31.8713 20.2518 31.8713ZM23.2504 34.1203C23.2504 33.7082 22.7482 33.3707 22.1258 33.3707C21.5035 33.3707 21.0013 33.7082 21.0013 34.1203C21.0013 34.5324 21.5035 34.87 22.1258 34.87C22.7482 34.87 23.2504 34.5325 23.2504 34.1203ZM22.8756 31.1217C22.8756 31.5338 23.3777 31.8713 24 31.8713C24.6223 31.8713 25.1244 31.5338 25.1244 31.1217C25.1244 30.7096 24.6223 30.3721 24 30.3721C23.3778 30.3721 22.8756 30.7095 22.8756 31.1217ZM25.1244 37.119C25.1244 36.7068 24.6223 36.3693 24 36.3693C23.3778 36.3693 22.8756 36.7068 22.8756 37.119C22.8756 37.5311 23.3777 37.8686 24 37.8686C24.6223 37.8686 25.1244 37.5311 25.1244 37.119ZM26.9986 34.1203C26.9986 33.7082 26.4965 33.3707 25.8742 33.3707C25.2518 33.3707 24.7496 33.7082 24.7496 34.1203C24.7496 34.5324 25.2518 34.87 25.8742 34.87C26.4965 34.87 26.9986 34.5325 26.9986 34.1203ZM28.8728 31.1217C28.8728 30.7096 28.3706 30.3721 27.7483 30.3721C27.126 30.3721 26.6239 30.7096 26.6239 31.1217C26.6239 31.5338 27.126 31.8713 27.7483 31.8713C28.3706 31.8713 28.8728 31.5338 28.8728 31.1217ZM27.7482 36.3692C27.1259 36.3692 26.6238 36.7067 26.6238 37.1189C26.6238 37.531 27.1259 37.8685 27.7482 37.8685C28.3705 37.8685 28.8727 37.531 28.8727 37.1189C28.8727 36.7067 28.3705 36.3692 27.7482 36.3692ZM8.09981 45.3652C6.27843 45.3652 4.95843 44.068 4.89103 42.3666C4.8764 42.1345 4.89103 41.9017 4.92834 41.6616L7.19268 26.5864L7.4475 26.6237C7.4475 26.6237 7.88231 25.874 11.6306 25.874C15.3788 25.874 19.1272 28.123 23.9999 28.123C28.8727 28.123 31.8713 25.874 35.6196 25.874C39.3678 25.874 40.5523 26.6237 40.5523 26.6237L40.8071 26.5864L43.0715 41.6616C43.1087 41.9017 43.1234 42.1345 43.1087 42.3666C43.0414 44.068 41.7215 45.3652 39.8999 45.3652H8.09981ZM10.881 34.87C11.5033 34.87 12.0055 34.5324 12.0055 34.1203C12.0055 33.7082 11.5033 33.3707 10.881 33.3707C10.2588 33.3707 9.75647 33.7082 9.75647 34.1203C9.75647 34.5324 10.2588 34.87 10.881 34.87ZM13.8797 37.119C13.8797 36.7068 13.3775 36.3693 12.7552 36.3693C12.1328 36.3693 11.6307 36.7068 11.6307 37.119C11.6307 37.5311 12.1328 37.8686 12.7552 37.8686C13.3775 37.8686 13.8797 37.5311 13.8797 37.119ZM12.7552 31.8713C13.3775 31.8713 13.8797 31.5338 13.8797 31.1217C13.8797 30.7096 13.3775 30.3721 12.7552 30.3721C12.1328 30.3721 11.6307 30.7096 11.6307 31.1217C11.6307 31.5338 12.1328 31.8713 12.7552 31.8713ZM14.6293 33.3707C14.007 33.3707 13.5048 33.7082 13.5048 34.1203C13.5048 34.5324 14.007 34.87 14.6293 34.87C15.2516 34.87 15.7537 34.5324 15.7537 34.1203C15.7537 33.7082 15.2516 33.3707 14.6293 33.3707ZM16.5035 36.3692C15.8812 36.3692 15.3789 36.7067 15.3789 37.1189C15.3789 37.531 15.8812 37.8685 16.5035 37.8685C17.1258 37.8685 17.628 37.531 17.628 37.1189C17.628 36.7067 17.1258 36.3692 16.5035 36.3692ZM15.3789 31.1217C15.3789 31.5338 15.8812 31.8713 16.5035 31.8713C17.1258 31.8713 17.628 31.5338 17.628 31.1217C17.628 30.7096 17.1258 30.3721 16.5035 30.3721C15.8812 30.3721 15.3789 30.7095 15.3789 31.1217ZM31.4965 39.3679H16.5035C15.8812 39.3679 15.3789 39.7054 15.3789 40.1176C15.3789 40.5297 15.8812 40.8673 16.5035 40.8673H31.4965C32.1189 40.8673 32.6211 40.5297 32.6211 40.1176C32.6211 39.7054 32.1189 39.3679 31.4965 39.3679Z" fill="#656D78"/>
<g opacity="0.2">
<path d="M35.2448 31.4966C35.8671 31.4966 36.3692 31.8341 36.3692 32.2462C36.3692 32.6583 35.8671 32.9959 35.2448 32.9959C34.6225 32.9959 34.1204 32.6583 34.1204 32.2462C34.1204 31.8341 34.6226 31.4966 35.2448 31.4966Z" fill="black"/>
<path d="M37.119 34.4951C37.7413 34.4951 38.2435 34.8327 38.2435 35.2448C38.2435 35.657 37.7413 35.9945 37.119 35.9945C36.4968 35.9945 35.9945 35.657 35.9945 35.2448C35.9945 34.8327 36.4968 34.4951 37.119 34.4951Z" fill="black"/>
<path d="M35.2448 37.4939C35.8671 37.4939 36.3692 37.8315 36.3692 38.2435C36.3692 38.6556 35.8671 38.9932 35.2448 38.9932C34.6225 38.9932 34.1204 38.6556 34.1204 38.2435C34.1204 37.8314 34.6226 37.4939 35.2448 37.4939Z" fill="black"/>
<path d="M33.3707 34.4951C33.993 34.4951 34.4952 34.8327 34.4952 35.2448C34.4952 35.657 33.993 35.9945 33.3707 35.9945C32.7483 35.9945 32.2462 35.657 32.2462 35.2448C32.2462 34.8327 32.7483 34.4951 33.3707 34.4951Z" fill="black"/>
<path d="M31.4965 31.4966C32.1189 31.4966 32.621 31.8341 32.621 32.2462C32.621 32.6583 32.1189 32.9959 31.4965 32.9959C30.8743 32.9959 30.3721 32.6583 30.3721 32.2462C30.3721 31.8341 30.8743 31.4966 31.4965 31.4966Z" fill="black"/>
<path d="M27.7482 31.4966C28.3705 31.4966 28.8727 31.8341 28.8727 32.2462C28.8727 32.6583 28.3705 32.9959 27.7482 32.9959C27.1259 32.9959 26.6237 32.6583 26.6237 32.2462C26.6237 31.8341 27.126 31.4966 27.7482 31.4966Z" fill="black"/>
<path d="M29.6224 34.4951C30.2447 34.4951 30.7469 34.8327 30.7469 35.2448C30.7469 35.657 30.2447 35.9945 29.6224 35.9945C29.0001 35.9945 28.498 35.657 28.498 35.2448C28.498 34.8327 29.0001 34.4951 29.6224 34.4951Z" fill="black"/>
<path d="M32.621 38.2435C32.621 38.6556 32.1189 38.9932 31.4965 38.9932C30.8743 38.9932 30.3721 38.6556 30.3721 38.2435C30.3721 37.8314 30.8743 37.4939 31.4965 37.4939C32.1189 37.4939 32.621 37.8314 32.621 38.2435Z" fill="black"/>
<path d="M31.4965 40.4924C32.1189 40.4924 32.621 40.83 32.621 41.2421C32.621 41.6543 32.1189 41.9918 31.4965 41.9918H16.5034C15.8811 41.9918 15.3789 41.6543 15.3789 41.2421C15.3789 40.83 15.8811 40.4924 16.5034 40.4924H31.4965Z" fill="black"/>
<path d="M27.7482 37.4939C28.3705 37.4939 28.8727 37.8315 28.8727 38.2435C28.8727 38.6556 28.3705 38.9932 27.7482 38.9932C27.1259 38.9932 26.6237 38.6556 26.6237 38.2435C26.6237 37.8314 27.126 37.4939 27.7482 37.4939Z" fill="black"/>
<path d="M24 37.4939C24.6223 37.4939 25.1244 37.8315 25.1244 38.2435C25.1244 38.6556 24.6223 38.9932 24 38.9932C23.3777 38.9932 22.8755 38.6556 22.8755 38.2435C22.8755 37.8314 23.3777 37.4939 24 37.4939Z" fill="black"/>
<path d="M25.8741 34.4951C26.4964 34.4951 26.9986 34.8327 26.9986 35.2448C26.9986 35.657 26.4964 35.9945 25.8741 35.9945C25.2518 35.9945 24.7496 35.657 24.7496 35.2448C24.7496 34.8327 25.2519 34.4951 25.8741 34.4951Z" fill="black"/>
<path d="M24 31.4966C24.6223 31.4966 25.1244 31.8341 25.1244 32.2462C25.1244 32.6583 24.6223 32.9959 24 32.9959C23.3777 32.9959 22.8755 32.6583 22.8755 32.2462C22.8755 31.8341 23.3777 31.4966 24 31.4966Z" fill="black"/>
<path d="M22.1259 34.4951C22.7481 34.4951 23.2504 34.8327 23.2504 35.2448C23.2504 35.657 22.7482 35.9945 22.1259 35.9945C21.5036 35.9945 21.0014 35.657 21.0014 35.2448C21.0014 34.8327 21.5036 34.4951 22.1259 34.4951Z" fill="black"/>
<path d="M18.3776 34.4951C18.9999 34.4951 19.5021 34.8327 19.5021 35.2448C19.5021 35.657 18.9999 35.9945 18.3776 35.9945C17.7553 35.9945 17.2531 35.657 17.2531 35.2448C17.2531 34.8327 17.7553 34.4951 18.3776 34.4951Z" fill="black"/>
<path d="M20.2518 31.4966C20.8741 31.4966 21.3762 31.8341 21.3762 32.2462C21.3762 32.6583 20.8741 32.9959 20.2518 32.9959C19.6294 32.9959 19.1272 32.6583 19.1272 32.2462C19.1272 31.8341 19.6294 31.4966 20.2518 31.4966Z" fill="black"/>
<path d="M16.5034 31.4966C17.1257 31.4966 17.628 31.8341 17.628 32.2462C17.628 32.6583 17.1257 32.9959 16.5034 32.9959C15.8811 32.9959 15.3789 32.6583 15.3789 32.2462C15.3789 31.8341 15.8811 31.4966 16.5034 31.4966Z" fill="black"/>
<path d="M14.6293 34.4951C15.2516 34.4951 15.7537 34.8327 15.7537 35.2448C15.7537 35.657 15.2516 35.9945 14.6293 35.9945C14.007 35.9945 13.5048 35.657 13.5048 35.2448C13.5048 34.8327 14.0071 34.4951 14.6293 34.4951Z" fill="black"/>
<path d="M12.7551 31.4966C13.3774 31.4966 13.8796 31.8341 13.8796 32.2462C13.8796 32.6583 13.3774 32.9959 12.7551 32.9959C12.1328 32.9959 11.6307 32.6583 11.6307 32.2462C11.6307 31.8341 12.1328 31.4966 12.7551 31.4966Z" fill="black"/>
<path d="M10.881 34.4951C11.5033 34.4951 12.0055 34.8327 12.0055 35.2448C12.0055 35.657 11.5033 35.9945 10.881 35.9945C10.2588 35.9945 9.75644 35.657 9.75644 35.2448C9.75644 34.8327 10.2588 34.4951 10.881 34.4951Z" fill="black"/>
<path d="M12.7551 37.4939C13.3774 37.4939 13.8796 37.8315 13.8796 38.2435C13.8796 38.6556 13.3774 38.9932 12.7551 38.9932C12.1328 38.9932 11.6307 38.6556 11.6307 38.2435C11.6307 37.8314 12.1328 37.4939 12.7551 37.4939Z" fill="black"/>
<path d="M17.628 38.2435C17.628 38.6556 17.1257 38.9932 16.5034 38.9932C15.8811 38.9932 15.3789 38.6556 15.3789 38.2435C15.3789 37.8314 15.8811 37.4939 16.5034 37.4939C17.1257 37.4939 17.628 37.8314 17.628 38.2435Z" fill="black"/>
<path d="M20.2518 37.4939C20.8741 37.4939 21.3762 37.8315 21.3762 38.2435C21.3762 38.6556 20.8741 38.9932 20.2518 38.9932C19.6294 38.9932 19.1272 38.6556 19.1272 38.2435C19.1272 37.8314 19.6294 37.4939 20.2518 37.4939Z" fill="black"/>
</g>
<path d="M35.2448 30.3721C35.8671 30.3721 36.3692 30.7096 36.3692 31.1217C36.3692 31.5338 35.8671 31.8713 35.2448 31.8713C34.6225 31.8713 34.1204 31.5338 34.1204 31.1217C34.1204 30.7096 34.6226 30.3721 35.2448 30.3721Z" fill="#E6E9ED"/>
<path d="M37.119 33.3706C37.7413 33.3706 38.2435 33.7081 38.2435 34.1202C38.2435 34.5324 37.7413 34.8699 37.119 34.8699C36.4968 34.8699 35.9945 34.5324 35.9945 34.1202C35.9945 33.7081 36.4968 33.3706 37.119 33.3706Z" fill="#E6E9ED"/>
<path d="M35.2448 36.3691C35.8671 36.3691 36.3692 36.7066 36.3692 37.1188C36.3692 37.5309 35.8671 37.8684 35.2448 37.8684C34.6225 37.8684 34.1204 37.5309 34.1204 37.1188C34.1204 36.7066 34.6226 36.3691 35.2448 36.3691Z" fill="#E6E9ED"/>
<path d="M33.3707 33.3706C33.993 33.3706 34.4952 33.7081 34.4952 34.1202C34.4952 34.5324 33.993 34.8699 33.3707 34.8699C32.7483 34.8699 32.2462 34.5324 32.2462 34.1202C32.2462 33.7081 32.7483 33.3706 33.3707 33.3706Z" fill="#E6E9ED"/>
<path d="M31.4965 30.3721C32.1189 30.3721 32.621 30.7096 32.621 31.1217C32.621 31.5338 32.1189 31.8713 31.4965 31.8713C30.8743 31.8713 30.3721 31.5338 30.3721 31.1217C30.3721 30.7096 30.8743 30.3721 31.4965 30.3721Z" fill="#E6E9ED"/>
<path d="M27.7482 30.3721C28.3705 30.3721 28.8727 30.7096 28.8727 31.1217C28.8727 31.5338 28.3705 31.8713 27.7482 31.8713C27.1259 31.8713 26.6237 31.5338 26.6237 31.1217C26.6237 30.7096 27.126 30.3721 27.7482 30.3721Z" fill="#E6E9ED"/>
<path d="M29.6224 33.3706C30.2447 33.3706 30.7469 33.7081 30.7469 34.1202C30.7469 34.5324 30.2447 34.8699 29.6224 34.8699C29.0001 34.8699 28.498 34.5324 28.498 34.1202C28.498 33.7081 29.0001 33.3706 29.6224 33.3706Z" fill="#E6E9ED"/>
<path d="M32.621 37.119C32.621 37.5311 32.1189 37.8686 31.4965 37.8686C30.8743 37.8686 30.3721 37.5311 30.3721 37.119C30.3721 36.7069 30.8743 36.3694 31.4965 36.3694C32.1189 36.3693 32.621 36.7068 32.621 37.119Z" fill="#E6E9ED"/>
<path d="M31.4965 39.3679C32.1189 39.3679 32.621 39.7054 32.621 40.1175C32.621 40.5297 32.1189 40.8673 31.4965 40.8673H16.5034C15.8811 40.8673 15.3789 40.5297 15.3789 40.1175C15.3789 39.7054 15.8811 39.3679 16.5034 39.3679H31.4965Z" fill="#E6E9ED"/>
<path d="M27.7482 36.3691C28.3705 36.3691 28.8727 36.7066 28.8727 37.1188C28.8727 37.5309 28.3705 37.8684 27.7482 37.8684C27.1259 37.8684 26.6237 37.5309 26.6237 37.1188C26.6237 36.7066 27.126 36.3691 27.7482 36.3691Z" fill="#E6E9ED"/>
<path d="M24 36.3691C24.6223 36.3691 25.1244 36.7066 25.1244 37.1188C25.1244 37.5309 24.6223 37.8684 24 37.8684C23.3777 37.8684 22.8755 37.5309 22.8755 37.1188C22.8755 36.7066 23.3777 36.3691 24 36.3691Z" fill="#E6E9ED"/>
<path d="M25.8741 33.3706C26.4964 33.3706 26.9986 33.7081 26.9986 34.1202C26.9986 34.5324 26.4964 34.8699 25.8741 34.8699C25.2518 34.8699 24.7496 34.5324 24.7496 34.1202C24.7496 33.7081 25.2519 33.3706 25.8741 33.3706Z" fill="#E6E9ED"/>
<path d="M24 30.3721C24.6223 30.3721 25.1244 30.7096 25.1244 31.1217C25.1244 31.5338 24.6223 31.8713 24 31.8713C23.3777 31.8713 22.8755 31.5338 22.8755 31.1217C22.8755 30.7096 23.3777 30.3721 24 30.3721Z" fill="#E6E9ED"/>
<path d="M22.1259 33.3706C22.7481 33.3706 23.2504 33.7081 23.2504 34.1202C23.2504 34.5324 22.7482 34.8699 22.1259 34.8699C21.5036 34.8699 21.0014 34.5324 21.0014 34.1202C21.0014 33.7081 21.5036 33.3706 22.1259 33.3706Z" fill="#E6E9ED"/>
<path d="M18.3776 33.3706C18.9999 33.3706 19.5021 33.7081 19.5021 34.1202C19.5021 34.5324 18.9999 34.8699 18.3776 34.8699C17.7553 34.8699 17.2531 34.5324 17.2531 34.1202C17.2531 33.7081 17.7553 33.3706 18.3776 33.3706Z" fill="#E6E9ED"/>
<path d="M20.2518 30.3721C20.8741 30.3721 21.3762 30.7096 21.3762 31.1217C21.3762 31.5338 20.8741 31.8713 20.2518 31.8713C19.6294 31.8713 19.1272 31.5338 19.1272 31.1217C19.1272 30.7096 19.6294 30.3721 20.2518 30.3721Z" fill="#E6E9ED"/>
<path d="M16.5034 30.3721C17.1257 30.3721 17.628 30.7096 17.628 31.1217C17.628 31.5338 17.1257 31.8713 16.5034 31.8713C15.8811 31.8713 15.3789 31.5338 15.3789 31.1217C15.3789 30.7096 15.8811 30.3721 16.5034 30.3721Z" fill="#E6E9ED"/>
<path d="M14.6293 33.3706C15.2516 33.3706 15.7537 33.7081 15.7537 34.1202C15.7537 34.5324 15.2516 34.8699 14.6293 34.8699C14.007 34.8699 13.5048 34.5324 13.5048 34.1202C13.5048 33.7081 14.0071 33.3706 14.6293 33.3706Z" fill="#E6E9ED"/>
<path d="M12.7551 30.3721C13.3774 30.3721 13.8796 30.7096 13.8796 31.1217C13.8796 31.5338 13.3774 31.8713 12.7551 31.8713C12.1328 31.8713 11.6307 31.5338 11.6307 31.1217C11.6307 30.7096 12.1328 30.3721 12.7551 30.3721Z" fill="#E6E9ED"/>
<path d="M10.881 33.3706C11.5033 33.3706 12.0055 33.7081 12.0055 34.1202C12.0055 34.5324 11.5033 34.8699 10.881 34.8699C10.2588 34.8699 9.75644 34.5324 9.75644 34.1202C9.75644 33.7081 10.2588 33.3706 10.881 33.3706Z" fill="#E6E9ED"/>
<path d="M12.7551 36.3691C13.3774 36.3691 13.8796 36.7066 13.8796 37.1188C13.8796 37.5309 13.3774 37.8684 12.7551 37.8684C12.1328 37.8684 11.6307 37.5309 11.6307 37.1188C11.6307 36.7066 12.1328 36.3691 12.7551 36.3691Z" fill="#E6E9ED"/>
<path d="M17.628 37.119C17.628 37.5311 17.1257 37.8686 16.5034 37.8686C15.8811 37.8686 15.3789 37.5311 15.3789 37.119C15.3789 36.7069 15.8811 36.3694 16.5034 36.3694C17.1257 36.3694 17.628 36.7068 17.628 37.119Z" fill="#E6E9ED"/>
<path d="M20.2518 36.3691C20.8741 36.3691 21.3762 36.7066 21.3762 37.1188C21.3762 37.5309 20.8741 37.8684 20.2518 37.8684C19.6294 37.8684 19.1272 37.5309 19.1272 37.1188C19.1272 36.7066 19.6294 36.3691 20.2518 36.3691Z" fill="#E6E9ED"/>
<g opacity="0.2">
<path d="M40.8072 27.3361L40.6981 26.6026L40.5524 26.6238C40.5524 26.6238 39.3679 25.8741 35.6197 25.8741C31.8714 25.8741 28.8728 28.123 24 28.123C19.1272 28.123 15.3789 25.874 11.6307 25.874C7.8824 25.874 7.44759 26.6237 7.44759 26.6237L7.3019 26.6025L7.19278 27.336L7.44759 27.3733C7.44759 27.3733 7.8824 26.6236 11.6307 26.6236C15.3789 26.6236 19.1272 28.8726 24 28.8726C28.8728 28.8726 31.8714 26.6236 35.6197 26.6236C39.3679 26.6236 40.5524 27.3733 40.5524 27.3733L40.8072 27.3361Z" fill="black"/>
</g>
<g opacity="0.2">
<path d="M12.182 25.8938C11.9982 25.8836 11.8145 25.874 11.6307 25.874C11.8145 25.874 11.9982 25.8836 12.1812 25.8938C12.182 25.8938 12.182 25.8938 12.182 25.8938Z" fill="white"/>
<path d="M6.39046 42.3665C6.37584 42.1344 6.39046 41.9016 6.42778 41.6615L8.6504 26.8631C7.61737 27.0826 7.44759 27.3733 7.44759 27.3733L7.19278 27.336L7.3019 26.6025L7.44759 26.6237L7.19278 26.5864L4.92843 41.6616C4.89112 41.9017 4.8765 42.1345 4.89112 42.3666C4.95843 44.068 6.27843 45.3652 8.0999 45.3652H9.59925C7.77768 45.3652 6.45778 44.068 6.39046 42.3665Z" fill="white"/>
</g>
<g opacity="0.2">
<path d="M40.5525 26.6237H40.5532C40.5525 26.6222 40.1155 25.874 36.3701 25.874C36.3056 25.874 36.2406 25.8792 36.1761 25.8813C39.4828 25.951 40.5525 26.6237 40.5525 26.6237Z" fill="black"/>
<path d="M43.0723 41.6616L40.808 26.5864L40.6827 26.6047L40.6981 26.6026L40.8072 27.3361L40.5524 27.3734C40.5524 27.3734 40.2201 27.1669 39.3665 26.97L41.573 41.6615C41.6103 41.9016 41.625 42.1344 41.6103 42.3665C41.5429 44.0679 40.223 45.3651 38.4015 45.3651H39.9007C41.7223 45.3651 43.0422 44.0679 43.1095 42.3665C43.1242 42.1345 43.1096 41.9016 43.0723 41.6616Z" fill="black"/>
</g>
<g opacity="0.2">
<path d="M36.3693 21.3762H12.3803V22.1258H36.3693V21.3762Z" fill="black"/>
</g>
<g opacity="0.2">
<path d="M14.6293 1.13537H36.9513C37.3627 0.677867 37.9528 0.385742 38.6182 0.385742H14.6293C13.3848 0.385742 12.3803 1.39018 12.3803 2.63471V3.38443C12.3803 2.1398 13.3848 1.13537 14.6293 1.13537Z" fill="black"/>
</g>
<g opacity="0.5">
<path d="M12.3803 3.38438V21.3761H13.1301V2.63466C13.1301 2.20566 13.256 1.80966 13.4632 1.46851C12.816 1.8631 12.3803 2.56876 12.3803 3.38438Z" fill="white"/>
</g>
<g opacity="0.2">
<path d="M37.6608 0.606207C37.6732 0.600395 37.6842 0.592332 37.6967 0.586426C37.6842 0.592238 37.6732 0.600301 37.6608 0.606207Z" fill="black"/>
<path d="M38.0685 0.461182C38.0941 0.454619 38.1183 0.4429 38.1446 0.437744C38.1184 0.44365 38.0942 0.454619 38.0685 0.461182Z" fill="black"/>
<path d="M36.9513 1.1355H36.2016C35.8437 1.53375 35.6196 2.05575 35.6196 2.63484V21.3763H36.3693V2.63484C36.3693 2.05575 36.5933 1.53375 36.9513 1.1355Z" fill="black"/>
</g>
<path d="M39.9002 45.74H8.09979C6.10047 45.74 4.59382 44.3279 4.51619 42.3812C4.50082 42.1404 4.51469 41.8833 4.55791 41.6038L6.93494 25.7745C7.27685 23.5548 9.38378 21.751 11.6306 21.751H36.3692C38.616 21.751 40.7228 23.5548 41.0648 25.7724L43.4418 41.606C43.485 41.8834 43.4988 42.1404 43.4828 42.39C43.4061 44.3278 41.8995 45.74 39.9002 45.74ZM11.6307 22.5006C9.73816 22.5006 7.96441 24.0197 7.67594 25.8865L5.29882 41.7171C5.26366 41.9441 5.25269 42.1476 5.26516 42.3431C5.32591 43.8804 6.51775 44.9903 8.09979 44.9903H39.9001C41.4822 44.9903 42.674 43.8804 42.734 42.3518C42.7473 42.1475 42.7362 41.944 42.701 41.7193L40.324 25.8843C40.0356 24.0197 38.2618 22.5006 36.3693 22.5006H11.6307Z" fill="#3A3847"/>
<path d="M39.9002 47.989H8.0998C6.10489 47.989 4.59458 46.5775 4.50889 44.6316C4.50008 44.4252 4.66049 44.2501 4.86767 44.2406C5.0712 44.2289 5.24839 44.3922 5.25861 44.5994C5.32517 46.1286 6.52067 47.2393 8.0998 47.2393H39.9001C41.4793 47.2393 42.6748 46.1286 42.7414 44.5994C42.7509 44.3922 42.9208 44.2297 43.1323 44.2406C43.3395 44.2501 43.4998 44.4252 43.491 44.6316C43.4054 46.5775 41.8951 47.989 39.9002 47.989Z" fill="#3A3847"/>
<path d="M12.7551 32.2462C11.9148 32.2462 11.2559 31.752 11.2559 31.1218C11.2559 30.4915 11.9148 29.9973 12.7551 29.9973C13.5956 29.9973 14.2545 30.4915 14.2545 31.1218C14.2545 31.752 13.5956 32.2462 12.7551 32.2462ZM12.7551 30.7469C12.3042 30.7469 12.0055 30.9724 12.0055 31.1218C12.0055 31.2712 12.3042 31.4966 12.7551 31.4966C13.2062 31.4966 13.5049 31.2712 13.5049 31.1218C13.5049 30.9724 13.2062 30.7469 12.7551 30.7469Z" fill="#3A3847"/>
<path d="M14.6293 35.2448C13.7888 35.2448 13.1299 34.7507 13.1299 34.1203C13.1299 33.4899 13.7888 32.9958 14.6293 32.9958C15.4698 32.9958 16.1286 33.49 16.1286 34.1203C16.1286 34.7506 15.4698 35.2448 14.6293 35.2448ZM14.6293 33.7455C14.1783 33.7455 13.8797 33.9709 13.8797 34.1203C13.8797 34.2696 14.1784 34.4951 14.6293 34.4951C15.0802 34.4951 15.3789 34.2696 15.3789 34.1203C15.3789 33.9709 15.0803 33.7455 14.6293 33.7455Z" fill="#3A3847"/>
<path d="M18.3776 35.2448C17.5371 35.2448 16.8784 34.7507 16.8784 34.1203C16.8784 33.4899 17.5371 32.9958 18.3776 32.9958C19.2181 32.9958 19.877 33.49 19.877 34.1203C19.877 34.7506 19.2181 35.2448 18.3776 35.2448ZM18.3776 33.7455C17.9267 33.7455 17.628 33.9709 17.628 34.1203C17.628 34.2696 17.9267 34.4951 18.3776 34.4951C18.8286 34.4951 19.1273 34.2696 19.1273 34.1203C19.1273 33.9709 18.8285 33.7455 18.3776 33.7455Z" fill="#3A3847"/>
<path d="M22.1259 35.2448C21.2855 35.2448 20.6266 34.7507 20.6266 34.1203C20.6266 33.4899 21.2855 32.9958 22.1259 32.9958C22.9663 32.9958 23.6253 33.49 23.6253 34.1203C23.6253 34.7506 22.9663 35.2448 22.1259 35.2448ZM22.1259 33.7455C21.675 33.7455 21.3762 33.9709 21.3762 34.1203C21.3762 34.2696 21.675 34.4951 22.1259 34.4951C22.5769 34.4951 22.8756 34.2696 22.8756 34.1203C22.8756 33.9709 22.5769 33.7455 22.1259 33.7455Z" fill="#3A3847"/>
<path d="M25.8741 35.2448C25.0337 35.2448 24.3748 34.7507 24.3748 34.1203C24.3748 33.4899 25.0337 32.9958 25.8741 32.9958C26.7145 32.9958 27.3734 33.49 27.3734 34.1203C27.3734 34.7506 26.7145 35.2448 25.8741 35.2448ZM25.8741 33.7455C25.4231 33.7455 25.1244 33.9709 25.1244 34.1203C25.1244 34.2696 25.4232 34.4951 25.8741 34.4951C26.3251 34.4951 26.6238 34.2696 26.6238 34.1203C26.6238 33.9709 26.3251 33.7455 25.8741 33.7455Z" fill="#3A3847"/>
<path d="M29.6224 35.2448C28.782 35.2448 28.1232 34.7507 28.1232 34.1203C28.1232 33.4899 28.782 32.9958 29.6224 32.9958C30.4629 32.9958 31.1217 33.49 31.1217 34.1203C31.1217 34.7506 30.4629 35.2448 29.6224 35.2448ZM29.6224 33.7455C29.1714 33.7455 28.8728 33.9709 28.8728 34.1203C28.8728 34.2696 29.1715 34.4951 29.6224 34.4951C30.0734 34.4951 30.3721 34.2696 30.3721 34.1203C30.3721 33.9709 30.0734 33.7455 29.6224 33.7455Z" fill="#3A3847"/>
<path d="M33.3707 35.2448C32.5303 35.2448 31.8714 34.7507 31.8714 34.1203C31.8714 33.4899 32.5303 32.9958 33.3707 32.9958C34.2111 32.9958 34.87 33.49 34.87 34.1203C34.87 34.7506 34.2111 35.2448 33.3707 35.2448ZM33.3707 33.7455C32.9197 33.7455 32.6211 33.9709 32.6211 34.1203C32.6211 34.2696 32.9198 34.4951 33.3707 34.4951C33.8217 34.4951 34.1204 34.2696 34.1204 34.1203C34.1204 33.9709 33.8217 33.7455 33.3707 33.7455Z" fill="#3A3847"/>
<path d="M37.119 35.2448C36.2786 35.2448 35.6198 34.7507 35.6198 34.1203C35.6198 33.4899 36.2786 32.9958 37.119 32.9958C37.9595 32.9958 38.6183 33.49 38.6183 34.1203C38.6183 34.7506 37.9594 35.2448 37.119 35.2448ZM37.119 33.7455C36.6681 33.7455 36.3694 33.9709 36.3694 34.1203C36.3694 34.2696 36.6682 34.4951 37.119 34.4951C37.57 34.4951 37.8687 34.2696 37.8687 34.1203C37.8687 33.9709 37.5699 33.7455 37.119 33.7455Z" fill="#3A3847"/>
<path d="M10.881 35.2448C10.0406 35.2448 9.38165 34.7507 9.38165 34.1203C9.38165 33.4899 10.0405 32.9958 10.881 32.9958C11.7215 32.9958 12.3803 33.49 12.3803 34.1203C12.3803 34.7506 11.7215 35.2448 10.881 35.2448ZM10.881 33.7455C10.4301 33.7455 10.1313 33.9709 10.1313 34.1203C10.1313 34.2696 10.4301 34.4951 10.881 34.4951C11.3319 34.4951 11.6307 34.2696 11.6307 34.1203C11.6307 33.9709 11.332 33.7455 10.881 33.7455Z" fill="#3A3847"/>
<path d="M16.5035 32.2462C15.6631 32.2462 15.0041 31.752 15.0041 31.1218C15.0041 30.4915 15.663 29.9973 16.5035 29.9973C17.3439 29.9973 18.0028 30.4915 18.0028 31.1218C18.0028 31.752 17.3438 32.2462 16.5035 32.2462ZM16.5035 30.7469C16.0525 30.7469 15.7537 30.9724 15.7537 31.1218C15.7537 31.2712 16.0525 31.4966 16.5035 31.4966C16.9544 31.4966 17.2532 31.2712 17.2532 31.1218C17.2532 30.9724 16.9544 30.7469 16.5035 30.7469Z" fill="#3A3847"/>
<path d="M20.2518 32.2462C19.4113 32.2462 18.7524 31.752 18.7524 31.1218C18.7524 30.4915 19.4113 29.9973 20.2518 29.9973C21.0921 29.9973 21.751 30.4915 21.751 31.1218C21.751 31.752 21.0921 32.2462 20.2518 32.2462ZM20.2518 30.7469C19.8007 30.7469 19.502 30.9724 19.502 31.1218C19.502 31.2712 19.8007 31.4966 20.2518 31.4966C20.7027 31.4966 21.0014 31.2712 21.0014 31.1218C21.0014 30.9724 20.7027 30.7469 20.2518 30.7469Z" fill="#3A3847"/>
<path d="M24 32.2462C23.1596 32.2462 22.5007 31.752 22.5007 31.1218C22.5007 30.4915 23.1596 29.9973 24 29.9973C24.8405 29.9973 25.4992 30.4915 25.4992 31.1218C25.4992 31.752 24.8405 32.2462 24 32.2462ZM24 30.7469C23.549 30.7469 23.2504 30.9724 23.2504 31.1218C23.2504 31.2712 23.549 31.4966 24 31.4966C24.451 31.4966 24.7496 31.2712 24.7496 31.1218C24.7496 30.9724 24.451 30.7469 24 30.7469Z" fill="#3A3847"/>
<path d="M27.7482 32.2462C26.9078 32.2462 26.249 31.752 26.249 31.1218C26.249 30.4915 26.9078 29.9973 27.7482 29.9973C28.5887 29.9973 29.2476 30.4915 29.2476 31.1218C29.2476 31.752 28.5887 32.2462 27.7482 32.2462ZM27.7482 30.7469C27.2973 30.7469 26.9986 30.9724 26.9986 31.1218C26.9986 31.2712 27.2974 31.4966 27.7482 31.4966C28.1992 31.4966 28.4979 31.2712 28.4979 31.1218C28.498 30.9724 28.1992 30.7469 27.7482 30.7469Z" fill="#3A3847"/>
<path d="M31.4965 32.2462C30.6561 32.2462 29.9973 31.752 29.9973 31.1218C29.9973 30.4915 30.6561 29.9973 31.4965 29.9973C32.337 29.9973 32.9958 30.4915 32.9958 31.1218C32.9958 31.752 32.337 32.2462 31.4965 32.2462ZM31.4965 30.7469C31.0456 30.7469 30.7469 30.9724 30.7469 31.1218C30.7469 31.2712 31.0457 31.4966 31.4965 31.4966C31.9475 31.4966 32.2462 31.2712 32.2462 31.1218C32.2462 30.9724 31.9474 30.7469 31.4965 30.7469Z" fill="#3A3847"/>
<path d="M35.2448 32.2462C34.4044 32.2462 33.7455 31.752 33.7455 31.1218C33.7455 30.4915 34.4044 29.9973 35.2448 29.9973C36.0853 29.9973 36.7441 30.4915 36.7441 31.1218C36.7441 31.752 36.0853 32.2462 35.2448 32.2462ZM35.2448 30.7469C34.7938 30.7469 34.4952 30.9724 34.4952 31.1218C34.4952 31.2712 34.7939 31.4966 35.2448 31.4966C35.6958 31.4966 35.9945 31.2712 35.9945 31.1218C35.9945 30.9724 35.6959 30.7469 35.2448 30.7469Z" fill="#3A3847"/>
<path d="M12.7551 38.2435C11.9148 38.2435 11.2559 37.7493 11.2559 37.1191C11.2559 36.4888 11.9148 35.9946 12.7551 35.9946C13.5956 35.9946 14.2545 36.4888 14.2545 37.1191C14.2545 37.7493 13.5956 38.2435 12.7551 38.2435ZM12.7551 36.7443C12.3042 36.7443 12.0055 36.9697 12.0055 37.1191C12.0055 37.2685 12.3042 37.4939 12.7551 37.4939C13.2062 37.4939 13.5049 37.2685 13.5049 37.1191C13.5049 36.9697 13.2062 36.7443 12.7551 36.7443Z" fill="#3A3847"/>
<path d="M16.5035 38.2435C15.6631 38.2435 15.0041 37.7493 15.0041 37.1191C15.0041 36.4888 15.663 35.9946 16.5035 35.9946C17.3439 35.9946 18.0028 36.4888 18.0028 37.1191C18.0028 37.7493 17.3438 38.2435 16.5035 38.2435ZM16.5035 36.7443C16.0525 36.7443 15.7537 36.9697 15.7537 37.1191C15.7537 37.2685 16.0525 37.4939 16.5035 37.4939C16.9544 37.4939 17.2532 37.2685 17.2532 37.1191C17.2532 36.9697 16.9544 36.7443 16.5035 36.7443Z" fill="#3A3847"/>
<path d="M20.2518 38.2435C19.4113 38.2435 18.7524 37.7493 18.7524 37.1191C18.7524 36.4888 19.4113 35.9946 20.2518 35.9946C21.0921 35.9946 21.751 36.4888 21.751 37.1191C21.751 37.7493 21.0921 38.2435 20.2518 38.2435ZM20.2518 36.7443C19.8007 36.7443 19.502 36.9697 19.502 37.1191C19.502 37.2685 19.8007 37.4939 20.2518 37.4939C20.7027 37.4939 21.0014 37.2685 21.0014 37.1191C21.0014 36.9697 20.7027 36.7443 20.2518 36.7443Z" fill="#3A3847"/>
<path d="M24 38.2435C23.1596 38.2435 22.5007 37.7493 22.5007 37.1191C22.5007 36.4888 23.1596 35.9946 24 35.9946C24.8405 35.9946 25.4992 36.4888 25.4992 37.1191C25.4992 37.7493 24.8405 38.2435 24 38.2435ZM24 36.7443C23.549 36.7443 23.2504 36.9697 23.2504 37.1191C23.2504 37.2685 23.549 37.4939 24 37.4939C24.451 37.4939 24.7496 37.2685 24.7496 37.1191C24.7496 36.9697 24.451 36.7443 24 36.7443Z" fill="#3A3847"/>
<path d="M27.7482 38.2435C26.9078 38.2435 26.249 37.7493 26.249 37.1191C26.249 36.4888 26.9078 35.9946 27.7482 35.9946C28.5887 35.9946 29.2476 36.4888 29.2476 37.1191C29.2476 37.7493 28.5887 38.2435 27.7482 38.2435ZM27.7482 36.7443C27.2973 36.7443 26.9986 36.9697 26.9986 37.1191C26.9986 37.2685 27.2974 37.4939 27.7482 37.4939C28.1992 37.4939 28.4979 37.2685 28.4979 37.1191C28.498 36.9697 28.1992 36.7443 27.7482 36.7443Z" fill="#3A3847"/>
<path d="M31.4965 38.2435C30.6561 38.2435 29.9973 37.7493 29.9973 37.1191C29.9973 36.4888 30.6561 35.9946 31.4965 35.9946C32.337 35.9946 32.9958 36.4888 32.9958 37.1191C32.9958 37.7493 32.337 38.2435 31.4965 38.2435ZM31.4965 36.7443C31.0456 36.7443 30.7469 36.9697 30.7469 37.1191C30.7469 37.2685 31.0457 37.4939 31.4965 37.4939C31.9475 37.4939 32.2462 37.2685 32.2462 37.1191C32.2462 36.9697 31.9474 36.7443 31.4965 36.7443Z" fill="#3A3847"/>
<path d="M35.2448 38.2435C34.4044 38.2435 33.7455 37.7493 33.7455 37.1191C33.7455 36.4888 34.4044 35.9946 35.2448 35.9946C36.0853 35.9946 36.7441 36.4888 36.7441 37.1191C36.7441 37.7493 36.0853 38.2435 35.2448 38.2435ZM35.2448 36.7443C34.7938 36.7443 34.4952 36.9697 34.4952 37.1191C34.4952 37.2685 34.7939 37.4939 35.2448 37.4939C35.6958 37.4939 35.9945 37.2685 35.9945 37.1191C35.9945 36.9697 35.6959 36.7443 35.2448 36.7443Z" fill="#3A3847"/>
<path d="M31.4965 41.2421H16.5035C15.6631 41.2421 15.0041 40.748 15.0041 40.1176C15.0041 39.4872 15.663 38.9932 16.5035 38.9932H31.4965C32.337 38.9932 32.9959 39.4873 32.9959 40.1176C32.9959 40.7479 32.337 41.2421 31.4965 41.2421ZM16.5035 39.7428C16.0525 39.7428 15.7537 39.9683 15.7537 40.1176C15.7537 40.2669 16.0525 40.4924 16.5035 40.4924H31.4965C31.9476 40.4924 32.2462 40.2669 32.2462 40.1176C32.2462 39.9683 31.9475 39.7428 31.4965 39.7428H16.5035Z" fill="#3A3847"/>
<path d="M24 28.498C21.3528 28.498 19.0884 27.8632 16.898 27.2492C15.0634 26.7352 13.3306 26.249 11.6307 26.249C8.33922 26.249 7.75282 26.8421 7.74691 26.848C7.64229 27.0274 7.42479 27.0676 7.24694 26.9666C7.06835 26.8627 7.01922 26.6152 7.12319 26.4359C7.2506 26.2162 7.9526 25.4995 11.6307 25.4995C13.4338 25.4995 15.2149 25.9988 17.1008 26.5274C19.2414 27.1277 21.4553 27.7485 24 27.7485C26.5396 27.7485 28.5418 27.1292 30.4783 26.5303C32.1928 26.0003 33.8115 25.4995 35.6197 25.4995C39.4332 25.4995 40.7011 26.2741 40.7531 26.307C40.9281 26.4184 40.9801 26.6495 40.8695 26.8246C40.7582 26.9995 40.5284 27.0492 40.3549 26.9424C40.3256 26.9255 39.1344 26.249 35.6197 26.249C33.9249 26.249 32.3583 26.7337 30.6994 27.2463C28.8025 27.8332 26.6524 28.498 24 28.498Z" fill="#3A3847"/>
<path d="M40.1177 44.2406H7.88238C7.67529 44.2406 7.50757 44.0731 7.50757 43.8658C7.50757 43.6587 7.67529 43.491 7.88238 43.491H40.1177C40.3248 43.491 40.4925 43.6587 40.4925 43.8658C40.4925 44.0731 40.3248 44.2406 40.1177 44.2406Z" fill="#3A3847"/>
<path d="M7.88241 22.5007C7.24116 22.5007 6.75787 21.6946 6.75787 20.6266C6.75787 19.5584 7.24106 18.7524 7.88241 18.7524H10.881C11.0882 18.7524 11.2559 18.9201 11.2559 19.1273C11.2559 19.3344 11.0882 19.5021 10.881 19.5021H7.88241C7.80844 19.5021 7.50759 19.8638 7.50759 20.6266C7.50759 21.3894 7.80844 21.751 7.88241 21.751C8.08959 21.751 8.25731 21.9187 8.25731 22.1258C8.25731 22.333 8.08959 22.5007 7.88241 22.5007Z" fill="#3A3847"/>
<path d="M40.1177 22.5007C39.9104 22.5007 39.7428 22.333 39.7428 22.1258C39.7428 21.9187 39.9104 21.751 40.1177 21.751C40.1916 21.751 40.4925 21.3894 40.4925 20.6266C40.4925 19.8638 40.1916 19.5021 40.1177 19.5021H37.8687C37.6615 19.5021 37.4938 19.3344 37.4938 19.1273C37.4938 18.9201 37.6615 18.7524 37.8687 18.7524H40.1177C40.7589 18.7524 41.2421 19.5585 41.2421 20.6266C41.2421 21.6946 40.7589 22.5007 40.1177 22.5007Z" fill="#3A3847"/>
<path d="M7.13277 21.0014H6.75796C6.55077 21.0014 6.38315 20.8337 6.38315 20.6266C6.38315 20.4194 6.55077 20.2517 6.75796 20.2517H7.13277C7.33996 20.2517 7.50768 20.4194 7.50768 20.6266C7.50759 20.8337 7.33987 21.0014 7.13277 21.0014Z" fill="#3A3847"/>
<path d="M41.2421 21.0014H40.8673C40.6601 21.0014 40.4925 20.8337 40.4925 20.6266C40.4925 20.4194 40.6601 20.2517 40.8673 20.2517H41.2421C41.4493 20.2517 41.6169 20.4194 41.6169 20.6266C41.6169 20.8337 41.4493 21.0014 41.2421 21.0014Z" fill="#3A3847"/>
<path d="M26.6238 22.8755H21.3762C21.169 22.8755 21.0014 22.7077 21.0014 22.5005C21.0014 22.2934 21.169 22.1257 21.3762 22.1257H26.6238C26.831 22.1257 26.9986 22.2934 26.9986 22.5005C26.9986 22.7077 26.831 22.8755 26.6238 22.8755Z" fill="#3A3847"/>
<path d="M12.3803 21.0015C12.1731 21.0015 12.0055 20.8338 12.0055 20.6267V2.63482C12.0055 2.42773 12.1731 2.26001 12.3803 2.26001C12.5875 2.26001 12.7551 2.42773 12.7551 2.63482V20.6267C12.7551 20.8338 12.5875 21.0015 12.3803 21.0015Z" fill="#3A3847"/>
<path d="M40.8673 3.75935C40.6601 3.75935 40.4925 3.59173 40.4925 3.38454V2.63482C40.4925 2.42773 40.6601 2.26001 40.8673 2.26001C41.0745 2.26001 41.2421 2.42773 41.2421 2.63482V3.38454C41.2421 3.59173 41.0745 3.75935 40.8673 3.75935Z" fill="#3A3847"/>
<path d="M36.3693 21.0015C36.1621 21.0015 35.9944 20.8338 35.9944 20.6267V2.63482C35.9944 2.42773 36.1621 2.26001 36.3693 2.26001C36.5764 2.26001 36.7441 2.42773 36.7441 2.63482V20.6267C36.7442 20.8338 36.5764 21.0015 36.3693 21.0015Z" fill="#3A3847"/>
<path d="M38.6183 0.760611H14.6293C14.4221 0.760611 14.2545 0.592986 14.2545 0.385799C14.2545 0.178611 14.4221 0.0109863 14.6293 0.0109863H38.6182C38.8254 0.0109863 38.993 0.178611 38.993 0.385799C38.993 0.592986 38.8255 0.760611 38.6183 0.760611Z" fill="#3A3847"/>
<path d="M40.8673 3.75939H37.119C36.9119 3.75939 36.7442 3.59177 36.7442 3.38458C36.7442 3.17739 36.9119 3.00977 37.119 3.00977H40.8673C41.0745 3.00977 41.2421 3.17739 41.2421 3.38458C41.2421 3.59177 41.0745 3.75939 40.8673 3.75939Z" fill="#3A3847"/>
<path d="M12.3803 3.00967C12.1731 3.00967 12.0055 2.84195 12.0055 2.63477C12.0055 1.18821 13.1827 0.0109863 14.6293 0.0109863C14.8365 0.0109863 15.0041 0.178611 15.0041 0.385799C15.0041 0.592986 14.8365 0.760611 14.6293 0.760611C13.5956 0.760611 12.7551 1.60108 12.7551 2.63477C12.7551 2.84195 12.5875 3.00967 12.3803 3.00967Z" fill="#3A3847"/>
<path d="M36.3693 3.00967C36.1621 3.00967 35.9944 2.84195 35.9944 2.63477C35.9944 1.18821 37.1717 0.0109863 38.6182 0.0109863C38.8254 0.0109863 38.993 0.178611 38.993 0.385799C38.993 0.592986 38.8254 0.760611 38.6182 0.760611C37.5845 0.760611 36.7441 1.60108 36.7441 2.63477C36.7442 2.84195 36.5764 3.00967 36.3693 3.00967Z" fill="#3A3847"/>
<path d="M40.8673 3.00967C40.6601 3.00967 40.4925 2.84195 40.4925 2.63477C40.4925 1.60108 39.652 0.760611 38.6183 0.760611C38.4112 0.760611 38.2435 0.592986 38.2435 0.385799C38.2435 0.178611 38.4112 0.0109863 38.6183 0.0109863C40.065 0.0109863 41.2421 1.18821 41.2421 2.63477C41.2421 2.84195 41.0745 3.00967 40.8673 3.00967Z" fill="#3A3847"/>
<path d="M32.621 5.25851H16.1286C15.9214 5.25851 15.7537 5.09079 15.7537 4.8836C15.7537 4.67651 15.9214 4.50879 16.1286 4.50879H32.621C32.8282 4.50879 32.9958 4.67651 32.9958 4.8836C32.9958 5.09088 32.8282 5.25851 32.621 5.25851Z" fill="#3A3847"/>
<path d="M32.621 8.25729H16.1286C15.9214 8.25729 15.7537 8.08957 15.7537 7.88238C15.7537 7.67529 15.9214 7.50757 16.1286 7.50757H32.621C32.8282 7.50757 32.9958 7.67529 32.9958 7.88238C32.9958 8.08957 32.8282 8.25729 32.621 8.25729Z" fill="#3A3847"/>
<path d="M32.621 11.2558H16.1286C15.9214 11.2558 15.7537 11.0881 15.7537 10.8809C15.7537 10.6738 15.9214 10.5061 16.1286 10.5061H32.621C32.8282 10.5061 32.9958 10.6738 32.9958 10.8809C32.9958 11.0881 32.8282 11.2558 32.621 11.2558Z" fill="#3A3847"/>
<path d="M32.621 14.2544H16.1286C15.9214 14.2544 15.7537 14.0866 15.7537 13.8795C15.7537 13.6724 15.9214 13.5046 16.1286 13.5046H32.621C32.8282 13.5046 32.9958 13.6724 32.9958 13.8795C32.9958 14.0867 32.8282 14.2544 32.621 14.2544Z" fill="#3A3847"/>
<path d="M24.3748 17.2531H16.1286C15.9214 17.2531 15.7537 17.0854 15.7537 16.8783C15.7537 16.6711 15.9214 16.5034 16.1286 16.5034H24.3748C24.582 16.5034 24.7496 16.6711 24.7496 16.8783C24.7496 17.0854 24.582 17.2531 24.3748 17.2531Z" fill="#3A3847"/>
<path d="M43.1162 44.9903C42.9091 44.9903 42.7414 44.8227 42.7414 44.6155V42.3665C42.7414 42.1593 42.9091 41.9917 43.1162 41.9917C43.3235 41.9917 43.491 42.1593 43.491 42.3665V44.6155C43.491 44.8227 43.3235 44.9903 43.1162 44.9903Z" fill="#3A3847"/>
<path d="M4.88378 44.9903C4.67669 44.9903 4.50897 44.8227 4.50897 44.6155V42.3665C4.50897 42.1593 4.67669 41.9917 4.88378 41.9917C5.09097 41.9917 5.25869 42.1593 5.25869 42.3665V44.6155C5.2586 44.8227 5.09097 44.9903 4.88378 44.9903Z" fill="#3A3847"/>
</g>
<defs>
<clipPath id="clip0_12165_13705">
<rect width="48" height="48" fill="white"/>
</clipPath>
</defs>
</svg>
