<svg width="64" height="64" viewBox="0 0 64 64" fill="none" xmlns="http://www.w3.org/2000/svg">
<path d="M60.0839 22.4208C57.4914 19.7807 54.0264 18.3267 50.3267 18.3267H49.1816C48.5884 18.3267 48.1077 18.8074 48.1077 19.4006C48.1077 19.9936 48.5883 20.4744 49.1816 20.4744H50.3267C53.4452 20.4744 56.3662 21.7002 58.5513 23.9256C60.7358 26.1506 61.9074 29.0948 61.8502 32.2164C61.7363 38.4526 56.3794 43.5258 49.9088 43.5258H32.0002C31.4072 43.5258 30.9263 44.0066 30.9263 44.5997C30.9263 45.1928 31.4071 45.6736 32.0002 45.6736H43.5259V50.3268C43.5259 53.4453 42.3002 56.3663 40.0748 58.5514C37.8499 60.7359 34.9037 61.9061 31.7839 61.8506C25.5479 61.7366 20.4746 56.3797 20.4746 49.9091V41.1636C20.4746 36.7031 24.1036 33.0741 28.5641 33.0741H35.4366C41.0813 33.0741 45.6737 28.4817 45.6737 22.8369V13.6737C45.6737 9.97419 44.2197 6.50894 41.5796 3.91657C38.9399 1.32494 35.4471 -0.0645578 31.7448 0.00256723C24.3462 0.138067 18.3271 6.45832 18.3271 14.0916V18.3268H13.6738C9.97432 18.3268 6.50907 19.7808 3.9167 22.4209C1.32507 25.0606 -0.0650497 28.5532 0.00270026 32.2557C0.1382 39.6543 6.45845 45.6734 14.0917 45.6734H14.8191C15.4121 45.6734 15.8929 45.1927 15.8929 44.5996C15.8929 44.0064 15.4122 43.5257 14.8191 43.5257H14.0917C7.62107 43.5257 2.2642 38.4523 2.15007 32.2163C2.09307 29.0948 3.2647 26.1503 5.4492 23.9254C7.63445 21.7001 10.5554 20.4743 13.6738 20.4743H32.0004C32.5936 20.4743 33.0743 19.9936 33.0743 19.4004C33.0743 18.8074 32.5937 18.3266 32.0004 18.3266H20.4747V14.0913C20.4747 7.62069 25.5481 2.26382 31.7841 2.14969C34.9064 2.09369 37.8502 3.26432 40.0749 5.44882C42.3004 7.63407 43.5261 10.5549 43.5261 13.6734V22.8367C43.5261 27.2972 39.8971 30.9262 35.4366 30.9262H28.5641C22.9193 30.9262 18.3269 35.5186 18.3269 41.1633V49.9088C18.3269 57.5422 24.3461 63.8624 31.7446 63.9977C31.8309 63.9993 31.9167 63.9999 32.0027 63.9999C35.6091 63.9999 39.0014 62.6148 41.5794 60.0837C44.2196 57.4913 45.6736 54.0263 45.6736 50.3266V45.6733H49.9091C57.5422 45.6733 63.8624 39.6542 63.9978 32.2557C64.0654 28.5533 62.6754 25.0604 60.0839 22.4208Z" fill="black"/>
</svg>
