<svg width="33" height="32" viewBox="0 0 33 32" fill="none" xmlns="http://www.w3.org/2000/svg">
<g clip-path="url(#clip0_11384_48272)">
<path fill-rule="evenodd" clip-rule="evenodd" d="M23.066 20.2495L19.831 19.641C19.28 19.538 18.913 18.978 19.01 18.3915C19.107 17.8045 19.6315 17.4135 20.1825 17.5165L23.7195 18.1815C24.901 18.4215 25.6815 19.561 25.4635 20.754C25.4585 20.781 25.45 20.805 25.445 20.8315C25.2815 21.418 25.0075 21.955 24.606 22.417C22.2985 25.0695 16.8265 24.3055 12.3845 20.709C7.942 17.114 6.211 12.0485 8.5195 9.3965C9.0685 8.7645 9.7995 8.331 10.6515 8.081C10.723 8.063 10.792 8.0375 10.8635 8.027C10.8635 8.027 10.8645 8.0255 10.866 8.0255C11.8285 7.8775 12.7885 8.4065 13.173 9.3335L14.4325 12.708C14.619 13.207 14.355 13.759 13.842 13.9405C13.3305 14.1225 12.7645 13.8655 12.578 13.3665L11.4205 10.2645C11.325 10.06 11.0935 9.953 10.875 10.027C10.555 10.1785 10.276 10.3785 10.052 10.6365C8.4545 12.473 10.0735 16.3215 13.67 19.2315C17.2665 22.1415 21.4775 23.013 23.0745 21.177C23.173 21.063 23.255 20.9405 23.3285 20.8125C23.3475 20.7765 23.3635 20.739 23.3705 20.6965C23.4035 20.4885 23.2675 20.297 23.066 20.2495ZM3.5 21C3.5 21.5525 3.0525 22 2.5 22C1.9475 22 1.5 21.5525 1.5 21C1.5 20.4475 1.9475 20 2.5 20C3.0525 20 3.5 20.4475 3.5 21ZM16.5 32C13.9875 32 11.614 31.4135 9.499 30.3805C9.4665 30.3665 9.435 30.3515 9.4045 30.337C9.374 30.3225 9.3425 30.309 9.312 30.2935C8.7265 30 8.0355 29.9115 7.3545 30.097C7.3415 30.1005 7.328 30.103 7.3145 30.1065L4.4125 30.9125C4.402 30.915 4.3895 30.915 4.3785 30.919C3.9955 31.0245 3.581 31.032 3.171 30.919C1.96 30.5865 1.2485 29.336 1.581 28.125C1.588 28.097 1.5905 28.076 1.5965 28.051L2.4445 25H2.5C2.5 24.4475 2.9475 24 3.5 24C4.0525 24 4.5 24.4475 4.5 25H4.5205L4.488 25.1175C4.476 25.2255 4.448 25.327 4.4035 25.4215L3.506 28.655C3.506 28.657 3.5095 28.6535 3.5095 28.656C3.4695 28.8015 3.5565 28.952 3.702 28.9905C3.7455 29.0025 3.7895 29.0025 3.829 28.9945C3.8315 28.9945 3.828 28.9995 3.829 28.9995L6.805 28.1725C6.811 28.1715 6.815 28.1715 6.821 28.1705C7.992 27.849 9.181 27.9945 10.1895 28.496C10.1995 28.501 10.211 28.5025 10.222 28.506C12.111 29.457 14.2405 30 16.5 30C24.2325 30 30.5 23.732 30.5 16C30.5 8.268 24.2325 2 16.5 2C8.768 2 2.5 8.268 2.5 16C2.5 16.2935 2.5145 16.5845 2.5325 16.8725L2.4875 16.8765C2.4925 16.9165 2.5 16.9575 2.5 17C2.5 17.5525 2.0525 18 1.5 18C0.9475 18 0.5 17.5525 0.5 17C0.5 16.924 0.51 16.8495 0.5265 16.7795C0.513 16.52 0.5 16.2615 0.5 16C0.5 7.1635 7.6635 0 16.5 0C25.3365 0 32.5 7.1635 32.5 16C32.5 24.8365 25.3365 32 16.5 32Z" fill="#25D366"/>
</g>
<defs>
<clipPath id="clip0_11384_48272">
<rect width="32" height="32" fill="white" transform="translate(0.5)"/>
</clipPath>
</defs>
</svg>
