<svg width="25" height="25" viewBox="0 0 25 25" fill="none" xmlns="http://www.w3.org/2000/svg">
<g clip-path="url(#clip0_5909_125378)">
<path d="M6.87421 12.6912C6.66683 12.6912 6.49921 12.5236 6.49921 12.3162V6.45605C6.49921 6.24868 6.66683 6.08105 6.87421 6.08105C7.08158 6.08105 7.24921 6.24868 7.24921 6.45605V12.3162C7.24921 12.5236 7.08158 12.6912 6.87421 12.6912Z" fill="#545C66"/>
<path d="M18.1196 12.6914C17.9122 12.6914 17.7446 12.5238 17.7446 12.3164V6.45557C17.7446 6.24819 17.9122 6.08057 18.1196 6.08057C18.3269 6.08057 18.4946 6.24819 18.4946 6.45557V12.3164C18.4946 12.5238 18.3269 12.6914 18.1196 12.6914Z" fill="#545C66"/>
<path d="M16.9992 13.817C16.7918 13.817 16.6242 13.6494 16.6242 13.442C16.6242 13.2347 16.7918 13.067 16.9992 13.067C17.4158 13.067 17.7552 12.728 17.7552 12.311C17.7552 12.1037 17.9228 11.936 18.1302 11.936C18.3376 11.936 18.5052 12.1037 18.5052 12.311C18.5052 13.1413 17.8295 13.817 16.9992 13.817Z" fill="#545C66"/>
<path d="M16.9913 13.8125H7.99768C7.79031 13.8125 7.62268 13.6449 7.62268 13.4375C7.62268 13.2301 7.79031 13.0625 7.99768 13.0625H16.9909C17.1983 13.0625 17.3659 13.2301 17.3659 13.4375C17.3659 13.6449 17.1983 13.8125 16.9913 13.8125Z" fill="#545C66"/>
<path d="M7.99807 13.817C7.16782 13.817 6.49207 13.1413 6.49207 12.311C6.49207 12.1037 6.65969 11.936 6.86707 11.936C7.07444 11.936 7.24207 12.1037 7.24207 12.311C7.24207 12.7277 7.58107 13.067 7.99807 13.067C8.20544 13.067 8.37307 13.2347 8.37307 13.442C8.37307 13.6494 8.20544 13.817 7.99807 13.817Z" fill="#545C66"/>
<path d="M5.37125 17.8625C5.375 17.885 5.375 17.9112 5.375 17.9375C5.375 17.9638 5.375 17.99 5.37125 18.0162C5.33375 18.395 5.01125 18.6875 4.625 18.6875C4.2125 18.6875 3.875 18.3537 3.875 17.9375C3.875 17.525 4.2125 17.1875 4.625 17.1875C5.01125 17.1875 5.33375 17.4837 5.37125 17.8625Z" fill="#CCD1D9"/>
<path d="M13.625 17.1875C14.0412 17.1875 14.375 17.525 14.375 17.9375C14.375 18.35 14.0412 18.6875 13.625 18.6875C13.2125 18.6875 12.875 18.35 12.875 17.9375C12.875 17.525 13.2125 17.1875 13.625 17.1875Z" fill="#DA4453"/>
<path d="M5.3675 17.7838C5.37125 17.81 5.37125 17.8366 5.37125 17.8625C5.33338 17.4837 5.01125 17.1875 4.625 17.1875C4.2125 17.1875 3.875 17.525 3.875 17.9375C3.875 18.3537 4.2125 18.6875 4.625 18.6875C5.01125 18.6875 5.33375 18.395 5.37125 18.0162C5.37125 18.0425 5.37125 18.065 5.3675 18.0912C5.28875 18.8487 4.65125 19.4375 3.875 19.4375C3.04625 19.4375 2.375 18.7663 2.375 17.9375C2.375 17.1087 3.04625 16.4375 3.875 16.4375C4.65125 16.4375 5.28875 17.0263 5.3675 17.7838Z" fill="#AAB2BD"/>
<path d="M12.125 19.6138C12.5225 19.97 13.0475 20.1875 13.625 20.1875C14.2025 20.1875 14.7275 19.97 15.125 19.6138V20.1875V22.8125L13.625 22.0625L12.125 22.8125V20.1875V19.6138Z" fill="#DA4453"/>
<path d="M12.125 20.1875H3.125C4.31375 20.1875 5.28875 19.2613 5.3675 18.0912C5.37125 18.065 5.37125 18.0425 5.37125 18.0162C5.375 17.99 5.375 17.9637 5.375 17.9375C5.375 17.9113 5.375 17.885 5.37125 17.8625C5.37125 17.8366 5.37125 17.81 5.3675 17.7838C5.28875 16.6138 4.31375 15.6875 3.125 15.6875H13.625C12.3837 15.6875 11.375 16.6962 11.375 17.9375C11.375 18.6012 11.6637 19.2013 12.125 19.6138V20.1875Z" fill="#E6E9ED"/>
<path d="M13.625 15.6875C14.87 15.6875 15.875 16.6962 15.875 17.9375C15.875 18.6012 15.5862 19.2013 15.125 19.6138C14.7275 19.97 14.2025 20.1875 13.625 20.1875C13.0475 20.1875 12.5225 19.97 12.125 19.6138C11.6637 19.2013 11.375 18.6012 11.375 17.9375C11.375 16.6962 12.3837 15.6875 13.625 15.6875ZM14.375 17.9375C14.375 17.525 14.0412 17.1875 13.625 17.1875C13.2125 17.1875 12.875 17.525 12.875 17.9375C12.875 18.35 13.2125 18.6875 13.625 18.6875C14.0412 18.6875 14.375 18.35 14.375 17.9375Z" fill="#ED5565"/>
<path d="M15.125 19.6138C15.5863 19.2013 15.875 18.6012 15.875 17.9375C15.875 16.6962 14.87 15.6875 13.625 15.6875H21.875C23.1163 15.6875 24.125 16.6962 24.125 17.9375C24.125 19.1788 23.1163 20.1875 21.875 20.1875H15.125V19.6138Z" fill="#E6E9ED"/>
<path d="M3.125 15.6875C4.31375 15.6875 5.28875 16.6138 5.3675 17.7838C5.28875 17.0263 4.65125 16.4375 3.875 16.4375C3.04625 16.4375 2.375 17.1087 2.375 17.9375C2.375 18.7663 3.04625 19.4375 3.875 19.4375C4.65125 19.4375 5.28875 18.8487 5.3675 18.0912C5.28875 19.2613 4.31375 20.1875 3.125 20.1875C1.88375 20.1875 0.875 19.1788 0.875 17.9375C0.875 16.6962 1.88375 15.6875 3.125 15.6875Z" fill="#CCD1D9"/>
<path d="M6.875 6.08L1.625 4.8125L12.4963 2.1875L23.3675 4.8125L18.1213 6.08L12.4963 7.4375L6.875 6.08Z" fill="#656D78"/>
<path d="M18.1209 12.3126H18.1284C18.1284 12.9351 17.6259 13.4413 16.9997 13.4413L16.9922 13.4376H7.99594V13.4413C7.37344 13.4413 6.87094 12.9388 6.86719 12.3163H6.87469V6.08008L12.4959 7.43758L18.1209 6.08008V12.3126Z" fill="#545C66"/>
<path d="M12.4944 8.18816C12.4648 8.18816 12.4355 8.18441 12.4067 8.17766L1.53804 5.55266C1.36967 5.51216 1.25079 5.36141 1.25079 5.18816C1.25079 5.01491 1.36929 4.86453 1.53804 4.82366L12.4067 2.19791C12.4644 2.18403 12.5244 2.18403 12.5825 2.19791L23.4564 4.82366C23.6248 4.86416 23.7437 5.01491 23.7437 5.18816C23.7437 5.36141 23.6252 5.51178 23.4564 5.55266L12.5825 8.17766C12.5537 8.18441 12.524 8.18816 12.4944 8.18816ZM3.22292 5.18816L12.4948 7.42766L21.7708 5.18816L12.4944 2.94791L3.22292 5.18816Z" fill="#656D78"/>
<path d="M23.3742 8.56798C23.1668 8.56798 22.9992 8.40035 22.9992 8.19298V5.18848C22.9992 4.9811 23.1668 4.81348 23.3742 4.81348C23.5816 4.81348 23.7492 4.9811 23.7492 5.18848V8.19298C23.7492 8.39998 23.5816 8.56798 23.3742 8.56798Z" fill="#FFCE54"/>
<path d="M23.368 5.56348H12.4941C12.2868 5.56348 12.1191 5.39585 12.1191 5.18848C12.1191 4.9811 12.2868 4.81348 12.4941 4.81348H23.368C23.5754 4.81348 23.743 4.9811 23.743 5.18848C23.743 5.39585 23.5754 5.56348 23.368 5.56348Z" fill="#FFCE54"/>
</g>
<defs>
<clipPath id="clip0_5909_125378">
<rect width="24" height="24" fill="white" transform="translate(0.5 0.5)"/>
</clipPath>
</defs>
</svg>
