<svg width="48" height="49" viewBox="0 0 48 49" fill="none" xmlns="http://www.w3.org/2000/svg">
<path d="M45 1.85211H3C2.17157 1.85211 1.5 2.52368 1.5 3.35211V45.3521C1.5 46.1805 2.17157 46.8521 3 46.8521H45C45.8284 46.8521 46.5 46.1805 46.5 45.3521V3.35211C46.5 2.52368 45.8284 1.85211 45 1.85211Z" fill="#FFE082"/>
<path d="M39 37.8521H34.5C34.5 37.4543 34.342 37.0728 34.0607 36.7915C33.7794 36.5101 33.3978 36.3521 33 36.3521C32.6022 36.3521 32.2206 36.5101 31.9393 36.7915C31.658 37.0728 31.5 37.4543 31.5 37.8521H9C8.60218 37.8521 8.22064 38.0101 7.93934 38.2915C7.65804 38.5728 7.5 38.9543 7.5 39.3521C7.5 39.7499 7.65804 40.1315 7.93934 40.4128C8.22064 40.6941 8.60218 40.8521 9 40.8521H39C39.3978 40.8521 39.7794 40.6941 40.0607 40.4128C40.342 40.1315 40.5 39.7499 40.5 39.3521C40.5 38.9543 40.342 38.5728 40.0607 38.2915C39.7794 38.0101 39.3978 37.8521 39 37.8521Z" fill="#FFB74D"/>
<path d="M30 20.8721L20.25 15.2471C20.0226 15.1158 19.7648 15.0465 19.5023 15.0461C19.2397 15.0457 18.9817 15.1143 18.7539 15.2448C18.5261 15.3754 18.3366 15.5635 18.2043 15.7903C18.072 16.0171 18.0016 16.2746 18 16.5371V27.8021C18.0016 28.0647 18.072 28.3222 18.2043 28.549C18.3366 28.7757 18.5261 28.9638 18.7539 29.0944C18.9817 29.225 19.2397 29.2935 19.5023 29.2931C19.7648 29.2927 20.0226 29.2234 20.25 29.0921L30 23.4671C30.2273 23.3353 30.416 23.146 30.5471 22.9183C30.6783 22.6906 30.7473 22.4324 30.7473 22.1696C30.7473 21.9068 30.6783 21.6487 30.5471 21.421C30.416 21.1932 30.2273 21.004 30 20.8721Z" fill="#039BE5"/>
</svg>
