<svg width="352" height="285" viewBox="0 0 352 285" fill="none" xmlns="http://www.w3.org/2000/svg">
<g clip-path="url(#clip0_11404_79863)">
<path d="M231.616 159.135C224.19 163.588 210.96 169.169 197.441 163.434L188.701 159.727L206.214 140.095C192.239 124.686 184.508 104.622 184.529 83.8195C184.55 63.0169 192.323 42.9689 206.329 27.5885C220.336 12.2081 239.572 2.59927 260.281 0.637556C280.991 -1.32415 301.689 4.50205 318.334 16.979C334.98 29.4559 346.378 47.688 350.305 68.1165C354.232 88.545 350.405 109.704 339.572 127.463C328.738 145.222 311.676 158.306 291.715 164.163C271.754 170.019 250.326 168.226 231.616 159.135V159.135ZM198.061 83.7726C198.022 93.3621 199.968 102.856 203.777 111.657C207.585 120.458 213.174 128.375 220.191 134.912L225.021 139.451L214.001 151.805C219.741 150.64 224.741 147.534 227.276 145.731L230.755 143.256L234.496 145.311C244.837 150.973 256.438 153.941 268.227 153.94C306.917 153.94 338.394 122.463 338.394 83.7726C338.394 45.0825 306.917 13.6057 268.227 13.6057C229.537 13.6057 198.061 45.0825 198.061 83.7726V83.7726Z" fill="#3F3D56"/>
<path d="M191.258 83.7726C191.258 41.2633 225.718 6.80273 268.228 6.80273C310.737 6.80273 345.197 41.2633 345.197 83.7726C345.197 126.282 310.737 160.742 268.227 160.742C255.29 160.761 242.559 157.504 231.22 151.274C225.899 155.06 212.92 162.61 200.097 157.171L215.532 139.869C207.859 132.68 201.745 123.991 197.57 114.342C193.394 104.692 191.246 94.287 191.258 83.7726Z" fill="#FFCC00"/>
<path opacity="0.1" d="M332.085 83.9395C332.085 43.7233 301.24 10.7168 261.918 7.27238C264.16 7.07599 266.428 6.96973 268.721 6.96973C311.23 6.96973 345.691 41.4303 345.691 83.9395C345.691 126.449 311.23 160.909 268.721 160.909C266.432 160.909 264.168 160.802 261.929 160.606C301.246 157.156 332.085 124.152 332.085 83.9395Z" fill="black"/>
<path d="M90.8593 266.063C71.627 266.072 52.9759 259.47 38.0319 247.364C23.0878 235.258 12.7589 218.383 8.77607 199.568C4.79327 180.752 7.39864 161.14 16.1556 144.016C24.9125 126.893 39.2888 113.301 56.8751 105.516C74.4615 97.7312 94.1892 96.2279 112.752 101.258C131.315 106.288 147.585 117.545 158.836 133.143C170.086 148.742 175.633 167.733 174.548 186.935C173.462 206.136 165.809 224.382 152.872 238.612L170.385 258.244L161.646 261.951C148.127 267.686 134.897 262.106 127.471 257.652C116.059 263.185 103.542 266.06 90.8593 266.063ZM90.8593 112.123C52.1693 112.123 20.6925 143.6 20.6925 182.29C20.6925 220.98 52.1693 252.457 90.8593 252.457C102.649 252.458 114.25 249.491 124.591 243.829L128.332 241.773L131.811 244.248C134.346 246.052 139.345 249.157 145.086 250.322L134.065 237.968L138.896 233.429C145.913 226.893 151.502 218.975 155.31 210.174C159.118 201.373 161.065 191.879 161.026 182.29C161.026 143.6 129.549 112.123 90.8593 112.123Z" fill="#3F3D56"/>
<path d="M167.829 182.29C167.829 139.781 133.369 105.32 90.8595 105.32C48.3504 105.32 13.8899 139.781 13.8899 182.29C13.8899 224.799 48.3504 259.26 90.8595 259.26C103.797 259.279 116.529 256.022 127.867 249.792C133.188 253.577 146.167 261.128 158.99 255.689L143.555 238.387C151.228 231.198 157.342 222.509 161.517 212.859C165.693 203.209 167.841 192.805 167.829 182.29Z" fill="#FFCC00"/>
<path opacity="0.1" d="M27.4956 181.901C27.4956 141.685 58.3404 108.679 97.6624 105.234C95.4204 105.038 93.1525 104.932 90.8595 104.932C48.3504 104.932 13.8899 139.392 13.8899 181.901C13.8899 224.411 48.3504 258.871 90.8595 258.871C93.149 258.871 95.413 258.764 97.6516 258.568C58.3348 255.118 27.4956 222.114 27.4956 181.901Z" fill="black"/>
<path d="M286.297 59.3198C281.261 50.8105 271.297 50.4139 271.297 50.4139C271.297 50.4139 261.589 49.1724 255.361 62.1322C249.556 74.2117 241.544 85.8748 254.071 88.7025L256.334 81.6599L257.735 89.2269C259.518 89.3551 261.308 89.3857 263.095 89.3185C276.51 88.8853 289.286 89.4452 288.875 84.6312C288.328 78.2316 291.142 67.5074 286.297 59.3198Z" fill="#2F2E41"/>
<path d="M253.356 133.839C253.208 134.775 252.993 135.699 252.713 136.604C252.398 137.491 251.912 138.31 251.623 139.205C250.705 142.059 251.978 145.241 254.012 147.444C255.775 149.346 258.052 150.698 260.566 151.336C262.418 151.732 264.306 151.93 266.199 151.928C271.434 152.105 276.804 152.264 281.765 150.582C283.332 150.037 284.846 149.349 286.287 148.527C286.742 148.31 287.143 147.995 287.46 147.603C287.793 147.03 287.941 146.368 287.884 145.708C287.873 143.488 287.423 141.28 287.53 139.064C287.589 137.836 287.819 136.609 287.705 135.385C287.549 133.994 286.967 132.687 286.038 131.64C285.11 130.593 283.88 129.859 282.519 129.538C281.111 129.236 279.652 129.401 278.219 129.539C274.5 129.896 270.766 130.063 267.03 130.039C263.212 130.015 259.419 129.432 255.621 129.371C254.497 129.353 254.52 129.699 254.162 130.786C253.833 131.787 253.564 132.806 253.356 133.839Z" fill="#2F2E41"/>
<path d="M264.188 79.0383C264.005 79.9988 263.807 80.9944 263.23 81.7838C262.565 82.6919 261.483 83.2108 260.768 84.0799C259.693 85.3881 259.631 87.229 259.627 88.9224C259.623 90.4824 259.654 92.1464 260.524 93.4413C261.143 94.2458 261.912 94.9233 262.788 95.4368C266.05 97.6354 269.576 99.8736 273.509 99.9461C275.139 99.9761 276.887 99.5552 277.959 98.3276C278.422 97.7509 278.786 97.1014 279.036 96.4055C280.042 93.9261 280.652 91.3041 280.843 88.6353C280.988 87.3807 280.871 86.1097 280.499 84.9027C280.021 83.5704 279.055 82.4742 278.416 81.211C277.662 79.7089 277.385 78.0115 277.625 76.3476C277.657 76.2304 277.647 76.1059 277.598 75.9951C277.545 75.9358 277.48 75.8895 277.406 75.8598C277.333 75.83 277.253 75.8177 277.175 75.8237L269.375 75.2622C268.649 75.2261 267.925 75.1433 267.209 75.0144C266.789 74.929 265.678 74.3318 265.278 74.4906C264.535 74.7845 264.341 78.2418 264.188 79.0383Z" fill="#A0616A"/>
<path opacity="0.1" d="M264.188 79.2824C264.005 80.2429 263.807 81.2386 263.23 82.0279C262.565 82.936 261.483 83.4549 260.768 84.324C259.693 85.6322 259.631 87.4731 259.627 89.1665C259.623 90.7266 259.654 92.3905 260.524 93.6855C261.143 94.4899 261.912 95.1674 262.788 95.6809C266.05 97.8796 269.576 100.118 273.509 100.19C275.139 100.22 276.887 99.7993 277.959 98.5717C278.422 97.995 278.786 97.3455 279.036 96.6496C280.042 94.1703 280.652 91.5482 280.843 88.8795C280.988 87.6249 280.871 86.3538 280.499 85.1469C280.021 83.8145 279.055 82.7183 278.416 81.4551C277.661 79.953 277.385 78.2556 277.625 76.5917C277.657 76.4745 277.647 76.35 277.598 76.2393C277.545 76.18 277.48 76.1337 277.406 76.1039C277.333 76.0742 277.253 76.0618 277.175 76.0678L269.375 75.5063C268.649 75.4702 267.925 75.3875 267.209 75.2586C266.789 75.1731 265.678 74.5759 265.278 74.7347C264.535 75.0287 264.341 78.4859 264.188 79.2824Z" fill="black"/>
<path d="M271.647 80.0841C277.967 80.0841 283.09 74.961 283.09 68.6412C283.09 62.3214 277.967 57.1982 271.647 57.1982C265.328 57.1982 260.205 62.3214 260.205 68.6412C260.205 74.961 265.328 80.0841 271.647 80.0841Z" fill="#A0616A"/>
<path d="M265.793 94.2708C266.359 94.9254 267.04 95.4699 267.803 95.8768C268.599 96.2057 269.453 96.3684 270.314 96.3549C272.377 96.4129 274.613 96.035 276.048 94.552C277.898 92.6405 277.837 89.5572 279.287 87.3271C279.403 87.1249 279.563 86.9506 279.754 86.8162C279.997 86.6838 280.272 86.6206 280.548 86.6335C282.379 86.6164 283.974 87.804 285.414 88.9357C286.092 89.402 286.673 89.9943 287.127 90.6803C287.411 91.2357 287.606 91.8327 287.704 92.449C288.419 95.9362 288.65 99.5018 288.88 103.054C289.006 105.016 289.133 106.98 289.124 108.946C289.093 115.424 287.587 121.793 286.09 128.095C285.897 128.907 285.633 129.815 284.895 130.204C284.565 130.352 284.212 130.438 283.852 130.458C279.563 130.962 275.266 131.466 270.949 131.533C269.264 131.559 267.58 131.518 265.897 131.41C265.607 131.406 265.32 131.356 265.046 131.262C264.674 131.083 264.354 130.812 264.118 130.474C261.783 127.531 261.645 123.463 261.66 119.706C261.696 110.521 262.024 101.344 262.644 92.1738C262.695 91.4169 262.706 90.4977 262.161 89.9022C263.223 91.476 264.44 92.9395 265.793 94.2708Z" fill="white"/>
<path d="M263.37 81.0578C262.983 81.7574 260.134 83.4946 259.584 84.0745C256.51 87.3141 250.901 87.1925 248.09 90.6624C247.101 91.8832 246.587 93.4172 246.209 94.9422C245.675 97.099 245.389 99.4513 246.285 101.485C247.146 103.442 248.96 104.795 250.191 106.543C251.543 108.462 252.151 110.793 252.734 113.067C253.164 114.746 253.597 116.467 253.43 118.192C253.239 120.154 252.29 121.95 251.73 123.839C251.169 125.729 251.072 127.979 252.368 129.464C253.32 130.555 254.814 130.988 256.241 131.231C258.069 131.506 259.913 131.666 261.761 131.712C263.392 131.784 265.191 131.798 266.445 130.752C267.435 129.926 267.865 128.587 267.921 127.299C267.977 126.012 267.709 124.736 267.541 123.458C267.367 122.134 267.3 120.797 267.244 119.463C266.993 113.474 266.959 107.481 267.141 101.484C267.233 100.238 267.172 98.985 266.96 97.7536C266.61 96.1494 265.743 94.7158 265.019 93.2419C263.573 90.4659 262.919 87.3459 263.126 84.2229C263.345 81.0134 264.745 78.5683 263.37 81.0578Z" fill="white"/>
<path d="M279.438 81.3014C280.027 81.9064 282.027 82.1059 282.776 82.4956C283.481 82.8209 284.216 83.0754 284.97 83.2552C287.702 84.0432 290.3 85.2357 292.678 86.793C293.173 87.0821 293.61 87.4595 293.967 87.9064C294.344 88.5198 294.587 89.206 294.68 89.92C295.047 91.7363 295.416 93.5744 295.333 95.4255C295.246 97.3905 294.654 99.2935 294.067 101.171L291.873 108.185C290.235 113.42 288.587 118.707 288.126 124.174C287.871 127.203 287.985 130.253 288.464 133.255C288.509 133.401 288.522 133.555 288.503 133.707C288.484 133.858 288.433 134.004 288.353 134.134C288.209 134.277 288.018 134.365 287.816 134.382C286.757 134.547 285.732 134.007 284.773 133.529C281.841 132.07 278.711 131.046 275.483 130.49C276.745 128.667 277.718 126.661 278.369 124.542C278.738 123.197 279.029 121.831 279.24 120.451L280.261 114.549C280.676 112.391 280.969 110.212 281.137 108.021C281.214 107.199 281.166 106.37 280.994 105.562C280.759 104.793 280.447 104.05 280.062 103.344C278.38 99.8457 277.591 95.853 278.253 92.0278C278.543 90.3537 279.105 88.6775 278.871 86.9948C278.645 85.3771 278.88 84.1198 278.464 82.5188C276.76 75.9452 278.331 80.1632 279.438 81.3014Z" fill="white"/>
<path d="M248.061 96.1951C247.294 97.7863 246.012 99.1419 245.576 100.854C245.406 101.653 245.333 102.471 245.359 103.288C245.283 104.52 245.405 105.756 245.72 106.949C245.964 107.704 246.36 108.4 246.645 109.14C247.043 110.174 247.22 111.28 247.166 112.386C247.089 113.919 246.568 115.407 246.527 116.941C246.463 119.353 247.579 121.621 248.668 123.775C248.942 123.097 249.361 122.486 249.896 121.986C250.43 121.486 251.068 121.109 251.763 120.882C252.459 120.654 253.196 120.581 253.923 120.668C254.65 120.755 255.349 120.999 255.971 121.384C256.22 121.078 256.339 120.686 256.3 120.293C256.381 117.494 256.458 114.695 256.533 111.895C256.651 107.566 256.763 103.18 255.767 98.965C255.318 97.0621 254.618 95.1665 253.336 93.6906C252.66 92.9134 250.368 90.8664 249.259 91.737C248.761 92.1285 248.877 93.1943 248.798 93.734C248.679 94.5871 248.43 95.417 248.061 96.1951Z" fill="white"/>
<path d="M295.557 91.6089C295.866 92.7563 295.998 93.944 295.949 95.1311C295.964 97.5508 295.932 99.9701 295.853 102.389C295.865 103.63 295.706 104.866 295.381 106.064C295.134 106.842 294.752 107.573 294.496 108.349C293.729 110.674 294.148 113.197 294.214 115.645C294.26 116.437 294.193 117.232 294.013 118.005C293.609 119.523 292.522 120.749 291.763 122.124C291.042 123.43 290.608 124.894 289.747 126.113C288.887 127.331 287.397 128.296 285.953 127.922C284.859 127.639 284.082 126.67 283.544 125.676C282.37 123.491 281.969 120.973 282.405 118.531C282.945 115.56 284.69 112.924 285.319 109.971C286.184 105.915 284.87 101.73 284.909 97.5829C284.891 96.9328 284.98 96.2843 285.17 95.6626C285.5 94.7154 286.209 93.959 286.864 93.1994C287.683 92.2501 288.443 91.2521 289.142 90.211C289.611 89.5116 290.247 87.7128 291.079 87.5633C292.935 87.2293 295.097 90.1748 295.557 91.6089Z" fill="white"/>
<path d="M238.429 132.035C237.403 131.777 236.345 131.665 235.287 131.701C234.176 131.762 233.09 132.06 232.103 132.573C231.115 133.087 230.248 133.805 229.56 134.679C228.871 135.553 228.376 136.564 228.109 137.645C227.841 138.725 227.806 139.85 228.007 140.945C228.263 142.131 228.682 143.276 229.252 144.347C230.085 146.038 231.085 147.725 232.627 148.809C233.556 149.405 234.557 149.881 235.606 150.227L243.73 153.287C244.925 153.737 246.12 154.188 247.327 154.605C253.391 156.701 259.713 157.958 266.117 158.341C268.066 158.523 270.031 158.424 271.952 158.045C272.416 157.984 272.841 157.755 273.146 157.399C273.301 157.13 273.392 156.828 273.413 156.518L273.913 153.018C274.025 152.531 274.01 152.023 273.871 151.543C273.642 150.954 273.068 150.584 272.52 150.27C267.179 147.202 260.943 145.51 256.447 141.3C255.389 140.309 254.503 138.737 253.217 138.064C251.759 137.301 250.042 136.865 248.535 136.161C245.24 134.623 242 132.856 238.429 132.035Z" fill="#2F2E41"/>
<path opacity="0.1" d="M246.54 136.753C249.412 137.653 261.535 143.887 263.613 146.064C263.335 146.164 253.884 140.868 253.601 140.783C251.001 140.069 248.456 139.172 245.983 138.098C245.49 137.87 242.784 136.8 242.906 136.178C243.044 135.477 246.03 136.594 246.54 136.753Z" fill="black"/>
<path d="M282.364 160.156C282.527 160.168 282.689 160.12 282.819 160.022C282.877 159.948 282.919 159.864 282.943 159.774C282.968 159.684 282.974 159.591 282.962 159.498L282.948 154.73C281.577 154.077 280.044 153.868 278.538 153.666L271.515 152.728C271.676 152.749 270.416 155.753 270.61 156.154C270.95 156.86 273.551 157.487 274.285 157.82C276.838 158.981 279.49 160.256 282.364 160.156Z" fill="#A0616A"/>
<path d="M260.328 154.714C259.001 154.925 257.521 155.111 256.662 156.144C255.573 157.453 256.037 159.404 256.557 161.026C256.588 161.235 256.662 161.436 256.772 161.617C256.883 161.797 257.029 161.954 257.201 162.077C257.373 162.2 257.568 162.287 257.775 162.334C257.981 162.38 258.195 162.385 258.403 162.347C259.613 162.424 260.9 162.484 261.956 161.89C262.435 161.574 262.896 161.232 263.337 160.864C264.116 160.346 264.972 159.954 265.874 159.704C267.532 159.183 269.239 158.831 270.968 158.654C271.65 158.623 272.324 158.504 272.975 158.301C273.3 158.196 273.597 158.018 273.842 157.78C274.087 157.542 274.274 157.25 274.388 156.929C274.633 156.062 274.13 155.179 273.647 154.419C273.09 153.424 272.368 152.531 271.511 151.779C270.202 150.762 269.554 151.543 268.236 152.193C265.741 153.425 263.075 154.274 260.328 154.714Z" fill="#A0616A"/>
<path d="M256.862 155.909L248.441 153.42C247.431 153.068 246.376 152.864 245.308 152.813C244.773 152.791 244.24 152.883 243.743 153.084C243.247 153.285 242.799 153.589 242.43 153.977C241.777 154.743 241.59 155.79 241.428 156.784L241.079 158.909C240.847 159.981 240.781 161.081 240.884 162.173C240.94 162.719 241.12 163.245 241.41 163.71C241.7 164.176 242.092 164.57 242.557 164.862C243.722 165.497 245.151 165.187 246.451 164.921C249.078 164.384 251.75 164.097 254.431 164.065C255.439 164.053 256.496 164.066 257.386 163.594C257.903 163.287 258.337 162.859 258.651 162.347C258.965 161.834 259.149 161.253 259.187 160.653C259.353 158.838 258.748 156.466 256.862 155.909Z" fill="#2F2E41"/>
<path d="M285.674 153.74C286.766 153.549 287.729 152.928 288.775 152.562C290.247 152.047 291.843 152.047 293.403 152.052C293.976 152 294.553 152.115 295.062 152.385C295.749 152.842 295.925 153.757 296.042 154.575L296.747 159.505C296.935 160.425 296.955 161.371 296.804 162.298C296.598 163.211 295.975 164.092 295.068 164.328C293.967 164.614 292.888 163.911 291.848 163.449C289.25 162.294 286.229 162.589 283.52 161.726C283.261 161.674 283.016 161.568 282.801 161.414C282.586 161.26 282.406 161.063 282.273 160.835C282.18 160.561 282.147 160.27 282.176 159.983C282.223 158.398 281.888 156.234 282.365 154.719C282.794 153.357 284.456 153.74 285.674 153.74Z" fill="#2F2E41"/>
<path d="M303.494 130.051C305.176 129.63 306.921 129.51 308.645 129.699C310.022 129.851 311.441 130.234 312.446 131.188C313.67 132.348 314.063 134.142 314.096 135.828C314.15 139.186 313.036 142.458 310.945 145.086C310.434 145.751 309.827 146.335 309.143 146.82C308.406 147.281 307.62 147.66 306.8 147.95L288.606 155.126C283.82 157.014 279.016 158.907 274.024 160.152C273.887 160.218 273.739 160.255 273.588 160.263C273.436 160.271 273.285 160.248 273.143 160.197C273 160.145 272.869 160.065 272.758 159.962C272.647 159.859 272.557 159.735 272.495 159.597C270.901 157.32 269.563 154.874 268.507 152.303C268.457 152.242 268.423 152.17 268.406 152.092C268.39 152.015 268.393 151.935 268.414 151.859C268.436 151.783 268.475 151.713 268.529 151.656C268.583 151.598 268.65 151.554 268.724 151.528L281.593 144.134C282.537 143.642 283.416 143.036 284.212 142.329C284.768 141.79 285.224 141.156 285.557 140.457C285.824 139.9 285.849 138.585 286.189 138.173C286.523 137.77 287.664 137.738 288.191 137.58C288.934 137.352 289.662 137.077 290.37 136.756C293.249 135.468 295.812 133.597 298.572 132.089C300.12 131.204 301.773 130.519 303.494 130.051Z" fill="#2F2E41"/>
<path opacity="0.1" d="M296.198 135.573C293.987 137.234 291.125 138.76 288.934 140.464C288.186 141.046 275.719 148.055 275.543 148.986C277.587 149.33 290.609 140.22 292.473 139.311C294.336 138.402 295.987 137.12 297.624 135.848C298.041 135.523 299.809 134.549 298.611 134.186C297.937 133.982 296.696 135.241 296.198 135.573Z" fill="black"/>
<path d="M280.986 81.4629H261.579C260.79 81.4629 260.034 81.7761 259.476 82.3337C258.919 82.8912 258.606 83.6474 258.606 84.4358V85.5245H258.395V87.9592H258.606V89.6634H258.395V91.1242H258.606V109.089C258.606 109.877 258.919 110.633 259.476 111.191C260.034 111.748 260.79 112.062 261.579 112.062H280.986C281.774 112.062 282.53 111.748 283.088 111.191C283.646 110.633 283.959 109.877 283.959 109.089V84.4358C283.959 83.6473 283.645 82.8912 283.088 82.3336C282.53 81.7761 281.774 81.4629 280.986 81.4629Z" fill="#D0CDE1"/>
<path d="M284.07 58.499L274.227 53.3428L260.634 55.4522L257.822 67.8735L264.822 67.6039L266.778 63.0407V67.5291L270.008 67.4048L271.883 60.1392L273.055 67.8735L284.539 67.639L284.07 58.499Z" fill="#2F2E41"/>
<path d="M250.636 128.442C251.081 129.199 251.714 129.829 252.473 130.27C252.971 130.498 253.515 130.608 254.062 130.594C254.61 130.579 255.147 130.439 255.632 130.186C256.601 129.666 257.394 128.871 257.911 127.9C258.981 126.011 259.202 123.751 259.069 121.584C258.935 119.417 258.473 117.283 258.268 115.122C258.119 113.551 258.107 111.971 258.095 110.393C258.058 110.061 258.128 109.726 258.294 109.436C258.58 109.152 258.95 108.967 259.349 108.909C261.508 108.268 262.941 106.244 263.969 104.24C264.655 102.901 265.251 101.438 265.119 99.9401C264.987 98.442 263.91 96.9328 262.414 96.78C261.18 96.654 260.041 97.4374 259.152 98.301C256.907 100.493 255.464 103.376 255.056 106.486C254.86 108.01 254.916 109.574 254.502 111.053C253.617 114.211 250.85 116.146 249.47 118.988C247.95 122.118 248.789 125.672 250.636 128.442Z" fill="#A0616A"/>
<path d="M291.366 116.379C291.052 117.112 290.593 117.773 290.019 118.326C289.444 118.878 288.764 119.309 288.02 119.595C287.095 119.966 286.074 120.029 285.111 119.773C284.633 119.64 284.192 119.399 283.823 119.069C283.453 118.738 283.165 118.327 282.98 117.867C282.833 117.403 282.752 116.921 282.74 116.435C282.601 114.306 282.655 112.112 283.428 110.123C283.727 109.356 284.129 108.628 284.364 107.84C284.596 106.929 284.714 105.993 284.717 105.054L284.971 99.244C285.013 98.8222 284.984 98.3963 284.885 97.9842C284.631 97.1436 283.845 96.5973 283.125 96.096C281.384 94.8853 279.663 93.4726 278.82 91.527C278.53 90.9413 278.426 90.2809 278.522 89.6345C278.76 88.4808 279.924 87.734 281.075 87.4824C281.828 87.3177 282.606 87.3072 283.363 87.4515C284.121 87.5957 284.841 87.8917 285.48 88.3217C286.12 88.7516 286.666 89.3066 287.085 89.9532C287.505 90.5998 287.789 91.3245 287.921 92.0839C288.035 92.7395 288.033 93.4092 288.1 94.0713C288.241 95.4758 288.687 96.8296 288.966 98.2134C289.653 101.622 289.297 105.145 289.976 108.553C290.544 111.402 292.686 113.262 291.366 116.379Z" fill="#A0616A"/>
<path d="M271.542 94.5324C272.887 94.5324 273.977 93.4424 273.977 92.0978C273.977 90.7531 272.887 89.6631 271.542 89.6631C270.197 89.6631 269.107 90.7531 269.107 92.0978C269.107 93.4424 270.197 94.5324 271.542 94.5324Z" fill="#FFCC00"/>
<path d="M7.18268 179.6C11.1492 179.6 14.3646 176.385 14.3646 172.418C14.3646 168.452 11.1492 165.236 7.18268 165.236C3.2162 165.236 0.000732422 168.452 0.000732422 172.418C0.000732422 176.385 3.2162 179.6 7.18268 179.6Z" fill="#2F2E41"/>
<path d="M33.2161 193.739L29.5987 190.223L22.3347 192.479L23.0324 200.89L37.9681 200.196L33.3798 193.962L33.2161 193.739Z" fill="#FBBEBE"/>
<path d="M25.3044 193.667C31.7171 193.667 36.9156 188.468 36.9156 182.056C36.9156 175.643 31.7171 170.444 25.3044 170.444C18.8916 170.444 13.6931 175.643 13.6931 182.056C13.6931 188.468 18.8916 193.667 25.3044 193.667Z" fill="#FBBEBE"/>
<path d="M97.3878 208.643C97.3878 208.643 111.652 233.157 115.047 236.837C116.662 238.648 118.382 240.362 120.198 241.971C120.198 241.971 118.602 247.264 116.06 247.075C114.612 246.988 113.191 246.638 111.867 246.042C111.867 246.042 110.733 243.101 108.754 241.812C106.775 240.522 90.6076 224.616 90.9855 219.533C91.3634 214.449 97.3878 208.643 97.3878 208.643Z" fill="#2F2E41"/>
<path d="M46.5869 243.625C46.5869 243.625 61.7962 255.43 82.4662 244.338L84.2475 243.027C84.2475 243.027 81.2414 249.79 80.9625 251.623C80.6391 253.749 72.8126 266.202 71.5354 266.799C70.2582 267.395 69.9768 267.946 69.9768 267.946L75.3968 273.911L77.4007 272.437C77.4007 272.437 85.2146 261.366 87.5001 259.341C89.7855 257.316 100.674 236.43 100.674 236.43C100.674 236.43 104.837 228.561 94.4476 227.969C84.0577 227.377 79.2767 230.209 79.2767 230.209L60.8373 233.138L46.5869 243.625Z" fill="#2F2E41"/>
<path d="M120.375 240.812L128.067 246.134C128.067 246.134 137.882 249.209 131.836 251.255C125.791 253.302 109.859 254.042 109.498 251.219C109.136 248.395 110.126 243.952 110.921 244.195C111.716 244.438 117.232 245.87 120.375 240.812Z" fill="#2F2E41"/>
<path d="M78.0813 270.608L79.5052 278.427C79.5052 278.427 83.5539 286.171 78.6927 283.768C73.8316 281.365 63.8163 272.239 65.2952 270.326C66.7741 268.413 70.0383 266.338 70.3698 266.962C70.7013 267.585 73.1547 271.759 78.0813 270.608Z" fill="#2F2E41"/>
<path d="M63.4128 235.705C63.4128 235.705 53.074 247.776 46.7971 244.844C40.5201 241.911 14.8401 207.949 17.7723 201.672C20.7046 195.395 21.6877 196.731 21.6877 196.731L34.9471 197.957L31.1321 191.84C31.1321 191.84 32.9134 190.529 34.6108 192.37C36.3082 194.21 43.1229 198.806 45.497 205.296C47.871 211.787 54.841 211.464 54.841 211.464L63.4128 235.705Z" fill="white"/>
<path d="M105.164 210.814L87.2425 229.839L71.1877 201.493L86.4504 183.053L105.164 210.814Z" fill="#3F3D56"/>
<path d="M103.812 210.608L87.6249 227.326L72.9568 201.564L86.4087 184.628L103.812 210.608Z" fill="white"/>
<path d="M86.3643 229.112L87.2424 229.839L86.6793 230.94L61.6188 238.398L61.3818 237.54L62.5219 236.361L86.3643 229.112Z" fill="#B3B3B3"/>
<path d="M87.4651 229.675L61.5142 237.789L45.6948 207.897L71.1878 201.493L87.4651 229.675Z" fill="#D0CDE1"/>
<path d="M85.5113 225.621L84.3978 226.44L72.041 204.984L73.3181 204.388L85.5113 225.621Z" fill="#3F3D56"/>
<path d="M82.9568 226.814L71.9791 230.087L59.5171 208.023L70.3774 205.522L82.9568 226.814Z" fill="#3F3D56"/>
<path d="M52.0303 210.443L54.3032 209.8C54.3032 209.8 66.9785 208.367 67.1635 212.349C67.3486 216.332 52.6018 214.484 52.6018 214.484L50.6355 211.812L52.0303 210.443Z" fill="#FBBEBE"/>
<path d="M63.1478 228.348L66.3114 227.05C66.3114 227.05 75.8608 222.769 73.1214 219.979C70.382 217.189 61.9334 222.034 61.9334 222.034L60.3159 223.568L63.1478 228.348Z" fill="#FBBEBE"/>
<path d="M60.3283 222.185C60.3283 222.185 65.4793 227.318 64.3072 228.524C63.1351 229.73 43.9148 245.591 39.1503 240.516C34.3858 235.441 11.1723 209.961 20.205 207.776C29.2378 205.591 31.6244 210.7 31.6244 210.7L43.5486 231.101L60.3283 222.185Z" fill="white"/>
<path d="M44.9047 206.59L53.3661 209.459L53.2279 215.568L44.2791 214.602L44.9047 206.59Z" fill="white"/>
<path opacity="0.2" d="M52.5312 225.349L43.4147 230.685L32.9988 214.666L43.0531 227.862L52.5312 225.349Z" fill="black"/>
<path d="M20.2079 192.513C27.8421 192.513 34.0308 186.324 34.0308 178.69C34.0308 171.056 27.8421 164.867 20.2079 164.867C12.5737 164.867 6.38501 171.056 6.38501 178.69C6.38501 186.324 12.5737 192.513 20.2079 192.513Z" fill="#2F2E41"/>
<path d="M94.8961 212.021L85.2173 197.862L89.3202 192.783L99.3773 207.35L94.8961 212.021Z" fill="#FFCC00"/>
<path d="M94.6234 217.713L79.8884 196.291L80.6152 195.413L95.2813 216.885L94.6234 217.713Z" fill="#E6E6E6"/>
<path d="M92.7248 219.798L77.9897 198.376L78.7165 197.498L93.3826 218.971L92.7248 219.798Z" fill="#E6E6E6"/>
<path d="M91.1073 221.331L76.3723 199.909L77.0991 199.031L91.7652 220.504L91.1073 221.331Z" fill="#E6E6E6"/>
<path d="M26.3293 169.461H30.6055C32.7705 169.461 34.8469 170.321 36.3779 171.852C37.9088 173.383 38.7689 175.459 38.7689 177.624H26.3293V169.461Z" fill="#2F2E41"/>
<path d="M85.2321 164.267L84.4569 164.209C84.4268 164.612 84.4053 165.018 84.3797 165.422L80.9001 165.305L84.5501 172.145L88.6493 165.565L85.1569 165.448C85.1819 165.054 85.2028 164.659 85.2321 164.267Z" fill="#3F3D56"/>
<path d="M105.641 108.515L106.259 108.987C107.186 107.773 108.154 106.561 109.137 105.384L108.54 104.886C107.55 106.071 106.575 107.292 105.641 108.515Z" fill="#3F3D56"/>
<path d="M111.596 101.388L112.17 101.912C113.202 100.782 114.273 99.6605 115.353 98.5773L114.802 98.0283C113.714 99.1194 112.635 100.25 111.596 101.388Z" fill="#3F3D56"/>
<path d="M118.153 94.8134L118.678 95.3862C119.806 94.3504 120.971 93.3273 122.14 92.3452L121.64 91.75C120.462 92.7393 119.289 93.7702 118.153 94.8134Z" fill="#3F3D56"/>
<path d="M100.334 116.142L100.991 116.558C101.809 115.265 102.667 113.972 103.542 112.714L102.904 112.27C102.022 113.537 101.157 114.84 100.334 116.142Z" fill="#3F3D56"/>
<path d="M125.258 88.843L125.731 89.4595C126.946 88.5267 128.196 87.6103 129.446 86.7356L129 86.0986C127.741 86.9799 126.482 87.9032 125.258 88.843Z" fill="#3F3D56"/>
<path d="M95.7207 124.212L96.412 124.567C97.1124 123.205 97.8531 121.84 98.6133 120.511L97.9383 120.125C97.1724 121.464 96.4262 122.839 95.7207 124.212Z" fill="#3F3D56"/>
<path d="M88.2217 146.096L87.4689 145.902C87.0847 147.394 86.729 148.915 86.4116 150.424L87.1724 150.584C87.4875 149.087 87.8405 147.577 88.2217 146.096Z" fill="#3F3D56"/>
<path d="M132.858 83.5228L133.276 84.1788C134.564 83.3588 135.889 82.5564 137.214 81.794L136.826 81.1201C135.491 81.8885 134.157 82.6967 132.858 83.5228Z" fill="#3F3D56"/>
<path d="M86.3239 155.114L85.5566 154.988C85.307 156.506 85.0878 158.053 84.905 159.585L85.6772 159.677C85.8585 158.156 86.0762 156.621 86.3239 155.114Z" fill="#3F3D56"/>
<path d="M91.8401 132.664L92.5602 132.957C93.1367 131.538 93.7534 130.112 94.3931 128.719L93.6866 128.395C93.042 129.798 92.4207 131.235 91.8401 132.664Z" fill="#3F3D56"/>
<path d="M88.7261 141.433L89.4698 141.66C89.9181 140.193 90.4053 138.717 90.918 137.273L90.1853 137.013C89.6689 138.467 89.1778 139.954 88.7261 141.433Z" fill="#3F3D56"/>
<path d="M185.451 68.0269C186.975 67.9741 188.527 67.953 190.062 67.9674L190.069 67.19C188.523 67.1755 186.959 67.1966 185.424 67.2498L185.451 68.0269Z" fill="#3F3D56"/>
<path d="M140.895 78.8967L141.252 79.5869C142.61 78.8834 144 78.2018 145.383 77.5608L145.057 76.8555C143.663 77.5012 142.262 78.188 140.895 78.8967Z" fill="#3F3D56"/>
<path d="M203.848 68.9964C205.364 69.2111 206.895 69.4624 208.397 69.7435L208.54 68.9794C207.027 68.6962 205.485 68.4428 203.956 68.2266L203.848 68.9964Z" fill="#3F3D56"/>
<path d="M212.909 70.6915C214.398 71.0393 215.901 71.4257 217.375 71.8401L217.585 71.0915C216.1 70.6741 214.587 70.285 213.086 69.9346L212.909 70.6915Z" fill="#3F3D56"/>
<path d="M221.783 73.1866C223.235 73.6655 224.697 74.1841 226.128 74.7281L226.404 74.0015C224.962 73.4533 223.49 72.9307 222.027 72.4482L221.783 73.1866Z" fill="#3F3D56"/>
<path d="M194.671 68.1093C196.202 68.1896 197.749 68.305 199.27 68.452L199.345 67.6783C197.813 67.53 196.254 67.4138 194.712 67.333L194.671 68.1093Z" fill="#3F3D56"/>
<path d="M176.169 67.9779L176.264 68.7497C177.779 68.5633 179.321 68.4078 180.849 68.2879L180.788 67.5127C179.249 67.6336 177.695 67.7902 176.169 67.9779Z" fill="#3F3D56"/>
<path d="M158.031 71.8672L158.261 72.6097C159.722 72.1574 161.213 71.7318 162.693 71.3448L162.496 70.5928C161.006 70.9825 159.503 71.4112 158.031 71.8672Z" fill="#3F3D56"/>
<path d="M149.303 75.0016L149.599 75.721C151.012 75.141 152.456 74.5857 153.89 74.0704L153.628 73.3389C152.182 73.8578 150.728 74.4174 149.303 75.0016Z" fill="#3F3D56"/>
<path d="M167.014 69.5177L167.177 70.2781C168.67 69.9579 170.193 69.6665 171.703 69.4123L171.574 68.6455C170.053 68.9018 168.518 69.1952 167.014 69.5177Z" fill="#3F3D56"/>
<path d="M237.728 79.535L233.384 73.1143L231.856 76.2589C231.486 76.0938 231.119 75.9251 230.749 75.7651L230.44 76.4788C230.801 76.6349 231.157 76.7986 231.516 76.9586L229.996 80.0883L237.728 79.535Z" fill="#3F3D56"/>
</g>
<defs>
<clipPath id="clip0_11404_79863">
<rect width="352" height="284.23" fill="white"/>
</clipPath>
</defs>
</svg>
