<svg width="22" height="64" viewBox="0 0 22 64" fill="none" xmlns="http://www.w3.org/2000/svg">
<path fill-rule="evenodd" clip-rule="evenodd" d="M20.4707 0.24501C20.3822 0.558897 20.0772 0.582983 20.0672 0.27687C20.061 0.0897867 20.0382 0.084052 19.926 0.241314C19.7489 0.489569 19.8308 0.540418 20.4351 0.557623C20.8688 0.569985 20.9219 0.5408 20.802 0.355119C20.7073 0.208434 20.7212 0.117442 20.8448 0.0742394C20.9595 0.0340955 20.9372 0.00644061 20.7851 0.000196005C20.6517 -0.00528396 20.5102 0.104825 20.4707 0.24501ZM21.3747 0.333327C21.2859 0.648106 21.4834 1.00532 21.596 0.733619C21.6348 0.640077 21.6177 0.451974 21.5581 0.315612C21.4532 0.0756409 21.4471 0.0762781 21.3747 0.333327ZM19.2006 0.701631C19.2111 0.8501 19.2469 0.880304 19.2919 0.778733C19.3327 0.686721 19.3249 0.576739 19.2747 0.534429C19.2245 0.492118 19.1912 0.567308 19.2006 0.701631ZM18.4933 1.10409C18.1117 1.32596 18.0673 1.71211 18.4104 1.82439C18.7718 1.94265 18.8237 1.91844 18.6296 1.72205C18.4895 1.58034 18.5132 1.50502 18.7419 1.36547C19.1583 1.11148 18.9169 0.857746 18.4933 1.10409ZM17.1416 2.01427C17.143 2.07621 16.9949 2.16555 16.8123 2.21295C16.491 2.29617 16.4899 2.30216 16.7795 2.40157C16.99 2.47382 17.0921 2.44999 17.1244 2.32102C17.1513 2.21385 17.2668 2.1695 17.4026 2.21385C17.5954 2.27706 17.6023 2.25705 17.443 2.09584C17.2248 1.87511 17.138 1.85166 17.1416 2.01427ZM15.374 2.66817C15.118 2.87743 14.8487 3.04871 14.7757 3.04871C14.7028 3.04871 14.6444 3.10606 14.646 3.17615C14.6476 3.24625 14.5613 3.30359 14.4544 3.30359C14.1587 3.30359 13.5919 3.81705 13.6801 4.00503C13.7236 4.09781 13.6266 4.20014 13.4595 4.23786C13.2362 4.28833 13.1872 4.37117 13.2645 4.56832C13.3457 4.77541 13.316 4.81441 13.1247 4.75183C12.8616 4.66568 12.2705 5.12919 11.8024 5.78869C11.6532 5.99897 11.4523 6.21434 11.3559 6.26736C11.2594 6.32038 11.1406 6.53537 11.0917 6.74526C11.0427 6.95516 10.9413 7.12682 10.8662 7.12682C10.791 7.12682 10.7315 7.21285 10.7339 7.31798C10.7363 7.42312 10.6714 7.50915 10.5898 7.50915C10.5083 7.50915 10.4434 7.59517 10.4458 7.70031C10.4482 7.80545 10.35 7.89147 10.2276 7.89147C10.0681 7.89147 10.0082 8.0314 10.0162 8.38569C10.0226 8.66937 9.93402 8.94732 9.80835 9.03844C9.68793 9.12574 9.59182 9.30479 9.59477 9.43631C9.59773 9.56796 9.5334 9.67564 9.45181 9.67564C9.37023 9.67564 9.30613 9.79378 9.30937 9.93805C9.31261 10.0823 9.25477 10.1687 9.18092 10.13C9.00214 10.0362 8.84514 10.4233 8.98598 10.6111C9.19641 10.8919 9.18385 11.1913 8.95327 11.3933C8.79499 11.5321 8.665 11.5562 8.54186 11.4698C8.40848 11.3761 8.36442 11.4551 8.37162 11.7755C8.37695 12.013 8.44725 12.1969 8.5278 12.1841C8.60821 12.1712 8.7019 12.261 8.73596 12.3838C8.76986 12.5065 8.72613 12.6068 8.63846 12.6068C8.55095 12.6068 8.4777 12.5359 8.47576 12.4494C8.47381 12.3627 8.34353 12.506 8.18623 12.7675C8.02894 13.0291 7.90153 13.3006 7.90311 13.3709C7.90469 13.4413 7.77506 13.6136 7.61503 13.7538C7.30182 14.0281 7.22947 14.5184 7.50197 14.5184C7.6153 14.5184 7.62238 14.5693 7.52395 14.6777C7.44158 14.7684 7.43327 14.9467 7.50462 15.0919C7.66814 15.4244 7.6864 15.6692 7.54639 15.6503C7.1515 15.5969 7.03867 15.6853 7.1302 15.9762C7.18403 16.1471 7.16157 16.3227 7.08037 16.3663C6.99917 16.4099 6.97672 16.5855 7.03055 16.7564C7.10563 16.9953 7.06942 17.0672 6.87376 17.0672C6.7137 17.0672 6.65115 17.135 6.70521 17.2501C6.75241 17.3508 6.71751 17.4543 6.62775 17.4801C6.53814 17.506 6.45786 17.782 6.44958 18.0936C6.44131 18.4054 6.38956 18.7892 6.33466 18.947C6.26568 19.1451 6.29513 19.2344 6.43029 19.2356C6.58341 19.2372 6.58145 19.262 6.42115 19.3502C6.29953 19.4172 6.25897 19.5531 6.32098 19.6854C6.38392 19.8192 6.32549 20.0047 6.17422 20.1514C5.97576 20.3439 5.95945 20.4434 6.09663 20.6264C6.22676 20.8 6.22728 20.8958 6.09857 21.0101C5.96681 21.1274 5.99465 21.2046 6.21928 21.345C6.38252 21.4471 6.42853 21.5277 6.32351 21.5277C6.11821 21.5277 6.16676 22.1633 6.51247 23.9959C6.71807 25.0856 6.91177 25.6058 7.11188 25.6058C7.33306 25.6058 7.3092 26.4654 7.0834 26.6289C6.96575 26.7141 6.87287 26.9375 6.87708 27.1251C6.8813 27.3128 6.82263 27.5209 6.7467 27.5875C6.67076 27.6541 6.586 27.9224 6.55835 28.1838C6.5011 28.7254 6.24667 29.0611 5.96364 28.9684C5.82989 28.9246 5.74452 29.0929 5.68523 29.5176C5.63821 29.8544 5.51128 30.2329 5.403 30.3588C5.17171 30.628 5.27945 31.0857 5.5742 31.0857C5.68694 31.0857 5.78064 31.1431 5.78222 31.2132C5.78379 31.2833 5.68021 31.3406 5.55189 31.3406C5.40103 31.3406 5.33062 31.4418 5.35229 31.6274C5.41456 32.1608 5.36263 32.2327 4.91509 32.2327C4.61841 32.2327 4.47151 32.2964 4.47437 32.4239C4.47673 32.529 4.54542 32.615 4.627 32.615C4.70859 32.615 4.77856 32.7584 4.7825 32.9336C4.78644 33.1089 4.72291 33.2522 4.64132 33.2522C4.55973 33.2522 4.49143 33.1834 4.48954 33.0993C4.48691 32.982 4.4461 32.9814 4.31503 33.0962C4.22105 33.1786 4.13261 33.6919 4.11859 34.2368C4.10473 34.7818 4.06733 35.3423 4.03562 35.4824C4.00406 35.6226 3.97408 35.7803 3.96903 35.8329C3.96383 35.8855 3.85562 35.9285 3.72849 35.9285C3.60137 35.9285 3.53517 35.9797 3.58168 36.0424C3.62818 36.105 3.56596 36.406 3.44347 36.7115C3.08766 37.5986 3.19641 38.4773 3.66204 38.4773C3.78353 38.4773 3.87163 38.6086 3.87584 38.7959C3.88029 38.9942 3.79889 39.1145 3.66049 39.1145C3.4454 39.1145 3.37966 39.3184 3.4453 39.7836C3.46259 39.9062 3.41426 40.0066 3.33802 40.0066C3.26162 40.0066 3.16122 40.2389 3.11479 40.5229C3.05101 40.9123 3.09106 41.0905 3.27734 41.2475C3.5061 41.4402 3.50305 41.4626 3.2378 41.5475C2.9995 41.6238 2.9602 41.743 3.00535 42.2542C3.0352 42.5923 3.13356 42.89 3.22403 42.9157C3.34183 42.9492 3.34103 43.0129 3.22106 43.1399C3.12906 43.2375 2.99337 43.2855 2.91967 43.2469C2.84581 43.2082 2.74489 43.2719 2.69545 43.3886C2.646 43.5052 2.67897 43.6392 2.76874 43.6863C3.01522 43.8157 3.02422 45.4708 2.78205 46.0878C2.74852 46.1732 2.78571 46.277 2.86466 46.3184C3.06806 46.4252 3.05747 47.0629 2.84929 47.2452C2.71357 47.3641 2.71509 47.4322 2.85617 47.5511C2.95596 47.6352 3.04066 47.8398 3.04438 48.0056C3.04811 48.1714 3.11586 48.4074 3.19501 48.53C3.27846 48.6592 3.29167 48.95 3.22642 49.2216C3.1624 49.4886 3.16938 49.6605 3.24267 49.6211C3.31346 49.5832 3.33275 49.7354 3.28558 49.9597C3.22688 50.239 3.26666 50.4118 3.41181 50.5077C3.61585 50.6427 3.72825 51.46 3.76199 53.0538C3.76922 53.3957 3.84223 53.7795 3.9243 53.9067C4.02404 54.0613 4.01983 54.2437 3.91159 54.4569C3.79851 54.6794 3.79674 54.9241 3.9056 55.2665C4.02627 55.646 4.01388 55.8208 3.85084 56.038C3.6626 56.289 3.6658 56.319 3.88059 56.319C4.01291 56.319 4.13304 56.3908 4.14732 56.4783C4.2248 56.9492 4.21838 57.0331 4.09454 57.1793C4.00668 57.2829 4.01772 57.3386 4.12601 57.3386C4.21753 57.3386 4.29566 57.4819 4.2996 57.6572C4.30354 57.8324 4.24164 57.9758 4.16213 57.9758C4.07046 57.9758 4.06987 58.0884 4.16028 58.283C4.23884 58.452 4.31336 58.9824 4.32591 59.4619C4.36235 60.8528 4.3869 61.0344 4.53835 61.0344C4.61712 61.0344 4.67029 61.2352 4.65652 61.4807C4.63505 61.8652 4.58917 61.9164 4.3263 61.8496C4.15846 61.807 3.68122 61.4952 3.26568 61.1566C2.85014 60.818 2.31938 60.501 2.08614 60.4522C1.81101 60.3946 1.72485 60.3297 1.84093 60.2673C1.96625 60.2 1.82229 59.9857 1.3604 59.5515C0.997767 59.2106 0.686654 58.9115 0.669191 58.8869C0.65158 58.8623 0.541763 58.9196 0.425071 59.0143C0.247924 59.1582 0.245586 59.239 0.411183 59.5053C0.520298 59.6808 0.752189 59.9334 0.926812 60.0667C1.10129 60.2001 1.2458 60.3863 1.24792 60.4806C1.25004 60.5749 1.3519 60.652 1.47428 60.652C1.59666 60.652 1.69843 60.7253 1.70044 60.8148C1.70246 60.9044 1.90859 61.1659 2.15852 61.3962C2.40845 61.6263 2.61364 61.8457 2.61449 61.8834C2.61728 62.0076 3.64094 62.8185 3.79506 62.8185C3.87798 62.8185 3.97093 62.7497 4.00182 62.6655C4.04528 62.5465 4.08281 62.5465 4.17122 62.6655C4.23364 62.7497 4.21086 62.8185 4.12067 62.8185C4.03048 62.8185 4.18147 63.0623 4.45636 63.3602C4.7311 63.658 4.97764 63.9288 5.00405 63.9618C5.03045 63.9948 5.10515 63.9457 5.16996 63.8526C5.25259 63.7342 5.3193 63.7258 5.39257 63.8244C5.6329 64.1485 6.14895 63.9627 6.54269 63.4102C6.76027 63.1051 6.93673 62.7919 6.93498 62.714C6.93323 62.6363 7.07053 62.5082 7.24009 62.4295C7.4606 62.327 7.52684 62.1987 7.47295 61.9788C7.4179 61.7539 7.46367 61.6716 7.6442 61.6716C7.94384 61.6716 8.23217 61.4384 8.17554 61.2418C8.1527 61.1628 8.16586 61.148 8.20477 61.2092C8.24367 61.2704 8.44756 61.1743 8.65774 60.9957C9.10215 60.6184 9.94677 59.944 10.4732 59.5461C10.7246 59.3561 10.8132 59.1852 10.7543 59.0045C10.6831 58.7871 10.7365 58.7404 11.056 58.7404C11.3843 58.7404 11.4429 58.6841 11.436 58.3758C11.429 58.0615 11.4764 58.0191 11.7781 58.0684C12.0137 58.107 12.2618 58.0177 12.5354 57.7958C12.7591 57.6145 12.9865 57.466 13.0405 57.466C13.0945 57.466 13.1197 57.2222 13.0964 56.9244C13.0151 55.88 12.717 55.5606 12.3604 56.1355C12.1428 56.4864 11.9412 56.5849 11.8036 56.4079C11.7151 56.2941 11.6499 56.3036 11.5468 56.4459C11.4272 56.6109 11.3812 56.605 11.2043 56.4025C11.0187 56.1901 10.9823 56.1873 10.8087 56.3713C10.7036 56.4827 10.5541 56.5739 10.4767 56.5739C10.3993 56.5739 10.2377 56.66 10.1177 56.7651C9.98724 56.8794 9.96686 56.9563 10.0673 56.9563C10.1594 56.9563 10.195 57.0136 10.1461 57.0837C10.0972 57.1538 9.92779 57.2111 9.76936 57.2111C9.59952 57.2111 9.4834 57.2983 9.48621 57.4236C9.48883 57.5403 9.44592 57.5979 9.39089 57.5515C9.20869 57.3981 7.58405 58.5917 7.59041 58.8745C7.5919 58.9409 7.33272 59.2234 7.01456 59.5021C6.253 60.1693 5.97408 60.0884 5.98745 59.2042C6.00475 58.0533 5.86611 56.2597 5.74967 56.1279C5.68772 56.0578 5.57916 55.4579 5.50834 54.7949C5.43751 54.1318 5.31543 53.5244 5.23696 53.445C5.15848 53.3656 5.13196 53.2677 5.17807 53.2273C5.31584 53.1066 5.32034 51.8547 5.18315 51.7828C5.11334 51.7461 5.04665 51.5045 5.0352 51.2457C5.0236 50.987 4.95798 50.6607 4.88911 50.5205C4.8204 50.3803 4.81896 50.1713 4.88609 50.056C4.96664 49.9174 4.93346 49.7941 4.78817 49.6921C4.63776 49.5866 4.60904 49.4702 4.69726 49.3233C4.8607 49.0511 4.75522 46.2512 4.58151 46.2512C4.51031 46.2512 4.53503 46.1633 4.63646 46.0557C4.7783 45.9055 4.78027 45.7948 4.64471 45.5778C4.54776 45.4225 4.46761 45.0373 4.46675 44.7219C4.46575 44.4065 4.42694 43.9798 4.38033 43.7736C4.33386 43.5674 4.36602 43.282 4.45181 43.1391C4.5376 42.9962 4.62444 42.7347 4.64465 42.5581C4.66501 42.3813 4.70962 42.0098 4.74374 41.7325C4.80533 41.2321 4.60258 40.8373 4.35297 40.9713C4.28144 41.0097 4.22173 40.9866 4.22023 40.9198C4.21873 40.8531 4.30865 40.7683 4.41997 40.7314C4.53128 40.6943 4.66388 40.3902 4.71481 40.0554C4.79107 39.5544 4.761 39.4178 4.54499 39.2841C4.31211 39.1397 4.30869 39.1129 4.51468 39.0444C5.00484 38.8817 5.22695 38.1439 5.09278 37.1241C5.01855 36.5602 4.87619 36.0935 4.74434 35.9824C4.62157 35.879 4.5571 35.7099 4.60091 35.6066C4.73306 35.2952 4.98495 35.395 5.01175 35.7692C5.02881 36.0069 5.05783 36.0439 5.10216 35.8844C5.13797 35.755 5.27115 35.5427 5.39802 35.4125C5.64466 35.1594 5.69526 34.9683 5.79307 33.9213C5.83621 33.4579 5.92059 33.2522 6.06715 33.2522C6.29767 33.2522 6.20099 32.6929 5.91847 32.392C5.81179 32.2784 5.83791 32.2327 6.00953 32.2327C6.14185 32.2327 6.24821 32.1467 6.24585 32.0415C6.24348 31.9364 6.33471 31.8504 6.44848 31.8504C6.60884 31.8504 6.62628 31.7487 6.52628 31.3977C6.434 31.0738 6.44641 30.9591 6.57003 30.9946C6.75203 31.0469 7.09986 30.4386 7.09186 30.0821C7.08926 29.9668 7.25055 29.7178 7.45027 29.5288C7.64999 29.3399 7.81028 29.0465 7.80647 28.8771C7.79356 28.3023 7.96619 27.7723 8.16644 27.7723C8.27829 27.7723 8.33186 27.8522 8.28832 27.9545C8.17703 28.217 8.65573 28.9832 9.04337 29.1632C9.2252 29.2474 9.5426 29.5424 9.74877 29.8187C9.95494 30.095 10.2104 30.3211 10.3163 30.3211C10.4222 30.3211 10.5108 30.4005 10.513 30.4976C10.5195 30.7865 11.2483 31.1177 11.6743 31.0254C11.9152 30.9732 12.0984 31.004 12.1792 31.1102C12.2743 31.2353 12.3053 31.2212 12.3033 31.0539C12.2984 30.6647 12.9547 30.7228 13.5028 31.1602C13.9348 31.5049 14.9346 31.609 14.7867 31.294C14.7319 31.1771 14.8953 31.0704 15.2828 30.9701C15.8472 30.8241 15.9365 30.6997 15.8692 30.1544C15.8513 30.0096 15.9053 29.9579 16.0143 30.015C16.133 30.0773 16.1594 30.0193 16.098 29.8312C16.0486 29.6801 16.0596 29.5564 16.1225 29.5564C16.2455 29.5564 16.6998 28.5655 16.6941 28.3097C16.6921 28.2243 16.5904 28.1546 16.4681 28.1546C16.1663 28.1546 16.1813 27.9012 16.4949 27.6994C16.6999 27.5673 16.7133 27.5025 16.5618 27.373C16.4579 27.2842 16.3697 27.0796 16.3661 26.9184C16.3625 26.7572 16.2922 26.6253 16.21 26.6253C16.1192 26.6253 16.128 26.5292 16.2326 26.3807C16.3674 26.1894 16.3635 26.0942 16.2146 25.9437C16.1098 25.8378 15.9919 25.561 15.9526 25.3287C15.9131 25.0964 15.8126 24.8869 15.7291 24.863C15.6455 24.8393 15.5755 24.7416 15.5734 24.6459C15.5712 24.55 15.3157 24.3144 15.0053 24.1221C14.6951 23.9298 14.3532 23.6834 14.2456 23.5746C14.0724 23.3996 14.0321 23.3989 13.8975 23.5673C13.7697 23.7274 13.7577 23.7226 13.823 23.5368C13.9065 23.2992 13.4394 22.9968 13.2364 23.157C13.173 23.2071 13.1741 23.1667 13.2392 23.0671C13.3264 22.9336 13.2951 22.9068 13.1199 22.9651C12.9531 23.0205 12.9057 22.989 12.9607 22.8593C13.0643 22.6151 12.6159 22.6184 12.0694 22.8658C11.8353 22.9717 11.493 23.0215 11.2931 22.9786C11.0016 22.916 10.9368 22.9508 10.9417 23.1674C10.9468 23.3984 10.8986 23.4171 10.5724 23.3113C10.2505 23.2069 10.1409 23.2453 9.79971 23.5821C9.58116 23.798 9.22042 24.0563 8.99838 24.1563C8.72302 24.2801 8.59678 24.4383 8.60161 24.6533C8.61009 25.0306 8.31885 25.0746 8.20097 24.7137C8.1551 24.5735 8.05862 24.4588 7.98653 24.4588C7.91444 24.4588 7.85433 24.1865 7.85293 23.8535C7.84869 22.9054 7.60652 22.0374 7.34619 22.0374C7.12991 22.0374 7.17487 21.6353 7.40868 21.478C7.55379 21.3803 7.63947 20.9421 7.68543 20.0629C7.72191 19.3624 7.81754 18.7197 7.89766 18.6347C7.97778 18.5497 7.99722 18.4178 7.94062 18.3416C7.88402 18.2654 7.91664 18.1195 8.01284 18.0174C8.13615 17.8868 8.13877 17.8319 8.02143 17.8319C7.78276 17.8319 7.8087 17.5012 8.06503 17.2766C8.36194 17.0164 8.34035 16.953 7.90626 16.8123C7.7008 16.7457 7.53639 16.6181 7.54076 16.5288C7.54709 16.401 7.56547 16.4003 7.62717 16.5256C7.8053 16.8874 8.41871 16.5127 8.40828 16.0485C8.40492 15.8986 8.47871 15.6508 8.57228 15.4977C8.66571 15.3446 8.75412 15.1333 8.76867 15.0282C8.78307 14.923 8.86795 14.5216 8.95719 14.1361C9.04628 13.7506 9.14327 13.2344 9.17262 12.9891C9.25145 12.3318 9.31935 12.2245 9.65742 12.2245C9.82578 12.2245 9.99783 12.1242 10.04 12.0014C10.0821 11.8787 10.1877 11.635 10.2745 11.4598C10.3614 11.2846 10.4415 11.0419 10.4524 10.9205C10.4635 10.799 10.5588 10.6084 10.6641 10.4966C10.824 10.3271 10.82 10.2742 10.6403 10.1776C10.4633 10.0826 10.4711 10.0615 10.6842 10.0599C10.8271 10.0589 10.951 9.95767 10.9598 9.83494C10.9748 9.62683 10.9895 9.44969 11.0401 8.87162C11.0512 8.74481 11.1217 8.67332 11.1969 8.7127C11.2719 8.75208 11.4405 8.74877 11.5713 8.70531C11.7471 8.64694 11.7667 8.58335 11.6464 8.46151C11.526 8.33981 11.5522 8.252 11.7462 8.12583C12.0516 7.92703 12.9472 6.79548 12.9431 6.61336C12.9416 6.54531 13.0405 6.48962 13.1629 6.48962C13.4314 6.48962 13.454 6.14846 13.1906 6.07123C13.088 6.04103 13.1219 6.03172 13.2662 6.05033C13.6226 6.09646 13.913 5.62315 13.5924 5.51826C13.252 5.40688 13.3063 5.1743 13.6544 5.25217C13.8186 5.28887 13.9143 5.26682 13.8671 5.20336C13.8199 5.13976 13.914 5.08777 14.0763 5.08777C14.4218 5.08777 14.8701 4.73769 14.7434 4.56679C14.6952 4.50192 14.752 4.41679 14.8697 4.37767C14.9873 4.33867 15.065 4.20995 15.0423 4.09182C15.0196 3.97368 15.0312 3.94883 15.0683 4.03638C15.1808 4.3026 15.457 4.20677 16.0503 3.69598C16.5854 3.23528 16.6664 2.84761 16.1949 3.00423C15.8974 3.103 15.9155 2.83436 16.2163 2.68805C16.4354 2.58164 16.4287 2.55564 16.1498 2.42858C15.8884 2.30968 15.7668 2.34728 15.374 2.66817ZM14.6321 24.1534C14.5838 24.1958 14.4559 24.2003 14.3481 24.1635C14.2288 24.1229 14.2633 24.0927 14.436 24.0865C14.5922 24.0811 14.6804 24.1111 14.6321 24.1534ZM13.553 24.8039C13.6252 24.9085 13.8127 25.0872 13.9698 25.2009C14.127 25.3146 14.257 25.4767 14.2589 25.5613C14.2608 25.6458 14.3513 25.7908 14.4599 25.8835C14.6244 26.0238 14.8214 26.3217 14.9503 26.6253C14.9652 26.6603 15.0315 26.7901 15.0974 26.9137C15.1635 27.0372 15.1567 27.2092 15.0824 27.296C14.8908 27.5195 14.893 28.0491 15.0865 28.2448C15.2078 28.3677 15.1641 28.5217 14.9179 28.8395C14.5001 29.3785 13.873 29.6663 13.0171 29.712C12.404 29.7448 12.3381 29.7823 12.1979 30.1785C12.0796 30.5131 12.0227 30.5605 11.9431 30.391C11.8868 30.271 11.8383 30.0628 11.8352 29.9283C11.8322 29.7939 11.7463 29.682 11.6442 29.6797C11.3852 29.6737 10.7173 29.1856 10.8315 29.0857C10.9384 28.992 10.4906 28.5369 10.2914 28.5369C10.0471 28.5369 9.61418 28.0935 9.43291 27.6577C9.21102 27.1241 9.18913 26.6253 9.38761 26.6253C9.4692 26.6253 9.53333 26.5088 9.53013 26.3665C9.52693 26.224 9.6237 26.0745 9.74518 26.0342C9.86665 25.9938 9.96453 25.8935 9.96268 25.8112C9.96083 25.729 10.1581 25.5967 10.4011 25.5173C10.6975 25.4205 10.8409 25.2855 10.8369 25.1071C10.8325 24.9115 10.9248 24.8411 11.1859 24.8411C11.3811 24.8411 11.5762 24.7578 11.6195 24.6558C11.7265 24.4035 13.3633 24.5288 13.553 24.8039ZM13.5862 30.7274C13.5412 30.8289 13.5054 30.7987 13.4949 30.6503C13.4855 30.5159 13.5188 30.4408 13.569 30.4831C13.6192 30.5254 13.627 30.6354 13.5862 30.7274ZM4.7011 37.2666C4.73509 37.4325 4.70889 37.4681 4.6264 37.3686C4.55658 37.2845 4.33312 37.1563 4.1299 37.0839C3.76637 36.9543 3.76752 36.9525 4.20459 36.9819C4.51955 37.0031 4.66426 37.086 4.7011 37.2666Z" fill="#26666F"/>
</svg>
