<svg width="40" height="40" viewBox="0 0 40 40" fill="none" xmlns="http://www.w3.org/2000/svg">
<path d="M27.1498 16.5184C27.1612 16.6728 27.1612 16.8272 27.1612 16.9816C27.1612 21.6912 23.4493 27.1176 16.665 27.1176C14.5749 27.1176 12.6333 26.5331 11 25.5184C11.297 25.5515 11.5825 25.5625 11.8909 25.5625C13.6155 25.5625 15.2031 25 16.4708 24.0405C14.849 24.0074 13.4898 22.9816 13.0216 21.5699C13.25 21.6029 13.4784 21.625 13.7183 21.625C14.0495 21.625 14.3807 21.5809 14.6891 21.5037C12.9987 21.1728 11.7309 19.739 11.7309 18.0073V17.9632C12.222 18.228 12.7932 18.3934 13.3984 18.4154C12.4048 17.7757 11.7538 16.6838 11.7538 15.4485C11.7538 14.7868 11.9365 14.1801 12.2563 13.6507C14.0723 15.8125 16.802 17.2242 19.8629 17.3787C19.8058 17.114 19.7716 16.8382 19.7716 16.5625C19.7716 14.5992 21.4162 13 23.4607 13C24.5228 13 25.4822 13.4301 26.1561 14.125C26.9898 13.9706 27.7893 13.6728 28.4975 13.2647C28.2233 14.0919 27.6409 14.7868 26.8756 15.2279C27.618 15.1508 28.3376 14.9522 29 14.6765C28.4975 15.3823 27.8693 16.011 27.1498 16.5184Z" fill="#48A145"/>
<path d="M20 39C9.50659 39 1 30.4934 1 20H-1C-1 31.598 8.40202 41 20 41V39ZM39 20C39 30.4934 30.4934 39 20 39V41C31.598 41 41 31.598 41 20H39ZM20 1C30.4934 1 39 9.50659 39 20H41C41 8.40202 31.598 -1 20 -1V1ZM20 -1C8.40202 -1 -1 8.40202 -1 20H1C1 9.50659 9.50659 1 20 1V-1Z" fill="#48A145"/>
</svg>
